<?xml version="1.0" encoding="UTF-8" standalone="no"?>
<!-- Created with Inkscape (http://www.inkscape.org/) -->

<svg
   xmlns:dc="http://purl.org/dc/elements/1.1/"
   xmlns:cc="http://creativecommons.org/ns#"
   xmlns:rdf="http://www.w3.org/1999/02/22-rdf-syntax-ns#"
   xmlns:svg="http://www.w3.org/2000/svg"
   xmlns="http://www.w3.org/2000/svg"
   xmlns:sodipodi="http://sodipodi.sourceforge.net/DTD/sodipodi-0.dtd"
   xmlns:inkscape="http://www.inkscape.org/namespaces/inkscape"
   id="svg2"
   version="1.1"
   inkscape:version="0.91 r13725"
   xml:space="preserve"
   width="720"
   height="540"
   viewBox="0 0 720 540"
   sodipodi:docname="quadpts.svg"><metadata
     id="metadata8"><rdf:RDF><cc:Work
         rdf:about=""><dc:format>image/svg+xml</dc:format><dc:type
           rdf:resource="http://purl.org/dc/dcmitype/StillImage" /><dc:title></dc:title></cc:Work></rdf:RDF></metadata><defs
     id="defs6"><clipPath
       clipPathUnits="userSpaceOnUse"
       id="clipPath22"><path
         d="m 720,432 4464,0 0,3456 -4464,0 0,-3456 z"
         id="path24"
         inkscape:connector-curvature="0" /></clipPath></defs><sodipodi:namedview
     pagecolor="#ffffff"
     bordercolor="#666666"
     borderopacity="1"
     objecttolerance="10"
     gridtolerance="10"
     guidetolerance="10"
     inkscape:pageopacity="0"
     inkscape:pageshadow="2"
     inkscape:window-width="640"
     inkscape:window-height="480"
     id="namedview4"
     showgrid="false"
     inkscape:zoom="0.43703704"
     inkscape:cx="360"
     inkscape:cy="270"
     inkscape:window-x="100"
     inkscape:window-y="53"
     inkscape:window-maximized="0"
     inkscape:current-layer="g10" /><g
     id="g10"
     inkscape:groupmode="layer"
     inkscape:label="quadpts"
     transform="matrix(1.25,0,0,-1.25,0,540)"><g
       id="g12"
       transform="scale(0.1,0.1)"><path
         d="m 0,0 5760,0 0,4320 L 0,4320 0,0 Z"
         style="fill:#ffffff;fill-opacity:1;fill-rule:nonzero;stroke:none"
         id="path14"
         inkscape:connector-curvature="0" /><path
         d="m 720,432 4464,0 0,3456 -4464,0 0,-3456 z"
         style="fill:#ffffff;fill-opacity:1;fill-rule:nonzero;stroke:none"
         id="path16"
         inkscape:connector-curvature="0" /><g
         id="g18"><g
           id="g20"
           clip-path="url(#clipPath22)"><path
             d="m 760.027,2492.65 c 7.953,0 15.586,3.16 21.211,8.79 5.625,5.62 8.789,13.26 8.789,21.21 0,7.96 -3.164,15.59 -8.789,21.21 -5.625,5.63 -13.258,8.79 -21.211,8.79 -7.957,0 -15.589,-3.16 -21.215,-8.79 -5.624,-5.62 -8.785,-13.25 -8.785,-21.21 0,-7.95 3.161,-15.59 8.785,-21.21 5.626,-5.63 13.258,-8.79 21.215,-8.79"
             style="fill:#ff0000;fill-opacity:1;fill-rule:nonzero;stroke:none"
             id="path26"
             inkscape:connector-curvature="0" /><path
             d="m 760.027,2492.65 c 7.953,0 15.586,3.16 21.211,8.79 5.625,5.62 8.789,13.26 8.789,21.21 0,7.96 -3.164,15.59 -8.789,21.21 -5.625,5.63 -13.258,8.79 -21.211,8.79 -7.957,0 -15.589,-3.16 -21.215,-8.79 -5.624,-5.62 -8.785,-13.25 -8.785,-21.21 0,-7.95 3.161,-15.59 8.785,-21.21 5.626,-5.63 13.258,-8.79 21.215,-8.79 z"
             style="fill:none;stroke:#000000;stroke-width:5;stroke-linecap:butt;stroke-linejoin:round;stroke-miterlimit:10;stroke-dasharray:none;stroke-opacity:1"
             id="path28"
             inkscape:connector-curvature="0" /><path
             d="m 892.469,2336.51 c 7.953,0 15.586,3.16 21.211,8.79 5.625,5.62 8.789,13.25 8.789,21.21 0,7.95 -3.164,15.59 -8.789,21.21 -5.625,5.63 -13.258,8.79 -21.211,8.79 -7.957,0 -15.59,-3.16 -21.215,-8.79 -5.625,-5.62 -8.785,-13.26 -8.785,-21.21 0,-7.96 3.16,-15.59 8.785,-21.21 5.625,-5.63 13.258,-8.79 21.215,-8.79"
             style="fill:#ff0000;fill-opacity:1;fill-rule:nonzero;stroke:none"
             id="path30"
             inkscape:connector-curvature="0" /><path
             d="m 892.469,2336.51 c 7.953,0 15.586,3.16 21.211,8.79 5.625,5.62 8.789,13.25 8.789,21.21 0,7.95 -3.164,15.59 -8.789,21.21 -5.625,5.63 -13.258,8.79 -21.211,8.79 -7.957,0 -15.59,-3.16 -21.215,-8.79 -5.625,-5.62 -8.785,-13.26 -8.785,-21.21 0,-7.96 3.16,-15.59 8.785,-21.21 5.625,-5.63 13.258,-8.79 21.215,-8.79 z"
             style="fill:none;stroke:#000000;stroke-width:5;stroke-linecap:butt;stroke-linejoin:round;stroke-miterlimit:10;stroke-dasharray:none;stroke-opacity:1"
             id="path32"
             inkscape:connector-curvature="0" /><path
             d="m 1093.13,2036.68 c 7.96,0 15.59,3.16 21.21,8.78 5.63,5.63 8.79,13.26 8.79,21.22 0,7.96 -3.16,15.59 -8.79,21.21 -5.62,5.63 -13.25,8.79 -21.21,8.79 -7.95,0 -15.59,-3.16 -21.21,-8.79 -5.63,-5.62 -8.79,-13.25 -8.79,-21.21 0,-7.96 3.16,-15.59 8.79,-21.22 5.62,-5.62 13.26,-8.78 21.21,-8.78"
             style="fill:#ff0000;fill-opacity:1;fill-rule:nonzero;stroke:none"
             id="path34"
             inkscape:connector-curvature="0" /><path
             d="m 1093.13,2036.68 c 7.96,0 15.59,3.16 21.21,8.78 5.63,5.63 8.79,13.26 8.79,21.22 0,7.96 -3.16,15.59 -8.79,21.21 -5.62,5.63 -13.25,8.79 -21.21,8.79 -7.95,0 -15.59,-3.16 -21.21,-8.79 -5.63,-5.62 -8.79,-13.25 -8.79,-21.21 0,-7.96 3.16,-15.59 8.79,-21.22 5.62,-5.62 13.26,-8.78 21.21,-8.78 z"
             style="fill:none;stroke:#000000;stroke-width:5;stroke-linecap:butt;stroke-linejoin:round;stroke-miterlimit:10;stroke-dasharray:none;stroke-opacity:1"
             id="path36"
             inkscape:connector-curvature="0" /><path
             d="m 1335.66,2009.09 c 7.96,0 15.59,3.16 21.22,8.79 5.62,5.62 8.78,13.25 8.78,21.21 0,7.96 -3.16,15.59 -8.78,21.21 -5.63,5.63 -13.26,8.79 -21.22,8.79 -7.96,0 -15.59,-3.16 -21.21,-8.79 -5.63,-5.62 -8.79,-13.25 -8.79,-21.21 0,-7.96 3.16,-15.59 8.79,-21.21 5.62,-5.63 13.25,-8.79 21.21,-8.79"
             style="fill:#ff0000;fill-opacity:1;fill-rule:nonzero;stroke:none"
             id="path38"
             inkscape:connector-curvature="0" /><path
             d="m 1335.66,2009.09 c 7.96,0 15.59,3.16 21.22,8.79 5.62,5.62 8.78,13.25 8.78,21.21 0,7.96 -3.16,15.59 -8.78,21.21 -5.63,5.63 -13.26,8.79 -21.22,8.79 -7.96,0 -15.59,-3.16 -21.21,-8.79 -5.63,-5.62 -8.79,-13.25 -8.79,-21.21 0,-7.96 3.16,-15.59 8.79,-21.21 5.62,-5.63 13.25,-8.79 21.21,-8.79 z"
             style="fill:none;stroke:#000000;stroke-width:5;stroke-linecap:butt;stroke-linejoin:round;stroke-miterlimit:10;stroke-dasharray:none;stroke-opacity:1"
             id="path40"
             inkscape:connector-curvature="0" /><path
             d="m 1627.56,1400.96 c 7.96,0 15.59,3.16 21.21,8.79 5.63,5.62 8.79,13.25 8.79,21.21 0,7.96 -3.16,15.59 -8.79,21.21 -5.62,5.63 -13.25,8.79 -21.21,8.79 -7.95,0 -15.59,-3.16 -21.21,-8.79 -5.63,-5.62 -8.79,-13.25 -8.79,-21.21 0,-7.96 3.16,-15.59 8.79,-21.21 5.62,-5.63 13.26,-8.79 21.21,-8.79"
             style="fill:#ff0000;fill-opacity:1;fill-rule:nonzero;stroke:none"
             id="path42"
             inkscape:connector-curvature="0" /><path
             d="m 1627.56,1400.96 c 7.96,0 15.59,3.16 21.21,8.79 5.63,5.62 8.79,13.25 8.79,21.21 0,7.96 -3.16,15.59 -8.79,21.21 -5.62,5.63 -13.25,8.79 -21.21,8.79 -7.95,0 -15.59,-3.16 -21.21,-8.79 -5.63,-5.62 -8.79,-13.25 -8.79,-21.21 0,-7.96 3.16,-15.59 8.79,-21.21 5.62,-5.63 13.26,-8.79 21.21,-8.79 z"
             style="fill:none;stroke:#000000;stroke-width:5;stroke-linecap:butt;stroke-linejoin:round;stroke-miterlimit:10;stroke-dasharray:none;stroke-opacity:1"
             id="path44"
             inkscape:connector-curvature="0" /><path
             d="m 1715.54,1324.71 c 7.96,0 15.59,3.16 21.21,8.79 5.63,5.62 8.79,13.25 8.79,21.21 0,7.96 -3.16,15.59 -8.79,21.21 -5.62,5.63 -13.25,8.79 -21.21,8.79 -7.95,0 -15.59,-3.16 -21.21,-8.79 -5.63,-5.62 -8.79,-13.25 -8.79,-21.21 0,-7.96 3.16,-15.59 8.79,-21.21 5.62,-5.63 13.26,-8.79 21.21,-8.79"
             style="fill:#ff0000;fill-opacity:1;fill-rule:nonzero;stroke:none"
             id="path46"
             inkscape:connector-curvature="0" /><path
             d="m 1715.54,1324.71 c 7.96,0 15.59,3.16 21.21,8.79 5.63,5.62 8.79,13.25 8.79,21.21 0,7.96 -3.16,15.59 -8.79,21.21 -5.62,5.63 -13.25,8.79 -21.21,8.79 -7.95,0 -15.59,-3.16 -21.21,-8.79 -5.63,-5.62 -8.79,-13.25 -8.79,-21.21 0,-7.96 3.16,-15.59 8.79,-21.21 5.62,-5.63 13.26,-8.79 21.21,-8.79 z"
             style="fill:none;stroke:#000000;stroke-width:5;stroke-linecap:butt;stroke-linejoin:round;stroke-miterlimit:10;stroke-dasharray:none;stroke-opacity:1"
             id="path48"
             inkscape:connector-curvature="0" /><path
             d="m 2011.65,1036.04 c 7.96,0 15.59,3.16 21.21,8.79 5.63,5.62 8.79,13.25 8.79,21.21 0,7.96 -3.16,15.59 -8.79,21.21 -5.62,5.63 -13.25,8.79 -21.21,8.79 -7.95,0 -15.59,-3.16 -21.21,-8.79 -5.63,-5.62 -8.79,-13.25 -8.79,-21.21 0,-7.96 3.16,-15.59 8.79,-21.21 5.62,-5.63 13.26,-8.79 21.21,-8.79"
             style="fill:#ff0000;fill-opacity:1;fill-rule:nonzero;stroke:none"
             id="path50"
             inkscape:connector-curvature="0" /><path
             d="m 2011.65,1036.04 c 7.96,0 15.59,3.16 21.21,8.79 5.63,5.62 8.79,13.25 8.79,21.21 0,7.96 -3.16,15.59 -8.79,21.21 -5.62,5.63 -13.25,8.79 -21.21,8.79 -7.95,0 -15.59,-3.16 -21.21,-8.79 -5.63,-5.62 -8.79,-13.25 -8.79,-21.21 0,-7.96 3.16,-15.59 8.79,-21.21 5.62,-5.63 13.26,-8.79 21.21,-8.79 z"
             style="fill:none;stroke:#000000;stroke-width:5;stroke-linecap:butt;stroke-linejoin:round;stroke-miterlimit:10;stroke-dasharray:none;stroke-opacity:1"
             id="path52"
             inkscape:connector-curvature="0" /><path
             d="m 2328.07,678.945 c 7.96,0 15.59,3.164 21.22,8.789 5.62,5.625 8.78,13.258 8.78,21.211 0,7.957 -3.16,15.59 -8.78,21.215 -5.63,5.625 -13.26,8.785 -21.22,8.785 -7.96,0 -15.59,-3.16 -21.21,-8.785 -5.63,-5.625 -8.79,-13.258 -8.79,-21.215 0,-7.953 3.16,-15.586 8.79,-21.211 5.62,-5.625 13.25,-8.789 21.21,-8.789"
             style="fill:#ff0000;fill-opacity:1;fill-rule:nonzero;stroke:none"
             id="path54"
             inkscape:connector-curvature="0" /><path
             d="m 2328.07,678.945 c 7.96,0 15.59,3.164 21.22,8.789 5.62,5.625 8.78,13.258 8.78,21.211 0,7.957 -3.16,15.59 -8.78,21.215 -5.63,5.625 -13.26,8.785 -21.22,8.785 -7.96,0 -15.59,-3.16 -21.21,-8.785 -5.63,-5.625 -8.79,-13.258 -8.79,-21.215 0,-7.953 3.16,-15.586 8.79,-21.211 5.62,-5.625 13.25,-8.789 21.21,-8.789 z"
             style="fill:none;stroke:#000000;stroke-width:5;stroke-linecap:butt;stroke-linejoin:round;stroke-miterlimit:10;stroke-dasharray:none;stroke-opacity:1"
             id="path56"
             inkscape:connector-curvature="0" /><path
             d="m 2554.78,725.543 c 7.95,0 15.59,3.16 21.21,8.789 5.63,5.625 8.79,13.254 8.79,21.211 0,7.957 -3.16,15.59 -8.79,21.215 -5.62,5.625 -13.26,8.785 -21.21,8.785 -7.96,0 -15.59,-3.16 -21.21,-8.785 -5.63,-5.625 -8.79,-13.258 -8.79,-21.215 0,-7.957 3.16,-15.586 8.79,-21.211 5.62,-5.629 13.25,-8.789 21.21,-8.789"
             style="fill:#ff0000;fill-opacity:1;fill-rule:nonzero;stroke:none"
             id="path58"
             inkscape:connector-curvature="0" /><path
             d="m 2554.78,725.543 c 7.95,0 15.59,3.16 21.21,8.789 5.63,5.625 8.79,13.254 8.79,21.211 0,7.957 -3.16,15.59 -8.79,21.215 -5.62,5.625 -13.26,8.785 -21.21,8.785 -7.96,0 -15.59,-3.16 -21.21,-8.785 -5.63,-5.625 -8.79,-13.258 -8.79,-21.215 0,-7.957 3.16,-15.586 8.79,-21.211 5.62,-5.629 13.25,-8.789 21.21,-8.789 z"
             style="fill:none;stroke:#000000;stroke-width:5;stroke-linecap:butt;stroke-linejoin:round;stroke-miterlimit:10;stroke-dasharray:none;stroke-opacity:1"
             id="path60"
             inkscape:connector-curvature="0" /><path
             d="m 2672.74,1140.24 c 7.96,0 15.59,3.16 21.21,8.79 5.63,5.62 8.79,13.26 8.79,21.21 0,7.96 -3.16,15.59 -8.79,21.21 -5.62,5.63 -13.25,8.79 -21.21,8.79 -7.95,0 -15.59,-3.16 -21.21,-8.79 -5.63,-5.62 -8.79,-13.25 -8.79,-21.21 0,-7.95 3.16,-15.59 8.79,-21.21 5.62,-5.63 13.26,-8.79 21.21,-8.79"
             style="fill:#ff0000;fill-opacity:1;fill-rule:nonzero;stroke:none"
             id="path62"
             inkscape:connector-curvature="0" /><path
             d="m 2672.74,1140.24 c 7.96,0 15.59,3.16 21.21,8.79 5.63,5.62 8.79,13.26 8.79,21.21 0,7.96 -3.16,15.59 -8.79,21.21 -5.62,5.63 -13.25,8.79 -21.21,8.79 -7.95,0 -15.59,-3.16 -21.21,-8.79 -5.63,-5.62 -8.79,-13.25 -8.79,-21.21 0,-7.95 3.16,-15.59 8.79,-21.21 5.62,-5.63 13.26,-8.79 21.21,-8.79 z"
             style="fill:none;stroke:#000000;stroke-width:5;stroke-linecap:butt;stroke-linejoin:round;stroke-miterlimit:10;stroke-dasharray:none;stroke-opacity:1"
             id="path64"
             inkscape:connector-curvature="0" /><path
             d="m 2806.73,1437.01 c 7.96,0 15.59,3.16 21.21,8.79 5.63,5.62 8.79,13.25 8.79,21.21 0,7.95 -3.16,15.59 -8.79,21.21 -5.62,5.63 -13.25,8.79 -21.21,8.79 -7.96,0 -15.59,-3.16 -21.21,-8.79 -5.63,-5.62 -8.79,-13.26 -8.79,-21.21 0,-7.96 3.16,-15.59 8.79,-21.21 5.62,-5.63 13.25,-8.79 21.21,-8.79"
             style="fill:#ff0000;fill-opacity:1;fill-rule:nonzero;stroke:none"
             id="path66"
             inkscape:connector-curvature="0" /><path
             d="m 2806.73,1437.01 c 7.96,0 15.59,3.16 21.21,8.79 5.63,5.62 8.79,13.25 8.79,21.21 0,7.95 -3.16,15.59 -8.79,21.21 -5.62,5.63 -13.25,8.79 -21.21,8.79 -7.96,0 -15.59,-3.16 -21.21,-8.79 -5.63,-5.62 -8.79,-13.26 -8.79,-21.21 0,-7.96 3.16,-15.59 8.79,-21.21 5.62,-5.63 13.25,-8.79 21.21,-8.79 z"
             style="fill:none;stroke:#000000;stroke-width:5;stroke-linecap:butt;stroke-linejoin:round;stroke-miterlimit:10;stroke-dasharray:none;stroke-opacity:1"
             id="path68"
             inkscape:connector-curvature="0" /><path
             d="m 3285.96,1232.21 c 7.96,0 15.59,3.16 21.21,8.79 5.63,5.62 8.79,13.25 8.79,21.21 0,7.96 -3.16,15.59 -8.79,21.21 -5.62,5.63 -13.25,8.79 -21.21,8.79 -7.96,0 -15.59,-3.16 -21.21,-8.79 -5.63,-5.62 -8.79,-13.25 -8.79,-21.21 0,-7.96 3.16,-15.59 8.79,-21.21 5.62,-5.63 13.25,-8.79 21.21,-8.79"
             style="fill:#ff0000;fill-opacity:1;fill-rule:nonzero;stroke:none"
             id="path70"
             inkscape:connector-curvature="0" /><path
             d="m 3285.96,1232.21 c 7.96,0 15.59,3.16 21.21,8.79 5.63,5.62 8.79,13.25 8.79,21.21 0,7.96 -3.16,15.59 -8.79,21.21 -5.62,5.63 -13.25,8.79 -21.21,8.79 -7.96,0 -15.59,-3.16 -21.21,-8.79 -5.63,-5.62 -8.79,-13.25 -8.79,-21.21 0,-7.96 3.16,-15.59 8.79,-21.21 5.62,-5.63 13.25,-8.79 21.21,-8.79 z"
             style="fill:none;stroke:#000000;stroke-width:5;stroke-linecap:butt;stroke-linejoin:round;stroke-miterlimit:10;stroke-dasharray:none;stroke-opacity:1"
             id="path72"
             inkscape:connector-curvature="0" /><path
             d="m 3464.3,1509.88 c 7.96,0 15.59,3.16 21.21,8.79 5.63,5.62 8.79,13.26 8.79,21.21 0,7.96 -3.16,15.59 -8.79,21.21 -5.62,5.63 -13.25,8.79 -21.21,8.79 -7.96,0 -15.59,-3.16 -21.21,-8.79 -5.63,-5.62 -8.79,-13.25 -8.79,-21.21 0,-7.95 3.16,-15.59 8.79,-21.21 5.62,-5.63 13.25,-8.79 21.21,-8.79"
             style="fill:#ff0000;fill-opacity:1;fill-rule:nonzero;stroke:none"
             id="path74"
             inkscape:connector-curvature="0" /><path
             d="m 3464.3,1509.88 c 7.96,0 15.59,3.16 21.21,8.79 5.63,5.62 8.79,13.26 8.79,21.21 0,7.96 -3.16,15.59 -8.79,21.21 -5.62,5.63 -13.25,8.79 -21.21,8.79 -7.96,0 -15.59,-3.16 -21.21,-8.79 -5.63,-5.62 -8.79,-13.25 -8.79,-21.21 0,-7.95 3.16,-15.59 8.79,-21.21 5.62,-5.63 13.25,-8.79 21.21,-8.79 z"
             style="fill:none;stroke:#000000;stroke-width:5;stroke-linecap:butt;stroke-linejoin:round;stroke-miterlimit:10;stroke-dasharray:none;stroke-opacity:1"
             id="path76"
             inkscape:connector-curvature="0" /><path
             d="m 3548.8,1487.59 c 7.96,0 15.59,3.16 21.21,8.79 5.63,5.62 8.79,13.25 8.79,21.21 0,7.96 -3.16,15.59 -8.79,21.21 -5.62,5.63 -13.25,8.79 -21.21,8.79 -7.96,0 -15.59,-3.16 -21.21,-8.79 -5.63,-5.62 -8.79,-13.25 -8.79,-21.21 0,-7.96 3.16,-15.59 8.79,-21.21 5.62,-5.63 13.25,-8.79 21.21,-8.79"
             style="fill:#ff0000;fill-opacity:1;fill-rule:nonzero;stroke:none"
             id="path78"
             inkscape:connector-curvature="0" /><path
             d="m 3548.8,1487.59 c 7.96,0 15.59,3.16 21.21,8.79 5.63,5.62 8.79,13.25 8.79,21.21 0,7.96 -3.16,15.59 -8.79,21.21 -5.62,5.63 -13.25,8.79 -21.21,8.79 -7.96,0 -15.59,-3.16 -21.21,-8.79 -5.63,-5.62 -8.79,-13.25 -8.79,-21.21 0,-7.96 3.16,-15.59 8.79,-21.21 5.62,-5.63 13.25,-8.79 21.21,-8.79 z"
             style="fill:none;stroke:#000000;stroke-width:5;stroke-linecap:butt;stroke-linejoin:round;stroke-miterlimit:10;stroke-dasharray:none;stroke-opacity:1"
             id="path80"
             inkscape:connector-curvature="0" /><path
             d="m 3871.18,1768.67 c 7.96,0 15.59,3.16 21.21,8.79 5.63,5.62 8.79,13.25 8.79,21.21 0,7.95 -3.16,15.59 -8.79,21.21 -5.62,5.63 -13.25,8.79 -21.21,8.79 -7.96,0 -15.59,-3.16 -21.21,-8.79 -5.63,-5.62 -8.79,-13.26 -8.79,-21.21 0,-7.96 3.16,-15.59 8.79,-21.21 5.62,-5.63 13.25,-8.79 21.21,-8.79"
             style="fill:#ff0000;fill-opacity:1;fill-rule:nonzero;stroke:none"
             id="path82"
             inkscape:connector-curvature="0" /><path
             d="m 3871.18,1768.67 c 7.96,0 15.59,3.16 21.21,8.79 5.63,5.62 8.79,13.25 8.79,21.21 0,7.95 -3.16,15.59 -8.79,21.21 -5.62,5.63 -13.25,8.79 -21.21,8.79 -7.96,0 -15.59,-3.16 -21.21,-8.79 -5.63,-5.62 -8.79,-13.26 -8.79,-21.21 0,-7.96 3.16,-15.59 8.79,-21.21 5.62,-5.63 13.25,-8.79 21.21,-8.79 z"
             style="fill:none;stroke:#000000;stroke-width:5;stroke-linecap:butt;stroke-linejoin:round;stroke-miterlimit:10;stroke-dasharray:none;stroke-opacity:1"
             id="path84"
             inkscape:connector-curvature="0" /><path
             d="m 4046.98,1985.53 c 7.96,0 15.59,3.16 21.21,8.79 5.63,5.62 8.79,13.25 8.79,21.21 0,7.95 -3.16,15.59 -8.79,21.21 -5.62,5.63 -13.25,8.79 -21.21,8.79 -7.96,0 -15.59,-3.16 -21.21,-8.79 -5.63,-5.62 -8.79,-13.26 -8.79,-21.21 0,-7.96 3.16,-15.59 8.79,-21.21 5.62,-5.63 13.25,-8.79 21.21,-8.79"
             style="fill:#ff0000;fill-opacity:1;fill-rule:nonzero;stroke:none"
             id="path86"
             inkscape:connector-curvature="0" /><path
             d="m 4046.98,1985.53 c 7.96,0 15.59,3.16 21.21,8.79 5.63,5.62 8.79,13.25 8.79,21.21 0,7.95 -3.16,15.59 -8.79,21.21 -5.62,5.63 -13.25,8.79 -21.21,8.79 -7.96,0 -15.59,-3.16 -21.21,-8.79 -5.63,-5.62 -8.79,-13.26 -8.79,-21.21 0,-7.96 3.16,-15.59 8.79,-21.21 5.62,-5.63 13.25,-8.79 21.21,-8.79 z"
             style="fill:none;stroke:#000000;stroke-width:5;stroke-linecap:butt;stroke-linejoin:round;stroke-miterlimit:10;stroke-dasharray:none;stroke-opacity:1"
             id="path88"
             inkscape:connector-curvature="0" /><path
             d="m 4189.38,2413.11 c 7.96,0 15.59,3.16 21.21,8.79 5.63,5.62 8.79,13.25 8.79,21.21 0,7.96 -3.16,15.59 -8.79,21.21 -5.62,5.63 -13.25,8.79 -21.21,8.79 -7.95,0 -15.59,-3.16 -21.21,-8.79 -5.63,-5.62 -8.79,-13.25 -8.79,-21.21 0,-7.96 3.16,-15.59 8.79,-21.21 5.62,-5.63 13.26,-8.79 21.21,-8.79"
             style="fill:#ff0000;fill-opacity:1;fill-rule:nonzero;stroke:none"
             id="path90"
             inkscape:connector-curvature="0" /><path
             d="m 4189.38,2413.11 c 7.96,0 15.59,3.16 21.21,8.79 5.63,5.62 8.79,13.25 8.79,21.21 0,7.96 -3.16,15.59 -8.79,21.21 -5.62,5.63 -13.25,8.79 -21.21,8.79 -7.95,0 -15.59,-3.16 -21.21,-8.79 -5.63,-5.62 -8.79,-13.25 -8.79,-21.21 0,-7.96 3.16,-15.59 8.79,-21.21 5.62,-5.63 13.26,-8.79 21.21,-8.79 z"
             style="fill:none;stroke:#000000;stroke-width:5;stroke-linecap:butt;stroke-linejoin:round;stroke-miterlimit:10;stroke-dasharray:none;stroke-opacity:1"
             id="path92"
             inkscape:connector-curvature="0" /><path
             d="m 4600.01,3358.71 c 7.95,0 15.59,3.16 21.21,8.79 5.63,5.62 8.79,13.25 8.79,21.21 0,7.96 -3.16,15.59 -8.79,21.21 -5.62,5.63 -13.26,8.79 -21.21,8.79 -7.96,0 -15.59,-3.16 -21.21,-8.79 -5.63,-5.62 -8.79,-13.25 -8.79,-21.21 0,-7.96 3.16,-15.59 8.79,-21.21 5.62,-5.63 13.25,-8.79 21.21,-8.79"
             style="fill:#ff0000;fill-opacity:1;fill-rule:nonzero;stroke:none"
             id="path94"
             inkscape:connector-curvature="0" /><path
             d="m 4600.01,3358.71 c 7.95,0 15.59,3.16 21.21,8.79 5.63,5.62 8.79,13.25 8.79,21.21 0,7.96 -3.16,15.59 -8.79,21.21 -5.62,5.63 -13.26,8.79 -21.21,8.79 -7.96,0 -15.59,-3.16 -21.21,-8.79 -5.63,-5.62 -8.79,-13.25 -8.79,-21.21 0,-7.96 3.16,-15.59 8.79,-21.21 5.62,-5.63 13.25,-8.79 21.21,-8.79 z"
             style="fill:none;stroke:#000000;stroke-width:5;stroke-linecap:butt;stroke-linejoin:round;stroke-miterlimit:10;stroke-dasharray:none;stroke-opacity:1"
             id="path96"
             inkscape:connector-curvature="0" /><path
             d="m 4765.98,3261.33 c 7.96,0 15.59,3.16 21.22,8.79 5.62,5.62 8.78,13.26 8.78,21.21 0,7.96 -3.16,15.59 -8.78,21.21 -5.63,5.63 -13.26,8.79 -21.22,8.79 -7.96,0 -15.59,-3.16 -21.21,-8.79 -5.63,-5.62 -8.79,-13.25 -8.79,-21.21 0,-7.95 3.16,-15.59 8.79,-21.21 5.62,-5.63 13.25,-8.79 21.21,-8.79"
             style="fill:#ff0000;fill-opacity:1;fill-rule:nonzero;stroke:none"
             id="path98"
             inkscape:connector-curvature="0" /><path
             d="m 4765.98,3261.33 c 7.96,0 15.59,3.16 21.22,8.79 5.62,5.62 8.78,13.26 8.78,21.21 0,7.96 -3.16,15.59 -8.78,21.21 -5.63,5.63 -13.26,8.79 -21.22,8.79 -7.96,0 -15.59,-3.16 -21.21,-8.79 -5.63,-5.62 -8.79,-13.25 -8.79,-21.21 0,-7.95 3.16,-15.59 8.79,-21.21 5.62,-5.63 13.25,-8.79 21.21,-8.79 z"
             style="fill:none;stroke:#000000;stroke-width:5;stroke-linecap:butt;stroke-linejoin:round;stroke-miterlimit:10;stroke-dasharray:none;stroke-opacity:1"
             id="path100"
             inkscape:connector-curvature="0" /><path
             d="m 4966.17,3639.2 c 7.95,0 15.59,3.16 21.21,8.79 5.63,5.62 8.79,13.26 8.79,21.21 0,7.96 -3.16,15.59 -8.79,21.21 -5.62,5.63 -13.26,8.79 -21.21,8.79 -7.96,0 -15.59,-3.16 -21.21,-8.79 -5.63,-5.62 -8.79,-13.25 -8.79,-21.21 0,-7.95 3.16,-15.59 8.79,-21.21 5.62,-5.63 13.25,-8.79 21.21,-8.79"
             style="fill:#ff0000;fill-opacity:1;fill-rule:nonzero;stroke:none"
             id="path102"
             inkscape:connector-curvature="0" /><path
             d="m 4966.17,3639.2 c 7.95,0 15.59,3.16 21.21,8.79 5.63,5.62 8.79,13.26 8.79,21.21 0,7.96 -3.16,15.59 -8.79,21.21 -5.62,5.63 -13.26,8.79 -21.21,8.79 -7.96,0 -15.59,-3.16 -21.21,-8.79 -5.63,-5.62 -8.79,-13.25 -8.79,-21.21 0,-7.95 3.16,-15.59 8.79,-21.21 5.62,-5.63 13.25,-8.79 21.21,-8.79 z"
             style="fill:none;stroke:#000000;stroke-width:5;stroke-linecap:butt;stroke-linejoin:round;stroke-miterlimit:10;stroke-dasharray:none;stroke-opacity:1"
             id="path104"
             inkscape:connector-curvature="0" /></g></g><path
         d="m 720,432 0,40"
         style="fill:#000000;fill-opacity:1;fill-rule:nonzero;stroke:none"
         id="path106"
         inkscape:connector-curvature="0" /><path
         d="m 720,432 0,40"
         style="fill:none;stroke:#000000;stroke-width:5;stroke-linecap:butt;stroke-linejoin:round;stroke-miterlimit:10;stroke-dasharray:none;stroke-opacity:1"
         id="path108"
         inkscape:connector-curvature="0" /><path
         d="m 720,3888 0,-40"
         style="fill:#000000;fill-opacity:1;fill-rule:nonzero;stroke:none"
         id="path110"
         inkscape:connector-curvature="0" /><path
         d="m 720,3888 0,-40"
         style="fill:none;stroke:#000000;stroke-width:5;stroke-linecap:butt;stroke-linejoin:round;stroke-miterlimit:10;stroke-dasharray:none;stroke-opacity:1"
         id="path112"
         inkscape:connector-curvature="0" /><g
         id="g114"
         transform="scale(10,10)"><text
           transform="matrix(1,0,0,-1,63.25,30.2938)"
           style="font-variant:normal;font-weight:normal;font-size:12px;font-family:Arial;-inkscape-font-specification:Arial;writing-mode:lr-tb;fill:#000000;fill-opacity:1;fill-rule:nonzero;stroke:none"
           id="text116"><tspan
             x="0 7.6347647 11.449221"
             y="0"
             sodipodi:role="line"
             id="tspan118">0.0</tspan></text>
</g><path
         d="m 1464,432 0,40"
         style="fill:#000000;fill-opacity:1;fill-rule:nonzero;stroke:none"
         id="path120"
         inkscape:connector-curvature="0" /><path
         d="m 1464,432 0,40"
         style="fill:none;stroke:#000000;stroke-width:5;stroke-linecap:butt;stroke-linejoin:round;stroke-miterlimit:10;stroke-dasharray:none;stroke-opacity:1"
         id="path122"
         inkscape:connector-curvature="0" /><path
         d="m 1464,3888 0,-40"
         style="fill:#000000;fill-opacity:1;fill-rule:nonzero;stroke:none"
         id="path124"
         inkscape:connector-curvature="0" /><path
         d="m 1464,3888 0,-40"
         style="fill:none;stroke:#000000;stroke-width:5;stroke-linecap:butt;stroke-linejoin:round;stroke-miterlimit:10;stroke-dasharray:none;stroke-opacity:1"
         id="path126"
         inkscape:connector-curvature="0" /><g
         id="g128"
         transform="scale(10,10)"><text
           transform="matrix(1,0,0,-1,137.775,30.2938)"
           style="font-variant:normal;font-weight:normal;font-size:12px;font-family:Arial;-inkscape-font-specification:Arial;writing-mode:lr-tb;fill:#000000;fill-opacity:1;fill-rule:nonzero;stroke:none"
           id="text130"><tspan
             x="0 7.6347709 11.449221"
             y="0"
             sodipodi:role="line"
             id="tspan132">0.5</tspan></text>
</g><path
         d="m 2208,432 0,40"
         style="fill:#000000;fill-opacity:1;fill-rule:nonzero;stroke:none"
         id="path134"
         inkscape:connector-curvature="0" /><path
         d="m 2208,432 0,40"
         style="fill:none;stroke:#000000;stroke-width:5;stroke-linecap:butt;stroke-linejoin:round;stroke-miterlimit:10;stroke-dasharray:none;stroke-opacity:1"
         id="path136"
         inkscape:connector-curvature="0" /><path
         d="m 2208,3888 0,-40"
         style="fill:#000000;fill-opacity:1;fill-rule:nonzero;stroke:none"
         id="path138"
         inkscape:connector-curvature="0" /><path
         d="m 2208,3888 0,-40"
         style="fill:none;stroke:#000000;stroke-width:5;stroke-linecap:butt;stroke-linejoin:round;stroke-miterlimit:10;stroke-dasharray:none;stroke-opacity:1"
         id="path140"
         inkscape:connector-curvature="0" /><g
         id="g142"
         transform="scale(10,10)"><text
           transform="matrix(1,0,0,-1,212.308,30.2938)"
           style="font-variant:normal;font-weight:normal;font-size:12px;font-family:Arial;-inkscape-font-specification:Arial;writing-mode:lr-tb;fill:#000000;fill-opacity:1;fill-rule:nonzero;stroke:none"
           id="text144"><tspan
             x="0 7.6347589 11.449221"
             y="0"
             sodipodi:role="line"
             id="tspan146">1.0</tspan></text>
</g><path
         d="m 2952,432 0,40"
         style="fill:#000000;fill-opacity:1;fill-rule:nonzero;stroke:none"
         id="path148"
         inkscape:connector-curvature="0" /><path
         d="m 2952,432 0,40"
         style="fill:none;stroke:#000000;stroke-width:5;stroke-linecap:butt;stroke-linejoin:round;stroke-miterlimit:10;stroke-dasharray:none;stroke-opacity:1"
         id="path150"
         inkscape:connector-curvature="0" /><path
         d="m 2952,3888 0,-40"
         style="fill:#000000;fill-opacity:1;fill-rule:nonzero;stroke:none"
         id="path152"
         inkscape:connector-curvature="0" /><path
         d="m 2952,3888 0,-40"
         style="fill:none;stroke:#000000;stroke-width:5;stroke-linecap:butt;stroke-linejoin:round;stroke-miterlimit:10;stroke-dasharray:none;stroke-opacity:1"
         id="path154"
         inkscape:connector-curvature="0" /><g
         id="g156"
         transform="scale(10,10)"><text
           transform="matrix(1,0,0,-1,286.833,30.45)"
           style="font-variant:normal;font-weight:normal;font-size:12px;font-family:Arial;-inkscape-font-specification:Arial;writing-mode:lr-tb;fill:#000000;fill-opacity:1;fill-rule:nonzero;stroke:none"
           id="text158"><tspan
             x="0 7.6347589 11.449221"
             y="0"
             sodipodi:role="line"
             id="tspan160">1.5</tspan></text>
</g><path
         d="m 3696,432 0,40"
         style="fill:#000000;fill-opacity:1;fill-rule:nonzero;stroke:none"
         id="path162"
         inkscape:connector-curvature="0" /><path
         d="m 3696,432 0,40"
         style="fill:none;stroke:#000000;stroke-width:5;stroke-linecap:butt;stroke-linejoin:round;stroke-miterlimit:10;stroke-dasharray:none;stroke-opacity:1"
         id="path164"
         inkscape:connector-curvature="0" /><path
         d="m 3696,3888 0,-40"
         style="fill:#000000;fill-opacity:1;fill-rule:nonzero;stroke:none"
         id="path166"
         inkscape:connector-curvature="0" /><path
         d="m 3696,3888 0,-40"
         style="fill:none;stroke:#000000;stroke-width:5;stroke-linecap:butt;stroke-linejoin:round;stroke-miterlimit:10;stroke-dasharray:none;stroke-opacity:1"
         id="path168"
         inkscape:connector-curvature="0" /><g
         id="g170"
         transform="scale(10,10)"><text
           transform="matrix(1,0,0,-1,360.889,30.2938)"
           style="font-variant:normal;font-weight:normal;font-size:12px;font-family:Arial;-inkscape-font-specification:Arial;writing-mode:lr-tb;fill:#000000;fill-opacity:1;fill-rule:nonzero;stroke:none"
           id="text172"><tspan
             x="0 7.6347589 11.449221"
             y="0"
             sodipodi:role="line"
             id="tspan174">2.0</tspan></text>
</g><path
         d="m 4440,432 0,40"
         style="fill:#000000;fill-opacity:1;fill-rule:nonzero;stroke:none"
         id="path176"
         inkscape:connector-curvature="0" /><path
         d="m 4440,432 0,40"
         style="fill:none;stroke:#000000;stroke-width:5;stroke-linecap:butt;stroke-linejoin:round;stroke-miterlimit:10;stroke-dasharray:none;stroke-opacity:1"
         id="path178"
         inkscape:connector-curvature="0" /><path
         d="m 4440,3888 0,-40"
         style="fill:#000000;fill-opacity:1;fill-rule:nonzero;stroke:none"
         id="path180"
         inkscape:connector-curvature="0" /><path
         d="m 4440,3888 0,-40"
         style="fill:none;stroke:#000000;stroke-width:5;stroke-linecap:butt;stroke-linejoin:round;stroke-miterlimit:10;stroke-dasharray:none;stroke-opacity:1"
         id="path182"
         inkscape:connector-curvature="0" /><g
         id="g184"
         transform="scale(10,10)"><text
           transform="matrix(1,0,0,-1,435.414,30.2938)"
           style="font-variant:normal;font-weight:normal;font-size:12px;font-family:Arial;-inkscape-font-specification:Arial;writing-mode:lr-tb;fill:#000000;fill-opacity:1;fill-rule:nonzero;stroke:none"
           id="text186"><tspan
             x="0 7.6347833 11.449221"
             y="0"
             sodipodi:role="line"
             id="tspan188">2.5</tspan></text>
</g><path
         d="m 5184,432 0,40"
         style="fill:#000000;fill-opacity:1;fill-rule:nonzero;stroke:none"
         id="path190"
         inkscape:connector-curvature="0" /><path
         d="m 5184,432 0,40"
         style="fill:none;stroke:#000000;stroke-width:5;stroke-linecap:butt;stroke-linejoin:round;stroke-miterlimit:10;stroke-dasharray:none;stroke-opacity:1"
         id="path192"
         inkscape:connector-curvature="0" /><path
         d="m 5184,3888 0,-40"
         style="fill:#000000;fill-opacity:1;fill-rule:nonzero;stroke:none"
         id="path194"
         inkscape:connector-curvature="0" /><path
         d="m 5184,3888 0,-40"
         style="fill:none;stroke:#000000;stroke-width:5;stroke-linecap:butt;stroke-linejoin:round;stroke-miterlimit:10;stroke-dasharray:none;stroke-opacity:1"
         id="path196"
         inkscape:connector-curvature="0" /><g
         id="g198"
         transform="scale(10,10)"><text
           transform="matrix(1,0,0,-1,509.713,30.2938)"
           style="font-variant:normal;font-weight:normal;font-size:12px;font-family:Arial;-inkscape-font-specification:Arial;writing-mode:lr-tb;fill:#000000;fill-opacity:1;fill-rule:nonzero;stroke:none"
           id="text200"><tspan
             x="0 7.6347833 11.449221"
             y="0"
             sodipodi:role="line"
             id="tspan202">3.0</tspan></text>
</g><path
         d="m 720,432 40,0"
         style="fill:#000000;fill-opacity:1;fill-rule:nonzero;stroke:none"
         id="path204"
         inkscape:connector-curvature="0" /><path
         d="m 720,432 40,0"
         style="fill:none;stroke:#000000;stroke-width:5;stroke-linecap:butt;stroke-linejoin:round;stroke-miterlimit:10;stroke-dasharray:none;stroke-opacity:1"
         id="path206"
         inkscape:connector-curvature="0" /><path
         d="m 5184,432 -40,0"
         style="fill:#000000;fill-opacity:1;fill-rule:nonzero;stroke:none"
         id="path208"
         inkscape:connector-curvature="0" /><path
         d="m 5184,432 -40,0"
         style="fill:none;stroke:#000000;stroke-width:5;stroke-linecap:butt;stroke-linejoin:round;stroke-miterlimit:10;stroke-dasharray:none;stroke-opacity:1"
         id="path210"
         inkscape:connector-curvature="0" /><g
         id="g212"
         transform="scale(10,10)"><text
           transform="matrix(1,0,0,-1,50.375,38.8328)"
           style="font-variant:normal;font-weight:normal;font-size:12px;font-family:Arial;-inkscape-font-specification:Arial;writing-mode:lr-tb;fill:#000000;fill-opacity:1;fill-rule:nonzero;stroke:none"
           id="text214"><tspan
             x="0 7.6347647 11.449221"
             y="0"
             sodipodi:role="line"
             id="tspan216">0.4</tspan></text>
</g><path
         d="m 720,864 40,0"
         style="fill:#000000;fill-opacity:1;fill-rule:nonzero;stroke:none"
         id="path218"
         inkscape:connector-curvature="0" /><path
         d="m 720,864 40,0"
         style="fill:none;stroke:#000000;stroke-width:5;stroke-linecap:butt;stroke-linejoin:round;stroke-miterlimit:10;stroke-dasharray:none;stroke-opacity:1"
         id="path220"
         inkscape:connector-curvature="0" /><path
         d="m 5184,864 -40,0"
         style="fill:#000000;fill-opacity:1;fill-rule:nonzero;stroke:none"
         id="path222"
         inkscape:connector-curvature="0" /><path
         d="m 5184,864 -40,0"
         style="fill:none;stroke:#000000;stroke-width:5;stroke-linecap:butt;stroke-linejoin:round;stroke-miterlimit:10;stroke-dasharray:none;stroke-opacity:1"
         id="path224"
         inkscape:connector-curvature="0" /><g
         id="g226"
         transform="scale(10,10)"><text
           transform="matrix(1,0,0,-1,50.4688,82.0328)"
           style="font-variant:normal;font-weight:normal;font-size:12px;font-family:Arial;-inkscape-font-specification:Arial;writing-mode:lr-tb;fill:#000000;fill-opacity:1;fill-rule:nonzero;stroke:none"
           id="text228"><tspan
             x="0 7.6347647 11.449221"
             y="0"
             sodipodi:role="line"
             id="tspan230">0.6</tspan></text>
</g><path
         d="m 720,1296 40,0"
         style="fill:#000000;fill-opacity:1;fill-rule:nonzero;stroke:none"
         id="path232"
         inkscape:connector-curvature="0" /><path
         d="m 720,1296 40,0"
         style="fill:none;stroke:#000000;stroke-width:5;stroke-linecap:butt;stroke-linejoin:round;stroke-miterlimit:10;stroke-dasharray:none;stroke-opacity:1"
         id="path234"
         inkscape:connector-curvature="0" /><path
         d="m 5184,1296 -40,0"
         style="fill:#000000;fill-opacity:1;fill-rule:nonzero;stroke:none"
         id="path236"
         inkscape:connector-curvature="0" /><path
         d="m 5184,1296 -40,0"
         style="fill:none;stroke:#000000;stroke-width:5;stroke-linecap:butt;stroke-linejoin:round;stroke-miterlimit:10;stroke-dasharray:none;stroke-opacity:1"
         id="path238"
         inkscape:connector-curvature="0" /><g
         id="g240"
         transform="scale(10,10)"><text
           transform="matrix(1,0,0,-1,50.5312,125.233)"
           style="font-variant:normal;font-weight:normal;font-size:12px;font-family:Arial;-inkscape-font-specification:Arial;writing-mode:lr-tb;fill:#000000;fill-opacity:1;fill-rule:nonzero;stroke:none"
           id="text242"><tspan
             x="0 7.6347647 11.449221"
             y="0"
             sodipodi:role="line"
             id="tspan244">0.8</tspan></text>
</g><path
         d="m 720,1728 40,0"
         style="fill:#000000;fill-opacity:1;fill-rule:nonzero;stroke:none"
         id="path246"
         inkscape:connector-curvature="0" /><path
         d="m 720,1728 40,0"
         style="fill:none;stroke:#000000;stroke-width:5;stroke-linecap:butt;stroke-linejoin:round;stroke-miterlimit:10;stroke-dasharray:none;stroke-opacity:1"
         id="path248"
         inkscape:connector-curvature="0" /><path
         d="m 5184,1728 -40,0"
         style="fill:#000000;fill-opacity:1;fill-rule:nonzero;stroke:none"
         id="path250"
         inkscape:connector-curvature="0" /><path
         d="m 5184,1728 -40,0"
         style="fill:none;stroke:#000000;stroke-width:5;stroke-linecap:butt;stroke-linejoin:round;stroke-miterlimit:10;stroke-dasharray:none;stroke-opacity:1"
         id="path252"
         inkscape:connector-curvature="0" /><g
         id="g254"
         transform="scale(10,10)"><text
           transform="matrix(1,0,0,-1,51.0156,168.433)"
           style="font-variant:normal;font-weight:normal;font-size:12px;font-family:Arial;-inkscape-font-specification:Arial;writing-mode:lr-tb;fill:#000000;fill-opacity:1;fill-rule:nonzero;stroke:none"
           id="text256"><tspan
             x="0 7.6347647 11.449221"
             y="0"
             sodipodi:role="line"
             id="tspan258">1.0</tspan></text>
</g><path
         d="m 720,2160 40,0"
         style="fill:#000000;fill-opacity:1;fill-rule:nonzero;stroke:none"
         id="path260"
         inkscape:connector-curvature="0" /><path
         d="m 720,2160 40,0"
         style="fill:none;stroke:#000000;stroke-width:5;stroke-linecap:butt;stroke-linejoin:round;stroke-miterlimit:10;stroke-dasharray:none;stroke-opacity:1"
         id="path262"
         inkscape:connector-curvature="0" /><path
         d="m 5184,2160 -40,0"
         style="fill:#000000;fill-opacity:1;fill-rule:nonzero;stroke:none"
         id="path264"
         inkscape:connector-curvature="0" /><path
         d="m 5184,2160 -40,0"
         style="fill:none;stroke:#000000;stroke-width:5;stroke-linecap:butt;stroke-linejoin:round;stroke-miterlimit:10;stroke-dasharray:none;stroke-opacity:1"
         id="path266"
         inkscape:connector-curvature="0" /><g
         id="g268"
         transform="scale(10,10)"><text
           transform="matrix(1,0,0,-1,51.4219,211.547)"
           style="font-variant:normal;font-weight:normal;font-size:12px;font-family:Arial;-inkscape-font-specification:Arial;writing-mode:lr-tb;fill:#000000;fill-opacity:1;fill-rule:nonzero;stroke:none"
           id="text270"><tspan
             x="0 7.6347647 11.449221"
             y="0"
             sodipodi:role="line"
             id="tspan272">1.2</tspan></text>
</g><path
         d="m 720,2592 40,0"
         style="fill:#000000;fill-opacity:1;fill-rule:nonzero;stroke:none"
         id="path274"
         inkscape:connector-curvature="0" /><path
         d="m 720,2592 40,0"
         style="fill:none;stroke:#000000;stroke-width:5;stroke-linecap:butt;stroke-linejoin:round;stroke-miterlimit:10;stroke-dasharray:none;stroke-opacity:1"
         id="path276"
         inkscape:connector-curvature="0" /><path
         d="m 5184,2592 -40,0"
         style="fill:#000000;fill-opacity:1;fill-rule:nonzero;stroke:none"
         id="path278"
         inkscape:connector-curvature="0" /><path
         d="m 5184,2592 -40,0"
         style="fill:none;stroke:#000000;stroke-width:5;stroke-linecap:butt;stroke-linejoin:round;stroke-miterlimit:10;stroke-dasharray:none;stroke-opacity:1"
         id="path280"
         inkscape:connector-curvature="0" /><g
         id="g282"
         transform="scale(10,10)"><text
           transform="matrix(1,0,0,-1,50.8906,254.825)"
           style="font-variant:normal;font-weight:normal;font-size:12px;font-family:Arial;-inkscape-font-specification:Arial;writing-mode:lr-tb;fill:#000000;fill-opacity:1;fill-rule:nonzero;stroke:none"
           id="text284"><tspan
             x="0 7.6347647 11.449221"
             y="0"
             sodipodi:role="line"
             id="tspan286">1.4</tspan></text>
</g><path
         d="m 720,3024 40,0"
         style="fill:#000000;fill-opacity:1;fill-rule:nonzero;stroke:none"
         id="path288"
         inkscape:connector-curvature="0" /><path
         d="m 720,3024 40,0"
         style="fill:none;stroke:#000000;stroke-width:5;stroke-linecap:butt;stroke-linejoin:round;stroke-miterlimit:10;stroke-dasharray:none;stroke-opacity:1"
         id="path290"
         inkscape:connector-curvature="0" /><path
         d="m 5184,3024 -40,0"
         style="fill:#000000;fill-opacity:1;fill-rule:nonzero;stroke:none"
         id="path292"
         inkscape:connector-curvature="0" /><path
         d="m 5184,3024 -40,0"
         style="fill:none;stroke:#000000;stroke-width:5;stroke-linecap:butt;stroke-linejoin:round;stroke-miterlimit:10;stroke-dasharray:none;stroke-opacity:1"
         id="path294"
         inkscape:connector-curvature="0" /><g
         id="g296"
         transform="scale(10,10)"><text
           transform="matrix(1,0,0,-1,50.9844,298.033)"
           style="font-variant:normal;font-weight:normal;font-size:12px;font-family:Arial;-inkscape-font-specification:Arial;writing-mode:lr-tb;fill:#000000;fill-opacity:1;fill-rule:nonzero;stroke:none"
           id="text298"><tspan
             x="0 7.6347647 11.449221"
             y="0"
             sodipodi:role="line"
             id="tspan300">1.6</tspan></text>
</g><path
         d="m 720,3456 40,0"
         style="fill:#000000;fill-opacity:1;fill-rule:nonzero;stroke:none"
         id="path302"
         inkscape:connector-curvature="0" /><path
         d="m 720,3456 40,0"
         style="fill:none;stroke:#000000;stroke-width:5;stroke-linecap:butt;stroke-linejoin:round;stroke-miterlimit:10;stroke-dasharray:none;stroke-opacity:1"
         id="path304"
         inkscape:connector-curvature="0" /><path
         d="m 5184,3456 -40,0"
         style="fill:#000000;fill-opacity:1;fill-rule:nonzero;stroke:none"
         id="path306"
         inkscape:connector-curvature="0" /><path
         d="m 5184,3456 -40,0"
         style="fill:none;stroke:#000000;stroke-width:5;stroke-linecap:butt;stroke-linejoin:round;stroke-miterlimit:10;stroke-dasharray:none;stroke-opacity:1"
         id="path308"
         inkscape:connector-curvature="0" /><g
         id="g310"
         transform="scale(10,10)"><text
           transform="matrix(1,0,0,-1,51.0469,341.233)"
           style="font-variant:normal;font-weight:normal;font-size:12px;font-family:Arial;-inkscape-font-specification:Arial;writing-mode:lr-tb;fill:#000000;fill-opacity:1;fill-rule:nonzero;stroke:none"
           id="text312"><tspan
             x="0 7.6347647 11.449221"
             y="0"
             sodipodi:role="line"
             id="tspan314">1.8</tspan></text>
</g><path
         d="m 720,3888 40,0"
         style="fill:#000000;fill-opacity:1;fill-rule:nonzero;stroke:none"
         id="path316"
         inkscape:connector-curvature="0" /><path
         d="m 720,3888 40,0"
         style="fill:none;stroke:#000000;stroke-width:5;stroke-linecap:butt;stroke-linejoin:round;stroke-miterlimit:10;stroke-dasharray:none;stroke-opacity:1"
         id="path318"
         inkscape:connector-curvature="0" /><path
         d="m 5184,3888 -40,0"
         style="fill:#000000;fill-opacity:1;fill-rule:nonzero;stroke:none"
         id="path320"
         inkscape:connector-curvature="0" /><path
         d="m 5184,3888 -40,0"
         style="fill:none;stroke:#000000;stroke-width:5;stroke-linecap:butt;stroke-linejoin:round;stroke-miterlimit:10;stroke-dasharray:none;stroke-opacity:1"
         id="path322"
         inkscape:connector-curvature="0" /><g
         id="g324"
         transform="scale(10,10)"><text
           transform="matrix(1,0,0,-1,50.5781,384.433)"
           style="font-variant:normal;font-weight:normal;font-size:12px;font-family:Arial;-inkscape-font-specification:Arial;writing-mode:lr-tb;fill:#000000;fill-opacity:1;fill-rule:nonzero;stroke:none"
           id="text326"><tspan
             x="0 7.6347647 11.449221"
             y="0"
             sodipodi:role="line"
             id="tspan328">2.0</tspan></text>
</g><path
         d="m 720,3888 4464,0"
         style="fill:none;stroke:#000000;stroke-width:10;stroke-linecap:square;stroke-linejoin:round;stroke-miterlimit:10;stroke-dasharray:none;stroke-opacity:1"
         id="path330"
         inkscape:connector-curvature="0" /><path
         d="m 5184,432 0,3456"
         style="fill:none;stroke:#000000;stroke-width:10;stroke-linecap:square;stroke-linejoin:round;stroke-miterlimit:10;stroke-dasharray:none;stroke-opacity:1"
         id="path332"
         inkscape:connector-curvature="0" /><path
         d="m 720,432 4464,0"
         style="fill:none;stroke:#000000;stroke-width:10;stroke-linecap:square;stroke-linejoin:round;stroke-miterlimit:10;stroke-dasharray:none;stroke-opacity:1"
         id="path334"
         inkscape:connector-curvature="0" /><path
         d="m 720,432 0,3456"
         style="fill:none;stroke:#000000;stroke-width:10;stroke-linecap:square;stroke-linejoin:round;stroke-miterlimit:10;stroke-dasharray:none;stroke-opacity:1"
         id="path336"
         inkscape:connector-curvature="0" /></g></g></svg>