<?xml version="1.0" encoding="UTF-8" standalone="no"?>
<!-- Created with Inkscape (http://www.inkscape.org/) -->

<svg
   xmlns:dc="http://purl.org/dc/elements/1.1/"
   xmlns:cc="http://creativecommons.org/ns#"
   xmlns:rdf="http://www.w3.org/1999/02/22-rdf-syntax-ns#"
   xmlns:svg="http://www.w3.org/2000/svg"
   xmlns="http://www.w3.org/2000/svg"
   xmlns:sodipodi="http://sodipodi.sourceforge.net/DTD/sodipodi-0.dtd"
   xmlns:inkscape="http://www.inkscape.org/namespaces/inkscape"
   id="svg3704"
   version="1.1"
   inkscape:version="0.91 r13725"
   xml:space="preserve"
   width="720"
   height="540"
   viewBox="0 0 720 540"
   sodipodi:docname="plot1.svg"><metadata
     id="metadata3710"><rdf:RDF><cc:Work
         rdf:about=""><dc:format>image/svg+xml</dc:format><dc:type
           rdf:resource="http://purl.org/dc/dcmitype/StillImage" /><dc:title></dc:title></cc:Work></rdf:RDF></metadata><defs
     id="defs3708"><clipPath
       clipPathUnits="userSpaceOnUse"
       id="clipPath3722"><path
         d="m 72,43.2 446.4,0 0,345.6 -446.4,0 0,-345.6 z"
         id="path3724"
         inkscape:connector-curvature="0" /></clipPath><clipPath
       clipPathUnits="userSpaceOnUse"
       id="clipPath3732"><path
         d="m -3.25,-3.25 6.5,0 0,6.5 -6.5,0 0,-6.5 z"
         id="path3734"
         inkscape:connector-curvature="0" /></clipPath><clipPath
       clipPathUnits="userSpaceOnUse"
       id="clipPath3744"><path
         d="m -3.25,-3.25 6.5,0 0,6.5 -6.5,0 0,-6.5 z"
         id="path3746"
         inkscape:connector-curvature="0" /></clipPath><clipPath
       clipPathUnits="userSpaceOnUse"
       id="clipPath3756"><path
         d="m -3.25,-3.25 6.5,0 0,6.5 -6.5,0 0,-6.5 z"
         id="path3758"
         inkscape:connector-curvature="0" /></clipPath><clipPath
       clipPathUnits="userSpaceOnUse"
       id="clipPath3768"><path
         d="m -3.25,-3.25 6.5,0 0,6.5 -6.5,0 0,-6.5 z"
         id="path3770"
         inkscape:connector-curvature="0" /></clipPath><clipPath
       clipPathUnits="userSpaceOnUse"
       id="clipPath3780"><path
         d="m -3.25,-3.25 6.5,0 0,6.5 -6.5,0 0,-6.5 z"
         id="path3782"
         inkscape:connector-curvature="0" /></clipPath><clipPath
       clipPathUnits="userSpaceOnUse"
       id="clipPath3792"><path
         d="m -3.25,-3.25 6.5,0 0,6.5 -6.5,0 0,-6.5 z"
         id="path3794"
         inkscape:connector-curvature="0" /></clipPath><clipPath
       clipPathUnits="userSpaceOnUse"
       id="clipPath3804"><path
         d="m -3.25,-3.25 6.5,0 0,6.5 -6.5,0 0,-6.5 z"
         id="path3806"
         inkscape:connector-curvature="0" /></clipPath><clipPath
       clipPathUnits="userSpaceOnUse"
       id="clipPath3816"><path
         d="m -3.25,-3.25 6.5,0 0,6.5 -6.5,0 0,-6.5 z"
         id="path3818"
         inkscape:connector-curvature="0" /></clipPath><clipPath
       clipPathUnits="userSpaceOnUse"
       id="clipPath3828"><path
         d="m -3.25,-3.25 6.5,0 0,6.5 -6.5,0 0,-6.5 z"
         id="path3830"
         inkscape:connector-curvature="0" /></clipPath><clipPath
       clipPathUnits="userSpaceOnUse"
       id="clipPath3840"><path
         d="m -3.25,-3.25 6.5,0 0,6.5 -6.5,0 0,-6.5 z"
         id="path3842"
         inkscape:connector-curvature="0" /></clipPath><clipPath
       clipPathUnits="userSpaceOnUse"
       id="clipPath3852"><path
         d="m -3.25,-3.25 6.5,0 0,6.5 -6.5,0 0,-6.5 z"
         id="path3854"
         inkscape:connector-curvature="0" /></clipPath><clipPath
       clipPathUnits="userSpaceOnUse"
       id="clipPath3864"><path
         d="m -3.25,-3.25 6.5,0 0,6.5 -6.5,0 0,-6.5 z"
         id="path3866"
         inkscape:connector-curvature="0" /></clipPath><clipPath
       clipPathUnits="userSpaceOnUse"
       id="clipPath3876"><path
         d="m -3.25,-3.25 6.5,0 0,6.5 -6.5,0 0,-6.5 z"
         id="path3878"
         inkscape:connector-curvature="0" /></clipPath><clipPath
       clipPathUnits="userSpaceOnUse"
       id="clipPath3888"><path
         d="m -3.25,-3.25 6.5,0 0,6.5 -6.5,0 0,-6.5 z"
         id="path3890"
         inkscape:connector-curvature="0" /></clipPath><clipPath
       clipPathUnits="userSpaceOnUse"
       id="clipPath3900"><path
         d="m -3.25,-3.25 6.5,0 0,6.5 -6.5,0 0,-6.5 z"
         id="path3902"
         inkscape:connector-curvature="0" /></clipPath><clipPath
       clipPathUnits="userSpaceOnUse"
       id="clipPath3912"><path
         d="m -3.25,-3.25 6.5,0 0,6.5 -6.5,0 0,-6.5 z"
         id="path3914"
         inkscape:connector-curvature="0" /></clipPath><clipPath
       clipPathUnits="userSpaceOnUse"
       id="clipPath3924"><path
         d="m -3.25,-3.25 6.5,0 0,6.5 -6.5,0 0,-6.5 z"
         id="path3926"
         inkscape:connector-curvature="0" /></clipPath><clipPath
       clipPathUnits="userSpaceOnUse"
       id="clipPath3936"><path
         d="m -3.25,-3.25 6.5,0 0,6.5 -6.5,0 0,-6.5 z"
         id="path3938"
         inkscape:connector-curvature="0" /></clipPath><clipPath
       clipPathUnits="userSpaceOnUse"
       id="clipPath3948"><path
         d="m -3.25,-3.25 6.5,0 0,6.5 -6.5,0 0,-6.5 z"
         id="path3950"
         inkscape:connector-curvature="0" /></clipPath><clipPath
       clipPathUnits="userSpaceOnUse"
       id="clipPath3960"><path
         d="m -3.25,-3.25 6.5,0 0,6.5 -6.5,0 0,-6.5 z"
         id="path3962"
         inkscape:connector-curvature="0" /></clipPath><clipPath
       clipPathUnits="userSpaceOnUse"
       id="clipPath3972"><path
         d="m -3.25,-3.25 6.5,0 0,6.5 -6.5,0 0,-6.5 z"
         id="path3974"
         inkscape:connector-curvature="0" /></clipPath><clipPath
       clipPathUnits="userSpaceOnUse"
       id="clipPath3984"><path
         d="m -3.25,-3.25 6.5,0 0,6.5 -6.5,0 0,-6.5 z"
         id="path3986"
         inkscape:connector-curvature="0" /></clipPath><clipPath
       clipPathUnits="userSpaceOnUse"
       id="clipPath3996"><path
         d="m -3.25,-3.25 6.5,0 0,6.5 -6.5,0 0,-6.5 z"
         id="path3998"
         inkscape:connector-curvature="0" /></clipPath><clipPath
       clipPathUnits="userSpaceOnUse"
       id="clipPath4008"><path
         d="m -3.25,-3.25 6.5,0 0,6.5 -6.5,0 0,-6.5 z"
         id="path4010"
         inkscape:connector-curvature="0" /></clipPath><clipPath
       clipPathUnits="userSpaceOnUse"
       id="clipPath4020"><path
         d="m -3.25,-3.25 6.5,0 0,6.5 -6.5,0 0,-6.5 z"
         id="path4022"
         inkscape:connector-curvature="0" /></clipPath></defs><sodipodi:namedview
     pagecolor="#ffffff"
     bordercolor="#666666"
     borderopacity="1"
     objecttolerance="10"
     gridtolerance="10"
     guidetolerance="10"
     inkscape:pageopacity="0"
     inkscape:pageshadow="2"
     inkscape:window-width="640"
     inkscape:window-height="480"
     id="namedview3706"
     showgrid="false"
     inkscape:zoom="0.43055556"
     inkscape:cx="360"
     inkscape:cy="270"
     inkscape:window-x="797"
     inkscape:window-y="884"
     inkscape:window-maximized="0"
     inkscape:current-layer="g3712" /><g
     id="g3712"
     inkscape:groupmode="layer"
     inkscape:label="plot1"
     transform="matrix(1.25,0,0,-1.25,0,540)"><path
       d="M 0,0 576,0 576,432 0,432 0,0 Z"
       style="fill:#ffffff;fill-opacity:1;fill-rule:nonzero;stroke:none"
       id="path3714"
       inkscape:connector-curvature="0" /><path
       d="m 72,43.2 446.4,0 0,345.6 -446.4,0 0,-345.6 z"
       style="fill:#ffffff;fill-opacity:1;fill-rule:nonzero;stroke:none"
       id="path3716"
       inkscape:connector-curvature="0" /><g
       id="g3718"><g
         id="g3720"
         clip-path="url(#clipPath3722)"><g
           id="g3726"
           transform="translate(72,43.2)"><g
             id="g3728"><g
               id="g3730"
               clip-path="url(#clipPath3732)"><path
                 d="m 0,-3 c 0.7956093,0 1.5587396,0.3160989 2.1213203,0.8786797 C 2.6839011,-1.5587396 3,-0.7956093 3,0 3,0.7956093 2.6839011,1.5587396 2.1213203,2.1213203 1.5587396,2.6839011 0.7956093,3 0,3 -0.7956093,3 -1.5587396,2.6839011 -2.1213203,2.1213203 -2.6839011,1.5587396 -3,0.7956093 -3,0 -3,-0.7956093 -2.6839011,-1.5587396 -2.1213203,-2.1213203 -1.5587396,-2.6839011 -0.7956093,-3 0,-3 Z"
                 style="fill:#0000ff;fill-opacity:1;fill-rule:nonzero;stroke:#000000;stroke-width:0.5;stroke-linecap:butt;stroke-linejoin:round;stroke-miterlimit:10;stroke-dasharray:none;stroke-opacity:1"
                 id="path3736"
                 inkscape:connector-curvature="0" /></g></g><g
             id="g3738"
             transform="translate(18.6,0.0234375)"><g
               id="g3740"><g
                 id="g3742"
                 clip-path="url(#clipPath3744)"><path
                   d="m 0,-3 c 0.7956093,0 1.5587396,0.3160989 2.1213203,0.8786797 C 2.6839011,-1.5587396 3,-0.7956093 3,0 3,0.7956093 2.6839011,1.5587396 2.1213203,2.1213203 1.5587396,2.6839011 0.7956093,3 0,3 -0.7956093,3 -1.5587396,2.6839011 -2.1213203,2.1213203 -2.6839011,1.5587396 -3,0.7956093 -3,0 -3,-0.7956093 -2.6839011,-1.5587396 -2.1213203,-2.1213203 -1.5587396,-2.6839011 -0.7956093,-3 0,-3 Z"
                   style="fill:#0000ff;fill-opacity:1;fill-rule:nonzero;stroke:#000000;stroke-width:0.5;stroke-linecap:butt;stroke-linejoin:round;stroke-miterlimit:10;stroke-dasharray:none;stroke-opacity:1"
                   id="path3748"
                   inkscape:connector-curvature="0" /></g></g><g
               id="g3750"
               transform="translate(18.6,0.1640625)"><g
                 id="g3752"><g
                   id="g3754"
                   clip-path="url(#clipPath3756)"><path
                     d="m 0,-3 c 0.7956093,0 1.5587396,0.3160989 2.1213203,0.8786797 C 2.6839011,-1.5587396 3,-0.7956093 3,0 3,0.7956093 2.6839011,1.5587396 2.1213203,2.1213203 1.5587396,2.6839011 0.7956093,3 0,3 -0.7956093,3 -1.5587396,2.6839011 -2.1213203,2.1213203 -2.6839011,1.5587396 -3,0.7956093 -3,0 -3,-0.7956093 -2.6839011,-1.5587396 -2.1213203,-2.1213203 -1.5587396,-2.6839011 -0.7956093,-3 0,-3 Z"
                     style="fill:#0000ff;fill-opacity:1;fill-rule:nonzero;stroke:#000000;stroke-width:0.5;stroke-linecap:butt;stroke-linejoin:round;stroke-miterlimit:10;stroke-dasharray:none;stroke-opacity:1"
                     id="path3760"
                     inkscape:connector-curvature="0" /></g></g><g
                 id="g3762"
                 transform="translate(18.6,0.4453125)"><g
                   id="g3764"><g
                     id="g3766"
                     clip-path="url(#clipPath3768)"><path
                       d="m 0,-3 c 0.7956093,0 1.5587396,0.3160989 2.1213203,0.8786797 C 2.6839011,-1.5587396 3,-0.7956093 3,0 3,0.7956093 2.6839011,1.5587396 2.1213203,2.1213203 1.5587396,2.6839011 0.7956093,3 0,3 -0.7956093,3 -1.5587396,2.6839011 -2.1213203,2.1213203 -2.6839011,1.5587396 -3,0.7956093 -3,0 -3,-0.7956093 -2.6839011,-1.5587396 -2.1213203,-2.1213203 -1.5587396,-2.6839011 -0.7956093,-3 0,-3 Z"
                       style="fill:#0000ff;fill-opacity:1;fill-rule:nonzero;stroke:#000000;stroke-width:0.5;stroke-linecap:butt;stroke-linejoin:round;stroke-miterlimit:10;stroke-dasharray:none;stroke-opacity:1"
                       id="path3772"
                       inkscape:connector-curvature="0" /></g></g><g
                   id="g3774"
                   transform="translate(18.6,0.8671875)"><g
                     id="g3776"><g
                       id="g3778"
                       clip-path="url(#clipPath3780)"><path
                         d="m 0,-3 c 0.7956093,0 1.5587396,0.3160989 2.1213203,0.8786797 C 2.6839011,-1.5587396 3,-0.7956093 3,0 3,0.7956093 2.6839011,1.5587396 2.1213203,2.1213203 1.5587396,2.6839011 0.7956093,3 0,3 -0.7956093,3 -1.5587396,2.6839011 -2.1213203,2.1213203 -2.6839011,1.5587396 -3,0.7956093 -3,0 -3,-0.7956093 -2.6839011,-1.5587396 -2.1213203,-2.1213203 -1.5587396,-2.6839011 -0.7956093,-3 0,-3 Z"
                         style="fill:#0000ff;fill-opacity:1;fill-rule:nonzero;stroke:#000000;stroke-width:0.5;stroke-linecap:butt;stroke-linejoin:round;stroke-miterlimit:10;stroke-dasharray:none;stroke-opacity:1"
                         id="path3784"
                         inkscape:connector-curvature="0" /></g></g><g
                     id="g3786"
                     transform="translate(18.6,1.4296875)"><g
                       id="g3788"><g
                         id="g3790"
                         clip-path="url(#clipPath3792)"><path
                           d="m 0,-3 c 0.7956093,0 1.5587396,0.3160989 2.1213203,0.8786797 C 2.6839011,-1.5587396 3,-0.7956093 3,0 3,0.7956093 2.6839011,1.5587396 2.1213203,2.1213203 1.5587396,2.6839011 0.7956093,3 0,3 -0.7956093,3 -1.5587396,2.6839011 -2.1213203,2.1213203 -2.6839011,1.5587396 -3,0.7956093 -3,0 -3,-0.7956093 -2.6839011,-1.5587396 -2.1213203,-2.1213203 -1.5587396,-2.6839011 -0.7956093,-3 0,-3 Z"
                           style="fill:#0000ff;fill-opacity:1;fill-rule:nonzero;stroke:#000000;stroke-width:0.5;stroke-linecap:butt;stroke-linejoin:round;stroke-miterlimit:10;stroke-dasharray:none;stroke-opacity:1"
                           id="path3796"
                           inkscape:connector-curvature="0" /></g></g><g
                       id="g3798"
                       transform="translate(18.6,2.1328125)"><g
                         id="g3800"><g
                           id="g3802"
                           clip-path="url(#clipPath3804)"><path
                             d="m 0,-3 c 0.7956093,0 1.5587396,0.3160989 2.1213203,0.8786797 C 2.6839011,-1.5587396 3,-0.7956093 3,0 3,0.7956093 2.6839011,1.5587396 2.1213203,2.1213203 1.5587396,2.6839011 0.7956093,3 0,3 -0.7956093,3 -1.5587396,2.6839011 -2.1213203,2.1213203 -2.6839011,1.5587396 -3,0.7956093 -3,0 -3,-0.7956093 -2.6839011,-1.5587396 -2.1213203,-2.1213203 -1.5587396,-2.6839011 -0.7956093,-3 0,-3 Z"
                             style="fill:#0000ff;fill-opacity:1;fill-rule:nonzero;stroke:#000000;stroke-width:0.5;stroke-linecap:butt;stroke-linejoin:round;stroke-miterlimit:10;stroke-dasharray:none;stroke-opacity:1"
                             id="path3808"
                             inkscape:connector-curvature="0" /></g></g><g
                         id="g3810"
                         transform="translate(18.6,2.9765625)"><g
                           id="g3812"><g
                             id="g3814"
                             clip-path="url(#clipPath3816)"><path
                               d="m 0,-3 c 0.7956093,0 1.5587396,0.3160989 2.1213203,0.8786797 C 2.6839011,-1.5587396 3,-0.7956093 3,0 3,0.7956093 2.6839011,1.5587396 2.1213203,2.1213203 1.5587396,2.6839011 0.7956093,3 0,3 -0.7956093,3 -1.5587396,2.6839011 -2.1213203,2.1213203 -2.6839011,1.5587396 -3,0.7956093 -3,0 -3,-0.7956093 -2.6839011,-1.5587396 -2.1213203,-2.1213203 -1.5587396,-2.6839011 -0.7956093,-3 0,-3 Z"
                               style="fill:#0000ff;fill-opacity:1;fill-rule:nonzero;stroke:#000000;stroke-width:0.5;stroke-linecap:butt;stroke-linejoin:round;stroke-miterlimit:10;stroke-dasharray:none;stroke-opacity:1"
                               id="path3820"
                               inkscape:connector-curvature="0" /></g></g><g
                           id="g3822"
                           transform="translate(18.6,3.9609375)"><g
                             id="g3824"><g
                               id="g3826"
                               clip-path="url(#clipPath3828)"><path
                                 d="m 0,-3 c 0.7956093,0 1.5587396,0.3160989 2.1213203,0.8786797 C 2.6839011,-1.5587396 3,-0.7956093 3,0 3,0.7956093 2.6839011,1.5587396 2.1213203,2.1213203 1.5587396,2.6839011 0.7956093,3 0,3 -0.7956093,3 -1.5587396,2.6839011 -2.1213203,2.1213203 -2.6839011,1.5587396 -3,0.7956093 -3,0 -3,-0.7956093 -2.6839011,-1.5587396 -2.1213203,-2.1213203 -1.5587396,-2.6839011 -0.7956093,-3 0,-3 Z"
                                 style="fill:#0000ff;fill-opacity:1;fill-rule:nonzero;stroke:#000000;stroke-width:0.5;stroke-linecap:butt;stroke-linejoin:round;stroke-miterlimit:10;stroke-dasharray:none;stroke-opacity:1"
                                 id="path3832"
                                 inkscape:connector-curvature="0" /></g></g><g
                             id="g3834"
                             transform="translate(18.6,5.0859375)"><g
                               id="g3836"><g
                                 id="g3838"
                                 clip-path="url(#clipPath3840)"><path
                                   d="m 0,-3 c 0.7956093,0 1.5587396,0.3160989 2.1213203,0.8786797 C 2.6839011,-1.5587396 3,-0.7956093 3,0 3,0.7956093 2.6839011,1.5587396 2.1213203,2.1213203 1.5587396,2.6839011 0.7956093,3 0,3 -0.7956093,3 -1.5587396,2.6839011 -2.1213203,2.1213203 -2.6839011,1.5587396 -3,0.7956093 -3,0 -3,-0.7956093 -2.6839011,-1.5587396 -2.1213203,-2.1213203 -1.5587396,-2.6839011 -0.7956093,-3 0,-3 Z"
                                   style="fill:#0000ff;fill-opacity:1;fill-rule:nonzero;stroke:#000000;stroke-width:0.5;stroke-linecap:butt;stroke-linejoin:round;stroke-miterlimit:10;stroke-dasharray:none;stroke-opacity:1"
                                   id="path3844"
                                   inkscape:connector-curvature="0" /></g></g><g
                               id="g3846"
                               transform="translate(18.6,6.3515625)"><g
                                 id="g3848"><g
                                   id="g3850"
                                   clip-path="url(#clipPath3852)"><path
                                   d="m 0,-3 c 0.7956093,0 1.5587396,0.3160989 2.1213203,0.8786797 C 2.6839011,-1.5587396 3,-0.7956093 3,0 3,0.7956093 2.6839011,1.5587396 2.1213203,2.1213203 1.5587396,2.6839011 0.7956093,3 0,3 -0.7956093,3 -1.5587396,2.6839011 -2.1213203,2.1213203 -2.6839011,1.5587396 -3,0.7956093 -3,0 -3,-0.7956093 -2.6839011,-1.5587396 -2.1213203,-2.1213203 -1.5587396,-2.6839011 -0.7956093,-3 0,-3 Z"
                                   style="fill:#0000ff;fill-opacity:1;fill-rule:nonzero;stroke:#000000;stroke-width:0.5;stroke-linecap:butt;stroke-linejoin:round;stroke-miterlimit:10;stroke-dasharray:none;stroke-opacity:1"
                                   id="path3856"
                                   inkscape:connector-curvature="0" /></g></g><g
                                 id="g3858"
                                 transform="translate(18.6,7.7578125)"><g
                                   id="g3860"><g
                                   id="g3862"
                                   clip-path="url(#clipPath3864)"><path
                                   d="m 0,-3 c 0.7956093,0 1.5587396,0.3160989 2.1213203,0.8786797 C 2.6839011,-1.5587396 3,-0.7956093 3,0 3,0.7956093 2.6839011,1.5587396 2.1213203,2.1213203 1.5587396,2.6839011 0.7956093,3 0,3 -0.7956093,3 -1.5587396,2.6839011 -2.1213203,2.1213203 -2.6839011,1.5587396 -3,0.7956093 -3,0 -3,-0.7956093 -2.6839011,-1.5587396 -2.1213203,-2.1213203 -1.5587396,-2.6839011 -0.7956093,-3 0,-3 Z"
                                   style="fill:#0000ff;fill-opacity:1;fill-rule:nonzero;stroke:#000000;stroke-width:0.5;stroke-linecap:butt;stroke-linejoin:round;stroke-miterlimit:10;stroke-dasharray:none;stroke-opacity:1"
                                   id="path3868"
                                   inkscape:connector-curvature="0" /></g></g><g
                                   id="g3870"
                                   transform="translate(18.6,9.3046875)"><g
                                   id="g3872"><g
                                   id="g3874"
                                   clip-path="url(#clipPath3876)"><path
                                   d="m 0,-3 c 0.7956093,0 1.5587396,0.3160989 2.1213203,0.8786797 C 2.6839011,-1.5587396 3,-0.7956093 3,0 3,0.7956093 2.6839011,1.5587396 2.1213203,2.1213203 1.5587396,2.6839011 0.7956093,3 0,3 -0.7956093,3 -1.5587396,2.6839011 -2.1213203,2.1213203 -2.6839011,1.5587396 -3,0.7956093 -3,0 -3,-0.7956093 -2.6839011,-1.5587396 -2.1213203,-2.1213203 -1.5587396,-2.6839011 -0.7956093,-3 0,-3 Z"
                                   style="fill:#0000ff;fill-opacity:1;fill-rule:nonzero;stroke:#000000;stroke-width:0.5;stroke-linecap:butt;stroke-linejoin:round;stroke-miterlimit:10;stroke-dasharray:none;stroke-opacity:1"
                                   id="path3880"
                                   inkscape:connector-curvature="0" /></g></g><g
                                   id="g3882"
                                   transform="translate(18.6,10.992188)"><g
                                   id="g3884"><g
                                   id="g3886"
                                   clip-path="url(#clipPath3888)"><path
                                   d="m 0,-3 c 0.7956093,0 1.5587396,0.3160989 2.1213203,0.8786797 C 2.6839011,-1.5587396 3,-0.7956093 3,0 3,0.7956093 2.6839011,1.5587396 2.1213203,2.1213203 1.5587396,2.6839011 0.7956093,3 0,3 -0.7956093,3 -1.5587396,2.6839011 -2.1213203,2.1213203 -2.6839011,1.5587396 -3,0.7956093 -3,0 -3,-0.7956093 -2.6839011,-1.5587396 -2.1213203,-2.1213203 -1.5587396,-2.6839011 -0.7956093,-3 0,-3 Z"
                                   style="fill:#0000ff;fill-opacity:1;fill-rule:nonzero;stroke:#000000;stroke-width:0.5;stroke-linecap:butt;stroke-linejoin:round;stroke-miterlimit:10;stroke-dasharray:none;stroke-opacity:1"
                                   id="path3892"
                                   inkscape:connector-curvature="0" /></g></g><g
                                   id="g3894"
                                   transform="translate(18.6,12.820313)"><g
                                   id="g3896"><g
                                   id="g3898"
                                   clip-path="url(#clipPath3900)"><path
                                   d="m 0,-3 c 0.7956093,0 1.5587396,0.3160989 2.1213203,0.8786797 C 2.6839011,-1.5587396 3,-0.7956093 3,0 3,0.7956093 2.6839011,1.5587396 2.1213203,2.1213203 1.5587396,2.6839011 0.7956093,3 0,3 -0.7956093,3 -1.5587396,2.6839011 -2.1213203,2.1213203 -2.6839011,1.5587396 -3,0.7956093 -3,0 -3,-0.7956093 -2.6839011,-1.5587396 -2.1213203,-2.1213203 -1.5587396,-2.6839011 -0.7956093,-3 0,-3 Z"
                                   style="fill:#0000ff;fill-opacity:1;fill-rule:nonzero;stroke:#000000;stroke-width:0.5;stroke-linecap:butt;stroke-linejoin:round;stroke-miterlimit:10;stroke-dasharray:none;stroke-opacity:1"
                                   id="path3904"
                                   inkscape:connector-curvature="0" /></g></g><g
                                   id="g3906"
                                   transform="translate(18.6,14.789063)"><g
                                   id="g3908"><g
                                   id="g3910"
                                   clip-path="url(#clipPath3912)"><path
                                   d="m 0,-3 c 0.7956093,0 1.5587396,0.3160989 2.1213203,0.8786797 C 2.6839011,-1.5587396 3,-0.7956093 3,0 3,0.7956093 2.6839011,1.5587396 2.1213203,2.1213203 1.5587396,2.6839011 0.7956093,3 0,3 -0.7956093,3 -1.5587396,2.6839011 -2.1213203,2.1213203 -2.6839011,1.5587396 -3,0.7956093 -3,0 -3,-0.7956093 -2.6839011,-1.5587396 -2.1213203,-2.1213203 -1.5587396,-2.6839011 -0.7956093,-3 0,-3 Z"
                                   style="fill:#0000ff;fill-opacity:1;fill-rule:nonzero;stroke:#000000;stroke-width:0.5;stroke-linecap:butt;stroke-linejoin:round;stroke-miterlimit:10;stroke-dasharray:none;stroke-opacity:1"
                                   id="path3916"
                                   inkscape:connector-curvature="0" /></g></g><g
                                   id="g3918"
                                   transform="translate(18.6,16.898437)"><g
                                   id="g3920"><g
                                   id="g3922"
                                   clip-path="url(#clipPath3924)"><path
                                   d="m 0,-3 c 0.7956093,0 1.5587396,0.3160989 2.1213203,0.8786797 C 2.6839011,-1.5587396 3,-0.7956093 3,0 3,0.7956093 2.6839011,1.5587396 2.1213203,2.1213203 1.5587396,2.6839011 0.7956093,3 0,3 -0.7956093,3 -1.5587396,2.6839011 -2.1213203,2.1213203 -2.6839011,1.5587396 -3,0.7956093 -3,0 -3,-0.7956093 -2.6839011,-1.5587396 -2.1213203,-2.1213203 -1.5587396,-2.6839011 -0.7956093,-3 0,-3 Z"
                                   style="fill:#0000ff;fill-opacity:1;fill-rule:nonzero;stroke:#000000;stroke-width:0.5;stroke-linecap:butt;stroke-linejoin:round;stroke-miterlimit:10;stroke-dasharray:none;stroke-opacity:1"
                                   id="path3928"
                                   inkscape:connector-curvature="0" /></g></g><g
                                   id="g3930"
                                   transform="translate(18.6,19.148437)"><g
                                   id="g3932"><g
                                   id="g3934"
                                   clip-path="url(#clipPath3936)"><path
                                   d="m 0,-3 c 0.7956093,0 1.5587396,0.3160989 2.1213203,0.8786797 C 2.6839011,-1.5587396 3,-0.7956093 3,0 3,0.7956093 2.6839011,1.5587396 2.1213203,2.1213203 1.5587396,2.6839011 0.7956093,3 0,3 -0.7956093,3 -1.5587396,2.6839011 -2.1213203,2.1213203 -2.6839011,1.5587396 -3,0.7956093 -3,0 -3,-0.7956093 -2.6839011,-1.5587396 -2.1213203,-2.1213203 -1.5587396,-2.6839011 -0.7956093,-3 0,-3 Z"
                                   style="fill:#0000ff;fill-opacity:1;fill-rule:nonzero;stroke:#000000;stroke-width:0.5;stroke-linecap:butt;stroke-linejoin:round;stroke-miterlimit:10;stroke-dasharray:none;stroke-opacity:1"
                                   id="path3940"
                                   inkscape:connector-curvature="0" /></g></g><g
                                   id="g3942"
                                   transform="translate(18.6,21.539062)"><g
                                   id="g3944"><g
                                   id="g3946"
                                   clip-path="url(#clipPath3948)"><path
                                   d="m 0,-3 c 0.7956093,0 1.5587396,0.3160989 2.1213203,0.8786797 C 2.6839011,-1.5587396 3,-0.7956093 3,0 3,0.7956093 2.6839011,1.5587396 2.1213203,2.1213203 1.5587396,2.6839011 0.7956093,3 0,3 -0.7956093,3 -1.5587396,2.6839011 -2.1213203,2.1213203 -2.6839011,1.5587396 -3,0.7956093 -3,0 -3,-0.7956093 -2.6839011,-1.5587396 -2.1213203,-2.1213203 -1.5587396,-2.6839011 -0.7956093,-3 0,-3 Z"
                                   style="fill:#0000ff;fill-opacity:1;fill-rule:nonzero;stroke:#000000;stroke-width:0.5;stroke-linecap:butt;stroke-linejoin:round;stroke-miterlimit:10;stroke-dasharray:none;stroke-opacity:1"
                                   id="path3952"
                                   inkscape:connector-curvature="0" /></g></g><g
                                   id="g3954"
                                   transform="translate(18.6,24.070312)"><g
                                   id="g3956"><g
                                   id="g3958"
                                   clip-path="url(#clipPath3960)"><path
                                   d="m 0,-3 c 0.7956093,0 1.5587396,0.3160989 2.1213203,0.8786797 C 2.6839011,-1.5587396 3,-0.7956093 3,0 3,0.7956093 2.6839011,1.5587396 2.1213203,2.1213203 1.5587396,2.6839011 0.7956093,3 0,3 -0.7956093,3 -1.5587396,2.6839011 -2.1213203,2.1213203 -2.6839011,1.5587396 -3,0.7956093 -3,0 -3,-0.7956093 -2.6839011,-1.5587396 -2.1213203,-2.1213203 -1.5587396,-2.6839011 -0.7956093,-3 0,-3 Z"
                                   style="fill:#0000ff;fill-opacity:1;fill-rule:nonzero;stroke:#000000;stroke-width:0.5;stroke-linecap:butt;stroke-linejoin:round;stroke-miterlimit:10;stroke-dasharray:none;stroke-opacity:1"
                                   id="path3964"
                                   inkscape:connector-curvature="0" /></g></g><g
                                   id="g3966"
                                   transform="translate(18.6,26.742187)"><g
                                   id="g3968"><g
                                   id="g3970"
                                   clip-path="url(#clipPath3972)"><path
                                   d="m 0,-3 c 0.7956093,0 1.5587396,0.3160989 2.1213203,0.8786797 C 2.6839011,-1.5587396 3,-0.7956093 3,0 3,0.7956093 2.6839011,1.5587396 2.1213203,2.1213203 1.5587396,2.6839011 0.7956093,3 0,3 -0.7956093,3 -1.5587396,2.6839011 -2.1213203,2.1213203 -2.6839011,1.5587396 -3,0.7956093 -3,0 -3,-0.7956093 -2.6839011,-1.5587396 -2.1213203,-2.1213203 -1.5587396,-2.6839011 -0.7956093,-3 0,-3 Z"
                                   style="fill:#0000ff;fill-opacity:1;fill-rule:nonzero;stroke:#000000;stroke-width:0.5;stroke-linecap:butt;stroke-linejoin:round;stroke-miterlimit:10;stroke-dasharray:none;stroke-opacity:1"
                                   id="path3976"
                                   inkscape:connector-curvature="0" /></g></g><g
                                   id="g3978"
                                   transform="translate(18.6,29.554687)"><g
                                   id="g3980"><g
                                   id="g3982"
                                   clip-path="url(#clipPath3984)"><path
                                   d="m 0,-3 c 0.7956093,0 1.5587396,0.3160989 2.1213203,0.8786797 C 2.6839011,-1.5587396 3,-0.7956093 3,0 3,0.7956093 2.6839011,1.5587396 2.1213203,2.1213203 1.5587396,2.6839011 0.7956093,3 0,3 -0.7956093,3 -1.5587396,2.6839011 -2.1213203,2.1213203 -2.6839011,1.5587396 -3,0.7956093 -3,0 -3,-0.7956093 -2.6839011,-1.5587396 -2.1213203,-2.1213203 -1.5587396,-2.6839011 -0.7956093,-3 0,-3 Z"
                                   style="fill:#0000ff;fill-opacity:1;fill-rule:nonzero;stroke:#000000;stroke-width:0.5;stroke-linecap:butt;stroke-linejoin:round;stroke-miterlimit:10;stroke-dasharray:none;stroke-opacity:1"
                                   id="path3988"
                                   inkscape:connector-curvature="0" /></g></g><g
                                   id="g3990"
                                   transform="translate(18.6,32.507812)"><g
                                   id="g3992"><g
                                   id="g3994"
                                   clip-path="url(#clipPath3996)"><path
                                   d="m 0,-3 c 0.7956093,0 1.5587396,0.3160989 2.1213203,0.8786797 C 2.6839011,-1.5587396 3,-0.7956093 3,0 3,0.7956093 2.6839011,1.5587396 2.1213203,2.1213203 1.5587396,2.6839011 0.7956093,3 0,3 -0.7956093,3 -1.5587396,2.6839011 -2.1213203,2.1213203 -2.6839011,1.5587396 -3,0.7956093 -3,0 -3,-0.7956093 -2.6839011,-1.5587396 -2.1213203,-2.1213203 -1.5587396,-2.6839011 -0.7956093,-3 0,-3 Z"
                                   style="fill:#0000ff;fill-opacity:1;fill-rule:nonzero;stroke:#000000;stroke-width:0.5;stroke-linecap:butt;stroke-linejoin:round;stroke-miterlimit:10;stroke-dasharray:none;stroke-opacity:1"
                                   id="path4000"
                                   inkscape:connector-curvature="0" /></g></g><g
                                   id="g4002"
                                   transform="translate(18.6,35.601562)"><g
                                   id="g4004"><g
                                   id="g4006"
                                   clip-path="url(#clipPath4008)"><path
                                   d="m 0,-3 c 0.7956093,0 1.5587396,0.3160989 2.1213203,0.8786797 C 2.6839011,-1.5587396 3,-0.7956093 3,0 3,0.7956093 2.6839011,1.5587396 2.1213203,2.1213203 1.5587396,2.6839011 0.7956093,3 0,3 -0.7956093,3 -1.5587396,2.6839011 -2.1213203,2.1213203 -2.6839011,1.5587396 -3,0.7956093 -3,0 -3,-0.7956093 -2.6839011,-1.5587396 -2.1213203,-2.1213203 -1.5587396,-2.6839011 -0.7956093,-3 0,-3 Z"
                                   style="fill:#0000ff;fill-opacity:1;fill-rule:nonzero;stroke:#000000;stroke-width:0.5;stroke-linecap:butt;stroke-linejoin:round;stroke-miterlimit:10;stroke-dasharray:none;stroke-opacity:1"
                                   id="path4012"
                                   inkscape:connector-curvature="0" /></g></g><g
                                   id="g4014"
                                   transform="translate(18.6,38.835937)"><g
                                   id="g4016"><g
                                   id="g4018"
                                   clip-path="url(#clipPath4020)"><path
                                   d="m 0,-3 c 0.7956093,0 1.5587396,0.3160989 2.1213203,0.8786797 C 2.6839011,-1.5587396 3,-0.7956093 3,0 3,0.7956093 2.6839011,1.5587396 2.1213203,2.1213203 1.5587396,2.6839011 0.7956093,3 0,3 -0.7956093,3 -1.5587396,2.6839011 -2.1213203,2.1213203 -2.6839011,1.5587396 -3,0.7956093 -3,0 -3,-0.7956093 -2.6839011,-1.5587396 -2.1213203,-2.1213203 -1.5587396,-2.6839011 -0.7956093,-3 0,-3 Z"
                                   style="fill:#0000ff;fill-opacity:1;fill-rule:nonzero;stroke:#000000;stroke-width:0.5;stroke-linecap:butt;stroke-linejoin:round;stroke-miterlimit:10;stroke-dasharray:none;stroke-opacity:1"
                                   id="path4024"
                                   inkscape:connector-curvature="0" /></g></g></g></g></g></g></g></g></g></g></g></g></g></g></g></g></g></g></g></g></g></g></g></g></g></g></g></g></g><g
       id="g4026"><path
         d="m 72,43.2 0,4"
         style="fill:#000000;fill-opacity:1;fill-rule:nonzero;stroke:#000000;stroke-width:0.5;stroke-linecap:butt;stroke-linejoin:round;stroke-miterlimit:10;stroke-dasharray:none;stroke-opacity:1"
         id="path4028"
         inkscape:connector-curvature="0" /><path
         d="m 72,388.8 0,-4"
         style="fill:#000000;fill-opacity:1;fill-rule:nonzero;stroke:#000000;stroke-width:0.5;stroke-linecap:butt;stroke-linejoin:round;stroke-miterlimit:10;stroke-dasharray:none;stroke-opacity:1"
         id="path4030"
         inkscape:connector-curvature="0" /><text
         transform="matrix(1,0,0,-1,68.976562,30.075)"
         style="font-variant:normal;font-weight:normal;font-size:12px;font-family:'Bitstream Vera Sans';-inkscape-font-specification:BitstreamVeraSans-Roman;writing-mode:lr-tb;fill:#000000;fill-opacity:1;fill-rule:nonzero;stroke:none"
         id="text4032"><tspan
           x="0"
           y="0"
           id="tspan4034">0</tspan></text>
<path
         d="m 161.28,43.2 0,4"
         style="fill:#000000;fill-opacity:1;fill-rule:nonzero;stroke:#000000;stroke-width:0.5;stroke-linecap:butt;stroke-linejoin:round;stroke-miterlimit:10;stroke-dasharray:none;stroke-opacity:1"
         id="path4036"
         inkscape:connector-curvature="0" /><path
         d="m 161.28,388.8 0,-4"
         style="fill:#000000;fill-opacity:1;fill-rule:nonzero;stroke:#000000;stroke-width:0.5;stroke-linecap:butt;stroke-linejoin:round;stroke-miterlimit:10;stroke-dasharray:none;stroke-opacity:1"
         id="path4038"
         inkscape:connector-curvature="0" /><text
         transform="matrix(1,0,0,-1,158.67062,30.075)"
         style="font-variant:normal;font-weight:normal;font-size:12px;font-family:'Bitstream Vera Sans';-inkscape-font-specification:BitstreamVeraSans-Roman;writing-mode:lr-tb;fill:#000000;fill-opacity:1;fill-rule:nonzero;stroke:none"
         id="text4040"><tspan
           x="0"
           y="0"
           id="tspan4042">1</tspan></text>
<path
         d="m 250.56,43.2 0,4"
         style="fill:#000000;fill-opacity:1;fill-rule:nonzero;stroke:#000000;stroke-width:0.5;stroke-linecap:butt;stroke-linejoin:round;stroke-miterlimit:10;stroke-dasharray:none;stroke-opacity:1"
         id="path4044"
         inkscape:connector-curvature="0" /><path
         d="m 250.56,388.8 0,-4"
         style="fill:#000000;fill-opacity:1;fill-rule:nonzero;stroke:#000000;stroke-width:0.5;stroke-linecap:butt;stroke-linejoin:round;stroke-miterlimit:10;stroke-dasharray:none;stroke-opacity:1"
         id="path4046"
         inkscape:connector-curvature="0" /><text
         transform="matrix(1,0,0,-1,247.77875,30.075)"
         style="font-variant:normal;font-weight:normal;font-size:12px;font-family:'Bitstream Vera Sans';-inkscape-font-specification:BitstreamVeraSans-Roman;writing-mode:lr-tb;fill:#000000;fill-opacity:1;fill-rule:nonzero;stroke:none"
         id="text4048"><tspan
           x="0"
           y="0"
           id="tspan4050">2</tspan></text>
<path
         d="m 339.84,43.2 0,4"
         style="fill:#000000;fill-opacity:1;fill-rule:nonzero;stroke:#000000;stroke-width:0.5;stroke-linecap:butt;stroke-linejoin:round;stroke-miterlimit:10;stroke-dasharray:none;stroke-opacity:1"
         id="path4052"
         inkscape:connector-curvature="0" /><path
         d="m 339.84,388.8 0,-4"
         style="fill:#000000;fill-opacity:1;fill-rule:nonzero;stroke:#000000;stroke-width:0.5;stroke-linecap:butt;stroke-linejoin:round;stroke-miterlimit:10;stroke-dasharray:none;stroke-opacity:1"
         id="path4054"
         inkscape:connector-curvature="0" /><text
         transform="matrix(1,0,0,-1,336.965,30.075)"
         style="font-variant:normal;font-weight:normal;font-size:12px;font-family:'Bitstream Vera Sans';-inkscape-font-specification:BitstreamVeraSans-Roman;writing-mode:lr-tb;fill:#000000;fill-opacity:1;fill-rule:nonzero;stroke:none"
         id="text4056"><tspan
           x="0"
           y="0"
           id="tspan4058">3</tspan></text>
<path
         d="m 429.12,43.2 0,4"
         style="fill:#000000;fill-opacity:1;fill-rule:nonzero;stroke:#000000;stroke-width:0.5;stroke-linecap:butt;stroke-linejoin:round;stroke-miterlimit:10;stroke-dasharray:none;stroke-opacity:1"
         id="path4060"
         inkscape:connector-curvature="0" /><path
         d="m 429.12,388.8 0,-4"
         style="fill:#000000;fill-opacity:1;fill-rule:nonzero;stroke:#000000;stroke-width:0.5;stroke-linecap:butt;stroke-linejoin:round;stroke-miterlimit:10;stroke-dasharray:none;stroke-opacity:1"
         id="path4062"
         inkscape:connector-curvature="0" /><text
         transform="matrix(1,0,0,-1,425.9325,30.075)"
         style="font-variant:normal;font-weight:normal;font-size:12px;font-family:'Bitstream Vera Sans';-inkscape-font-specification:BitstreamVeraSans-Roman;writing-mode:lr-tb;fill:#000000;fill-opacity:1;fill-rule:nonzero;stroke:none"
         id="text4064"><tspan
           x="0"
           y="0"
           id="tspan4066">4</tspan></text>
<path
         d="m 518.4,43.2 0,4"
         style="fill:#000000;fill-opacity:1;fill-rule:nonzero;stroke:#000000;stroke-width:0.5;stroke-linecap:butt;stroke-linejoin:round;stroke-miterlimit:10;stroke-dasharray:none;stroke-opacity:1"
         id="path4068"
         inkscape:connector-curvature="0" /><path
         d="m 518.4,388.8 0,-4"
         style="fill:#000000;fill-opacity:1;fill-rule:nonzero;stroke:#000000;stroke-width:0.5;stroke-linecap:butt;stroke-linejoin:round;stroke-miterlimit:10;stroke-dasharray:none;stroke-opacity:1"
         id="path4070"
         inkscape:connector-curvature="0" /><text
         transform="matrix(1,0,0,-1,515.56406,30.075)"
         style="font-variant:normal;font-weight:normal;font-size:12px;font-family:'Bitstream Vera Sans';-inkscape-font-specification:BitstreamVeraSans-Roman;writing-mode:lr-tb;fill:#000000;fill-opacity:1;fill-rule:nonzero;stroke:none"
         id="text4072"><tspan
           x="0"
           y="0"
           id="tspan4074">5</tspan></text>
<path
         d="m 72,43.2 4,0"
         style="fill:#000000;fill-opacity:1;fill-rule:nonzero;stroke:#000000;stroke-width:0.5;stroke-linecap:butt;stroke-linejoin:round;stroke-miterlimit:10;stroke-dasharray:none;stroke-opacity:1"
         id="path4076"
         inkscape:connector-curvature="0" /><path
         d="m 518.4,43.2 -4,0"
         style="fill:#000000;fill-opacity:1;fill-rule:nonzero;stroke:#000000;stroke-width:0.5;stroke-linecap:butt;stroke-linejoin:round;stroke-miterlimit:10;stroke-dasharray:none;stroke-opacity:1"
         id="path4078"
         inkscape:connector-curvature="0" /><text
         transform="matrix(1,0,0,-1,61.953125,39.8875)"
         style="font-variant:normal;font-weight:normal;font-size:12px;font-family:'Bitstream Vera Sans';-inkscape-font-specification:BitstreamVeraSans-Roman;writing-mode:lr-tb;fill:#000000;fill-opacity:1;fill-rule:nonzero;stroke:none"
         id="text4080"><tspan
           x="0"
           y="0"
           id="tspan4082">0</tspan></text>
<path
         d="m 72,129.6 4,0"
         style="fill:#000000;fill-opacity:1;fill-rule:nonzero;stroke:#000000;stroke-width:0.5;stroke-linecap:butt;stroke-linejoin:round;stroke-miterlimit:10;stroke-dasharray:none;stroke-opacity:1"
         id="path4084"
         inkscape:connector-curvature="0" /><path
         d="m 518.4,129.6 -4,0"
         style="fill:#000000;fill-opacity:1;fill-rule:nonzero;stroke:#000000;stroke-width:0.5;stroke-linecap:butt;stroke-linejoin:round;stroke-miterlimit:10;stroke-dasharray:none;stroke-opacity:1"
         id="path4086"
         inkscape:connector-curvature="0" /><text
         transform="matrix(1,0,0,-1,62.328125,126.2875)"
         style="font-variant:normal;font-weight:normal;font-size:12px;font-family:'Bitstream Vera Sans';-inkscape-font-specification:BitstreamVeraSans-Roman;writing-mode:lr-tb;fill:#000000;fill-opacity:1;fill-rule:nonzero;stroke:none"
         id="text4088"><tspan
           x="0"
           y="0"
           id="tspan4090">5</tspan></text>
<path
         d="m 72,216 4,0"
         style="fill:#000000;fill-opacity:1;fill-rule:nonzero;stroke:#000000;stroke-width:0.5;stroke-linecap:butt;stroke-linejoin:round;stroke-miterlimit:10;stroke-dasharray:none;stroke-opacity:1"
         id="path4092"
         inkscape:connector-curvature="0" /><path
         d="m 518.4,216 -4,0"
         style="fill:#000000;fill-opacity:1;fill-rule:nonzero;stroke:#000000;stroke-width:0.5;stroke-linecap:butt;stroke-linejoin:round;stroke-miterlimit:10;stroke-dasharray:none;stroke-opacity:1"
         id="path4094"
         inkscape:connector-curvature="0" /><text
         transform="matrix(1,0,0,-1,54.828125,212.6875)"
         style="font-variant:normal;font-weight:normal;font-size:12px;font-family:'Bitstream Vera Sans';-inkscape-font-specification:BitstreamVeraSans-Roman;writing-mode:lr-tb;fill:#000000;fill-opacity:1;fill-rule:nonzero;stroke:none"
         id="text4096"><tspan
           x="0 7.632"
           y="0"
           sodipodi:role="line"
           id="tspan4098">10</tspan></text>
<path
         d="m 72,302.4 4,0"
         style="fill:#000000;fill-opacity:1;fill-rule:nonzero;stroke:#000000;stroke-width:0.5;stroke-linecap:butt;stroke-linejoin:round;stroke-miterlimit:10;stroke-dasharray:none;stroke-opacity:1"
         id="path4100"
         inkscape:connector-curvature="0" /><path
         d="m 518.4,302.4 -4,0"
         style="fill:#000000;fill-opacity:1;fill-rule:nonzero;stroke:#000000;stroke-width:0.5;stroke-linecap:butt;stroke-linejoin:round;stroke-miterlimit:10;stroke-dasharray:none;stroke-opacity:1"
         id="path4102"
         inkscape:connector-curvature="0" /><text
         transform="matrix(1,0,0,-1,55.078125,299.0875)"
         style="font-variant:normal;font-weight:normal;font-size:12px;font-family:'Bitstream Vera Sans';-inkscape-font-specification:BitstreamVeraSans-Roman;writing-mode:lr-tb;fill:#000000;fill-opacity:1;fill-rule:nonzero;stroke:none"
         id="text4104"><tspan
           x="0 7.632"
           y="0"
           sodipodi:role="line"
           id="tspan4106">15</tspan></text>
<path
         d="m 72,388.8 4,0"
         style="fill:#000000;fill-opacity:1;fill-rule:nonzero;stroke:#000000;stroke-width:0.5;stroke-linecap:butt;stroke-linejoin:round;stroke-miterlimit:10;stroke-dasharray:none;stroke-opacity:1"
         id="path4108"
         inkscape:connector-curvature="0" /><path
         d="m 518.4,388.8 -4,0"
         style="fill:#000000;fill-opacity:1;fill-rule:nonzero;stroke:#000000;stroke-width:0.5;stroke-linecap:butt;stroke-linejoin:round;stroke-miterlimit:10;stroke-dasharray:none;stroke-opacity:1"
         id="path4110"
         inkscape:connector-curvature="0" /><text
         transform="matrix(1,0,0,-1,54.390625,385.4875)"
         style="font-variant:normal;font-weight:normal;font-size:12px;font-family:'Bitstream Vera Sans';-inkscape-font-specification:BitstreamVeraSans-Roman;writing-mode:lr-tb;fill:#000000;fill-opacity:1;fill-rule:nonzero;stroke:none"
         id="text4112"><tspan
           x="0 7.632"
           y="0"
           sodipodi:role="line"
           id="tspan4114">20</tspan></text>
<path
         d="m 72,388.8 446.4,0"
         style="fill:none;stroke:#000000;stroke-width:1;stroke-linecap:butt;stroke-linejoin:round;stroke-miterlimit:10;stroke-dasharray:none;stroke-opacity:1"
         id="path4116"
         inkscape:connector-curvature="0" /><path
         d="m 518.4,43.2 0,345.6"
         style="fill:none;stroke:#000000;stroke-width:1;stroke-linecap:butt;stroke-linejoin:round;stroke-miterlimit:10;stroke-dasharray:none;stroke-opacity:1"
         id="path4118"
         inkscape:connector-curvature="0" /><path
         d="m 72,43.2 446.4,0"
         style="fill:none;stroke:#000000;stroke-width:1;stroke-linecap:butt;stroke-linejoin:round;stroke-miterlimit:10;stroke-dasharray:none;stroke-opacity:1"
         id="path4120"
         inkscape:connector-curvature="0" /><path
         d="m 72,43.2 0,345.6"
         style="fill:none;stroke:#000000;stroke-width:1;stroke-linecap:butt;stroke-linejoin:round;stroke-miterlimit:10;stroke-dasharray:none;stroke-opacity:1"
         id="path4122"
         inkscape:connector-curvature="0" /></g></g></svg>