<?xml version="1.0" encoding="UTF-8" standalone="no"?>
<!DOCTYPE svg PUBLIC "-//W3C//DTD SVG 1.0//EN" "http://www.w3.org/TR/2001/PR-SVG-20010719/DTD/svg10.dtd">
<svg width="21cm" height="6cm" viewBox="10 58 415 107" xmlns="http://www.w3.org/2000/svg" xmlns:xlink="http://www.w3.org/1999/xlink">
  <g>
    <rect style="fill: #ffffff" x="109" y="77" width="114" height="72"/>
    <rect style="fill: none; fill-opacity:0; stroke-width: 2; stroke: #000000" x="109" y="77" width="114" height="72"/>
  </g>
  <g>
    <rect style="fill: #000000" x="169" y="60" width="42" height="9"/>
    <rect style="fill: none; fill-opacity:0; stroke-width: 2; stroke: #000000" x="169" y="60" width="42" height="9"/>
  </g>
  <g>
    <rect style="fill: #000000" x="170.2" y="155.7" width="42" height="9"/>
    <rect style="fill: none; fill-opacity:0; stroke-width: 2; stroke: #000000" x="170.2" y="155.7" width="42" height="9"/>
  </g>
  <line style="fill: none; fill-opacity:0; stroke-width: 2; stroke-dasharray: 4; stroke: #000000" x1="190" y1="69" x2="191.128" y2="154.695"/>
  <g>
    <ellipse style="fill: #000000" cx="118.5" cy="110.5" rx="6.5" ry="6.5"/>
    <ellipse style="fill: none; fill-opacity:0; stroke-width: 2; stroke: #000000" cx="118.5" cy="110.5" rx="6.5" ry="6.5"/>
  </g>
  <g>
    <line style="fill: none; fill-opacity:0; stroke-width: 2; stroke: #000000" x1="224.973" y1="68.0534" x2="310" y2="112"/>
    <polyline style="fill: none; fill-opacity:0; stroke-width: 2; stroke: #000000" points="234.166,67.1764 222.986,67.0267 229.574,76.06 "/>
  </g>
  <g>
    <line style="fill: none; fill-opacity:0; stroke-width: 2; stroke: #000000" x1="221.974" y1="158.949" x2="311" y2="113"/>
    <polyline style="fill: none; fill-opacity:0; stroke-width: 2; stroke: #000000" points="226.58,150.945 219.987,159.974 231.166,159.831 "/>
  </g>
  <text font-size="12.8" style="fill: #000000;text-anchor:start;font-family:sans-serif;font-style:normal;font-weight:normal" x="316" y="111">
    <tspan x="316" y="111">Drive wheels</tspan>
  </text>
  <g>
    <line style="fill: none; fill-opacity:0; stroke-width: 2; stroke: #000000" x1="95.5279" y1="112" x2="61" y2="112"/>
    <polyline style="fill: none; fill-opacity:0; stroke-width: 2; stroke: #000000" points="87.7639,117 97.7639,112 87.7639,107 "/>
  </g>
  <text font-size="12.8" style="fill: #000000;text-anchor:start;font-family:sans-serif;font-style:normal;font-weight:normal" x="10" y="104">
    <tspan x="10" y="104">Drag wheel</tspan>
  </text>
  <g>
    <ellipse style="fill: #0000ff" cx="190" cy="111" rx="6.5" ry="4.5"/>
    <ellipse style="fill: none; fill-opacity:0; stroke-width: 2; stroke: #000000" cx="190" cy="111" rx="6.5" ry="4.5"/>
  </g>
  <g>
    <line style="fill: none; fill-opacity:0; stroke-width: 2; stroke-dasharray: 20 8 4 8; stroke: #000000" x1="198.963" y1="115.146" x2="307" y2="139"/>
    <polyline style="fill: none; fill-opacity:0; stroke-width: 2; stroke: #000000" points="207.622,111.938 196.78,114.664 205.466,121.703 "/>
  </g>
  <text font-size="12.8" style="fill: #000000;text-anchor:start;font-family:sans-serif;font-style:normal;font-weight:normal" x="311" y="144">
    <tspan x="311" y="144">Center of rotation</tspan>
  </text>
</svg>
