<?xml version="1.0" encoding="UTF-8" standalone="no"?>
<!DOCTYPE svg PUBLIC "-//W3C//DTD SVG 1.0//EN" "http://www.w3.org/TR/2001/PR-SVG-20010719/DTD/svg10.dtd">
<svg width="15cm" height="17cm" viewBox="334 55 285 326" xmlns="http://www.w3.org/2000/svg" xmlns:xlink="http://www.w3.org/1999/xlink">
  <g>
    <ellipse style="fill: #ffffff" cx="388.5" cy="151" rx="46.5" ry="45"/>
    <ellipse style="fill: none; fill-opacity:0; stroke-width: 2; stroke: #000000" cx="388.5" cy="151" rx="46.5" ry="45"/>
  </g>
  <g>
    <ellipse style="fill: #0000ff" cx="422" cy="120" rx="6.5" ry="6.5"/>
    <ellipse style="fill: none; fill-opacity:0; stroke-width: 2; stroke: #000000" cx="422" cy="120" rx="6.5" ry="6.5"/>
  </g>
  <g>
    <ellipse style="fill: #0000ff" cx="358" cy="117" rx="6.5" ry="6.5"/>
    <ellipse style="fill: none; fill-opacity:0; stroke-width: 2; stroke: #000000" cx="358" cy="117" rx="6.5" ry="6.5"/>
  </g>
  <g>
    <ellipse style="fill: #0000ff" cx="389" cy="106" rx="6.5" ry="6.5"/>
    <ellipse style="fill: none; fill-opacity:0; stroke-width: 2; stroke: #000000" cx="389" cy="106" rx="6.5" ry="6.5"/>
  </g>
  <g>
    <ellipse style="fill: #0000ff" cx="389" cy="196" rx="6.5" ry="6.5"/>
    <ellipse style="fill: none; fill-opacity:0; stroke-width: 2; stroke: #000000" cx="389" cy="196" rx="6.5" ry="6.5"/>
  </g>
  <g>
    <ellipse style="fill: #0000ff" cx="435" cy="149" rx="6.5" ry="6.5"/>
    <ellipse style="fill: none; fill-opacity:0; stroke-width: 2; stroke: #000000" cx="435" cy="149" rx="6.5" ry="6.5"/>
  </g>
  <g>
    <ellipse style="fill: #0000ff" cx="342" cy="148" rx="6.5" ry="6.5"/>
    <ellipse style="fill: none; fill-opacity:0; stroke-width: 2; stroke: #000000" cx="342" cy="148" rx="6.5" ry="6.5"/>
  </g>
  <g>
    <ellipse style="fill: #0000ff" cx="423" cy="180" rx="6.5" ry="6.5"/>
    <ellipse style="fill: none; fill-opacity:0; stroke-width: 2; stroke: #000000" cx="423" cy="180" rx="6.5" ry="6.5"/>
  </g>
  <g>
    <ellipse style="fill: #0000ff" cx="356" cy="182" rx="6.5" ry="6.5"/>
    <ellipse style="fill: none; fill-opacity:0; stroke-width: 2; stroke: #000000" cx="356" cy="182" rx="6.5" ry="6.5"/>
  </g>
  <g>
    <line style="fill: none; fill-opacity:0; stroke-width: 2; stroke: #000000" x1="431.351" y1="131.206" x2="583.161" y2="61.0827"/>
    <polygon style="fill: #000000" points="589.97,57.9377 582.988,66.6702 583.161,61.0827 578.795,57.5919 "/>
    <polygon style="fill: none; fill-opacity:0; stroke-width: 2; stroke: #000000" points="589.97,57.9377 582.988,66.6702 583.161,61.0827 578.795,57.5919 "/>
  </g>
  <g>
    <ellipse style="fill: #0000ff" cx="409" cy="192" rx="6.5" ry="6.5"/>
    <ellipse style="fill: none; fill-opacity:0; stroke-width: 2; stroke: #000000" cx="409" cy="192" rx="6.5" ry="6.5"/>
  </g>
  <g>
    <ellipse style="fill: #0000ff" cx="432" cy="166" rx="6.5" ry="6.5"/>
    <ellipse style="fill: none; fill-opacity:0; stroke-width: 2; stroke: #000000" cx="432" cy="166" rx="6.5" ry="6.5"/>
  </g>
  <g>
    <ellipse style="fill: #0000ff" cx="370.4" cy="194.2" rx="6.5" ry="6.5"/>
    <ellipse style="fill: none; fill-opacity:0; stroke-width: 2; stroke: #000000" cx="370.4" cy="194.2" rx="6.5" ry="6.5"/>
  </g>
  <g>
    <ellipse style="fill: #0000ff" cx="344" cy="166" rx="6.5" ry="6.5"/>
    <ellipse style="fill: none; fill-opacity:0; stroke-width: 2; stroke: #000000" cx="344" cy="166" rx="6.5" ry="6.5"/>
  </g>
  <g>
    <ellipse style="fill: #0000ff" cx="348" cy="130" rx="6.5" ry="6.5"/>
    <ellipse style="fill: none; fill-opacity:0; stroke-width: 2; stroke: #000000" cx="348" cy="130" rx="6.5" ry="6.5"/>
  </g>
  <g>
    <ellipse style="fill: #0000ff" cx="373" cy="109" rx="6.5" ry="6.5"/>
    <ellipse style="fill: none; fill-opacity:0; stroke-width: 2; stroke: #000000" cx="373" cy="109" rx="6.5" ry="6.5"/>
  </g>
  <g>
    <ellipse style="fill: #0000ff" cx="407" cy="111" rx="6.5" ry="6.5"/>
    <ellipse style="fill: none; fill-opacity:0; stroke-width: 2; stroke: #000000" cx="407" cy="111" rx="6.5" ry="6.5"/>
  </g>
  <g>
    <ellipse style="fill: #0000ff" cx="432" cy="134" rx="6.5" ry="6.5"/>
    <ellipse style="fill: none; fill-opacity:0; stroke-width: 2; stroke: #000000" cx="432" cy="134" rx="6.5" ry="6.5"/>
  </g>
  <g>
    <line style="fill: none; fill-opacity:0; stroke-width: 2; stroke: #000000" x1="409" y1="185.5" x2="393.473" y2="159.37"/>
    <polygon style="fill: #000000" points="389.642,152.922 399.049,158.965 393.473,159.37 390.452,164.073 "/>
    <polygon style="fill: none; fill-opacity:0; stroke-width: 2; stroke: #000000" points="389.642,152.922 399.049,158.965 393.473,159.37 390.452,164.073 "/>
  </g>
  <g>
    <path style="fill: #ff0000" d="M 539 144 C 634,151 618,147 616,191 C 614,235 633,379 562,379 C 491,379 379,381 362,379 C 345,377 336,298 355,262 C 374,226 444,137 539,144z"/>
    <path style="fill: none; fill-opacity:0; stroke-width: 2; stroke: #000000" d="M 539 144 C 634,151 618,147 616,191 C 614,235 633,379 562,379 C 491,379 379,381 362,379 C 345,377 336,298 355,262 C 374,226 444,137 539,144"/>
  </g>
</svg>
