<?xml version="1.0" encoding="UTF-8" standalone="no"?>
<!DOCTYPE svg PUBLIC "-//W3C//DTD SVG 1.0//EN" "http://www.w3.org/TR/2001/PR-SVG-20010719/DTD/svg10.dtd">
<svg width="24cm" height="15cm" viewBox="132 99 469 291" xmlns="http://www.w3.org/2000/svg" xmlns:xlink="http://www.w3.org/1999/xlink">
  <g>
    <rect style="fill: #ffffff" x="135" y="100" width="464" height="288"/>
    <rect style="fill: none; fill-opacity:0; stroke-width: 2; stroke: #000000" x="135" y="100" width="464" height="288"/>
  </g>
  <text font-size="16" style="fill: #000000;text-anchor:start;font-family:sans-serif;font-style:normal;font-weight:normal" x="332" y="121">
    <tspan x="332" y="121">Users</tspan>
  </text>
  <line style="fill: none; fill-opacity:0; stroke-width: 2; stroke: #000000" x1="136" y1="130" x2="597" y2="130"/>
  <line style="fill: none; fill-opacity:0; stroke-width: 2; stroke: #000000" x1="135" y1="157" x2="598" y2="157"/>
  <text font-size="16" style="fill: #000000;text-anchor:start;font-family:sans-serif;font-style:normal;font-weight:normal" x="270" y="148">
    <tspan x="270" y="148">Shell, compilers, libraries</tspan>
  </text>
  <line style="fill: none; fill-opacity:0; stroke-width: 2; stroke: #000000" x1="135" y1="332" x2="600" y2="332"/>
  <line style="fill: none; fill-opacity:0; stroke-width: 2; stroke-dasharray: 4; stroke: #000000" x1="134" y1="190" x2="599" y2="189"/>
  <line style="fill: none; fill-opacity:0; stroke-width: 2; stroke-dasharray: 4; stroke: #000000" x1="135" y1="292" x2="599" y2="292"/>
  <text font-size="16" style="fill: #000000;text-anchor:start;font-family:sans-serif;font-style:normal;font-weight:normal" x="245" y="179">
    <tspan x="245" y="179">System call interface to the kernel</tspan>
  </text>
  <text font-size="16" style="fill: #000000;text-anchor:start;font-family:sans-serif;font-style:normal;font-weight:normal" x="242" y="315">
    <tspan x="242" y="315">Kernel interface to the hardware</tspan>
  </text>
  <text font-size="16" style="fill: #000000;text-anchor:start;font-family:sans-serif;font-style:normal;font-weight:normal" x="184" y="219">
    <tspan x="184" y="219">tty's</tspan>
    <tspan x="184" y="239">terms</tspan>
    <tspan x="184" y="259">char i/o</tspan>
  </text>
  <text font-size="16" style="fill: #000000;text-anchor:start;font-family:sans-serif;font-style:normal;font-weight:normal" x="317" y="222">
    <tspan x="317" y="222">file system</tspan>
    <tspan x="317" y="242">block i/o</tspan>
    <tspan x="317" y="262">disk/tape</tspan>
  </text>
  <text font-size="16" style="fill: #000000;text-anchor:start;font-family:sans-serif;font-style:normal;font-weight:normal" x="450" y="218">
    <tspan x="450" y="218">cpu scheduler</tspan>
    <tspan x="450" y="238">page replacement</tspan>
    <tspan x="450" y="258">paging and VM</tspan>
    <tspan x="450" y="278"></tspan>
  </text>
  <text font-size="16" style="fill: #000000;text-anchor:start;font-family:sans-serif;font-style:normal;font-weight:normal" x="175" y="355">
    <tspan x="175" y="355">Terminal</tspan>
    <tspan x="175" y="375">controllers</tspan>
  </text>
  <text font-size="16" style="fill: #000000;text-anchor:start;font-family:sans-serif;font-style:normal;font-weight:normal" x="333" y="353">
    <tspan x="333" y="353">Disk</tspan>
    <tspan x="333" y="373">controllers</tspan>
  </text>
  <text font-size="16" style="fill: #000000;text-anchor:start;font-family:sans-serif;font-style:normal;font-weight:normal" x="484" y="353">
    <tspan x="484" y="353">Memory</tspan>
    <tspan x="484" y="373">controllers</tspan>
  </text>
  <line style="fill: none; fill-opacity:0; stroke-width: 2; stroke: #000000" x1="285" y1="331" x2="285" y2="389"/>
  <line style="fill: none; fill-opacity:0; stroke-width: 2; stroke: #000000" x1="442" y1="331.3" x2="441" y2="388"/>
</svg>
