<?xml version="1.0" encoding="UTF-8" standalone="no"?>
<!DOCTYPE svg PUBLIC "-//W3C//DTD SVG 1.0//EN" "http://www.w3.org/TR/2001/PR-SVG-20010719/DTD/svg10.dtd">
<svg width="9cm" height="5cm" viewBox="68 110 165 92" xmlns="http://www.w3.org/2000/svg" xmlns:xlink="http://www.w3.org/1999/xlink">
  <g>
    <line style="fill: none; fill-opacity:0; stroke-width: 2; stroke: #000000" x1="102.5" y1="140" x2="102.5" y2="165"/>
    <line style="fill: none; fill-opacity:0; stroke-width: 2; stroke: #000000" x1="91" y1="165" x2="114" y2="165"/>
    <line style="fill: none; fill-opacity:0; stroke-width: 2; stroke: #000000" x1="96.75" y1="175" x2="108.25" y2="175"/>
    <line style="fill: none; fill-opacity:0; stroke-width: 2; stroke: #000000" x1="108.25" y1="150" x2="108.25" y2="160"/>
    <line style="fill: none; fill-opacity:0; stroke-width: 2; stroke: #000000" x1="105.375" y1="155" x2="111.125" y2="155"/>
    <line style="fill: none; fill-opacity:0; stroke-width: 2; stroke: #000000" x1="102.5" y1="175" x2="102.5" y2="200"/>
  </g>
  <polyline style="fill: none; fill-opacity:0; stroke-width: 2; stroke: #000000" points="200.5,140 200.5,158.3 194,160.333 207,164.4 194,168.467 207,172.533 194,176.6 207,180.667 200.5,182.7 200.5,201 "/>
  <line style="fill: none; fill-opacity:0; stroke-width: 2; stroke: #000000" x1="102.5" y1="140" x2="200.5" y2="140"/>
  <line style="fill: none; fill-opacity:0; stroke-width: 2; stroke: #000000" x1="102.5" y1="200" x2="199" y2="201"/>
  <text font-size="20.32" style="fill: #000000;text-anchor:start;font-family:sans-serif;font-style:normal;font-weight:normal" x="68" y="174">
    <tspan x="68" y="174">V</tspan>
  </text>
  <text font-size="20.32" style="fill: #000000;text-anchor:start;font-family:sans-serif;font-style:normal;font-weight:normal" x="218" y="177">
    <tspan x="218" y="177">R</tspan>
  </text>
  <text font-size="21.4489" style="fill: #000000;text-anchor:start;font-family:sans-serif;font-style:normal;font-weight:normal" x="145" y="130">
    <tspan x="145" y="130">i</tspan>
  </text>
  <g>
    <line style="fill: none; fill-opacity:0; stroke-width: 2; stroke: #000000" x1="161" y1="123" x2="180.27" y2="122.336"/>
    <polygon style="fill: #000000" points="187.765,122.077 177.944,127.419 180.27,122.336 177.599,117.425 "/>
    <polygon style="fill: none; fill-opacity:0; stroke-width: 2; stroke: #000000" points="187.765,122.077 177.944,127.419 180.27,122.336 177.599,117.425 "/>
  </g>
</svg>
