<?xml version="1.0" encoding="utf-8"?>
<svg xmlns="http://www.w3.org/2000/svg" xmlns:xlink="http://www.w3.org/1999/xlink" width="600" height="400" viewBox="0 0 2400 1600">
<defs>
  <clipPath id="clip050">
    <rect x="0" y="0" width="2400" height="1600"/>
  </clipPath>
</defs>
<path clip-path="url(#clip050)" d="
M0 1600 L2400 1600 L2400 0 L0 0  Z
  " fill="#ffffff" fill-rule="evenodd" fill-opacity="1"/>
<defs>
  <clipPath id="clip051">
    <rect x="480" y="0" width="1681" height="1600"/>
  </clipPath>
</defs>
<path clip-path="url(#clip050)" d="
M211.325 1423.18 L2352.76 1423.18 L2352.76 47.2441 L211.325 47.2441  Z
  " fill="#ffffff" fill-rule="evenodd" fill-opacity="1"/>
<defs>
  <clipPath id="clip052">
    <rect x="211" y="47" width="2142" height="1377"/>
  </clipPath>
</defs>
<polyline clip-path="url(#clip052)" style="stroke:#000000; stroke-linecap:butt; stroke-linejoin:round; stroke-width:2; stroke-opacity:0.1; fill:none" points="
  271.931,1423.18 271.931,47.2441 
  "/>
<polyline clip-path="url(#clip052)" style="stroke:#000000; stroke-linecap:butt; stroke-linejoin:round; stroke-width:2; stroke-opacity:0.1; fill:none" points="
  776.986,1423.18 776.986,47.2441 
  "/>
<polyline clip-path="url(#clip052)" style="stroke:#000000; stroke-linecap:butt; stroke-linejoin:round; stroke-width:2; stroke-opacity:0.1; fill:none" points="
  1282.04,1423.18 1282.04,47.2441 
  "/>
<polyline clip-path="url(#clip052)" style="stroke:#000000; stroke-linecap:butt; stroke-linejoin:round; stroke-width:2; stroke-opacity:0.1; fill:none" points="
  1787.09,1423.18 1787.09,47.2441 
  "/>
<polyline clip-path="url(#clip052)" style="stroke:#000000; stroke-linecap:butt; stroke-linejoin:round; stroke-width:2; stroke-opacity:0.1; fill:none" points="
  2292.15,1423.18 2292.15,47.2441 
  "/>
<polyline clip-path="url(#clip050)" style="stroke:#000000; stroke-linecap:butt; stroke-linejoin:round; stroke-width:4; stroke-opacity:1; fill:none" points="
  211.325,1423.18 2352.76,1423.18 
  "/>
<polyline clip-path="url(#clip050)" style="stroke:#000000; stroke-linecap:butt; stroke-linejoin:round; stroke-width:4; stroke-opacity:1; fill:none" points="
  271.931,1423.18 271.931,1404.28 
  "/>
<polyline clip-path="url(#clip050)" style="stroke:#000000; stroke-linecap:butt; stroke-linejoin:round; stroke-width:4; stroke-opacity:1; fill:none" points="
  776.986,1423.18 776.986,1404.28 
  "/>
<polyline clip-path="url(#clip050)" style="stroke:#000000; stroke-linecap:butt; stroke-linejoin:round; stroke-width:4; stroke-opacity:1; fill:none" points="
  1282.04,1423.18 1282.04,1404.28 
  "/>
<polyline clip-path="url(#clip050)" style="stroke:#000000; stroke-linecap:butt; stroke-linejoin:round; stroke-width:4; stroke-opacity:1; fill:none" points="
  1787.09,1423.18 1787.09,1404.28 
  "/>
<polyline clip-path="url(#clip050)" style="stroke:#000000; stroke-linecap:butt; stroke-linejoin:round; stroke-width:4; stroke-opacity:1; fill:none" points="
  2292.15,1423.18 2292.15,1404.28 
  "/>
<path clip-path="url(#clip050)" d="M271.931 1452.37 Q268.32 1452.37 266.491 1455.94 Q264.686 1459.48 264.686 1466.61 Q264.686 1473.71 266.491 1477.28 Q268.32 1480.82 271.931 1480.82 Q275.565 1480.82 277.371 1477.28 Q279.2 1473.71 279.2 1466.61 Q279.2 1459.48 277.371 1455.94 Q275.565 1452.37 271.931 1452.37 M271.931 1448.67 Q277.741 1448.67 280.797 1453.27 Q283.876 1457.86 283.876 1466.61 Q283.876 1475.33 280.797 1479.94 Q277.741 1484.52 271.931 1484.52 Q266.121 1484.52 263.042 1479.94 Q259.987 1475.33 259.987 1466.61 Q259.987 1457.86 263.042 1453.27 Q266.121 1448.67 271.931 1448.67 Z" fill="#000000" fill-rule="evenodd" fill-opacity="1" /><path clip-path="url(#clip050)" d="M751.685 1449.29 L770.041 1449.29 L770.041 1453.23 L755.967 1453.23 L755.967 1461.7 Q756.986 1461.35 758.004 1461.19 Q759.023 1461 760.041 1461 Q765.828 1461 769.208 1464.18 Q772.588 1467.35 772.588 1472.76 Q772.588 1478.34 769.115 1481.44 Q765.643 1484.52 759.324 1484.52 Q757.148 1484.52 754.879 1484.15 Q752.634 1483.78 750.227 1483.04 L750.227 1478.34 Q752.31 1479.48 754.532 1480.03 Q756.754 1480.59 759.231 1480.59 Q763.236 1480.59 765.574 1478.48 Q767.912 1476.38 767.912 1472.76 Q767.912 1469.15 765.574 1467.05 Q763.236 1464.94 759.231 1464.94 Q757.356 1464.94 755.481 1465.36 Q753.629 1465.77 751.685 1466.65 L751.685 1449.29 Z" fill="#000000" fill-rule="evenodd" fill-opacity="1" /><path clip-path="url(#clip050)" d="M791.8 1452.37 Q788.189 1452.37 786.361 1455.94 Q784.555 1459.48 784.555 1466.61 Q784.555 1473.71 786.361 1477.28 Q788.189 1480.82 791.8 1480.82 Q795.435 1480.82 797.24 1477.28 Q799.069 1473.71 799.069 1466.61 Q799.069 1459.48 797.24 1455.94 Q795.435 1452.37 791.8 1452.37 M791.8 1448.67 Q797.611 1448.67 800.666 1453.27 Q803.745 1457.86 803.745 1466.61 Q803.745 1475.33 800.666 1479.94 Q797.611 1484.52 791.8 1484.52 Q785.99 1484.52 782.912 1479.94 Q779.856 1475.33 779.856 1466.61 Q779.856 1457.86 782.912 1453.27 Q785.99 1448.67 791.8 1448.67 Z" fill="#000000" fill-rule="evenodd" fill-opacity="1" /><path clip-path="url(#clip050)" d="M1241.65 1479.92 L1249.29 1479.92 L1249.29 1453.55 L1240.98 1455.22 L1240.98 1450.96 L1249.24 1449.29 L1253.92 1449.29 L1253.92 1479.92 L1261.55 1479.92 L1261.55 1483.85 L1241.65 1483.85 L1241.65 1479.92 Z" fill="#000000" fill-rule="evenodd" fill-opacity="1" /><path clip-path="url(#clip050)" d="M1281 1452.37 Q1277.39 1452.37 1275.56 1455.94 Q1273.75 1459.48 1273.75 1466.61 Q1273.75 1473.71 1275.56 1477.28 Q1277.39 1480.82 1281 1480.82 Q1284.63 1480.82 1286.44 1477.28 Q1288.27 1473.71 1288.27 1466.61 Q1288.27 1459.48 1286.44 1455.94 Q1284.63 1452.37 1281 1452.37 M1281 1448.67 Q1286.81 1448.67 1289.86 1453.27 Q1292.94 1457.86 1292.94 1466.61 Q1292.94 1475.33 1289.86 1479.94 Q1286.81 1484.52 1281 1484.52 Q1275.19 1484.52 1272.11 1479.94 Q1269.05 1475.33 1269.05 1466.61 Q1269.05 1457.86 1272.11 1453.27 Q1275.19 1448.67 1281 1448.67 Z" fill="#000000" fill-rule="evenodd" fill-opacity="1" /><path clip-path="url(#clip050)" d="M1311.16 1452.37 Q1307.55 1452.37 1305.72 1455.94 Q1303.92 1459.48 1303.92 1466.61 Q1303.92 1473.71 1305.72 1477.28 Q1307.55 1480.82 1311.16 1480.82 Q1314.79 1480.82 1316.6 1477.28 Q1318.43 1473.71 1318.43 1466.61 Q1318.43 1459.48 1316.6 1455.94 Q1314.79 1452.37 1311.16 1452.37 M1311.16 1448.67 Q1316.97 1448.67 1320.03 1453.27 Q1323.1 1457.86 1323.1 1466.61 Q1323.1 1475.33 1320.03 1479.94 Q1316.97 1484.52 1311.16 1484.52 Q1305.35 1484.52 1302.27 1479.94 Q1299.22 1475.33 1299.22 1466.61 Q1299.22 1457.86 1302.27 1453.27 Q1305.35 1448.67 1311.16 1448.67 Z" fill="#000000" fill-rule="evenodd" fill-opacity="1" /><path clip-path="url(#clip050)" d="M1746.7 1479.92 L1754.34 1479.92 L1754.34 1453.55 L1746.03 1455.22 L1746.03 1450.96 L1754.29 1449.29 L1758.97 1449.29 L1758.97 1479.92 L1766.61 1479.92 L1766.61 1483.85 L1746.7 1483.85 L1746.7 1479.92 Z" fill="#000000" fill-rule="evenodd" fill-opacity="1" /><path clip-path="url(#clip050)" d="M1776.1 1449.29 L1794.46 1449.29 L1794.46 1453.23 L1780.38 1453.23 L1780.38 1461.7 Q1781.4 1461.35 1782.42 1461.19 Q1783.44 1461 1784.46 1461 Q1790.24 1461 1793.62 1464.18 Q1797 1467.35 1797 1472.76 Q1797 1478.34 1793.53 1481.44 Q1790.06 1484.52 1783.74 1484.52 Q1781.56 1484.52 1779.29 1484.15 Q1777.05 1483.78 1774.64 1483.04 L1774.64 1478.34 Q1776.72 1479.48 1778.95 1480.03 Q1781.17 1480.59 1783.65 1480.59 Q1787.65 1480.59 1789.99 1478.48 Q1792.33 1476.38 1792.33 1472.76 Q1792.33 1469.15 1789.99 1467.05 Q1787.65 1464.94 1783.65 1464.94 Q1781.77 1464.94 1779.9 1465.36 Q1778.04 1465.77 1776.1 1466.65 L1776.1 1449.29 Z" fill="#000000" fill-rule="evenodd" fill-opacity="1" /><path clip-path="url(#clip050)" d="M1816.22 1452.37 Q1812.6 1452.37 1810.78 1455.94 Q1808.97 1459.48 1808.97 1466.61 Q1808.97 1473.71 1810.78 1477.28 Q1812.6 1480.82 1816.22 1480.82 Q1819.85 1480.82 1821.65 1477.28 Q1823.48 1473.71 1823.48 1466.61 Q1823.48 1459.48 1821.65 1455.94 Q1819.85 1452.37 1816.22 1452.37 M1816.22 1448.67 Q1822.03 1448.67 1825.08 1453.27 Q1828.16 1457.86 1828.16 1466.61 Q1828.16 1475.33 1825.08 1479.94 Q1822.03 1484.52 1816.22 1484.52 Q1810.4 1484.52 1807.33 1479.94 Q1804.27 1475.33 1804.27 1466.61 Q1804.27 1457.86 1807.33 1453.27 Q1810.4 1448.67 1816.22 1448.67 Z" fill="#000000" fill-rule="evenodd" fill-opacity="1" /><path clip-path="url(#clip050)" d="M2255.84 1479.92 L2272.16 1479.92 L2272.16 1483.85 L2250.22 1483.85 L2250.22 1479.92 Q2252.88 1477.16 2257.46 1472.53 Q2262.07 1467.88 2263.25 1466.54 Q2265.49 1464.01 2266.37 1462.28 Q2267.28 1460.52 2267.28 1458.83 Q2267.28 1456.07 2265.33 1454.34 Q2263.41 1452.6 2260.31 1452.6 Q2258.11 1452.6 2255.66 1453.37 Q2253.23 1454.13 2250.45 1455.68 L2250.45 1450.96 Q2253.27 1449.82 2255.73 1449.25 Q2258.18 1448.67 2260.22 1448.67 Q2265.59 1448.67 2268.78 1451.35 Q2271.98 1454.04 2271.98 1458.53 Q2271.98 1460.66 2271.17 1462.58 Q2270.38 1464.48 2268.27 1467.07 Q2267.69 1467.74 2264.59 1470.96 Q2261.49 1474.15 2255.84 1479.92 Z" fill="#000000" fill-rule="evenodd" fill-opacity="1" /><path clip-path="url(#clip050)" d="M2291.98 1452.37 Q2288.36 1452.37 2286.54 1455.94 Q2284.73 1459.48 2284.73 1466.61 Q2284.73 1473.71 2286.54 1477.28 Q2288.36 1480.82 2291.98 1480.82 Q2295.61 1480.82 2297.42 1477.28 Q2299.24 1473.71 2299.24 1466.61 Q2299.24 1459.48 2297.42 1455.94 Q2295.61 1452.37 2291.98 1452.37 M2291.98 1448.67 Q2297.79 1448.67 2300.84 1453.27 Q2303.92 1457.86 2303.92 1466.61 Q2303.92 1475.33 2300.84 1479.94 Q2297.79 1484.52 2291.98 1484.52 Q2286.17 1484.52 2283.09 1479.94 Q2280.03 1475.33 2280.03 1466.61 Q2280.03 1457.86 2283.09 1453.27 Q2286.17 1448.67 2291.98 1448.67 Z" fill="#000000" fill-rule="evenodd" fill-opacity="1" /><path clip-path="url(#clip050)" d="M2322.14 1452.37 Q2318.53 1452.37 2316.7 1455.94 Q2314.89 1459.48 2314.89 1466.61 Q2314.89 1473.71 2316.7 1477.28 Q2318.53 1480.82 2322.14 1480.82 Q2325.77 1480.82 2327.58 1477.28 Q2329.41 1473.71 2329.41 1466.61 Q2329.41 1459.48 2327.58 1455.94 Q2325.77 1452.37 2322.14 1452.37 M2322.14 1448.67 Q2327.95 1448.67 2331 1453.27 Q2334.08 1457.86 2334.08 1466.61 Q2334.08 1475.33 2331 1479.94 Q2327.95 1484.52 2322.14 1484.52 Q2316.33 1484.52 2313.25 1479.94 Q2310.19 1475.33 2310.19 1466.61 Q2310.19 1457.86 2313.25 1453.27 Q2316.33 1448.67 2322.14 1448.67 Z" fill="#000000" fill-rule="evenodd" fill-opacity="1" /><path clip-path="url(#clip050)" d="M1266.22 1518.52 L1272.11 1518.52 L1272.11 1547.77 L1289.58 1532.4 L1297.06 1532.4 L1278.16 1549.07 L1297.86 1568.04 L1290.22 1568.04 L1272.11 1550.63 L1272.11 1568.04 L1266.22 1568.04 L1266.22 1518.52 Z" fill="#000000" fill-rule="evenodd" fill-opacity="1" /><polyline clip-path="url(#clip052)" style="stroke:#000000; stroke-linecap:butt; stroke-linejoin:round; stroke-width:2; stroke-opacity:0.1; fill:none" points="
  211.325,1263.29 2352.76,1263.29 
  "/>
<polyline clip-path="url(#clip052)" style="stroke:#000000; stroke-linecap:butt; stroke-linejoin:round; stroke-width:2; stroke-opacity:0.1; fill:none" points="
  211.325,1064.62 2352.76,1064.62 
  "/>
<polyline clip-path="url(#clip052)" style="stroke:#000000; stroke-linecap:butt; stroke-linejoin:round; stroke-width:2; stroke-opacity:0.1; fill:none" points="
  211.325,865.941 2352.76,865.941 
  "/>
<polyline clip-path="url(#clip052)" style="stroke:#000000; stroke-linecap:butt; stroke-linejoin:round; stroke-width:2; stroke-opacity:0.1; fill:none" points="
  211.325,667.265 2352.76,667.265 
  "/>
<polyline clip-path="url(#clip052)" style="stroke:#000000; stroke-linecap:butt; stroke-linejoin:round; stroke-width:2; stroke-opacity:0.1; fill:none" points="
  211.325,468.589 2352.76,468.589 
  "/>
<polyline clip-path="url(#clip052)" style="stroke:#000000; stroke-linecap:butt; stroke-linejoin:round; stroke-width:2; stroke-opacity:0.1; fill:none" points="
  211.325,269.914 2352.76,269.914 
  "/>
<polyline clip-path="url(#clip052)" style="stroke:#000000; stroke-linecap:butt; stroke-linejoin:round; stroke-width:2; stroke-opacity:0.1; fill:none" points="
  211.325,71.2377 2352.76,71.2377 
  "/>
<polyline clip-path="url(#clip050)" style="stroke:#000000; stroke-linecap:butt; stroke-linejoin:round; stroke-width:4; stroke-opacity:1; fill:none" points="
  211.325,1423.18 211.325,47.2441 
  "/>
<polyline clip-path="url(#clip050)" style="stroke:#000000; stroke-linecap:butt; stroke-linejoin:round; stroke-width:4; stroke-opacity:1; fill:none" points="
  211.325,1263.29 230.222,1263.29 
  "/>
<polyline clip-path="url(#clip050)" style="stroke:#000000; stroke-linecap:butt; stroke-linejoin:round; stroke-width:4; stroke-opacity:1; fill:none" points="
  211.325,1064.62 230.222,1064.62 
  "/>
<polyline clip-path="url(#clip050)" style="stroke:#000000; stroke-linecap:butt; stroke-linejoin:round; stroke-width:4; stroke-opacity:1; fill:none" points="
  211.325,865.941 230.222,865.941 
  "/>
<polyline clip-path="url(#clip050)" style="stroke:#000000; stroke-linecap:butt; stroke-linejoin:round; stroke-width:4; stroke-opacity:1; fill:none" points="
  211.325,667.265 230.222,667.265 
  "/>
<polyline clip-path="url(#clip050)" style="stroke:#000000; stroke-linecap:butt; stroke-linejoin:round; stroke-width:4; stroke-opacity:1; fill:none" points="
  211.325,468.589 230.222,468.589 
  "/>
<polyline clip-path="url(#clip050)" style="stroke:#000000; stroke-linecap:butt; stroke-linejoin:round; stroke-width:4; stroke-opacity:1; fill:none" points="
  211.325,269.914 230.222,269.914 
  "/>
<polyline clip-path="url(#clip050)" style="stroke:#000000; stroke-linecap:butt; stroke-linejoin:round; stroke-width:4; stroke-opacity:1; fill:none" points="
  211.325,71.2377 230.222,71.2377 
  "/>
<path clip-path="url(#clip050)" d="M114.26 1263.74 L143.936 1263.74 L143.936 1267.68 L114.26 1267.68 L114.26 1263.74 Z" fill="#000000" fill-rule="evenodd" fill-opacity="1" /><path clip-path="url(#clip050)" d="M168.195 1261.94 Q171.552 1262.66 173.427 1264.92 Q175.325 1267.19 175.325 1270.53 Q175.325 1275.64 171.806 1278.44 Q168.288 1281.24 161.806 1281.24 Q159.63 1281.24 157.315 1280.8 Q155.024 1280.39 152.57 1279.53 L152.57 1275.02 Q154.515 1276.15 156.829 1276.73 Q159.144 1277.31 161.667 1277.31 Q166.065 1277.31 168.357 1275.57 Q170.672 1273.84 170.672 1270.53 Q170.672 1267.47 168.519 1265.76 Q166.39 1264.02 162.57 1264.02 L158.542 1264.02 L158.542 1260.18 L162.755 1260.18 Q166.204 1260.18 168.033 1258.81 Q169.862 1257.42 169.862 1254.83 Q169.862 1252.17 167.964 1250.76 Q166.089 1249.32 162.57 1249.32 Q160.649 1249.32 158.45 1249.74 Q156.251 1250.16 153.612 1251.04 L153.612 1246.87 Q156.274 1246.13 158.589 1245.76 Q160.927 1245.39 162.987 1245.39 Q168.311 1245.39 171.413 1247.82 Q174.514 1250.23 174.514 1254.35 Q174.514 1257.22 172.871 1259.21 Q171.227 1261.17 168.195 1261.94 Z" fill="#000000" fill-rule="evenodd" fill-opacity="1" /><path clip-path="url(#clip050)" d="M115.209 1065.07 L144.885 1065.07 L144.885 1069 L115.209 1069 L115.209 1065.07 Z" fill="#000000" fill-rule="evenodd" fill-opacity="1" /><path clip-path="url(#clip050)" d="M159.005 1077.96 L175.325 1077.96 L175.325 1081.9 L153.38 1081.9 L153.38 1077.96 Q156.042 1075.21 160.626 1070.58 Q165.232 1065.92 166.413 1064.58 Q168.658 1062.06 169.538 1060.32 Q170.44 1058.56 170.44 1056.87 Q170.44 1054.12 168.496 1052.38 Q166.575 1050.65 163.473 1050.65 Q161.274 1050.65 158.82 1051.41 Q156.39 1052.17 153.612 1053.73 L153.612 1049 Q156.436 1047.87 158.89 1047.29 Q161.343 1046.71 163.38 1046.71 Q168.751 1046.71 171.945 1049.4 Q175.139 1052.08 175.139 1056.57 Q175.139 1058.7 174.329 1060.62 Q173.542 1062.52 171.436 1065.11 Q170.857 1065.79 167.755 1069 Q164.653 1072.2 159.005 1077.96 Z" fill="#000000" fill-rule="evenodd" fill-opacity="1" /><path clip-path="url(#clip050)" d="M114.839 866.392 L144.515 866.392 L144.515 870.328 L114.839 870.328 L114.839 866.392 Z" fill="#000000" fill-rule="evenodd" fill-opacity="1" /><path clip-path="url(#clip050)" d="M155.417 879.286 L163.056 879.286 L163.056 852.92 L154.746 854.587 L154.746 850.328 L163.01 848.661 L167.686 848.661 L167.686 879.286 L175.325 879.286 L175.325 883.221 L155.417 883.221 L155.417 879.286 Z" fill="#000000" fill-rule="evenodd" fill-opacity="1" /><path clip-path="url(#clip050)" d="M163.38 653.064 Q159.769 653.064 157.94 656.629 Q156.135 660.17 156.135 667.3 Q156.135 674.406 157.94 677.971 Q159.769 681.513 163.38 681.513 Q167.015 681.513 168.82 677.971 Q170.649 674.406 170.649 667.3 Q170.649 660.17 168.82 656.629 Q167.015 653.064 163.38 653.064 M163.38 649.36 Q169.19 649.36 172.246 653.967 Q175.325 658.55 175.325 667.3 Q175.325 676.027 172.246 680.633 Q169.19 685.217 163.38 685.217 Q157.57 685.217 154.491 680.633 Q151.436 676.027 151.436 667.3 Q151.436 658.55 154.491 653.967 Q157.57 649.36 163.38 649.36 Z" fill="#000000" fill-rule="evenodd" fill-opacity="1" /><path clip-path="url(#clip050)" d="M155.417 481.934 L163.056 481.934 L163.056 455.569 L154.746 457.235 L154.746 452.976 L163.01 451.309 L167.686 451.309 L167.686 481.934 L175.325 481.934 L175.325 485.869 L155.417 485.869 L155.417 481.934 Z" fill="#000000" fill-rule="evenodd" fill-opacity="1" /><path clip-path="url(#clip050)" d="M159.005 283.258 L175.325 283.258 L175.325 287.194 L153.38 287.194 L153.38 283.258 Q156.042 280.504 160.626 275.874 Q165.232 271.221 166.413 269.879 Q168.658 267.356 169.538 265.62 Q170.44 263.86 170.44 262.171 Q170.44 259.416 168.496 257.68 Q166.575 255.944 163.473 255.944 Q161.274 255.944 158.82 256.708 Q156.39 257.472 153.612 259.022 L153.612 254.3 Q156.436 253.166 158.89 252.587 Q161.343 252.009 163.38 252.009 Q168.751 252.009 171.945 254.694 Q175.139 257.379 175.139 261.87 Q175.139 263.999 174.329 265.921 Q173.542 267.819 171.436 270.411 Q170.857 271.083 167.755 274.3 Q164.653 277.495 159.005 283.258 Z" fill="#000000" fill-rule="evenodd" fill-opacity="1" /><path clip-path="url(#clip050)" d="M168.195 69.8836 Q171.552 70.6012 173.427 72.8697 Q175.325 75.1382 175.325 78.4715 Q175.325 83.5872 171.806 86.3881 Q168.288 89.189 161.806 89.189 Q159.63 89.189 157.315 88.7492 Q155.024 88.3326 152.57 87.4761 L152.57 82.9622 Q154.515 84.0965 156.829 84.6752 Q159.144 85.2539 161.667 85.2539 Q166.065 85.2539 168.357 83.5178 Q170.672 81.7817 170.672 78.4715 Q170.672 75.416 168.519 73.703 Q166.39 71.9669 162.57 71.9669 L158.542 71.9669 L158.542 68.1243 L162.755 68.1243 Q166.204 68.1243 168.033 66.7586 Q169.862 65.3697 169.862 62.7771 Q169.862 60.1151 167.964 58.7031 Q166.089 57.2679 162.57 57.2679 Q160.649 57.2679 158.45 57.6846 Q156.251 58.1012 153.612 58.9809 L153.612 54.8142 Q156.274 54.0735 158.589 53.7031 Q160.927 53.3327 162.987 53.3327 Q168.311 53.3327 171.413 55.7633 Q174.514 58.1707 174.514 62.291 Q174.514 65.1614 172.871 67.1521 Q171.227 69.1197 168.195 69.8836 Z" fill="#000000" fill-rule="evenodd" fill-opacity="1" /><path clip-path="url(#clip050)" d="M28.3562 737.138 L45.7028 750.028 L64.0042 736.469 L64.0042 743.376 L49.9996 753.752 L64.0042 764.128 L64.0042 771.035 L45.3526 757.19 L28.3562 769.857 L28.3562 762.951 L41.0558 753.497 L28.3562 744.044 L28.3562 737.138 Z" fill="#000000" fill-rule="evenodd" fill-opacity="1" /><path clip-path="url(#clip050)" d="M58.5933 721.828 L58.5933 699.389 L64.0042 699.389 L64.0042 729.562 L58.5933 729.562 Q54.8057 725.902 48.44 719.6 Q42.0425 713.266 40.1964 711.643 Q36.7271 708.556 34.34 707.346 Q31.921 706.105 29.5975 706.105 Q25.8099 706.105 23.4228 708.778 Q21.0356 711.42 21.0356 715.685 Q21.0356 718.709 22.086 722.083 Q23.1363 725.425 25.2688 729.244 L18.7758 729.244 Q17.2162 725.361 16.4205 721.987 Q15.6248 718.613 15.6248 715.812 Q15.6248 708.428 19.3169 704.036 Q23.009 699.644 29.1837 699.644 Q32.112 699.644 34.7537 700.758 Q37.3637 701.84 40.9285 704.736 Q41.8515 705.532 46.2757 709.797 Q50.668 714.062 58.5933 721.828 Z" fill="#000000" fill-rule="evenodd" fill-opacity="1" /><polyline clip-path="url(#clip052)" style="stroke:#009af9; stroke-linecap:butt; stroke-linejoin:round; stroke-width:4; stroke-opacity:1; fill:none" points="
  271.931,667.265 282.083,512.82 292.235,258.311 302.387,505.128 312.539,505.45 322.69,504.942 332.842,610.39 342.994,662.371 353.146,659.655 363.298,755.609 
  373.45,479.276 383.602,489.972 393.753,345.494 403.905,587.789 414.057,539.198 424.209,595.064 434.361,720.326 444.513,529.338 454.664,367.646 464.816,570.984 
  474.968,367.144 485.12,325.878 495.272,283.137 505.424,337.229 515.576,86.1857 525.727,254.026 535.879,139.353 546.031,183.831 556.183,147.37 566.335,312.491 
  576.487,382.341 586.639,467.29 596.79,541.632 606.942,558.116 617.094,614.535 627.246,500.916 637.398,403.463 647.55,501.711 657.701,408.894 667.853,386.448 
  678.005,350.778 688.157,241.603 698.309,403.604 708.461,381.932 718.613,703.321 728.764,736.137 738.916,721.679 749.068,438.431 759.22,640.428 769.372,709.055 
  779.524,521.377 789.676,723.06 799.827,474.399 809.979,539.573 820.131,508.783 830.283,621.342 840.435,687.95 850.587,705.565 860.738,500.627 870.89,748.637 
  881.042,444.253 891.194,361.357 901.346,501.841 911.498,532.083 921.65,495.376 931.801,640.577 941.953,689.039 952.105,576.465 962.257,552.197 972.409,419.744 
  982.561,659.222 992.713,460.32 1002.86,478.325 1013.02,482.196 1023.17,494.456 1033.32,492.865 1043.47,639.911 1053.62,606.933 1063.78,669.029 1073.93,820.906 
  1084.08,759.206 1094.23,752.099 1104.38,864.835 1114.53,716.026 1124.69,841.456 1134.84,838.516 1144.99,832.939 1155.14,876.004 1165.29,777.515 1175.45,757.662 
  1185.6,777.892 1195.75,841.111 1205.9,895.892 1216.05,717.791 1226.21,631.206 1236.36,660.257 1246.51,612.692 1256.66,528.049 1266.81,603.047 1276.96,604.265 
  1287.12,479.34 1297.27,587.126 1307.42,718.919 1317.57,805.186 1327.72,655.645 1337.88,844.384 1348.03,734.993 1358.18,727.977 1368.33,1097.87 1378.48,838.486 
  1388.63,881.463 1398.79,758.746 1408.94,909.089 1419.09,987.085 1429.24,1006.64 1439.39,932.869 1449.55,968.953 1459.7,1066.92 1469.85,944.633 1480,902.65 
  1490.15,883.26 1500.31,992.425 1510.46,832.294 1520.61,834.249 1530.76,913.809 1540.91,766.644 1551.06,763.336 1561.22,774.096 1571.37,794.356 1581.52,715.098 
  1591.67,894.698 1601.82,799.779 1611.98,678.665 1622.13,746.204 1632.28,875.217 1642.43,985.511 1652.58,1087.89 1662.73,716.883 1672.89,762.755 1683.04,645.663 
  1693.19,772.196 1703.34,921.696 1713.49,880.029 1723.65,753.576 1733.8,717.206 1743.95,760.224 1754.1,784.286 1764.25,795.94 1774.41,764.261 1784.56,795.5 
  1794.71,737.929 1804.86,1032.54 1815.01,1097.1 1825.16,1157.88 1835.32,1209.52 1845.47,1070.85 1855.62,1092.42 1865.77,1108.18 1875.92,1071.22 1886.08,1384.24 
  1896.23,1357.05 1906.38,1047.25 1916.53,1220.21 1926.68,1197.76 1936.83,964.156 1946.99,784.45 1957.14,761.461 1967.29,792.467 1977.44,836.977 1987.59,995.662 
  1997.75,1014.66 2007.9,1021.03 2018.05,1086.68 2028.2,1236.08 2038.35,1024.8 2048.5,1038.48 2058.66,924.544 2068.81,989.658 2078.96,1037.07 2089.11,986.92 
  2099.26,829.905 2109.42,855.21 2119.57,850.423 2129.72,617.471 2139.87,684.37 2150.02,730.781 2160.18,757.611 2170.33,888.109 2180.48,870.826 2190.63,811.581 
  2200.78,674.193 2210.93,766.49 2221.09,673.726 2231.24,659.28 2241.39,785.565 2251.54,432.804 2261.69,460.096 2271.85,379.281 2282,373.71 2292.15,337.04 
  
  "/>
<polyline clip-path="url(#clip052)" style="stroke:#e26f46; stroke-linecap:butt; stroke-linejoin:round; stroke-width:4; stroke-opacity:1; fill:none" points="
  271.931,667.265 282.083,567.429 292.235,502.421 302.387,464.823 312.539,433.686 322.69,422.179 332.842,412.801 342.994,405.59 353.146,397.698 363.298,398.297 
  373.45,394.144 383.602,398.131 393.753,403.931 403.905,404.183 414.057,403.824 424.209,402.285 434.361,398.157 444.513,399.085 454.664,397.96 464.816,401.965 
  474.968,406.789 485.12,406.48 495.272,396.507 505.424,400.256 515.576,403.473 525.727,405.809 535.879,409.587 546.031,405.086 556.183,410.628 566.335,419.451 
  576.487,422.611 586.639,425.389 596.79,424.137 606.942,426.65 617.094,432.33 627.246,429.599 637.398,432.297 647.55,440.096 657.701,445.477 667.853,451.806 
  678.005,462.645 688.157,460.427 698.309,473.527 708.461,473.974 718.613,478.938 728.764,482.88 738.916,492.577 749.068,506.588 759.22,518.055 769.372,518.619 
  779.524,520.603 789.676,530.943 799.827,538.366 809.979,551.261 820.131,563.163 830.283,567.107 840.435,568.108 850.587,567.544 860.738,570.372 870.89,574.747 
  881.042,577.351 891.194,578.922 901.346,583.073 911.498,582.392 921.65,587.642 931.801,595.338 941.953,606.595 952.105,617.666 962.257,633.098 972.409,642.276 
  982.561,648.689 992.713,652.803 1002.86,656.562 1013.02,668.372 1023.17,680.646 1033.32,688.949 1043.47,693.585 1053.62,697.145 1063.78,694.871 1073.93,707.116 
  1084.08,727.825 1094.23,739.447 1104.38,748.952 1114.53,758.141 1124.69,764.547 1134.84,772.086 1144.99,779.523 1155.14,782.809 1165.29,783.797 1175.45,790.211 
  1185.6,790.613 1195.75,796.36 1205.9,795.996 1216.05,797.829 1226.21,798.372 1236.36,803.922 1246.51,808.288 1256.66,817.093 1266.81,810.815 1276.96,826.405 
  1287.12,831.457 1297.27,843.647 1307.42,848.598 1317.57,854.079 1327.72,858.489 1337.88,864.255 1348.03,865.66 1358.18,869.171 1368.33,878.345 1378.48,887.42 
  1388.63,900.849 1398.79,908.53 1408.94,904.515 1419.09,902.292 1429.24,906.745 1439.39,913.426 1449.55,922.304 1459.7,930.279 1469.85,937.594 1480,936.477 
  1490.15,949.307 1500.31,949.84 1510.46,954.646 1520.61,956.427 1530.76,955.553 1540.91,949.938 1551.06,944.982 1561.22,944.017 1571.37,950.405 1581.52,958.31 
  1591.67,951.657 1601.82,949.023 1611.98,945.397 1622.13,948.588 1632.28,948.287 1642.43,943.873 1652.58,941.086 1662.73,930.558 1672.89,930.294 1683.04,926.386 
  1693.19,930.144 1703.34,935.029 1713.49,934.369 1723.65,929.002 1733.8,924.916 1743.95,917.796 1754.1,918.122 1764.25,918.935 1774.41,923.312 1784.56,925.165 
  1794.71,924.562 1804.86,918.1 1815.01,910.392 1825.16,906.649 1835.32,903.52 1845.47,898.053 1855.62,888.087 1865.77,883.374 1875.92,891.075 1886.08,888.797 
  1896.23,895.162 1906.38,893.735 1916.53,905.899 1926.68,903.756 1936.83,895.014 1946.99,884.48 1957.14,876.709 1967.29,867.003 1977.44,865.278 1987.59,857.051 
  1997.75,854.919 2007.9,838.071 2018.05,831.337 2028.2,826.343 2038.35,820.317 2048.5,813.328 2058.66,820.979 2068.81,811.795 2078.96,804.209 2089.11,791.684 
  2099.26,783.871 2109.42,778.11 2119.57,774.929 2129.72,758.469 2139.87,750.989 2150.02,749.166 2160.18,746.814 2170.33,740.363 2180.48,730.159 2190.63,724.481 
  2200.78,721.214 2210.93,719.757 2221.09,709.907 2231.24,701.048 2241.39,686.622 2251.54,677.511 2261.69,666.829 2271.85,662.545 2282,658.101 2292.15,651.031 
  
  "/>
</svg>
