<?xml version="1.0" encoding="UTF-8" standalone="no"?>
<!DOCTYPE svg PUBLIC "-//W3C//DTD SVG 1.0//EN" "http://www.w3.org/TR/2001/PR-SVG-20010719/DTD/svg10.dtd">
<svg width="19cm" height="16cm" viewBox="241 125 375 303" xmlns="http://www.w3.org/2000/svg" xmlns:xlink="http://www.w3.org/1999/xlink">
  <g>
    <rect style="fill: #ffffff" x="244" y="127" width="371" height="300"/>
    <line style="fill: none; fill-opacity:0; stroke-width: 2; stroke: #7f7f7f" x1="244" y1="147" x2="615" y2="147"/>
    <line style="fill: none; fill-opacity:0; stroke-width: 2; stroke: #7f7f7f" x1="244" y1="167" x2="615" y2="167"/>
    <line style="fill: none; fill-opacity:0; stroke-width: 2; stroke: #7f7f7f" x1="244" y1="187" x2="615" y2="187"/>
    <line style="fill: none; fill-opacity:0; stroke-width: 2; stroke: #7f7f7f" x1="244" y1="207" x2="615" y2="207"/>
    <line style="fill: none; fill-opacity:0; stroke-width: 2; stroke: #7f7f7f" x1="244" y1="227" x2="615" y2="227"/>
    <line style="fill: none; fill-opacity:0; stroke-width: 2; stroke: #7f7f7f" x1="244" y1="247" x2="615" y2="247"/>
    <line style="fill: none; fill-opacity:0; stroke-width: 2; stroke: #7f7f7f" x1="244" y1="267" x2="615" y2="267"/>
    <line style="fill: none; fill-opacity:0; stroke-width: 2; stroke: #7f7f7f" x1="244" y1="287" x2="615" y2="287"/>
    <line style="fill: none; fill-opacity:0; stroke-width: 2; stroke: #7f7f7f" x1="244" y1="307" x2="615" y2="307"/>
    <line style="fill: none; fill-opacity:0; stroke-width: 2; stroke: #7f7f7f" x1="244" y1="327" x2="615" y2="327"/>
    <line style="fill: none; fill-opacity:0; stroke-width: 2; stroke: #7f7f7f" x1="244" y1="347" x2="615" y2="347"/>
    <line style="fill: none; fill-opacity:0; stroke-width: 2; stroke: #7f7f7f" x1="244" y1="367" x2="615" y2="367"/>
    <line style="fill: none; fill-opacity:0; stroke-width: 2; stroke: #7f7f7f" x1="244" y1="387" x2="615" y2="387"/>
    <line style="fill: none; fill-opacity:0; stroke-width: 2; stroke: #7f7f7f" x1="244" y1="407" x2="615" y2="407"/>
    <line style="fill: none; fill-opacity:0; stroke-width: 2; stroke: #7f7f7f" x1="268.733" y1="127" x2="268.733" y2="427"/>
    <line style="fill: none; fill-opacity:0; stroke-width: 2; stroke: #7f7f7f" x1="293.467" y1="127" x2="293.467" y2="427"/>
    <line style="fill: none; fill-opacity:0; stroke-width: 2; stroke: #7f7f7f" x1="318.2" y1="127" x2="318.2" y2="427"/>
    <line style="fill: none; fill-opacity:0; stroke-width: 2; stroke: #7f7f7f" x1="342.933" y1="127" x2="342.933" y2="427"/>
    <line style="fill: none; fill-opacity:0; stroke-width: 2; stroke: #7f7f7f" x1="367.667" y1="127" x2="367.667" y2="427"/>
    <line style="fill: none; fill-opacity:0; stroke-width: 2; stroke: #7f7f7f" x1="392.4" y1="127" x2="392.4" y2="427"/>
    <line style="fill: none; fill-opacity:0; stroke-width: 2; stroke: #7f7f7f" x1="417.133" y1="127" x2="417.133" y2="427"/>
    <line style="fill: none; fill-opacity:0; stroke-width: 2; stroke: #7f7f7f" x1="441.867" y1="127" x2="441.867" y2="427"/>
    <line style="fill: none; fill-opacity:0; stroke-width: 2; stroke: #7f7f7f" x1="466.6" y1="127" x2="466.6" y2="427"/>
    <line style="fill: none; fill-opacity:0; stroke-width: 2; stroke: #7f7f7f" x1="491.333" y1="127" x2="491.333" y2="427"/>
    <line style="fill: none; fill-opacity:0; stroke-width: 2; stroke: #7f7f7f" x1="516.067" y1="127" x2="516.067" y2="427"/>
    <line style="fill: none; fill-opacity:0; stroke-width: 2; stroke: #7f7f7f" x1="540.8" y1="127" x2="540.8" y2="427"/>
    <line style="fill: none; fill-opacity:0; stroke-width: 2; stroke: #7f7f7f" x1="565.533" y1="127" x2="565.533" y2="427"/>
    <line style="fill: none; fill-opacity:0; stroke-width: 2; stroke: #7f7f7f" x1="590.267" y1="127" x2="590.267" y2="427"/>
    <rect style="fill: none; fill-opacity:0; stroke-width: 2; stroke: #000000" x="244" y="127" width="371" height="300"/>
  </g>
  <path style="fill: none; fill-opacity:0; stroke-width: 2; stroke: #000000" d="M 243,336 A 245.773,245.773 0 0 0 501,128"/>
  <path style="fill: none; fill-opacity:0; stroke-width: 2; stroke: #000000" d="M 486,424 A 248.127,248.127 0 0 0 245,186"/>
  <g>
    <rect style="fill: #0000ff" x="245" y="329" width="71" height="17"/>
    <rect style="fill: none; fill-opacity:0; stroke-width: 2; stroke: #000000" x="245" y="329" width="71" height="17"/>
  </g>
  <g>
    <rect style="fill: #0000ff" x="318.3" y="306.5" width="50.7" height="20.5"/>
    <rect style="fill: none; fill-opacity:0; stroke-width: 2; stroke: #000000" x="318.3" y="306.5" width="50.7" height="20.5"/>
  </g>
  <g>
    <rect style="fill: #0000ff" x="367.3" y="286.5" width="75.7" height="20.5"/>
    <rect style="fill: none; fill-opacity:0; stroke-width: 2; stroke: #000000" x="367.3" y="286.5" width="75.7" height="20.5"/>
  </g>
  <g>
    <rect style="fill: #0000ff" x="391.6" y="266" width="25.4" height="20.5"/>
    <rect style="fill: none; fill-opacity:0; stroke-width: 2; stroke: #000000" x="391.6" y="266" width="25.4" height="20.5"/>
  </g>
  <g>
    <rect style="fill: #0000ff" x="245.9" y="186.5" width="95.1" height="20.5"/>
    <rect style="fill: none; fill-opacity:0; stroke-width: 2; stroke: #000000" x="245.9" y="186.5" width="95.1" height="20.5"/>
  </g>
  <g>
    <rect style="fill: #0000ff" x="342.3" y="206.5" width="50.7" height="20.5"/>
    <rect style="fill: none; fill-opacity:0; stroke-width: 2; stroke: #000000" x="342.3" y="206.5" width="50.7" height="20.5"/>
  </g>
  <g>
    <rect style="fill: #0000ff" x="366.6" y="228" width="50.7" height="20.5"/>
    <rect style="fill: none; fill-opacity:0; stroke-width: 2; stroke: #000000" x="366.6" y="228" width="50.7" height="20.5"/>
  </g>
  <g>
    <rect style="fill: #0000ff" x="393.3" y="247.5" width="47.7" height="20.5"/>
    <rect style="fill: none; fill-opacity:0; stroke-width: 2; stroke: #000000" x="393.3" y="247.5" width="47.7" height="20.5"/>
  </g>
  <g>
    <rect style="fill: #0000ff" x="443.3" y="285.5" width="22.7" height="60.5"/>
    <rect style="fill: none; fill-opacity:0; stroke-width: 2; stroke: #000000" x="443.3" y="285.5" width="22.7" height="60.5"/>
  </g>
  <g>
    <rect style="fill: #0000ff" x="468.3" y="328" width="22.7" height="97"/>
    <rect style="fill: none; fill-opacity:0; stroke-width: 2; stroke: #000000" x="468.3" y="328" width="22.7" height="97"/>
  </g>
  <g>
    <rect style="fill: #0000ff" x="467.6" y="166" width="22.7" height="60.5"/>
    <rect style="fill: none; fill-opacity:0; stroke-width: 2; stroke: #000000" x="467.6" y="166" width="22.7" height="60.5"/>
  </g>
  <g>
    <rect style="fill: #0000ff" x="442.9" y="206.5" width="22.7" height="60.5"/>
    <rect style="fill: none; fill-opacity:0; stroke-width: 2; stroke: #000000" x="442.9" y="206.5" width="22.7" height="60.5"/>
  </g>
  <g>
    <rect style="fill: #0000ff" x="492.2" y="129" width="22.7" height="35.5"/>
    <rect style="fill: none; fill-opacity:0; stroke-width: 2; stroke: #000000" x="492.2" y="129" width="22.7" height="35.5"/>
  </g>
  <g>
    <rect style="fill: #00ff00" x="416.3" y="265.5" width="25.4" height="20.5"/>
    <rect style="fill: none; fill-opacity:0; stroke-width: 2; stroke: #000000" x="416.3" y="265.5" width="25.4" height="20.5"/>
  </g>
</svg>
