<?xml version="1.0" encoding="UTF-8" standalone="no"?>
<!-- Created by diasvg.py -->
<svg width="19.850cm" height="15.905cm" viewBox="4.700 2.145 24.550 18.050"
 xmlns="http://www.w3.org/2000/svg"
 xmlns:xlink="http://www.w3.org/1999/xlink">
<rect x="4.750" y="2.195" width="19.750" height="15.805" fill="#D8E5E5" stroke="none" stroke-width="0"/>
<rect x="4.750" y="2.195" width="19.750" height="15.805" fill="none" stroke="#000000" stroke-width="0.100" />
<line x1="10.825" y1="9.565" x2="19.026" y2="9.696" stroke="#000000" stroke-width="0.100" />
<polyline fill="none" stroke="#000000" stroke-width="0.100"  points="18.634,9.940 19.138,9.698 18.642,9.440 "/>
<line x1="10.154" y1="9.098" x2="11.391" y2="6.895" stroke="#000000" stroke-width="0.100" />
<polyline fill="none" stroke="#000000" stroke-width="0.100"  points="11.418,7.356 11.445,6.797 10.983,7.111 "/>
<line x1="10.490" y1="9.760" x2="17.250" y2="9.750" stroke="#0000FF" stroke-width="0.500" />
<line x1="9.905" y1="9.076" x2="9.948" y2="5.074" stroke="#000000" stroke-width="0.100" />
<polyline fill="none" stroke="#000000" stroke-width="0.100"  points="10.193,5.464 9.949,4.962 9.694,5.459 "/>
<text x="9.820" y="4.465"  fill="#000000" text-anchor="start" font-size="1.06" font-family="sans" font-style="normal" font-weight="400">
z</text>
<text x="11.625" y="6.340"  fill="#000000" text-anchor="start" font-size="1.06" font-family="sans" font-style="normal" font-weight="400">
y</text>
<text x="19.465" y="9.985"  fill="#000000" text-anchor="start" font-size="1.06" font-family="sans" font-style="normal" font-weight="400">
x</text>
<ellipse cx="9.815" cy="13.435" rx="0.875" ry="0.425" fill="#0000FF" stroke="none"  /><ellipse cx="9.815" cy="13.435" rx="0.875" ry="0.425" fill="none" stroke="#000000"  stroke-width="0.100" /><rect x="8.990" y="9.760" width="1.750" height="3.450" fill="#0000FF" stroke="none" stroke-width="0"/>
<rect x="8.990" y="9.760" width="1.750" height="3.450" fill="none" stroke="#0000FF" stroke-width="0.100" />
<ellipse cx="9.900" cy="9.550" rx="0.875" ry="0.425" fill="#FFFFFF" stroke="none"  /><ellipse cx="9.900" cy="9.550" rx="0.875" ry="0.425" fill="none" stroke="#000000"  stroke-width="0.100" /><path stroke="#000000" fill="none" stroke-width="0.100"  d ="M 8.150,12.600 A 1.784,1.784 0 1,0 11.692,13.022 "/>
<polyline fill="none" stroke="#000000" stroke-width="0.100"  points="11.966,13.405 11.703,12.912 11.466,13.418 "/>
<text x="13.500" y="9.150"  fill="#000000" text-anchor="start" font-size="1.06" font-family="sans" font-style="normal" font-weight="400">
a</text>
<text x="7.685" y="11.386"  fill="#000000" text-anchor="start" font-size="1.06" font-family="sans" font-style="normal" font-weight="400">
d</text>
<line x1="8.489" y1="10.060" x2="8.531" y2="12.212" stroke="#000000" stroke-width="0.100" stroke-dasharray="0.10,0.10"/>
<polyline fill="none" stroke="#000000" stroke-width="0.100"  points="8.747,10.443 8.487,9.948 8.247,10.452 "/>
<polyline fill="none" stroke="#000000" stroke-width="0.100"  points="8.273,11.829 8.533,12.324 8.773,11.819 "/>
</svg>