<?xml version="1.0" encoding="UTF-8" standalone="no"?>
<!-- Created with Inkscape (http://www.inkscape.org/) -->

<svg
   width="91.047707mm"
   height="88.56424mm"
   viewBox="0 0 91.047707 88.56424"
   version="1.1"
   id="svg5"
   inkscape:version="1.1 (c4e8f9e, 2021-05-24)"
   sodipodi:docname="tantheta.svg"
   xmlns:inkscape="http://www.inkscape.org/namespaces/inkscape"
   xmlns:sodipodi="http://sodipodi.sourceforge.net/DTD/sodipodi-0.dtd"
   xmlns="http://www.w3.org/2000/svg"
   xmlns:svg="http://www.w3.org/2000/svg">
  <sodipodi:namedview
     id="namedview7"
     pagecolor="#ffffff"
     bordercolor="#666666"
     borderopacity="1.0"
     inkscape:pageshadow="2"
     inkscape:pageopacity="0.0"
     inkscape:pagecheckerboard="true"
     inkscape:document-units="mm"
     showgrid="false"
     fit-margin-top="0"
     fit-margin-left="0"
     fit-margin-right="0"
     fit-margin-bottom="0"
     inkscape:zoom="0.77771465"
     inkscape:cx="247.52009"
     inkscape:cy="252.66337"
     inkscape:window-width="1312"
     inkscape:window-height="1081"
     inkscape:window-x="0"
     inkscape:window-y="25"
     inkscape:window-maximized="0"
     inkscape:current-layer="layer1" />
  <defs
     id="defs2" />
  <g
     inkscape:label="Layer 1"
     inkscape:groupmode="layer"
     id="layer1"
     transform="translate(-39.527692,-85.67664)">
    <g
       id="g17"
       transform="matrix(0.03527778,0,0,-0.03527778,39.048964,174.24504)">
      <path
         d="M 17.6562,44.5 C 1335.75,-352.344 187.734,3318.46 2427.07,994.09"
         style="fill:none;stroke:#000000;stroke-width:28.346;stroke-linecap:butt;stroke-linejoin:miter;stroke-miterlimit:10;stroke-dasharray:none;stroke-opacity:1"
         id="path19" />
      <path
         d="m 1052.29,1631.88 833.9,833.9"
         style="fill:none;stroke:#0000ff;stroke-width:28.346;stroke-linecap:butt;stroke-linejoin:miter;stroke-miterlimit:10;stroke-dasharray:none;stroke-opacity:1"
         id="path21" />
      <path
         d="m 1858.49,2337.86 50.11,150.33 -150.32,-50.11"
         style="fill:none;stroke:#0000ff;stroke-width:28.346;stroke-linecap:butt;stroke-linejoin:miter;stroke-miterlimit:10;stroke-dasharray:none;stroke-opacity:1"
         id="path23" />
      <path
         d="m 1080.63,1646.05 829.53,13.16"
         style="fill:none;stroke:#00ff00;stroke-width:28.346;stroke-linecap:butt;stroke-linejoin:miter;stroke-miterlimit:10;stroke-dasharray:none;stroke-opacity:1"
         id="path25" />
      <path
         d="m 1801.25,1586.61 140.59,73.11 -142.83,68.6"
         style="fill:none;stroke:#00ff00;stroke-width:28.346;stroke-linecap:butt;stroke-linejoin:miter;stroke-miterlimit:10;stroke-dasharray:none;stroke-opacity:1"
         id="path27" />
      <path
         d="m 1987.7,1660.22 -19.43,770.82"
         style="fill:none;stroke:#00ff00;stroke-width:28.346;stroke-linecap:butt;stroke-linejoin:miter;stroke-miterlimit:10;stroke-dasharray:none;stroke-opacity:1"
         id="path29" />
      <path
         d="m 2041.89,2322.83 -74.42,139.9 -67.27,-143.48"
         style="fill:none;stroke:#00ff00;stroke-width:28.346;stroke-linecap:butt;stroke-linejoin:miter;stroke-miterlimit:10;stroke-dasharray:none;stroke-opacity:1"
         id="path31" />
      <path
         d="m 1358.84,1517.93 v 51.63 h 16.43 v -136.11 h -16.43 v 14.08 c -3.32,-5.55 -7.53,-9.68 -12.61,-12.39 -5.09,-2.69 -11.2,-4.03 -18.34,-4.03 -11.66,0 -21.15,4.74 -28.49,14.22 -7.31,9.49 -10.96,21.96 -10.96,37.4 0,15.45 3.65,27.92 10.96,37.4 7.34,9.49 16.83,14.23 28.49,14.23 7.14,0 13.25,-1.36 18.34,-4.07 5.08,-2.69 9.29,-6.81 12.61,-12.36 m -53.97,-35.2 c 0,-11.71 2.39,-20.9 7.18,-27.57 4.79,-6.65 11.38,-9.97 19.77,-9.97 8.38,0 14.98,3.32 19.8,9.97 4.81,6.67 7.22,15.86 7.22,27.57 0,11.71 -2.41,20.89 -7.22,27.54 -4.82,6.67 -11.42,10.01 -19.8,10.01 -8.39,0 -14.98,-3.34 -19.77,-10.01 -4.79,-6.65 -7.18,-15.83 -7.18,-27.54"
         style="fill:#000000;fill-opacity:1;fill-rule:nonzero;stroke:none"
         id="path33" />
      <path
         d="m 1490.67,1532.01 -35.13,-47.96 37.48,-50.6 h -19.04 l -28.59,38.72 -27.76,-38.72 h -18.48 l 36.89,51.56 -34.54,47 h 18.8 l 25.78,-35.12 25.78,35.12 h 18.81"
         style="fill:#000000;fill-opacity:1;fill-rule:nonzero;stroke:none"
         id="path35" />
      <path
         d="m 1548.05,1562.52 h 15.03 l -45.98,-145.49 h -15.03 l 45.98,145.49"
         style="fill:#000000;fill-opacity:1;fill-rule:nonzero;stroke:none"
         id="path37" />
      <path
         d="m 1642.74,1517.93 v 51.63 h 16.43 v -136.11 h -16.43 v 14.08 c -3.32,-5.55 -7.53,-9.68 -12.61,-12.39 -5.09,-2.69 -11.2,-4.03 -18.34,-4.03 -11.66,0 -21.15,4.74 -28.49,14.22 -7.3,9.49 -10.96,21.96 -10.96,37.4 0,15.45 3.66,27.92 10.96,37.4 7.34,9.49 16.83,14.23 28.49,14.23 7.14,0 13.25,-1.36 18.34,-4.07 5.08,-2.69 9.29,-6.81 12.61,-12.36 m -53.97,-35.2 c 0,-11.71 2.39,-20.9 7.18,-27.57 4.8,-6.65 11.38,-9.97 19.77,-9.97 8.38,0 14.98,3.32 19.8,9.97 4.81,6.67 7.22,15.86 7.22,27.57 0,11.71 -2.41,20.89 -7.22,27.54 -4.82,6.67 -11.42,10.01 -19.8,10.01 -8.39,0 -14.97,-3.34 -19.77,-10.01 -4.79,-6.65 -7.18,-15.83 -7.18,-27.54"
         style="fill:#000000;fill-opacity:1;fill-rule:nonzero;stroke:none"
         id="path39" />
      <path
         d="m 1711.21,1560.17 v -28.16 h 32.85 v -11.73 h -32.85 v -53.75 c 0,-8.07 1.08,-13.25 3.23,-15.55 2.17,-2.3 6.58,-3.45 13.23,-3.45 h 16.39 v -14.08 h -16.39 c -12.44,0 -21.03,2.37 -25.77,7.12 -4.74,4.76 -7.11,13.41 -7.11,25.96 v 53.75 h -11.74 v 11.73 h 11.74 v 28.16 h 16.42"
         style="fill:#000000;fill-opacity:1;fill-rule:nonzero;stroke:none"
         id="path41" />
      <path
         d="m 2209.22,2084.85 v 51.63 h 16.42 v -136.1 h -16.42 v 14.07 c -3.33,-5.55 -7.53,-9.68 -12.61,-12.39 -5.09,-2.69 -11.2,-4.03 -18.34,-4.03 -11.66,0 -21.15,4.74 -28.48,14.22 -7.31,9.49 -10.97,21.95 -10.97,37.4 0,15.45 3.66,27.92 10.97,37.4 7.33,9.49 16.82,14.23 28.48,14.23 7.14,0 13.25,-1.36 18.34,-4.07 5.08,-2.69 9.28,-6.81 12.61,-12.36 m -53.97,-35.2 c 0,-11.7 2.39,-20.9 7.18,-27.57 4.8,-6.65 11.38,-9.97 19.77,-9.97 8.38,0 14.98,3.32 19.8,9.97 4.81,6.67 7.22,15.87 7.22,27.57 0,11.71 -2.41,20.89 -7.22,27.54 -4.82,6.67 -11.42,10.01 -19.8,10.01 -8.39,0 -14.97,-3.34 -19.77,-10.01 -4.79,-6.65 -7.18,-15.83 -7.18,-27.54"
         style="fill:#000000;fill-opacity:1;fill-rule:nonzero;stroke:none"
         id="path43" />
      <path
         d="m 2301.38,1991.65 c -4.45,-11.93 -8.79,-19.72 -13.02,-23.36 -4.2,-3.64 -9.84,-5.46 -16.9,-5.46 h -12.54 v 14.08 h 9.24 c 4.32,0 7.67,1.04 10.04,3.11 2.4,2.08 5.05,6.97 7.96,14.67 l 2.82,7.37 -39.45,96.87 h 17.42 l 29.88,-77.07 29.92,77.07 h 16.64 l -42.01,-107.28"
         style="fill:#000000;fill-opacity:1;fill-rule:nonzero;stroke:none"
         id="path45" />
      <path
         d="m 2398.43,2129.44 h 15.03 l -45.98,-145.49 h -15.03 l 45.98,145.49"
         style="fill:#000000;fill-opacity:1;fill-rule:nonzero;stroke:none"
         id="path47" />
      <path
         d="m 2493.12,2084.85 v 51.63 h 16.43 v -136.1 h -16.43 v 14.07 c -3.32,-5.55 -7.53,-9.68 -12.61,-12.39 -5.09,-2.69 -11.2,-4.03 -18.33,-4.03 -11.66,0 -21.16,4.74 -28.5,14.22 -7.3,9.49 -10.96,21.95 -10.96,37.4 0,15.45 3.66,27.92 10.96,37.4 7.34,9.49 16.84,14.23 28.5,14.23 7.13,0 13.24,-1.36 18.33,-4.07 5.08,-2.69 9.29,-6.81 12.61,-12.36 m -53.97,-35.2 c 0,-11.7 2.39,-20.9 7.19,-27.57 4.78,-6.65 11.37,-9.97 19.76,-9.97 8.38,0 14.98,3.32 19.8,9.97 4.81,6.67 7.22,15.87 7.22,27.57 0,11.71 -2.41,20.89 -7.22,27.54 -4.82,6.67 -11.42,10.01 -19.8,10.01 -8.39,0 -14.98,-3.34 -19.76,-10.01 -4.8,-6.65 -7.19,-15.83 -7.19,-27.54"
         style="fill:#000000;fill-opacity:1;fill-rule:nonzero;stroke:none"
         id="path49" />
      <path
         d="m 2561.59,2127.09 v -28.16 h 32.86 v -11.73 h -32.86 v -53.75 c 0,-8.07 1.08,-13.25 3.23,-15.55 2.17,-2.3 6.59,-3.45 13.23,-3.45 h 16.4 v -14.07 h -16.4 c -12.44,0 -21.03,2.37 -25.77,7.11 -4.74,4.76 -7.12,13.42 -7.12,25.96 v 53.75 h -11.73 v 11.73 h 11.73 v 28.16 h 16.43"
         style="fill:#000000;fill-opacity:1;fill-rule:nonzero;stroke:none"
         id="path51" />
      <path
         d="m 1675.06,1861.97 c 0,8.76 -1.52,16.82 -4.55,24.2 -3,7.38 -7.17,13.63 -12.5,18.74 -5.45,5.23 -11.84,9.32 -19.18,12.29 -7.33,2.95 -15.2,4.43 -23.61,4.43 -8.53,0 -16.46,-1.51 -23.79,-4.51 -7.34,-3.01 -13.55,-6.96 -18.63,-11.84 -5.58,-5.36 -9.88,-11.7 -12.91,-19.03 -3.01,-7.34 -4.51,-15.49 -4.51,-24.46 0,-8.19 1.42,-15.92 4.25,-23.21 2.84,-7.26 6.86,-13.62 12.07,-19.06 5.23,-5.46 11.51,-9.75 18.84,-12.88 7.34,-3.12 15.56,-4.69 24.68,-4.69 9.12,0 17.37,1.59 24.75,4.77 7.41,3.17 13.71,7.49 18.92,12.94 5.21,5.48 9.2,11.84 11.99,19.11 2.79,7.28 4.18,15.02 4.18,23.2 m -21.12,-1.2 c 0,-8.34 -0.67,-15.05 -2.02,-20.14 -1.34,-5.08 -3.13,-9.7 -5.35,-13.86 -1.39,-2.71 -3.23,-5.16 -5.5,-7.36 -2.27,-2.21 -4.79,-4.07 -7.55,-5.62 -2.74,-1.51 -5.69,-2.7 -8.84,-3.55 -3.15,-0.83 -6.3,-1.25 -9.46,-1.25 -3.49,0 -6.86,0.46 -10.08,1.36 -3.21,0.9 -6.19,2.17 -8.95,3.81 -2.74,1.64 -5.19,3.58 -7.37,5.83 -2.15,2.25 -3.92,4.67 -5.32,7.26 -2.81,5.43 -4.68,10.84 -5.61,16.25 -0.93,5.42 -1.39,11.18 -1.39,17.27 0,8.35 0.78,15.41 2.35,21.15 1.59,5.77 3.2,10.28 4.84,13.53 3.03,6.11 7.32,10.83 12.87,14.16 5.55,3.32 11.83,4.98 18.84,4.98 6.99,0 13.21,-1.7 18.63,-5.1 5.45,-3.37 9.81,-8.21 13.09,-14.52 1.98,-3.74 3.61,-8.6 4.88,-14.59 1.29,-5.96 1.94,-12.5 1.94,-19.61 m -12.32,-14.12 c -0.24,2 -0.49,4.49 -0.73,7.48 -0.22,3 -0.33,6.38 -0.33,10.12 0,3.76 0.11,7.15 0.33,10.15 0.24,3.03 0.49,5.43 0.73,7.19 l -2.67,0.18 c -2.04,-6.28 -5.96,-9.42 -11.78,-9.42 h -22.84 c -2.37,0 -4.63,0.62 -6.78,1.87 -2.13,1.25 -3.79,3.76 -4.99,7.55 l -2.68,-0.18 c 0.25,-2.25 0.48,-4.77 0.7,-7.55 0.24,-2.77 0.37,-6.03 0.37,-9.79 0,-3.74 -0.13,-7.12 -0.37,-10.12 -0.22,-2.99 -0.45,-5.48 -0.7,-7.48 l 2.68,-0.19 c 1.32,3.82 3.02,6.35 5.1,7.59 2.07,1.25 4.48,1.88 7.22,1.88 h 22.29 c 2.5,0 4.78,-0.66 6.86,-1.98 2.08,-1.3 3.72,-3.79 4.92,-7.49 l 2.67,0.19"
         style="fill:#000000;fill-opacity:1;fill-rule:nonzero;stroke:none"
         id="path53" />
      <path
         d="m 1552.76,2060.72 c 109.42,-32.74 184.38,-133.42 184.38,-247.62 0,-61.18 -21.7,-120.37 -61.24,-167.05"
         style="fill:none;stroke:#000000;stroke-width:28.346;stroke-linecap:butt;stroke-linejoin:miter;stroke-miterlimit:10;stroke-dasharray:none;stroke-opacity:1"
         id="path55" />
      <path
         d="m 1668.41,2133.3 -145.11,-63.66 137.99,-77.89"
         style="fill:none;stroke:#000000;stroke-width:28.346;stroke-linecap:butt;stroke-linejoin:miter;stroke-miterlimit:10;stroke-dasharray:none;stroke-opacity:1"
         id="path57" />
    </g>
  </g>
</svg>
