<?xml version="1.0" encoding="UTF-8" standalone="no"?>
<!-- Created with Inkscape (http://www.inkscape.org/) -->

<svg
   version="1.1"
   id="svg41"
   xml:space="preserve"
   width="584"
   height="368"
   viewBox="0 0 584 368"
   sodipodi:docname="threelink.svg"
   inkscape:version="1.1 (c4e8f9e, 2021-05-24)"
   xmlns:inkscape="http://www.inkscape.org/namespaces/inkscape"
   xmlns:sodipodi="http://sodipodi.sourceforge.net/DTD/sodipodi-0.dtd"
   xmlns="http://www.w3.org/2000/svg"
   xmlns:svg="http://www.w3.org/2000/svg"><defs
     id="defs45" /><sodipodi:namedview
     id="namedview43"
     pagecolor="#ffffff"
     bordercolor="#666666"
     borderopacity="1.0"
     inkscape:pageshadow="2"
     inkscape:pageopacity="0.0"
     inkscape:pagecheckerboard="0"
     showgrid="false"
     inkscape:zoom="1.8818493"
     inkscape:cx="292"
     inkscape:cy="184.12739"
     inkscape:window-width="1312"
     inkscape:window-height="1081"
     inkscape:window-x="157"
     inkscape:window-y="97"
     inkscape:window-maximized="0"
     inkscape:current-layer="g47" /><g
     id="g47"
     inkscape:groupmode="layer"
     inkscape:label="threelink"
     transform="matrix(1.3333333,0,0,-1.3333333,0,368)"><g
       id="g49"
       transform="scale(0.1)"><path
         d="M 168.953,104.426 1537.41,417.547"
         style="fill:none;stroke:#000000;stroke-width:28.346;stroke-linecap:butt;stroke-linejoin:miter;stroke-miterlimit:10;stroke-dasharray:none;stroke-opacity:1"
         id="path51" /><path
         d="M 30.793,72.8125 C 22.8906,107.352 49.5273,149.797 84.0664,157.699 118.605,165.602 161.051,138.965 168.953,104.426 176.855,69.8867 150.219,27.4414 115.68,19.5391 81.1406,11.6367 38.6953,38.2734 30.793,72.8125"
         style="fill:#ffffff;fill-opacity:1;fill-rule:evenodd;stroke:none"
         id="path53" /><path
         d="M 30.793,72.8125 C 22.8906,107.352 49.5273,149.797 84.0664,157.699 118.605,165.602 161.051,138.965 168.953,104.426 176.855,69.8867 150.219,27.4414 115.68,19.5391 81.1406,11.6367 38.6953,38.2734 30.793,72.8125"
         style="fill:none;stroke:#000000;stroke-width:28.346;stroke-linecap:butt;stroke-linejoin:miter;stroke-miterlimit:10;stroke-dasharray:none;stroke-opacity:1"
         id="path55" /><path
         d="m 1675.57,449.16 c 7.91,-34.539 -18.73,-76.98 -53.27,-84.887 -34.54,-7.902 -76.98,18.735 -84.89,53.274 -7.9,34.539 18.74,76.984 53.28,84.887 34.54,7.902 76.98,-18.735 84.88,-53.274"
         style="fill:#ffffff;fill-opacity:1;fill-rule:evenodd;stroke:none"
         id="path57" /><path
         d="m 1675.57,449.16 c 7.91,-34.539 -18.73,-76.98 -53.27,-84.887 -34.54,-7.902 -76.98,18.735 -84.89,53.274 -7.9,34.539 18.74,76.984 53.28,84.887 34.54,7.902 76.98,-18.735 84.88,-53.274"
         style="fill:none;stroke:#000000;stroke-width:28.346;stroke-linecap:butt;stroke-linejoin:miter;stroke-miterlimit:10;stroke-dasharray:none;stroke-opacity:1"
         id="path59" /><path
         d="m 1689.39,466.496 784.22,612.664"
         style="fill:none;stroke:#000000;stroke-width:28.346;stroke-linecap:butt;stroke-linejoin:miter;stroke-miterlimit:10;stroke-dasharray:none;stroke-opacity:1"
         id="path61" /><path
         d="m 2585.29,1166.42 c 21.82,-27.92 15.71,-77.66 -12.21,-99.47 -27.92,-21.82 -77.66,-15.71 -99.47,12.21 -21.82,27.93 -15.71,77.66 12.21,99.48 27.93,21.81 77.66,15.7 99.47,-12.22"
         style="fill:#ffffff;fill-opacity:1;fill-rule:evenodd;stroke:none"
         id="path63" /><path
         d="m 2585.29,1166.42 c 21.82,-27.92 15.71,-77.66 -12.21,-99.47 -27.92,-21.82 -77.66,-15.71 -99.47,12.21 -21.82,27.93 -15.71,77.66 12.21,99.48 27.93,21.81 77.66,15.7 99.47,-12.22"
         style="fill:none;stroke:#000000;stroke-width:28.346;stroke-linecap:butt;stroke-linejoin:miter;stroke-miterlimit:10;stroke-dasharray:none;stroke-opacity:1"
         id="path65" /><path
         d="m 2582.29,1189.32 415.07,1157.16"
         style="fill:none;stroke:#000000;stroke-width:28.346;stroke-linecap:butt;stroke-linejoin:miter;stroke-miterlimit:10;stroke-dasharray:none;stroke-opacity:1"
         id="path67" /><path
         d="m 3064.07,2322.56 -18.86,157.33 -114.55,-109.48"
         style="fill:#000000;fill-opacity:1;fill-rule:evenodd;stroke:none"
         id="path69" /><path
         d="m 3064.07,2322.56 -18.86,157.33 -114.55,-109.48 z"
         style="fill:none;stroke:#000000;stroke-width:28.346;stroke-linecap:butt;stroke-linejoin:miter;stroke-miterlimit:10;stroke-dasharray:none;stroke-opacity:1"
         id="path71" /><path
         d="M 144.535,69.6523 3082.09,83.3789"
         style="fill:none;stroke:#000000;stroke-width:28.346;stroke-linecap:butt;stroke-linejoin:miter;stroke-miterlimit:10;stroke-dasharray:56.692;stroke-dashoffset:0;stroke-opacity:1"
         id="path73" /><path
         d="m 3145.86,83.6758 -84.83,-42.918 21.06,42.6211 -21.46,42.4181"
         style="fill:#000000;fill-opacity:1;fill-rule:evenodd;stroke:none"
         id="path75" /><path
         d="m 3145.86,83.6758 -84.83,-42.918 21.06,42.6211 -21.46,42.4181 z"
         style="fill:none;stroke:#000000;stroke-width:28.346;stroke-linecap:butt;stroke-linejoin:miter;stroke-miterlimit:10;stroke-dasharray:none;stroke-opacity:1"
         id="path77" /><path
         d="M 1669.55,454.645 4247.21,1109.13"
         style="fill:none;stroke:#000000;stroke-width:28.346;stroke-linecap:butt;stroke-linejoin:miter;stroke-miterlimit:10;stroke-dasharray:56.692;stroke-dashoffset:0;stroke-opacity:1"
         id="path79" /><path
         d="m 4309.03,1124.83 -71.96,-62.14 10.14,46.44 -31.07,35.98"
         style="fill:#000000;fill-opacity:1;fill-rule:evenodd;stroke:none"
         id="path81" /><path
         d="m 4309.03,1124.83 -71.96,-62.14 10.14,46.44 -31.07,35.98 z"
         style="fill:none;stroke:#000000;stroke-width:28.346;stroke-linecap:butt;stroke-linejoin:miter;stroke-miterlimit:10;stroke-dasharray:none;stroke-opacity:1"
         id="path83" /><path
         d="M 2590.79,1191.64 4220.71,2407.79"
         style="fill:none;stroke:#000000;stroke-width:28.346;stroke-linecap:butt;stroke-linejoin:miter;stroke-miterlimit:10;stroke-dasharray:56.692;stroke-dashoffset:0;stroke-opacity:1"
         id="path85" /><path
         d="m 4271.82,2445.94 -42.73,-84.94 -8.38,46.79 -42.47,21.37"
         style="fill:#000000;fill-opacity:1;fill-rule:evenodd;stroke:none"
         id="path87" /><path
         d="m 4271.82,2445.94 -42.73,-84.94 -8.38,46.79 -42.47,21.37 z"
         style="fill:none;stroke:#000000;stroke-width:28.346;stroke-linecap:butt;stroke-linejoin:miter;stroke-miterlimit:10;stroke-dasharray:none;stroke-opacity:1"
         id="path89" /><path
         d="m 2362.92,489.59 c 23.01,-47.231 34.97,-99.09 34.97,-151.633 0,-104.031 -46.78,-202.555 -127.41,-268.3047"
         style="fill:none;stroke:#000000;stroke-width:28.346;stroke-linecap:butt;stroke-linejoin:miter;stroke-miterlimit:10;stroke-dasharray:none;stroke-opacity:1"
         id="path91" /><path
         d="m 2308.1,572.727 152.53,-42.961 -73.9,-28.575 -21.48,-76.261"
         style="fill:#000000;fill-opacity:1;fill-rule:evenodd;stroke:none"
         id="path93" /><path
         d="m 2308.1,572.727 152.53,-42.961 -73.9,-28.575 -21.48,-76.261 z"
         style="fill:none;stroke:#000000;stroke-width:28.346;stroke-linecap:butt;stroke-linejoin:miter;stroke-miterlimit:10;stroke-dasharray:none;stroke-opacity:1"
         id="path95" /><path
         d="m 2953.68,1268.51 c 94.89,-74.12 150.37,-187.83 150.37,-308.244 0,-47.661 -8.71,-94.922 -25.7,-139.446"
         style="fill:none;stroke:#000000;stroke-width:28.346;stroke-linecap:butt;stroke-linejoin:miter;stroke-miterlimit:10;stroke-dasharray:none;stroke-opacity:1"
         id="path97" /><path
         d="m 2867.45,1320.96 156.91,22.08 -56.14,-55.91 11.04,-78.45"
         style="fill:#000000;fill-opacity:1;fill-rule:evenodd;stroke:none"
         id="path99" /><path
         d="m 2867.45,1320.96 156.91,22.08 -56.14,-55.91 11.04,-78.45 z"
         style="fill:none;stroke:#000000;stroke-width:28.346;stroke-linecap:butt;stroke-linejoin:miter;stroke-miterlimit:10;stroke-dasharray:none;stroke-opacity:1"
         id="path101" /><path
         d="m 2992.05,1991.77 c 148.92,-5.31 271.46,-118.98 287.92,-267.09"
         style="fill:none;stroke:#000000;stroke-width:28.346;stroke-linecap:butt;stroke-linejoin:miter;stroke-miterlimit:10;stroke-dasharray:none;stroke-opacity:1"
         id="path103" /><path
         d="m 2895,1981.02 103.56,119.94 -5.44,-79.04 59.97,-51.78"
         style="fill:#000000;fill-opacity:1;fill-rule:evenodd;stroke:none"
         id="path105" /><path
         d="m 2895,1981.02 103.56,119.94 -5.44,-79.04 59.97,-51.78 z"
         style="fill:none;stroke:#000000;stroke-width:28.346;stroke-linecap:butt;stroke-linejoin:miter;stroke-miterlimit:10;stroke-dasharray:none;stroke-opacity:1"
         id="path107" /><path
         d="m 2924.42,2721.42 c -7.95,-14.01 -13.85,-27.87 -17.71,-41.58 -3.84,-13.69 -5.76,-27.57 -5.76,-41.66 0,-14.05 1.94,-27.98 5.83,-41.79 3.89,-13.79 9.77,-27.65 17.64,-41.59 h -14.23 c -9.36,14.31 -16.38,28.36 -21.05,42.17 -4.64,13.84 -6.96,27.58 -6.96,41.21 0,13.6 2.31,27.27 6.93,41.03 4.62,13.77 11.64,27.83 21.08,42.21 h 14.23"
         style="fill:#000000;fill-opacity:1;fill-rule:nonzero;stroke:none"
         id="path109" /><path
         d="m 3041.7,2681.52 -36.99,-50.23 39.34,-53.02 h -19.98 l -30.03,40.55 -29.15,-40.55 h -19.4 l 38.68,54.01 -36.33,49.24 h 19.8 l 27.13,-36.77 27.13,36.77 h 19.8"
         style="fill:#000000;fill-opacity:1;fill-rule:nonzero;stroke:none"
         id="path111" /><path
         d="m 3075.19,2601.74 h 18.77 v -15.58 l -14.07,-29.01 h -11.74 l 7.04,29.01 v 15.58"
         style="fill:#000000;fill-opacity:1;fill-rule:nonzero;stroke:none"
         id="path113" /><path
         d="m 3175.02,2568.04 c -4.82,-12.27 -9.51,-20.27 -14.08,-24.01 -4.55,-3.77 -10.65,-5.65 -18.3,-5.65 h -13.6 v 14.08 h 10.01 c 4.69,0 8.32,1.13 10.89,3.41 2.59,2.27 5.46,7.65 8.61,16.13 l 3.05,7.78 -41.95,101.74 h 18.08 l 32.41,-80.77 32.38,80.77 h 18.04 l -45.54,-113.48"
         style="fill:#000000;fill-opacity:1;fill-rule:nonzero;stroke:none"
         id="path115" /><path
         d="m 3242.31,2721.42 h 14.23 c 9.36,-14.38 16.37,-28.44 21.01,-42.21 4.67,-13.76 7,-27.43 7,-41.03 0,-13.63 -2.33,-27.37 -7,-41.21 -4.64,-13.81 -11.65,-27.86 -21.01,-42.17 h -14.23 c 7.87,13.94 13.75,27.8 17.64,41.59 3.89,13.81 5.83,27.74 5.83,41.79 0,14.09 -1.94,27.97 -5.83,41.66 -3.89,13.71 -9.77,27.57 -17.64,41.58"
         style="fill:#000000;fill-opacity:1;fill-rule:nonzero;stroke:none"
         id="path117" /><path
         d="m 2652.04,346.906 c 0,11.489 -2.02,22.086 -6.05,31.789 -4.01,9.727 -9.57,17.942 -16.69,24.641 -7.26,6.867 -15.78,12.246 -25.59,16.133 -9.78,3.886 -20.26,5.828 -31.46,5.828 -11.36,0 -21.95,-1.981 -31.75,-5.938 -9.78,-3.961 -18.05,-9.144 -24.82,-15.546 -7.43,-7.016 -13.17,-15.34 -17.2,-24.973 -4.01,-9.629 -6.02,-20.348 -6.02,-32.156 0,-10.754 1.9,-20.911 5.69,-30.469 3.79,-9.559 9.15,-17.918 16.1,-25.078 6.94,-7.164 15.3,-12.797 25.07,-16.903 9.81,-4.109 20.78,-6.16 32.93,-6.16 12.15,0 23.15,2.09 33,6.27 9.88,4.179 18.29,9.851 25.23,17.011 6.97,7.165 12.29,15.524 15.98,25.083 3.72,9.554 5.58,19.71 5.58,30.468 m -28.16,-1.539 c 0,-10.953 -0.91,-19.765 -2.72,-26.437 -1.78,-6.649 -4.15,-12.711 -7.11,-18.188 -1.85,-3.543 -4.31,-6.758 -7.37,-9.644 -3.03,-2.883 -6.38,-5.328 -10.04,-7.332 -3.65,-1.981 -7.57,-3.532 -11.78,-4.657 -4.2,-1.101 -8.4,-1.648 -12.61,-1.648 -4.67,0 -9.15,0.586 -13.45,1.758 -4.28,1.199 -8.25,2.859 -11.92,4.988 -3.64,2.148 -6.91,4.703 -9.79,7.664 -2.89,2.957 -5.26,6.145 -7.11,9.567 -3.75,7.089 -6.24,14.179 -7.48,21.269 -1.25,7.113 -1.87,14.664 -1.87,22.66 0,10.926 1.05,20.164 3.15,27.719 2.1,7.551 4.24,13.469 6.42,17.746 4.05,7.992 9.77,14.164 17.16,18.516 7.4,4.375 15.77,6.562 25.11,6.562 9.37,0 17.66,-2.222 24.9,-6.672 7.24,-4.425 13.04,-10.781 17.42,-19.066 2.64,-4.891 4.81,-11.258 6.52,-19.102 1.71,-7.824 2.57,-16.39 2.57,-25.703 m -18.08,-19.105 c -0.32,2.664 -0.63,5.816 -0.95,9.461 -0.3,3.64 -0.44,7.332 -0.44,11.074 0,3.762 0.14,7.504 0.44,11.219 0.32,3.714 0.63,6.746 0.95,9.093 l -3.52,0.254 c -2.66,-8.308 -7.82,-12.465 -15.47,-12.465 h -30.03 c -3.13,0 -6.11,0.821 -8.95,2.457 -2.81,1.661 -5,5 -6.56,10.008 l -3.52,-0.254 c 0.32,-2.957 0.63,-6.148 0.95,-9.57 0.32,-3.398 0.48,-6.98 0.48,-10.742 0,-3.742 -0.16,-7.434 -0.48,-11.074 -0.32,-3.645 -0.63,-6.797 -0.95,-9.461 l 3.52,-0.258 c 1.73,5.012 3.97,8.336 6.71,9.976 2.73,1.661 5.9,2.493 9.5,2.493 h 29.33 c 3.28,0 6.28,-0.868 9.02,-2.606 2.74,-1.711 4.89,-4.996 6.45,-9.863 l 3.52,0.258"
         style="fill:#000000;fill-opacity:1;fill-rule:nonzero;stroke:none"
         id="path119" /><path
         d="m 3328.09,1183.11 c 0,11.49 -2.02,22.09 -6.05,31.79 -4.01,9.73 -9.57,17.94 -16.68,24.64 -7.26,6.87 -15.79,12.25 -25.59,16.14 -9.79,3.88 -20.27,5.82 -31.47,5.82 -11.36,0 -21.95,-1.98 -31.75,-5.93 -9.78,-3.96 -18.05,-9.15 -24.82,-15.55 -7.43,-7.02 -13.16,-15.34 -17.2,-24.97 -4.01,-9.63 -6.01,-20.35 -6.01,-32.16 0,-10.75 1.89,-20.91 5.68,-30.47 3.79,-9.56 9.16,-17.92 16.1,-25.08 6.94,-7.16 15.3,-12.79 25.08,-16.9 9.8,-4.11 20.78,-6.16 32.92,-6.16 12.15,0 23.15,2.09 33,6.27 9.88,4.18 18.29,9.85 25.23,17.01 6.97,7.17 12.29,15.53 15.99,25.08 3.71,9.56 5.57,19.72 5.57,30.47 m -28.16,-1.54 c 0,-10.95 -0.9,-19.76 -2.71,-26.43 -1.79,-6.65 -4.16,-12.71 -7.11,-18.19 -1.86,-3.54 -4.32,-6.76 -7.38,-9.65 -3.03,-2.88 -6.37,-5.32 -10.04,-7.33 -3.64,-1.98 -7.57,-3.53 -11.77,-4.65 -4.21,-1.11 -8.41,-1.65 -12.62,-1.65 -4.66,0 -9.15,0.58 -13.45,1.76 -4.28,1.2 -8.25,2.86 -11.92,4.98 -3.64,2.15 -6.9,4.71 -9.79,7.67 -2.88,2.96 -5.25,6.14 -7.11,9.56 -3.74,7.09 -6.24,14.18 -7.48,21.27 -1.25,7.12 -1.87,14.67 -1.87,22.66 0,10.93 1.05,20.17 3.15,27.72 2.1,7.55 4.24,13.47 6.42,17.75 4.05,7.99 9.78,14.16 17.16,18.51 7.4,4.38 15.78,6.57 25.11,6.57 9.37,0 17.66,-2.23 24.9,-6.67 7.24,-4.43 13.04,-10.79 17.42,-19.07 2.64,-4.89 4.81,-11.26 6.52,-19.1 1.71,-7.83 2.57,-16.39 2.57,-25.71 m -18.07,-19.1 c -0.32,2.66 -0.64,5.82 -0.96,9.46 -0.29,3.64 -0.44,7.33 -0.44,11.07 0,3.77 0.15,7.51 0.44,11.22 0.32,3.72 0.64,6.75 0.96,9.1 l -3.53,0.25 c -2.66,-8.31 -7.82,-12.46 -15.47,-12.46 h -30.03 c -3.13,0 -6.11,0.82 -8.95,2.45 -2.81,1.66 -4.99,5 -6.56,10.01 l -3.52,-0.25 c 0.32,-2.96 0.64,-6.15 0.95,-9.57 0.32,-3.4 0.48,-6.98 0.48,-10.75 0,-3.74 -0.16,-7.43 -0.48,-11.07 -0.31,-3.64 -0.63,-6.8 -0.95,-9.46 l 3.52,-0.26 c 1.74,5.01 3.97,8.34 6.71,9.98 2.74,1.66 5.9,2.49 9.5,2.49 h 29.33 c 3.28,0 6.28,-0.87 9.02,-2.61 2.74,-1.71 4.89,-4.99 6.45,-9.86 l 3.53,0.26"
         style="fill:#000000;fill-opacity:1;fill-rule:nonzero;stroke:none"
         id="path121" /><path
         d="m 3352.18,2083.1 c 0,11.49 -2.01,22.08 -6.05,31.79 -4,9.73 -9.57,17.94 -16.68,24.64 -7.26,6.86 -15.79,12.24 -25.59,16.13 -9.78,3.89 -20.27,5.83 -31.46,5.83 -11.37,0 -21.95,-1.98 -31.76,-5.94 -9.77,-3.96 -18.05,-9.14 -24.82,-15.55 -7.43,-7.01 -13.16,-15.34 -17.19,-24.96 -4.01,-9.64 -6.02,-20.36 -6.02,-32.16 0,-10.76 1.9,-20.92 5.69,-30.47 3.79,-9.56 9.15,-17.92 16.09,-25.08 6.94,-7.16 15.31,-12.8 25.08,-16.9 9.8,-4.11 20.78,-6.16 32.93,-6.16 12.15,0 23.15,2.09 33,6.27 9.87,4.17 18.28,9.85 25.23,17.01 6.96,7.16 12.29,15.52 15.98,25.08 3.71,9.56 5.57,19.71 5.57,30.47 m -28.16,-1.54 c 0,-10.95 -0.9,-19.76 -2.71,-26.44 -1.78,-6.65 -4.15,-12.71 -7.11,-18.19 -1.86,-3.54 -4.32,-6.75 -7.37,-9.64 -3.03,-2.88 -6.38,-5.33 -10.05,-7.33 -3.64,-1.98 -7.57,-3.53 -11.77,-4.66 -4.2,-1.1 -8.41,-1.65 -12.61,-1.65 -4.67,0 -9.16,0.59 -13.46,1.76 -4.28,1.2 -8.25,2.86 -11.92,4.99 -3.64,2.15 -6.9,4.71 -9.79,7.66 -2.88,2.96 -5.25,6.15 -7.11,9.57 -3.74,7.09 -6.23,14.18 -7.48,21.27 -1.25,7.11 -1.87,14.67 -1.87,22.66 0,10.92 1.05,20.16 3.16,27.72 2.1,7.55 4.24,13.47 6.41,17.74 4.06,8 9.78,14.17 17.16,18.52 7.41,4.38 15.78,6.57 25.12,6.57 9.36,0 17.66,-2.23 24.9,-6.68 7.23,-4.42 13.03,-10.78 17.41,-19.07 2.64,-4.88 4.82,-11.25 6.53,-19.1 1.71,-7.82 2.56,-16.39 2.56,-25.7 m -18.07,-19.11 c -0.32,2.67 -0.64,5.82 -0.95,9.46 -0.3,3.65 -0.45,7.34 -0.45,11.08 0,3.76 0.15,7.5 0.45,11.22 0.31,3.71 0.63,6.74 0.95,9.09 l -3.52,0.26 c -2.67,-8.31 -7.82,-12.47 -15.48,-12.47 h -30.02 c -3.13,0 -6.12,0.82 -8.95,2.46 -2.81,1.66 -5,5 -6.57,10.01 l -3.52,-0.26 c 0.32,-2.96 0.64,-6.15 0.96,-9.57 0.32,-3.4 0.47,-6.98 0.47,-10.74 0,-3.74 -0.15,-7.43 -0.47,-11.08 -0.32,-3.64 -0.64,-6.79 -0.96,-9.46 l 3.52,-0.25 c 1.74,5.01 3.98,8.34 6.72,9.97 2.73,1.66 5.9,2.49 9.49,2.49 h 29.33 c 3.28,0 6.29,-0.86 9.02,-2.6 2.74,-1.71 4.89,-5 6.46,-9.86 l 3.52,0.25"
         style="fill:#000000;fill-opacity:1;fill-rule:nonzero;stroke:none"
         id="path123" /><path
         d="m 2676.62,239.633 h 30.51 v 107.945 l -32.85,-7.039 v 14.082 l 32.96,7.039 h 18.66 V 239.633 h 30.51 v -14.078 h -79.79 v 14.078"
         style="fill:#000000;fill-opacity:1;fill-rule:nonzero;stroke:none"
         id="path125" /><path
         d="m 3369.36,1075.84 h 65.74 v -14.08 h -87.56 v 14.08 c 7.09,7.41 16.73,17.36 28.93,29.85 12.22,12.51 19.91,20.57 23.06,24.16 5.97,6.79 10.13,12.54 12.51,17.23 2.37,4.72 3.55,9.35 3.55,13.9 0,7.43 -2.6,13.48 -7.81,18.15 -5.21,4.67 -11.99,7 -20.35,7 -5.94,0 -12.21,-1.17 -18.81,-3.52 -6.57,-2.32 -13.6,-5.84 -21.08,-10.56 v 18.78 c 7.6,3.1 14.69,5.44 21.26,7 6.61,1.59 12.66,2.38 18.16,2.38 14.42,0 25.92,-3.57 34.5,-10.7 8.6,-7.12 12.91,-16.63 12.91,-28.53 0,-5.67 -1.08,-11.03 -3.23,-16.1 -2.15,-5.06 -6.05,-11.03 -11.7,-17.93 -1.56,-1.75 -6.51,-6.89 -14.85,-15.4 -8.31,-8.5 -20.05,-20.41 -35.23,-35.71"
         style="fill:#000000;fill-opacity:1;fill-rule:nonzero;stroke:none"
         id="path127" /><path
         d="m 3435.36,2056.34 c 9.31,-1.88 16.59,-5.79 21.82,-11.73 5.25,-5.92 7.88,-13.23 7.88,-21.93 0,-13.37 -4.6,-23.72 -13.79,-31.06 -9.19,-7.31 -22.25,-10.96 -39.2,-10.96 -5.67,0 -11.52,0.59 -17.56,1.76 -6.01,1.17 -12.22,2.93 -18.62,5.28 v 18.77 c 5.03,-3.86 10.54,-6.78 16.53,-8.76 6.01,-1.98 12.3,-2.97 18.85,-2.97 11.39,0 20.07,2.35 26.03,7.04 5.99,4.72 8.99,11.55 8.99,20.5 0,8.28 -2.82,14.76 -8.44,19.43 -5.62,4.67 -13.44,7 -23.46,7 h -15.04 v 14.08 h 15.73 c 8.58,0 15.15,1.89 19.69,5.65 4.55,3.79 6.82,9.23 6.82,16.31 0,7.29 -2.34,12.88 -7.04,16.76 -4.69,3.91 -11.41,5.87 -20.16,5.87 -4.84,0 -10.03,-0.77 -15.55,-2.31 -5.53,-1.52 -11.61,-3.87 -18.26,-7.08 v 16.43 c 6.77,2.35 13.11,4.1 19.03,5.28 5.91,1.17 11.5,1.76 16.75,1.76 13.55,0 24.27,-3.18 32.16,-9.53 7.9,-6.34 11.84,-14.9 11.84,-25.71 0,-7.53 -2.17,-13.9 -6.52,-19.1 -4.33,-5.18 -10.49,-8.78 -18.48,-10.78"
         style="fill:#000000;fill-opacity:1;fill-rule:nonzero;stroke:none"
         id="path129" /></g></g></svg>
