<?xml version="1.0" encoding="UTF-8" standalone="no"?>
<!-- Created with Inkscape (http://www.inkscape.org/) -->

<svg
   width="205.01364mm"
   height="179.83847mm"
   viewBox="0 0 205.01364 179.83847"
   version="1.1"
   id="svg5"
   inkscape:version="1.1 (c4e8f9e, 2021-05-24)"
   sodipodi:docname="twolink3.svg"
   xmlns:inkscape="http://www.inkscape.org/namespaces/inkscape"
   xmlns:sodipodi="http://sodipodi.sourceforge.net/DTD/sodipodi-0.dtd"
   xmlns="http://www.w3.org/2000/svg"
   xmlns:svg="http://www.w3.org/2000/svg">
  <sodipodi:namedview
     id="namedview7"
     pagecolor="#ffffff"
     bordercolor="#666666"
     borderopacity="1.0"
     inkscape:pageshadow="2"
     inkscape:pageopacity="0.0"
     inkscape:pagecheckerboard="0"
     inkscape:document-units="mm"
     showgrid="false"
     fit-margin-top="0"
     fit-margin-left="0"
     fit-margin-right="0"
     fit-margin-bottom="0"
     inkscape:zoom="0.77771465"
     inkscape:cx="436.53543"
     inkscape:cy="445.53616"
     inkscape:window-width="1312"
     inkscape:window-height="1081"
     inkscape:window-x="0"
     inkscape:window-y="25"
     inkscape:window-maximized="0"
     inkscape:current-layer="layer1" />
  <defs
     id="defs2" />
  <g
     inkscape:label="Layer 1"
     inkscape:groupmode="layer"
     id="layer1"
     transform="translate(10.651154,-34.596225)">
    <g
       id="g17"
       transform="matrix(0.03527778,0,0,-0.03527778,-11.401131,215.18812)">
      <path
         d="M 425.621,4603.37 446.02,116.43"
         style="fill:none;stroke:#000000;stroke-width:42.519;stroke-linecap:butt;stroke-linejoin:miter;stroke-miterlimit:10;stroke-dasharray:none;stroke-opacity:1"
         id="path19" />
      <path
         d="M 532.668,4438.8 425.406,4650.91 320.074,4437.83"
         style="fill:none;stroke:#000000;stroke-width:42.519;stroke-linecap:butt;stroke-linejoin:miter;stroke-miterlimit:10;stroke-dasharray:none;stroke-opacity:1"
         id="path21" />
      <path
         d="M 338.973,281.004 446.234,68.8945 551.562,281.969"
         style="fill:none;stroke:#000000;stroke-width:42.519;stroke-linecap:butt;stroke-linejoin:miter;stroke-miterlimit:10;stroke-dasharray:none;stroke-opacity:1"
         id="path23" />
      <path
         d="M 116.336,467.805 H 5326.1"
         style="fill:none;stroke:#000000;stroke-width:42.519;stroke-linecap:butt;stroke-linejoin:miter;stroke-miterlimit:10;stroke-dasharray:none;stroke-opacity:1"
         id="path25" />
      <path
         d="M 281.391,574.102 68.7969,467.805 281.391,361.508"
         style="fill:none;stroke:#000000;stroke-width:42.519;stroke-linecap:butt;stroke-linejoin:miter;stroke-miterlimit:10;stroke-dasharray:none;stroke-opacity:1"
         id="path27" />
      <path
         d="m 5161.04,361.508 212.6,106.297 -212.6,106.297"
         style="fill:none;stroke:#000000;stroke-width:42.519;stroke-linecap:butt;stroke-linejoin:miter;stroke-miterlimit:10;stroke-dasharray:none;stroke-opacity:1"
         id="path29" />
      <path
         d="M 425.191,489.066 3847.97,1828.41"
         style="fill:none;stroke:#0000ff;stroke-width:42.519;stroke-linecap:butt;stroke-linejoin:miter;stroke-miterlimit:10;stroke-dasharray:none;stroke-opacity:1"
         id="path31" />
      <path
         d="m 3869.23,1828.41 786.6,2508.63"
         style="fill:none;stroke:#0000ff;stroke-width:42.519;stroke-linecap:butt;stroke-linejoin:miter;stroke-miterlimit:10;stroke-dasharray:none;stroke-opacity:1"
         id="path33" />
      <path
         d="M 425.191,489.066 4613.31,4273.26"
         style="fill:none;stroke:#ff0000;stroke-width:42.519;stroke-linecap:butt;stroke-linejoin:miter;stroke-miterlimit:10;stroke-dasharray:none;stroke-opacity:1"
         id="path35" />
      <path
         d="m 3065.54,1881.07 c -18.99,0 -32.16,-2.18 -39.49,-6.54 -7.34,-4.37 -11,-11.83 -11,-22.39 0,-8.39 2.75,-15.07 8.25,-20.02 5.5,-4.91 12.98,-7.37 22.44,-7.37 13.05,0 23.52,4.63 31.4,13.86 7.89,9.28 11.83,21.6 11.83,36.96 v 5.5 h -23.43 m 48.07,9.3 v -83.22 h -24.64 v 21.12 c -5.43,-8.43 -12.19,-14.65 -20.29,-18.64 -8.11,-4 -18.03,-6 -29.76,-6 -14.85,0 -26.66,4.15 -35.42,12.43 -8.73,8.33 -13.09,19.46 -13.09,33.39 0,16.28 5.48,28.54 16.45,36.79 10.96,8.29 27.33,12.43 49.11,12.43 h 33 v 2.64 c 0,11.48 -3.61,20.35 -10.84,26.62 -7.18,6.31 -17.28,9.46 -30.3,9.46 -8.29,0 -16.35,-0.88 -24.2,-2.64 -7.85,-1.76 -15.4,-4.4 -22.66,-7.92 v 21.12 c 8.76,3.52 17.27,6.16 25.52,7.92 8.29,1.76 16.33,2.64 24.14,2.64 21.12,0 36.89,-5.64 47.3,-16.94 10.45,-11.25 15.68,-28.32 15.68,-51.2"
         style="fill:#000000;fill-opacity:1;fill-rule:nonzero;stroke:none"
         id="path37" />
      <path
         d="m 3937.18,2944.05 c -18.99,0 -32.16,-2.18 -39.49,-6.55 -7.33,-4.36 -11,-11.82 -11,-22.38 0,-8.4 2.75,-15.07 8.25,-20.02 5.5,-4.91 12.98,-7.37 22.44,-7.37 13.05,0 23.52,4.62 31.41,13.86 7.88,9.28 11.82,21.59 11.82,36.96 v 5.5 h -23.43 m 48.07,9.29 v -83.21 h -24.64 v 21.12 c -5.43,-8.43 -12.19,-14.65 -20.3,-18.64 -8.1,-4 -18.02,-6 -29.75,-6 -14.85,0 -26.66,4.14 -35.42,12.43 -8.73,8.32 -13.09,19.45 -13.09,33.39 0,16.27 5.48,28.54 16.45,36.79 10.96,8.28 27.33,12.43 49.11,12.43 h 33 v 2.64 c 0,11.48 -3.61,20.35 -10.84,26.62 -7.18,6.3 -17.29,9.46 -30.3,9.46 -8.29,0 -16.35,-0.88 -24.2,-2.64 -7.85,-1.76 -15.4,-4.4 -22.66,-7.92 v 21.12 c 8.77,3.52 17.27,6.16 25.52,7.92 8.29,1.76 16.33,2.64 24.14,2.64 21.12,0 36.89,-5.65 47.3,-16.94 10.45,-11.26 15.68,-28.33 15.68,-51.21"
         style="fill:#000000;fill-opacity:1;fill-rule:nonzero;stroke:none"
         id="path39" />
      <path
         d="m 3181.61,1721.98 h 42.23 v 151.36 l -45.75,-10.57 v 21.12 l 47.18,10.56 H 3252 v -172.47 h 42.25 v -21.12 h -112.64 v 21.12"
         style="fill:#000000;fill-opacity:1;fill-rule:nonzero;stroke:none"
         id="path41" />
      <path
         d="m 4027.12,2742.43 h 93.77 v -21.12 h -124.24 v 21.12 c 9.9,10.41 23.37,24.39 40.42,41.91 17.05,17.57 27.78,28.87 32.18,33.94 8.32,9.53 14.13,17.6 17.43,24.2 3.34,6.63 5.01,13.14 5.01,19.52 0,10.41 -3.65,18.9 -10.95,25.46 -7.26,6.57 -16.72,9.85 -28.38,9.85 -8.29,0 -17.03,-1.76 -26.24,-5.28 -9.2,-3.48 -19.02,-8.76 -29.47,-15.84 v 28.16 c 10.78,4.66 20.84,8.16 30.19,10.51 9.35,2.38 17.91,3.57 25.69,3.57 20.49,0 36.83,-5.04 49,-15.13 12.21,-10.08 18.31,-23.55 18.31,-40.42 0,-7.99 -1.54,-15.58 -4.61,-22.77 -3.05,-7.15 -8.6,-15.58 -16.67,-25.3 -2.2,-2.53 -9.26,-9.83 -21.17,-21.89 -11.88,-12.03 -28.64,-28.85 -50.27,-50.49"
         style="fill:#000000;fill-opacity:1;fill-rule:nonzero;stroke:none"
         id="path43" />
      <path
         d="m 3467.84,1590.57 c 187.49,-208.33 291.23,-478.68 291.23,-758.945 0,-123.727 -20.24,-246.629 -59.92,-363.82"
         style="fill:none;stroke:#00ff00;stroke-width:42.519;stroke-linecap:butt;stroke-linejoin:miter;stroke-miterlimit:10;stroke-dasharray:none;stroke-opacity:1"
         id="path45" />
      <path
         d="m 3663.87,1557.64 -227.71,68.14 82.12,-223.05"
         style="fill:none;stroke:#00ff00;stroke-width:42.519;stroke-linecap:butt;stroke-linejoin:miter;stroke-miterlimit:10;stroke-dasharray:none;stroke-opacity:1"
         id="path47" />
      <path
         d="m 1463.38,1228.46 c 162.49,-111.99 259.52,-296.726 259.52,-494.069 0,-76.778 -14.73,-152.844 -43.4,-224.067"
         style="fill:none;stroke:#00ff00;stroke-width:42.519;stroke-linecap:butt;stroke-linejoin:miter;stroke-miterlimit:10;stroke-dasharray:none;stroke-opacity:1"
         id="path49" />
      <path
         d="m 1662.4,1259.26 -237.65,-4.12 145.88,-187.65"
         style="fill:none;stroke:#00ff00;stroke-width:42.519;stroke-linecap:butt;stroke-linejoin:miter;stroke-miterlimit:10;stroke-dasharray:none;stroke-opacity:1"
         id="path51" />
      <path
         d="m 2099.8,1926.79 c 216.06,-151.9 357.06,-388.77 387.56,-651.12"
         style="fill:none;stroke:#00ff00;stroke-width:42.519;stroke-linecap:butt;stroke-linejoin:miter;stroke-miterlimit:10;stroke-dasharray:none;stroke-opacity:1"
         id="path53" />
      <path
         d="M 2298.55,1942.86 2061.13,1954 2194.67,1757.37"
         style="fill:none;stroke:#00ff00;stroke-width:42.519;stroke-linecap:butt;stroke-linejoin:miter;stroke-miterlimit:10;stroke-dasharray:none;stroke-opacity:1"
         id="path55" />
      <path
         d="m 4994.3,3094.68 c 0,17.23 -3.02,33.12 -9.07,47.68 -6.01,14.59 -14.35,26.91 -25.02,36.96 -10.89,10.3 -23.69,18.37 -38.39,24.2 -14.67,5.83 -30.4,8.75 -47.19,8.75 -17.05,0 -32.93,-2.98 -47.63,-8.91 -14.67,-5.95 -27.08,-13.72 -37.24,-23.32 -11.14,-10.53 -19.74,-23.01 -25.79,-37.46 -6.02,-14.45 -9.02,-30.53 -9.02,-48.24 0,-16.13 2.84,-31.36 8.52,-45.7 5.69,-14.34 13.73,-26.87 24.15,-37.62 10.41,-10.74 22.95,-19.19 37.62,-25.35 14.7,-6.16 31.16,-9.24 49.39,-9.24 18.22,0 34.72,3.13 49.49,9.4 14.82,6.27 27.43,14.78 37.84,25.52 10.46,10.74 18.45,23.28 23.99,37.62 5.57,14.34 8.35,29.57 8.35,45.71 m -42.23,-2.31 c 0,-16.43 -1.36,-29.65 -4.07,-39.66 -2.68,-9.97 -6.24,-19.07 -10.67,-27.28 -2.79,-5.32 -6.47,-10.14 -11.06,-14.47 -4.54,-4.32 -9.57,-7.99 -15.07,-11 -5.46,-2.96 -11.34,-5.29 -17.65,-6.98 -6.31,-1.65 -12.62,-2.47 -18.92,-2.47 -7.01,0 -13.74,0.88 -20.19,2.63 -6.41,1.8 -12.37,4.3 -17.87,7.48 -5.46,3.23 -10.36,7.06 -14.69,11.5 -4.33,4.44 -7.88,9.22 -10.67,14.36 -5.61,10.63 -9.35,21.26 -11.22,31.9 -1.87,10.67 -2.8,22 -2.8,33.99 0,16.38 1.58,30.24 4.73,41.58 3.15,11.32 6.36,20.2 9.62,26.62 6.09,11.98 14.67,21.24 25.74,27.77 11.11,6.56 23.67,9.84 37.68,9.84 14.04,0 26.49,-3.33 37.34,-10 10.86,-6.64 19.56,-16.18 26.13,-28.61 3.96,-7.33 7.22,-16.88 9.78,-28.65 2.57,-11.73 3.86,-24.58 3.86,-38.55 m -27.12,-28.66 c -0.47,4 -0.95,8.73 -1.43,14.19 -0.44,5.46 -0.66,11 -0.66,16.61 0,5.65 0.22,11.26 0.66,16.83 0.48,5.57 0.96,10.12 1.43,13.64 l -5.28,0.38 c -3.99,-12.46 -11.73,-18.7 -23.21,-18.7 h -45.04 c -4.7,0 -9.17,1.23 -13.42,3.69 -4.22,2.49 -7.5,7.5 -9.85,15.01 l -5.28,-0.38 c 0.48,-4.44 0.95,-9.22 1.43,-14.36 0.48,-5.09 0.72,-10.46 0.72,-16.11 0,-5.61 -0.24,-11.15 -0.72,-16.61 -0.48,-5.46 -0.95,-10.19 -1.43,-14.19 l 5.28,-0.39 c 2.61,7.52 5.96,12.51 10.07,14.97 4.1,2.49 8.85,3.74 14.24,3.74 h 44 c 4.92,0 9.43,-1.31 13.53,-3.91 4.11,-2.57 7.33,-7.5 9.68,-14.8 l 5.28,0.39"
         style="fill:#000000;fill-opacity:1;fill-rule:nonzero;stroke:none"
         id="path57" />
      <path
         d="m 1979.54,809.16 c 0,12.317 -2.15,23.942 -6.44,34.867 -4.29,10.965 -11.07,20.809 -20.35,29.535 -6.67,6.27 -13.77,10.856 -21.29,13.75 -7.48,2.934 -16.58,5.297 -27.33,7.094 l -0.33,55.551 -16.11,5.281 0.71,-59.84 c -17.85,-1.355 -33.09,-7.957 -45.7,-19.8 -4.29,-4.032 -8.18,-8.746 -11.66,-14.133 -3.45,-5.356 -6.42,-11.113 -8.91,-17.274 -2.5,-6.121 -4.46,-12.429 -5.89,-18.918 -1.43,-6.488 -2.14,-12.761 -2.14,-18.808 0,-11.625 2.31,-22.973 6.93,-34.047 4.65,-11.07 11.16,-20.531 19.52,-28.379 6.68,-6.234 14.52,-10.926 23.54,-14.078 9.06,-3.117 17.87,-5.594 26.46,-7.426 l 0.71,-69.683 14.3,-4.239 -0.33,74.305 c 9.75,1.359 18.5,3.266 26.23,5.723 7.74,2.457 14.71,6.582 20.91,12.375 7.15,6.707 13.45,15.82 18.92,27.332 5.5,11.55 8.25,25.156 8.25,40.812 m -31.68,-9.848 c 0,-6.781 -0.66,-13.343 -1.98,-19.687 -1.29,-6.344 -3.21,-12.027 -5.78,-17.051 -3.52,-6.562 -7.75,-12.191 -12.71,-16.886 -4.91,-4.692 -12.17,-7.59 -21.77,-8.688 l -1.05,144.316 c 8.66,-4.363 15.22,-8.851 19.69,-13.472 4.47,-4.582 8.58,-10.266 12.32,-17.051 3.52,-6.563 6.27,-14.484 8.25,-23.758 2.02,-9.277 3.03,-18.519 3.03,-27.723 m -55.99,-73.257 c -2.83,0.257 -5.65,1.32 -8.47,3.191 -2.79,1.867 -5.54,4.215 -8.25,7.039 -2.72,2.824 -5.3,5.922 -7.76,9.293 -2.46,3.41 -4.62,7.004 -6.49,10.781 -3.99,7.957 -6.93,16.575 -8.8,25.848 -1.87,9.277 -2.8,18.481 -2.8,27.613 0,9.387 0.75,18.129 2.25,26.235 1.54,8.101 3.94,15.25 7.21,21.449 3.3,6.234 7.53,11.402 12.7,15.508 5.17,4.109 11.39,6.875 18.65,8.304 l 1.76,-155.261"
         style="fill:#000000;fill-opacity:1;fill-rule:nonzero;stroke:none"
         id="path59" />
      <path
         d="m 4041.88,1229.15 c 0,17.24 -3.02,33.13 -9.08,47.69 -6.01,14.59 -14.35,26.91 -25.02,36.96 -10.89,10.3 -23.69,18.37 -38.39,24.2 -14.67,5.83 -30.39,8.74 -47.19,8.74 -17.05,0 -32.93,-2.97 -47.63,-8.91 -14.66,-5.94 -27.08,-13.71 -37.23,-23.32 -11.15,-10.52 -19.75,-23.01 -25.8,-37.45 -6.01,-14.45 -9.02,-30.52 -9.02,-48.24 0,-16.13 2.84,-31.36 8.53,-45.7 5.68,-14.34 13.73,-26.88 24.14,-37.62 10.42,-10.74 22.95,-19.2 37.62,-25.36 14.71,-6.16 31.17,-9.23 49.39,-9.23 18.23,0 34.73,3.13 49.5,9.4 14.82,6.27 27.43,14.78 37.84,25.52 10.45,10.74 18.44,23.28 23.98,37.62 5.57,14.34 8.36,29.57 8.36,45.7 m -42.24,-2.31 c 0,-16.42 -1.35,-29.64 -4.07,-39.65 -2.68,-9.98 -6.23,-19.07 -10.67,-27.28 -2.79,-5.32 -6.47,-10.14 -11.05,-14.46 -4.55,-4.33 -9.57,-8 -15.07,-11 -5.47,-2.97 -11.35,-5.3 -17.66,-6.99 -6.3,-1.65 -12.61,-2.48 -18.92,-2.48 -7,0 -13.73,0.88 -20.18,2.64 -6.42,1.8 -12.38,4.29 -17.88,7.49 -5.46,3.22 -10.35,7.05 -14.68,11.49 -4.33,4.44 -7.89,9.22 -10.67,14.35 -5.61,10.64 -9.35,21.27 -11.22,31.91 -1.87,10.66 -2.81,22 -2.81,33.98 0,16.39 1.58,30.25 4.73,41.58 3.15,11.33 6.37,20.2 9.63,26.62 6.08,12 14.67,21.25 25.74,27.78 11.1,6.56 23.66,9.84 37.67,9.84 14.04,0 26.49,-3.33 37.35,-10.01 10.85,-6.63 19.56,-16.17 26.12,-28.6 3.96,-7.33 7.22,-16.88 9.79,-28.65 2.57,-11.74 3.85,-24.59 3.85,-38.56 m -27.11,-28.65 c -0.48,4 -0.96,8.73 -1.43,14.19 -0.44,5.46 -0.66,11 -0.66,16.61 0,5.65 0.22,11.26 0.66,16.83 0.47,5.57 0.95,10.12 1.43,13.64 l -5.28,0.38 c -4,-12.46 -11.74,-18.7 -23.21,-18.7 h -45.05 c -4.69,0 -9.17,1.23 -13.42,3.69 -4.21,2.49 -7.5,7.5 -9.84,15.01 l -5.28,-0.38 c 0.47,-4.44 0.95,-9.22 1.43,-14.35 0.48,-5.1 0.71,-10.47 0.71,-16.12 0,-5.61 -0.23,-11.15 -0.71,-16.61 -0.48,-5.46 -0.96,-10.19 -1.43,-14.19 l 5.28,-0.39 c 2.6,7.52 5.95,12.51 10.06,14.97 4.11,2.49 8.86,3.73 14.25,3.73 h 44 c 4.91,0 9.42,-1.3 13.53,-3.9 4.1,-2.57 7.33,-7.5 9.68,-14.8 l 5.28,0.39"
         style="fill:#000000;fill-opacity:1;fill-rule:nonzero;stroke:none"
         id="path61" />
      <path
         d="M 3869.23,1828.41 5825.11,2572.5"
         style="fill:none;stroke:#0000ff;stroke-width:42.519;stroke-linecap:butt;stroke-linejoin:miter;stroke-miterlimit:10;stroke-dasharray:85.038;stroke-dashoffset:0;stroke-opacity:1"
         id="path63" />
      <path
         d="m 4405.33,3115.97 c 346.63,-137.95 578.56,-468.23 590.65,-841.11"
         style="fill:none;stroke:#00ff00;stroke-width:42.519;stroke-linecap:butt;stroke-linejoin:miter;stroke-miterlimit:10;stroke-dasharray:none;stroke-opacity:1"
         id="path65" />
      <path
         d="m 4594.99,3177.4 -233.6,-43.93 175.31,-160.52"
         style="fill:none;stroke:#00ff00;stroke-width:42.519;stroke-linecap:butt;stroke-linejoin:miter;stroke-miterlimit:10;stroke-dasharray:none;stroke-opacity:1"
         id="path67" />
      <path
         d="m 4962.54,2784.95 h 93.77 v -21.12 h -124.24 v 21.12 c 9.89,10.41 23.37,24.39 40.42,41.91 17.05,17.57 27.78,28.87 32.17,33.94 8.33,9.53 14.14,17.59 17.44,24.2 3.34,6.63 5.01,13.14 5.01,19.52 0,10.41 -3.65,18.9 -10.95,25.46 -7.26,6.57 -16.72,9.85 -28.38,9.85 -8.29,0 -17.03,-1.76 -26.23,-5.28 -9.21,-3.48 -19.03,-8.76 -29.48,-15.84 v 28.16 c 10.77,4.66 20.84,8.16 30.19,10.51 9.35,2.38 17.91,3.57 25.69,3.57 20.49,0 36.83,-5.04 49,-15.13 12.21,-10.08 18.32,-23.55 18.32,-40.42 0,-7.99 -1.55,-15.58 -4.63,-22.77 -3.04,-7.15 -8.59,-15.58 -16.66,-25.3 -2.2,-2.53 -9.26,-9.83 -21.18,-21.89 -11.87,-12.03 -28.63,-28.85 -50.26,-50.49"
         style="fill:#000000;fill-opacity:1;fill-rule:nonzero;stroke:none"
         id="path69" />
      <path
         d="m 4974.16,4498.68 c -11.91,-20.14 -20.77,-40.05 -26.56,-59.73 -5.76,-19.66 -8.64,-39.61 -8.64,-59.84 0,-20.21 2.92,-40.23 8.75,-60.06 5.83,-19.8 14.65,-39.71 26.45,-59.73 h -21.34 c -12.86,20.57 -22.51,40.77 -28.93,60.61 -6.37,19.87 -9.57,39.59 -9.57,59.18 0,19.5 3.18,39.14 9.52,58.9 6.34,19.8 16,40.02 28.98,60.67 h 21.34"
         style="fill:#000000;fill-opacity:1;fill-rule:nonzero;stroke:none"
         id="path71" />
      <path
         d="m 5140.2,4442.36 -52.69,-71.95 56.21,-75.89 h -28.54 l -42.9,58.07 -41.64,-58.07 h -27.71 l 55.32,77.32 -51.8,70.52 h 28.21 l 38.66,-52.7 38.67,52.7 h 28.21"
         style="fill:#000000;fill-opacity:1;fill-rule:nonzero;stroke:none"
         id="path73" />
      <path
         d="m 5188.98,4326.2 h 28.16 v -22.17 l -21.12,-41.19 h -17.59 l 10.55,41.19 v 22.17"
         style="fill:#000000;fill-opacity:1;fill-rule:nonzero;stroke:none"
         id="path75" />
      <path
         d="m 5328.13,4281.43 c -6.67,-17.9 -13.18,-29.57 -19.52,-35.04 -6.31,-5.46 -14.76,-8.19 -25.36,-8.19 h -18.81 v 21.12 h 13.86 c 6.49,0 11.52,1.56 15.07,4.67 3.59,3.12 7.58,10.45 11.94,22 l 4.23,11.06 -59.18,145.31 h 26.13 l 44.82,-115.61 44.88,115.61 h 24.97 l -63.03,-160.93"
         style="fill:#000000;fill-opacity:1;fill-rule:nonzero;stroke:none"
         id="path77" />
      <path
         d="m 5425.86,4498.68 h 21.34 c 12.87,-20.65 22.5,-40.87 28.88,-60.67 6.42,-19.76 9.62,-39.4 9.62,-58.9 0,-19.59 -3.2,-39.31 -9.62,-59.18 -6.38,-19.84 -16.01,-40.04 -28.88,-60.61 h -21.34 c 11.81,20.02 20.63,39.93 26.46,59.73 5.83,19.83 8.74,39.85 8.74,60.06 0,20.23 -2.91,40.18 -8.74,59.84 -5.83,19.68 -14.65,39.59 -26.46,59.73"
         style="fill:#000000;fill-opacity:1;fill-rule:nonzero;stroke:none"
         id="path79" />
      <path
         d="M 4698.35,4252 5463.69,2381.16"
         style="fill:none;stroke:#0000ff;stroke-width:42.519;stroke-linecap:butt;stroke-linejoin:miter;stroke-miterlimit:10;stroke-dasharray:85.038;stroke-dashoffset:0;stroke-opacity:1"
         id="path81" />
      <path
         d="m 2642.52,1862.71 h -36.63 l -39.87,-123.92 h -0.72 c -1.43,9.61 -3.26,19.64 -5.5,30.09 -2.24,10.44 -4.31,19.78 -6.21,27.99 -2.35,10.56 -4.48,19.29 -6.38,26.18 -1.91,6.93 -4.51,13.81 -7.82,20.63 -3.81,7.51 -8.06,12.55 -12.75,15.12 -4.7,2.6 -10.68,3.91 -17.93,3.91 -6.09,0 -11.55,-1.49 -16.39,-4.46 -4.81,-2.97 -8.49,-7.57 -11.06,-13.8 -1.65,-3.52 -3.35,-8.88 -5.11,-16.06 -1.76,-7.16 -2.64,-15.3 -2.64,-24.43 v -9.51 h 5.99 c 0.22,6.57 0.92,12.14 2.09,16.72 1.18,4.58 3.65,8.74 7.43,12.49 4.91,4.91 10.3,7.37 16.17,7.37 3.74,0 7.84,-1.23 12.32,-3.69 4.47,-2.46 7.99,-6.38 10.56,-11.77 2.82,-5.64 5.59,-12.41 8.3,-20.29 2.72,-7.85 5.32,-16.58 7.81,-26.18 2.5,-9.61 4.75,-19.93 6.77,-30.97 2.01,-11.04 3.72,-22.42 5.11,-34.15 -1.87,-4.48 -4,-9.81 -6.38,-16.01 -2.34,-6.23 -4.66,-12.74 -6.93,-19.52 -2.23,-6.82 -4.13,-13.7 -5.66,-20.63 -1.54,-6.93 -2.31,-13.44 -2.31,-19.52 0,-6.82 1.54,-12.64 4.61,-17.44 3.09,-4.8 7.71,-7.2 13.87,-7.2 4.25,0 7.68,1.01 10.28,3.02 2.6,1.98 4.97,5.08 7.1,9.3 1.87,3.99 3.39,8.82 4.56,14.46 1.21,5.61 1.82,11.94 1.82,18.98 0,9.16 -0.66,18.09 -1.98,26.78 -1.29,8.66 -2.75,17.68 -4.4,27.06 l 71.88,159.45"
         style="fill:#000000;fill-opacity:1;fill-rule:nonzero;stroke:none"
         id="path83" />
      <path
         d="m 5620.61,446.547 v 8.523 l -10.29,1.485 c -3.41,0.55 -3.13,3.797 -1.59,6.984 5.83,12.598 14.24,26.676 23.15,41.91 h 0.61 l 24.25,-40.699 c 2.97,-5.004 2.2,-7.645 -1.7,-8.195 l -10.89,-1.485 v -8.523 h 68.36 v 8.523 c -13.09,0 -18.04,0.879 -25.3,11.551 -13.42,19.633 -27.06,40.371 -39.87,61.16 9.68,14.903 21.12,29.809 32.61,43.832 7.59,9.516 11.44,10.727 25.52,10.727 v 8.523 h -52.8 v -8.523 l 10.01,-1.156 c 4.13,-0.606 3.52,-3.575 1.49,-6.766 -6.66,-11.219 -14.52,-23.539 -23.21,-37.066 h -0.33 l -24.37,36.738 c -2.31,3.519 -1.7,6.765 2.59,7.371 l 8.69,0.879 v 8.523 h -62.86 v -8.523 c 12.04,0 15.06,-0.606 22.27,-10.449 12.65,-17.27 25.63,-36.629 38.55,-55.715 -10.78,-16.117 -22.11,-33.11 -34.04,-49.172 -7.59,-10.449 -13.97,-11.934 -26.78,-11.934 v -8.523 h 55.93"
         style="fill:#000000;fill-opacity:1;fill-rule:nonzero;stroke:none"
         id="path85" />
      <path
         d="m 398.617,5119.14 v -8.53 c 14.133,0 17.047,-1.76 22.328,-14.68 14.739,-35.31 39.16,-98.01 46.2,-118.31 1.761,-5 2.367,-9.4 2.367,-14.41 0,-6.82 -2.477,-15.73 -6.657,-25.19 -4.179,-9.79 -9.183,-12.48 -12.21,-12.48 -2.969,0 -5.665,0.88 -11,6.32 -3.024,2.75 -5.391,4.24 -8.965,4.24 -5.719,0 -13.309,-8.03 -13.309,-16.61 0,-6.93 8.469,-15.07 21.176,-15.07 11.437,0 26.066,3.52 40.699,47.13 17.762,52.42 44.164,124.31 53.02,144.93 5.168,11.77 6.875,14.13 21.226,14.13 v 8.53 h -56.316 v -8.53 l 15.508,-1.48 c 5.062,-0.55 5.664,-4.07 4.234,-9.9 -4.398,-17.55 -19.469,-61.71 -32.227,-96.8 h -0.55 c -12.707,35.36 -23.817,67.27 -34.047,97.95 -1.649,5.28 -2.199,8.47 4.179,9.08 l 11.883,1.15 v 8.53 h -67.539"
         style="fill:#000000;fill-opacity:1;fill-rule:nonzero;stroke:none"
         id="path87" />
      <path
         d="m 4074.5,999.152 h 42.25 v 151.358 l -45.77,-10.56 v 21.12 l 47.2,10.56 h 26.72 V 999.152 h 42.24 V 978.035 H 4074.5 v 21.117"
         style="fill:#000000;fill-opacity:1;fill-rule:nonzero;stroke:none"
         id="path89" />
    </g>
  </g>
</svg>
