<?xml version="1.0" encoding="UTF-8" standalone="no"?>
<!-- Created with Inkscape (http://www.inkscape.org/) -->

<svg
   width="303.34937mm"
   height="122.04485mm"
   viewBox="0 0 303.34937 122.04485"
   version="1.1"
   id="svg385"
   inkscape:version="1.1 (c4e8f9e, 2021-05-24)"
   sodipodi:docname="twolinkconfigdomaintorus.svg"
   xmlns:inkscape="http://www.inkscape.org/namespaces/inkscape"
   xmlns:sodipodi="http://sodipodi.sourceforge.net/DTD/sodipodi-0.dtd"
   xmlns="http://www.w3.org/2000/svg"
   xmlns:svg="http://www.w3.org/2000/svg">
  <sodipodi:namedview
     id="namedview387"
     pagecolor="#ffffff"
     bordercolor="#666666"
     borderopacity="1.0"
     inkscape:pageshadow="2"
     inkscape:pageopacity="0.0"
     inkscape:pagecheckerboard="0"
     inkscape:document-units="mm"
     showgrid="false"
     inkscape:zoom="0.77771465"
     inkscape:cx="619.12168"
     inkscape:cy="338.81322"
     inkscape:window-width="1312"
     inkscape:window-height="1081"
     inkscape:window-x="0"
     inkscape:window-y="25"
     inkscape:window-maximized="0"
     inkscape:current-layer="layer1"
     fit-margin-top="0"
     fit-margin-left="0"
     fit-margin-right="0"
     fit-margin-bottom="0" />
  <defs
     id="defs382" />
  <g
     inkscape:label="Layer 1"
     inkscape:groupmode="layer"
     id="layer1"
     transform="translate(58.713871,-62.812633)">
    <g
       id="g397"
       transform="matrix(0.03527778,0,0,-0.03527778,107.13776,164.82681)">
      <path
         d="M 3883.4,1055.89 C 3883.4,480.566 3017.25,14.1719 1948.79,14.1719 880.332,14.1719 14.1719,480.566 14.1719,1055.89 c 0,575.32 866.1601,1041.72 1934.6181,1041.72 1068.46,0 1934.61,-466.4 1934.61,-1041.72"
         style="fill:#ffffff;fill-opacity:1;fill-rule:nonzero;stroke:none"
         id="path399" />
      <path
         d="M 3883.4,1055.89 C 3883.4,480.566 3017.25,14.1719 1948.79,14.1719 880.332,14.1719 14.1719,480.566 14.1719,1055.89 c 0,575.32 866.1601,1041.72 1934.6181,1041.72 1068.46,0 1934.61,-466.4 1934.61,-1041.72 z"
         style="fill:none;stroke:#000000;stroke-width:28.346;stroke-linecap:butt;stroke-linejoin:miter;stroke-miterlimit:10;stroke-dasharray:none;stroke-opacity:1"
         id="path401" />
      <path
         d="m 2933.81,1126.75 c 0,-191.77 -447.36,-347.234 -999.2,-347.234 -551.84,0 -999.192,155.464 -999.192,347.234 0,191.78 447.352,347.24 999.192,347.24 551.84,0 999.2,-155.46 999.2,-347.24"
         style="fill:#ffffff;fill-opacity:1;fill-rule:nonzero;stroke:none"
         id="path403" />
      <path
         d="m 2933.81,1126.75 c 0,-191.77 -447.36,-347.234 -999.2,-347.234 -551.84,0 -999.192,155.464 -999.192,347.234 0,191.78 447.352,347.24 999.192,347.24 551.84,0 999.2,-155.46 999.2,-347.24 z"
         style="fill:none;stroke:#000000;stroke-width:28.346;stroke-linecap:butt;stroke-linejoin:miter;stroke-miterlimit:10;stroke-dasharray:none;stroke-opacity:1"
         id="path405" />
      <path
         d="m 2641.17,881.219 c 222.82,-67.86 375.1,-273.418 375.1,-506.348 0,-80.824 -18.51,-160.582 -54.11,-233.141"
         style="fill:none;stroke:#000000;stroke-width:28.346;stroke-linecap:butt;stroke-linejoin:miter;stroke-miterlimit:10;stroke-dasharray:none;stroke-opacity:1"
         id="path407" />
      <path
         d="m 2947.98,127.559 c -4.74,-0.153 -9.49,-0.235 -14.23,-0.235 -239.54,0 -433.72,194.184 -433.72,433.719 0,121.809 51.22,238.008 141.14,320.176"
         style="fill:none;stroke:#000000;stroke-width:28.346;stroke-linecap:butt;stroke-linejoin:miter;stroke-miterlimit:10;stroke-dasharray:56.692;stroke-dashoffset:0;stroke-opacity:1"
         id="path409" />
      <path
         d="M 3883.4,1055.89 C 3334.17,538.293 2607.97,250.027 1853.28,250.027 c -637.14,0 -1257.276,205.578 -1768.2409,586.18"
         style="fill:none;stroke:#000000;stroke-width:28.346;stroke-linecap:butt;stroke-linejoin:miter;stroke-miterlimit:10;stroke-dasharray:none;stroke-opacity:1"
         id="path411" />
      <path
         d="m 3020.45,833.008 c 0,8.898 -0.68,16.941 -2.05,24.125 -1.35,7.187 -3.53,13.605 -6.56,19.25 -3.01,5.476 -6.35,10.258 -10.02,14.34 -3.66,4.082 -7.45,7.418 -11.36,10.007 -3.89,2.59 -7.79,4.512 -11.7,5.758 -3.91,1.27 -7.53,1.907 -10.85,1.907 -4.3,0 -8.57,-0.782 -12.8,-2.348 -4.23,-1.539 -8.26,-3.727 -12.1,-6.563 -3.81,-2.812 -7.36,-6.109 -10.63,-9.898 -3.25,-3.766 -6.06,-7.945 -8.43,-12.543 -3.04,-5.645 -5.31,-11.879 -6.83,-18.699 -1.51,-6.821 -2.27,-15.266 -2.27,-25.336 0,-12 0.87,-22.414 2.61,-31.238 1.75,-8.825 4.31,-16.356 7.66,-22.586 4.79,-8.899 11.05,-15.793 18.77,-20.68 7.73,-4.891 15.73,-7.336 24.02,-7.336 4.59,0 9,0.77 13.23,2.312 4.24,1.563 8.22,3.641 11.96,6.231 3.74,2.617 7.08,5.625 10.01,9.019 2.96,3.426 5.39,6.981 7.3,10.672 3.02,5.645 5.46,12.957 7.29,21.926 1.84,8.973 2.75,19.531 2.75,31.68 m -23.47,4.988 h -58.66 l 1.47,20.348 c 0.14,1.687 0.46,3.73 0.95,6.125 0.49,2.394 1.09,4.828 1.8,7.297 0.73,2.492 1.58,4.937 2.56,7.332 0.98,2.394 2.03,4.582 3.15,6.562 2.28,3.813 5.39,6.992 9.36,9.535 3.96,2.543 7.22,3.813 9.78,3.813 3.4,0 7.04,-1.383 10.93,-4.145 3.89,-2.738 7.04,-6.23 9.46,-10.484 0.95,-1.543 1.83,-3.449 2.64,-5.723 0.83,-2.246 1.6,-4.582 2.31,-7 0.73,-2.398 1.34,-4.793 1.84,-7.187 0.48,-2.395 0.8,-4.512 0.95,-6.344 l 1.46,-20.129 m -1.39,-9.387 -1.43,-24.238 c -0.32,-5.059 -1.26,-10.203 -2.82,-15.437 -1.57,-5.231 -3.52,-9.922 -5.87,-14.079 -2.35,-4.156 -5.08,-7.578 -8.21,-10.265 -3.13,-2.692 -6.33,-4.035 -9.61,-4.035 -3.27,0 -6.48,1.222 -9.6,3.668 -3.13,2.468 -5.92,5.742 -8.37,9.824 -2.41,4.086 -4.45,8.777 -6.08,14.082 -1.64,5.305 -2.62,10.805 -2.94,16.5 l -1.39,23.98 h 56.32"
         style="fill:#000000;fill-opacity:1;fill-rule:nonzero;stroke:none"
         id="path413" />
      <path
         d="m 3379.03,861.355 c 0,8.899 -0.69,16.938 -2.05,24.125 -1.35,7.188 -3.54,13.602 -6.57,19.25 -3,5.477 -6.34,10.254 -10.01,14.336 -3.67,4.082 -7.45,7.418 -11.36,10.012 -3.89,2.59 -7.79,4.508 -11.7,5.754 -3.91,1.273 -7.53,1.906 -10.86,1.906 -4.3,0 -8.56,-0.781 -12.79,-2.343 -4.23,-1.54 -8.26,-3.731 -12.1,-6.563 -3.81,-2.812 -7.36,-6.113 -10.63,-9.902 -3.26,-3.766 -6.07,-7.946 -8.44,-12.539 -3.03,-5.649 -5.3,-11.879 -6.82,-18.7 -1.51,-6.82 -2.27,-15.265 -2.27,-25.336 0,-12.003 0.87,-22.417 2.6,-31.242 1.76,-8.824 4.32,-16.351 7.67,-22.586 4.79,-8.898 11.05,-15.789 18.77,-20.679 7.72,-4.887 15.73,-7.332 24.01,-7.332 4.6,0 9.01,0.769 13.24,2.308 4.23,1.567 8.21,3.645 11.96,6.235 3.73,2.617 7.07,5.621 10,9.019 2.96,3.422 5.39,6.981 7.3,10.672 3.03,5.645 5.47,12.953 7.3,21.926 1.83,8.969 2.75,19.531 2.75,31.679 m -23.47,4.985 h -58.67 l 1.47,20.351 c 0.15,1.688 0.47,3.727 0.96,6.121 0.48,2.399 1.08,4.829 1.79,7.297 0.73,2.496 1.59,4.938 2.57,7.336 0.98,2.395 2.03,4.582 3.15,6.563 2.28,3.812 5.39,6.992 9.35,9.531 3.96,2.543 7.23,3.816 9.79,3.816 3.4,0 7.04,-1.382 10.93,-4.144 3.89,-2.738 7.04,-6.234 9.46,-10.488 0.95,-1.539 1.83,-3.446 2.64,-5.719 0.83,-2.25 1.6,-4.582 2.31,-7.004 0.73,-2.395 1.34,-4.789 1.83,-7.188 0.49,-2.394 0.81,-4.507 0.95,-6.343 l 1.47,-20.129 m -1.39,-9.387 -1.43,-24.234 c -0.32,-5.063 -1.26,-10.207 -2.83,-15.438 -1.56,-5.23 -3.52,-9.926 -5.86,-14.078 -2.35,-4.156 -5.09,-7.578 -8.21,-10.269 -3.13,-2.688 -6.34,-4.032 -9.61,-4.032 -3.28,0 -6.48,1.223 -9.61,3.664 -3.13,2.473 -5.91,5.746 -8.36,9.829 -2.42,4.082 -4.45,8.777 -6.08,14.082 -1.64,5.3 -2.62,10.8 -2.94,16.496 l -1.39,23.98 h 56.32"
         style="fill:#000000;fill-opacity:1;fill-rule:nonzero;stroke:none"
         id="path415" />
      <path
         d="m 3380.12,751.074 h 28.16 v 96.215 l -30.51,-7.039 v 14.078 l 29.96,7.039 h 16.98 V 751.074 h 28.16 v -14.078 h -72.75 v 14.078"
         style="fill:#000000;fill-opacity:1;fill-rule:nonzero;stroke:none"
         id="path417" />
      <path
         d="m 3053.24,722.73 h 60.14 v -14.082 h -80.45 v 14.082 c 6.6,6.625 15.58,15.52 26.95,26.692 11.37,11.172 18.51,18.371 21.45,21.598 5.55,6.062 9.42,11.195 11.62,15.398 2.23,4.207 3.34,8.336 3.34,12.394 0,6.626 -2.43,12.028 -7.3,16.208 -4.84,4.179 -11.14,6.269 -18.92,6.269 -5.52,0 -11.35,-1.172 -17.49,-3.519 -6.13,-2.325 -12.69,-5.844 -19.65,-10.563 v 18.773 c 6.96,3.106 13.48,5.442 19.54,7.004 6.07,1.59 11.61,2.383 16.65,2.383 13.27,0 23.86,-3.226 31.75,-9.679 7.9,-6.454 11.84,-15.071 11.84,-25.848 0,-5.133 -0.98,-10 -2.96,-14.594 -1.96,-4.57 -5.52,-9.973 -10.68,-16.207 -1.44,-1.613 -5.97,-6.269 -13.6,-13.969 -7.6,-7.699 -18.34,-18.48 -32.23,-32.34"
         style="fill:#000000;fill-opacity:1;fill-rule:nonzero;stroke:none"
         id="path419" />
    </g>
    <g
       id="g453"
       transform="matrix(0.03527778,0,0,-0.03527778,-59.213806,185.35741)">
      <path
         d="M 850.379,3334.39 V 152.164"
         style="fill:none;stroke:#000000;stroke-width:28.346;stroke-linecap:butt;stroke-linejoin:miter;stroke-miterlimit:10;stroke-dasharray:none;stroke-opacity:1"
         id="path455" />
      <path
         d="m 850.379,3440.7 70.867,-141.74 -70.867,35.43 -70.863,-35.43"
         style="fill:#000000;fill-opacity:1;fill-rule:evenodd;stroke:none"
         id="path457" />
      <path
         d="m 850.379,3440.7 70.867,-141.74 -70.867,35.43 -70.863,-35.43 z"
         style="fill:none;stroke:#000000;stroke-width:28.346;stroke-linecap:butt;stroke-linejoin:miter;stroke-miterlimit:10;stroke-dasharray:none;stroke-opacity:1"
         id="path459" />
      <path
         d="m 850.379,45.8633 -70.863,141.7307 70.863,-35.43 70.867,35.43"
         style="fill:#000000;fill-opacity:1;fill-rule:evenodd;stroke:none"
         id="path461" />
      <path
         d="m 850.379,45.8633 -70.863,141.7307 70.863,-35.43 70.867,35.43 z"
         style="fill:none;stroke:#000000;stroke-width:28.346;stroke-linecap:butt;stroke-linejoin:miter;stroke-miterlimit:10;stroke-dasharray:none;stroke-opacity:1"
         id="path463" />
      <path
         d="M 152.164,751.168 H 4198.95"
         style="fill:none;stroke:#000000;stroke-width:28.346;stroke-linecap:butt;stroke-linejoin:miter;stroke-miterlimit:10;stroke-dasharray:none;stroke-opacity:1"
         id="path465" />
      <path
         d="m 45.8633,751.168 141.7307,70.867 -35.43,-70.867 35.43,-70.863"
         style="fill:#000000;fill-opacity:1;fill-rule:evenodd;stroke:none"
         id="path467" />
      <path
         d="m 45.8633,751.168 141.7307,70.867 -35.43,-70.867 35.43,-70.863 z"
         style="fill:none;stroke:#000000;stroke-width:28.346;stroke-linecap:butt;stroke-linejoin:miter;stroke-miterlimit:10;stroke-dasharray:none;stroke-opacity:1"
         id="path469" />
      <path
         d="m 4305.25,751.168 -141.73,-70.863 35.43,70.863 -35.43,70.867"
         style="fill:#000000;fill-opacity:1;fill-rule:evenodd;stroke:none"
         id="path471" />
      <path
         d="m 4305.25,751.168 -141.73,-70.863 35.43,70.863 -35.43,70.867 z"
         style="fill:none;stroke:#000000;stroke-width:28.346;stroke-linecap:butt;stroke-linejoin:miter;stroke-miterlimit:10;stroke-dasharray:none;stroke-opacity:1"
         id="path473" />
      <path
         d="m 878.727,765.344 h 1998.39 v 1998.39 H 878.727 Z"
         style="fill:#0000ff;fill-opacity:1;fill-rule:nonzero;stroke:none"
         id="path475" />
      <path
         d="m 878.727,765.344 h 1998.39 v 1998.39 H 878.727 Z"
         style="fill:none;stroke:#000000;stroke-width:28.346;stroke-linecap:butt;stroke-linejoin:miter;stroke-miterlimit:10;stroke-dasharray:none;stroke-opacity:1"
         id="path477" />
      <path
         d="m 2724.53,500.656 h 81.8 v -18.773 h -108.86 v 18.773 c 8.8,9.313 20.78,21.805 35.93,37.473 15.18,15.691 24.72,25.812 28.6,30.359 7.41,8.508 12.58,15.719 15.51,21.633 2.96,5.914 4.44,11.723 4.44,17.418 0,9.313 -3.24,16.902 -9.72,22.77 -6.45,5.863 -14.87,8.796 -25.26,8.796 -7.36,0 -15.13,-1.355 -23.32,-4.07 -8.17,-2.711 -16.89,-6.832 -26.18,-12.355 v 23.468 c 9.44,3.86 18.25,6.782 26.44,8.762 8.21,1.981 15.73,2.969 22.55,2.969 17.94,0 32.25,-4.508 42.93,-13.527 10.68,-8.997 16.02,-21.024 16.02,-36.082 0,-7.137 -1.33,-13.907 -3.99,-20.313 -2.67,-6.402 -7.52,-13.957 -14.56,-22.66 -1.95,-2.246 -8.11,-8.75 -18.48,-19.504 -10.36,-10.758 -24.98,-25.801 -43.85,-45.137"
         style="fill:#000000;fill-opacity:1;fill-rule:nonzero;stroke:none"
         id="path479" />
      <path
         d="m 2974.23,525.223 h -5.84 c -0.17,-2.129 -0.39,-4.121 -0.66,-5.977 -0.27,-1.859 -0.75,-3.484 -1.46,-4.879 -1.59,-3.203 -3.72,-5.512 -6.38,-6.929 -2.64,-1.391 -4.94,-2.09 -6.89,-2.09 -3.18,0 -5.88,0.711 -8.11,2.129 -2.2,1.441 -4.01,3.25 -5.43,5.425 -1.39,2.2 -2.4,4.692 -3.04,7.481 -0.61,2.785 -0.91,5.609 -0.91,8.469 0,3.375 0.03,7.418 0.11,12.136 0.09,4.719 0.28,9.727 0.54,15.032 0.27,5.304 0.63,10.648 1.07,16.023 0.44,5.402 0.93,10.551 1.47,15.437 h 33.4 v 23.469 h -98.34 c -9.53,0 -17.22,-3.594 -23.06,-10.781 -5.84,-7.188 -10.71,-16.988 -14.59,-29.406 h 4.5 l 5.32,7.699 c 2.3,3.18 5.12,5.477 8.47,6.894 3.37,1.418 6.47,2.125 9.28,2.125 h 12.46 l -7.66,-60.718 c -0.54,-4.426 -1.82,-8.106 -3.85,-11.035 -2.03,-2.911 -4.19,-5.684 -6.49,-8.325 -2.49,-3.007 -4.72,-5.746 -6.68,-8.214 -1.92,-2.469 -2.89,-5.559 -2.89,-9.278 0,-3.371 1.32,-6.512 3.96,-9.422 2.67,-2.91 6.04,-4.363 10.12,-4.363 2.47,0 5.11,0.711 7.92,2.125 2.84,1.395 5.23,4.133 7.19,8.215 0.88,1.762 1.57,3.875 2.09,6.344 0.53,2.468 1.07,5.121 1.61,7.957 1.95,10.777 3.81,22.976 5.57,36.593 1.76,13.614 3.54,30.321 5.32,50.121 h 30.03 c -0.9,-10.121 -2.08,-20.25 -3.52,-30.394 -1.42,-10.121 -2.13,-19.996 -2.13,-29.629 0,-1.344 0.04,-2.992 0.11,-4.949 0.1,-1.93 0.23,-3.91 0.41,-5.942 0.19,-2.027 0.43,-3.968 0.69,-5.828 0.27,-1.859 0.59,-3.375 0.95,-4.547 2.5,-8.089 5.8,-14.164 9.91,-18.222 4.1,-4.059 8.64,-6.086 13.6,-6.086 5.13,0 9.68,1.269 13.64,3.812 3.98,2.567 7.3,5.891 9.94,9.973 2.66,4.082 4.7,8.738 6.12,13.969 1.42,5.258 2.13,10.453 2.13,15.586"
         style="fill:#000000;fill-opacity:1;fill-rule:nonzero;stroke:none"
         id="path481" />
      <path
         d="m 546.141,2679.05 h 81.8 v -18.78 H 519.078 v 18.78 c 8.801,9.31 20.781,21.8 35.934,37.47 15.179,15.69 24.715,25.81 28.601,30.36 7.407,8.5 12.575,15.71 15.508,21.63 2.961,5.92 4.438,11.72 4.438,17.42 0,9.31 -3.239,16.9 -9.715,22.77 -6.453,5.86 -14.875,8.8 -25.266,8.8 -7.355,0 -15.129,-1.36 -23.316,-4.07 -8.168,-2.72 -16.895,-6.84 -26.184,-12.36 v 23.47 c 9.438,3.86 18.25,6.78 26.438,8.76 8.214,1.98 15.73,2.97 22.55,2.97 17.942,0 32.254,-4.51 42.938,-13.53 10.68,-8.99 16.023,-21.02 16.023,-36.08 0,-7.14 -1.332,-13.91 -4,-20.31 -2.664,-6.4 -7.515,-13.96 -14.554,-22.66 -1.957,-2.25 -8.118,-8.75 -18.481,-19.51 -10.363,-10.75 -24.98,-25.8 -43.851,-45.13"
         style="fill:#000000;fill-opacity:1;fill-rule:nonzero;stroke:none"
         id="path483" />
      <path
         d="m 795.836,2703.61 h -5.832 c -0.168,-2.13 -0.391,-4.12 -0.66,-5.97 -0.266,-1.86 -0.758,-3.49 -1.465,-4.88 -1.59,-3.21 -3.715,-5.51 -6.379,-6.93 -2.641,-1.4 -4.938,-2.09 -6.895,-2.09 -3.175,0 -5.878,0.71 -8.101,2.12 -2.203,1.45 -4.012,3.26 -5.43,5.43 -1.39,2.2 -2.406,4.69 -3.043,7.48 -0.609,2.79 -0.914,5.61 -0.914,8.47 0,3.37 0.035,7.42 0.11,12.14 0.097,4.72 0.281,9.73 0.55,15.03 0.266,5.3 0.621,10.65 1.063,16.02 0.437,5.41 0.93,10.55 1.465,15.44 h 33.402 v 23.47 h -98.336 c -9.535,0 -17.223,-3.59 -23.066,-10.78 -5.84,-7.19 -10.703,-16.99 -14.59,-29.41 h 4.508 l 5.316,7.7 c 2.297,3.18 5.121,5.48 8.473,6.9 3.371,1.41 6.465,2.12 9.273,2.12 h 12.469 l -7.664,-60.72 c -0.539,-4.42 -1.82,-8.1 -3.852,-11.04 -2.027,-2.9 -4.191,-5.68 -6.488,-8.32 -2.492,-3 -4.719,-5.74 -6.672,-8.21 -1.933,-2.47 -2.898,-5.56 -2.898,-9.28 0,-3.37 1.32,-6.51 3.961,-9.42 2.664,-2.91 6.035,-4.36 10.117,-4.36 2.472,0 5.109,0.7 7.922,2.12 2.836,1.4 5.23,4.13 7.187,8.22 0.879,1.76 1.574,3.87 2.09,6.34 0.535,2.47 1.074,5.12 1.613,7.96 1.953,10.77 3.813,22.97 5.575,36.59 1.757,13.61 3.531,30.32 5.316,50.12 h 30.027 c -0.902,-10.12 -2.078,-20.25 -3.519,-30.39 -1.418,-10.12 -2.125,-20 -2.125,-29.63 0,-1.35 0.035,-2.99 0.109,-4.95 0.098,-1.93 0.231,-3.91 0.402,-5.94 0.196,-2.03 0.43,-3.98 0.696,-5.83 0.269,-1.86 0.59,-3.38 0.953,-4.55 2.496,-8.09 5.797,-14.16 9.902,-18.22 4.106,-4.06 8.641,-6.09 13.602,-6.09 5.133,0 9.68,1.27 13.64,3.82 3.985,2.56 7.297,5.89 9.938,9.97 2.664,4.08 4.703,8.74 6.121,13.97 1.418,5.26 2.129,10.45 2.129,15.58"
         style="fill:#000000;fill-opacity:1;fill-rule:nonzero;stroke:none"
         id="path485" />
      <path
         d="m 4273.02,892.805 h 28.16 v 96.215 l -30.51,-7.043 v 14.082 l 29.96,7.041 h 16.98 V 892.805 h 28.16 v -14.078 h -72.75 v 14.078"
         style="fill:#000000;fill-opacity:1;fill-rule:nonzero;stroke:none"
         id="path487" />
      <path
         d="m 1253.27,3245.52 h 60.13 v -14.07 h -80.44 v 14.07 c 6.6,6.63 15.58,15.53 26.95,26.7 11.36,11.17 18.52,18.37 21.45,21.59 5.55,6.07 9.42,11.2 11.62,15.4 2.22,4.21 3.34,8.34 3.34,12.4 0,6.62 -2.43,12.02 -7.3,16.2 -4.84,4.18 -11.14,6.27 -18.92,6.27 -5.52,0 -11.35,-1.17 -17.49,-3.52 -6.13,-2.32 -12.68,-5.84 -19.65,-10.56 v 18.78 c 6.97,3.1 13.48,5.43 19.54,7 6.06,1.59 11.61,2.38 16.65,2.38 13.27,0 23.85,-3.22 31.75,-9.68 7.9,-6.45 11.84,-15.07 11.84,-25.85 0,-5.13 -0.99,-9.99 -2.97,-14.59 -1.95,-4.57 -5.51,-9.97 -10.66,-16.21 -1.45,-1.61 -5.98,-6.27 -13.61,-13.97 -7.6,-7.7 -18.34,-18.48 -32.23,-32.34"
         style="fill:#000000;fill-opacity:1;fill-rule:nonzero;stroke:none"
         id="path489" />
      <path
         d="m 1203.59,3395.32 c 0,11.48 -2.02,22.08 -6.05,31.79 -4.01,9.72 -9.57,17.94 -16.68,24.63 -7.27,6.87 -15.8,12.25 -25.6,16.14 -9.78,3.89 -20.26,5.83 -31.46,5.83 -11.37,0 -21.95,-1.98 -31.75,-5.94 -9.78,-3.96 -18.05,-9.15 -24.82,-15.55 -7.44,-7.01 -13.17,-15.34 -17.2,-24.97 -4.01,-9.63 -6.01,-20.35 -6.01,-32.16 0,-10.75 1.89,-20.91 5.68,-30.47 3.79,-9.55 9.15,-17.91 16.1,-25.07 6.94,-7.17 15.3,-12.8 25.08,-16.91 9.8,-4.1 20.77,-6.16 32.92,-6.16 12.15,0 23.15,2.09 33,6.27 9.88,4.18 18.29,9.85 25.23,17.02 6.97,7.16 12.29,15.52 15.99,25.07 3.71,9.56 5.57,19.72 5.57,30.48 m -28.16,-1.55 c 0,-10.95 -0.91,-19.76 -2.72,-26.43 -1.78,-6.65 -4.15,-12.71 -7.11,-18.19 -1.86,-3.54 -4.31,-6.76 -7.37,-9.64 -3.03,-2.89 -6.38,-5.33 -10.05,-7.33 -3.64,-1.98 -7.56,-3.54 -11.77,-4.66 -4.2,-1.1 -8.41,-1.65 -12.61,-1.65 -4.67,0 -9.15,0.59 -13.46,1.76 -4.27,1.2 -8.25,2.86 -11.91,4.98 -3.64,2.16 -6.91,4.71 -9.79,7.67 -2.89,2.95 -5.26,6.15 -7.12,9.57 -3.73,7.09 -6.23,14.18 -7.47,21.26 -1.25,7.12 -1.87,14.67 -1.87,22.66 0,10.93 1.05,20.17 3.15,27.73 2.1,7.55 4.24,13.46 6.42,17.74 4.05,7.99 9.77,14.17 17.16,18.52 7.4,4.37 15.77,6.56 25.11,6.56 9.36,0 17.66,-2.22 24.9,-6.67 7.23,-4.43 13.04,-10.78 17.42,-19.07 2.63,-4.89 4.81,-11.26 6.52,-19.1 1.71,-7.82 2.57,-16.39 2.57,-25.71 m -18.08,-19.1 c -0.31,2.67 -0.64,5.82 -0.95,9.46 -0.29,3.64 -0.44,7.33 -0.44,11.07 0,3.77 0.15,7.51 0.44,11.23 0.31,3.71 0.64,6.74 0.95,9.09 l -3.52,0.25 c -2.66,-8.31 -7.82,-12.46 -15.47,-12.46 h -30.03 c -3.13,0 -6.11,0.81 -8.95,2.46 -2.81,1.66 -5,4.99 -6.56,10 l -3.52,-0.25 c 0.32,-2.96 0.63,-6.15 0.95,-9.57 0.32,-3.4 0.48,-6.98 0.48,-10.75 0,-3.74 -0.16,-7.43 -0.48,-11.07 -0.32,-3.64 -0.63,-6.79 -0.95,-9.46 l 3.52,-0.26 c 1.73,5.02 3.97,8.34 6.71,9.98 2.74,1.66 5.9,2.49 9.49,2.49 h 29.34 c 3.27,0 6.28,-0.87 9.02,-2.6 2.74,-1.71 4.89,-5 6.45,-9.87 l 3.52,0.26"
         style="fill:#000000;fill-opacity:1;fill-rule:nonzero;stroke:none"
         id="path491" />
      <path
         d="m 4226.69,1014.25 c 0,11.49 -2.02,22.09 -6.05,31.79 -4.01,9.73 -9.57,17.94 -16.68,24.64 -7.26,6.87 -15.8,12.25 -25.6,16.13 -9.77,3.89 -20.26,5.83 -31.46,5.83 -11.36,0 -21.95,-1.98 -31.75,-5.94 -9.78,-3.96 -18.05,-9.14 -24.82,-15.54 -7.44,-7.02 -13.17,-15.34 -17.2,-24.97 -4.01,-9.64 -6.01,-20.35 -6.01,-32.16 0,-10.76 1.89,-20.913 5.68,-30.468 3.79,-9.558 9.15,-17.917 16.1,-25.082 6.94,-7.16 15.3,-12.796 25.08,-16.902 9.8,-4.105 20.77,-6.16 32.92,-6.16 12.15,0 23.15,2.09 33,6.27 9.88,4.179 18.29,9.851 25.23,17.011 6.97,7.164 12.3,15.524 15.99,25.082 3.71,9.559 5.57,19.719 5.57,30.469 m -28.16,-1.54 c 0,-10.95 -0.91,-19.761 -2.71,-26.437 -1.79,-6.648 -4.16,-12.711 -7.12,-18.187 -1.86,-3.543 -4.31,-6.758 -7.37,-9.641 -3.03,-2.886 -6.38,-5.328 -10.04,-7.336 -3.65,-1.976 -7.57,-3.531 -11.77,-4.656 -4.21,-1.098 -8.41,-1.648 -12.62,-1.648 -4.67,0 -9.15,0.586 -13.45,1.761 -4.28,1.196 -8.25,2.86 -11.92,4.985 -3.64,2.152 -6.91,4.707 -9.79,7.664 -2.88,2.957 -5.26,6.148 -7.12,9.57 -3.73,7.09 -6.23,14.176 -7.47,21.266 -1.25,7.113 -1.87,14.669 -1.87,22.659 0,10.93 1.05,20.17 3.15,27.72 2.1,7.55 4.24,13.47 6.42,17.75 4.06,7.99 9.77,14.16 17.16,18.51 7.4,4.38 15.78,6.57 25.11,6.57 9.36,0 17.67,-2.23 24.9,-6.68 7.23,-4.42 13.04,-10.78 17.42,-19.06 2.63,-4.89 4.81,-11.26 6.52,-19.11 1.71,-7.82 2.57,-16.39 2.57,-25.7 m -18.08,-19.101 c -0.31,2.664 -0.63,5.817 -0.95,9.461 -0.29,3.64 -0.44,7.33 -0.44,11.07 0,3.77 0.15,7.5 0.44,11.22 0.32,3.71 0.64,6.75 0.95,9.09 l -3.52,0.26 c -2.66,-8.31 -7.82,-12.47 -15.47,-12.47 h -30.03 c -3.13,0 -6.11,0.82 -8.95,2.46 -2.81,1.66 -5,5 -6.56,10.01 l -3.52,-0.26 c 0.32,-2.95 0.64,-6.15 0.95,-9.57 0.32,-3.4 0.48,-6.97 0.48,-10.74 0,-3.74 -0.16,-7.43 -0.48,-11.07 -0.31,-3.644 -0.63,-6.797 -0.95,-9.461 l 3.52,-0.257 c 1.74,5.011 3.97,8.338 6.71,9.968 2.74,1.66 5.91,2.5 9.49,2.5 h 29.34 c 3.27,0 6.28,-0.87 9.02,-2.61 2.74,-1.71 4.89,-4.995 6.45,-9.858 l 3.52,0.257"
         style="fill:#000000;fill-opacity:1;fill-rule:nonzero;stroke:none"
         id="path493" />
    </g>
  </g>
</svg>
