<?xml version="1.0" encoding="UTF-8" standalone="no"?>
<!-- Created with Inkscape (http://www.inkscape.org/) -->

<svg
   xmlns:dc="http://purl.org/dc/elements/1.1/"
   xmlns:cc="http://creativecommons.org/ns#"
   xmlns:rdf="http://www.w3.org/1999/02/22-rdf-syntax-ns#"
   xmlns:svg="http://www.w3.org/2000/svg"
   xmlns="http://www.w3.org/2000/svg"
   xmlns:sodipodi="http://sodipodi.sourceforge.net/DTD/sodipodi-0.dtd"
   xmlns:inkscape="http://www.inkscape.org/namespaces/inkscape"
   id="svg2"
   version="1.1"
   inkscape:version="0.91 r13725"
   xml:space="preserve"
   width="901.25"
   height="377.5"
   viewBox="0 0 901.25 377.5"
   sodipodi:docname="angle_labels.svg"><metadata
     id="metadata8"><rdf:RDF><cc:Work
         rdf:about=""><dc:format>image/svg+xml</dc:format><dc:type
           rdf:resource="http://purl.org/dc/dcmitype/StillImage" /><dc:title></dc:title></cc:Work></rdf:RDF></metadata><defs
     id="defs6" /><sodipodi:namedview
     pagecolor="#ffffff"
     bordercolor="#666666"
     borderopacity="1"
     objecttolerance="10"
     gridtolerance="10"
     guidetolerance="10"
     inkscape:pageopacity="0"
     inkscape:pageshadow="2"
     inkscape:window-width="640"
     inkscape:window-height="480"
     id="namedview4"
     showgrid="false"
     inkscape:zoom="0.38058252"
     inkscape:cx="450.625"
     inkscape:cy="188.75"
     inkscape:window-x="133"
     inkscape:window-y="116"
     inkscape:window-maximized="0"
     inkscape:current-layer="g10" /><g
     id="g10"
     inkscape:groupmode="layer"
     inkscape:label="angle_labels"
     transform="matrix(1.25,0,0,-1.25,0,377.5)"><g
       id="g12"
       transform="scale(0.1,0.1)"><path
         d="m 3670.81,613.691 779.516,0 0,1799.97 -779.516,0 0,-1799.97 z"
         style="fill:#d8e5e5;fill-opacity:1;fill-rule:nonzero;stroke:none"
         id="path14"
         inkscape:connector-curvature="0" /><path
         d="m 3670.81,613.691 779.516,0 0,1799.97 -779.516,0 0,-1799.97 z"
         style="fill:none;stroke:#000000;stroke-width:28.34600067;stroke-linecap:butt;stroke-linejoin:miter;stroke-miterlimit:10;stroke-dasharray:none;stroke-opacity:1"
         id="path16"
         inkscape:connector-curvature="0" /><path
         d="M 4832.99,2697.12 4450.32,2413.66"
         style="fill:none;stroke:#000000;stroke-width:28.34600067;stroke-linecap:butt;stroke-linejoin:miter;stroke-miterlimit:10;stroke-dasharray:none;stroke-opacity:1"
         id="path18"
         inkscape:connector-curvature="0" /><path
         d="m 4832.99,2697.12 c 12.66,-17.08 8.23,-46.82 -8.85,-59.47 -17.09,-12.66 -46.82,-8.23 -59.48,8.85 -12.65,17.09 -8.23,46.82 8.86,59.48 17.08,12.66 46.82,8.23 59.47,-8.86"
         style="fill:#000000;fill-opacity:1;fill-rule:evenodd;stroke:none"
         id="path20"
         inkscape:connector-curvature="0" /><path
         d="m 4832.99,2697.12 c 12.66,-17.08 8.23,-46.82 -8.85,-59.47 -17.09,-12.66 -46.82,-8.23 -59.48,8.85 -12.65,17.09 -8.23,46.82 8.86,59.48 17.08,12.66 46.82,8.23 59.47,-8.86"
         style="fill:none;stroke:#000000;stroke-width:28.34600067;stroke-linecap:butt;stroke-linejoin:miter;stroke-miterlimit:10;stroke-dasharray:none;stroke-opacity:1"
         id="path22"
         inkscape:connector-curvature="0" /><path
         d="m 3777.11,2371.14 c 0,-58.7 -41.25,-106.3 -92.13,-106.3 -50.88,0 -92.12,47.6 -92.12,106.3 0,58.71 41.24,106.3 92.12,106.3 50.88,0 92.13,-47.59 92.13,-106.3"
         style="fill:#0000ff;fill-opacity:1;fill-rule:nonzero;stroke:none"
         id="path24"
         inkscape:connector-curvature="0" /><path
         d="m 3777.11,2371.14 c 0,-58.7 -41.25,-106.3 -92.13,-106.3 -50.88,0 -92.12,47.6 -92.12,106.3 0,58.71 41.24,106.3 92.12,106.3 50.88,0 92.13,-47.59 92.13,-106.3 z"
         style="fill:none;stroke:#0000ff;stroke-width:28.34600067;stroke-linecap:butt;stroke-linejoin:miter;stroke-miterlimit:10;stroke-dasharray:none;stroke-opacity:1"
         id="path26"
         inkscape:connector-curvature="0" /><path
         d="m 3164.69,447.98 380.55,152.571"
         style="fill:none;stroke:#000000;stroke-width:28.34600067;stroke-linecap:butt;stroke-linejoin:miter;stroke-miterlimit:10;stroke-dasharray:none;stroke-opacity:1"
         id="path28"
         inkscape:connector-curvature="0" /><path
         d="m 3164.69,447.98 c -7.91,19.735 3.91,47.375 23.64,55.29 19.74,7.91 47.38,-3.911 55.29,-23.645 7.91,-19.73 -3.91,-47.375 -23.64,-55.289 -19.73,-7.91 -47.38,3.91 -55.29,23.644"
         style="fill:#000000;fill-opacity:1;fill-rule:evenodd;stroke:none"
         id="path30"
         inkscape:connector-curvature="0" /><path
         d="m 3164.69,447.98 c -7.91,19.735 3.91,47.375 23.64,55.29 19.74,7.91 47.38,-3.911 55.29,-23.645 7.91,-19.73 -3.91,-47.375 -23.64,-55.289 -19.73,-7.91 -47.38,3.91 -55.29,23.644"
         style="fill:none;stroke:#000000;stroke-width:28.34600067;stroke-linecap:butt;stroke-linejoin:miter;stroke-miterlimit:10;stroke-dasharray:none;stroke-opacity:1"
         id="path32"
         inkscape:connector-curvature="0" /><path
         d="m 3737.31,640.621 c 0,-58.703 -41.25,-106.297 -92.13,-106.297 -50.88,0 -92.12,47.594 -92.12,106.297 0,58.703 41.24,106.297 92.12,106.297 50.88,0 92.13,-47.594 92.13,-106.297"
         style="fill:#0000ff;fill-opacity:1;fill-rule:nonzero;stroke:none"
         id="path34"
         inkscape:connector-curvature="0" /><path
         d="m 3737.31,640.621 c 0,-58.703 -41.25,-106.297 -92.13,-106.297 -50.88,0 -92.12,47.594 -92.12,106.297 0,58.703 41.24,106.297 92.12,106.297 50.88,0 92.13,-47.594 92.13,-106.297 z"
         style="fill:none;stroke:#0000ff;stroke-width:28.34600067;stroke-linecap:butt;stroke-linejoin:miter;stroke-miterlimit:10;stroke-dasharray:none;stroke-opacity:1"
         id="path36"
         inkscape:connector-curvature="0" /><path
         d="m 3273.96,2626.26 345.88,-179.95"
         style="fill:none;stroke:#000000;stroke-width:28.34600067;stroke-linecap:butt;stroke-linejoin:miter;stroke-miterlimit:10;stroke-dasharray:none;stroke-opacity:1"
         id="path38"
         inkscape:connector-curvature="0" /><path
         d="m 3273.96,2626.26 c 9.82,18.86 38.49,27.9 57.35,18.09 18.86,-9.81 27.9,-38.48 18.09,-57.34 -9.81,-18.86 -38.48,-27.91 -57.34,-18.1 -18.86,9.82 -27.91,38.49 -18.1,57.35"
         style="fill:#000000;fill-opacity:1;fill-rule:evenodd;stroke:none"
         id="path40"
         inkscape:connector-curvature="0" /><path
         d="m 3273.96,2626.26 c 9.82,18.86 38.49,27.9 57.35,18.09 18.86,-9.81 27.9,-38.48 18.09,-57.34 -9.81,-18.86 -38.48,-27.91 -57.34,-18.1 -18.86,9.82 -27.91,38.49 -18.1,57.35"
         style="fill:none;stroke:#000000;stroke-width:28.34600067;stroke-linecap:butt;stroke-linejoin:miter;stroke-miterlimit:10;stroke-dasharray:none;stroke-opacity:1"
         id="path42"
         inkscape:connector-curvature="0" /><path
         d="M 4450.32,613.691 4864.77,415.723"
         style="fill:none;stroke:#000000;stroke-width:28.34600067;stroke-linecap:butt;stroke-linejoin:miter;stroke-miterlimit:10;stroke-dasharray:none;stroke-opacity:1"
         id="path44"
         inkscape:connector-curvature="0" /><path
         d="m 4864.77,415.723 c -9.16,-19.184 -37.51,-29.203 -56.69,-20.039 -19.19,9.164 -29.21,37.507 -20.04,56.691 9.16,19.184 37.51,29.203 56.69,20.039 19.18,-9.16 29.2,-37.508 20.04,-56.691"
         style="fill:#000000;fill-opacity:1;fill-rule:evenodd;stroke:none"
         id="path46"
         inkscape:connector-curvature="0" /><path
         d="m 4864.77,415.723 c -9.16,-19.184 -37.51,-29.203 -56.69,-20.039 -19.19,9.164 -29.21,37.507 -20.04,56.691 9.16,19.184 37.51,29.203 56.69,20.039 19.18,-9.16 29.2,-37.508 20.04,-56.691"
         style="fill:none;stroke:#000000;stroke-width:28.34600067;stroke-linecap:butt;stroke-linejoin:miter;stroke-miterlimit:10;stroke-dasharray:none;stroke-opacity:1"
         id="path48"
         inkscape:connector-curvature="0" /><path
         d="m 4528.27,2371.14 c 0,-58.7 -41.24,-106.3 -92.12,-106.3 -50.88,0 -92.13,47.6 -92.13,106.3 0,58.71 41.25,106.3 92.13,106.3 50.88,0 92.12,-47.59 92.12,-106.3"
         style="fill:#0000ff;fill-opacity:1;fill-rule:nonzero;stroke:none"
         id="path50"
         inkscape:connector-curvature="0" /><path
         d="m 4528.27,2371.14 c 0,-58.7 -41.24,-106.3 -92.12,-106.3 -50.88,0 -92.13,47.6 -92.13,106.3 0,58.71 41.25,106.3 92.13,106.3 50.88,0 92.12,-47.59 92.12,-106.3 z"
         style="fill:none;stroke:#0000ff;stroke-width:28.34600067;stroke-linecap:butt;stroke-linejoin:miter;stroke-miterlimit:10;stroke-dasharray:none;stroke-opacity:1"
         id="path52"
         inkscape:connector-curvature="0" /><path
         d="m 4528.27,642.039 c 0,-58.707 -41.24,-106.301 -92.12,-106.301 -50.88,0 -92.13,47.594 -92.13,106.301 0,58.703 41.25,106.297 92.13,106.297 50.88,0 92.12,-47.594 92.12,-106.297"
         style="fill:#0000ff;fill-opacity:1;fill-rule:nonzero;stroke:none"
         id="path54"
         inkscape:connector-curvature="0" /><path
         d="m 4528.27,642.039 c 0,-58.707 -41.24,-106.301 -92.12,-106.301 -50.88,0 -92.13,47.594 -92.13,106.301 0,58.703 41.25,106.297 92.13,106.297 50.88,0 92.12,-47.594 92.12,-106.297 z"
         style="fill:none;stroke:#0000ff;stroke-width:28.34600067;stroke-linecap:butt;stroke-linejoin:miter;stroke-miterlimit:10;stroke-dasharray:none;stroke-opacity:1"
         id="path56"
         inkscape:connector-curvature="0" /><path
         d="M 165.711,2214.98 1764.77,2652.93"
         style="fill:none;stroke:#000000;stroke-width:28.34600067;stroke-linecap:butt;stroke-linejoin:miter;stroke-miterlimit:10;stroke-dasharray:none;stroke-opacity:1"
         id="path58"
         inkscape:connector-curvature="0" /><path
         d="m 165.711,2214.98 c -5.617,20.5 9.273,46.63 29.777,52.24 20.504,5.62 46.625,-9.27 52.239,-29.78 5.617,-20.5 -9.27,-46.62 -29.778,-52.24 -20.504,-5.61 -46.621,9.28 -52.238,29.78"
         style="fill:#000000;fill-opacity:1;fill-rule:evenodd;stroke:none"
         id="path60"
         inkscape:connector-curvature="0" /><path
         d="m 165.711,2214.98 c -5.617,20.5 9.273,46.63 29.777,52.24 20.504,5.62 46.625,-9.27 52.239,-29.78 5.617,-20.5 -9.27,-46.62 -29.778,-52.24 -20.504,-5.61 -46.621,9.28 -52.238,29.78"
         style="fill:none;stroke:#000000;stroke-width:28.34600067;stroke-linecap:butt;stroke-linejoin:miter;stroke-miterlimit:10;stroke-dasharray:none;stroke-opacity:1"
         id="path62"
         inkscape:connector-curvature="0" /><path
         d="m 1764.77,2652.93 c 5.61,-20.5 -9.28,-46.63 -29.78,-52.24 -20.51,-5.62 -46.63,9.27 -52.24,29.78 -5.62,20.5 9.27,46.62 29.77,52.24 20.51,5.61 46.63,-9.28 52.25,-29.78"
         style="fill:#000000;fill-opacity:1;fill-rule:evenodd;stroke:none"
         id="path64"
         inkscape:connector-curvature="0" /><path
         d="m 1764.77,2652.93 c 5.61,-20.5 -9.28,-46.63 -29.78,-52.24 -20.51,-5.62 -46.63,9.27 -52.24,29.78 -5.62,20.5 9.27,46.62 29.77,52.24 20.51,5.61 46.63,-9.28 52.25,-29.78"
         style="fill:none;stroke:#000000;stroke-width:28.34600067;stroke-linecap:butt;stroke-linejoin:miter;stroke-miterlimit:10;stroke-dasharray:none;stroke-opacity:1"
         id="path66"
         inkscape:connector-curvature="0" /><path
         d="m 1044.66,2431.83 c 0,-58.7 -41.24,-106.29 -92.121,-106.29 -50.879,0 -92.125,47.59 -92.125,106.29 0,58.71 41.246,106.3 92.125,106.3 50.881,0 92.121,-47.59 92.121,-106.3"
         style="fill:#0000ff;fill-opacity:1;fill-rule:nonzero;stroke:none"
         id="path68"
         inkscape:connector-curvature="0" /><path
         d="m 1044.66,2431.83 c 0,-58.7 -41.24,-106.29 -92.121,-106.29 -50.879,0 -92.125,47.59 -92.125,106.29 0,58.71 41.246,106.3 92.125,106.3 50.881,0 92.121,-47.59 92.121,-106.3 z"
         style="fill:none;stroke:#0000ff;stroke-width:28.34600067;stroke-linecap:butt;stroke-linejoin:miter;stroke-miterlimit:10;stroke-dasharray:none;stroke-opacity:1"
         id="path70"
         inkscape:connector-curvature="0" /><path
         d="M 163.23,959.258 1876.96,340.352"
         style="fill:none;stroke:#000000;stroke-width:28.34600067;stroke-linecap:butt;stroke-linejoin:miter;stroke-miterlimit:10;stroke-dasharray:none;stroke-opacity:1"
         id="path72"
         inkscape:connector-curvature="0" /><path
         d="m 163.23,959.258 c 7.223,19.996 34.438,32.769 54.434,25.547 19.996,-7.219 32.77,-34.438 25.547,-54.434 -7.219,-19.996 -34.438,-32.769 -54.434,-25.547 -19.992,7.223 -32.769,34.438 -25.547,54.434"
         style="fill:#000000;fill-opacity:1;fill-rule:evenodd;stroke:none"
         id="path74"
         inkscape:connector-curvature="0" /><path
         d="m 163.23,959.258 c 7.223,19.996 34.438,32.769 54.434,25.547 19.996,-7.219 32.77,-34.438 25.547,-54.434 -7.219,-19.996 -34.438,-32.769 -54.434,-25.547 -19.992,7.223 -32.769,34.438 -25.547,54.434"
         style="fill:none;stroke:#000000;stroke-width:28.34600067;stroke-linecap:butt;stroke-linejoin:miter;stroke-miterlimit:10;stroke-dasharray:none;stroke-opacity:1"
         id="path76"
         inkscape:connector-curvature="0" /><path
         d="m 1876.96,340.352 c -7.22,-19.997 -34.44,-32.77 -54.44,-25.551 -19.99,7.222 -32.77,34.441 -25.54,54.433 7.22,19.996 34.43,32.77 54.43,25.551 20,-7.223 32.77,-34.437 25.55,-54.433"
         style="fill:#000000;fill-opacity:1;fill-rule:evenodd;stroke:none"
         id="path78"
         inkscape:connector-curvature="0" /><path
         d="m 1876.96,340.352 c -7.22,-19.997 -34.44,-32.77 -54.44,-25.551 -19.99,7.222 -32.77,34.441 -25.54,54.433 7.22,19.996 34.43,32.77 54.43,25.551 20,-7.223 32.77,-34.437 25.55,-54.433"
         style="fill:none;stroke:#000000;stroke-width:28.34600067;stroke-linecap:butt;stroke-linejoin:miter;stroke-miterlimit:10;stroke-dasharray:none;stroke-opacity:1"
         id="path80"
         inkscape:connector-curvature="0" /><path
         d="m 1044.66,646.035 c 0,-58.703 -41.24,-106.297 -92.121,-106.297 -50.879,0 -92.125,47.594 -92.125,106.297 0,58.703 41.246,106.297 92.125,106.297 50.881,0 92.121,-47.594 92.121,-106.297"
         style="fill:#0000ff;fill-opacity:1;fill-rule:nonzero;stroke:none"
         id="path82"
         inkscape:connector-curvature="0" /><path
         d="m 1044.66,646.035 c 0,-58.703 -41.24,-106.297 -92.121,-106.297 -50.879,0 -92.125,47.594 -92.125,106.297 0,58.703 41.246,106.297 92.125,106.297 50.881,0 92.121,-47.594 92.121,-106.297 z"
         style="fill:none;stroke:#0000ff;stroke-width:28.34600067;stroke-linecap:butt;stroke-linejoin:miter;stroke-miterlimit:10;stroke-dasharray:none;stroke-opacity:1"
         id="path84"
         inkscape:connector-curvature="0" /><path
         d="m 952.539,2311.69 0,-1559.358"
         style="fill:none;stroke:#000000;stroke-width:28.34600067;stroke-linecap:butt;stroke-linejoin:miter;stroke-miterlimit:10;stroke-dasharray:none;stroke-opacity:1"
         id="path86"
         inkscape:connector-curvature="0" /><path
         d="m 1058.8,2431.39 780.34,-3.25"
         style="fill:none;stroke:#000000;stroke-width:28.34600067;stroke-linecap:butt;stroke-linejoin:miter;stroke-miterlimit:10;stroke-dasharray:56.692;stroke-dashoffset:0;stroke-opacity:1"
         id="path88"
         inkscape:connector-curvature="0" /><path
         d="m 1881.66,2427.97 -56.8,-28.11 14.28,28.28 -14.05,28.41"
         style="fill:#000000;fill-opacity:1;fill-rule:evenodd;stroke:none"
         id="path90"
         inkscape:connector-curvature="0" /><path
         d="m 1881.66,2427.97 -56.8,-28.11 14.28,28.28 -14.05,28.41 56.57,-28.58 z"
         style="fill:none;stroke:#000000;stroke-width:28.34600067;stroke-linecap:butt;stroke-linejoin:miter;stroke-miterlimit:10;stroke-dasharray:none;stroke-opacity:1"
         id="path92"
         inkscape:connector-curvature="0" /><path
         d="m 1058.91,646.289 737.69,1.777"
         style="fill:none;stroke:#000000;stroke-width:28.34600067;stroke-linecap:butt;stroke-linejoin:miter;stroke-miterlimit:10;stroke-dasharray:56.692;stroke-dashoffset:0;stroke-opacity:1"
         id="path94"
         inkscape:connector-curvature="0" /><path
         d="m 1839.12,648.168 -56.63,-28.48 14.11,28.378 -14.24,28.313"
         style="fill:#000000;fill-opacity:1;fill-rule:evenodd;stroke:none"
         id="path96"
         inkscape:connector-curvature="0" /><path
         d="m 1839.12,648.168 -56.63,-28.48 14.11,28.378 -14.24,28.313 56.76,-28.211 z"
         style="fill:none;stroke:#000000;stroke-width:28.34600067;stroke-linecap:butt;stroke-linejoin:miter;stroke-miterlimit:10;stroke-dasharray:none;stroke-opacity:1"
         id="path98"
         inkscape:connector-curvature="0" /><path
         d="m 4541.68,2371.9 684.78,4.92"
         style="fill:none;stroke:#000000;stroke-width:28.34600067;stroke-linecap:butt;stroke-linejoin:miter;stroke-miterlimit:10;stroke-dasharray:56.692;stroke-dashoffset:0;stroke-opacity:1"
         id="path100"
         inkscape:connector-curvature="0" /><path
         d="m 5268.98,2377.12 -56.48,-28.75 13.96,28.45 -14.37,28.24"
         style="fill:#000000;fill-opacity:1;fill-rule:evenodd;stroke:none"
         id="path102"
         inkscape:connector-curvature="0" /><path
         d="m 5268.98,2377.12 -56.48,-28.75 13.96,28.45 -14.37,28.24 56.89,-27.94 z"
         style="fill:none;stroke:#000000;stroke-width:28.34600067;stroke-linecap:butt;stroke-linejoin:miter;stroke-miterlimit:10;stroke-dasharray:none;stroke-opacity:1"
         id="path104"
         inkscape:connector-curvature="0" /><path
         d="m 4528.27,642.039 736.47,-11.101"
         style="fill:none;stroke:#000000;stroke-width:28.34600067;stroke-linecap:butt;stroke-linejoin:miter;stroke-miterlimit:10;stroke-dasharray:56.692;stroke-dashoffset:0;stroke-opacity:1"
         id="path106"
         inkscape:connector-curvature="0" /><path
         d="m 5307.25,630.297 -57.11,-27.488 14.6,28.129 -13.74,28.558"
         style="fill:#000000;fill-opacity:1;fill-rule:evenodd;stroke:none"
         id="path108"
         inkscape:connector-curvature="0" /><path
         d="m 5307.25,630.297 -57.11,-27.488 14.6,28.129 -13.74,28.558 56.25,-29.199 z"
         style="fill:none;stroke:#000000;stroke-width:28.34600067;stroke-linecap:butt;stroke-linejoin:miter;stroke-miterlimit:10;stroke-dasharray:none;stroke-opacity:1"
         id="path110"
         inkscape:connector-curvature="0" /><path
         d="m 2867.77,643.051 724.19,-2.266"
         style="fill:none;stroke:#000000;stroke-width:28.34600067;stroke-linecap:butt;stroke-linejoin:miter;stroke-miterlimit:10;stroke-dasharray:56.692;stroke-dashoffset:0;stroke-opacity:1"
         id="path112"
         inkscape:connector-curvature="0" /><path
         d="m 2825.25,643.184 56.78,28.171 -14.26,-28.304 14.08,-28.391"
         style="fill:#000000;fill-opacity:1;fill-rule:evenodd;stroke:none"
         id="path114"
         inkscape:connector-curvature="0" /><path
         d="m 2825.25,643.184 56.78,28.171 -14.26,-28.304 14.08,-28.391 -56.6,28.524 z"
         style="fill:none;stroke:#000000;stroke-width:28.34600067;stroke-linecap:butt;stroke-linejoin:miter;stroke-miterlimit:10;stroke-dasharray:none;stroke-opacity:1"
         id="path116"
         inkscape:connector-curvature="0" /><path
         d="m 2890.44,2364.65 688.28,5.62"
         style="fill:none;stroke:#000000;stroke-width:28.34600067;stroke-linecap:butt;stroke-linejoin:miter;stroke-miterlimit:10;stroke-dasharray:56.692;stroke-dashoffset:0;stroke-opacity:1"
         id="path118"
         inkscape:connector-curvature="0" /><path
         d="m 2847.92,2364.3 56.46,28.81 -13.94,-28.46 14.4,-28.23"
         style="fill:#000000;fill-opacity:1;fill-rule:evenodd;stroke:none"
         id="path120"
         inkscape:connector-curvature="0" /><path
         d="m 2847.92,2364.3 56.46,28.81 -13.94,-28.46 14.4,-28.23 -56.92,27.88 z"
         style="fill:none;stroke:#000000;stroke-width:28.34600067;stroke-linecap:butt;stroke-linejoin:miter;stroke-miterlimit:10;stroke-dasharray:none;stroke-opacity:1"
         id="path122"
         inkscape:connector-curvature="0" /><path
         d="m 5018.77,2516.08 -4.95,0 c -0.57,-5.67 -1.5,-9.79 -2.79,-12.36 -1.27,-2.56 -2.63,-4.58 -4.07,-6.05 -0.93,-0.9 -2.08,-1.77 -3.45,-2.6 -1.37,-0.83 -2.7,-1.25 -3.99,-1.25 -3.11,0 -5.9,0.89 -8.36,2.68 -2.47,1.8 -4.62,4.12 -6.46,6.93 -1.83,2.81 -3.35,5.96 -4.54,9.46 -1.18,3.49 -2.05,6.87 -2.61,10.12 l 31.57,81.1 -24.12,0 -17.61,-48.87 -0.55,0 c -1.29,8.77 -3.45,16.41 -6.48,22.91 -3.01,6.51 -6.58,11.94 -10.71,16.32 -4.13,4.4 -8.73,7.1 -13.79,8.1 -5.03,1.03 -10.31,1.54 -15.84,1.54 -4.57,0 -8.73,-0.31 -12.5,-0.95 -3.77,-0.61 -7.31,-1.64 -10.63,-3.08 -3.3,-1.42 -6.52,-3.2 -9.65,-5.35 -3.1,-2.13 -6.3,-4.79 -9.6,-8 -7,-6.77 -11.87,-14.61 -14.63,-23.53 -2.74,-8.9 -4.11,-19.4 -4.11,-31.5 0,-22.47 6.06,-39.58 18.19,-51.34 4.57,-4.45 10.2,-8 16.9,-10.66 6.72,-2.7 13.56,-4.04 20.53,-4.04 7.53,0 15.24,2.1 23.14,6.31 7.89,4.23 14.23,8.73 18.99,13.49 4.4,4.38 7.62,8.58 9.65,12.61 2.02,4.04 3.86,7.52 5.5,10.45 1.46,-4.03 3.11,-8.29 4.95,-12.79 1.83,-4.48 3.83,-8.59 6.01,-12.36 2.2,-3.74 4.63,-6.84 7.29,-9.31 2.67,-2.47 5.56,-3.7 8.66,-3.7 2.74,0 5.29,0.98 7.66,2.96 2.4,1.98 4.46,4.52 6.2,7.59 1.73,3.11 3.1,6.4 4.11,9.87 1.02,3.49 1.53,6.62 1.53,9.38 l 0.56,15.92 m -58.97,14.81 -7.48,-19.14 c -2.05,-4.98 -4.52,-9.94 -7.4,-14.85 -2.86,-4.91 -5.77,-8.75 -8.73,-11.51 -2.76,-2.57 -5.77,-4.55 -9.02,-5.94 -3.22,-1.37 -6.32,-2.06 -9.28,-2.06 -4.44,0 -8.81,1.39 -13.09,4.15 -4.25,2.76 -7.67,6.64 -10.26,11.62 -2.59,4.64 -4.49,10.84 -5.68,18.59 -1.2,7.75 -1.8,15.68 -1.8,23.8 0,7.4 0.7,14.76 2.09,22.07 1.39,7.33 3.57,13.75 6.53,19.25 2.02,3.96 4.75,7.53 8.17,10.71 3.42,3.2 7.46,4.8 12.1,4.8 4.43,0 8.76,-0.78 13.02,-2.34 4.28,-1.55 8.36,-4.13 12.24,-7.74 2.77,-2.59 5.08,-5.44 6.93,-8.55 1.86,-3.08 3.48,-6.6 4.84,-10.55 1.4,-3.97 2.61,-8.62 3.63,-13.98 1.03,-5.33 2.1,-11.43 3.19,-18.33"
         style="fill:#000000;fill-opacity:1;fill-rule:nonzero;stroke:none"
         id="path124"
         inkscape:connector-curvature="0" /><path
         d="m 3131.3,2483.53 c 0,14.28 -3.03,27.26 -9.09,38.94 -6.06,11.69 -15.41,20.32 -28.05,25.89 0.9,0.73 2.14,1.75 3.7,3.04 1.57,1.32 3.17,2.81 4.8,4.48 1.64,1.66 3.25,3.5 4.81,5.53 1.57,2.05 2.9,4.11 3.99,6.16 1.47,2.59 2.79,5.93 3.97,10.01 1.19,4.08 1.79,8.07 1.79,11.96 0,8.16 -2.47,15.53 -7.4,22.1 -4.92,6.6 -11.3,11.85 -19.14,15.74 -9.12,4.64 -18.51,6.96 -28.16,6.96 -4.75,0 -9.09,-0.51 -13.02,-1.54 -3.91,-1 -7.5,-2.35 -10.78,-4.03 -9.85,-5.01 -16.83,-10.63 -20.93,-16.83 -4.11,-6.21 -6.17,-12.93 -6.17,-20.17 l 0,-182.08 c 0,-7.51 -0.55,-14.87 -1.65,-22.08 -1.09,-7.23 -2.01,-14.15 -2.75,-20.75 l 23.8,0 c 0.37,3.47 0.82,6.95 1.36,10.45 0.56,3.47 0.84,6.76 0.84,9.86 l 0.55,51.26 c 8.19,-5.91 15.64,-9.93 22.37,-12.06 6.74,-2.15 13.94,-3.23 21.59,-3.23 7.85,0 15.1,1.49 21.75,4.48 6.64,2.95 12.29,7.12 16.93,12.5 4.65,5.38 8.29,11.73 10.93,19.06 2.64,7.34 3.96,15.45 3.96,24.35 m -28.16,-4.84 c 0,-9.97 -1.06,-17.55 -3.19,-22.73 -2.1,-5.18 -4.65,-9.35 -7.66,-12.5 -2.47,-2.57 -5.56,-4.65 -9.28,-6.24 -3.71,-1.56 -7.5,-2.34 -11.37,-2.34 -5.64,0 -11.34,1.06 -17.08,3.19 -5.74,2.12 -10.56,5.22 -14.45,9.27 -0.88,0.93 -1.72,1.76 -2.53,2.5 -0.78,0.75 -1.61,1.59 -2.49,2.49 l 0,140.32 c 0,2.79 0.61,5.88 1.83,9.28 1.25,3.42 3.01,6.66 5.28,9.71 2.3,3.06 5.07,5.65 8.33,7.78 3.27,2.12 6.94,3.19 11,3.19 3.71,0 7.36,-0.88 10.96,-2.64 3.62,-1.76 6.8,-4.31 9.53,-7.63 2.74,-3.32 4.99,-7.44 6.75,-12.36 1.76,-4.89 2.64,-10.47 2.64,-16.75 0,-3.52 -0.37,-7.13 -1.1,-10.82 -0.74,-3.69 -1.65,-6.65 -2.75,-8.87 -1.47,-3.13 -3.22,-5.76 -5.24,-7.88 -2.01,-2.13 -3.93,-3.2 -5.76,-3.2 -1.1,0 -3.17,0.32 -6.2,0.96 -3,0.66 -5.61,0.99 -7.81,0.99 -4.2,0 -7.32,-1.07 -9.35,-3.19 -2,-2.13 -3,-4.4 -3,-6.82 0,-1.67 0.91,-3.33 2.75,-4.99 1.83,-1.66 4.85,-2.49 9.05,-2.49 2.2,0 4.49,0.18 6.86,0.55 2.39,0.37 4.33,0.55 5.79,0.55 1.83,0 3.49,-0.28 4.95,-0.84 1.47,-0.54 3.29,-1.93 5.47,-4.15 4.93,-4.99 9.18,-12.24 12.72,-21.78 3.57,-9.51 5.35,-20.36 5.35,-32.56"
         style="fill:#000000;fill-opacity:1;fill-rule:nonzero;stroke:none"
         id="path126"
         inkscape:connector-curvature="0" /><path
         d="m 3067.02,534.855 -28.56,0 -31.06,-96.652 -0.55,0 c -1.12,7.504 -2.56,15.324 -4.33,23.465 -1.73,8.164 -3.33,15.449 -4.8,21.855 -1.83,8.239 -3.49,15.055 -4.99,20.457 -1.46,5.403 -3.48,10.758 -6.05,16.063 -2.93,5.84 -6.23,9.766 -9.89,11.769 -3.67,2.028 -8.34,3.043 -14.01,3.043 -4.74,0 -9,-1.113 -12.76,-3.335 -3.74,-2.204 -6.63,-5.598 -8.66,-10.196 -1.27,-2.613 -2.6,-6.66 -3.99,-12.136 -1.37,-5.473 -2.05,-11.782 -2.05,-18.918 l 0,-7.407 4.69,0 c 0.17,5.11 0.7,9.446 1.61,13.016 0.93,3.57 2.86,6.82 5.79,9.754 3.84,3.836 8.05,5.754 12.62,5.754 2.93,0 6.13,-0.965 9.6,-2.895 3.5,-1.906 6.25,-4.961 8.25,-9.168 2.21,-4.398 4.35,-9.668 6.46,-15.801 2.1,-6.113 4.12,-12.921 6.05,-20.425 1.95,-7.504 3.71,-15.559 5.28,-24.16 1.56,-8.606 2.89,-17.493 3.99,-26.657 -1.46,-3.472 -3.12,-7.629 -4.98,-12.469 -1.84,-4.863 -3.63,-9.949 -5.39,-15.253 -1.74,-5.305 -3.2,-10.657 -4.4,-16.059 -1.2,-5.402 -1.8,-10.488 -1.8,-15.254 0,-5.305 1.2,-9.824 3.59,-13.566 2.4,-3.766 5.99,-5.645 10.78,-5.645 3.31,0 5.97,0.781 8,2.344 2.02,1.543 3.86,3.961 5.5,7.262 1.49,3.129 2.68,6.894 3.59,11.293 0.93,4.375 1.4,9.312 1.4,14.812 0,7.137 -0.52,14.094 -1.55,20.863 -1,6.77 -2.15,13.813 -3.44,21.121 l 56.06,123.125"
         style="fill:#000000;fill-opacity:1;fill-rule:nonzero;stroke:none"
         id="path128"
         inkscape:connector-curvature="0" /><path
         d="m 5106.14,421.605 c 0,10.954 -2,20.903 -5.98,29.848 -3.98,8.973 -9.14,16.66 -15.47,23.063 -3.26,3.277 -6.37,6.148 -9.35,8.617 -2.98,2.469 -5.83,4.656 -8.55,6.562 -2.71,1.934 -5.39,3.668 -8.03,5.207 -2.61,1.567 -5.28,3.18 -7.99,4.84 -5.25,3.278 -10.28,6.563 -15.07,9.863 -4.79,3.301 -9.26,7.051 -13.42,11.258 -1.98,2.004 -3.66,4.141 -5.02,6.414 -1.35,2.301 -2.02,4.719 -2.02,7.262 0,3.836 1.26,7.039 3.78,9.606 2,2.003 4.31,3.644 6.93,4.914 2.61,1.296 5.64,1.945 9.09,1.945 2.17,0 5.48,-0.602 9.9,-1.797 4.42,-1.199 8.63,-3.805 12.61,-7.812 1.64,-1.661 3.45,-3.543 5.43,-5.645 2,-2.102 4.04,-4.07 6.12,-5.906 2.08,-1.832 4.24,-3.395 6.49,-4.692 2.28,-1.269 4.67,-1.906 7.19,-1.906 2.91,0 5.67,1.051 8.29,3.152 2.64,2.129 3.96,4.743 3.96,7.848 0,5.133 -2.28,9.84 -6.82,14.117 -4.53,4.301 -11.93,8.114 -22.22,11.438 -1.64,0.586 -3.63,1.027 -5.98,1.32 -2.35,0.293 -4.71,0.586 -7.08,0.879 -2.34,0.297 -4.55,0.492 -6.63,0.59 -2.08,0.098 -3.67,0.144 -4.77,0.144 -4.15,0 -8.09,-0.281 -11.81,-0.843 -3.69,-0.536 -7.07,-1.539 -10.15,-3.004 -1.81,-0.93 -3.8,-2.227 -5.98,-3.887 -2.18,-1.641 -3.89,-3.094 -5.13,-4.363 -2.55,-2.567 -4.23,-4.953 -5.06,-7.153 -0.81,-2.199 -1.21,-4.679 -1.21,-7.441 0,-3.668 0.95,-7.883 2.86,-12.652 1.9,-4.766 4.85,-8.981 8.83,-12.649 l 30.91,-28.637 c -17.18,-5.304 -30.56,-12.82 -40.15,-22.55 -5.62,-5.696 -10.05,-12.539 -13.31,-20.532 -3.25,-7.968 -4.87,-15.988 -4.87,-24.054 0,-3.86 0.45,-8.176 1.35,-12.942 0.91,-4.765 2.63,-9.8 5.17,-15.105 3.97,-8.094 8.44,-14.254 13.42,-18.481 4.99,-4.207 10.1,-7.589 15.33,-10.156 3.25,-1.64 6.95,-2.777 11.11,-3.41 4.18,-0.66 7.53,-0.992 10.05,-0.992 3.81,0 7.79,0.418 11.95,1.246 4.16,0.809 8.04,2.129 11.66,3.961 5.43,2.738 10.54,6.074 15.33,10.012 4.81,3.933 9.03,8.503 12.65,13.71 3.61,5.208 6.46,11 8.54,17.383 2.08,6.403 3.12,13.539 3.12,21.41 m -25.82,-10.414 c 0,-7.699 -1.06,-14.847 -3.19,-21.449 -2.1,-6.574 -5.08,-11.781 -8.94,-15.617 -2.6,-2.566 -5.64,-4.633 -9.14,-6.199 -3.49,-1.539 -7.17,-2.309 -11.03,-2.309 -3.86,0 -7.18,0.551 -9.94,1.649 -2.76,1.101 -5.2,2.605 -7.33,4.511 -2.1,1.93 -3.93,4.032 -5.5,6.305 -1.56,2.301 -2.9,4.73 -4,7.297 -2.22,4.574 -3.88,9.926 -4.98,16.062 -1.1,6.133 -1.65,11.942 -1.65,17.414 0,6.602 0.59,12.786 1.79,18.555 1.2,5.77 3.27,10.988 6.2,15.656 2.96,4.668 6.87,8.692 11.73,12.063 4.89,3.398 11.11,5.918 18.67,7.555 4.22,-3.84 7.9,-7.872 11.03,-12.102 3.13,-4.203 5.98,-8.773 8.55,-13.711 2.59,-4.937 4.52,-10.574 5.79,-16.906 1.3,-6.305 1.94,-12.563 1.94,-18.774"
         style="fill:#000000;fill-opacity:1;fill-rule:nonzero;stroke:none"
         id="path130"
         inkscape:connector-curvature="0" /><path
         d="m 1971.57,2558.6 -4.95,0 c -0.56,-5.67 -1.49,-9.8 -2.79,-12.36 -1.27,-2.57 -2.62,-4.58 -4.07,-6.05 -0.92,-0.9 -2.08,-1.77 -3.44,-2.6 -1.37,-0.84 -2.7,-1.25 -4,-1.25 -3.11,0 -5.89,0.89 -8.36,2.68 -2.47,1.8 -4.62,4.12 -6.45,6.93 -1.84,2.81 -3.35,5.96 -4.55,9.46 -1.17,3.49 -2.04,6.86 -2.6,10.12 l 31.57,81.1 -24.13,0 -17.6,-48.88 -0.55,0 c -1.29,8.78 -3.46,16.42 -6.49,22.92 -3.01,6.51 -6.57,11.94 -10.71,16.32 -4.13,4.4 -8.72,7.1 -13.78,8.1 -5.04,1.03 -10.32,1.54 -15.84,1.54 -4.57,0 -8.74,-0.32 -12.51,-0.95 -3.76,-0.61 -7.3,-1.64 -10.63,-3.08 -3.3,-1.42 -6.51,-3.21 -9.64,-5.35 -3.11,-2.13 -6.31,-4.8 -9.61,-8 -6.99,-6.77 -11.87,-14.62 -14.63,-23.54 -2.74,-8.89 -4.11,-19.39 -4.11,-31.5 0,-22.46 6.07,-39.57 18.19,-51.33 4.57,-4.45 10.21,-8 16.9,-10.67 6.73,-2.69 13.57,-4.03 20.54,-4.03 7.53,0 15.24,2.1 23.13,6.31 7.9,4.22 14.23,8.72 19,13.49 4.4,4.38 7.61,8.58 9.64,12.61 2.03,4.03 3.86,7.52 5.5,10.45 1.47,-4.03 3.11,-8.3 4.95,-12.79 1.83,-4.48 3.84,-8.6 6.01,-12.36 2.2,-3.74 4.64,-6.84 7.3,-9.31 2.66,-2.47 5.55,-3.7 8.65,-3.7 2.74,0 5.29,0.98 7.67,2.96 2.39,1.98 4.46,4.51 6.19,7.59 1.74,3.11 3.11,6.39 4.11,9.87 1.03,3.49 1.54,6.62 1.54,9.38 l 0.55,15.92 m -58.96,14.81 -7.48,-19.14 c -2.05,-4.99 -4.52,-9.94 -7.41,-14.85 -2.86,-4.91 -5.77,-8.75 -8.72,-11.51 -2.77,-2.57 -5.77,-4.55 -9.02,-5.95 -3.23,-1.36 -6.32,-2.05 -9.28,-2.05 -4.45,0 -8.81,1.38 -13.09,4.14 -4.25,2.77 -7.68,6.64 -10.27,11.63 -2.59,4.64 -4.48,10.84 -5.68,18.59 -1.2,7.75 -1.8,15.68 -1.8,23.8 0,7.4 0.7,14.76 2.09,22.07 1.4,7.33 3.57,13.75 6.53,19.25 2.03,3.96 4.75,7.53 8.18,10.7 3.42,3.21 7.45,4.81 12.1,4.81 4.42,0 8.76,-0.78 13.01,-2.35 4.28,-1.54 8.36,-4.12 12.25,-7.73 2.76,-2.6 5.07,-5.44 6.93,-8.55 1.86,-3.08 3.47,-6.6 4.84,-10.56 1.39,-3.96 2.6,-8.62 3.63,-13.97 1.03,-5.33 2.09,-11.44 3.19,-18.33"
         style="fill:#000000;fill-opacity:1;fill-rule:nonzero;stroke:none"
         id="path132"
         inkscape:connector-curvature="0" /><path
         d="m 1997.46,428.445 c 0,14.278 -3.03,27.258 -9.09,38.942 -6.07,11.683 -15.41,20.312 -28.05,25.886 0.9,0.731 2.14,1.747 3.7,3.043 1.57,1.321 3.17,2.809 4.8,4.473 1.64,1.66 3.24,3.508 4.81,5.535 1.56,2.055 2.89,4.11 3.99,6.16 1.47,2.594 2.79,5.93 3.97,10.012 1.19,4.082 1.79,8.066 1.79,11.953 0,8.164 -2.47,15.535 -7.4,22.11 -4.92,6.597 -11.3,11.843 -19.14,15.73 -9.12,4.645 -18.51,6.965 -28.16,6.965 -4.75,0 -9.09,-0.512 -13.02,-1.539 -3.91,-1.004 -7.5,-2.348 -10.78,-4.035 -9.85,-5.008 -16.83,-10.621 -20.94,-16.828 -4.1,-6.207 -6.16,-12.93 -6.16,-20.168 l 0,-182.082 c 0,-7.504 -0.55,-14.864 -1.65,-22.075 -1.1,-7.234 -2.01,-14.152 -2.75,-20.754 l 23.8,0 c 0.37,3.473 0.82,6.954 1.36,10.45 0.56,3.472 0.84,6.761 0.84,9.863 l 0.55,51.262 c 8.19,-5.918 15.64,-9.938 22.37,-12.063 6.74,-2.152 13.94,-3.226 21.59,-3.226 7.85,0 15.1,1.488 21.75,4.472 6.65,2.957 12.29,7.125 16.93,12.504 4.65,5.375 8.29,11.731 10.93,19.067 2.64,7.332 3.96,15.445 3.96,24.343 m -28.16,-4.84 c 0,-9.972 -1.06,-17.55 -3.19,-22.73 -2.1,-5.184 -4.65,-9.352 -7.66,-12.504 -2.47,-2.566 -5.56,-4.644 -9.28,-6.234 -3.71,-1.567 -7.5,-2.348 -11.37,-2.348 -5.64,0 -11.34,1.063 -17.08,3.191 -5.74,2.125 -10.56,5.219 -14.45,9.278 -0.88,0.926 -1.72,1.758 -2.53,2.492 -0.78,0.758 -1.61,1.59 -2.49,2.492 l 0,140.324 c 0,2.786 0.61,5.879 1.83,9.274 1.25,3.426 3.01,6.664 5.28,9.719 2.3,3.054 5.07,5.644 8.33,7.773 3.27,2.125 6.94,3.188 11,3.188 3.71,0 7.36,-0.879 10.96,-2.637 3.62,-1.762 6.8,-4.305 9.53,-7.629 2.74,-3.324 4.99,-7.442 6.75,-12.356 1.76,-4.89 2.64,-10.472 2.64,-16.757 0,-3.52 -0.37,-7.125 -1.1,-10.817 -0.74,-3.691 -1.65,-6.648 -2.75,-8.871 -1.47,-3.129 -3.22,-5.758 -5.24,-7.883 -2.01,-2.129 -3.93,-3.191 -5.76,-3.191 -1.1,0 -3.17,0.316 -6.2,0.953 -3,0.66 -5.61,0.988 -7.81,0.988 -4.2,0 -7.32,-1.062 -9.35,-3.187 -2,-2.129 -3,-4.403 -3,-6.821 0,-1.664 0.91,-3.324 2.75,-4.988 1.83,-1.66 4.85,-2.492 9.05,-2.492 2.2,0 4.49,0.184 6.86,0.551 2.39,0.367 4.32,0.551 5.79,0.551 1.83,0 3.49,-0.282 4.95,-0.844 1.47,-0.539 3.29,-1.918 5.47,-4.145 4.93,-4.984 9.18,-12.246 12.72,-21.781 3.57,-9.508 5.35,-20.359 5.35,-32.559"
         style="fill:#000000;fill-opacity:1;fill-rule:nonzero;stroke:none"
         id="path134"
         inkscape:connector-curvature="0" /><path
         d="m 4889.13,2810.51 -53.79,143.14 19.91,0 44.62,-120.52 44.74,120.52 19.8,0 -53.68,-143.14 -21.6,0"
         style="fill:#000000;fill-opacity:1;fill-rule:nonzero;stroke:none"
         id="path136"
         inkscape:connector-curvature="0" /><path
         d="m 4970.74,2835.12 -25.85,-72.2 51.81,0 -25.96,72.2 m -10.74,19.32 21.59,0 53.68,-143.14 -19.8,0 -12.83,35.2 -63.51,0 -12.83,-35.2 -20.09,0 53.79,143.14"
         style="fill:#000000;fill-opacity:1;fill-rule:nonzero;stroke:none"
         id="path138"
         inkscape:connector-curvature="0" /><path
         d="m 1827.76,2824.68 -53.79,143.14 19.91,0 44.62,-120.52 44.74,120.52 19.8,0 -53.68,-143.14 -21.6,0"
         style="fill:#000000;fill-opacity:1;fill-rule:nonzero;stroke:none"
         id="path140"
         inkscape:connector-curvature="0" /><path
         d="m 1909.37,2849.29 -25.85,-72.2 51.81,0 -25.96,72.2 m -10.75,19.32 21.6,0 53.68,-143.14 -19.8,0 -12.83,35.2 -63.51,0 -12.83,-35.2 -20.09,0 53.78,143.14"
         style="fill:#000000;fill-opacity:1;fill-rule:nonzero;stroke:none"
         id="path142"
         inkscape:connector-curvature="0" /><path
         d="m 84.4805,2385.32 -53.7891,143.14 19.9102,0 44.625,-120.52 44.7304,120.52 19.801,0 -53.68,-143.14 -21.5975,0"
         style="fill:#000000;fill-opacity:1;fill-rule:nonzero;stroke:none"
         id="path144"
         inkscape:connector-curvature="0" /><path
         d="m 179.277,2368.33 0,-51.63 30.836,0 c 10.242,0 17.832,2.12 22.77,6.35 4.937,4.25 7.406,10.75 7.406,19.5 0,8.83 -2.469,15.33 -7.406,19.51 -4.938,4.18 -12.528,6.27 -22.77,6.27 l -30.836,0 m 0,58.67 0,-42.24 28.453,0 c 9.387,0 16.375,1.73 20.973,5.2 4.594,3.47 6.895,8.78 6.895,15.92 0,7.06 -2.301,12.34 -6.895,15.84 -4.598,3.52 -11.586,5.28 -20.973,5.28 l -28.453,0 m -18.773,16.42 48.656,0 c 14.469,0 25.617,-3.06 33.438,-9.2 7.847,-6.11 11.769,-14.83 11.769,-26.14 0,-8.75 -1.992,-15.72 -5.976,-20.9 -3.957,-5.16 -9.778,-8.38 -17.453,-9.64 9.632,-2.06 17.113,-6.34 22.441,-12.84 5.351,-6.48 8.031,-14.58 8.031,-24.31 0,-12.78 -4.363,-22.67 -13.09,-29.66 -8.726,-6.97 -21.144,-10.45 -37.254,-10.45 l -50.562,0 0,143.14"
         style="fill:#000000;fill-opacity:1;fill-rule:nonzero;stroke:none"
         id="path146"
         inkscape:connector-curvature="0" /><path
         d="m 3046.64,2810.51 -53.79,143.14 19.91,0 44.62,-120.52 44.74,120.52 19.79,0 -53.68,-143.14 -21.59,0"
         style="fill:#000000;fill-opacity:1;fill-rule:nonzero;stroke:none"
         id="path148"
         inkscape:connector-curvature="0" /><path
         d="m 3127.26,2793.52 0,-51.63 30.84,0 c 10.24,0 17.83,2.12 22.77,6.35 4.93,4.25 7.4,10.75 7.4,19.51 0,8.82 -2.47,15.32 -7.4,19.5 -4.94,4.18 -12.53,6.27 -22.77,6.27 l -30.84,0 m 0,58.67 0,-42.24 28.45,0 c 9.39,0 16.38,1.73 20.98,5.2 4.59,3.47 6.89,8.78 6.89,15.92 0,7.06 -2.3,12.34 -6.89,15.84 -4.6,3.52 -11.59,5.28 -20.98,5.28 l -28.45,0 m -18.77,16.42 48.65,0 c 14.47,0 25.62,-3.06 33.44,-9.2 7.85,-6.11 11.77,-14.82 11.77,-26.14 0,-8.75 -1.99,-15.72 -5.97,-20.9 -3.96,-5.16 -9.78,-8.37 -17.46,-9.65 9.63,-2.05 17.12,-6.33 22.44,-12.83 5.35,-6.48 8.03,-14.58 8.03,-24.31 0,-12.78 -4.36,-22.67 -13.09,-29.66 -8.72,-6.97 -21.14,-10.45 -37.25,-10.45 l -50.56,0 0,143.14"
         style="fill:#000000;fill-opacity:1;fill-rule:nonzero;stroke:none"
         id="path150"
         inkscape:connector-curvature="0" /><path
         d="m 56.1367,812.113 -53.78904,143.145 19.91014,0 44.6211,-120.524 44.7341,120.524 19.797,0 -53.6756,-143.145 -21.5977,0"
         style="fill:#000000;fill-opacity:1;fill-rule:nonzero;stroke:none"
         id="path152"
         inkscape:connector-curvature="0" /><path
         d="m 197.582,815.969 0,-21.121 c -6.426,6.281 -13.297,10.976 -20.605,14.082 -7.286,3.129 -15.032,4.691 -23.247,4.691 -16.156,0 -28.539,-4.937 -37.144,-14.812 -8.578,-9.852 -12.867,-24.09 -12.867,-42.715 0,-18.578 4.289,-32.805 12.867,-42.68 8.605,-9.852 20.988,-14.777 37.144,-14.777 8.215,0 15.961,1.551 23.247,4.656 7.308,3.129 14.179,7.836 20.605,14.117 l 0,-21.121 c -6.746,-4.691 -13.894,-8.215 -21.449,-10.559 -7.528,-2.347 -15.496,-3.519 -23.906,-3.519 -21.582,0 -38.586,6.598 -51,19.797 -12.4184,13.203 -18.6293,31.23 -18.6293,54.086 0,22.902 6.2109,40.953 18.6293,54.156 12.414,13.199 29.418,19.797 51,19.797 8.531,0 16.562,-1.172 24.089,-3.52 7.555,-2.347 14.645,-5.867 21.266,-10.558"
         style="fill:#000000;fill-opacity:1;fill-rule:nonzero;stroke:none"
         id="path154"
         inkscape:connector-curvature="0" /><path
         d="m 3174.2,174.328 -53.79,143.145 19.91,0 44.62,-120.52 44.73,120.52 19.8,0 -53.68,-143.145 -21.59,0"
         style="fill:#000000;fill-opacity:1;fill-rule:nonzero;stroke:none"
         id="path156"
         inkscape:connector-curvature="0" /><path
         d="m 3315.64,178.184 0,-21.122 c -6.43,6.282 -13.29,10.977 -20.6,14.083 -7.29,3.128 -15.04,4.691 -23.25,4.691 -16.16,0 -28.54,-4.938 -37.14,-14.813 -8.58,-9.851 -12.87,-24.089 -12.87,-42.714 0,-18.5785 4.29,-32.8051 12.87,-42.6801 8.6,-9.8516 20.98,-14.7773 37.14,-14.7773 8.21,0 15.96,1.5507 23.25,4.6562 7.31,3.1289 14.17,7.836 20.6,14.1172 l 0,-21.1211 c -6.74,-4.6914 -13.89,-8.2148 -21.44,-10.5586 -7.54,-2.3476 -15.5,-3.5195 -23.91,-3.5195 -21.59,0 -38.59,6.5976 -51,19.7969 -12.42,13.2031 -18.63,31.2304 -18.63,54.0863 0,22.902 6.21,40.953 18.63,54.156 12.41,13.199 29.41,19.797 51,19.797 8.53,0 16.56,-1.172 24.09,-3.52 7.55,-2.347 14.64,-5.867 21.26,-10.558"
         style="fill:#000000;fill-opacity:1;fill-rule:nonzero;stroke:none"
         id="path158"
         inkscape:connector-curvature="0" /><path
         d="m 1785.24,188.5 -53.79,143.145 19.91,0 44.62,-120.52 44.74,120.52 19.8,0 -53.68,-143.145 -21.6,0"
         style="fill:#000000;fill-opacity:1;fill-rule:nonzero;stroke:none"
         id="path160"
         inkscape:connector-curvature="0" /><path
         d="m 1851.69,187.664 0,-110.2929 23.17,0 c 19.56,0 33.88,4.4258 42.98,13.2734 9.09,8.8711 13.64,22.8785 13.64,42.0195 0,18.992 -4.55,32.902 -13.64,41.727 -9.1,8.847 -23.42,13.273 -42.98,13.273 l -23.17,0 m -18.77,16.426 39.01,0 c 27.79,0 48.18,-5.77 61.16,-17.309 13,-11.535 19.51,-29.574 19.51,-54.117 0,-24.664 -6.54,-42.789 -19.62,-54.3749 -13.05,-11.5625 -33.4,-17.3438 -61.05,-17.3438 l -39.01,0 0,143.1447"
         style="fill:#000000;fill-opacity:1;fill-rule:nonzero;stroke:none"
         id="path162"
         inkscape:connector-curvature="0" /><path
         d="m 4818.27,188.5 -53.79,143.145 19.91,0 44.62,-120.52 44.73,120.52 19.8,0 -53.68,-143.145 -21.59,0"
         style="fill:#000000;fill-opacity:1;fill-rule:nonzero;stroke:none"
         id="path164"
         inkscape:connector-curvature="0" /><path
         d="m 4884.71,187.664 0,-110.2929 23.18,0 c 19.55,0 33.88,4.4258 42.97,13.2734 9.09,8.8711 13.64,22.8785 13.64,42.0195 0,18.992 -4.55,32.902 -13.64,41.727 -9.09,8.847 -23.42,13.273 -42.97,13.273 l -23.18,0 m -18.77,16.426 39.01,0 c 27.8,0 48.18,-5.77 61.16,-17.309 13.01,-11.535 19.51,-29.574 19.51,-54.117 0,-24.664 -6.54,-42.789 -19.62,-54.3749 -13.05,-11.5625 -33.4,-17.3438 -61.05,-17.3438 l -39.01,0 0,143.1447"
         style="fill:#000000;fill-opacity:1;fill-rule:nonzero;stroke:none"
         id="path166"
         inkscape:connector-curvature="0" /><path
         d="m 1182.84,1624.11 0,58.66 16.43,0 0,-147.83 -16.43,0 0,16.42 c -3.77,-6.35 -8.53,-11.07 -14.3,-14.15 -5.77,-3.08 -12.68,-4.62 -20.75,-4.62 -13.23,0 -23.99,5.06 -32.31,15.18 -8.28,10.14 -12.43,23.46 -12.43,39.96 0,16.5 4.15,29.82 12.43,39.93 8.32,10.15 19.08,15.22 32.31,15.22 8.07,0 14.98,-1.54 20.75,-4.62 5.77,-3.08 10.53,-7.8 14.3,-14.15 m -61.01,-36.38 c 0,-12.8 2.7,-22.85 8.1,-30.13 5.43,-7.29 12.88,-10.93 22.37,-10.93 9.46,0 16.91,3.64 22.36,10.93 5.45,7.28 8.18,17.33 8.18,30.13 0,12.81 -2.73,22.86 -8.18,30.15 -5.45,7.28 -12.9,10.92 -22.36,10.92 -9.49,0 -16.94,-3.64 -22.37,-10.92 -5.4,-7.29 -8.1,-17.34 -8.1,-30.15"
         style="fill:#000000;fill-opacity:1;fill-rule:nonzero;stroke:none"
         id="path168"
         inkscape:connector-curvature="0" /><path
         d="m 4669.4,1638.28 0,58.67 16.42,0 0,-147.84 -16.42,0 0,16.43 c -3.77,-6.36 -8.53,-11.08 -14.3,-14.16 -5.77,-3.08 -12.69,-4.62 -20.75,-4.62 -13.23,0 -23.99,5.06 -32.31,15.18 -8.28,10.15 -12.43,23.47 -12.43,39.97 0,16.5 4.15,29.81 12.43,39.93 8.32,10.14 19.08,15.21 32.31,15.21 8.06,0 14.98,-1.53 20.75,-4.62 5.77,-3.07 10.53,-7.79 14.3,-14.15 m -61.01,-36.37 c 0,-12.81 2.7,-22.86 8.1,-30.14 5.42,-7.29 12.88,-10.93 22.37,-10.93 9.46,0 16.91,3.64 22.36,10.93 5.45,7.28 8.18,17.33 8.18,30.14 0,12.81 -2.73,22.86 -8.18,30.14 -5.45,7.28 -12.9,10.93 -22.36,10.93 -9.49,0 -16.95,-3.65 -22.37,-10.93 -5.4,-7.28 -8.1,-17.33 -8.1,-30.14"
         style="fill:#000000;fill-opacity:1;fill-rule:nonzero;stroke:none"
         id="path170"
         inkscape:connector-curvature="0" /><path
         d="m 1336.86,2783.57 18.78,0 0,-126.71 70.4,0 0,-16.43 -89.18,0 0,143.14"
         style="fill:#000000;fill-opacity:1;fill-rule:nonzero;stroke:none"
         id="path172"
         inkscape:connector-curvature="0" /><path
         d="m 514.828,2570.98 18.774,0 0,-126.72 70.398,0 0,-16.42 -89.172,0 0,143.14"
         style="fill:#000000;fill-opacity:1;fill-rule:nonzero;stroke:none"
         id="path174"
         inkscape:connector-curvature="0" /><path
         d="m 3562.02,2726.88 18.78,0 0,-126.72 70.4,0 0,-16.42 -89.18,0 0,143.14"
         style="fill:#000000;fill-opacity:1;fill-rule:nonzero;stroke:none"
         id="path176"
         inkscape:connector-curvature="0" /><path
         d="m 4483.27,2741.05 18.77,0 0,-126.71 70.4,0 0,-16.43 -89.17,0 0,143.14"
         style="fill:#000000;fill-opacity:1;fill-rule:nonzero;stroke:none"
         id="path178"
         inkscape:connector-curvature="0" /><path
         d="m 6236.12,600.934 779.516,0 0,1799.97 -779.516,0 0,-1799.97 z"
         style="fill:#d8e5e5;fill-opacity:1;fill-rule:nonzero;stroke:none"
         id="path180"
         inkscape:connector-curvature="0" /><path
         d="m 6236.12,600.934 779.516,0 0,1799.97 -779.516,0 0,-1799.97 z"
         style="fill:none;stroke:#000000;stroke-width:28.34600067;stroke-linecap:butt;stroke-linejoin:miter;stroke-miterlimit:10;stroke-dasharray:none;stroke-opacity:1"
         id="path182"
         inkscape:connector-curvature="0" /><path
         d="M 6625.88,1500.92 6977.7,2313.3"
         style="fill:none;stroke:#000000;stroke-width:28.34600067;stroke-linecap:butt;stroke-linejoin:miter;stroke-miterlimit:10;stroke-dasharray:none;stroke-opacity:1"
         id="path184"
         inkscape:connector-curvature="0" /><path
         d="m 7003.04,2371.82 5.23,-94.93 -30.57,36.41 -47.47,-2.61"
         style="fill:#000000;fill-opacity:1;fill-rule:evenodd;stroke:none"
         id="path186"
         inkscape:connector-curvature="0" /><path
         d="m 7003.04,2371.82 5.23,-94.93 -30.57,36.41 -47.47,-2.61 72.81,61.13 z"
         style="fill:none;stroke:#000000;stroke-width:28.34600067;stroke-linecap:butt;stroke-linejoin:miter;stroke-miterlimit:10;stroke-dasharray:none;stroke-opacity:1"
         id="path188"
         inkscape:connector-curvature="0" /><path
         d="m 6625.88,1500.92 389.76,0"
         style="fill:none;stroke:#000000;stroke-width:28.34600067;stroke-linecap:butt;stroke-linejoin:miter;stroke-miterlimit:10;stroke-dasharray:none;stroke-opacity:1"
         id="path190"
         inkscape:connector-curvature="0" /><path
         d="m 6828.48,1397.34 c -2.05,1.61 -4.3,2.8 -6.75,3.56 -2.42,0.76 -5.08,1.14 -7.99,1.14 -10.36,0 -18.32,-3.31 -23.87,-9.91 -5.55,-6.57 -8.32,-16.02 -8.32,-28.34 l 0,-55.62 -16.43,0 0,105.6 16.43,0 0,-16.43 c 3.86,6.36 8.87,11.07 15.03,14.15 6.19,3.08 13.7,4.62 22.55,4.62 1.25,0 2.63,0 4.14,0 1.54,0 3.24,0 5.1,0 l 0.11,-18.77"
         style="fill:#000000;fill-opacity:1;fill-rule:nonzero;stroke:none"
         id="path192"
         inkscape:connector-curvature="0" /><path
         d="m 6889.87,1324.13 -31.42,-42.24 33.76,-44.59 -17.12,0 -25.74,34.1 -24.97,-34.1 -16.65,0 33.22,45.43 -30.87,41.4 16.83,0 23.06,-30.95 23.07,30.95 16.83,0"
         style="fill:#000000;fill-opacity:1;fill-rule:nonzero;stroke:none"
         id="path194"
         inkscape:connector-curvature="0" /><path
         d="m 7140.29,1935.91 c -2.06,1.62 -4.31,2.8 -6.75,3.56 -2.42,0.76 -5.08,1.14 -7.99,1.14 -10.37,0 -18.32,-3.3 -23.87,-9.9 -5.55,-6.58 -8.32,-16.03 -8.32,-28.34 l 0,-55.63 -16.43,0 0,105.6 16.43,0 0,-16.43 c 3.86,6.36 8.87,11.08 15.03,14.16 6.18,3.08 13.7,4.62 22.55,4.62 1.24,0 2.63,0 4.14,0 1.54,0 3.24,0 5.1,0 l 0.11,-18.78"
         style="fill:#000000;fill-opacity:1;fill-rule:nonzero;stroke:none"
         id="path196"
         inkscape:connector-curvature="0" /><path
         d="m 7165.48,1753.6 c -4.05,-10.24 -8.02,-16.93 -11.87,-20.06 -3.87,-3.13 -9.04,-4.69 -15.52,-4.69 l -11.51,0 0,11.74 8.47,0 c 3.96,0 7.03,0.92 9.2,2.78 2.2,1.86 4.64,6.26 7.3,13.2 l 2.6,6.53 -34.61,85.43 14.41,0 27.39,-67.91 27.43,67.91 15.25,0 -38.54,-94.93"
         style="fill:#000000;fill-opacity:1;fill-rule:nonzero;stroke:none"
         id="path198"
         inkscape:connector-curvature="0" /></g></g></svg>