<?xml version="1.0" encoding="utf-8" standalone="no"?>
<!DOCTYPE svg PUBLIC "-//W3C//DTD SVG 1.1//EN"
  "http://www.w3.org/Graphics/SVG/1.1/DTD/svg11.dtd">
<!-- Created with matplotlib (http://matplotlib.org/) -->
<svg height="345pt" version="1.1" viewBox="0 0 460 345" width="460pt" xmlns="http://www.w3.org/2000/svg" xmlns:xlink="http://www.w3.org/1999/xlink">
 <defs>
  <style type="text/css">
*{stroke-linecap:butt;stroke-linejoin:round;}
  </style>
 </defs>
 <g id="figure_1">
  <g id="patch_1">
   <path d="M 0 345.6 
L 460.8 345.6 
L 460.8 0 
L 0 0 
z
" style="fill:#ffffff;"/>
  </g>
  <g id="axes_1">
   <g id="patch_2">
    <path d="M 57.6 307.584 
L 414.72 307.584 
L 414.72 41.472 
L 57.6 41.472 
z
" style="fill:#ffffff;"/>
   </g>
   <g id="matplotlib.axis_1">
    <g id="xtick_1">
     <g id="line2d_1">
      <defs>
       <path d="M 0 0 
L 0 3.5 
" id="m15782a5703" style="stroke:#000000;stroke-width:0.8;"/>
      </defs>
      <g>
       <use style="stroke:#000000;stroke-width:0.8;" x="73.832727" xlink:href="#m15782a5703" y="307.584"/>
      </g>
     </g>
     <g id="text_1">
      <!-- 0 -->
      <defs>
       <path d="M 31.78125 66.40625 
Q 24.171875 66.40625 20.328125 58.90625 
Q 16.5 51.421875 16.5 36.375 
Q 16.5 21.390625 20.328125 13.890625 
Q 24.171875 6.390625 31.78125 6.390625 
Q 39.453125 6.390625 43.28125 13.890625 
Q 47.125 21.390625 47.125 36.375 
Q 47.125 51.421875 43.28125 58.90625 
Q 39.453125 66.40625 31.78125 66.40625 
z
M 31.78125 74.21875 
Q 44.046875 74.21875 50.515625 64.515625 
Q 56.984375 54.828125 56.984375 36.375 
Q 56.984375 17.96875 50.515625 8.265625 
Q 44.046875 -1.421875 31.78125 -1.421875 
Q 19.53125 -1.421875 13.0625 8.265625 
Q 6.59375 17.96875 6.59375 36.375 
Q 6.59375 54.828125 13.0625 64.515625 
Q 19.53125 74.21875 31.78125 74.21875 
z
" id="DejaVuSans-30"/>
      </defs>
      <g transform="translate(70.651477 322.182437)scale(0.1 -0.1)">
       <use xlink:href="#DejaVuSans-30"/>
      </g>
     </g>
    </g>
    <g id="xtick_2">
     <g id="line2d_2">
      <g>
       <use style="stroke:#000000;stroke-width:0.8;" x="138.763636" xlink:href="#m15782a5703" y="307.584"/>
      </g>
     </g>
     <g id="text_2">
      <!-- 1 -->
      <defs>
       <path d="M 12.40625 8.296875 
L 28.515625 8.296875 
L 28.515625 63.921875 
L 10.984375 60.40625 
L 10.984375 69.390625 
L 28.421875 72.90625 
L 38.28125 72.90625 
L 38.28125 8.296875 
L 54.390625 8.296875 
L 54.390625 0 
L 12.40625 0 
z
" id="DejaVuSans-31"/>
      </defs>
      <g transform="translate(135.582386 322.182437)scale(0.1 -0.1)">
       <use xlink:href="#DejaVuSans-31"/>
      </g>
     </g>
    </g>
    <g id="xtick_3">
     <g id="line2d_3">
      <g>
       <use style="stroke:#000000;stroke-width:0.8;" x="203.694545" xlink:href="#m15782a5703" y="307.584"/>
      </g>
     </g>
     <g id="text_3">
      <!-- 2 -->
      <defs>
       <path d="M 19.1875 8.296875 
L 53.609375 8.296875 
L 53.609375 0 
L 7.328125 0 
L 7.328125 8.296875 
Q 12.9375 14.109375 22.625 23.890625 
Q 32.328125 33.6875 34.8125 36.53125 
Q 39.546875 41.84375 41.421875 45.53125 
Q 43.3125 49.21875 43.3125 52.78125 
Q 43.3125 58.59375 39.234375 62.25 
Q 35.15625 65.921875 28.609375 65.921875 
Q 23.96875 65.921875 18.8125 64.3125 
Q 13.671875 62.703125 7.8125 59.421875 
L 7.8125 69.390625 
Q 13.765625 71.78125 18.9375 73 
Q 24.125 74.21875 28.421875 74.21875 
Q 39.75 74.21875 46.484375 68.546875 
Q 53.21875 62.890625 53.21875 53.421875 
Q 53.21875 48.921875 51.53125 44.890625 
Q 49.859375 40.875 45.40625 35.40625 
Q 44.1875 33.984375 37.640625 27.21875 
Q 31.109375 20.453125 19.1875 8.296875 
z
" id="DejaVuSans-32"/>
      </defs>
      <g transform="translate(200.513295 322.182437)scale(0.1 -0.1)">
       <use xlink:href="#DejaVuSans-32"/>
      </g>
     </g>
    </g>
    <g id="xtick_4">
     <g id="line2d_4">
      <g>
       <use style="stroke:#000000;stroke-width:0.8;" x="268.625455" xlink:href="#m15782a5703" y="307.584"/>
      </g>
     </g>
     <g id="text_4">
      <!-- 3 -->
      <defs>
       <path d="M 40.578125 39.3125 
Q 47.65625 37.796875 51.625 33 
Q 55.609375 28.21875 55.609375 21.1875 
Q 55.609375 10.40625 48.1875 4.484375 
Q 40.765625 -1.421875 27.09375 -1.421875 
Q 22.515625 -1.421875 17.65625 -0.515625 
Q 12.796875 0.390625 7.625 2.203125 
L 7.625 11.71875 
Q 11.71875 9.328125 16.59375 8.109375 
Q 21.484375 6.890625 26.8125 6.890625 
Q 36.078125 6.890625 40.9375 10.546875 
Q 45.796875 14.203125 45.796875 21.1875 
Q 45.796875 27.640625 41.28125 31.265625 
Q 36.765625 34.90625 28.71875 34.90625 
L 20.21875 34.90625 
L 20.21875 43.015625 
L 29.109375 43.015625 
Q 36.375 43.015625 40.234375 45.921875 
Q 44.09375 48.828125 44.09375 54.296875 
Q 44.09375 59.90625 40.109375 62.90625 
Q 36.140625 65.921875 28.71875 65.921875 
Q 24.65625 65.921875 20.015625 65.03125 
Q 15.375 64.15625 9.8125 62.3125 
L 9.8125 71.09375 
Q 15.4375 72.65625 20.34375 73.4375 
Q 25.25 74.21875 29.59375 74.21875 
Q 40.828125 74.21875 47.359375 69.109375 
Q 53.90625 64.015625 53.90625 55.328125 
Q 53.90625 49.265625 50.4375 45.09375 
Q 46.96875 40.921875 40.578125 39.3125 
z
" id="DejaVuSans-33"/>
      </defs>
      <g transform="translate(265.444205 322.182437)scale(0.1 -0.1)">
       <use xlink:href="#DejaVuSans-33"/>
      </g>
     </g>
    </g>
    <g id="xtick_5">
     <g id="line2d_5">
      <g>
       <use style="stroke:#000000;stroke-width:0.8;" x="333.556364" xlink:href="#m15782a5703" y="307.584"/>
      </g>
     </g>
     <g id="text_5">
      <!-- 4 -->
      <defs>
       <path d="M 37.796875 64.3125 
L 12.890625 25.390625 
L 37.796875 25.390625 
z
M 35.203125 72.90625 
L 47.609375 72.90625 
L 47.609375 25.390625 
L 58.015625 25.390625 
L 58.015625 17.1875 
L 47.609375 17.1875 
L 47.609375 0 
L 37.796875 0 
L 37.796875 17.1875 
L 4.890625 17.1875 
L 4.890625 26.703125 
z
" id="DejaVuSans-34"/>
      </defs>
      <g transform="translate(330.375114 322.182437)scale(0.1 -0.1)">
       <use xlink:href="#DejaVuSans-34"/>
      </g>
     </g>
    </g>
    <g id="xtick_6">
     <g id="line2d_6">
      <g>
       <use style="stroke:#000000;stroke-width:0.8;" x="398.487273" xlink:href="#m15782a5703" y="307.584"/>
      </g>
     </g>
     <g id="text_6">
      <!-- 5 -->
      <defs>
       <path d="M 10.796875 72.90625 
L 49.515625 72.90625 
L 49.515625 64.59375 
L 19.828125 64.59375 
L 19.828125 46.734375 
Q 21.96875 47.46875 24.109375 47.828125 
Q 26.265625 48.1875 28.421875 48.1875 
Q 40.625 48.1875 47.75 41.5 
Q 54.890625 34.8125 54.890625 23.390625 
Q 54.890625 11.625 47.5625 5.09375 
Q 40.234375 -1.421875 26.90625 -1.421875 
Q 22.3125 -1.421875 17.546875 -0.640625 
Q 12.796875 0.140625 7.71875 1.703125 
L 7.71875 11.625 
Q 12.109375 9.234375 16.796875 8.0625 
Q 21.484375 6.890625 26.703125 6.890625 
Q 35.15625 6.890625 40.078125 11.328125 
Q 45.015625 15.765625 45.015625 23.390625 
Q 45.015625 31 40.078125 35.4375 
Q 35.15625 39.890625 26.703125 39.890625 
Q 22.75 39.890625 18.8125 39.015625 
Q 14.890625 38.140625 10.796875 36.28125 
z
" id="DejaVuSans-35"/>
      </defs>
      <g transform="translate(395.306023 322.182437)scale(0.1 -0.1)">
       <use xlink:href="#DejaVuSans-35"/>
      </g>
     </g>
    </g>
   </g>
   <g id="matplotlib.axis_2">
    <g id="ytick_1">
     <g id="line2d_7">
      <defs>
       <path d="M 0 0 
L -3.5 0 
" id="me040a6967f" style="stroke:#000000;stroke-width:0.8;"/>
      </defs>
      <g>
       <use style="stroke:#000000;stroke-width:0.8;" x="57.6" xlink:href="#me040a6967f" y="298.069383"/>
      </g>
     </g>
     <g id="text_7">
      <!-- −2.5 -->
      <defs>
       <path d="M 10.59375 35.5 
L 73.1875 35.5 
L 73.1875 27.203125 
L 10.59375 27.203125 
z
" id="DejaVuSans-2212"/>
       <path d="M 10.6875 12.40625 
L 21 12.40625 
L 21 0 
L 10.6875 0 
z
" id="DejaVuSans-2e"/>
      </defs>
      <g transform="translate(26.317187 301.868602)scale(0.1 -0.1)">
       <use xlink:href="#DejaVuSans-2212"/>
       <use x="83.789062" xlink:href="#DejaVuSans-32"/>
       <use x="147.412109" xlink:href="#DejaVuSans-2e"/>
       <use x="179.199219" xlink:href="#DejaVuSans-35"/>
      </g>
     </g>
    </g>
    <g id="ytick_2">
     <g id="line2d_8">
      <g>
       <use style="stroke:#000000;stroke-width:0.8;" x="57.6" xlink:href="#me040a6967f" y="267.95571"/>
      </g>
     </g>
     <g id="text_8">
      <!-- 0.0 -->
      <g transform="translate(34.696875 271.754929)scale(0.1 -0.1)">
       <use xlink:href="#DejaVuSans-30"/>
       <use x="63.623047" xlink:href="#DejaVuSans-2e"/>
       <use x="95.410156" xlink:href="#DejaVuSans-30"/>
      </g>
     </g>
    </g>
    <g id="ytick_3">
     <g id="line2d_9">
      <g>
       <use style="stroke:#000000;stroke-width:0.8;" x="57.6" xlink:href="#me040a6967f" y="237.842037"/>
      </g>
     </g>
     <g id="text_9">
      <!-- 2.5 -->
      <g transform="translate(34.696875 241.641256)scale(0.1 -0.1)">
       <use xlink:href="#DejaVuSans-32"/>
       <use x="63.623047" xlink:href="#DejaVuSans-2e"/>
       <use x="95.410156" xlink:href="#DejaVuSans-35"/>
      </g>
     </g>
    </g>
    <g id="ytick_4">
     <g id="line2d_10">
      <g>
       <use style="stroke:#000000;stroke-width:0.8;" x="57.6" xlink:href="#me040a6967f" y="207.728364"/>
      </g>
     </g>
     <g id="text_10">
      <!-- 5.0 -->
      <g transform="translate(34.696875 211.527583)scale(0.1 -0.1)">
       <use xlink:href="#DejaVuSans-35"/>
       <use x="63.623047" xlink:href="#DejaVuSans-2e"/>
       <use x="95.410156" xlink:href="#DejaVuSans-30"/>
      </g>
     </g>
    </g>
    <g id="ytick_5">
     <g id="line2d_11">
      <g>
       <use style="stroke:#000000;stroke-width:0.8;" x="57.6" xlink:href="#me040a6967f" y="177.614691"/>
      </g>
     </g>
     <g id="text_11">
      <!-- 7.5 -->
      <defs>
       <path d="M 8.203125 72.90625 
L 55.078125 72.90625 
L 55.078125 68.703125 
L 28.609375 0 
L 18.3125 0 
L 43.21875 64.59375 
L 8.203125 64.59375 
z
" id="DejaVuSans-37"/>
      </defs>
      <g transform="translate(34.696875 181.41391)scale(0.1 -0.1)">
       <use xlink:href="#DejaVuSans-37"/>
       <use x="63.623047" xlink:href="#DejaVuSans-2e"/>
       <use x="95.410156" xlink:href="#DejaVuSans-35"/>
      </g>
     </g>
    </g>
    <g id="ytick_6">
     <g id="line2d_12">
      <g>
       <use style="stroke:#000000;stroke-width:0.8;" x="57.6" xlink:href="#me040a6967f" y="147.501018"/>
      </g>
     </g>
     <g id="text_12">
      <!-- 10.0 -->
      <g transform="translate(28.334375 151.300237)scale(0.1 -0.1)">
       <use xlink:href="#DejaVuSans-31"/>
       <use x="63.623047" xlink:href="#DejaVuSans-30"/>
       <use x="127.246094" xlink:href="#DejaVuSans-2e"/>
       <use x="159.033203" xlink:href="#DejaVuSans-30"/>
      </g>
     </g>
    </g>
    <g id="ytick_7">
     <g id="line2d_13">
      <g>
       <use style="stroke:#000000;stroke-width:0.8;" x="57.6" xlink:href="#me040a6967f" y="117.387345"/>
      </g>
     </g>
     <g id="text_13">
      <!-- 12.5 -->
      <g transform="translate(28.334375 121.186564)scale(0.1 -0.1)">
       <use xlink:href="#DejaVuSans-31"/>
       <use x="63.623047" xlink:href="#DejaVuSans-32"/>
       <use x="127.246094" xlink:href="#DejaVuSans-2e"/>
       <use x="159.033203" xlink:href="#DejaVuSans-35"/>
      </g>
     </g>
    </g>
    <g id="ytick_8">
     <g id="line2d_14">
      <g>
       <use style="stroke:#000000;stroke-width:0.8;" x="57.6" xlink:href="#me040a6967f" y="87.273672"/>
      </g>
     </g>
     <g id="text_14">
      <!-- 15.0 -->
      <g transform="translate(28.334375 91.072891)scale(0.1 -0.1)">
       <use xlink:href="#DejaVuSans-31"/>
       <use x="63.623047" xlink:href="#DejaVuSans-35"/>
       <use x="127.246094" xlink:href="#DejaVuSans-2e"/>
       <use x="159.033203" xlink:href="#DejaVuSans-30"/>
      </g>
     </g>
    </g>
    <g id="ytick_9">
     <g id="line2d_15">
      <g>
       <use style="stroke:#000000;stroke-width:0.8;" x="57.6" xlink:href="#me040a6967f" y="57.159999"/>
      </g>
     </g>
     <g id="text_15">
      <!-- 17.5 -->
      <g transform="translate(28.334375 60.959218)scale(0.1 -0.1)">
       <use xlink:href="#DejaVuSans-31"/>
       <use x="63.623047" xlink:href="#DejaVuSans-37"/>
       <use x="127.246094" xlink:href="#DejaVuSans-2e"/>
       <use x="159.033203" xlink:href="#DejaVuSans-35"/>
      </g>
     </g>
    </g>
   </g>
   <g id="line2d_16">
    <defs>
     <path d="M 0 1.5 
C 0.397805 1.5 0.77937 1.341951 1.06066 1.06066 
C 1.341951 0.77937 1.5 0.397805 1.5 0 
C 1.5 -0.397805 1.341951 -0.77937 1.06066 -1.06066 
C 0.77937 -1.341951 0.397805 -1.5 0 -1.5 
C -0.397805 -1.5 -0.77937 -1.341951 -1.06066 -1.06066 
C -1.341951 -0.77937 -1.5 -0.397805 -1.5 0 
C -1.5 0.397805 -1.341951 0.77937 -1.06066 1.06066 
C -0.77937 1.341951 -0.397805 1.5 0 1.5 
z
" id="m270b08724d" style="stroke:#ff0000;"/>
    </defs>
    <g clip-path="url(#pdaad85f1fa)">
     <use style="fill:#ff0000;stroke:#ff0000;" x="73.832727" xlink:href="#m270b08724d" y="274.954539"/>
     <use style="fill:#ff0000;stroke:#ff0000;" x="77.112066" xlink:href="#m270b08724d" y="253.577636"/>
     <use style="fill:#ff0000;stroke:#ff0000;" x="80.391405" xlink:href="#m270b08724d" y="265.218155"/>
     <use style="fill:#ff0000;stroke:#ff0000;" x="83.670744" xlink:href="#m270b08724d" y="243.680621"/>
     <use style="fill:#ff0000;stroke:#ff0000;" x="86.950083" xlink:href="#m270b08724d" y="290.258754"/>
     <use style="fill:#ff0000;stroke:#ff0000;" x="90.229421" xlink:href="#m270b08724d" y="244.991596"/>
     <use style="fill:#ff0000;stroke:#ff0000;" x="93.50876" xlink:href="#m270b08724d" y="276.281146"/>
     <use style="fill:#ff0000;stroke:#ff0000;" x="96.788099" xlink:href="#m270b08724d" y="269.892471"/>
     <use style="fill:#ff0000;stroke:#ff0000;" x="100.067438" xlink:href="#m270b08724d" y="265.924823"/>
     <use style="fill:#ff0000;stroke:#ff0000;" x="103.346777" xlink:href="#m270b08724d" y="251.59132"/>
     <use style="fill:#ff0000;stroke:#ff0000;" x="106.626116" xlink:href="#m270b08724d" y="269.066544"/>
     <use style="fill:#ff0000;stroke:#ff0000;" x="109.905455" xlink:href="#m270b08724d" y="247.91841"/>
     <use style="fill:#ff0000;stroke:#ff0000;" x="113.184793" xlink:href="#m270b08724d" y="254.223819"/>
     <use style="fill:#ff0000;stroke:#ff0000;" x="116.464132" xlink:href="#m270b08724d" y="272.538766"/>
     <use style="fill:#ff0000;stroke:#ff0000;" x="119.743471" xlink:href="#m270b08724d" y="251.346494"/>
     <use style="fill:#ff0000;stroke:#ff0000;" x="123.02281" xlink:href="#m270b08724d" y="266.502414"/>
     <use style="fill:#ff0000;stroke:#ff0000;" x="126.302149" xlink:href="#m270b08724d" y="249.816"/>
     <use style="fill:#ff0000;stroke:#ff0000;" x="129.581488" xlink:href="#m270b08724d" y="275.997447"/>
     <use style="fill:#ff0000;stroke:#ff0000;" x="132.860826" xlink:href="#m270b08724d" y="283.341636"/>
     <use style="fill:#ff0000;stroke:#ff0000;" x="136.140165" xlink:href="#m270b08724d" y="279.824654"/>
     <use style="fill:#ff0000;stroke:#ff0000;" x="139.419504" xlink:href="#m270b08724d" y="295.488"/>
     <use style="fill:#ff0000;stroke:#ff0000;" x="142.698843" xlink:href="#m270b08724d" y="283.995726"/>
     <use style="fill:#ff0000;stroke:#ff0000;" x="145.978182" xlink:href="#m270b08724d" y="261.829755"/>
     <use style="fill:#ff0000;stroke:#ff0000;" x="149.257521" xlink:href="#m270b08724d" y="259.604263"/>
     <use style="fill:#ff0000;stroke:#ff0000;" x="152.53686" xlink:href="#m270b08724d" y="266.584838"/>
     <use style="fill:#ff0000;stroke:#ff0000;" x="155.816198" xlink:href="#m270b08724d" y="288.432339"/>
     <use style="fill:#ff0000;stroke:#ff0000;" x="159.095537" xlink:href="#m270b08724d" y="280.84699"/>
     <use style="fill:#ff0000;stroke:#ff0000;" x="162.374876" xlink:href="#m270b08724d" y="263.236187"/>
     <use style="fill:#ff0000;stroke:#ff0000;" x="165.654215" xlink:href="#m270b08724d" y="283.910477"/>
     <use style="fill:#ff0000;stroke:#ff0000;" x="168.933554" xlink:href="#m270b08724d" y="249.880866"/>
     <use style="fill:#ff0000;stroke:#ff0000;" x="172.212893" xlink:href="#m270b08724d" y="259.281956"/>
     <use style="fill:#ff0000;stroke:#ff0000;" x="175.492231" xlink:href="#m270b08724d" y="248.289418"/>
     <use style="fill:#ff0000;stroke:#ff0000;" x="178.77157" xlink:href="#m270b08724d" y="238.268035"/>
     <use style="fill:#ff0000;stroke:#ff0000;" x="182.050909" xlink:href="#m270b08724d" y="252.10756"/>
     <use style="fill:#ff0000;stroke:#ff0000;" x="185.330248" xlink:href="#m270b08724d" y="274.885021"/>
     <use style="fill:#ff0000;stroke:#ff0000;" x="188.609587" xlink:href="#m270b08724d" y="267.975364"/>
     <use style="fill:#ff0000;stroke:#ff0000;" x="191.888926" xlink:href="#m270b08724d" y="259.981758"/>
     <use style="fill:#ff0000;stroke:#ff0000;" x="195.168264" xlink:href="#m270b08724d" y="275.469401"/>
     <use style="fill:#ff0000;stroke:#ff0000;" x="198.447603" xlink:href="#m270b08724d" y="250.7363"/>
     <use style="fill:#ff0000;stroke:#ff0000;" x="201.726942" xlink:href="#m270b08724d" y="244.848478"/>
     <use style="fill:#ff0000;stroke:#ff0000;" x="205.006281" xlink:href="#m270b08724d" y="256.2125"/>
     <use style="fill:#ff0000;stroke:#ff0000;" x="208.28562" xlink:href="#m270b08724d" y="218.687791"/>
     <use style="fill:#ff0000;stroke:#ff0000;" x="211.564959" xlink:href="#m270b08724d" y="268.548936"/>
     <use style="fill:#ff0000;stroke:#ff0000;" x="214.844298" xlink:href="#m270b08724d" y="270.544138"/>
     <use style="fill:#ff0000;stroke:#ff0000;" x="218.123636" xlink:href="#m270b08724d" y="235.281764"/>
     <use style="fill:#ff0000;stroke:#ff0000;" x="221.402975" xlink:href="#m270b08724d" y="242.476305"/>
     <use style="fill:#ff0000;stroke:#ff0000;" x="224.682314" xlink:href="#m270b08724d" y="238.741379"/>
     <use style="fill:#ff0000;stroke:#ff0000;" x="227.961653" xlink:href="#m270b08724d" y="250.240102"/>
     <use style="fill:#ff0000;stroke:#ff0000;" x="231.240992" xlink:href="#m270b08724d" y="236.008852"/>
     <use style="fill:#ff0000;stroke:#ff0000;" x="234.520331" xlink:href="#m270b08724d" y="248.812451"/>
     <use style="fill:#ff0000;stroke:#ff0000;" x="237.799669" xlink:href="#m270b08724d" y="261.821751"/>
     <use style="fill:#ff0000;stroke:#ff0000;" x="241.079008" xlink:href="#m270b08724d" y="241.553069"/>
     <use style="fill:#ff0000;stroke:#ff0000;" x="244.358347" xlink:href="#m270b08724d" y="232.731537"/>
     <use style="fill:#ff0000;stroke:#ff0000;" x="247.637686" xlink:href="#m270b08724d" y="231.857844"/>
     <use style="fill:#ff0000;stroke:#ff0000;" x="250.917025" xlink:href="#m270b08724d" y="222.025471"/>
     <use style="fill:#ff0000;stroke:#ff0000;" x="254.196364" xlink:href="#m270b08724d" y="229.607235"/>
     <use style="fill:#ff0000;stroke:#ff0000;" x="257.475702" xlink:href="#m270b08724d" y="245.371262"/>
     <use style="fill:#ff0000;stroke:#ff0000;" x="260.755041" xlink:href="#m270b08724d" y="240.357417"/>
     <use style="fill:#ff0000;stroke:#ff0000;" x="264.03438" xlink:href="#m270b08724d" y="240.312106"/>
     <use style="fill:#ff0000;stroke:#ff0000;" x="267.313719" xlink:href="#m270b08724d" y="217.515775"/>
     <use style="fill:#ff0000;stroke:#ff0000;" x="270.593058" xlink:href="#m270b08724d" y="241.258097"/>
     <use style="fill:#ff0000;stroke:#ff0000;" x="273.872397" xlink:href="#m270b08724d" y="224.881922"/>
     <use style="fill:#ff0000;stroke:#ff0000;" x="277.151736" xlink:href="#m270b08724d" y="221.49088"/>
     <use style="fill:#ff0000;stroke:#ff0000;" x="280.431074" xlink:href="#m270b08724d" y="203.891599"/>
     <use style="fill:#ff0000;stroke:#ff0000;" x="283.710413" xlink:href="#m270b08724d" y="173.485249"/>
     <use style="fill:#ff0000;stroke:#ff0000;" x="286.989752" xlink:href="#m270b08724d" y="188.899142"/>
     <use style="fill:#ff0000;stroke:#ff0000;" x="290.269091" xlink:href="#m270b08724d" y="221.989707"/>
     <use style="fill:#ff0000;stroke:#ff0000;" x="293.54843" xlink:href="#m270b08724d" y="194.341436"/>
     <use style="fill:#ff0000;stroke:#ff0000;" x="296.827769" xlink:href="#m270b08724d" y="211.511965"/>
     <use style="fill:#ff0000;stroke:#ff0000;" x="300.107107" xlink:href="#m270b08724d" y="191.031567"/>
     <use style="fill:#ff0000;stroke:#ff0000;" x="303.386446" xlink:href="#m270b08724d" y="183.769624"/>
     <use style="fill:#ff0000;stroke:#ff0000;" x="306.665785" xlink:href="#m270b08724d" y="185.811056"/>
     <use style="fill:#ff0000;stroke:#ff0000;" x="309.945124" xlink:href="#m270b08724d" y="186.023291"/>
     <use style="fill:#ff0000;stroke:#ff0000;" x="313.224463" xlink:href="#m270b08724d" y="179.350731"/>
     <use style="fill:#ff0000;stroke:#ff0000;" x="316.503802" xlink:href="#m270b08724d" y="146.238807"/>
     <use style="fill:#ff0000;stroke:#ff0000;" x="319.78314" xlink:href="#m270b08724d" y="167.757299"/>
     <use style="fill:#ff0000;stroke:#ff0000;" x="323.062479" xlink:href="#m270b08724d" y="174.886689"/>
     <use style="fill:#ff0000;stroke:#ff0000;" x="326.341818" xlink:href="#m270b08724d" y="163.303908"/>
     <use style="fill:#ff0000;stroke:#ff0000;" x="329.621157" xlink:href="#m270b08724d" y="163.376231"/>
     <use style="fill:#ff0000;stroke:#ff0000;" x="332.900496" xlink:href="#m270b08724d" y="176.031414"/>
     <use style="fill:#ff0000;stroke:#ff0000;" x="336.179835" xlink:href="#m270b08724d" y="131.895151"/>
     <use style="fill:#ff0000;stroke:#ff0000;" x="339.459174" xlink:href="#m270b08724d" y="129.06319"/>
     <use style="fill:#ff0000;stroke:#ff0000;" x="342.738512" xlink:href="#m270b08724d" y="139.447446"/>
     <use style="fill:#ff0000;stroke:#ff0000;" x="346.017851" xlink:href="#m270b08724d" y="146.984885"/>
     <use style="fill:#ff0000;stroke:#ff0000;" x="349.29719" xlink:href="#m270b08724d" y="158.160707"/>
     <use style="fill:#ff0000;stroke:#ff0000;" x="352.576529" xlink:href="#m270b08724d" y="129.871955"/>
     <use style="fill:#ff0000;stroke:#ff0000;" x="355.855868" xlink:href="#m270b08724d" y="137.864404"/>
     <use style="fill:#ff0000;stroke:#ff0000;" x="359.135207" xlink:href="#m270b08724d" y="122.991114"/>
     <use style="fill:#ff0000;stroke:#ff0000;" x="362.414545" xlink:href="#m270b08724d" y="128.435843"/>
     <use style="fill:#ff0000;stroke:#ff0000;" x="365.693884" xlink:href="#m270b08724d" y="108.338173"/>
     <use style="fill:#ff0000;stroke:#ff0000;" x="368.973223" xlink:href="#m270b08724d" y="111.778033"/>
     <use style="fill:#ff0000;stroke:#ff0000;" x="372.252562" xlink:href="#m270b08724d" y="89.181876"/>
     <use style="fill:#ff0000;stroke:#ff0000;" x="375.531901" xlink:href="#m270b08724d" y="107.008346"/>
     <use style="fill:#ff0000;stroke:#ff0000;" x="378.81124" xlink:href="#m270b08724d" y="105.504478"/>
     <use style="fill:#ff0000;stroke:#ff0000;" x="382.090579" xlink:href="#m270b08724d" y="99.810073"/>
     <use style="fill:#ff0000;stroke:#ff0000;" x="385.369917" xlink:href="#m270b08724d" y="108.265134"/>
     <use style="fill:#ff0000;stroke:#ff0000;" x="388.649256" xlink:href="#m270b08724d" y="93.320313"/>
     <use style="fill:#ff0000;stroke:#ff0000;" x="391.928595" xlink:href="#m270b08724d" y="98.779819"/>
     <use style="fill:#ff0000;stroke:#ff0000;" x="395.207934" xlink:href="#m270b08724d" y="55.037131"/>
     <use style="fill:#ff0000;stroke:#ff0000;" x="398.487273" xlink:href="#m270b08724d" y="53.568"/>
    </g>
   </g>
   <g id="line2d_17">
    <path clip-path="url(#pdaad85f1fa)" d="M 73.832727 257.405663 
L 77.112066 258.605124 
L 80.391405 259.741494 
L 83.670744 260.814771 
L 86.950083 261.824957 
L 90.229421 262.772051 
L 93.50876 263.656053 
L 96.788099 264.476963 
L 100.067438 265.234781 
L 103.346777 265.929507 
L 106.626116 266.561142 
L 109.905455 267.129685 
L 113.184793 267.635135 
L 116.464132 268.077494 
L 119.743471 268.456761 
L 123.02281 268.772936 
L 126.302149 269.026019 
L 129.581488 269.216011 
L 132.860826 269.34291 
L 136.140165 269.406718 
L 139.419504 269.407434 
L 142.698843 269.345058 
L 145.978182 269.21959 
L 149.257521 269.03103 
L 152.53686 268.779378 
L 155.816198 268.464635 
L 159.095537 268.086799 
L 162.374876 267.645872 
L 165.654215 267.141853 
L 168.933554 266.574741 
L 172.212893 265.944539 
L 175.492231 265.251244 
L 178.77157 264.494857 
L 182.050909 263.675379 
L 185.330248 262.792808 
L 188.609587 261.847146 
L 191.888926 260.838392 
L 195.168264 259.766546 
L 198.447603 258.631608 
L 201.726942 257.433578 
L 205.006281 256.172456 
L 208.28562 254.848243 
L 211.564959 253.460937 
L 214.844298 252.01054 
L 218.123636 250.497051 
L 221.402975 248.92047 
L 224.682314 247.280797 
L 227.961653 245.578033 
L 231.240992 243.812176 
L 234.520331 241.983228 
L 237.799669 240.091187 
L 241.079008 238.136055 
L 244.358347 236.117831 
L 247.637686 234.036515 
L 250.917025 231.892107 
L 254.196364 229.684607 
L 257.475702 227.414016 
L 260.755041 225.080332 
L 264.03438 222.683557 
L 267.313719 220.22369 
L 270.593058 217.700731 
L 273.872397 215.11468 
L 277.151736 212.465537 
L 280.431074 209.753303 
L 283.710413 206.977976 
L 286.989752 204.139558 
L 290.269091 201.238048 
L 293.54843 198.273445 
L 296.827769 195.245751 
L 300.107107 192.154966 
L 303.386446 189.001088 
L 306.665785 185.784118 
L 309.945124 182.504057 
L 313.224463 179.160903 
L 316.503802 175.754658 
L 319.78314 172.285321 
L 323.062479 168.752892 
L 326.341818 165.157371 
L 329.621157 161.498759 
L 332.900496 157.777054 
L 336.179835 153.992258 
L 339.459174 150.144369 
L 342.738512 146.233389 
L 346.017851 142.259317 
L 349.29719 138.222153 
L 352.576529 134.121897 
L 355.855868 129.95855 
L 359.135207 125.73211 
L 362.414545 121.442579 
L 365.693884 117.089956 
L 368.973223 112.67424 
L 372.252562 108.195433 
L 375.531901 103.653535 
L 378.81124 99.048544 
L 382.090579 94.380461 
L 385.369917 89.649287 
L 388.649256 84.85502 
L 391.928595 79.997662 
L 395.207934 75.077212 
L 398.487273 70.09367 
" style="fill:none;stroke:#0000ff;stroke-linecap:square;stroke-width:1.5;"/>
   </g>
   <g id="patch_3">
    <path d="M 57.6 307.584 
L 57.6 41.472 
" style="fill:none;stroke:#000000;stroke-linecap:square;stroke-linejoin:miter;stroke-width:0.8;"/>
   </g>
   <g id="patch_4">
    <path d="M 414.72 307.584 
L 414.72 41.472 
" style="fill:none;stroke:#000000;stroke-linecap:square;stroke-linejoin:miter;stroke-width:0.8;"/>
   </g>
   <g id="patch_5">
    <path d="M 57.6 307.584 
L 414.72 307.584 
" style="fill:none;stroke:#000000;stroke-linecap:square;stroke-linejoin:miter;stroke-width:0.8;"/>
   </g>
   <g id="patch_6">
    <path d="M 57.6 41.472 
L 414.72 41.472 
" style="fill:none;stroke:#000000;stroke-linecap:square;stroke-linejoin:miter;stroke-width:0.8;"/>
   </g>
  </g>
 </g>
 <defs>
  <clipPath id="pdaad85f1fa">
   <rect height="266.112" width="357.12" x="57.6" y="41.472"/>
  </clipPath>
 </defs>
</svg>
