<?xml version="1.0" encoding="UTF-8" standalone="no"?>
<!-- Created with Inkscape (http://www.inkscape.org/) -->

<svg
   xmlns:dc="http://purl.org/dc/elements/1.1/"
   xmlns:cc="http://creativecommons.org/ns#"
   xmlns:rdf="http://www.w3.org/1999/02/22-rdf-syntax-ns#"
   xmlns:svg="http://www.w3.org/2000/svg"
   xmlns="http://www.w3.org/2000/svg"
   xmlns:sodipodi="http://sodipodi.sourceforge.net/DTD/sodipodi-0.dtd"
   xmlns:inkscape="http://www.inkscape.org/namespaces/inkscape"
   id="svg2"
   version="1.1"
   inkscape:version="0.91 r13725"
   xml:space="preserve"
   width="720"
   height="540"
   viewBox="0 0 720 540"
   sodipodi:docname="quadgraph.svg"><metadata
     id="metadata8"><rdf:RDF><cc:Work
         rdf:about=""><dc:format>image/svg+xml</dc:format><dc:type
           rdf:resource="http://purl.org/dc/dcmitype/StillImage" /><dc:title></dc:title></cc:Work></rdf:RDF></metadata><defs
     id="defs6"><clipPath
       clipPathUnits="userSpaceOnUse"
       id="clipPath22"><path
         d="m 720,432 4464,0 0,3456 -4464,0 0,-3456 z"
         id="path24"
         inkscape:connector-curvature="0" /></clipPath></defs><sodipodi:namedview
     pagecolor="#ffffff"
     bordercolor="#666666"
     borderopacity="1"
     objecttolerance="10"
     gridtolerance="10"
     guidetolerance="10"
     inkscape:pageopacity="0"
     inkscape:pageshadow="2"
     inkscape:window-width="640"
     inkscape:window-height="480"
     id="namedview4"
     showgrid="false"
     inkscape:zoom="0.43703704"
     inkscape:cx="360"
     inkscape:cy="270"
     inkscape:window-x="156"
     inkscape:window-y="28"
     inkscape:window-maximized="0"
     inkscape:current-layer="g10" /><g
     id="g10"
     inkscape:groupmode="layer"
     inkscape:label="quadgraph"
     transform="matrix(1.25,0,0,-1.25,0,540)"><g
       id="g12"
       transform="scale(0.1,0.1)"><path
         d="m 0,0 5760,0 0,4320 L 0,4320 0,0 Z"
         style="fill:#ffffff;fill-opacity:1;fill-rule:nonzero;stroke:none"
         id="path14"
         inkscape:connector-curvature="0" /><path
         d="m 720,432 4464,0 0,3456 -4464,0 0,-3456 z"
         style="fill:#ffffff;fill-opacity:1;fill-rule:nonzero;stroke:none"
         id="path16"
         inkscape:connector-curvature="0" /><g
         id="g18"><g
           id="g20"
           clip-path="url(#clipPath22)"><path
             d="m 720,2897.96 148.801,-201.06 148.799,-184.02 148.8,-166.98 148.8,-149.93 148.8,-132.9 148.8,-115.85 148.8,-98.81 148.8,-81.78 148.8,-64.73 148.8,-47.68 148.8,-30.65 148.8,-13.61 148.8,3.44 148.8,20.47 148.8,37.52 148.8,54.56 148.8,71.6 148.8,88.65 148.8,105.68 148.8,122.72 148.8,139.77 148.8,156.81 148.8,173.85 148.8,190.89 148.8,207.93 148.8,224.97 148.8,242.02 148.8,259.06 148.8,276.09"
             style="fill:none;stroke:#0000ff;stroke-width:10;stroke-linecap:square;stroke-linejoin:round;stroke-miterlimit:10;stroke-dasharray:none;stroke-opacity:1"
             id="path26"
             inkscape:connector-curvature="0" /><path
             d="m 760.027,2765.72 c 7.953,0 15.586,3.16 21.211,8.79 5.625,5.62 8.789,13.26 8.789,21.21 0,7.96 -3.164,15.59 -8.789,21.21 -5.625,5.63 -13.258,8.79 -21.211,8.79 -7.957,0 -15.589,-3.16 -21.215,-8.79 -5.624,-5.62 -8.785,-13.25 -8.785,-21.21 0,-7.95 3.161,-15.59 8.785,-21.21 5.626,-5.63 13.258,-8.79 21.215,-8.79"
             style="fill:#ff0000;fill-opacity:1;fill-rule:nonzero;stroke:none"
             id="path28"
             inkscape:connector-curvature="0" /><path
             d="m 760.027,2765.72 c 7.953,0 15.586,3.16 21.211,8.79 5.625,5.62 8.789,13.26 8.789,21.21 0,7.96 -3.164,15.59 -8.789,21.21 -5.625,5.63 -13.258,8.79 -21.211,8.79 -7.957,0 -15.589,-3.16 -21.215,-8.79 -5.624,-5.62 -8.785,-13.25 -8.785,-21.21 0,-7.95 3.161,-15.59 8.785,-21.21 5.626,-5.63 13.258,-8.79 21.215,-8.79 z"
             style="fill:none;stroke:#000000;stroke-width:5;stroke-linecap:butt;stroke-linejoin:round;stroke-miterlimit:10;stroke-dasharray:none;stroke-opacity:1"
             id="path30"
             inkscape:connector-curvature="0" /><path
             d="m 892.469,2640.81 c 7.953,0 15.586,3.16 21.211,8.79 5.625,5.62 8.789,13.26 8.789,21.21 0,7.96 -3.164,15.59 -8.789,21.21 -5.625,5.63 -13.258,8.79 -21.211,8.79 -7.957,0 -15.59,-3.16 -21.215,-8.79 -5.625,-5.62 -8.785,-13.25 -8.785,-21.21 0,-7.95 3.16,-15.59 8.785,-21.21 5.625,-5.63 13.258,-8.79 21.215,-8.79"
             style="fill:#ff0000;fill-opacity:1;fill-rule:nonzero;stroke:none"
             id="path32"
             inkscape:connector-curvature="0" /><path
             d="m 892.469,2640.81 c 7.953,0 15.586,3.16 21.211,8.79 5.625,5.62 8.789,13.26 8.789,21.21 0,7.96 -3.164,15.59 -8.789,21.21 -5.625,5.63 -13.258,8.79 -21.211,8.79 -7.957,0 -15.59,-3.16 -21.215,-8.79 -5.625,-5.62 -8.785,-13.25 -8.785,-21.21 0,-7.95 3.16,-15.59 8.785,-21.21 5.625,-5.63 13.258,-8.79 21.215,-8.79 z"
             style="fill:none;stroke:#000000;stroke-width:5;stroke-linecap:butt;stroke-linejoin:round;stroke-miterlimit:10;stroke-dasharray:none;stroke-opacity:1"
             id="path34"
             inkscape:connector-curvature="0" /><path
             d="m 1093.13,2400.95 c 7.96,0 15.59,3.16 21.21,8.79 5.63,5.62 8.79,13.25 8.79,21.21 0,7.96 -3.16,15.59 -8.79,21.21 -5.62,5.63 -13.25,8.79 -21.21,8.79 -7.95,0 -15.59,-3.16 -21.21,-8.79 -5.63,-5.62 -8.79,-13.25 -8.79,-21.21 0,-7.96 3.16,-15.59 8.79,-21.21 5.62,-5.63 13.26,-8.79 21.21,-8.79"
             style="fill:#ff0000;fill-opacity:1;fill-rule:nonzero;stroke:none"
             id="path36"
             inkscape:connector-curvature="0" /><path
             d="m 1093.13,2400.95 c 7.96,0 15.59,3.16 21.21,8.79 5.63,5.62 8.79,13.25 8.79,21.21 0,7.96 -3.16,15.59 -8.79,21.21 -5.62,5.63 -13.25,8.79 -21.21,8.79 -7.95,0 -15.59,-3.16 -21.21,-8.79 -5.63,-5.62 -8.79,-13.25 -8.79,-21.21 0,-7.96 3.16,-15.59 8.79,-21.21 5.62,-5.63 13.26,-8.79 21.21,-8.79 z"
             style="fill:none;stroke:#000000;stroke-width:5;stroke-linecap:butt;stroke-linejoin:round;stroke-miterlimit:10;stroke-dasharray:none;stroke-opacity:1"
             id="path38"
             inkscape:connector-curvature="0" /><path
             d="m 1335.66,2378.88 c 7.96,0 15.59,3.16 21.22,8.79 5.62,5.62 8.78,13.26 8.78,21.21 0,7.96 -3.16,15.59 -8.78,21.21 -5.63,5.63 -13.26,8.79 -21.22,8.79 -7.96,0 -15.59,-3.16 -21.21,-8.79 -5.63,-5.62 -8.79,-13.25 -8.79,-21.21 0,-7.95 3.16,-15.59 8.79,-21.21 5.62,-5.63 13.25,-8.79 21.21,-8.79"
             style="fill:#ff0000;fill-opacity:1;fill-rule:nonzero;stroke:none"
             id="path40"
             inkscape:connector-curvature="0" /><path
             d="m 1335.66,2378.88 c 7.96,0 15.59,3.16 21.22,8.79 5.62,5.62 8.78,13.26 8.78,21.21 0,7.96 -3.16,15.59 -8.78,21.21 -5.63,5.63 -13.26,8.79 -21.22,8.79 -7.96,0 -15.59,-3.16 -21.21,-8.79 -5.63,-5.62 -8.79,-13.25 -8.79,-21.21 0,-7.95 3.16,-15.59 8.79,-21.21 5.62,-5.63 13.25,-8.79 21.21,-8.79 z"
             style="fill:none;stroke:#000000;stroke-width:5;stroke-linecap:butt;stroke-linejoin:round;stroke-miterlimit:10;stroke-dasharray:none;stroke-opacity:1"
             id="path42"
             inkscape:connector-curvature="0" /><path
             d="m 1627.56,1892.37 c 7.96,0 15.59,3.16 21.21,8.79 5.63,5.62 8.79,13.25 8.79,21.21 0,7.95 -3.16,15.59 -8.79,21.21 -5.62,5.63 -13.25,8.79 -21.21,8.79 -7.95,0 -15.59,-3.16 -21.21,-8.79 -5.63,-5.62 -8.79,-13.26 -8.79,-21.21 0,-7.96 3.16,-15.59 8.79,-21.21 5.62,-5.63 13.26,-8.79 21.21,-8.79"
             style="fill:#ff0000;fill-opacity:1;fill-rule:nonzero;stroke:none"
             id="path44"
             inkscape:connector-curvature="0" /><path
             d="m 1627.56,1892.37 c 7.96,0 15.59,3.16 21.21,8.79 5.63,5.62 8.79,13.25 8.79,21.21 0,7.95 -3.16,15.59 -8.79,21.21 -5.62,5.63 -13.25,8.79 -21.21,8.79 -7.95,0 -15.59,-3.16 -21.21,-8.79 -5.63,-5.62 -8.79,-13.26 -8.79,-21.21 0,-7.96 3.16,-15.59 8.79,-21.21 5.62,-5.63 13.26,-8.79 21.21,-8.79 z"
             style="fill:none;stroke:#000000;stroke-width:5;stroke-linecap:butt;stroke-linejoin:round;stroke-miterlimit:10;stroke-dasharray:none;stroke-opacity:1"
             id="path46"
             inkscape:connector-curvature="0" /><path
             d="m 1715.54,1831.37 c 7.96,0 15.59,3.16 21.21,8.79 5.63,5.62 8.79,13.25 8.79,21.21 0,7.95 -3.16,15.59 -8.79,21.21 -5.62,5.63 -13.25,8.79 -21.21,8.79 -7.95,0 -15.59,-3.16 -21.21,-8.79 -5.63,-5.62 -8.79,-13.26 -8.79,-21.21 0,-7.96 3.16,-15.59 8.79,-21.21 5.62,-5.63 13.26,-8.79 21.21,-8.79"
             style="fill:#ff0000;fill-opacity:1;fill-rule:nonzero;stroke:none"
             id="path48"
             inkscape:connector-curvature="0" /><path
             d="m 1715.54,1831.37 c 7.96,0 15.59,3.16 21.21,8.79 5.63,5.62 8.79,13.25 8.79,21.21 0,7.95 -3.16,15.59 -8.79,21.21 -5.62,5.63 -13.25,8.79 -21.21,8.79 -7.95,0 -15.59,-3.16 -21.21,-8.79 -5.63,-5.62 -8.79,-13.26 -8.79,-21.21 0,-7.96 3.16,-15.59 8.79,-21.21 5.62,-5.63 13.26,-8.79 21.21,-8.79 z"
             style="fill:none;stroke:#000000;stroke-width:5;stroke-linecap:butt;stroke-linejoin:round;stroke-miterlimit:10;stroke-dasharray:none;stroke-opacity:1"
             id="path50"
             inkscape:connector-curvature="0" /><path
             d="m 2011.65,1600.43 c 7.96,0 15.59,3.16 21.21,8.78 5.63,5.63 8.79,13.26 8.79,21.22 0,7.96 -3.16,15.59 -8.79,21.21 -5.62,5.63 -13.25,8.79 -21.21,8.79 -7.95,0 -15.59,-3.16 -21.21,-8.79 -5.63,-5.62 -8.79,-13.25 -8.79,-21.21 0,-7.96 3.16,-15.59 8.79,-21.22 5.62,-5.62 13.26,-8.78 21.21,-8.78"
             style="fill:#ff0000;fill-opacity:1;fill-rule:nonzero;stroke:none"
             id="path52"
             inkscape:connector-curvature="0" /><path
             d="m 2011.65,1600.43 c 7.96,0 15.59,3.16 21.21,8.78 5.63,5.63 8.79,13.26 8.79,21.22 0,7.96 -3.16,15.59 -8.79,21.21 -5.62,5.63 -13.25,8.79 -21.21,8.79 -7.95,0 -15.59,-3.16 -21.21,-8.79 -5.63,-5.62 -8.79,-13.25 -8.79,-21.21 0,-7.96 3.16,-15.59 8.79,-21.22 5.62,-5.62 13.26,-8.78 21.21,-8.78 z"
             style="fill:none;stroke:#000000;stroke-width:5;stroke-linecap:butt;stroke-linejoin:round;stroke-miterlimit:10;stroke-dasharray:none;stroke-opacity:1"
             id="path54"
             inkscape:connector-curvature="0" /><path
             d="m 2328.07,1314.76 c 7.96,0 15.59,3.16 21.22,8.79 5.62,5.62 8.78,13.25 8.78,21.21 0,7.95 -3.16,15.59 -8.78,21.21 -5.63,5.63 -13.26,8.79 -21.22,8.79 -7.96,0 -15.59,-3.16 -21.21,-8.79 -5.63,-5.62 -8.79,-13.26 -8.79,-21.21 0,-7.96 3.16,-15.59 8.79,-21.21 5.62,-5.63 13.25,-8.79 21.21,-8.79"
             style="fill:#ff0000;fill-opacity:1;fill-rule:nonzero;stroke:none"
             id="path56"
             inkscape:connector-curvature="0" /><path
             d="m 2328.07,1314.76 c 7.96,0 15.59,3.16 21.22,8.79 5.62,5.62 8.78,13.25 8.78,21.21 0,7.95 -3.16,15.59 -8.78,21.21 -5.63,5.63 -13.26,8.79 -21.22,8.79 -7.96,0 -15.59,-3.16 -21.21,-8.79 -5.63,-5.62 -8.79,-13.26 -8.79,-21.21 0,-7.96 3.16,-15.59 8.79,-21.21 5.62,-5.63 13.25,-8.79 21.21,-8.79 z"
             style="fill:none;stroke:#000000;stroke-width:5;stroke-linecap:butt;stroke-linejoin:round;stroke-miterlimit:10;stroke-dasharray:none;stroke-opacity:1"
             id="path58"
             inkscape:connector-curvature="0" /><path
             d="m 2554.78,1352.04 c 7.95,0 15.59,3.16 21.21,8.79 5.63,5.62 8.79,13.25 8.79,21.21 0,7.96 -3.16,15.59 -8.79,21.21 -5.62,5.63 -13.26,8.79 -21.21,8.79 -7.96,0 -15.59,-3.16 -21.21,-8.79 -5.63,-5.62 -8.79,-13.25 -8.79,-21.21 0,-7.96 3.16,-15.59 8.79,-21.21 5.62,-5.63 13.25,-8.79 21.21,-8.79"
             style="fill:#ff0000;fill-opacity:1;fill-rule:nonzero;stroke:none"
             id="path60"
             inkscape:connector-curvature="0" /><path
             d="m 2554.78,1352.04 c 7.95,0 15.59,3.16 21.21,8.79 5.63,5.62 8.79,13.25 8.79,21.21 0,7.96 -3.16,15.59 -8.79,21.21 -5.62,5.63 -13.26,8.79 -21.21,8.79 -7.96,0 -15.59,-3.16 -21.21,-8.79 -5.63,-5.62 -8.79,-13.25 -8.79,-21.21 0,-7.96 3.16,-15.59 8.79,-21.21 5.62,-5.63 13.25,-8.79 21.21,-8.79 z"
             style="fill:none;stroke:#000000;stroke-width:5;stroke-linecap:butt;stroke-linejoin:round;stroke-miterlimit:10;stroke-dasharray:none;stroke-opacity:1"
             id="path62"
             inkscape:connector-curvature="0" /><path
             d="m 2672.74,1683.79 c 7.96,0 15.59,3.16 21.21,8.79 5.63,5.62 8.79,13.26 8.79,21.21 0,7.96 -3.16,15.59 -8.79,21.21 -5.62,5.63 -13.25,8.79 -21.21,8.79 -7.95,0 -15.59,-3.16 -21.21,-8.79 -5.63,-5.62 -8.79,-13.25 -8.79,-21.21 0,-7.95 3.16,-15.59 8.79,-21.21 5.62,-5.63 13.26,-8.79 21.21,-8.79"
             style="fill:#ff0000;fill-opacity:1;fill-rule:nonzero;stroke:none"
             id="path64"
             inkscape:connector-curvature="0" /><path
             d="m 2672.74,1683.79 c 7.96,0 15.59,3.16 21.21,8.79 5.63,5.62 8.79,13.26 8.79,21.21 0,7.96 -3.16,15.59 -8.79,21.21 -5.62,5.63 -13.25,8.79 -21.21,8.79 -7.95,0 -15.59,-3.16 -21.21,-8.79 -5.63,-5.62 -8.79,-13.25 -8.79,-21.21 0,-7.95 3.16,-15.59 8.79,-21.21 5.62,-5.63 13.26,-8.79 21.21,-8.79 z"
             style="fill:none;stroke:#000000;stroke-width:5;stroke-linecap:butt;stroke-linejoin:round;stroke-miterlimit:10;stroke-dasharray:none;stroke-opacity:1"
             id="path66"
             inkscape:connector-curvature="0" /><path
             d="m 2806.73,1921.21 c 7.96,0 15.59,3.16 21.21,8.79 5.63,5.62 8.79,13.25 8.79,21.21 0,7.96 -3.16,15.59 -8.79,21.21 -5.62,5.63 -13.25,8.79 -21.21,8.79 -7.96,0 -15.59,-3.16 -21.21,-8.79 -5.63,-5.62 -8.79,-13.25 -8.79,-21.21 0,-7.96 3.16,-15.59 8.79,-21.21 5.62,-5.63 13.25,-8.79 21.21,-8.79"
             style="fill:#ff0000;fill-opacity:1;fill-rule:nonzero;stroke:none"
             id="path68"
             inkscape:connector-curvature="0" /><path
             d="m 2806.73,1921.21 c 7.96,0 15.59,3.16 21.21,8.79 5.63,5.62 8.79,13.25 8.79,21.21 0,7.96 -3.16,15.59 -8.79,21.21 -5.62,5.63 -13.25,8.79 -21.21,8.79 -7.96,0 -15.59,-3.16 -21.21,-8.79 -5.63,-5.62 -8.79,-13.25 -8.79,-21.21 0,-7.96 3.16,-15.59 8.79,-21.21 5.62,-5.63 13.25,-8.79 21.21,-8.79 z"
             style="fill:none;stroke:#000000;stroke-width:5;stroke-linecap:butt;stroke-linejoin:round;stroke-miterlimit:10;stroke-dasharray:none;stroke-opacity:1"
             id="path70"
             inkscape:connector-curvature="0" /><path
             d="m 3285.96,1757.37 c 7.96,0 15.59,3.16 21.21,8.79 5.63,5.62 8.79,13.25 8.79,21.21 0,7.95 -3.16,15.59 -8.79,21.21 -5.62,5.63 -13.25,8.79 -21.21,8.79 -7.96,0 -15.59,-3.16 -21.21,-8.79 -5.63,-5.62 -8.79,-13.26 -8.79,-21.21 0,-7.96 3.16,-15.59 8.79,-21.21 5.62,-5.63 13.25,-8.79 21.21,-8.79"
             style="fill:#ff0000;fill-opacity:1;fill-rule:nonzero;stroke:none"
             id="path72"
             inkscape:connector-curvature="0" /><path
             d="m 3285.96,1757.37 c 7.96,0 15.59,3.16 21.21,8.79 5.63,5.62 8.79,13.25 8.79,21.21 0,7.95 -3.16,15.59 -8.79,21.21 -5.62,5.63 -13.25,8.79 -21.21,8.79 -7.96,0 -15.59,-3.16 -21.21,-8.79 -5.63,-5.62 -8.79,-13.26 -8.79,-21.21 0,-7.96 3.16,-15.59 8.79,-21.21 5.62,-5.63 13.25,-8.79 21.21,-8.79 z"
             style="fill:none;stroke:#000000;stroke-width:5;stroke-linecap:butt;stroke-linejoin:round;stroke-miterlimit:10;stroke-dasharray:none;stroke-opacity:1"
             id="path74"
             inkscape:connector-curvature="0" /><path
             d="m 3464.3,1979.5 c 7.96,0 15.59,3.16 21.21,8.79 5.63,5.62 8.79,13.25 8.79,21.21 0,7.96 -3.16,15.59 -8.79,21.21 -5.62,5.63 -13.25,8.79 -21.21,8.79 -7.96,0 -15.59,-3.16 -21.21,-8.79 -5.63,-5.62 -8.79,-13.25 -8.79,-21.21 0,-7.96 3.16,-15.59 8.79,-21.21 5.62,-5.63 13.25,-8.79 21.21,-8.79"
             style="fill:#ff0000;fill-opacity:1;fill-rule:nonzero;stroke:none"
             id="path76"
             inkscape:connector-curvature="0" /><path
             d="m 3464.3,1979.5 c 7.96,0 15.59,3.16 21.21,8.79 5.63,5.62 8.79,13.25 8.79,21.21 0,7.96 -3.16,15.59 -8.79,21.21 -5.62,5.63 -13.25,8.79 -21.21,8.79 -7.96,0 -15.59,-3.16 -21.21,-8.79 -5.63,-5.62 -8.79,-13.25 -8.79,-21.21 0,-7.96 3.16,-15.59 8.79,-21.21 5.62,-5.63 13.25,-8.79 21.21,-8.79 z"
             style="fill:none;stroke:#000000;stroke-width:5;stroke-linecap:butt;stroke-linejoin:round;stroke-miterlimit:10;stroke-dasharray:none;stroke-opacity:1"
             id="path78"
             inkscape:connector-curvature="0" /><path
             d="m 3548.8,1961.67 c 7.96,0 15.59,3.16 21.21,8.79 5.63,5.62 8.79,13.25 8.79,21.21 0,7.95 -3.16,15.59 -8.79,21.21 -5.62,5.63 -13.25,8.79 -21.21,8.79 -7.96,0 -15.59,-3.16 -21.21,-8.79 -5.63,-5.62 -8.79,-13.26 -8.79,-21.21 0,-7.96 3.16,-15.59 8.79,-21.21 5.62,-5.63 13.25,-8.79 21.21,-8.79"
             style="fill:#ff0000;fill-opacity:1;fill-rule:nonzero;stroke:none"
             id="path80"
             inkscape:connector-curvature="0" /><path
             d="m 3548.8,1961.67 c 7.96,0 15.59,3.16 21.21,8.79 5.63,5.62 8.79,13.25 8.79,21.21 0,7.95 -3.16,15.59 -8.79,21.21 -5.62,5.63 -13.25,8.79 -21.21,8.79 -7.96,0 -15.59,-3.16 -21.21,-8.79 -5.63,-5.62 -8.79,-13.26 -8.79,-21.21 0,-7.96 3.16,-15.59 8.79,-21.21 5.62,-5.63 13.25,-8.79 21.21,-8.79 z"
             style="fill:none;stroke:#000000;stroke-width:5;stroke-linecap:butt;stroke-linejoin:round;stroke-miterlimit:10;stroke-dasharray:none;stroke-opacity:1"
             id="path82"
             inkscape:connector-curvature="0" /><path
             d="m 3871.18,2186.54 c 7.96,0 15.59,3.16 21.21,8.79 5.63,5.62 8.79,13.26 8.79,21.21 0,7.96 -3.16,15.59 -8.79,21.21 -5.62,5.63 -13.25,8.79 -21.21,8.79 -7.96,0 -15.59,-3.16 -21.21,-8.79 -5.63,-5.62 -8.79,-13.25 -8.79,-21.21 0,-7.95 3.16,-15.59 8.79,-21.21 5.62,-5.63 13.25,-8.79 21.21,-8.79"
             style="fill:#ff0000;fill-opacity:1;fill-rule:nonzero;stroke:none"
             id="path84"
             inkscape:connector-curvature="0" /><path
             d="m 3871.18,2186.54 c 7.96,0 15.59,3.16 21.21,8.79 5.63,5.62 8.79,13.26 8.79,21.21 0,7.96 -3.16,15.59 -8.79,21.21 -5.62,5.63 -13.25,8.79 -21.21,8.79 -7.96,0 -15.59,-3.16 -21.21,-8.79 -5.63,-5.62 -8.79,-13.25 -8.79,-21.21 0,-7.95 3.16,-15.59 8.79,-21.21 5.62,-5.63 13.25,-8.79 21.21,-8.79 z"
             style="fill:none;stroke:#000000;stroke-width:5;stroke-linecap:butt;stroke-linejoin:round;stroke-miterlimit:10;stroke-dasharray:none;stroke-opacity:1"
             id="path86"
             inkscape:connector-curvature="0" /><path
             d="m 4046.98,2360.02 c 7.96,0 15.59,3.16 21.21,8.79 5.63,5.62 8.79,13.25 8.79,21.21 0,7.96 -3.16,15.59 -8.79,21.21 -5.62,5.63 -13.25,8.79 -21.21,8.79 -7.96,0 -15.59,-3.16 -21.21,-8.79 -5.63,-5.62 -8.79,-13.25 -8.79,-21.21 0,-7.96 3.16,-15.59 8.79,-21.21 5.62,-5.63 13.25,-8.79 21.21,-8.79"
             style="fill:#ff0000;fill-opacity:1;fill-rule:nonzero;stroke:none"
             id="path88"
             inkscape:connector-curvature="0" /><path
             d="m 4046.98,2360.02 c 7.96,0 15.59,3.16 21.21,8.79 5.63,5.62 8.79,13.25 8.79,21.21 0,7.96 -3.16,15.59 -8.79,21.21 -5.62,5.63 -13.25,8.79 -21.21,8.79 -7.96,0 -15.59,-3.16 -21.21,-8.79 -5.63,-5.62 -8.79,-13.25 -8.79,-21.21 0,-7.96 3.16,-15.59 8.79,-21.21 5.62,-5.63 13.25,-8.79 21.21,-8.79 z"
             style="fill:none;stroke:#000000;stroke-width:5;stroke-linecap:butt;stroke-linejoin:round;stroke-miterlimit:10;stroke-dasharray:none;stroke-opacity:1"
             id="path90"
             inkscape:connector-curvature="0" /><path
             d="m 4189.38,2702.09 c 7.96,0 15.59,3.16 21.21,8.79 5.63,5.62 8.79,13.25 8.79,21.21 0,7.96 -3.16,15.59 -8.79,21.21 -5.62,5.63 -13.25,8.79 -21.21,8.79 -7.95,0 -15.59,-3.16 -21.21,-8.79 -5.63,-5.62 -8.79,-13.25 -8.79,-21.21 0,-7.96 3.16,-15.59 8.79,-21.21 5.62,-5.63 13.26,-8.79 21.21,-8.79"
             style="fill:#ff0000;fill-opacity:1;fill-rule:nonzero;stroke:none"
             id="path92"
             inkscape:connector-curvature="0" /><path
             d="m 4189.38,2702.09 c 7.96,0 15.59,3.16 21.21,8.79 5.63,5.62 8.79,13.25 8.79,21.21 0,7.96 -3.16,15.59 -8.79,21.21 -5.62,5.63 -13.25,8.79 -21.21,8.79 -7.95,0 -15.59,-3.16 -21.21,-8.79 -5.63,-5.62 -8.79,-13.25 -8.79,-21.21 0,-7.96 3.16,-15.59 8.79,-21.21 5.62,-5.63 13.26,-8.79 21.21,-8.79 z"
             style="fill:none;stroke:#000000;stroke-width:5;stroke-linecap:butt;stroke-linejoin:round;stroke-miterlimit:10;stroke-dasharray:none;stroke-opacity:1"
             id="path94"
             inkscape:connector-curvature="0" /><path
             d="m 4600.01,3458.56 c 7.95,0 15.59,3.16 21.21,8.79 5.63,5.62 8.79,13.26 8.79,21.21 0,7.96 -3.16,15.59 -8.79,21.21 -5.62,5.63 -13.26,8.79 -21.21,8.79 -7.96,0 -15.59,-3.16 -21.21,-8.79 -5.63,-5.62 -8.79,-13.25 -8.79,-21.21 0,-7.95 3.16,-15.59 8.79,-21.21 5.62,-5.63 13.25,-8.79 21.21,-8.79"
             style="fill:#ff0000;fill-opacity:1;fill-rule:nonzero;stroke:none"
             id="path96"
             inkscape:connector-curvature="0" /><path
             d="m 4600.01,3458.56 c 7.95,0 15.59,3.16 21.21,8.79 5.63,5.62 8.79,13.26 8.79,21.21 0,7.96 -3.16,15.59 -8.79,21.21 -5.62,5.63 -13.26,8.79 -21.21,8.79 -7.96,0 -15.59,-3.16 -21.21,-8.79 -5.63,-5.62 -8.79,-13.25 -8.79,-21.21 0,-7.95 3.16,-15.59 8.79,-21.21 5.62,-5.63 13.25,-8.79 21.21,-8.79 z"
             style="fill:none;stroke:#000000;stroke-width:5;stroke-linecap:butt;stroke-linejoin:round;stroke-miterlimit:10;stroke-dasharray:none;stroke-opacity:1"
             id="path98"
             inkscape:connector-curvature="0" /><path
             d="m 4765.98,3380.67 c 7.96,0 15.59,3.16 21.22,8.79 5.62,5.62 8.78,13.25 8.78,21.21 0,7.95 -3.16,15.59 -8.78,21.21 -5.63,5.63 -13.26,8.79 -21.22,8.79 -7.96,0 -15.59,-3.16 -21.21,-8.79 -5.63,-5.62 -8.79,-13.26 -8.79,-21.21 0,-7.96 3.16,-15.59 8.79,-21.21 5.62,-5.63 13.25,-8.79 21.21,-8.79"
             style="fill:#ff0000;fill-opacity:1;fill-rule:nonzero;stroke:none"
             id="path100"
             inkscape:connector-curvature="0" /><path
             d="m 4765.98,3380.67 c 7.96,0 15.59,3.16 21.22,8.79 5.62,5.62 8.78,13.25 8.78,21.21 0,7.95 -3.16,15.59 -8.78,21.21 -5.63,5.63 -13.26,8.79 -21.22,8.79 -7.96,0 -15.59,-3.16 -21.21,-8.79 -5.63,-5.62 -8.79,-13.26 -8.79,-21.21 0,-7.96 3.16,-15.59 8.79,-21.21 5.62,-5.63 13.25,-8.79 21.21,-8.79 z"
             style="fill:none;stroke:#000000;stroke-width:5;stroke-linecap:butt;stroke-linejoin:round;stroke-miterlimit:10;stroke-dasharray:none;stroke-opacity:1"
             id="path102"
             inkscape:connector-curvature="0" /><path
             d="m 4966.17,3682.96 c 7.95,0 15.59,3.16 21.21,8.79 5.63,5.62 8.79,13.25 8.79,21.21 0,7.96 -3.16,15.59 -8.79,21.21 -5.62,5.63 -13.26,8.79 -21.21,8.79 -7.96,0 -15.59,-3.16 -21.21,-8.79 -5.63,-5.62 -8.79,-13.25 -8.79,-21.21 0,-7.96 3.16,-15.59 8.79,-21.21 5.62,-5.63 13.25,-8.79 21.21,-8.79"
             style="fill:#ff0000;fill-opacity:1;fill-rule:nonzero;stroke:none"
             id="path104"
             inkscape:connector-curvature="0" /><path
             d="m 4966.17,3682.96 c 7.95,0 15.59,3.16 21.21,8.79 5.63,5.62 8.79,13.25 8.79,21.21 0,7.96 -3.16,15.59 -8.79,21.21 -5.62,5.63 -13.26,8.79 -21.21,8.79 -7.96,0 -15.59,-3.16 -21.21,-8.79 -5.63,-5.62 -8.79,-13.25 -8.79,-21.21 0,-7.96 3.16,-15.59 8.79,-21.21 5.62,-5.63 13.25,-8.79 21.21,-8.79 z"
             style="fill:none;stroke:#000000;stroke-width:5;stroke-linecap:butt;stroke-linejoin:round;stroke-miterlimit:10;stroke-dasharray:none;stroke-opacity:1"
             id="path106"
             inkscape:connector-curvature="0" /></g></g><path
         d="m 720,432 0,40"
         style="fill:#000000;fill-opacity:1;fill-rule:nonzero;stroke:none"
         id="path108"
         inkscape:connector-curvature="0" /><path
         d="m 720,432 0,40"
         style="fill:none;stroke:#000000;stroke-width:5;stroke-linecap:butt;stroke-linejoin:round;stroke-miterlimit:10;stroke-dasharray:none;stroke-opacity:1"
         id="path110"
         inkscape:connector-curvature="0" /><path
         d="m 720,3888 0,-40"
         style="fill:#000000;fill-opacity:1;fill-rule:nonzero;stroke:none"
         id="path112"
         inkscape:connector-curvature="0" /><path
         d="m 720,3888 0,-40"
         style="fill:none;stroke:#000000;stroke-width:5;stroke-linecap:butt;stroke-linejoin:round;stroke-miterlimit:10;stroke-dasharray:none;stroke-opacity:1"
         id="path114"
         inkscape:connector-curvature="0" /><g
         id="g116"
         transform="scale(10,10)"><text
           transform="matrix(1,0,0,-1,63.25,30.2938)"
           style="font-variant:normal;font-weight:normal;font-size:12px;font-family:Arial;-inkscape-font-specification:Arial;writing-mode:lr-tb;fill:#000000;fill-opacity:1;fill-rule:nonzero;stroke:none"
           id="text118"><tspan
             x="0 7.6347647 11.449221"
             y="0"
             sodipodi:role="line"
             id="tspan120">0.0</tspan></text>
</g><path
         d="m 1464,432 0,40"
         style="fill:#000000;fill-opacity:1;fill-rule:nonzero;stroke:none"
         id="path122"
         inkscape:connector-curvature="0" /><path
         d="m 1464,432 0,40"
         style="fill:none;stroke:#000000;stroke-width:5;stroke-linecap:butt;stroke-linejoin:round;stroke-miterlimit:10;stroke-dasharray:none;stroke-opacity:1"
         id="path124"
         inkscape:connector-curvature="0" /><path
         d="m 1464,3888 0,-40"
         style="fill:#000000;fill-opacity:1;fill-rule:nonzero;stroke:none"
         id="path126"
         inkscape:connector-curvature="0" /><path
         d="m 1464,3888 0,-40"
         style="fill:none;stroke:#000000;stroke-width:5;stroke-linecap:butt;stroke-linejoin:round;stroke-miterlimit:10;stroke-dasharray:none;stroke-opacity:1"
         id="path128"
         inkscape:connector-curvature="0" /><g
         id="g130"
         transform="scale(10,10)"><text
           transform="matrix(1,0,0,-1,137.775,30.2938)"
           style="font-variant:normal;font-weight:normal;font-size:12px;font-family:Arial;-inkscape-font-specification:Arial;writing-mode:lr-tb;fill:#000000;fill-opacity:1;fill-rule:nonzero;stroke:none"
           id="text132"><tspan
             x="0 7.6347709 11.449221"
             y="0"
             sodipodi:role="line"
             id="tspan134">0.5</tspan></text>
</g><path
         d="m 2208,432 0,40"
         style="fill:#000000;fill-opacity:1;fill-rule:nonzero;stroke:none"
         id="path136"
         inkscape:connector-curvature="0" /><path
         d="m 2208,432 0,40"
         style="fill:none;stroke:#000000;stroke-width:5;stroke-linecap:butt;stroke-linejoin:round;stroke-miterlimit:10;stroke-dasharray:none;stroke-opacity:1"
         id="path138"
         inkscape:connector-curvature="0" /><path
         d="m 2208,3888 0,-40"
         style="fill:#000000;fill-opacity:1;fill-rule:nonzero;stroke:none"
         id="path140"
         inkscape:connector-curvature="0" /><path
         d="m 2208,3888 0,-40"
         style="fill:none;stroke:#000000;stroke-width:5;stroke-linecap:butt;stroke-linejoin:round;stroke-miterlimit:10;stroke-dasharray:none;stroke-opacity:1"
         id="path142"
         inkscape:connector-curvature="0" /><g
         id="g144"
         transform="scale(10,10)"><text
           transform="matrix(1,0,0,-1,212.308,30.2938)"
           style="font-variant:normal;font-weight:normal;font-size:12px;font-family:Arial;-inkscape-font-specification:Arial;writing-mode:lr-tb;fill:#000000;fill-opacity:1;fill-rule:nonzero;stroke:none"
           id="text146"><tspan
             x="0 7.6347589 11.449221"
             y="0"
             sodipodi:role="line"
             id="tspan148">1.0</tspan></text>
</g><path
         d="m 2952,432 0,40"
         style="fill:#000000;fill-opacity:1;fill-rule:nonzero;stroke:none"
         id="path150"
         inkscape:connector-curvature="0" /><path
         d="m 2952,432 0,40"
         style="fill:none;stroke:#000000;stroke-width:5;stroke-linecap:butt;stroke-linejoin:round;stroke-miterlimit:10;stroke-dasharray:none;stroke-opacity:1"
         id="path152"
         inkscape:connector-curvature="0" /><path
         d="m 2952,3888 0,-40"
         style="fill:#000000;fill-opacity:1;fill-rule:nonzero;stroke:none"
         id="path154"
         inkscape:connector-curvature="0" /><path
         d="m 2952,3888 0,-40"
         style="fill:none;stroke:#000000;stroke-width:5;stroke-linecap:butt;stroke-linejoin:round;stroke-miterlimit:10;stroke-dasharray:none;stroke-opacity:1"
         id="path156"
         inkscape:connector-curvature="0" /><g
         id="g158"
         transform="scale(10,10)"><text
           transform="matrix(1,0,0,-1,286.833,30.45)"
           style="font-variant:normal;font-weight:normal;font-size:12px;font-family:Arial;-inkscape-font-specification:Arial;writing-mode:lr-tb;fill:#000000;fill-opacity:1;fill-rule:nonzero;stroke:none"
           id="text160"><tspan
             x="0 7.6347589 11.449221"
             y="0"
             sodipodi:role="line"
             id="tspan162">1.5</tspan></text>
</g><path
         d="m 3696,432 0,40"
         style="fill:#000000;fill-opacity:1;fill-rule:nonzero;stroke:none"
         id="path164"
         inkscape:connector-curvature="0" /><path
         d="m 3696,432 0,40"
         style="fill:none;stroke:#000000;stroke-width:5;stroke-linecap:butt;stroke-linejoin:round;stroke-miterlimit:10;stroke-dasharray:none;stroke-opacity:1"
         id="path166"
         inkscape:connector-curvature="0" /><path
         d="m 3696,3888 0,-40"
         style="fill:#000000;fill-opacity:1;fill-rule:nonzero;stroke:none"
         id="path168"
         inkscape:connector-curvature="0" /><path
         d="m 3696,3888 0,-40"
         style="fill:none;stroke:#000000;stroke-width:5;stroke-linecap:butt;stroke-linejoin:round;stroke-miterlimit:10;stroke-dasharray:none;stroke-opacity:1"
         id="path170"
         inkscape:connector-curvature="0" /><g
         id="g172"
         transform="scale(10,10)"><text
           transform="matrix(1,0,0,-1,360.889,30.2938)"
           style="font-variant:normal;font-weight:normal;font-size:12px;font-family:Arial;-inkscape-font-specification:Arial;writing-mode:lr-tb;fill:#000000;fill-opacity:1;fill-rule:nonzero;stroke:none"
           id="text174"><tspan
             x="0 7.6347589 11.449221"
             y="0"
             sodipodi:role="line"
             id="tspan176">2.0</tspan></text>
</g><path
         d="m 4440,432 0,40"
         style="fill:#000000;fill-opacity:1;fill-rule:nonzero;stroke:none"
         id="path178"
         inkscape:connector-curvature="0" /><path
         d="m 4440,432 0,40"
         style="fill:none;stroke:#000000;stroke-width:5;stroke-linecap:butt;stroke-linejoin:round;stroke-miterlimit:10;stroke-dasharray:none;stroke-opacity:1"
         id="path180"
         inkscape:connector-curvature="0" /><path
         d="m 4440,3888 0,-40"
         style="fill:#000000;fill-opacity:1;fill-rule:nonzero;stroke:none"
         id="path182"
         inkscape:connector-curvature="0" /><path
         d="m 4440,3888 0,-40"
         style="fill:none;stroke:#000000;stroke-width:5;stroke-linecap:butt;stroke-linejoin:round;stroke-miterlimit:10;stroke-dasharray:none;stroke-opacity:1"
         id="path184"
         inkscape:connector-curvature="0" /><g
         id="g186"
         transform="scale(10,10)"><text
           transform="matrix(1,0,0,-1,435.414,30.2938)"
           style="font-variant:normal;font-weight:normal;font-size:12px;font-family:Arial;-inkscape-font-specification:Arial;writing-mode:lr-tb;fill:#000000;fill-opacity:1;fill-rule:nonzero;stroke:none"
           id="text188"><tspan
             x="0 7.6347833 11.449221"
             y="0"
             sodipodi:role="line"
             id="tspan190">2.5</tspan></text>
</g><path
         d="m 5184,432 0,40"
         style="fill:#000000;fill-opacity:1;fill-rule:nonzero;stroke:none"
         id="path192"
         inkscape:connector-curvature="0" /><path
         d="m 5184,432 0,40"
         style="fill:none;stroke:#000000;stroke-width:5;stroke-linecap:butt;stroke-linejoin:round;stroke-miterlimit:10;stroke-dasharray:none;stroke-opacity:1"
         id="path194"
         inkscape:connector-curvature="0" /><path
         d="m 5184,3888 0,-40"
         style="fill:#000000;fill-opacity:1;fill-rule:nonzero;stroke:none"
         id="path196"
         inkscape:connector-curvature="0" /><path
         d="m 5184,3888 0,-40"
         style="fill:none;stroke:#000000;stroke-width:5;stroke-linecap:butt;stroke-linejoin:round;stroke-miterlimit:10;stroke-dasharray:none;stroke-opacity:1"
         id="path198"
         inkscape:connector-curvature="0" /><g
         id="g200"
         transform="scale(10,10)"><text
           transform="matrix(1,0,0,-1,509.713,30.2938)"
           style="font-variant:normal;font-weight:normal;font-size:12px;font-family:Arial;-inkscape-font-specification:Arial;writing-mode:lr-tb;fill:#000000;fill-opacity:1;fill-rule:nonzero;stroke:none"
           id="text202"><tspan
             x="0 7.6347833 11.449221"
             y="0"
             sodipodi:role="line"
             id="tspan204">3.0</tspan></text>
</g><path
         d="m 720,432 40,0"
         style="fill:#000000;fill-opacity:1;fill-rule:nonzero;stroke:none"
         id="path206"
         inkscape:connector-curvature="0" /><path
         d="m 720,432 40,0"
         style="fill:none;stroke:#000000;stroke-width:5;stroke-linecap:butt;stroke-linejoin:round;stroke-miterlimit:10;stroke-dasharray:none;stroke-opacity:1"
         id="path208"
         inkscape:connector-curvature="0" /><path
         d="m 5184,432 -40,0"
         style="fill:#000000;fill-opacity:1;fill-rule:nonzero;stroke:none"
         id="path210"
         inkscape:connector-curvature="0" /><path
         d="m 5184,432 -40,0"
         style="fill:none;stroke:#000000;stroke-width:5;stroke-linecap:butt;stroke-linejoin:round;stroke-miterlimit:10;stroke-dasharray:none;stroke-opacity:1"
         id="path212"
         inkscape:connector-curvature="0" /><g
         id="g214"
         transform="scale(10,10)"><text
           transform="matrix(1,0,0,-1,50.5,38.8328)"
           style="font-variant:normal;font-weight:normal;font-size:12px;font-family:Arial;-inkscape-font-specification:Arial;writing-mode:lr-tb;fill:#000000;fill-opacity:1;fill-rule:nonzero;stroke:none"
           id="text216"><tspan
             x="0 7.6347647 11.449221"
             y="0"
             sodipodi:role="line"
             id="tspan218">0.0</tspan></text>
</g><path
         d="m 720,1296 40,0"
         style="fill:#000000;fill-opacity:1;fill-rule:nonzero;stroke:none"
         id="path220"
         inkscape:connector-curvature="0" /><path
         d="m 720,1296 40,0"
         style="fill:none;stroke:#000000;stroke-width:5;stroke-linecap:butt;stroke-linejoin:round;stroke-miterlimit:10;stroke-dasharray:none;stroke-opacity:1"
         id="path222"
         inkscape:connector-curvature="0" /><path
         d="m 5184,1296 -40,0"
         style="fill:#000000;fill-opacity:1;fill-rule:nonzero;stroke:none"
         id="path224"
         inkscape:connector-curvature="0" /><path
         d="m 5184,1296 -40,0"
         style="fill:none;stroke:#000000;stroke-width:5;stroke-linecap:butt;stroke-linejoin:round;stroke-miterlimit:10;stroke-dasharray:none;stroke-opacity:1"
         id="path226"
         inkscape:connector-curvature="0" /><g
         id="g228"
         transform="scale(10,10)"><text
           transform="matrix(1,0,0,-1,50.75,125.233)"
           style="font-variant:normal;font-weight:normal;font-size:12px;font-family:Arial;-inkscape-font-specification:Arial;writing-mode:lr-tb;fill:#000000;fill-opacity:1;fill-rule:nonzero;stroke:none"
           id="text230"><tspan
             x="0 7.6347647 11.449221"
             y="0"
             sodipodi:role="line"
             id="tspan232">0.5</tspan></text>
</g><path
         d="m 720,2160 40,0"
         style="fill:#000000;fill-opacity:1;fill-rule:nonzero;stroke:none"
         id="path234"
         inkscape:connector-curvature="0" /><path
         d="m 720,2160 40,0"
         style="fill:none;stroke:#000000;stroke-width:5;stroke-linecap:butt;stroke-linejoin:round;stroke-miterlimit:10;stroke-dasharray:none;stroke-opacity:1"
         id="path236"
         inkscape:connector-curvature="0" /><path
         d="m 5184,2160 -40,0"
         style="fill:#000000;fill-opacity:1;fill-rule:nonzero;stroke:none"
         id="path238"
         inkscape:connector-curvature="0" /><path
         d="m 5184,2160 -40,0"
         style="fill:none;stroke:#000000;stroke-width:5;stroke-linecap:butt;stroke-linejoin:round;stroke-miterlimit:10;stroke-dasharray:none;stroke-opacity:1"
         id="path240"
         inkscape:connector-curvature="0" /><g
         id="g242"
         transform="scale(10,10)"><text
           transform="matrix(1,0,0,-1,51.0156,211.633)"
           style="font-variant:normal;font-weight:normal;font-size:12px;font-family:Arial;-inkscape-font-specification:Arial;writing-mode:lr-tb;fill:#000000;fill-opacity:1;fill-rule:nonzero;stroke:none"
           id="text244"><tspan
             x="0 7.6347647 11.449221"
             y="0"
             sodipodi:role="line"
             id="tspan246">1.0</tspan></text>
</g><path
         d="m 720,3024 40,0"
         style="fill:#000000;fill-opacity:1;fill-rule:nonzero;stroke:none"
         id="path248"
         inkscape:connector-curvature="0" /><path
         d="m 720,3024 40,0"
         style="fill:none;stroke:#000000;stroke-width:5;stroke-linecap:butt;stroke-linejoin:round;stroke-miterlimit:10;stroke-dasharray:none;stroke-opacity:1"
         id="path250"
         inkscape:connector-curvature="0" /><path
         d="m 5184,3024 -40,0"
         style="fill:#000000;fill-opacity:1;fill-rule:nonzero;stroke:none"
         id="path252"
         inkscape:connector-curvature="0" /><path
         d="m 5184,3024 -40,0"
         style="fill:none;stroke:#000000;stroke-width:5;stroke-linecap:butt;stroke-linejoin:round;stroke-miterlimit:10;stroke-dasharray:none;stroke-opacity:1"
         id="path254"
         inkscape:connector-curvature="0" /><g
         id="g256"
         transform="scale(10,10)"><text
           transform="matrix(1,0,0,-1,51.2656,298.111)"
           style="font-variant:normal;font-weight:normal;font-size:12px;font-family:Arial;-inkscape-font-specification:Arial;writing-mode:lr-tb;fill:#000000;fill-opacity:1;fill-rule:nonzero;stroke:none"
           id="text258"><tspan
             x="0 7.6347647 11.449221"
             y="0"
             sodipodi:role="line"
             id="tspan260">1.5</tspan></text>
</g><path
         d="m 720,3888 40,0"
         style="fill:#000000;fill-opacity:1;fill-rule:nonzero;stroke:none"
         id="path262"
         inkscape:connector-curvature="0" /><path
         d="m 720,3888 40,0"
         style="fill:none;stroke:#000000;stroke-width:5;stroke-linecap:butt;stroke-linejoin:round;stroke-miterlimit:10;stroke-dasharray:none;stroke-opacity:1"
         id="path264"
         inkscape:connector-curvature="0" /><path
         d="m 5184,3888 -40,0"
         style="fill:#000000;fill-opacity:1;fill-rule:nonzero;stroke:none"
         id="path266"
         inkscape:connector-curvature="0" /><path
         d="m 5184,3888 -40,0"
         style="fill:none;stroke:#000000;stroke-width:5;stroke-linecap:butt;stroke-linejoin:round;stroke-miterlimit:10;stroke-dasharray:none;stroke-opacity:1"
         id="path268"
         inkscape:connector-curvature="0" /><g
         id="g270"
         transform="scale(10,10)"><text
           transform="matrix(1,0,0,-1,50.5781,384.433)"
           style="font-variant:normal;font-weight:normal;font-size:12px;font-family:Arial;-inkscape-font-specification:Arial;writing-mode:lr-tb;fill:#000000;fill-opacity:1;fill-rule:nonzero;stroke:none"
           id="text272"><tspan
             x="0 7.6347647 11.449221"
             y="0"
             sodipodi:role="line"
             id="tspan274">2.0</tspan></text>
</g><path
         d="m 720,3888 4464,0"
         style="fill:none;stroke:#000000;stroke-width:10;stroke-linecap:square;stroke-linejoin:round;stroke-miterlimit:10;stroke-dasharray:none;stroke-opacity:1"
         id="path276"
         inkscape:connector-curvature="0" /><path
         d="m 5184,432 0,3456"
         style="fill:none;stroke:#000000;stroke-width:10;stroke-linecap:square;stroke-linejoin:round;stroke-miterlimit:10;stroke-dasharray:none;stroke-opacity:1"
         id="path278"
         inkscape:connector-curvature="0" /><path
         d="m 720,432 4464,0"
         style="fill:none;stroke:#000000;stroke-width:10;stroke-linecap:square;stroke-linejoin:round;stroke-miterlimit:10;stroke-dasharray:none;stroke-opacity:1"
         id="path280"
         inkscape:connector-curvature="0" /><path
         d="m 720,432 0,3456"
         style="fill:none;stroke:#000000;stroke-width:10;stroke-linecap:square;stroke-linejoin:round;stroke-miterlimit:10;stroke-dasharray:none;stroke-opacity:1"
         id="path282"
         inkscape:connector-curvature="0" /></g></g></svg>