<?xml version="1.0" encoding="UTF-8" standalone="no"?>
<!-- Created with Inkscape (http://www.inkscape.org/) -->

<svg
   xmlns:dc="http://purl.org/dc/elements/1.1/"
   xmlns:cc="http://creativecommons.org/ns#"
   xmlns:rdf="http://www.w3.org/1999/02/22-rdf-syntax-ns#"
   xmlns:svg="http://www.w3.org/2000/svg"
   xmlns="http://www.w3.org/2000/svg"
   xmlns:sodipodi="http://sodipodi.sourceforge.net/DTD/sodipodi-0.dtd"
   xmlns:inkscape="http://www.inkscape.org/namespaces/inkscape"
   id="svg4395"
   version="1.1"
   inkscape:version="0.91 r13725"
   xml:space="preserve"
   width="720"
   height="540"
   viewBox="0 0 720 540"
   sodipodi:docname="cubicspline.svg"><metadata
     id="metadata4401"><rdf:RDF><cc:Work
         rdf:about=""><dc:format>image/svg+xml</dc:format><dc:type
           rdf:resource="http://purl.org/dc/dcmitype/StillImage" /><dc:title></dc:title></cc:Work></rdf:RDF></metadata><defs
     id="defs4399"><clipPath
       clipPathUnits="userSpaceOnUse"
       id="clipPath4413"><path
         d="m 72,43.2 446.4,0 0,345.6 -446.4,0 0,-345.6 z"
         id="path4415"
         inkscape:connector-curvature="0" /></clipPath><clipPath
       clipPathUnits="userSpaceOnUse"
       id="clipPath4423"><path
         d="m -3.25,-3.25 6.5,0 0,6.5 -6.5,0 0,-6.5 z"
         id="path4425"
         inkscape:connector-curvature="0" /></clipPath><clipPath
       clipPathUnits="userSpaceOnUse"
       id="clipPath4435"><path
         d="m -3.25,-3.25 6.5,0 0,6.5 -6.5,0 0,-6.5 z"
         id="path4437"
         inkscape:connector-curvature="0" /></clipPath><clipPath
       clipPathUnits="userSpaceOnUse"
       id="clipPath4445"><path
         d="m 72,43.2 446.4,0 0,345.6 -446.4,0 0,-345.6 z"
         id="path4447"
         inkscape:connector-curvature="0" /></clipPath><clipPath
       clipPathUnits="userSpaceOnUse"
       id="clipPath4541"><path
         d="m -184,-236 1472,0 0,1165 -1472,0 0,-1165 z"
         id="path4543"
         inkscape:connector-curvature="0" /></clipPath><clipPath
       clipPathUnits="userSpaceOnUse"
       id="clipPath4563"><path
         d="m -184,-236 1472,0 0,1165 -1472,0 0,-1165 z"
         id="path4565"
         inkscape:connector-curvature="0" /></clipPath><clipPath
       clipPathUnits="userSpaceOnUse"
       id="clipPath4637"><path
         d="m -3.25,-3.25 6.5,0 0,6.5 -6.5,0 0,-6.5 z"
         id="path4639"
         inkscape:connector-curvature="0" /></clipPath><clipPath
       clipPathUnits="userSpaceOnUse"
       id="clipPath4649"><path
         d="m -3.25,-3.25 6.5,0 0,6.5 -6.5,0 0,-6.5 z"
         id="path4651"
         inkscape:connector-curvature="0" /></clipPath></defs><sodipodi:namedview
     pagecolor="#ffffff"
     bordercolor="#666666"
     borderopacity="1"
     objecttolerance="10"
     gridtolerance="10"
     guidetolerance="10"
     inkscape:pageopacity="0"
     inkscape:pageshadow="2"
     inkscape:window-width="640"
     inkscape:window-height="480"
     id="namedview4397"
     showgrid="false"
     inkscape:zoom="0.43703704"
     inkscape:cx="360"
     inkscape:cy="270"
     inkscape:window-x="302"
     inkscape:window-y="165"
     inkscape:window-maximized="0"
     inkscape:current-layer="g4403" /><g
     id="g4403"
     inkscape:groupmode="layer"
     inkscape:label="cubicspline"
     transform="matrix(1.25,0,0,-1.25,0,540)"><path
       d="M 0,0 576,0 576,432 0,432 0,0 Z"
       style="fill:#ffffff;fill-opacity:1;fill-rule:nonzero;stroke:none"
       id="path4405"
       inkscape:connector-curvature="0" /><path
       d="m 72,43.2 446.4,0 0,345.6 -446.4,0 0,-345.6 z"
       style="fill:#ffffff;fill-opacity:1;fill-rule:nonzero;stroke:none"
       id="path4407"
       inkscape:connector-curvature="0" /><g
       id="g4409"><g
         id="g4411"
         clip-path="url(#clipPath4413)"><g
           id="g4417"
           transform="translate(183.6,92.571429)"><g
             id="g4419"><g
               id="g4421"
               clip-path="url(#clipPath4423)"><path
                 d="m 0,-3 c 0.7956093,0 1.5587396,0.3160989 2.1213203,0.8786797 C 2.6839011,-1.5587396 3,-0.7956093 3,0 3,0.7956093 2.6839011,1.5587396 2.1213203,2.1213203 1.5587396,2.6839011 0.7956093,3 0,3 -0.7956093,3 -1.5587396,2.6839011 -2.1213203,2.1213203 -2.6839011,1.5587396 -3,0.7956093 -3,0 -3,-0.7956093 -2.6839011,-1.5587396 -2.1213203,-2.1213203 -1.5587396,-2.6839011 -0.7956093,-3 0,-3 Z"
                 style="fill:#ff0000;fill-opacity:1;fill-rule:nonzero;stroke:#000000;stroke-width:0.5;stroke-linecap:butt;stroke-linejoin:round;stroke-miterlimit:10;stroke-dasharray:none;stroke-opacity:1"
                 id="path4427"
                 inkscape:connector-curvature="0" /></g></g><g
             id="g4429"
             transform="translate(223.2,246.85714)"><g
               id="g4431"><g
                 id="g4433"
                 clip-path="url(#clipPath4435)"><path
                   d="m 0,-3 c 0.7956093,0 1.5587396,0.3160989 2.1213203,0.8786797 C 2.6839011,-1.5587396 3,-0.7956093 3,0 3,0.7956093 2.6839011,1.5587396 2.1213203,2.1213203 1.5587396,2.6839011 0.7956093,3 0,3 -0.7956093,3 -1.5587396,2.6839011 -2.1213203,2.1213203 -2.6839011,1.5587396 -3,0.7956093 -3,0 -3,-0.7956093 -2.6839011,-1.5587396 -2.1213203,-2.1213203 -1.5587396,-2.6839011 -0.7956093,-3 0,-3 Z"
                   style="fill:#ff0000;fill-opacity:1;fill-rule:nonzero;stroke:#000000;stroke-width:0.5;stroke-linecap:butt;stroke-linejoin:round;stroke-miterlimit:10;stroke-dasharray:none;stroke-opacity:1"
                   id="path4439"
                   inkscape:connector-curvature="0" /></g></g></g></g></g></g><g
       id="g4441"><g
         id="g4443"
         clip-path="url(#clipPath4445)"><path
           d="m 183.6,92.571429 1.17247,-1.400954 1.2615,-1.21289 1.34845,-1.028187 1.43333,-0.846841 1.51614,-0.668853 1.59689,-0.494223 1.67555,-0.322953 1.75215,-0.15504 1.82669,0.0095 1.89915,0.170711 1.96953,0.32855 2.03786,0.483029 2.1041,0.634151 2.16828,0.781914 2.2304,0.92632 2.29043,1.067366 2.3484,1.205055 2.40429,1.339385 2.45813,1.470357 2.50988,1.597972 2.55957,1.722226 2.60718,1.843116 2.65273,1.96067 2.69621,2.07484 2.73761,2.18567 2.77695,2.29313 2.81421,2.39723 2.84941,2.49799 2.88254,2.59537 2.91358,2.68941 2.94258,2.78007 2.96948,2.8674 2.99433,2.95135 3.0171,3.03194 3.03781,3.10919 3.05643,3.18307 3.073,3.25359 3.0875,3.32076 3.09991,3.38456 3.11027,3.44502 3.11854,3.5021 3.12476,3.55583 3.1289,3.60621 3.13097,3.65323 3.13096,3.69688 3.1289,3.73718 3.12476,3.77412 3.11854,3.80771 3.11027,3.83793 3.09991,3.86479 3.0875,3.88831 3.073,3.90845 3.05643,3.92524 3.03781,3.93868 3.0171,3.94875 2.99433,3.95547 2.96948,3.95883 2.94258,3.95882 2.91358,3.95547 2.88254,3.94875 2.84941,3.93868 2.81421,3.92524 2.77695,3.90845 2.73761,3.88831 2.69621,3.86479 2.65273,3.83793 2.60718,3.80771 2.55957,3.77412 2.50988,3.73718 2.45813,3.69688 2.40429,3.65323 2.3484,3.60621 2.29043,3.55583 2.2304,3.5021 2.16828,3.44502 2.1041,3.38456 2.03786,3.32076 1.96953,3.25359 1.89915,3.18307 1.82669,3.10919 1.75215,3.03194 1.67556,2.95135 1.59688,2.8674 1.51614,2.78007 1.43333,2.68941 1.34845,2.59537 1.2615,2.49799 1.17247,2.39723 1.08138,2.29313 0.98822,2.18567 0.89298,2.07484 0.79569,1.96067 0.6963,1.84312 0.59487,1.72223 0.49135,1.59797 0.38576,1.47036 0.27811,1.33938 0.16838,1.20506 0.0566,1.06736"
           style="fill:none;stroke:#008000;stroke-width:1;stroke-linecap:square;stroke-linejoin:round;stroke-miterlimit:10;stroke-dasharray:none;stroke-opacity:1"
           id="path4449"
           inkscape:connector-curvature="0" /></g></g><g
       id="g4451"><path
         d="m 72,43.2 0,4"
         style="fill:#000000;fill-opacity:1;fill-rule:nonzero;stroke:#000000;stroke-width:0.5;stroke-linecap:butt;stroke-linejoin:round;stroke-miterlimit:10;stroke-dasharray:none;stroke-opacity:1"
         id="path4453"
         inkscape:connector-curvature="0" /><path
         d="m 72,388.8 0,-4"
         style="fill:#000000;fill-opacity:1;fill-rule:nonzero;stroke:#000000;stroke-width:0.5;stroke-linecap:butt;stroke-linejoin:round;stroke-miterlimit:10;stroke-dasharray:none;stroke-opacity:1"
         id="path4455"
         inkscape:connector-curvature="0" /><text
         transform="matrix(1,0,0,-1,63.25,30.075)"
         style="font-variant:normal;font-weight:normal;font-size:12px;font-family:'Bitstream Vera Sans';-inkscape-font-specification:BitstreamVeraSans-Roman;writing-mode:lr-tb;fill:#000000;fill-opacity:1;fill-rule:nonzero;stroke:none"
         id="text4457"><tspan
           x="0 7.632 11.448"
           y="0"
           sodipodi:role="line"
           id="tspan4459">0.0</tspan></text>
<path
         d="m 127.8,43.2 0,4"
         style="fill:#000000;fill-opacity:1;fill-rule:nonzero;stroke:#000000;stroke-width:0.5;stroke-linecap:butt;stroke-linejoin:round;stroke-miterlimit:10;stroke-dasharray:none;stroke-opacity:1"
         id="path4461"
         inkscape:connector-curvature="0" /><path
         d="m 127.8,388.8 0,-4"
         style="fill:#000000;fill-opacity:1;fill-rule:nonzero;stroke:#000000;stroke-width:0.5;stroke-linecap:butt;stroke-linejoin:round;stroke-miterlimit:10;stroke-dasharray:none;stroke-opacity:1"
         id="path4463"
         inkscape:connector-curvature="0" /><text
         transform="matrix(1,0,0,-1,119.175,30.075)"
         style="font-variant:normal;font-weight:normal;font-size:12px;font-family:'Bitstream Vera Sans';-inkscape-font-specification:BitstreamVeraSans-Roman;writing-mode:lr-tb;fill:#000000;fill-opacity:1;fill-rule:nonzero;stroke:none"
         id="text4465"><tspan
           x="0 7.632 11.448"
           y="0"
           sodipodi:role="line"
           id="tspan4467">0.5</tspan></text>
<path
         d="m 183.6,43.2 0,4"
         style="fill:#000000;fill-opacity:1;fill-rule:nonzero;stroke:#000000;stroke-width:0.5;stroke-linecap:butt;stroke-linejoin:round;stroke-miterlimit:10;stroke-dasharray:none;stroke-opacity:1"
         id="path4469"
         inkscape:connector-curvature="0" /><path
         d="m 183.6,388.8 0,-4"
         style="fill:#000000;fill-opacity:1;fill-rule:nonzero;stroke:#000000;stroke-width:0.5;stroke-linecap:butt;stroke-linejoin:round;stroke-miterlimit:10;stroke-dasharray:none;stroke-opacity:1"
         id="path4471"
         inkscape:connector-curvature="0" /><text
         transform="matrix(1,0,0,-1,175.10781,30.075)"
         style="font-variant:normal;font-weight:normal;font-size:12px;font-family:'Bitstream Vera Sans';-inkscape-font-specification:BitstreamVeraSans-Roman;writing-mode:lr-tb;fill:#000000;fill-opacity:1;fill-rule:nonzero;stroke:none"
         id="text4473"><tspan
           x="0 7.632 11.448"
           y="0"
           sodipodi:role="line"
           id="tspan4475">1.0</tspan></text>
<path
         d="m 239.4,43.2 0,4"
         style="fill:#000000;fill-opacity:1;fill-rule:nonzero;stroke:#000000;stroke-width:0.5;stroke-linecap:butt;stroke-linejoin:round;stroke-miterlimit:10;stroke-dasharray:none;stroke-opacity:1"
         id="path4477"
         inkscape:connector-curvature="0" /><path
         d="m 239.4,388.8 0,-4"
         style="fill:#000000;fill-opacity:1;fill-rule:nonzero;stroke:#000000;stroke-width:0.5;stroke-linecap:butt;stroke-linejoin:round;stroke-miterlimit:10;stroke-dasharray:none;stroke-opacity:1"
         id="path4479"
         inkscape:connector-curvature="0" /><text
         transform="matrix(1,0,0,-1,231.03281,30.075)"
         style="font-variant:normal;font-weight:normal;font-size:12px;font-family:'Bitstream Vera Sans';-inkscape-font-specification:BitstreamVeraSans-Roman;writing-mode:lr-tb;fill:#000000;fill-opacity:1;fill-rule:nonzero;stroke:none"
         id="text4481"><tspan
           x="0 7.632 11.448"
           y="0"
           sodipodi:role="line"
           id="tspan4483">1.5</tspan></text>
<path
         d="m 295.2,43.2 0,4"
         style="fill:#000000;fill-opacity:1;fill-rule:nonzero;stroke:#000000;stroke-width:0.5;stroke-linecap:butt;stroke-linejoin:round;stroke-miterlimit:10;stroke-dasharray:none;stroke-opacity:1"
         id="path4485"
         inkscape:connector-curvature="0" /><path
         d="m 295.2,388.8 0,-4"
         style="fill:#000000;fill-opacity:1;fill-rule:nonzero;stroke:#000000;stroke-width:0.5;stroke-linecap:butt;stroke-linejoin:round;stroke-miterlimit:10;stroke-dasharray:none;stroke-opacity:1"
         id="path4487"
         inkscape:connector-curvature="0" /><text
         transform="matrix(1,0,0,-1,286.48906,30.075)"
         style="font-variant:normal;font-weight:normal;font-size:12px;font-family:'Bitstream Vera Sans';-inkscape-font-specification:BitstreamVeraSans-Roman;writing-mode:lr-tb;fill:#000000;fill-opacity:1;fill-rule:nonzero;stroke:none"
         id="text4489"><tspan
           x="0 7.632 11.448"
           y="0"
           sodipodi:role="line"
           id="tspan4491">2.0</tspan></text>
<path
         d="m 351,43.2 0,4"
         style="fill:#000000;fill-opacity:1;fill-rule:nonzero;stroke:#000000;stroke-width:0.5;stroke-linecap:butt;stroke-linejoin:round;stroke-miterlimit:10;stroke-dasharray:none;stroke-opacity:1"
         id="path4493"
         inkscape:connector-curvature="0" /><path
         d="m 351,388.8 0,-4"
         style="fill:#000000;fill-opacity:1;fill-rule:nonzero;stroke:#000000;stroke-width:0.5;stroke-linecap:butt;stroke-linejoin:round;stroke-miterlimit:10;stroke-dasharray:none;stroke-opacity:1"
         id="path4495"
         inkscape:connector-curvature="0" /><text
         transform="matrix(1,0,0,-1,342.41406,30.075)"
         style="font-variant:normal;font-weight:normal;font-size:12px;font-family:'Bitstream Vera Sans';-inkscape-font-specification:BitstreamVeraSans-Roman;writing-mode:lr-tb;fill:#000000;fill-opacity:1;fill-rule:nonzero;stroke:none"
         id="text4497"><tspan
           x="0 7.632 11.448"
           y="0"
           sodipodi:role="line"
           id="tspan4499">2.5</tspan></text>
<path
         d="m 406.8,43.2 0,4"
         style="fill:#000000;fill-opacity:1;fill-rule:nonzero;stroke:#000000;stroke-width:0.5;stroke-linecap:butt;stroke-linejoin:round;stroke-miterlimit:10;stroke-dasharray:none;stroke-opacity:1"
         id="path4501"
         inkscape:connector-curvature="0" /><path
         d="m 406.8,388.8 0,-4"
         style="fill:#000000;fill-opacity:1;fill-rule:nonzero;stroke:#000000;stroke-width:0.5;stroke-linecap:butt;stroke-linejoin:round;stroke-miterlimit:10;stroke-dasharray:none;stroke-opacity:1"
         id="path4503"
         inkscape:connector-curvature="0" /><text
         transform="matrix(1,0,0,-1,398.1125,30.075)"
         style="font-variant:normal;font-weight:normal;font-size:12px;font-family:'Bitstream Vera Sans';-inkscape-font-specification:BitstreamVeraSans-Roman;writing-mode:lr-tb;fill:#000000;fill-opacity:1;fill-rule:nonzero;stroke:none"
         id="text4505"><tspan
           x="0 7.632 11.448"
           y="0"
           sodipodi:role="line"
           id="tspan4507">3.0</tspan></text>
<path
         d="m 462.6,43.2 0,4"
         style="fill:#000000;fill-opacity:1;fill-rule:nonzero;stroke:#000000;stroke-width:0.5;stroke-linecap:butt;stroke-linejoin:round;stroke-miterlimit:10;stroke-dasharray:none;stroke-opacity:1"
         id="path4509"
         inkscape:connector-curvature="0" /><path
         d="m 462.6,388.8 0,-4"
         style="fill:#000000;fill-opacity:1;fill-rule:nonzero;stroke:#000000;stroke-width:0.5;stroke-linecap:butt;stroke-linejoin:round;stroke-miterlimit:10;stroke-dasharray:none;stroke-opacity:1"
         id="path4511"
         inkscape:connector-curvature="0" /><text
         transform="matrix(1,0,0,-1,454.0375,30.075)"
         style="font-variant:normal;font-weight:normal;font-size:12px;font-family:'Bitstream Vera Sans';-inkscape-font-specification:BitstreamVeraSans-Roman;writing-mode:lr-tb;fill:#000000;fill-opacity:1;fill-rule:nonzero;stroke:none"
         id="text4513"><tspan
           x="0 7.632 11.448"
           y="0"
           sodipodi:role="line"
           id="tspan4515">3.5</tspan></text>
<path
         d="m 518.4,43.2 0,4"
         style="fill:#000000;fill-opacity:1;fill-rule:nonzero;stroke:#000000;stroke-width:0.5;stroke-linecap:butt;stroke-linejoin:round;stroke-miterlimit:10;stroke-dasharray:none;stroke-opacity:1"
         id="path4517"
         inkscape:connector-curvature="0" /><path
         d="m 518.4,388.8 0,-4"
         style="fill:#000000;fill-opacity:1;fill-rule:nonzero;stroke:#000000;stroke-width:0.5;stroke-linecap:butt;stroke-linejoin:round;stroke-miterlimit:10;stroke-dasharray:none;stroke-opacity:1"
         id="path4519"
         inkscape:connector-curvature="0" /><text
         transform="matrix(1,0,0,-1,509.54844,30.075)"
         style="font-variant:normal;font-weight:normal;font-size:12px;font-family:'Bitstream Vera Sans';-inkscape-font-specification:BitstreamVeraSans-Roman;writing-mode:lr-tb;fill:#000000;fill-opacity:1;fill-rule:nonzero;stroke:none"
         id="text4521"><tspan
           x="0 7.632 11.448"
           y="0"
           sodipodi:role="line"
           id="tspan4523">4.0</tspan></text>
<path
         d="m 72,43.2 4,0"
         style="fill:#000000;fill-opacity:1;fill-rule:nonzero;stroke:#000000;stroke-width:0.5;stroke-linecap:butt;stroke-linejoin:round;stroke-miterlimit:10;stroke-dasharray:none;stroke-opacity:1"
         id="path4525"
         inkscape:connector-curvature="0" /><path
         d="m 518.4,43.2 -4,0"
         style="fill:#000000;fill-opacity:1;fill-rule:nonzero;stroke:#000000;stroke-width:0.5;stroke-linecap:butt;stroke-linejoin:round;stroke-miterlimit:10;stroke-dasharray:none;stroke-opacity:1"
         id="path4527"
         inkscape:connector-curvature="0" /><g
         id="g4529"
         transform="translate(52.765625,39.8875)"><text
           transform="matrix(1,0,0,-1,10.054688,0)"
           style="font-variant:normal;font-weight:normal;font-size:12px;font-family:'Bitstream Vera Sans';-inkscape-font-specification:BitstreamVeraSans-Roman;writing-mode:lr-tb;fill:#000000;fill-opacity:1;fill-rule:nonzero;stroke:none"
           id="text4531"><tspan
             x="0"
             y="0"
             id="tspan4533">2</tspan></text>
<g
           id="g4535"
           transform="scale(0.012,0.012)"><g
             id="g4537"><g
               id="g4539"
               clip-path="url(#clipPath4541)"><path
                 d="m 106,355 626,0 0,-83 -626,0 0,83"
                 style="fill:#000000;fill-opacity:1;fill-rule:nonzero;stroke:none"
                 id="path4545"
                 inkscape:connector-curvature="0" /></g></g></g></g><path
         d="m 72,92.571429 4,0"
         style="fill:#000000;fill-opacity:1;fill-rule:nonzero;stroke:#000000;stroke-width:0.5;stroke-linecap:butt;stroke-linejoin:round;stroke-miterlimit:10;stroke-dasharray:none;stroke-opacity:1"
         id="path4547"
         inkscape:connector-curvature="0" /><path
         d="m 518.4,92.571429 -4,0"
         style="fill:#000000;fill-opacity:1;fill-rule:nonzero;stroke:#000000;stroke-width:0.5;stroke-linecap:butt;stroke-linejoin:round;stroke-miterlimit:10;stroke-dasharray:none;stroke-opacity:1"
         id="path4549"
         inkscape:connector-curvature="0" /><g
         id="g4551"
         transform="translate(52.671875,89.258929)"><text
           transform="matrix(1,0,0,-1,10.054688,0)"
           style="font-variant:normal;font-weight:normal;font-size:12px;font-family:'Bitstream Vera Sans';-inkscape-font-specification:BitstreamVeraSans-Roman;writing-mode:lr-tb;fill:#000000;fill-opacity:1;fill-rule:nonzero;stroke:none"
           id="text4553"><tspan
             x="0"
             y="0"
             id="tspan4555">1</tspan></text>
<g
           id="g4557"
           transform="scale(0.012,0.012)"><g
             id="g4559"><g
               id="g4561"
               clip-path="url(#clipPath4563)"><path
                 d="m 106,355 626,0 0,-83 -626,0 0,83"
                 style="fill:#000000;fill-opacity:1;fill-rule:nonzero;stroke:none"
                 id="path4567"
                 inkscape:connector-curvature="0" /></g></g></g></g><path
         d="m 72,141.94286 4,0"
         style="fill:#000000;fill-opacity:1;fill-rule:nonzero;stroke:#000000;stroke-width:0.5;stroke-linecap:butt;stroke-linejoin:round;stroke-miterlimit:10;stroke-dasharray:none;stroke-opacity:1"
         id="path4569"
         inkscape:connector-curvature="0" /><path
         d="m 518.4,141.94286 -4,0"
         style="fill:#000000;fill-opacity:1;fill-rule:nonzero;stroke:#000000;stroke-width:0.5;stroke-linecap:butt;stroke-linejoin:round;stroke-miterlimit:10;stroke-dasharray:none;stroke-opacity:1"
         id="path4571"
         inkscape:connector-curvature="0" /><text
         transform="matrix(1,0,0,-1,61.953125,138.63036)"
         style="font-variant:normal;font-weight:normal;font-size:12px;font-family:'Bitstream Vera Sans';-inkscape-font-specification:BitstreamVeraSans-Roman;writing-mode:lr-tb;fill:#000000;fill-opacity:1;fill-rule:nonzero;stroke:none"
         id="text4573"><tspan
           x="0"
           y="0"
           id="tspan4575">0</tspan></text>
<path
         d="m 72,191.31429 4,0"
         style="fill:#000000;fill-opacity:1;fill-rule:nonzero;stroke:#000000;stroke-width:0.5;stroke-linecap:butt;stroke-linejoin:round;stroke-miterlimit:10;stroke-dasharray:none;stroke-opacity:1"
         id="path4577"
         inkscape:connector-curvature="0" /><path
         d="m 518.4,191.31429 -4,0"
         style="fill:#000000;fill-opacity:1;fill-rule:nonzero;stroke:#000000;stroke-width:0.5;stroke-linecap:butt;stroke-linejoin:round;stroke-miterlimit:10;stroke-dasharray:none;stroke-opacity:1"
         id="path4579"
         inkscape:connector-curvature="0" /><text
         transform="matrix(1,0,0,-1,62.78125,188.00179)"
         style="font-variant:normal;font-weight:normal;font-size:12px;font-family:'Bitstream Vera Sans';-inkscape-font-specification:BitstreamVeraSans-Roman;writing-mode:lr-tb;fill:#000000;fill-opacity:1;fill-rule:nonzero;stroke:none"
         id="text4581"><tspan
           x="0"
           y="0"
           id="tspan4583">1</tspan></text>
<path
         d="m 72,240.68571 4,0"
         style="fill:#000000;fill-opacity:1;fill-rule:nonzero;stroke:#000000;stroke-width:0.5;stroke-linecap:butt;stroke-linejoin:round;stroke-miterlimit:10;stroke-dasharray:none;stroke-opacity:1"
         id="path4585"
         inkscape:connector-curvature="0" /><path
         d="m 518.4,240.68571 -4,0"
         style="fill:#000000;fill-opacity:1;fill-rule:nonzero;stroke:#000000;stroke-width:0.5;stroke-linecap:butt;stroke-linejoin:round;stroke-miterlimit:10;stroke-dasharray:none;stroke-opacity:1"
         id="path4587"
         inkscape:connector-curvature="0" /><text
         transform="matrix(1,0,0,-1,62.4375,237.37321)"
         style="font-variant:normal;font-weight:normal;font-size:12px;font-family:'Bitstream Vera Sans';-inkscape-font-specification:BitstreamVeraSans-Roman;writing-mode:lr-tb;fill:#000000;fill-opacity:1;fill-rule:nonzero;stroke:none"
         id="text4589"><tspan
           x="0"
           y="0"
           id="tspan4591">2</tspan></text>
<path
         d="m 72,290.05714 4,0"
         style="fill:#000000;fill-opacity:1;fill-rule:nonzero;stroke:#000000;stroke-width:0.5;stroke-linecap:butt;stroke-linejoin:round;stroke-miterlimit:10;stroke-dasharray:none;stroke-opacity:1"
         id="path4593"
         inkscape:connector-curvature="0" /><path
         d="m 518.4,290.05714 -4,0"
         style="fill:#000000;fill-opacity:1;fill-rule:nonzero;stroke:#000000;stroke-width:0.5;stroke-linecap:butt;stroke-linejoin:round;stroke-miterlimit:10;stroke-dasharray:none;stroke-opacity:1"
         id="path4595"
         inkscape:connector-curvature="0" /><text
         transform="matrix(1,0,0,-1,62.25,286.74464)"
         style="font-variant:normal;font-weight:normal;font-size:12px;font-family:'Bitstream Vera Sans';-inkscape-font-specification:BitstreamVeraSans-Roman;writing-mode:lr-tb;fill:#000000;fill-opacity:1;fill-rule:nonzero;stroke:none"
         id="text4597"><tspan
           x="0"
           y="0"
           id="tspan4599">3</tspan></text>
<path
         d="m 72,339.42857 4,0"
         style="fill:#000000;fill-opacity:1;fill-rule:nonzero;stroke:#000000;stroke-width:0.5;stroke-linecap:butt;stroke-linejoin:round;stroke-miterlimit:10;stroke-dasharray:none;stroke-opacity:1"
         id="path4601"
         inkscape:connector-curvature="0" /><path
         d="m 518.4,339.42857 -4,0"
         style="fill:#000000;fill-opacity:1;fill-rule:nonzero;stroke:#000000;stroke-width:0.5;stroke-linecap:butt;stroke-linejoin:round;stroke-miterlimit:10;stroke-dasharray:none;stroke-opacity:1"
         id="path4603"
         inkscape:connector-curvature="0" /><text
         transform="matrix(1,0,0,-1,61.625,336.11607)"
         style="font-variant:normal;font-weight:normal;font-size:12px;font-family:'Bitstream Vera Sans';-inkscape-font-specification:BitstreamVeraSans-Roman;writing-mode:lr-tb;fill:#000000;fill-opacity:1;fill-rule:nonzero;stroke:none"
         id="text4605"><tspan
           x="0"
           y="0"
           id="tspan4607">4</tspan></text>
<path
         d="m 72,388.8 4,0"
         style="fill:#000000;fill-opacity:1;fill-rule:nonzero;stroke:#000000;stroke-width:0.5;stroke-linecap:butt;stroke-linejoin:round;stroke-miterlimit:10;stroke-dasharray:none;stroke-opacity:1"
         id="path4609"
         inkscape:connector-curvature="0" /><path
         d="m 518.4,388.8 -4,0"
         style="fill:#000000;fill-opacity:1;fill-rule:nonzero;stroke:#000000;stroke-width:0.5;stroke-linecap:butt;stroke-linejoin:round;stroke-miterlimit:10;stroke-dasharray:none;stroke-opacity:1"
         id="path4611"
         inkscape:connector-curvature="0" /><text
         transform="matrix(1,0,0,-1,62.328125,385.4875)"
         style="font-variant:normal;font-weight:normal;font-size:12px;font-family:'Bitstream Vera Sans';-inkscape-font-specification:BitstreamVeraSans-Roman;writing-mode:lr-tb;fill:#000000;fill-opacity:1;fill-rule:nonzero;stroke:none"
         id="text4613"><tspan
           x="0"
           y="0"
           id="tspan4615">5</tspan></text>
<path
         d="m 72,388.8 446.4,0"
         style="fill:none;stroke:#000000;stroke-width:1;stroke-linecap:butt;stroke-linejoin:round;stroke-miterlimit:10;stroke-dasharray:none;stroke-opacity:1"
         id="path4617"
         inkscape:connector-curvature="0" /><path
         d="m 518.4,43.2 0,345.6"
         style="fill:none;stroke:#000000;stroke-width:1;stroke-linecap:butt;stroke-linejoin:round;stroke-miterlimit:10;stroke-dasharray:none;stroke-opacity:1"
         id="path4619"
         inkscape:connector-curvature="0" /><path
         d="m 72,43.2 446.4,0"
         style="fill:none;stroke:#000000;stroke-width:1;stroke-linecap:butt;stroke-linejoin:round;stroke-miterlimit:10;stroke-dasharray:none;stroke-opacity:1"
         id="path4621"
         inkscape:connector-curvature="0" /><path
         d="m 72,43.2 0,345.6"
         style="fill:none;stroke:#000000;stroke-width:1;stroke-linecap:butt;stroke-linejoin:round;stroke-miterlimit:10;stroke-dasharray:none;stroke-opacity:1"
         id="path4623"
         inkscape:connector-curvature="0" /><text
         transform="matrix(1,0,0,-1,251.10625,393.8)"
         style="font-variant:normal;font-weight:normal;font-size:14.39999962px;font-family:'Bitstream Vera Sans';-inkscape-font-specification:BitstreamVeraSans-Roman;writing-mode:lr-tb;fill:#000000;fill-opacity:1;fill-rule:nonzero;stroke:none"
         id="text4625"><tspan
           x="0 10.0512 19.180799 28.3248 32.327999 40.248001 44.827202 53.971199 63.1152 67.118401 71.121597 80.251198"
           y="0"
           sodipodi:role="line"
           id="tspan4627">Cubic Spline</tspan></text>
<path
         d="m 79.2,335.78625 129.30875,0 0,45.81375 -129.30875,0 0,-45.81375 z"
         style="fill:#ffffff;fill-opacity:1;fill-rule:nonzero;stroke:#000000;stroke-width:1;stroke-linecap:butt;stroke-linejoin:round;stroke-miterlimit:10;stroke-dasharray:none;stroke-opacity:1"
         id="path4629"
         inkscape:connector-curvature="0" /><g
         id="g4631"
         transform="translate(89.28,370.23937)"><g
           id="g4633"><g
             id="g4635"
             clip-path="url(#clipPath4637)"><path
               d="m 0,-3 c 0.7956093,0 1.5587396,0.3160989 2.1213203,0.8786797 C 2.6839011,-1.5587396 3,-0.7956093 3,0 3,0.7956093 2.6839011,1.5587396 2.1213203,2.1213203 1.5587396,2.6839011 0.7956093,3 0,3 -0.7956093,3 -1.5587396,2.6839011 -2.1213203,2.1213203 -2.6839011,1.5587396 -3,0.7956093 -3,0 -3,-0.7956093 -2.6839011,-1.5587396 -2.1213203,-2.1213203 -1.5587396,-2.6839011 -0.7956093,-3 0,-3 Z"
               style="fill:#ff0000;fill-opacity:1;fill-rule:nonzero;stroke:#000000;stroke-width:0.5;stroke-linecap:butt;stroke-linejoin:round;stroke-miterlimit:10;stroke-dasharray:none;stroke-opacity:1"
               id="path4641"
               inkscape:connector-curvature="0" /></g></g><g
           id="g4643"
           transform="translate(20.16,0)"><g
             id="g4645"><g
               id="g4647"
               clip-path="url(#clipPath4649)"><path
                 d="m 0,-3 c 0.7956093,0 1.5587396,0.3160989 2.1213203,0.8786797 C 2.6839011,-1.5587396 3,-0.7956093 3,0 3,0.7956093 2.6839011,1.5587396 2.1213203,2.1213203 1.5587396,2.6839011 0.7956093,3 0,3 -0.7956093,3 -1.5587396,2.6839011 -2.1213203,2.1213203 -2.6839011,1.5587396 -3,0.7956093 -3,0 -3,-0.7956093 -2.6839011,-1.5587396 -2.1213203,-2.1213203 -1.5587396,-2.6839011 -0.7956093,-3 0,-3 Z"
                 style="fill:#ff0000;fill-opacity:1;fill-rule:nonzero;stroke:#000000;stroke-width:0.5;stroke-linecap:butt;stroke-linejoin:round;stroke-miterlimit:10;stroke-dasharray:none;stroke-opacity:1"
                 id="path4653"
                 inkscape:connector-curvature="0" /></g></g></g></g><text
         transform="matrix(1,0,0,-1,125.28,365.19937)"
         style="font-variant:normal;font-weight:normal;font-size:14.39999962px;font-family:'Bitstream Vera Sans';-inkscape-font-specification:BitstreamVeraSans-Roman;writing-mode:lr-tb;fill:#000000;fill-opacity:1;fill-rule:nonzero;stroke:none"
         id="text4655"><tspan
           x="0 11.088 19.915199 25.559999"
           y="0"
           sodipodi:role="line"
           id="tspan4657">Data</tspan></text>
<path
         d="m 89.28,349.4925 20.16,0"
         style="fill:none;stroke:#008000;stroke-width:1;stroke-linecap:square;stroke-linejoin:round;stroke-miterlimit:10;stroke-dasharray:none;stroke-opacity:1"
         id="path4659"
         inkscape:connector-curvature="0" /><text
         transform="matrix(1,0,0,-1,125.28,344.4525)"
         style="font-variant:normal;font-weight:normal;font-size:14.39999962px;font-family:'Bitstream Vera Sans';-inkscape-font-specification:BitstreamVeraSans-Roman;writing-mode:lr-tb;fill:#000000;fill-opacity:1;fill-rule:nonzero;stroke:none"
         id="text4661"><tspan
           x="0 4.2480001 13.3776 19.0224 27.878401 33.796799 42.9408 51.753601 55.756802 64.584 73.7136"
           y="0"
           sodipodi:role="line"
           id="tspan4663">Interpolant</tspan></text>
</g></g></svg>