<?xml version="1.0" encoding="UTF-8" standalone="no"?>
<!-- Created with Inkscape (http://www.inkscape.org/) -->

<svg
   xmlns:dc="http://purl.org/dc/elements/1.1/"
   xmlns:cc="http://creativecommons.org/ns#"
   xmlns:rdf="http://www.w3.org/1999/02/22-rdf-syntax-ns#"
   xmlns:svg="http://www.w3.org/2000/svg"
   xmlns="http://www.w3.org/2000/svg"
   xmlns:sodipodi="http://sodipodi.sourceforge.net/DTD/sodipodi-0.dtd"
   xmlns:inkscape="http://www.inkscape.org/namespaces/inkscape"
   id="svg3518"
   version="1.1"
   inkscape:version="0.91 r13725"
   xml:space="preserve"
   width="836.25"
   height="437.5"
   viewBox="0 0 836.25 437.5"
   sodipodi:docname="lasertriangulation2.svg"><metadata
     id="metadata3524"><rdf:RDF><cc:Work
         rdf:about=""><dc:format>image/svg+xml</dc:format><dc:type
           rdf:resource="http://purl.org/dc/dcmitype/StillImage" /><dc:title></dc:title></cc:Work></rdf:RDF></metadata><defs
     id="defs3522" /><sodipodi:namedview
     pagecolor="#ffffff"
     bordercolor="#666666"
     borderopacity="1"
     objecttolerance="10"
     gridtolerance="10"
     guidetolerance="10"
     inkscape:pageopacity="0"
     inkscape:pageshadow="2"
     inkscape:window-width="640"
     inkscape:window-height="480"
     id="namedview3520"
     showgrid="false"
     inkscape:zoom="0.44843049"
     inkscape:cx="418.125"
     inkscape:cy="218.75"
     inkscape:window-x="93"
     inkscape:window-y="68"
     inkscape:window-maximized="0"
     inkscape:current-layer="g3526" /><g
     id="g3526"
     inkscape:groupmode="layer"
     inkscape:label="lasertriangulation2"
     transform="matrix(1.25,0,0,-1.25,0,437.5)"><g
       id="g3528"
       transform="scale(0.1,0.1)"><path
         d="m 1700.76,2486.57 c 0,-379.63 -41.24,-687.39 -92.12,-687.39 -50.88,0 -92.13,307.76 -92.13,687.39 0,379.63 41.25,687.39 92.13,687.39 50.88,0 92.12,-307.76 92.12,-687.39"
         style="fill:#e6e6fa;fill-opacity:1;fill-rule:nonzero;stroke:none"
         id="path3530"
         inkscape:connector-curvature="0" /><path
         d="m 1700.76,2486.57 c 0,-379.63 -41.24,-687.39 -92.12,-687.39 -50.88,0 -92.13,307.76 -92.13,687.39 0,379.63 41.25,687.39 92.13,687.39 50.88,0 92.12,-307.76 92.12,-687.39 z"
         style="fill:none;stroke:#000000;stroke-width:28.34600067;stroke-linecap:butt;stroke-linejoin:miter;stroke-miterlimit:10;stroke-dasharray:none;stroke-opacity:1"
         id="path3532"
         inkscape:connector-curvature="0" /><path
         d="m 676.734,14.1719 878.723,0 0,368.5 -878.723,0 0,-368.5 z"
         style="fill:#ffff00;fill-opacity:1;fill-rule:nonzero;stroke:none"
         id="path3534"
         inkscape:connector-curvature="0" /><path
         d="m 676.734,325.98 -56.695,0 c 0,31.309 25.387,56.692 56.695,56.692"
         style="fill:#ffff00;fill-opacity:1;fill-rule:nonzero;stroke:none"
         id="path3536"
         inkscape:connector-curvature="0" /><path
         d="m 1555.46,325.98 0,56.692 c 31.31,0 56.69,-25.383 56.69,-56.692"
         style="fill:#ffff00;fill-opacity:1;fill-rule:nonzero;stroke:none"
         id="path3538"
         inkscape:connector-curvature="0" /><path
         d="m 620.039,70.8633 992.113,0 0,255.117 -992.113,0 0,-255.117 z"
         style="fill:#ffff00;fill-opacity:1;fill-rule:nonzero;stroke:none"
         id="path3540"
         inkscape:connector-curvature="0" /><path
         d="m 676.734,70.8633 0,-56.6914 c -31.308,0 -56.695,25.3828 -56.695,56.6914"
         style="fill:#ffff00;fill-opacity:1;fill-rule:nonzero;stroke:none"
         id="path3542"
         inkscape:connector-curvature="0" /><path
         d="m 1555.46,70.8633 56.69,0 c 0,-31.3086 -25.38,-56.6914 -56.69,-56.6914"
         style="fill:#ffff00;fill-opacity:1;fill-rule:nonzero;stroke:none"
         id="path3544"
         inkscape:connector-curvature="0" /><path
         d="m 676.734,382.672 878.726,0"
         style="fill:none;stroke:#000000;stroke-width:28.34600067;stroke-linecap:butt;stroke-linejoin:round;stroke-miterlimit:10;stroke-dasharray:none;stroke-opacity:1"
         id="path3546"
         inkscape:connector-curvature="0" /><path
         d="m 676.734,14.1719 878.726,0"
         style="fill:none;stroke:#000000;stroke-width:28.34600067;stroke-linecap:butt;stroke-linejoin:round;stroke-miterlimit:10;stroke-dasharray:none;stroke-opacity:1"
         id="path3548"
         inkscape:connector-curvature="0" /><path
         d="m 620.039,325.98 c 0,31.309 25.387,56.692 56.695,56.692"
         style="fill:none;stroke:#000000;stroke-width:28.34600067;stroke-linecap:butt;stroke-linejoin:round;stroke-miterlimit:10;stroke-dasharray:none;stroke-opacity:1"
         id="path3550"
         inkscape:connector-curvature="0" /><path
         d="m 1555.46,382.672 c 31.31,0 56.69,-25.383 56.69,-56.692"
         style="fill:none;stroke:#000000;stroke-width:28.34600067;stroke-linecap:butt;stroke-linejoin:round;stroke-miterlimit:10;stroke-dasharray:none;stroke-opacity:1"
         id="path3552"
         inkscape:connector-curvature="0" /><path
         d="m 620.039,325.98 0,-255.1167"
         style="fill:none;stroke:#000000;stroke-width:28.34600067;stroke-linecap:butt;stroke-linejoin:round;stroke-miterlimit:10;stroke-dasharray:none;stroke-opacity:1"
         id="path3554"
         inkscape:connector-curvature="0" /><path
         d="m 1612.15,325.98 0,-255.1167"
         style="fill:none;stroke:#000000;stroke-width:28.34600067;stroke-linecap:butt;stroke-linejoin:round;stroke-miterlimit:10;stroke-dasharray:none;stroke-opacity:1"
         id="path3556"
         inkscape:connector-curvature="0" /><path
         d="m 676.734,14.1719 c -31.308,0 -56.695,25.3828 -56.695,56.6914"
         style="fill:none;stroke:#000000;stroke-width:28.34600067;stroke-linecap:butt;stroke-linejoin:round;stroke-miterlimit:10;stroke-dasharray:none;stroke-opacity:1"
         id="path3558"
         inkscape:connector-curvature="0" /><path
         d="m 1612.15,70.8633 c 0,-31.3086 -25.38,-56.6914 -56.69,-56.6914"
         style="fill:none;stroke:#000000;stroke-width:28.34600067;stroke-linecap:butt;stroke-linejoin:round;stroke-miterlimit:10;stroke-dasharray:none;stroke-opacity:1"
         id="path3560"
         inkscape:connector-curvature="0" /><path
         d="M 1612.15,198.422 5831.57,1434.12"
         style="fill:none;stroke:#ff0000;stroke-width:28.34600067;stroke-linecap:butt;stroke-linejoin:round;stroke-miterlimit:10;stroke-dasharray:none;stroke-opacity:1"
         id="path3562"
         inkscape:connector-curvature="0" /><path
         d="m 5815.54,1399.89 46.44,43.14 -62.37,11.27"
         style="fill:none;stroke:#ff0000;stroke-width:28.34600067;stroke-linecap:butt;stroke-linejoin:miter;stroke-miterlimit:10;stroke-dasharray:none;stroke-opacity:1"
         id="path3564"
         inkscape:connector-curvature="0" /><path
         d="m 6671.91,1451.94 c 0,-371.81 -174.5,-673.217 -389.76,-673.217 -215.25,0 -389.75,301.407 -389.75,673.217 0,371.8 174.5,673.22 389.75,673.22 215.26,0 389.76,-301.42 389.76,-673.22"
         style="fill:#00ff00;fill-opacity:1;fill-rule:nonzero;stroke:none"
         id="path3566"
         inkscape:connector-curvature="0" /><path
         d="m 6671.91,1451.94 c 0,-371.81 -174.5,-673.217 -389.76,-673.217 -215.25,0 -389.75,301.407 -389.75,673.217 0,371.8 174.5,673.22 389.75,673.22 215.26,0 389.76,-301.42 389.76,-673.22 z"
         style="fill:none;stroke:#000000;stroke-width:28.34600067;stroke-linecap:butt;stroke-linejoin:miter;stroke-miterlimit:10;stroke-dasharray:none;stroke-opacity:1"
         id="path3568"
         inkscape:connector-curvature="0" /><path
         d="M 1011.15,2648.64 5892.4,1451.94"
         style="fill:none;stroke:#ff0000;stroke-width:28.34600067;stroke-linecap:butt;stroke-linejoin:miter;stroke-miterlimit:10;stroke-dasharray:56.692;stroke-dashoffset:0;stroke-opacity:1"
         id="path3570"
         inkscape:connector-curvature="0" /><path
         d="m 1073.09,2677.23 -92.719,-21.05 72.469,-61.54"
         style="fill:none;stroke:#ff0000;stroke-width:28.34600067;stroke-linecap:butt;stroke-linejoin:miter;stroke-miterlimit:10;stroke-dasharray:none;stroke-opacity:1"
         id="path3572"
         inkscape:connector-curvature="0" /><path
         d="m 6051.41,1432.41 11.58,0 c 22.96,0 27.1,-4.33 29.44,-25.78 l 5.91,0 0,32.6 -112.64,0 0,-32.6 5.9,0 c 2.35,21.45 6.49,25.78 29.45,25.78 l 11.58,0 0,-110.99 c 0,-11.04 -0.58,-11.44 -21.59,-12.62 l 0,-5.68 61.96,0 0,5.68 c -21.01,1.18 -21.59,1.58 -21.59,12.62 l 0,110.99"
         style="fill:#000000;fill-opacity:1;fill-rule:nonzero;stroke:none"
         id="path3574"
         inkscape:connector-curvature="0" /><path
         d="m 6172.96,1330.37 c 0,-16.07 -12.8,-20.21 -20.87,-20.21 -12.83,0 -19.03,8.66 -19.03,20.28 0,9.35 4.55,14.11 16.14,18.29 8.25,2.98 19.21,6.75 23.76,9.54 l 0,-27.9 m 18.77,44.99 c 0,11.36 -2.71,26.1 -34.06,26.1 -22.4,0 -40.04,-11.66 -40.04,-22.51 0,-6.38 6.89,-9.35 10.41,-9.35 4.25,0 5.46,2.2 6.49,5.57 4.44,14.71 12.76,19.47 20.86,19.47 8.07,0 17.57,-3.96 17.57,-19.87 l 0,-8.36 c -4.99,-5.17 -24.35,-10.12 -40.12,-15.11 -14.37,-4.36 -18.55,-14.3 -18.55,-23.65 0,-14.19 9.61,-26.87 27.65,-26.87 12.83,0 24.2,6.74 30.8,10.59 2.93,-6.52 6.27,-10.59 13.56,-10.59 7.34,0 15.88,2.05 23.4,5.61 l -1.18,3.77 c -2.75,0 -7.04,0 -9.97,0.77 -3.48,0.81 -6.82,4.55 -6.82,16.91 l 0,47.52"
         style="fill:#000000;fill-opacity:1;fill-rule:nonzero;stroke:none"
         id="path3576"
         inkscape:connector-curvature="0" /><path
         d="m 6247.2,1401.68 -30.07,-5.28 0,-5.24 7.41,-0.96 c 5.09,-0.8 6.26,-1.75 6.26,-8.76 l 0,-62.15 c 0,-10.08 -0.98,-10.49 -14.66,-10.49 l 0,-5.68 51.99,0 0,5.68 c -17.38,0 -18.55,0.41 -18.55,10.49 l 0,46.24 c 0,14.74 6.63,19.72 11.14,19.72 3.12,0 6.46,-1.02 12.1,-3.81 1.4,-0.69 2.94,-0.88 3.93,-0.88 4.69,0 8.98,4.84 8.98,10.82 0,4.62 -2.75,10.3 -10.37,10.3 -7.05,0 -12.88,-4.62 -25.78,-16.75 l -2.38,16.75"
         style="fill:#000000;fill-opacity:1;fill-rule:nonzero;stroke:none"
         id="path3578"
         inkscape:connector-curvature="0" /><path
         d="m 6337.36,1394.64 c 10.08,0 20.6,-7.11 20.6,-26.29 0,-16.61 -9.05,-25.33 -21.01,-25.33 -11.55,0 -21.23,8.72 -21.23,25.33 0,19.58 10.71,26.29 21.64,26.29 m 4.32,-131.63 c -16.72,0 -28.3,8.72 -28.3,23.03 0,6.74 1.94,11.69 6.08,14.88 4.29,3.38 10.78,4.55 20.17,4.55 17.3,0 30.07,-4.18 30.07,-19.03 0,-15.88 -14.12,-23.43 -28.02,-23.43 m 21.6,132.4 c -5.61,3.7 -16.69,6.05 -25.92,6.05 -29.89,0 -40.41,-18.51 -40.41,-33.11 0,-18.81 11.48,-27.42 20.02,-29.81 l 0,-0.44 c -9.94,-3.85 -16.9,-9.16 -16.9,-16.31 0,-6.57 7.29,-13.68 16.05,-14.63 l 0,-0.37 c -8.03,-2.75 -21.52,-7.52 -21.52,-21.74 0,-19.95 19.62,-28.86 42.35,-28.86 11.81,0 24.2,2.38 33.62,8.1 9.06,5.54 15.55,14.85 15.55,27.1 0,20.82 -17.01,28.16 -38.17,28.16 l -15.8,0 c -14.26,0 -16.43,4.47 -16.43,8.03 0,5.1 7.37,7.92 9.9,8.62 3.92,0 8.25,0 10.49,0 19.1,0 40.62,8.28 40.62,32.15 0,8.33 -2.53,15.22 -5.86,18.59 l 14.85,2.35 3.74,12.35 -1.58,1.77 -24.6,-8"
         style="fill:#000000;fill-opacity:1;fill-rule:nonzero;stroke:none"
         id="path3580"
         inkscape:connector-curvature="0" /><path
         d="m 6477.4,1354.75 c 4.25,0 8.1,0.88 8.1,6.82 0,11.7 -3.74,39.89 -39.67,39.89 -30.4,0 -44.81,-21.71 -44.81,-51.07 0,-30.73 13.24,-49.61 44.99,-49.61 21.78,0 32.96,11.91 38.28,27.31 l -6.09,3.16 c -5.5,-11.55 -12.94,-21.09 -28.41,-21.09 -22.99,0 -27.65,23.87 -27.65,44.59 l 55.26,0 m -55.26,6.82 c 0,8.18 2.86,33.07 22.55,33.07 17.6,0 19.69,-18.92 19.69,-26.69 0,-3.78 -1.14,-6.38 -6.45,-6.38 l -35.79,0"
         style="fill:#000000;fill-opacity:1;fill-rule:nonzero;stroke:none"
         id="path3582"
         inkscape:connector-curvature="0" /><path
         d="m 6559.38,1391.52 0,7.82 -25.2,0 0,24.6 -5.79,0 -12.17,-24.6 -14.89,0 0,-7.82 14.08,0 0,-69.04 c 0,-19.43 15.14,-21.7 22.11,-21.7 9.97,0 19.32,4.69 25.01,7.95 l -1.58,4 c -4.69,-1.98 -8.98,-2.57 -13.86,-2.57 -6.64,0 -12.91,4.77 -12.91,19.84 l 0,61.52 25.2,0"
         style="fill:#000000;fill-opacity:1;fill-rule:nonzero;stroke:none"
         id="path3584"
         inkscape:connector-curvature="0" /><path
         d="m 906.793,244.535 c 0,11.074 0.586,11.477 18.734,12.649 l 0,5.683 -55.109,0 0,-5.683 c 17.199,-1.172 17.602,-1.575 17.602,-12.649 l 0,-99.879 c 0,-10.707 -0.403,-11.074 -17.602,-12.211 l 0,-5.683 100.836,0 2.344,34.871 -5.868,0 c -3.921,-25.52 -14.664,-28.051 -35.16,-28.051 -9.754,0 -16.793,0 -20.902,1.578 -4.106,1.797 -4.875,5.133 -4.875,14.813 l 0,94.562"
         style="fill:#000000;fill-opacity:1;fill-rule:nonzero;stroke:none"
         id="path3586"
         inkscape:connector-curvature="0" /><path
         d="m 1045.88,154.008 c 0,-16.063 -12.79,-20.203 -20.86,-20.203 -12.83,0 -19.03,8.652 -19.03,20.273 0,9.352 4.55,14.117 16.13,18.297 8.25,2.973 19.22,6.746 23.76,9.535 l 0,-27.902 m 18.78,44.988 c 0,11.367 -2.72,26.106 -34.07,26.106 -22.4,0 -40.039,-11.661 -40.039,-22.512 0,-6.379 6.894,-9.352 10.409,-9.352 4.26,0 5.47,2.2 6.5,5.574 4.43,14.704 12.75,19.469 20.86,19.469 8.07,0 17.56,-3.957 17.56,-19.871 l 0,-8.359 c -4.99,-5.172 -24.34,-10.121 -40.11,-15.11 -14.375,-4.363 -18.555,-14.296 -18.555,-23.648 0,-14.191 9.609,-26.875 27.645,-26.875 12.84,0 24.2,6.746 30.8,10.594 2.93,-6.524 6.27,-10.594 13.57,-10.594 7.33,0 15.88,2.051 23.39,5.609 l -1.17,3.778 c -2.75,0 -7.04,0 -9.97,0.769 -3.49,0.805 -6.82,4.547 -6.82,16.903 l 0,47.519"
         style="fill:#000000;fill-opacity:1;fill-rule:nonzero;stroke:none"
         id="path3588"
         inkscape:connector-curvature="0" /><path
         d="m 1153.38,195.551 0,22.914 c -6.13,4.695 -15.62,6.637 -23.99,6.637 -20.89,0 -35.05,-9.973 -35.05,-28.563 0,-16.281 12.8,-23.539 28.64,-28.418 8.62,-2.746 20.64,-7.258 20.64,-20.605 0,-10.008 -7.37,-16.278 -17.16,-16.278 -15.62,0 -24.31,11.547 -28.16,28.231 l -5.72,0 1.76,-25.664 c 7.04,-6.27 18.96,-9.387 30.47,-9.387 22.44,0 35.24,12.32 35.24,28.965 0,17.269 -10.09,25.117 -29.3,31.387 -7.66,2.531 -19.98,6.671 -19.98,17.636 0,10.192 7.19,15.875 16.43,15.875 13.16,0 19.46,-10.777 20.75,-22.73 l 5.43,0"
         style="fill:#000000;fill-opacity:1;fill-rule:nonzero;stroke:none"
         id="path3590"
         inkscape:connector-curvature="0" /><path
         d="m 1255.45,178.391 c 4.26,0 8.1,0.879 8.1,6.82 0,11.695 -3.73,39.891 -39.67,39.891 -30.39,0 -44.8,-21.707 -44.8,-51.075 0,-30.726 13.23,-49.609 44.99,-49.609 21.78,0 32.96,11.914 38.28,27.316 l -6.09,3.153 c -5.5,-11.551 -12.94,-21.082 -28.42,-21.082 -22.98,0 -27.64,23.867 -27.64,44.586 l 55.25,0 m -55.25,6.82 c 0,8.176 2.86,33.07 22.55,33.07 17.6,0 19.69,-18.918 19.69,-26.691 0,-3.778 -1.14,-6.379 -6.46,-6.379 l -35.78,0"
         style="fill:#000000;fill-opacity:1;fill-rule:nonzero;stroke:none"
         id="path3592"
         inkscape:connector-curvature="0" /><path
         d="m 1309.86,225.324 -30.07,-5.281 0,-5.242 7.41,-0.953 c 5.09,-0.809 6.27,-1.762 6.27,-8.766 l 0,-62.148 c 0,-10.082 -0.99,-10.489 -14.67,-10.489 l 0,-5.683 51.99,0 0,5.683 c -17.38,0 -18.55,0.407 -18.55,10.489 l 0,46.234 c 0,14.742 6.64,19.727 11.15,19.727 3.11,0 6.45,-1.024 12.1,-3.813 1.39,-0.695 2.93,-0.879 3.92,-0.879 4.7,0 8.98,4.84 8.98,10.817 0,4.621 -2.75,10.304 -10.37,10.304 -7.04,0 -12.87,-4.621 -25.78,-16.758 l -2.38,16.758"
         style="fill:#000000;fill-opacity:1;fill-rule:nonzero;stroke:none"
         id="path3594"
         inkscape:connector-curvature="0" /><path
         d="m 779.516,1841.7 170.074,0 0,1176.36 -170.074,0 0,-1176.36 z"
         style="fill:#ffc0cb;fill-opacity:1;fill-rule:nonzero;stroke:none"
         id="path3596"
         inkscape:connector-curvature="0" /><path
         d="m 779.516,1841.7 170.074,0 0,1176.36 -170.074,0 0,-1176.36 z"
         style="fill:none;stroke:#000000;stroke-width:28.34600067;stroke-linecap:butt;stroke-linejoin:miter;stroke-miterlimit:10;stroke-dasharray:none;stroke-opacity:1"
         id="path3598"
         inkscape:connector-curvature="0" /><path
         d="m 1087.56,3232.77 446.89,9.93"
         style="fill:none;stroke:#000000;stroke-width:28.34600067;stroke-linecap:butt;stroke-linejoin:miter;stroke-miterlimit:10;stroke-dasharray:56.692;stroke-dashoffset:0;stroke-opacity:1"
         id="path3600"
         inkscape:connector-curvature="0" /><path
         d="m 1023.79,3231.36 84.08,44.39 -20.31,-42.98 22.19,-42.03"
         style="fill:#000000;fill-opacity:1;fill-rule:evenodd;stroke:none"
         id="path3602"
         inkscape:connector-curvature="0" /><path
         d="m 1023.79,3231.36 84.08,44.39 -20.31,-42.98 22.19,-42.03 -85.96,40.62 z"
         style="fill:none;stroke:#000000;stroke-width:28.34600067;stroke-linecap:butt;stroke-linejoin:miter;stroke-miterlimit:10;stroke-dasharray:none;stroke-opacity:1"
         id="path3604"
         inkscape:connector-curvature="0" /><path
         d="m 1598.21,3244.12 -84.07,-44.4 20.31,42.98 -22.2,42.04"
         style="fill:#000000;fill-opacity:1;fill-rule:evenodd;stroke:none"
         id="path3606"
         inkscape:connector-curvature="0" /><path
         d="m 1598.21,3244.12 -84.07,-44.4 20.31,42.98 -22.2,42.04 85.96,-40.62 z"
         style="fill:none;stroke:#000000;stroke-width:28.34600067;stroke-linecap:butt;stroke-linejoin:miter;stroke-miterlimit:10;stroke-dasharray:none;stroke-opacity:1"
         id="path3608"
         inkscape:connector-curvature="0" /><path
         d="m 1329.64,3404.09 23.83,0 0,7.81 -23.83,0 0,21.93 c -0.59,18.59 5.72,20.53 8.57,20.53 4.11,0 8.4,-1.94 13.32,-13.31 0.99,-1.98 2.34,-3.34 5.27,-3.34 3.93,0 9.58,3.34 9.58,9.21 0,6.45 -8.22,14.26 -23.84,14.26 -10.89,0 -20.2,-4.88 -25.15,-12.32 -4.55,-6.86 -6.53,-17.2 -6.53,-30.1 l 0,-6.86 -15.03,0 0,-7.81 15.03,0 0,-72.2 c 0,-10.11 -0.58,-10.52 -14.66,-10.52 l 0,-5.68 51.99,0 0,5.68 c -17.78,0 -18.55,0.41 -18.55,10.34 l 0,72.38"
         style="fill:#000000;fill-opacity:1;fill-rule:nonzero;stroke:none"
         id="path3610"
         inkscape:connector-curvature="0" /><path
         d="m 1757.17,2951.58 c 0,11.07 0.59,11.47 18.74,12.65 l 0,5.68 -55.11,0 0,-5.68 c 17.2,-1.18 17.6,-1.58 17.6,-12.65 l 0,-99.88 c 0,-10.71 -0.4,-11.07 -17.6,-12.21 l 0,-5.68 100.83,0 2.35,34.87 -5.87,0 c -3.92,-25.52 -14.66,-28.05 -35.16,-28.05 -9.75,0 -16.79,0 -20.9,1.57 -4.11,1.8 -4.88,5.14 -4.88,14.82 l 0,94.56"
         style="fill:#000000;fill-opacity:1;fill-rule:nonzero;stroke:none"
         id="path3612"
         inkscape:connector-curvature="0" /><path
         d="m 1913.97,2885.43 c 4.26,0 8.1,0.88 8.1,6.82 0,11.7 -3.73,39.9 -39.67,39.9 -30.4,0 -44.8,-21.71 -44.8,-51.08 0,-30.73 13.23,-49.61 44.99,-49.61 21.78,0 32.96,11.92 38.27,27.32 l -6.08,3.15 c -5.5,-11.55 -12.94,-21.08 -28.42,-21.08 -22.99,0 -27.65,23.87 -27.65,44.58 l 55.26,0 m -55.26,6.82 c 0,8.18 2.86,33.08 22.56,33.08 17.6,0 19.69,-18.92 19.69,-26.7 0,-3.77 -1.14,-6.38 -6.46,-6.38 l -35.79,0"
         style="fill:#000000;fill-opacity:1;fill-rule:nonzero;stroke:none"
         id="path3614"
         inkscape:connector-curvature="0" /><path
         d="m 2034.12,2900.8 c 0,20.05 -10.78,31.57 -28.86,31.57 -14.12,0 -22.88,-7.59 -34.69,-16.06 l -2.82,16.06 -29.44,-5.43 0,-5.43 7.4,-0.99 c 5.1,-0.81 6.27,-1.79 6.27,-8.91 l 0,-61.74 c 0,-9.98 -0.58,-10.38 -14.66,-10.38 l 0,-5.68 47.74,0 0,5.68 c -13.53,0 -14.3,0.4 -14.3,10.38 l 0,45.87 c 0,4.91 0.36,7.66 1.9,10.78 4,7.66 12.58,14.11 22.66,14.11 12.98,0 20.02,-7.44 20.02,-24.49 l 0,-46.27 c 0,-9.98 -0.58,-10.38 -14.29,-10.38 l 0,-5.68 47.74,0 0,5.68 c -13.9,0 -14.67,0.4 -14.67,10.53 l 0,50.78"
         style="fill:#000000;fill-opacity:1;fill-rule:nonzero;stroke:none"
         id="path3616"
         inkscape:connector-curvature="0" /><path
         d="m 2125.53,2902.59 0,22.92 c -6.12,4.69 -15.62,6.64 -23.98,6.64 -20.9,0 -35.05,-9.98 -35.05,-28.57 0,-16.28 12.79,-23.54 28.63,-28.41 8.62,-2.75 20.65,-7.26 20.65,-20.61 0,-10.01 -7.37,-16.28 -17.16,-16.28 -15.62,0 -24.31,11.55 -28.16,28.24 l -5.72,0 1.76,-25.67 c 7.04,-6.27 18.95,-9.39 30.47,-9.39 22.44,0 35.23,12.32 35.23,28.97 0,17.27 -10.08,25.11 -29.29,31.38 -7.67,2.53 -19.98,6.68 -19.98,17.64 0,10.19 7.18,15.88 16.42,15.88 13.17,0 19.47,-10.78 20.76,-22.74 l 5.42,0"
         style="fill:#000000;fill-opacity:1;fill-rule:nonzero;stroke:none"
         id="path3618"
         inkscape:connector-curvature="0" /><path
         d="m 124.371,3063.66 c -8.91,4.07 -24.016,7.59 -42.0546,7.59 -24.0547,0 -43.4141,-7 -55.1484,-20.05 -11.1446,-12.47 -17.78128,-29.23 -17.78128,-51.23 0,-22.77 6.85548,-41.06 18.55468,-52.76 12.1367,-12.07 31.2734,-16.54 53.1641,-16.54 15.8398,0 34.1015,4.29 43.5975,9.35 l 2.785,32.52 -5.902,0 c -5.535,-20.24 -15.656,-35.05 -41.6524,-35.05 -40.8828,0 -49.4258,39.53 -49.4258,63.07 0,31.82 12.9063,63.87 49.793,63.87 20.2732,0 34.3552,-8.18 38.1332,-31.16 l 5.937,0 0,30.39"
         style="fill:#000000;fill-opacity:1;fill-rule:nonzero;stroke:none"
         id="path3620"
         inkscape:connector-curvature="0" /><path
         d="m 204.695,2960.26 c 0,-16.06 -12.797,-20.2 -20.863,-20.2 -12.836,0 -19.031,8.65 -19.031,20.28 0,9.34 4.547,14.11 16.133,18.29 8.25,2.97 19.214,6.75 23.761,9.53 l 0,-27.9 m 18.77,44.99 c 0,11.37 -2.711,26.11 -34.063,26.11 -22.402,0 -40.039,-11.66 -40.039,-22.52 0,-6.38 6.895,-9.34 10.414,-9.34 4.254,0 5.465,2.2 6.489,5.57 4.437,14.7 12.761,19.47 20.863,19.47 8.066,0 17.566,-3.96 17.566,-19.88 l 0,-8.36 c -4.988,-5.17 -24.347,-10.12 -40.113,-15.1 -14.375,-4.36 -18.555,-14.3 -18.555,-23.65 0,-14.19 9.606,-26.88 27.645,-26.88 12.836,0 24.203,6.75 30.801,10.6 2.933,-6.53 6.269,-10.6 13.566,-10.6 7.336,0 15.879,2.06 23.395,5.61 l -1.176,3.78 c -2.746,0 -7.039,0 -9.973,0.77 -3.48,0.81 -6.82,4.55 -6.82,16.9 l 0,47.52"
         style="fill:#000000;fill-opacity:1;fill-rule:nonzero;stroke:none"
         id="path3622"
         inkscape:connector-curvature="0" /><path
         d="m 248.863,3025.93 0,-5.64 7.407,-0.96 c 5.097,-0.73 6.269,-1.69 6.269,-8.51 l 0,-61.74 c 0,-9.97 -0.586,-10.38 -14.664,-10.38 l 0,-5.68 47.594,0 0,5.68 c -13.383,0 -14.157,0.41 -14.157,10.38 l 0,45.87 c 0,4.91 0,7.66 1.36,10.41 3.629,7.81 12.027,14.48 22.547,14.48 16.429,0 18.336,-12.35 18.336,-24.49 l 0,-46.27 c 0,-9.97 -0.586,-10.38 -14.336,-10.38 l 0,-5.68 48.031,0 0,5.68 c -14.117,0 -14.922,0.41 -14.922,10.38 l 0,45.87 c 0,4.91 0,7.66 1.207,10.78 3.047,7.84 11.699,14.11 22.992,14.11 12.723,0 20.387,-7.7 20.387,-24.49 l 0,-46.27 c 0,-9.97 -0.625,-10.38 -15.144,-10.38 l 0,-5.68 48.582,0 0,5.68 c -13.895,0 -14.664,0.41 -14.664,10.53 l 0,50.78 c 0,20.05 -10.817,31.57 -29.883,31.57 -16.43,0 -28.27,-11.59 -35.274,-16.24 -4.73,9.89 -12.211,16.24 -25.961,16.24 -14.629,0 -26.621,-10.56 -33.258,-16.06 l -1.796,16.06 -30.653,-5.65"
         style="fill:#000000;fill-opacity:1;fill-rule:nonzero;stroke:none"
         id="path3624"
         inkscape:connector-curvature="0" /><path
         d="m 511.258,2984.64 c 4.254,0 8.105,0.88 8.105,6.82 0,11.7 -3.742,39.9 -39.675,39.9 -30.395,0 -44.805,-21.71 -44.805,-51.08 0,-30.73 13.238,-49.61 44.988,-49.61 21.781,0 32.965,11.92 38.281,27.32 l -6.086,3.15 c -5.5,-11.55 -12.945,-21.08 -28.418,-21.08 -22.988,0 -27.644,23.87 -27.644,44.58 l 55.254,0 m -55.254,6.82 c 0,8.18 2.859,33.08 22.547,33.08 17.601,0 19.691,-18.92 19.691,-26.7 0,-3.77 -1.137,-6.38 -6.453,-6.38 l -35.785,0"
         style="fill:#000000;fill-opacity:1;fill-rule:nonzero;stroke:none"
         id="path3626"
         inkscape:connector-curvature="0" /><path
         d="m 565.664,3031.58 -30.066,-5.28 0,-5.25 7.406,-0.95 c 5.094,-0.81 6.269,-1.76 6.269,-8.76 l 0,-62.15 c 0,-10.08 -0.992,-10.49 -14.668,-10.49 l 0,-5.68 51.993,0 0,5.68 c -17.379,0 -18.551,0.41 -18.551,10.49 l 0,46.24 c 0,14.73 6.637,19.72 11.144,19.72 3.118,0 6.454,-1.03 12.102,-3.81 1.395,-0.7 2.934,-0.88 3.922,-0.88 4.695,0 8.984,4.84 8.984,10.81 0,4.62 -2.75,10.31 -10.375,10.31 -7.043,0 -12.871,-4.62 -25.777,-16.76 l -2.383,16.76"
         style="fill:#000000;fill-opacity:1;fill-rule:nonzero;stroke:none"
         id="path3628"
         inkscape:connector-curvature="0" /><path
         d="m 674.082,2960.26 c 0,-16.06 -12.797,-20.2 -20.863,-20.2 -12.832,0 -19.028,8.65 -19.028,20.28 0,9.34 4.547,14.11 16.133,18.29 8.25,2.97 19.211,6.75 23.758,9.53 l 0,-27.9 m 18.773,44.99 c 0,11.37 -2.71,26.11 -34.062,26.11 -22.402,0 -40.039,-11.66 -40.039,-22.52 0,-6.38 6.894,-9.34 10.414,-9.34 4.25,0 5.461,2.2 6.488,5.57 4.438,14.7 12.762,19.47 20.864,19.47 8.066,0 17.562,-3.96 17.562,-19.88 l 0,-8.36 c -4.984,-5.17 -24.344,-10.12 -40.113,-15.1 -14.371,-4.36 -18.551,-14.3 -18.551,-23.65 0,-14.19 9.605,-26.88 27.644,-26.88 12.833,0 24.2,6.75 30.801,10.6 2.934,-6.53 6.27,-10.6 13.567,-10.6 7.332,0 15.875,2.06 23.394,5.61 l -1.176,3.78 c -2.75,0 -7.039,0 -9.972,0.77 -3.485,0.81 -6.821,4.55 -6.821,16.9 l 0,47.52"
         style="fill:#000000;fill-opacity:1;fill-rule:nonzero;stroke:none"
         id="path3630"
         inkscape:connector-curvature="0" /><path
         d="m 5534.32,1131.5 c 0,56.46 16.98,73.44 29.3,76.01 l 0,4.95 c -34.5,-1.39 -43.38,-44.22 -43.38,-80.96 0,-36.74 8.88,-79.57 43.38,-80.96 l 0,4.95 c -11.33,2.39 -29.3,19.14 -29.3,76.01"
         style="fill:#000000;fill-opacity:1;fill-rule:nonzero;stroke:none"
         id="path3632"
         inkscape:connector-curvature="0" /><path
         d="m 5606.5,1076.36 0,5.68 -6.86,0.99 c -2.27,0.36 -2.09,2.53 -1.06,4.65 3.89,8.4 9.5,17.79 15.44,27.94 l 0.4,0 16.17,-27.13 c 1.98,-3.33 1.47,-5.1 -1.13,-5.46 l -7.26,-0.99 0,-5.68 45.57,0 0,5.68 c -8.72,0 -12.02,0.58 -16.86,7.7 -8.95,13.09 -18.04,26.91 -26.59,40.77 6.46,9.94 14.08,19.87 21.75,29.22 5.05,6.35 7.62,7.15 17.01,7.15 l 0,5.69 -35.2,0 0,-5.69 6.67,-0.77 c 2.75,-0.4 2.35,-2.38 0.99,-4.5 -4.43,-7.49 -9.68,-15.7 -15.47,-24.72 l -0.22,0 -16.24,24.49 c -1.54,2.35 -1.14,4.51 1.72,4.92 l 5.79,0.58 0,5.69 -41.91,0 0,-5.69 c 8.03,0 10.05,-0.4 14.85,-6.96 8.44,-11.52 17.09,-24.42 25.71,-37.15 -7.19,-10.74 -14.74,-22.07 -22.7,-32.77 -5.06,-6.97 -9.31,-7.96 -17.86,-7.96 l 0,-5.68 37.29,0"
         style="fill:#000000;fill-opacity:1;fill-rule:nonzero;stroke:none"
         id="path3634"
         inkscape:connector-curvature="0" /><path
         d="m 5679.7,1048.2 c 9.79,8.98 24.05,21.63 24.05,36.73 0,10.42 -6.45,17.24 -13.31,17.24 -6.05,0 -9.57,-4.58 -9.57,-9.57 0,-6.9 6.45,-10.34 6.45,-18.56 0,-7.84 -5.09,-15.5 -11.32,-22.22 l 3.7,-3.62"
         style="fill:#000000;fill-opacity:1;fill-rule:nonzero;stroke:none"
         id="path3636"
         inkscape:connector-curvature="0" /><path
         d="m 5806.06,1172.57 -75.02,0 0,-29.04 6.05,0 c 2.53,18.08 6.64,22.22 27.75,22.22 l 19.55,0 c -20.13,-28.89 -40.66,-57.57 -61.57,-86.46 l 1.58,-2.93 83.01,0 1.98,30.02 -6.08,0 c -3.12,-18.47 -9.76,-23.2 -31.43,-23.2 l -25.22,0 c 19.72,28.89 40.26,57.78 60.97,86.68 l -1.57,2.71"
         style="fill:#000000;fill-opacity:1;fill-rule:nonzero;stroke:none"
         id="path3638"
         inkscape:connector-curvature="0" /><path
         d="m 5850.08,1131.5 c 0,-56.87 -17.97,-73.62 -29.29,-76.01 l 0,-4.95 c 34.5,1.39 43.37,44.22 43.37,80.96 0,36.74 -8.87,79.57 -43.37,80.96 l 0,-4.95 c 12.32,-2.57 29.29,-19.55 29.29,-76.01"
         style="fill:#000000;fill-opacity:1;fill-rule:nonzero;stroke:none"
         id="path3640"
         inkscape:connector-curvature="0" /><path
         d="m 1601.55,3329.86 10.6,-3131.438"
         style="fill:none;stroke:#e6e6fa;stroke-width:28.34600067;stroke-linecap:butt;stroke-linejoin:miter;stroke-miterlimit:10;stroke-dasharray:none;stroke-opacity:1"
         id="path3642"
         inkscape:connector-curvature="0" /><path
         d="m 1892.92,414.105 -3.52,0 c -0.37,-4.031 -1.02,-6.964 -1.95,-8.796 -0.9,-1.809 -1.86,-3.227 -2.89,-4.254 -0.66,-0.66 -1.48,-1.285 -2.46,-1.871 -0.98,-0.586 -1.92,-0.879 -2.82,-0.879 -2.2,0 -4.18,0.621 -5.94,1.871 -1.76,1.269 -3.29,2.894 -4.59,4.875 -1.29,1.98 -2.37,4.191 -3.22,6.637 -0.83,2.468 -1.44,4.839 -1.83,7.113 l 22.4,56.941 -17.13,0 -12.46,-34.683 -0.4,0 c -0.93,6.23 -2.49,11.656 -4.66,16.277 -2.18,4.621 -4.74,8.484 -7.7,11.586 -2.96,3.129 -6.25,5.051 -9.87,5.758 -3.61,0.711 -7.4,1.062 -11.36,1.062 -3.3,0 -6.31,-0.219 -9.02,-0.66 -2.69,-0.414 -5.22,-1.109 -7.59,-2.09 -2.35,-0.953 -4.64,-2.148 -6.89,-3.594 -2.25,-1.441 -4.56,-3.25 -6.93,-5.425 -4.99,-4.594 -8.48,-9.911 -10.45,-15.95 -1.98,-6.039 -2.98,-13.164 -2.98,-21.375 0,-15.23 4.36,-26.828 13.06,-34.796 3.27,-3.032 7.32,-5.454 12.14,-7.262 4.81,-1.809 9.71,-2.711 14.7,-2.711 5.4,0 10.94,0.941 16.61,2.82 5.67,1.883 10.22,4.512 13.64,7.887 3.15,3.125 5.45,6.121 6.89,8.98 1.44,2.86 2.75,5.329 3.92,7.407 1.03,-2.86 2.19,-5.879 3.49,-9.055 1.29,-3.18 2.72,-6.098 4.29,-8.766 1.56,-2.664 3.28,-4.875 5.17,-6.636 1.88,-1.758 3.92,-2.637 6.12,-2.637 1.95,0 3.78,0.695 5.46,2.09 1.69,1.39 3.15,3.164 4.37,5.316 1.25,2.149 2.22,4.449 2.93,6.891 0.71,2.469 1.07,4.683 1.07,6.636 l 0.4,11.293 m -41.51,11.918 -5.32,-13.273 c -1.44,-3.445 -3.18,-6.879 -5.24,-10.305 -2.03,-3.394 -4.09,-6.047 -6.19,-7.953 -1.96,-1.808 -4.09,-3.191 -6.39,-4.144 -2.29,-0.953 -4.49,-1.43 -6.59,-1.43 -3.16,0 -6.25,0.953 -9.28,2.859 -3.03,1.907 -5.47,4.594 -7.3,8.067 -1.83,3.226 -3.18,7.527 -4.03,12.906 -0.86,5.379 -1.28,10.879 -1.28,16.5 0,5.133 0.48,10.242 1.46,15.328 1,5.082 2.55,9.543 4.66,13.383 1.44,2.738 3.37,5.207 5.79,7.406 2.44,2.223 5.3,3.336 8.58,3.336 3.15,0 6.24,-0.539 9.24,-1.613 3.03,-1.074 5.93,-2.871 8.69,-5.391 1.98,-1.785 3.62,-3.75 4.91,-5.902 1.33,-2.152 2.47,-4.609 3.45,-7.371 1,-2.738 1.86,-5.965 2.57,-9.68 0.73,-3.691 1.49,-7.93 2.27,-12.723"
         style="fill:#000000;fill-opacity:1;fill-rule:nonzero;stroke:none"
         id="path3644"
         inkscape:connector-curvature="0" /><path
         d="m 1629.89,580.301 c 42.15,30.351 92.77,46.683 144.71,46.683 136.74,0 247.6,-110.855 247.6,-247.597 0,-23.129 -3.25,-46.149 -9.63,-68.375"
         style="fill:none;stroke:#000000;stroke-width:28.34600067;stroke-linecap:butt;stroke-linejoin:miter;stroke-miterlimit:10;stroke-dasharray:none;stroke-opacity:1"
         id="path3646"
         inkscape:connector-curvature="0" /><path
         d="m 1700.76,2486.57 854.12,-6.37"
         style="fill:none;stroke:#000000;stroke-width:28.34600067;stroke-linecap:butt;stroke-linejoin:miter;stroke-miterlimit:10;stroke-dasharray:none;stroke-opacity:1"
         id="path3648"
         inkscape:connector-curvature="0" /><path
         d="m 2618.66,2479.72 -85.35,-41.88 21.57,42.36 -20.94,42.67"
         style="fill:#000000;fill-opacity:1;fill-rule:evenodd;stroke:none"
         id="path3650"
         inkscape:connector-curvature="0" /><path
         d="m 2618.66,2479.72 -85.35,-41.88 21.57,42.36 -20.94,42.67 84.72,-43.15 z"
         style="fill:none;stroke:#000000;stroke-width:28.34600067;stroke-linecap:butt;stroke-linejoin:miter;stroke-miterlimit:10;stroke-dasharray:none;stroke-opacity:1"
         id="path3652"
         inkscape:connector-curvature="0" /><path
         d="m 2850.49,2561.52 -75.02,0 0,-29.04 6.05,0 c 2.53,18.08 6.64,22.22 27.75,22.22 l 19.55,0 c -20.13,-28.89 -40.66,-57.56 -61.57,-86.46 l 1.58,-2.93 83.01,0 1.98,30.03 -6.08,0 c -3.12,-18.48 -9.76,-23.21 -31.42,-23.21 l -25.23,0 c 19.73,28.89 40.26,57.78 60.98,86.68 l -1.58,2.71"
         style="fill:#000000;fill-opacity:1;fill-rule:nonzero;stroke:none"
         id="path3654"
         inkscape:connector-curvature="0" /><path
         d="m 496.055,2436.96 283.461,-7.08"
         style="fill:none;stroke:#000000;stroke-width:28.34600067;stroke-linecap:butt;stroke-linejoin:miter;stroke-miterlimit:10;stroke-dasharray:none;stroke-opacity:1"
         id="path3656"
         inkscape:connector-curvature="0" /><path
         d="m 524.402,2706.25 271.391,-20.53"
         style="fill:none;stroke:#000000;stroke-width:28.34600067;stroke-linecap:butt;stroke-linejoin:miter;stroke-miterlimit:10;stroke-dasharray:none;stroke-opacity:1"
         id="path3658"
         inkscape:connector-curvature="0" /><path
         d="m 469.898,2507.83 0,5.68 c -13.496,0 -14.668,0.4 -14.668,10.53 l 0,81.17 -1.394,1.18 -30.836,-4.84 0,-4.84 7.297,-0.96 c 5.023,-0.8 6.16,-1.76 6.16,-8.76 l 0,-43.6 c 0,-5.42 -0.586,-9.68 -1.539,-11.62 -4.438,-8.95 -13.641,-14.56 -23.648,-14.56 -11.149,0 -19.399,6.97 -19.399,22.11 l 0,65.89 -1.394,1.18 -31.055,-4.84 0,-4.84 7.406,-0.99 c 5.098,-0.77 6.27,-1.76 6.27,-8.84 l 0,-51.92 c 0,-22.58 13.422,-29.48 28.011,-29.48 16.317,0 29.59,12.25 35.164,15.22 l 1.981,-12.87 31.644,0"
         style="fill:#000000;fill-opacity:1;fill-rule:nonzero;stroke:none"
         id="path3660"
         inkscape:connector-curvature="0" /><path
         d="M 496.688,2242.29 509.598,293.098"
         style="fill:none;stroke:#000000;stroke-width:28.34600067;stroke-linecap:butt;stroke-linejoin:miter;stroke-miterlimit:10;stroke-dasharray:56.692;stroke-dashoffset:0;stroke-opacity:1"
         id="path3662"
         inkscape:connector-curvature="0" /><path
         d="m 496.266,2306.06 43.082,-84.76 -42.66,20.99 -42.379,-21.55"
         style="fill:#000000;fill-opacity:1;fill-rule:evenodd;stroke:none"
         id="path3664"
         inkscape:connector-curvature="0" /><path
         d="m 496.266,2306.06 43.082,-84.76 -42.66,20.99 -42.379,-21.55 41.957,85.32 z"
         style="fill:none;stroke:#000000;stroke-width:28.34600067;stroke-linecap:butt;stroke-linejoin:miter;stroke-miterlimit:10;stroke-dasharray:none;stroke-opacity:1"
         id="path3666"
         inkscape:connector-curvature="0" /><path
         d="m 510.02,229.32 -43.082,84.754 42.66,-20.976 42.375,21.539"
         style="fill:#000000;fill-opacity:1;fill-rule:evenodd;stroke:none"
         id="path3668"
         inkscape:connector-curvature="0" /><path
         d="m 510.02,229.32 -43.082,84.754 42.66,-20.976 42.375,21.539 -41.953,-85.317 z"
         style="fill:none;stroke:#000000;stroke-width:28.34600067;stroke-linecap:butt;stroke-linejoin:miter;stroke-miterlimit:10;stroke-dasharray:none;stroke-opacity:1"
         id="path3670"
         inkscape:connector-curvature="0" /><path
         d="m 334.172,1215.74 7.992,7.59 c 6.676,-3.89 14.668,-7.59 28.969,-7.59 25.957,0 48.617,12.39 48.617,51.96 0,12.02 -2.566,48.94 -37.984,48.94 -14.336,0 -25.446,-10.37 -32.414,-15.03 l 0,60.79 -1.395,1.18 -31.055,-4.88 0,-4.91 7.407,-0.77 c 5.097,-0.59 6.269,-1.58 6.269,-9.02 l 0,-126.69 3.594,-1.57 m 15.18,64.57 c 0,4.84 0.367,7.96 1.871,11.03 4.507,9.32 12.429,13.57 22.953,13.57 7.773,0 24.457,-4.66 24.457,-38.35 0,-28.49 -8.508,-44 -27.281,-44 -10.047,0 -17.454,5.24 -20.864,14.92 -1.136,3.48 -1.136,7.56 -1.136,12.21 l 0,30.62"
         style="fill:#000000;fill-opacity:1;fill-rule:nonzero;stroke:none"
         id="path3672"
         inkscape:connector-curvature="0" /><path
         d="m 1613.04,1786.2 2.08,-330.92"
         style="fill:none;stroke:#000000;stroke-width:28.34600067;stroke-linecap:butt;stroke-linejoin:miter;stroke-miterlimit:10;stroke-dasharray:none;stroke-opacity:1"
         id="path3674"
         inkscape:connector-curvature="0" /><path
         d="m 1615.52,1391.5 -43.05,84.77 42.65,-20.99 42.39,21.53"
         style="fill:#000000;fill-opacity:1;fill-rule:evenodd;stroke:none"
         id="path3676"
         inkscape:connector-curvature="0" /><path
         d="m 1615.52,1391.5 -43.05,84.77 42.65,-20.99 42.39,21.53 -41.99,-85.31 z"
         style="fill:none;stroke:#000000;stroke-width:28.34600067;stroke-linecap:butt;stroke-linejoin:miter;stroke-miterlimit:10;stroke-dasharray:none;stroke-opacity:1"
         id="path3678"
         inkscape:connector-curvature="0" /><path
         d="m 1780.57,1388.16 0,5.68 -6.86,0.99 c -2.27,0.37 -2.09,2.53 -1.06,4.66 3.89,8.4 9.49,17.78 15.44,27.94 l 0.4,0 16.17,-27.13 c 1.98,-3.34 1.46,-5.1 -1.14,-5.47 l -7.26,-0.99 0,-5.68 45.58,0 0,5.68 c -8.73,0 -12.03,0.59 -16.87,7.7 -8.95,13.09 -18.04,26.92 -26.58,40.78 6.45,9.93 14.08,19.87 21.74,29.22 5.06,6.34 7.63,7.15 17.01,7.15 l 0,5.68 -35.19,0 0,-5.68 6.67,-0.77 c 2.75,-0.4 2.34,-2.38 0.99,-4.51 -4.44,-7.48 -9.68,-15.7 -15.47,-24.71 l -0.23,0 -16.24,24.49 c -1.54,2.35 -1.13,4.51 1.72,4.91 l 5.8,0.59 0,5.68 -41.91,0 0,-5.68 c 8.03,0 10.04,-0.4 14.85,-6.97 8.43,-11.51 17.08,-24.42 25.7,-37.14 -7.19,-10.74 -14.74,-22.07 -22.69,-32.78 -5.07,-6.97 -9.32,-7.96 -17.86,-7.96 l 0,-5.68 37.29,0"
         style="fill:#000000;fill-opacity:1;fill-rule:nonzero;stroke:none"
         id="path3680"
         inkscape:connector-curvature="0" /></g></g></svg>