<?xml version="1.0" encoding="UTF-8" standalone="no"?>
<!DOCTYPE svg PUBLIC "-//W3C//DTD SVG 1.0//EN" "http://www.w3.org/TR/2001/PR-SVG-20010719/DTD/svg10.dtd">
<svg width="26cm" height="11cm" viewBox="51 -31 506 201" xmlns="http://www.w3.org/2000/svg" xmlns:xlink="http://www.w3.org/1999/xlink">
  <g>
    <ellipse style="fill: #e6e6fa" cx="198.752" cy="54.5559" rx="6.5" ry="48.5"/>
    <ellipse style="fill: none; fill-opacity:0; stroke-width: 2; stroke: #000000" cx="198.752" cy="54.5559" rx="6.5" ry="48.5"/>
  </g>
  <g>
    <rect style="fill: #ffff00" x="53" y="104" width="70" height="26"/>
    <rect style="fill: none; fill-opacity:0; stroke-width: 2; stroke: #000000" x="53" y="104" width="70" height="26"/>
  </g>
  <g>
    <line style="fill: none; fill-opacity:0; stroke-width: 2; stroke: #ff0000" x1="123" y1="117" x2="496.028" y2="118.482"/>
    <polyline style="fill: none; fill-opacity:0; stroke-width: 2; stroke: #ff0000" points="494.256,120.475 498.264,118.491 494.272,116.475 "/>
  </g>
  <g>
    <ellipse style="fill: #00ff00" cx="528.5" cy="119.556" rx="27.5" ry="47.5"/>
    <ellipse style="fill: none; fill-opacity:0; stroke-width: 2; stroke: #000000" cx="528.5" cy="119.556" rx="27.5" ry="47.5"/>
  </g>
  <g>
    <line style="fill: none; fill-opacity:0; stroke-width: 2; stroke-dasharray: 4; stroke: #000000" x1="172.252" y1="61.7921" x2="172.252" y2="106.32"/>
    <polygon style="fill: #000000" points="172.252,57.2921 175.252,63.2921 172.252,61.7921 169.252,63.2921 "/>
    <polygon style="fill: none; fill-opacity:0; stroke-width: 2; stroke: #000000" points="172.252,57.2921 175.252,63.2921 172.252,61.7921 169.252,63.2921 "/>
    <polygon style="fill: #000000" points="172.252,110.82 169.252,104.82 172.252,106.32 175.252,104.82 "/>
    <polygon style="fill: none; fill-opacity:0; stroke-width: 2; stroke: #000000" points="172.252,110.82 169.252,104.82 172.252,106.32 175.252,104.82 "/>
  </g>
  <text font-size="14.1111" style="fill: #000000;text-anchor:start;font-family:Utopia;font-style:normal;font-weight:normal" x="158.252" y="89.056">
    <tspan x="158.252" y="89.056">L</tspan>
  </text>
  <g>
    <line style="fill: none; fill-opacity:0; stroke-width: 2; stroke-dasharray: 4; stroke: #000000" x1="205.488" y1="147.617" x2="492.084" y2="150.213"/>
    <polygon style="fill: #000000" points="200.988,147.576 207.015,144.631 205.488,147.617 206.961,150.63 "/>
    <polygon style="fill: none; fill-opacity:0; stroke-width: 2; stroke: #000000" points="200.988,147.576 207.015,144.631 205.488,147.617 206.961,150.63 "/>
    <polygon style="fill: #000000" points="496.584,150.254 490.557,153.199 492.084,150.213 490.611,147.2 "/>
    <polygon style="fill: none; fill-opacity:0; stroke-width: 2; stroke: #000000" points="496.584,150.254 490.557,153.199 492.084,150.213 490.611,147.2 "/>
  </g>
  <line style="fill: none; fill-opacity:0; stroke-width: 2; stroke: #000000" x1="199.252" y1="134.056" x2="198.252" y2="161.056"/>
  <g>
    <polyline style="fill: none; fill-opacity:0; stroke-width: 2; stroke-dasharray: 4; stroke: #ff0000" points="156.601,30.5994 500.252,113.056 "/>
    <polyline style="fill: none; fill-opacity:0; stroke-width: 2; stroke: #ff0000" points="160.961,28.5604 154.426,30.0777 159.561,34.3948 "/>
  </g>
  <line style="fill: none; fill-opacity:0; stroke-width: 2; stroke: #000000" x1="498.388" y1="136.492" x2="499.252" y2="164.056"/>
  <text font-size="14.1111" style="fill: #000000;text-anchor:start;font-family:Utopia;font-style:normal;font-weight:normal" x="377.252" y="167.056">
    <tspan x="377.252" y="167.056">D</tspan>
  </text>
  <text font-size="14.1111" style="fill: #000000;text-anchor:start;font-family:Utopia;font-style:normal;font-weight:normal" x="509.252" y="121.056">
    <tspan x="509.252" y="121.056">Target</tspan>
  </text>
  <text font-size="14.1111" style="fill: #000000;text-anchor:start;font-family:Utopia;font-style:normal;font-weight:normal" x="72.252" y="121.056">
    <tspan x="72.252" y="121.056">Laser</tspan>
  </text>
  <g>
    <rect style="fill: #ffc0cb" x="140.252" y="4.05594" width="12" height="51"/>
    <rect style="fill: none; fill-opacity:0; stroke-width: 2; stroke: #000000" x="140.252" y="4.05594" width="12" height="51"/>
  </g>
  <line style="fill: none; fill-opacity:0; stroke-width: 2; stroke: #000000" x1="128.252" y1="56.056" x2="171.252" y2="55.056"/>
  <line style="fill: none; fill-opacity:0; stroke-width: 2; stroke: #000000" x1="127.252" y1="30.056" x2="140.252" y2="29.556"/>
  <g>
    <line style="fill: none; fill-opacity:0; stroke-width: 2; stroke-dasharray: 4; stroke: #000000" x1="119.532" y1="36.7862" x2="119.972" y2="47.3258"/>
    <polygon style="fill: #000000" points="119.345,32.2901 122.592,38.16 119.532,36.7862 116.597,38.4098 "/>
    <polygon style="fill: none; fill-opacity:0; stroke-width: 2; stroke: #000000" points="119.345,32.2901 122.592,38.16 119.532,36.7862 116.597,38.4098 "/>
    <polygon style="fill: #000000" points="120.159,51.8219 116.912,45.952 119.972,47.3258 122.907,45.7022 "/>
    <polygon style="fill: none; fill-opacity:0; stroke-width: 2; stroke: #000000" points="120.159,51.8219 116.912,45.952 119.972,47.3258 122.907,45.7022 "/>
  </g>
  <text font-size="14.1111" style="fill: #000000;text-anchor:start;font-family:Utopia;font-style:normal;font-weight:normal" x="107.252" y="46.056">
    <tspan x="107.252" y="46.056">x</tspan>
  </text>
  <g>
    <line style="fill: none; fill-opacity:0; stroke-width: 2; stroke-dasharray: 4; stroke: #000000" x1="162.988" y1="-3.94406" x2="193.516" y2="-3.94406"/>
    <polygon style="fill: #000000" points="158.488,-3.94406 164.488,-6.94406 162.988,-3.94406 164.488,-0.94406 "/>
    <polygon style="fill: none; fill-opacity:0; stroke-width: 2; stroke: #000000" points="158.488,-3.94406 164.488,-6.94406 162.988,-3.94406 164.488,-0.94406 "/>
    <polygon style="fill: #000000" points="198.016,-3.94406 192.016,-0.94406 193.516,-3.94406 192.016,-6.94406 "/>
    <polygon style="fill: none; fill-opacity:0; stroke-width: 2; stroke: #000000" points="198.016,-3.94406 192.016,-0.94406 193.516,-3.94406 192.016,-6.94406 "/>
  </g>
  <text font-size="14.1111" style="fill: #000000;text-anchor:start;font-family:Utopia;font-style:normal;font-weight:normal" x="176.252" y="-16.9441">
    <tspan x="176.252" y="-16.9441">f</tspan>
  </text>
  <text font-size="19.7556" style="fill: #000000;text-anchor:start;font-family:Utopia;font-style:normal;font-weight:normal" x="327.252" y="45.056">
    <tspan x="327.252" y="45.056">D/L = f/x</tspan>
  </text>
  <text font-size="14.1111" style="fill: #000000;text-anchor:start;font-family:Utopia;font-style:normal;font-weight:normal" x="214.252" y="79.056">
    <tspan x="214.252" y="79.056">Lens</tspan>
  </text>
  <text font-size="14.1111" style="fill: #000000;text-anchor:start;font-family:Utopia;font-style:normal;font-weight:normal" x="85.252" y="10.0559">
    <tspan x="85.252" y="10.0559">Camera</tspan>
  </text>
</svg>
