<?xml version="1.0" encoding="UTF-8" standalone="no"?>
<!DOCTYPE svg PUBLIC "-//W3C//DTD SVG 1.0//EN" "http://www.w3.org/TR/2001/PR-SVG-20010719/DTD/svg10.dtd">
<svg width="25cm" height="22cm" viewBox="76 52 492 430" xmlns="http://www.w3.org/2000/svg" xmlns:xlink="http://www.w3.org/1999/xlink">
  <g>
    <line style="fill: none; fill-opacity:0; stroke-width: 2; stroke-dasharray: 4; stroke: #000000" x1="148.736" y1="91" x2="249.264" y2="91"/>
    <polygon style="fill: #000000" points="144.236,91 150.236,88 148.736,91 150.236,94 "/>
    <polygon style="fill: none; fill-opacity:0; stroke-width: 2; stroke: #000000" points="144.236,91 150.236,88 148.736,91 150.236,94 "/>
    <polygon style="fill: #000000" points="253.764,91 247.764,94 249.264,91 247.764,88 "/>
    <polygon style="fill: none; fill-opacity:0; stroke-width: 2; stroke: #000000" points="253.764,91 247.764,94 249.264,91 247.764,88 "/>
  </g>
  <g>
    <line style="fill: none; fill-opacity:0; stroke-width: 2; stroke: #000000" x1="84.7361" y1="400.986" x2="545.264" y2="400.014"/>
    <polygon style="fill: #000000" points="80.2361,400.995 86.2297,397.983 84.7361,400.986 86.2424,403.983 "/>
    <polygon style="fill: none; fill-opacity:0; stroke-width: 2; stroke: #000000" points="80.2361,400.995 86.2297,397.983 84.7361,400.986 86.2424,403.983 "/>
    <polygon style="fill: #000000" points="549.764,400.005 543.77,403.017 545.264,400.014 543.758,397.017 "/>
    <polygon style="fill: none; fill-opacity:0; stroke-width: 2; stroke: #000000" points="549.764,400.005 543.77,403.017 545.264,400.014 543.758,397.017 "/>
  </g>
  <line style="fill: none; fill-opacity:0; stroke-width: 6; stroke: #00ff00" x1="426.7" y1="464" x2="533" y2="464"/>
  <g>
    <line style="fill: none; fill-opacity:0; stroke-width: 2; stroke: #0000ff" x1="142" y1="480" x2="142" y2="70.7361"/>
    <polygon style="fill: #0000ff" points="142,63.2361 147,73.2361 142,70.7361 137,73.2361 "/>
    <polygon style="fill: none; fill-opacity:0; stroke-width: 2; stroke: #0000ff" points="142,63.2361 147,73.2361 142,70.7361 137,73.2361 "/>
  </g>
  <g>
    <line style="fill: none; fill-opacity:0; stroke-width: 2; stroke: #0000ff" x1="479.7" y1="481" x2="479.016" y2="70.7361"/>
    <polygon style="fill: #0000ff" points="479.004,63.2361 484.02,73.2277 479.016,70.7361 474.02,73.2444 "/>
    <polygon style="fill: none; fill-opacity:0; stroke-width: 2; stroke: #0000ff" points="479.004,63.2361 484.02,73.2277 479.016,70.7361 474.02,73.2444 "/>
  </g>
  <text font-size="14.1111" style="fill: #000000;text-anchor:start;font-family:sans-serif;font-style:normal;font-weight:normal" x="153" y="66">
    <tspan x="153" y="66">z</tspan>
  </text>
  <g>
    <line style="fill: none; fill-opacity:0; stroke-width: 2; stroke-dasharray: 4; stroke: #000000" x1="151.736" y1="418.02" x2="471.264" y2="418.98"/>
    <polygon style="fill: #000000" points="147.236,418.007 153.245,415.025 151.736,418.02 153.227,421.025 "/>
    <polygon style="fill: none; fill-opacity:0; stroke-width: 2; stroke: #000000" points="147.236,418.007 153.245,415.025 151.736,418.02 153.227,421.025 "/>
    <polygon style="fill: #000000" points="475.764,418.993 469.755,421.975 471.264,418.98 469.773,415.975 "/>
    <polygon style="fill: none; fill-opacity:0; stroke-width: 2; stroke: #000000" points="475.764,418.993 469.755,421.975 471.264,418.98 469.773,415.975 "/>
  </g>
  <text font-size="14.1111" style="fill: #000000;text-anchor:start;font-family:sans-serif;font-style:normal;font-weight:normal" x="272" y="432">
    <tspan x="272" y="432">b</tspan>
  </text>
  <g>
    <line style="fill: none; fill-opacity:0; stroke-width: 2; stroke: #ff0000" x1="260" y1="86" x2="517.998" y2="454.71"/>
    <polygon style="fill: #ff0000" points="519.718,457.168 515.786,455.037 517.998,454.71 519.063,452.744 "/>
    <polygon style="fill: none; fill-opacity:0; stroke-width: 2; stroke: #ff0000" points="519.718,457.168 515.786,455.037 517.998,454.71 519.063,452.744 "/>
  </g>
  <line style="fill: none; fill-opacity:0; stroke-width: 6; stroke: #00ff00" x1="87.7" y1="463" x2="194" y2="463"/>
  <g>
    <line style="fill: none; fill-opacity:0; stroke-width: 2; stroke: #ff0000" x1="265" y1="85" x2="120.9" y2="455.121"/>
    <path style="fill: #ff0000" d="M 265 85 C 267.33,85.907 268.752,89.1437 267.845,91.4734 C 266.938,93.803 263.702,95.2257 261.372,94.3186 C 259.042,93.4116 257.62,90.175 258.527,87.8453 C 259.434,85.5156 262.67,84.093 265,85z"/>
    <path style="fill: none; fill-opacity:0; stroke-width: 2; stroke: #ff0000" d="M 265 85 C 267.33,85.907 268.752,89.1437 267.845,91.4734 C 266.938,93.803 263.702,95.2257 261.372,94.3186 C 259.042,93.4116 257.62,90.175 258.527,87.8453 C 259.434,85.5156 262.67,84.093 265,85"/>
    <polygon style="fill: #ff0000" points="119.811,457.916 119.399,453.463 120.9,455.121 123.126,454.914 "/>
    <polygon style="fill: none; fill-opacity:0; stroke-width: 2; stroke: #ff0000" points="119.811,457.916 119.399,453.463 120.9,455.121 123.126,454.914 "/>
  </g>
  <text font-size="14.1111" style="fill: #000000;text-anchor:start;font-family:sans-serif;font-style:normal;font-weight:normal" x="258" y="80">
    <tspan x="258" y="80">w</tspan>
  </text>
  <g>
    <line style="fill: none; fill-opacity:0; stroke-width: 2; stroke-dasharray: 4; stroke: #000000" x1="93" y1="409.736" x2="93" y2="453.264"/>
    <polygon style="fill: #000000" points="93,405.236 96,411.236 93,409.736 90,411.236 "/>
    <polygon style="fill: none; fill-opacity:0; stroke-width: 2; stroke: #000000" points="93,405.236 96,411.236 93,409.736 90,411.236 "/>
    <polygon style="fill: #000000" points="93,457.764 90,451.764 93,453.264 96,451.764 "/>
    <polygon style="fill: none; fill-opacity:0; stroke-width: 2; stroke: #000000" points="93,457.764 90,451.764 93,453.264 96,451.764 "/>
  </g>
  <text font-size="14.1111" style="fill: #000000;text-anchor:start;font-family:sans-serif;font-style:normal;font-weight:normal" x="81" y="433">
    <tspan x="81" y="433">f</tspan>
  </text>
  <text font-size="14.1111" style="fill: #000000;text-anchor:start;font-family:sans-serif;font-style:normal;font-weight:normal" x="123" y="477">
    <tspan x="123" y="477">v1</tspan>
  </text>
  <text font-size="14.1111" style="fill: #000000;text-anchor:start;font-family:sans-serif;font-style:normal;font-weight:normal" x="492" y="478">
    <tspan x="492" y="478">v2</tspan>
  </text>
  <g>
    <line style="fill: none; fill-opacity:0; stroke-width: 2; stroke-dasharray: 4; stroke: #000000" x1="481" y1="458" x2="509.766" y2="457.154"/>
    <polygon style="fill: #000000" points="512.765,457.066 508.825,459.182 509.766,457.154 508.708,455.184 "/>
    <polygon style="fill: none; fill-opacity:0; stroke-width: 2; stroke: #000000" points="512.765,457.066 508.825,459.182 509.766,457.154 508.708,455.184 "/>
  </g>
  <g>
    <line style="fill: none; fill-opacity:0; stroke-width: 2; stroke-dasharray: 4; stroke: #000000" x1="141" y1="455" x2="130.226" y2="454.327"/>
    <polygon style="fill: #000000" points="127.232,454.139 131.349,452.393 130.226,454.327 131.099,456.385 "/>
    <polygon style="fill: none; fill-opacity:0; stroke-width: 2; stroke: #000000" points="127.232,454.139 131.349,452.393 130.226,454.327 131.099,456.385 "/>
  </g>
  <g>
    <line style="fill: none; fill-opacity:0; stroke-width: 2; stroke-dasharray: 4; stroke: #000000" x1="528.7" y1="408.736" x2="528.7" y2="452.264"/>
    <polygon style="fill: #000000" points="528.7,404.236 531.7,410.236 528.7,408.736 525.7,410.236 "/>
    <polygon style="fill: none; fill-opacity:0; stroke-width: 2; stroke: #000000" points="528.7,404.236 531.7,410.236 528.7,408.736 525.7,410.236 "/>
    <polygon style="fill: #000000" points="528.7,456.764 525.7,450.764 528.7,452.264 531.7,450.764 "/>
    <polygon style="fill: none; fill-opacity:0; stroke-width: 2; stroke: #000000" points="528.7,456.764 525.7,450.764 528.7,452.264 531.7,450.764 "/>
  </g>
  <text font-size="14.1111" style="fill: #000000;text-anchor:start;font-family:sans-serif;font-style:normal;font-weight:normal" x="536" y="432">
    <tspan x="536" y="432">f</tspan>
  </text>
  <text font-size="14.1111" style="fill: #000000;text-anchor:start;font-family:sans-serif;font-style:normal;font-weight:normal" x="560" y="401">
    <tspan x="560" y="401">x</tspan>
  </text>
  <text font-size="14.1111" style="fill: #000000;text-anchor:start;font-family:sans-serif;font-style:normal;font-weight:normal" x="196" y="83">
    <tspan x="196" y="83">x</tspan>
  </text>
  <g>
    <line style="fill: none; fill-opacity:0; stroke-width: 2; stroke-dasharray: 4; stroke: #000000" x1="281.736" y1="90.0034" x2="468.964" y2="90.0966"/>
    <polygon style="fill: #000000" points="277.236,90.0011 283.238,87.0041 281.736,90.0034 283.235,93.0041 "/>
    <polygon style="fill: none; fill-opacity:0; stroke-width: 2; stroke: #000000" points="277.236,90.0011 283.238,87.0041 281.736,90.0034 283.235,93.0041 "/>
    <polygon style="fill: #000000" points="473.464,90.0989 467.462,93.0959 468.964,90.0966 467.465,87.0959 "/>
    <polygon style="fill: none; fill-opacity:0; stroke-width: 2; stroke: #000000" points="473.464,90.0989 467.462,93.0959 468.964,90.0966 467.465,87.0959 "/>
  </g>
  <text font-size="14.1111" style="fill: #000000;text-anchor:start;font-family:sans-serif;font-style:normal;font-weight:normal" x="357.7" y="84.1">
    <tspan x="357.7" y="84.1">b - x</tspan>
  </text>
  <g>
    <line style="fill: none; fill-opacity:0; stroke-width: 2; stroke-dasharray: 4; stroke: #000000" x1="119" y1="97.7361" x2="119" y2="390.264"/>
    <polygon style="fill: #000000" points="119,93.2361 122,99.2361 119,97.7361 116,99.2361 "/>
    <polygon style="fill: none; fill-opacity:0; stroke-width: 2; stroke: #000000" points="119,93.2361 122,99.2361 119,97.7361 116,99.2361 "/>
    <polygon style="fill: #000000" points="119,394.764 116,388.764 119,390.264 122,388.764 "/>
    <polygon style="fill: none; fill-opacity:0; stroke-width: 2; stroke: #000000" points="119,394.764 116,388.764 119,390.264 122,388.764 "/>
  </g>
  <text font-size="14.1111" style="fill: #000000;text-anchor:start;font-family:sans-serif;font-style:normal;font-weight:normal" x="103.7" y="243.1">
    <tspan x="103.7" y="243.1">z</tspan>
  </text>
</svg>
