<?xml version="1.0" encoding="UTF-8" standalone="no"?>
<!DOCTYPE svg PUBLIC "-//W3C//DTD SVG 1.0//EN" "http://www.w3.org/TR/2001/PR-SVG-20010719/DTD/svg10.dtd">
<svg width="37cm" height="17cm" viewBox="1169 97 722 327" xmlns="http://www.w3.org/2000/svg" xmlns:xlink="http://www.w3.org/1999/xlink">
  <g>
    <ellipse style="fill: #ffff00" cx="1748.02" cy="364.458" rx="51.5" ry="51.5"/>
    <ellipse style="fill: none; fill-opacity:0; stroke-width: 2; stroke: #000000" cx="1748.02" cy="364.458" rx="51.5" ry="51.5"/>
  </g>
  <g>
    <path style="fill: #ff0000" d="M 1613.08 98.4574 C 1699.08,98.4574 1715.36,94.2574 1736.36,129.257 C 1757.36,164.257 1707.36,199.257 1701.36,253.258 C 1695.36,307.258 1706.36,322.258 1726.36,368.258 C 1746.36,414.258 1706.08,386.458 1619.08,387.458 C 1532.08,388.458 1656.08,285.458 1656.08,235.458 C 1656.08,185.457 1527.08,98.4574 1613.08,98.4574z"/>
    <path style="fill: none; fill-opacity:0; stroke-width: 2; stroke: #000000" d="M 1613.08 98.4574 C 1699.08,98.4574 1715.36,94.2574 1736.36,129.257 C 1757.36,164.257 1707.36,199.257 1701.36,253.258 C 1695.36,307.258 1706.36,322.258 1726.36,368.258 C 1746.36,414.258 1706.08,386.458 1619.08,387.458 C 1532.08,388.458 1656.08,285.458 1656.08,235.458 C 1656.08,185.457 1527.08,98.4574 1613.08,98.4574"/>
  </g>
  <text font-size="16.9333" style="fill: #000000;text-anchor:start;font-family:Utopia;font-style:normal;font-weight:normal" x="1852.9" y="225.958">
    <tspan x="1852.9" y="225.958">Goal</tspan>
  </text>
  <g>
    <line style="fill: none; fill-opacity:0; stroke-width: 2; stroke: #000000" x1="1737.36" y1="356.258" x2="1853.25" y2="236.566"/>
    <path style="fill: #000000" d="M 1737.36 356.258 C 1735.56,354.519 1735.5,350.984 1737.24,349.188 C 1738.98,347.392 1742.52,347.335 1744.31,349.074 C 1746.11,350.813 1746.17,354.348 1744.43,356.144 C 1742.69,357.94 1739.15,357.997 1737.36,356.258z"/>
    <path style="fill: none; fill-opacity:0; stroke-width: 2; stroke: #000000" d="M 1737.36 356.258 C 1735.56,354.519 1735.5,350.984 1737.24,349.188 C 1738.98,347.392 1742.52,347.335 1744.31,349.074 C 1746.11,350.813 1746.17,354.348 1744.43,356.144 C 1742.69,357.94 1739.15,357.997 1737.36,356.258"/>
    <path style="fill: #000000" d="M 1853.25 236.566 C 1855.04,238.305 1855.1,241.84 1853.36,243.636 C 1851.62,245.432 1848.09,245.489 1846.29,243.75 C 1844.49,242.011 1844.44,238.476 1846.18,236.68 C 1847.91,234.884 1851.45,234.827 1853.25,236.566z"/>
    <path style="fill: none; fill-opacity:0; stroke-width: 2; stroke: #000000" d="M 1853.25 236.566 C 1855.04,238.305 1855.1,241.84 1853.36,243.636 C 1851.62,245.432 1848.09,245.489 1846.29,243.75 C 1844.49,242.011 1844.44,238.476 1846.18,236.68 C 1847.91,234.884 1851.45,234.827 1853.25,236.566"/>
  </g>
  <text font-size="16.9333" style="fill: #000000;text-anchor:start;font-family:Utopia;font-style:normal;font-weight:normal" x="1811.65" y="299.066">
    <tspan x="1811.65" y="299.066">d</tspan>
  </text>
  <text font-size="14.1111" style="fill: #000000;text-anchor:start;font-family:Utopia;font-style:normal;font-weight:normal" x="1822.65" y="307.066">
    <tspan x="1822.65" y="307.066">reach</tspan>
  </text>
  <g>
    <polygon style="fill: #00ff00" points="1732.36,388.258 1730.36,374.258 1727.36,364.258 1719.36,350.258 1712.36,329.258 1746.36,362.258 "/>
    <polygon style="fill: none; fill-opacity:0; stroke-width: 2; stroke: #00ff00" points="1732.36,388.258 1730.36,374.258 1727.36,364.258 1719.36,350.258 1712.36,329.258 1746.36,362.258 "/>
  </g>
  <text font-size="19.7556" style="fill: #000000;text-anchor:start;font-family:SymbolPi;font-style:normal;font-weight:normal" x="1730.36" y="374.258">
    <tspan x="1730.36" y="374.258">L</tspan>
  </text>
  <g>
    <line style="fill: none; fill-opacity:0; stroke-width: 2; stroke: #000000" x1="1705.92" y1="328" x2="1852.75" y2="240.292"/>
    <path style="fill: #000000" d="M 1705.92 328 C 1704.64,325.854 1705.5,322.425 1707.65,321.143 C 1709.8,319.861 1713.22,320.726 1714.51,322.872 C 1715.79,325.018 1714.92,328.446 1712.78,329.728 C 1710.63,331.01 1707.2,330.146 1705.92,328z"/>
    <path style="fill: none; fill-opacity:0; stroke-width: 2; stroke: #000000" d="M 1705.92 328 C 1704.64,325.854 1705.5,322.425 1707.65,321.143 C 1709.8,319.861 1713.22,320.726 1714.51,322.872 C 1715.79,325.018 1714.92,328.446 1712.78,329.728 C 1710.63,331.01 1707.2,330.146 1705.92,328"/>
    <path style="fill: #000000" d="M 1852.75 240.292 C 1854.03,242.438 1853.17,245.867 1851.02,247.149 C 1848.88,248.431 1845.45,247.566 1844.17,245.42 C 1842.88,243.274 1843.75,239.846 1845.89,238.564 C 1848.04,237.282 1851.47,238.146 1852.75,240.292z"/>
    <path style="fill: none; fill-opacity:0; stroke-width: 2; stroke: #000000" d="M 1852.75 240.292 C 1854.03,242.438 1853.17,245.867 1851.02,247.149 C 1848.88,248.431 1845.45,247.566 1844.17,245.42 C 1842.88,243.274 1843.75,239.846 1845.89,238.564 C 1848.04,237.282 1851.47,238.146 1852.75,240.292"/>
  </g>
  <text font-size="16.9333" style="fill: #000000;text-anchor:start;font-family:Utopia;font-style:normal;font-weight:normal" x="1729.5" y="261.4">
    <tspan x="1729.5" y="261.4">d</tspan>
  </text>
  <text font-size="14.1111" style="fill: #000000;text-anchor:start;font-family:Utopia;font-style:normal;font-weight:normal" x="1740.5" y="269.4">
    <tspan x="1740.5" y="269.4">followed</tspan>
  </text>
  <g>
    <ellipse style="fill: #ffff00" cx="1339.02" cy="273.3" rx="51.5" ry="51.5"/>
    <ellipse style="fill: none; fill-opacity:0; stroke-width: 2; stroke: #000000" cx="1339.02" cy="273.3" rx="51.5" ry="51.5"/>
  </g>
  <g>
    <path style="fill: #ff0000" d="M 1200.08 98.3 C 1286.08,98.3 1332.08,179.3 1330.08,235.3 C 1328.08,291.3 1293.08,386.3 1206.08,387.3 C 1119.08,388.3 1243.08,285.3 1243.08,235.3 C 1243.08,185.3 1114.08,98.3 1200.08,98.3z"/>
    <path style="fill: none; fill-opacity:0; stroke-width: 2; stroke: #000000" d="M 1200.08 98.3 C 1286.08,98.3 1332.08,179.3 1330.08,235.3 C 1328.08,291.3 1293.08,386.3 1206.08,387.3 C 1119.08,388.3 1243.08,285.3 1243.08,235.3 C 1243.08,185.3 1114.08,98.3 1200.08,98.3"/>
  </g>
  <text font-size="16.9333" style="fill: #000000;text-anchor:start;font-family:Utopia;font-style:normal;font-weight:normal" x="1439.9" y="225.8">
    <tspan x="1439.9" y="225.8">Goal</tspan>
  </text>
  <text font-size="16.9333" style="fill: #000000;text-anchor:start;font-family:Utopia;font-style:normal;font-weight:normal" x="1342.65" y="214.908">
    <tspan x="1342.65" y="214.908">d</tspan>
  </text>
  <text font-size="14.1111" style="fill: #000000;text-anchor:start;font-family:Utopia;font-style:normal;font-weight:normal" x="1353.65" y="222.908">
    <tspan x="1353.65" y="222.908">followed</tspan>
  </text>
  <text font-size="16.9333" style="fill: #000000;text-anchor:start;font-family:Utopia;font-style:normal;font-weight:normal" x="1401.65" y="259.908">
    <tspan x="1401.65" y="259.908">d</tspan>
  </text>
  <text font-size="14.1111" style="fill: #000000;text-anchor:start;font-family:Utopia;font-style:normal;font-weight:normal" x="1412.65" y="267.908">
    <tspan x="1412.65" y="267.908">reach</tspan>
  </text>
  <g>
    <polygon style="fill: #00ff00" points="1345.92,273 1329.92,225 1329.92,246 1326.92,264 1321.92,290 1309.52,314.3 "/>
    <polygon style="fill: none; fill-opacity:0; stroke-width: 2; stroke: #00ff00" points="1345.92,273 1329.92,225 1329.92,246 1326.92,264 1321.92,290 1309.52,314.3 "/>
  </g>
  <text font-size="19.7556" style="fill: #000000;text-anchor:start;font-family:SymbolPi;font-style:normal;font-weight:normal" x="1331.52" y="277.122">
    <tspan x="1331.52" y="277.122">L</tspan>
  </text>
  <g>
    <line style="fill: none; fill-opacity:0; stroke-width: 2; stroke: #000000" x1="1324.92" y1="235" x2="1441.25" y2="236.408"/>
    <path style="fill: #000000" d="M 1324.92 235 C 1324.95,232.5 1327.48,230.031 1329.98,230.061 C 1332.48,230.091 1334.95,232.621 1334.92,235.121 C 1334.89,237.621 1332.36,240.09 1329.86,240.06 C 1327.36,240.03 1324.89,237.5 1324.92,235z"/>
    <path style="fill: none; fill-opacity:0; stroke-width: 2; stroke: #000000" d="M 1324.92 235 C 1324.95,232.5 1327.48,230.031 1329.98,230.061 C 1332.48,230.091 1334.95,232.621 1334.92,235.121 C 1334.89,237.621 1332.36,240.09 1329.86,240.06 C 1327.36,240.03 1324.89,237.5 1324.92,235"/>
    <path style="fill: #000000" d="M 1441.25 236.408 C 1441.22,238.908 1438.69,241.377 1436.19,241.347 C 1433.69,241.317 1431.22,238.787 1431.25,236.287 C 1431.28,233.787 1433.81,231.318 1436.31,231.348 C 1438.81,231.378 1441.28,233.908 1441.25,236.408z"/>
    <path style="fill: none; fill-opacity:0; stroke-width: 2; stroke: #000000" d="M 1441.25 236.408 C 1441.22,238.908 1438.69,241.377 1436.19,241.347 C 1433.69,241.317 1431.22,238.787 1431.25,236.287 C 1431.28,233.787 1433.81,231.318 1436.31,231.348 C 1438.81,231.378 1441.28,233.908 1441.25,236.408"/>
  </g>
  <g>
    <path style="fill: none; fill-opacity:0; stroke-width: 2; stroke: #7f7f7f" d="M 1395.92,324 A 91.6014,91.6014 0 0 0 1398.93,295.643"/>
    <polygon style="fill: #7f7f7f" points="1398.27,288.209 1404.77,297.306 1399.44,295.617 1394.89,298.866 "/>
    <polygon style="fill: none; fill-opacity:0; stroke-width: 2; stroke: #7f7f7f" points="1398.27,288.209 1404.77,297.306 1399.44,295.617 1394.89,298.866 "/>
  </g>
  <g>
    <line style="fill: none; fill-opacity:0; stroke-width: 2; stroke: #000000" x1="1339.92" y1="265" x2="1438.92" y2="235"/>
    <path style="fill: #000000" d="M 1339.92 265 C 1339.2,262.607 1340.86,259.49 1343.26,258.765 C 1345.65,258.04 1348.77,259.707 1349.49,262.1 C 1350.22,264.492 1348.55,267.61 1346.16,268.335 C 1343.76,269.06 1340.65,267.393 1339.92,265z"/>
    <path style="fill: none; fill-opacity:0; stroke-width: 2; stroke: #000000" d="M 1339.92 265 C 1339.2,262.607 1340.86,259.49 1343.26,258.765 C 1345.65,258.04 1348.77,259.707 1349.49,262.1 C 1350.22,264.492 1348.55,267.61 1346.16,268.335 C 1343.76,269.06 1340.65,267.393 1339.92,265"/>
    <path style="fill: #000000" d="M 1438.92 235 C 1439.65,237.393 1437.98,240.51 1435.59,241.235 C 1433.19,241.96 1430.08,240.293 1429.35,237.9 C 1428.63,235.508 1430.29,232.39 1432.69,231.665 C 1435.08,230.94 1438.2,232.607 1438.92,235z"/>
    <path style="fill: none; fill-opacity:0; stroke-width: 2; stroke: #000000" d="M 1438.92 235 C 1439.65,237.393 1437.98,240.51 1435.59,241.235 C 1433.19,241.96 1430.08,240.293 1429.35,237.9 C 1428.63,235.508 1430.29,232.39 1432.69,231.665 C 1435.08,230.94 1438.2,232.607 1438.92,235"/>
  </g>
  <g>
    <path style="fill: none; fill-opacity:0; stroke-width: 2; stroke: #7f7f7f" d="M 1812.92,423 A 68.9653,68.9653 0 0 0 1811.35,399.56"/>
    <polygon style="fill: #7f7f7f" points="1809.24,392.43 1817.58,399.874 1812.01,399.399 1808.29,403.57 "/>
    <polygon style="fill: none; fill-opacity:0; stroke-width: 2; stroke: #7f7f7f" points="1809.24,392.43 1817.58,399.874 1812.01,399.399 1808.29,403.57 "/>
  </g>
</svg>
