<?xml version="1.0" encoding="UTF-8" standalone="no"?>
<!-- Created with Inkscape (http://www.inkscape.org/) -->

<svg
   version="1.1"
   id="svg414"
   xml:space="preserve"
   width="874.66669"
   height="374.66666"
   viewBox="0 0 874.66669 374.66666"
   sodipodi:docname="forwardkinematics.svg"
   inkscape:version="1.1 (c4e8f9e, 2021-05-24)"
   xmlns:inkscape="http://www.inkscape.org/namespaces/inkscape"
   xmlns:sodipodi="http://sodipodi.sourceforge.net/DTD/sodipodi-0.dtd"
   xmlns="http://www.w3.org/2000/svg"
   xmlns:svg="http://www.w3.org/2000/svg"><defs
     id="defs418" /><sodipodi:namedview
     id="namedview416"
     pagecolor="#ffffff"
     bordercolor="#666666"
     borderopacity="1.0"
     inkscape:pageshadow="2"
     inkscape:pageopacity="0.0"
     inkscape:pagecheckerboard="0"
     showgrid="false"
     inkscape:zoom="1.3102134"
     inkscape:cx="437.33334"
     inkscape:cy="196.53287"
     inkscape:window-width="1359"
     inkscape:window-height="1081"
     inkscape:window-x="0"
     inkscape:window-y="25"
     inkscape:window-maximized="0"
     inkscape:current-layer="g420" /><g
     id="g420"
     inkscape:groupmode="layer"
     inkscape:label="forwardkinematics"
     transform="matrix(1.3333333,0,0,-1.3333333,0,374.66667)"><g
       id="g422"
       transform="scale(0.1)"><path
         d="m 568.176,1310.5 11.66,-886.223"
         style="fill:none;stroke:#000000;stroke-width:28.346;stroke-linecap:butt;stroke-linejoin:miter;stroke-miterlimit:10;stroke-dasharray:none;stroke-opacity:1"
         id="path424" /><path
         d="m 567.336,1374.27 43.637,-84.47 -42.797,20.7 -42.235,-21.82"
         style="fill:#000000;fill-opacity:1;fill-rule:evenodd;stroke:none"
         id="path426" /><path
         d="m 567.336,1374.27 43.637,-84.47 -42.797,20.7 -42.235,-21.82 z"
         style="fill:none;stroke:#000000;stroke-width:28.346;stroke-linecap:butt;stroke-linejoin:miter;stroke-miterlimit:10;stroke-dasharray:none;stroke-opacity:1"
         id="path428" /><path
         d="m 580.676,360.504 -43.633,84.469 42.793,-20.696 42.238,21.817"
         style="fill:#000000;fill-opacity:1;fill-rule:evenodd;stroke:none"
         id="path430" /><path
         d="m 580.676,360.504 -43.633,84.469 42.793,-20.696 42.238,21.817 z"
         style="fill:none;stroke:#000000;stroke-width:28.346;stroke-linecap:butt;stroke-linejoin:miter;stroke-miterlimit:10;stroke-dasharray:none;stroke-opacity:1"
         id="path432" /><path
         d="M 1027.59,1093.94 418.055,414.07"
         style="fill:none;stroke:#000000;stroke-width:28.346;stroke-linecap:butt;stroke-linejoin:miter;stroke-miterlimit:10;stroke-dasharray:none;stroke-opacity:1"
         id="path434" /><path
         d="m 1070.16,1141.43 -25.1,-91.71 -17.47,44.22 -45.852,12.55"
         style="fill:#000000;fill-opacity:1;fill-rule:evenodd;stroke:none"
         id="path436" /><path
         d="m 1070.16,1141.43 -25.1,-91.71 -17.47,44.22 -45.852,12.55 z"
         style="fill:none;stroke:#000000;stroke-width:28.346;stroke-linecap:butt;stroke-linejoin:miter;stroke-miterlimit:10;stroke-dasharray:none;stroke-opacity:1"
         id="path438" /><path
         d="m 375.48,366.582 25.11,91.703 17.465,-44.215 45.851,-12.554"
         style="fill:#000000;fill-opacity:1;fill-rule:evenodd;stroke:none"
         id="path440" /><path
         d="m 375.48,366.582 25.11,91.703 17.465,-44.215 45.851,-12.554 z"
         style="fill:none;stroke:#000000;stroke-width:28.346;stroke-linecap:butt;stroke-linejoin:miter;stroke-miterlimit:10;stroke-dasharray:none;stroke-opacity:1"
         id="path442" /><path
         d="M 1392.7,598.102 H 378.93"
         style="fill:none;stroke:#000000;stroke-width:28.346;stroke-linecap:butt;stroke-linejoin:miter;stroke-miterlimit:10;stroke-dasharray:none;stroke-opacity:1"
         id="path444" /><path
         d="m 1456.47,598.102 -85.03,-42.52 21.26,42.52 -21.26,42.519"
         style="fill:#000000;fill-opacity:1;fill-rule:evenodd;stroke:none"
         id="path446" /><path
         d="m 1456.47,598.102 -85.03,-42.52 21.26,42.52 -21.26,42.519 z"
         style="fill:none;stroke:#000000;stroke-width:28.346;stroke-linecap:butt;stroke-linejoin:miter;stroke-miterlimit:10;stroke-dasharray:none;stroke-opacity:1"
         id="path448" /><path
         d="m 315.152,598.102 85.039,42.519 -21.261,-42.519 21.261,-42.52"
         style="fill:#000000;fill-opacity:1;fill-rule:evenodd;stroke:none"
         id="path450" /><path
         d="m 315.152,598.102 85.039,42.519 -21.261,-42.519 21.261,-42.52 z"
         style="fill:none;stroke:#000000;stroke-width:28.346;stroke-linecap:butt;stroke-linejoin:miter;stroke-miterlimit:10;stroke-dasharray:none;stroke-opacity:1"
         id="path452" /><path
         d="m 1699.64,591.895 c 0,11.488 -2.01,22.085 -6.05,31.789 -4.01,9.73 -9.57,17.941 -16.68,24.64 -7.26,6.871 -15.79,12.246 -25.59,16.133 -9.78,3.887 -20.27,5.832 -31.46,5.832 -11.37,0 -21.95,-1.98 -31.75,-5.941 -9.79,-3.961 -18.06,-9.141 -24.83,-15.547 -7.43,-7.016 -13.16,-15.34 -17.19,-24.969 -4.02,-9.633 -6.02,-20.352 -6.02,-32.156 0,-10.758 1.89,-20.914 5.68,-30.469 3.79,-9.559 9.16,-17.918 16.1,-25.082 6.94,-7.16 15.3,-12.797 25.08,-16.902 9.8,-4.106 20.78,-6.16 32.93,-6.16 12.14,0 23.14,2.089 33,6.269 9.87,4.18 18.28,9.852 25.22,17.012 6.97,7.164 12.3,15.523 15.99,25.082 3.72,9.558 5.57,19.715 5.57,30.469 m -28.16,-1.54 c 0,-10.953 -0.9,-19.761 -2.71,-26.437 -1.79,-6.648 -4.16,-12.711 -7.11,-18.188 -1.86,-3.542 -4.32,-6.757 -7.37,-9.64 -3.04,-2.887 -6.38,-5.328 -10.05,-7.336 -3.64,-1.977 -7.56,-3.531 -11.77,-4.656 -4.2,-1.098 -8.41,-1.649 -12.61,-1.649 -4.67,0 -9.16,0.586 -13.46,1.762 -4.28,1.195 -8.25,2.859 -11.92,4.984 -3.64,2.153 -6.9,4.707 -9.78,7.664 -2.89,2.957 -5.26,6.149 -7.12,9.571 -3.74,7.09 -6.23,14.175 -7.48,21.265 -1.24,7.114 -1.87,14.668 -1.87,22.66 0,10.926 1.05,20.168 3.15,27.719 2.1,7.555 4.25,13.469 6.42,17.746 4.06,7.996 9.78,14.168 17.16,18.516 7.41,4.379 15.78,6.566 25.12,6.566 9.36,0 17.66,-2.226 24.89,-6.675 7.24,-4.422 13.05,-10.778 17.42,-19.067 2.64,-4.887 4.81,-11.254 6.53,-19.101 1.71,-7.825 2.56,-16.391 2.56,-25.704 m -18.07,-19.101 c -0.32,2.664 -0.64,5.816 -0.96,9.457 -0.29,3.644 -0.44,7.336 -0.44,11.074 0,3.766 0.15,7.504 0.44,11.219 0.32,3.715 0.64,6.746 0.96,9.094 l -3.52,0.257 c -2.67,-8.312 -7.83,-12.468 -15.48,-12.468 h -30.03 c -3.13,0 -6.11,0.82 -8.94,2.457 -2.81,1.664 -5,5 -6.56,10.011 l -3.52,-0.257 c 0.31,-2.957 0.63,-6.149 0.95,-9.571 0.32,-3.398 0.48,-6.976 0.48,-10.742 0,-3.738 -0.16,-7.43 -0.48,-11.074 -0.32,-3.641 -0.64,-6.793 -0.95,-9.457 l 3.52,-0.258 c 1.73,5.012 3.97,8.336 6.7,9.973 2.74,1.66 5.91,2.492 9.5,2.492 h 29.33 c 3.28,0 6.29,-0.867 9.02,-2.602 2.74,-1.711 4.89,-5 6.46,-9.863 l 3.52,0.258"
         style="fill:#000000;fill-opacity:1;fill-rule:nonzero;stroke:none"
         id="path454" /><path
         d="m 1270.2,1221.18 c 0,11.48 -2.02,22.08 -6.05,31.78 -4.01,9.74 -9.57,17.95 -16.68,24.65 -7.26,6.87 -15.79,12.24 -25.59,16.13 -9.78,3.89 -20.27,5.83 -31.47,5.83 -11.36,0 -21.95,-1.98 -31.75,-5.94 -9.78,-3.96 -18.05,-9.14 -24.82,-15.55 -7.43,-7.01 -13.16,-15.34 -17.2,-24.97 -4.01,-9.63 -6.01,-20.35 -6.01,-32.15 0,-10.76 1.89,-20.92 5.68,-30.47 3.79,-9.56 9.15,-17.92 16.1,-25.08 6.94,-7.16 15.3,-12.8 25.08,-16.91 9.8,-4.1 20.78,-6.16 32.92,-6.16 12.15,0 23.15,2.09 33,6.27 9.88,4.18 18.29,9.85 25.23,17.02 6.97,7.16 12.3,15.52 15.99,25.08 3.71,9.56 5.57,19.71 5.57,30.47 m -28.16,-1.54 c 0,-10.96 -0.9,-19.76 -2.71,-26.44 -1.79,-6.65 -4.16,-12.71 -7.12,-18.19 -1.85,-3.54 -4.31,-6.76 -7.37,-9.64 -3.03,-2.89 -6.38,-5.33 -10.04,-7.33 -3.64,-1.98 -7.57,-3.54 -11.77,-4.66 -4.21,-1.1 -8.41,-1.65 -12.62,-1.65 -4.66,0 -9.15,0.59 -13.45,1.76 -4.28,1.2 -8.25,2.86 -11.92,4.99 -3.64,2.15 -6.9,4.7 -9.79,7.66 -2.88,2.96 -5.25,6.15 -7.11,9.57 -3.74,7.09 -6.23,14.18 -7.48,21.27 -1.25,7.11 -1.87,14.66 -1.87,22.66 0,10.92 1.05,20.16 3.15,27.72 2.1,7.55 4.24,13.46 6.42,17.74 4.06,8 9.78,14.17 17.16,18.52 7.41,4.38 15.78,6.56 25.11,6.56 9.37,0 17.67,-2.22 24.9,-6.67 7.24,-4.42 13.04,-10.78 17.42,-19.07 2.64,-4.89 4.81,-11.25 6.52,-19.1 1.71,-7.82 2.57,-16.39 2.57,-25.7 m -18.08,-19.1 c -0.31,2.66 -0.63,5.81 -0.95,9.45 -0.29,3.65 -0.44,7.34 -0.44,11.08 0,3.76 0.15,7.5 0.44,11.22 0.32,3.71 0.64,6.74 0.95,9.09 l -3.51,0.26 c -2.67,-8.32 -7.83,-12.47 -15.48,-12.47 h -30.03 c -3.13,0 -6.11,0.82 -8.94,2.46 -2.82,1.66 -5,5 -6.57,10.01 l -3.52,-0.26 c 0.32,-2.96 0.64,-6.15 0.95,-9.57 0.32,-3.4 0.48,-6.98 0.48,-10.74 0,-3.74 -0.16,-7.43 -0.48,-11.08 -0.31,-3.64 -0.63,-6.79 -0.95,-9.45 l 3.52,-0.26 c 1.74,5.01 3.97,8.33 6.71,9.97 2.74,1.66 5.9,2.49 9.5,2.49 h 29.33 c 3.28,0 6.28,-0.86 9.02,-2.6 2.74,-1.71 4.89,-5 6.46,-9.86 l 3.51,0.26"
         style="fill:#000000;fill-opacity:1;fill-rule:nonzero;stroke:none"
         id="path456" /><path
         d="m 656.508,1525.89 c 0,11.49 -2.016,22.09 -6.047,31.8 -4.012,9.72 -9.57,17.94 -16.684,24.63 -7.261,6.88 -15.793,12.25 -25.593,16.14 -9.778,3.88 -20.266,5.83 -31.461,5.83 -11.368,0 -21.95,-1.98 -31.754,-5.94 -9.778,-3.96 -18.051,-9.14 -24.821,-15.55 -7.433,-7.01 -13.164,-15.34 -17.199,-24.97 -4.008,-9.63 -6.011,-20.35 -6.011,-32.15 0,-10.76 1.894,-20.91 5.683,-30.47 3.789,-9.56 9.156,-17.92 16.098,-25.08 6.941,-7.17 15.301,-12.8 25.078,-16.91 9.801,-4.1 20.777,-6.16 32.926,-6.16 12.148,0 23.148,2.09 33,6.27 9.875,4.18 18.285,9.85 25.226,17.02 6.969,7.16 12.297,15.52 15.989,25.08 3.714,9.55 5.57,19.71 5.57,30.46 m -28.156,-1.53 c 0,-10.95 -0.907,-19.77 -2.715,-26.44 -1.785,-6.65 -4.157,-12.71 -7.114,-18.19 -1.859,-3.54 -4.316,-6.76 -7.371,-9.64 -3.031,-2.88 -6.379,-5.33 -10.047,-7.33 -3.64,-1.98 -7.562,-3.54 -11.769,-4.66 -4.203,-1.1 -8.406,-1.65 -12.613,-1.65 -4.668,0 -9.153,0.59 -13.457,1.76 -4.278,1.2 -8.25,2.86 -11.914,4.99 -3.645,2.15 -6.907,4.7 -9.789,7.66 -2.887,2.96 -5.258,6.15 -7.114,9.57 -3.742,7.09 -6.234,14.18 -7.48,21.27 -1.246,7.11 -1.871,14.66 -1.871,22.66 0,10.92 1.05,20.16 3.152,27.71 2.102,7.56 4.242,13.47 6.418,17.75 4.059,8 9.777,14.17 17.16,18.52 7.406,4.37 15.777,6.56 25.117,6.56 9.36,0 17.66,-2.22 24.895,-6.67 7.234,-4.43 13.043,-10.78 17.418,-19.07 2.64,-4.89 4.812,-11.25 6.527,-19.1 1.711,-7.82 2.567,-16.39 2.567,-25.7 m -18.079,-19.11 c -0.316,2.67 -0.636,5.82 -0.953,9.46 -0.293,3.65 -0.441,7.34 -0.441,11.08 0,3.76 0.148,7.5 0.441,11.21 0.317,3.72 0.637,6.75 0.953,9.1 l -3.519,0.26 c -2.664,-8.32 -7.824,-12.47 -15.473,-12.47 H 561.25 c -3.129,0 -6.109,0.82 -8.945,2.46 -2.813,1.66 -5,4.99 -6.563,10.01 l -3.519,-0.26 c 0.316,-2.96 0.632,-6.15 0.953,-9.57 0.316,-3.4 0.476,-6.98 0.476,-10.74 0,-3.74 -0.16,-7.43 -0.476,-11.08 -0.321,-3.64 -0.637,-6.79 -0.953,-9.46 l 3.519,-0.25 c 1.735,5.01 3.969,8.33 6.707,9.97 2.739,1.66 5.906,2.49 9.496,2.49 h 29.336 c 3.274,0 6.282,-0.87 9.02,-2.6 2.738,-1.71 4.887,-5 6.453,-9.86 l 3.519,0.25"
         style="fill:#000000;fill-opacity:1;fill-rule:nonzero;stroke:none"
         id="path458" /><path
         d="m 1695.88,413.758 h 30.51 v 107.945 l -32.85,-7.039 v 14.082 l 32.96,7.039 h 18.66 V 413.758 h 30.51 V 399.68 h -79.79 v 14.078"
         style="fill:#000000;fill-opacity:1;fill-rule:nonzero;stroke:none"
         id="path460" /><path
         d="m 1311.46,1079.89 h 65.75 v -14.08 h -87.56 v 14.08 c 7.09,7.41 16.73,17.36 28.93,29.84 12.22,12.52 19.91,20.57 23.06,24.17 5.97,6.8 10.13,12.54 12.5,17.23 2.38,4.72 3.56,9.35 3.56,13.9 0,7.43 -2.6,13.48 -7.81,18.15 -5.2,4.67 -11.99,7 -20.35,7 -5.94,0 -12.21,-1.17 -18.81,-3.52 -6.57,-2.32 -13.6,-5.84 -21.08,-10.56 v 18.78 c 7.6,3.1 14.69,5.43 21.27,7 6.6,1.59 12.65,2.38 18.15,2.38 14.42,0 25.92,-3.57 34.5,-10.71 8.61,-7.11 12.91,-16.62 12.91,-28.52 0,-5.67 -1.08,-11.04 -3.23,-16.1 -2.15,-5.06 -6.05,-11.04 -11.7,-17.93 -1.56,-1.76 -6.51,-6.89 -14.85,-15.4 -8.31,-8.5 -20.05,-20.41 -35.24,-35.71"
         style="fill:#000000;fill-opacity:1;fill-rule:nonzero;stroke:none"
         id="path462" /><path
         d="m 725.512,1450.95 c 9.312,-1.88 16.586,-5.79 21.816,-11.74 5.254,-5.91 7.883,-13.22 7.883,-21.92 0,-13.37 -4.598,-23.72 -13.785,-31.06 -9.192,-7.31 -22.258,-10.96 -39.199,-10.96 -5.672,0 -11.524,0.59 -17.563,1.76 -6.012,1.17 -12.223,2.93 -18.625,5.28 v 18.77 c 5.035,-3.86 10.547,-6.78 16.535,-8.76 6.012,-1.98 12.297,-2.97 18.848,-2.97 11.391,0 20.066,2.35 26.031,7.04 5.988,4.72 8.985,11.55 8.985,20.5 0,8.28 -2.813,14.76 -8.434,19.43 -5.621,4.67 -13.445,7 -23.465,7 h -15.035 v 14.08 h 15.73 c 8.579,0 15.145,1.89 19.692,5.65 4.543,3.79 6.816,9.23 6.816,16.31 0,7.29 -2.344,12.87 -7.039,16.76 -4.691,3.91 -11.414,5.87 -20.164,5.87 -4.84,0 -10.023,-0.77 -15.547,-2.31 -5.527,-1.52 -11.613,-3.88 -18.262,-7.08 v 16.43 c 6.774,2.35 13.114,4.1 19.032,5.28 5.914,1.17 11.5,1.76 16.754,1.76 13.543,0 24.261,-3.18 32.16,-9.53 7.894,-6.34 11.84,-14.9 11.84,-25.71 0,-7.53 -2.176,-13.9 -6.524,-19.1 -4.328,-5.18 -10.488,-8.78 -18.48,-10.78"
         style="fill:#000000;fill-opacity:1;fill-rule:nonzero;stroke:none"
         id="path464" /><path
         d="m 5481.96,1359.92 11.66,-886.225"
         style="fill:none;stroke:#000000;stroke-width:28.346;stroke-linecap:butt;stroke-linejoin:miter;stroke-miterlimit:10;stroke-dasharray:none;stroke-opacity:1"
         id="path466" /><path
         d="m 5481.12,1423.69 43.63,-84.47 -42.79,20.7 -42.24,-21.82"
         style="fill:#000000;fill-opacity:1;fill-rule:evenodd;stroke:none"
         id="path468" /><path
         d="m 5481.12,1423.69 43.63,-84.47 -42.79,20.7 -42.24,-21.82 z"
         style="fill:none;stroke:#000000;stroke-width:28.346;stroke-linecap:butt;stroke-linejoin:miter;stroke-miterlimit:10;stroke-dasharray:none;stroke-opacity:1"
         id="path470" /><path
         d="m 5494.46,409.922 -43.64,84.473 42.8,-20.7 42.23,21.817"
         style="fill:#000000;fill-opacity:1;fill-rule:evenodd;stroke:none"
         id="path472" /><path
         d="m 5494.46,409.922 -43.64,84.473 42.8,-20.7 42.23,21.817 z"
         style="fill:none;stroke:#000000;stroke-width:28.346;stroke-linecap:butt;stroke-linejoin:miter;stroke-miterlimit:10;stroke-dasharray:none;stroke-opacity:1"
         id="path474" /><path
         d="M 6306.47,647.52 H 5292.71"
         style="fill:none;stroke:#000000;stroke-width:28.346;stroke-linecap:butt;stroke-linejoin:miter;stroke-miterlimit:10;stroke-dasharray:none;stroke-opacity:1"
         id="path476" /><path
         d="m 6370.25,647.52 -85.04,-42.52 21.26,42.52 -21.26,42.519"
         style="fill:#000000;fill-opacity:1;fill-rule:evenodd;stroke:none"
         id="path478" /><path
         d="m 6370.25,647.52 -85.04,-42.52 21.26,42.52 -21.26,42.519 z"
         style="fill:none;stroke:#000000;stroke-width:28.346;stroke-linecap:butt;stroke-linejoin:miter;stroke-miterlimit:10;stroke-dasharray:none;stroke-opacity:1"
         id="path480" /><path
         d="m 5228.93,647.52 85.04,42.519 -21.26,-42.519 21.26,-42.52"
         style="fill:#000000;fill-opacity:1;fill-rule:evenodd;stroke:none"
         id="path482" /><path
         d="m 5228.93,647.52 85.04,42.519 -21.26,-42.519 21.26,-42.52 z"
         style="fill:none;stroke:#000000;stroke-width:28.346;stroke-linecap:butt;stroke-linejoin:miter;stroke-miterlimit:10;stroke-dasharray:none;stroke-opacity:1"
         id="path484" /><path
         d="m 6535.45,701.352 -37,-50.231 39.35,-53.019 h -19.99 l -30.03,40.55 -29.15,-40.55 h -19.4 l 38.69,54.007 -36.34,49.243 h 19.8 l 27.14,-36.774 27.13,36.774 h 19.8"
         style="fill:#000000;fill-opacity:1;fill-rule:nonzero;stroke:none"
         id="path486" /><path
         d="m 5502.49,1523.29 c -4.81,-12.27 -9.51,-20.28 -14.08,-24.02 -4.54,-3.76 -10.64,-5.64 -18.29,-5.64 h -13.61 v 14.08 h 10.01 c 4.69,0 8.32,1.13 10.89,3.41 2.59,2.27 5.47,7.65 8.62,16.13 l 3.04,7.77 -41.94,101.75 h 18.07 l 32.41,-80.77 32.38,80.77 h 18.04 l -45.54,-113.48"
         style="fill:#000000;fill-opacity:1;fill-rule:nonzero;stroke:none"
         id="path488" /><path
         d="m 1644.07,1405.96 c 559.57,682.58 1395.72,1078.32 2278.36,1078.32 815.19,0 1593.95,-337.77 2150.99,-932.96"
         style="fill:none;stroke:#000000;stroke-width:28.346;stroke-linecap:butt;stroke-linejoin:miter;stroke-miterlimit:10;stroke-dasharray:none;stroke-opacity:1"
         id="path490" /><path
         d="m 1644.07,1405.96 c -27.4,22.47 -32.34,72.33 -9.88,99.73 22.47,27.4 72.33,32.34 99.73,9.88 27.4,-22.46 32.34,-72.33 9.88,-99.73 -22.46,-27.4 -72.33,-32.34 -99.73,-9.88"
         style="fill:#000000;fill-opacity:1;fill-rule:evenodd;stroke:none"
         id="path492" /><path
         d="m 1644.07,1405.96 c -27.4,22.47 -32.34,72.33 -9.88,99.73 22.47,27.4 72.33,32.34 99.73,9.88 27.4,-22.46 32.34,-72.33 9.88,-99.73 -22.46,-27.4 -72.33,-32.34 -99.73,-9.88"
         style="fill:none;stroke:#000000;stroke-width:28.346;stroke-linecap:butt;stroke-linejoin:miter;stroke-miterlimit:10;stroke-dasharray:none;stroke-opacity:1"
         id="path494" /><path
         d="m 6144.71,1472.61 -145.85,61.94 76.92,18.98 30.97,72.92"
         style="fill:#000000;fill-opacity:1;fill-rule:evenodd;stroke:none"
         id="path496" /><path
         d="m 6144.71,1472.61 -145.85,61.94 76.92,18.98 30.97,72.92 z"
         style="fill:none;stroke:#000000;stroke-width:28.346;stroke-linecap:butt;stroke-linejoin:miter;stroke-miterlimit:10;stroke-dasharray:none;stroke-opacity:1"
         id="path498" /><path
         d="m 6094.39,1533.52 198.42,-170.08"
         style="fill:none;stroke:#000000;stroke-width:28.346;stroke-linecap:butt;stroke-linejoin:miter;stroke-miterlimit:10;stroke-dasharray:none;stroke-opacity:1"
         id="path500" /><path
         d="m 6292.81,1363.44 c -23.06,-26.9 -73.02,-30.74 -99.92,-7.68 -26.9,23.06 -30.75,73.02 -7.69,99.92 23.06,26.9 73.02,30.75 99.93,7.69 26.9,-23.07 30.74,-73.03 7.68,-99.93"
         style="fill:#000000;fill-opacity:1;fill-rule:evenodd;stroke:none"
         id="path502" /><path
         d="m 6292.81,1363.44 c -23.06,-26.9 -73.02,-30.74 -99.92,-7.68 -26.9,23.06 -30.75,73.02 -7.69,99.92 23.06,26.9 73.02,30.75 99.93,7.69 26.9,-23.07 30.74,-73.03 7.68,-99.93"
         style="fill:none;stroke:#000000;stroke-width:28.346;stroke-linecap:butt;stroke-linejoin:miter;stroke-miterlimit:10;stroke-dasharray:none;stroke-opacity:1"
         id="path504" /><path
         d="m 122.027,169.727 v -18.774 c -6.285,6.281 -12.98,10.977 -20.093,14.078 -7.1137,3.129 -14.6684,4.696 -22.6606,4.696 -15.7656,0 -27.8437,-4.829 -36.2265,-14.485 -8.3594,-9.656 -12.5391,-23.613 -12.5391,-41.871 0,-18.2108 4.1797,-32.1444 12.5391,-41.8007 8.3828,-9.6562 20.4609,-14.4844 36.2265,-14.4844 7.9922,0 15.5469,1.5547 22.6606,4.6563 7.113,3.1289 13.808,7.8359 20.093,14.1172 V 57.0859 c -6.48,-4.6914 -13.336,-8.2109 -20.57,-10.5586 -7.2382,-2.3476 -14.8867,-3.5195 -22.9531,-3.5195 -20.707,0 -37.0117,6.2813 -48.9141,18.8438 -11.9062,12.5898 -17.8554,29.7617 -17.8554,51.5194 0,21.801 5.9492,38.988 17.8554,51.551 11.9024,12.59 28.2071,18.883 48.9141,18.883 8.1875,0 15.8984,-1.172 23.1371,-3.52 7.234,-2.347 14.031,-5.867 20.386,-10.558"
         style="fill:#000000;fill-opacity:1;fill-rule:nonzero;stroke:none"
         id="path506" /><path
         d="m 192.512,136.871 c -8.703,0 -15.582,-3.555 -20.641,-10.668 -5.039,-7.113 -7.555,-16.855 -7.555,-29.2225 0,-12.3711 2.504,-22.1094 7.516,-29.2227 5.035,-7.1133 11.93,-10.6719 20.68,-10.6719 8.652,0 15.5,3.5704 20.535,10.7071 5.058,7.1367 7.59,16.8672 7.59,29.1875 0,12.2465 -2.532,21.9495 -7.59,29.1135 -5.035,7.187 -11.883,10.777 -20.535,10.777 m -0.035,14.082 c 14.617,0 26.093,-4.781 34.429,-14.336 8.336,-9.535 12.504,-22.746 12.504,-39.6365 0,-16.8203 -4.168,-30.0196 -12.504,-39.6016 -8.336,-9.582 -19.812,-14.3711 -34.429,-14.3711 -14.668,0 -26.157,4.7891 -34.469,14.3711 -8.309,9.582 -12.465,22.7813 -12.465,39.6016 0,16.8905 4.156,30.1015 12.465,39.6365 8.312,9.555 19.801,14.336 34.469,14.336"
         style="fill:#000000;fill-opacity:1;fill-rule:nonzero;stroke:none"
         id="path508" /><path
         d="M 354.586,107.395 V 45.3555 H 338.16 v 61.4885 c 0,10.047 -1.969,17.562 -5.902,22.551 -3.91,4.984 -9.789,7.476 -17.637,7.476 -9.41,0 -16.844,-2.992 -22.293,-8.98 -5.426,-5.965 -8.14,-14.106 -8.14,-24.422 V 45.3555 H 267.762 V 148.605 h 16.426 V 132.18 c 4.105,6.281 8.945,10.976 14.519,14.078 5.598,3.129 12.039,4.695 19.324,4.695 12.028,0 21.121,-3.691 27.282,-11.074 6.183,-7.356 9.273,-18.188 9.273,-32.484"
         style="fill:#000000;fill-opacity:1;fill-rule:nonzero;stroke:none"
         id="path510" /><path
         d="M 474.012,148.605 V 45.3555 H 457.586 V 134.527 H 410.652 V 45.3555 h -16.425 v 89.1715 h -16.426 v 14.078 h 16.426 v 7.149 c 0,11.148 2.64,19.387 7.921,24.715 5.305,5.351 13.43,8.031 24.383,8.031 h 16.977 v -14.082 h -16.426 c -6.16,0 -10.441,-1.223 -12.836,-3.664 -2.394,-2.422 -3.594,-6.797 -3.594,-13.129 v -9.02 h 63.36 M 457.586,188.5 h 16.426 V 167.379 H 457.586 V 188.5"
         style="fill:#000000;fill-opacity:1;fill-rule:nonzero;stroke:none"
         id="path512" /><path
         d="m 580.996,98.1172 c 0,12.2928 -2.469,21.8278 -7.406,28.5978 -4.938,6.773 -11.867,10.156 -20.789,10.156 -8.871,0 -15.778,-3.383 -20.715,-10.156 -4.938,-6.77 -7.406,-16.305 -7.406,-28.5978 0,-12.2461 2.468,-21.7578 7.406,-28.5274 4.937,-6.7695 11.844,-10.1562 20.715,-10.1562 8.922,0 15.851,3.3867 20.789,10.1562 4.937,6.7696 7.406,16.2813 7.406,28.5274 m 16.43,-40.0391 c 0,-17.7461 -3.903,-30.9492 -11.699,-39.6015 -7.797,-8.67582 -19.75,-13.01566 -35.86,-13.01566 -5.937,0 -11.551,0.39062 -16.828,1.17187 -5.281,0.75782 -10.414,1.9336 -15.402,3.51949 V 26.582 c 5.011,-2.3984 9.961,-4.1679 14.851,-5.3164 4.914,-1.1523 9.899,-1.7265 14.961,-1.7265 11.219,0 19.614,2.9453 25.188,8.8398 5.574,5.8633 8.359,14.75 8.359,26.6563 v 9.0898 c -3.492,-6.2812 -7.969,-10.9844 -13.418,-14.1133 -5.453,-3.1054 -11.976,-4.6562 -19.582,-4.6562 -12.613,0 -22.781,4.8125 -30.504,14.4453 -7.726,9.6289 -11.586,22.4023 -11.586,38.3164 0,15.9608 3.86,28.7578 11.586,38.3908 7.723,9.629 17.891,14.445 30.504,14.445 7.606,0 14.129,-1.566 19.582,-4.695 5.449,-3.102 9.926,-7.797 13.418,-14.078 v 16.425 h 16.43 V 58.0781"
         style="fill:#000000;fill-opacity:1;fill-rule:nonzero;stroke:none"
         id="path514" /><path
         d="m 632.371,86.4922 v 62.1128 h 16.426 V 87.1523 c 0,-10.0195 1.957,-17.539 5.867,-22.5507 3.91,-5.0078 9.777,-7.5157 17.598,-7.5157 9.414,0 16.843,2.9844 22.297,8.9493 5.472,5.9609 8.211,14.1015 8.211,24.4179 v 58.1519 h 16.425 V 45.3555 H 702.77 v 16.4258 c -4.18,-6.3555 -9.02,-11.0743 -14.52,-14.1563 -5.5,-3.0781 -11.891,-4.6172 -19.176,-4.6172 -12.027,0 -21.156,3.6914 -27.39,11.0742 -6.207,7.3789 -9.313,18.1836 -9.313,32.4102 m 42.863,64.4608 v 0"
         style="fill:#000000;fill-opacity:1;fill-rule:nonzero;stroke:none"
         id="path516" /><path
         d="m 815.156,134.527 c -1.957,0.805 -4.093,1.391 -6.418,1.758 -2.297,0.391 -4.828,0.586 -7.59,0.586 -9.851,0 -17.414,-3.211 -22.695,-9.641 -5.258,-6.429 -7.883,-15.667 -7.883,-27.7222 V 45.3555 H 754.145 V 148.605 H 770.57 V 132.18 c 3.664,6.355 8.434,11.074 14.301,14.152 5.863,3.082 12.992,4.621 21.375,4.621 1.199,0 2.516,0 3.961,0 1.465,0 3.078,0 4.84,0 l 0.109,-16.426"
         style="fill:#000000;fill-opacity:1;fill-rule:nonzero;stroke:none"
         id="path518" /><path
         d="m 881.348,96.9805 c -13.883,0 -23.504,-1.5547 -28.856,-4.6563 -5.355,-3.082 -8.031,-8.3594 -8.031,-15.8398 0,-5.9414 2.004,-10.6602 6.012,-14.1563 4.035,-3.4922 9.5,-5.2422 16.39,-5.2422 9.535,0 17.172,3.3008 22.918,9.9024 5.77,6.5976 8.653,15.375 8.653,26.3242 v 3.668 h -17.086 m 33.511,7.4415 V 45.3555 h -16.425 v 16.4258 c -3.887,-6.4063 -8.727,-11.1368 -14.52,-14.1915 -5.769,-3.0546 -12.844,-4.582 -21.23,-4.582 -10.61,0 -19.043,2.9688 -25.301,8.9102 -6.231,5.9648 -9.348,13.9336 -9.348,23.9062 0,11.6602 3.875,20.4453 11.621,26.3638 7.75,5.914 19.313,8.871 34.688,8.871 h 24.09 v 1.539 c 0,7.726 -2.59,13.703 -7.774,17.933 -5.183,4.227 -12.465,6.34 -21.851,6.34 -5.965,0 -11.786,-0.781 -17.454,-2.344 -5.648,-1.566 -11.074,-3.914 -16.281,-7.043 v 16.43 c 6.211,2.344 12.235,4.106 18.078,5.277 5.864,1.176 11.575,1.762 17.121,1.762 14.961,0 26.133,-3.851 33.512,-11.551 7.383,-7.699 11.074,-19.359 11.074,-34.98"
         style="fill:#000000;fill-opacity:1;fill-rule:nonzero;stroke:none"
         id="path520" /><path
         d="m 966.68,176.766 v -28.161 h 35.2 v -14.078 h -35.2 V 79.0508 c 0,-8.336 1.16,-13.6914 3.484,-16.0625 2.32,-2.3711 7.039,-3.5547 14.152,-3.5547 h 17.564 V 45.3555 h -17.564 c -12.906,0 -21.816,2.4179 -26.73,7.2578 -4.887,4.8398 -7.332,13.6523 -7.332,26.4375 V 134.527 H 938.52 v 14.078 h 11.734 v 28.161 h 16.426"
         style="fill:#000000;fill-opacity:1;fill-rule:nonzero;stroke:none"
         id="path522" /><path
         d="m 1025.3,148.605 h 16.43 V 45.3555 H 1025.3 V 148.605 m 0,39.895 h 16.43 V 167.379 H 1025.3 V 188.5"
         style="fill:#000000;fill-opacity:1;fill-rule:nonzero;stroke:none"
         id="path524" /><path
         d="m 1120.68,136.871 c -8.71,0 -15.59,-3.555 -20.65,-10.668 -5.03,-7.113 -7.55,-16.855 -7.55,-29.2225 0,-12.3711 2.5,-22.1094 7.52,-29.2227 5.03,-7.1133 11.92,-10.6719 20.68,-10.6719 8.65,0 15.49,3.5704 20.53,10.7071 5.06,7.1367 7.59,16.8672 7.59,29.1875 0,12.2465 -2.53,21.9495 -7.59,29.1135 -5.04,7.187 -11.88,10.777 -20.53,10.777 m -0.04,14.082 c 14.61,0 26.09,-4.781 34.43,-14.336 8.33,-9.535 12.5,-22.746 12.5,-39.6365 0,-16.8203 -4.17,-30.0196 -12.5,-39.6016 -8.34,-9.582 -19.82,-14.3711 -34.43,-14.3711 -14.67,0 -26.16,4.7891 -34.47,14.3711 -8.31,9.582 -12.47,22.7813 -12.47,39.6016 0,16.8905 4.16,30.1015 12.47,39.6365 8.31,9.555 19.8,14.336 34.47,14.336"
         style="fill:#000000;fill-opacity:1;fill-rule:nonzero;stroke:none"
         id="path526" /><path
         d="M 1282.75,107.395 V 45.3555 h -16.43 v 61.4885 c 0,10.047 -1.96,17.562 -5.9,22.551 -3.91,4.984 -9.79,7.476 -17.64,7.476 -9.41,0 -16.84,-2.992 -22.29,-8.98 -5.43,-5.965 -8.14,-14.106 -8.14,-24.422 V 45.3555 h -16.43 V 148.605 h 16.43 V 132.18 c 4.11,6.281 8.95,10.976 14.52,14.078 5.6,3.129 12.04,4.695 19.32,4.695 12.03,0 21.12,-3.691 27.28,-11.074 6.19,-7.356 9.28,-18.188 9.28,-32.484"
         style="fill:#000000;fill-opacity:1;fill-rule:nonzero;stroke:none"
         id="path528" /><path
         d="m 1460.71,176.766 v -18.774 c -6.89,3.938 -13.39,6.867 -19.5,8.801 -6.09,1.953 -11.98,2.934 -17.67,2.934 -9.88,0 -17.5,-1.993 -22.85,-5.977 -5.35,-3.984 -8.03,-9.656 -8.03,-17.016 0,-6.16 1.82,-10.816 5.47,-13.968 3.66,-3.153 10.59,-5.696 20.78,-7.625 l 11.22,-2.203 c 13.67,-2.59 23.74,-7.161 30.22,-13.711 6.5,-6.551 9.75,-15.3168 9.75,-26.2895 0,-13.1016 -4.47,-23.0391 -13.42,-29.8125 -8.92,-6.7461 -22,-10.1172 -39.23,-10.1172 -6.5,0 -13.43,0.7813 -20.79,2.3477 -7.34,1.5859 -14.93,3.9336 -22.77,7.039 V 71.168 c 7.6,-4.6719 15.06,-8.1914 22.36,-10.5625 7.31,-2.3438 14.5,-3.5196 21.56,-3.5196 10.71,0 18.97,2.0899 24.79,6.2696 5.82,4.207 8.73,10.1836 8.73,17.9297 0,6.7734 -2.08,12.0664 -6.24,15.8789 -4.13,3.8359 -10.92,6.7069 -20.38,8.6169 l -11.33,2.16 c -13.91,2.739 -23.97,7.016 -30.18,12.836 -6.21,5.817 -9.31,13.907 -9.31,24.274 0,12 4.19,21.461 12.57,28.379 8.41,6.918 20,10.375 34.76,10.375 6.33,0 12.78,-0.586 19.33,-1.758 6.57,-1.176 13.29,-2.934 20.16,-5.281"
         style="fill:#000000;fill-opacity:1;fill-rule:nonzero;stroke:none"
         id="path530" /><path
         d="M 1516.78,61.7813 V 5.46094 h -16.43 V 148.605 h 16.43 V 132.18 c 3.54,6.355 8.03,11.074 13.45,14.152 5.43,3.082 11.91,4.621 19.44,4.621 12.51,0 22.67,-4.961 30.47,-14.887 7.82,-9.898 11.73,-22.929 11.73,-39.0855 0,-16.1602 -3.91,-29.1992 -11.73,-39.125 -7.8,-9.8985 -17.96,-14.8477 -30.47,-14.8477 -7.53,0 -14.01,1.5391 -19.44,4.6172 -5.42,3.082 -9.91,7.8008 -13.45,14.1563 m 56.32,35.1992 c 0,12.4415 -2.51,22.1955 -7.52,29.2575 -5.01,7.09 -11.89,10.633 -20.64,10.633 -8.75,0 -15.63,-3.543 -20.64,-10.633 -5.01,-7.062 -7.52,-16.816 -7.52,-29.2575 0,-12.4414 2.51,-22.2071 7.52,-29.2969 5.01,-7.0664 11.89,-10.5977 20.64,-10.5977 8.75,0 15.63,3.5313 20.64,10.5977 5.01,7.0898 7.52,16.8555 7.52,29.2969"
         style="fill:#000000;fill-opacity:1;fill-rule:nonzero;stroke:none"
         id="path532" /><path
         d="m 1670.75,96.9805 c -13.89,0 -23.51,-1.5547 -28.86,-4.6563 -5.35,-3.082 -8.03,-8.3594 -8.03,-15.8398 0,-5.9414 2,-10.6602 6.01,-14.1563 4.04,-3.4922 9.5,-5.2422 16.39,-5.2422 9.53,0 17.17,3.3008 22.92,9.9024 5.77,6.5976 8.65,15.375 8.65,26.3242 v 3.668 h -17.08 m 33.51,7.4415 V 45.3555 h -16.43 v 16.4258 c -3.88,-6.4063 -8.72,-11.1368 -14.52,-14.1915 -5.77,-3.0546 -12.85,-4.582 -21.23,-4.582 -10.61,0 -19.04,2.9688 -25.3,8.9102 -6.23,5.9648 -9.35,13.9336 -9.35,23.9062 0,11.6602 3.87,20.4453 11.62,26.3638 7.75,5.914 19.32,8.871 34.69,8.871 h 24.09 v 1.539 c 0,7.726 -2.59,13.703 -7.77,17.933 -5.18,4.227 -12.47,6.34 -21.86,6.34 -5.96,0 -11.78,-0.781 -17.45,-2.344 -5.64,-1.566 -11.07,-3.914 -16.28,-7.043 v 16.43 c 6.21,2.344 12.24,4.106 18.08,5.277 5.86,1.176 11.57,1.762 17.12,1.762 14.96,0 26.13,-3.851 33.51,-11.551 7.39,-7.699 11.08,-19.359 11.08,-34.98"
         style="fill:#000000;fill-opacity:1;fill-rule:nonzero;stroke:none"
         id="path534" /><path
         d="m 1817.09,146.258 v -16.426 c -4.77,2.348 -9.55,4.106 -14.34,5.281 -4.79,1.172 -9.63,1.758 -14.52,1.758 -10.92,0 -19.41,-3.492 -25.44,-10.484 -6.04,-6.992 -9.06,-16.793 -9.06,-29.4065 0,-12.6133 3.02,-22.418 9.06,-29.4063 6.03,-6.9922 14.52,-10.4883 25.44,-10.4883 4.89,0 9.73,0.586 14.52,1.7618 4.79,1.1718 9.57,2.9336 14.34,5.2773 V 47.6992 c -4.77,-1.5625 -9.7,-2.7383 -14.81,-3.5195 -5.09,-0.7813 -10.5,-1.1719 -16.24,-1.1719 -15.65,0 -28.08,4.8633 -37.3,14.5938 -9.19,9.7265 -13.78,22.8554 -13.78,39.3789 0,16.7695 4.64,29.9575 13.93,39.5625 9.31,9.605 22.06,14.41 38.24,14.41 5.26,0 10.39,-0.39 15.41,-1.176 5,-0.781 9.86,-1.953 14.55,-3.519"
         style="fill:#000000;fill-opacity:1;fill-rule:nonzero;stroke:none"
         id="path536" /><path
         d="m 1936.66,101.086 v -8.8008 h -77.44 c 0.73,-11.4649 4.19,-20.2032 10.37,-26.2149 6.19,-5.9883 14.8,-8.9844 25.86,-8.9844 6.4,0 12.61,0.7813 18.62,2.3477 6.02,1.5625 11.98,3.9102 17.89,7.0391 V 50.0469 C 1925.9,47.75 1919.68,46 1913.3,44.8047 c -6.38,-1.1992 -12.85,-1.7969 -19.43,-1.7969 -16.43,0 -29.44,4.7656 -39.05,14.3008 -9.58,9.5547 -14.37,22.4727 -14.37,38.7539 0,16.8165 4.58,30.1645 13.75,40.0395 9.19,9.902 21.57,14.851 37.14,14.851 13.96,0 24.99,-4.473 33.11,-13.422 8.14,-8.945 12.21,-21.093 12.21,-36.445 m -16.43,5.281 c -0.12,9.289 -2.73,16.696 -7.81,22.219 -5.06,5.523 -11.77,8.285 -20.13,8.285 -9.46,0 -17.04,-2.676 -22.73,-8.027 -5.67,-5.328 -8.93,-12.848 -9.79,-22.551 l 60.46,0.074"
         style="fill:#000000;fill-opacity:1;fill-rule:nonzero;stroke:none"
         id="path538" /><path
         d="m 5168.17,167.379 v -53.973 h 23.87 c 8.85,0 15.68,2.336 20.5,7.004 4.84,4.692 7.26,11.367 7.26,20.02 0,8.605 -2.42,15.242 -7.26,19.91 -4.82,4.691 -11.65,7.039 -20.5,7.039 h -23.87 m -18.77,14.078 h 42.64 c 15.33,0 26.92,-3.48 34.76,-10.449 7.85,-6.942 11.77,-17.133 11.77,-30.578 0,-13.543 -3.92,-23.785 -11.77,-30.727 -7.84,-6.918 -19.43,-10.3749 -34.76,-10.3749 h -23.87 V 45.3555 H 5149.4 V 181.457"
         style="fill:#000000;fill-opacity:1;fill-rule:nonzero;stroke:none"
         id="path540" /><path
         d="M 5349.28,107.395 V 45.3555 h -16.42 v 61.4885 c 0,10.047 -1.97,17.562 -5.91,22.551 -3.91,4.984 -9.79,7.476 -17.63,7.476 -9.42,0 -16.85,-2.992 -22.3,-8.98 -5.43,-5.965 -8.14,-14.106 -8.14,-24.422 V 45.3555 h -16.43 V 188.5 h 16.43 v -56.32 c 4.11,6.281 8.95,10.976 14.52,14.078 5.6,3.129 12.04,4.695 19.32,4.695 12.03,0 21.12,-3.691 27.28,-11.074 6.19,-7.356 9.28,-18.188 9.28,-32.484"
         style="fill:#000000;fill-opacity:1;fill-rule:nonzero;stroke:none"
         id="path542" /><path
         d="m 5427.86,35.125 c -4.82,-12.2734 -9.51,-20.2773 -14.08,-24.0195 -4.55,-3.76175 -10.65,-5.64456 -18.3,-5.64456 h -13.6 V 19.5391 h 10.01 c 4.69,0 8.32,1.1367 10.89,3.4101 2.59,2.2735 5.46,7.6524 8.62,16.1328 l 3.04,7.7735 -41.95,101.7495 h 18.08 l 32.41,-80.7769 32.38,80.7769 h 18.04 l -45.54,-113.48"
         style="fill:#000000;fill-opacity:1;fill-rule:nonzero;stroke:none"
         id="path544" /><path
         d="m 5565.55,146.258 v -16.426 c -4.78,2.348 -9.77,4.106 -14.95,5.281 -5.16,1.172 -10.51,1.758 -16.06,1.758 -8.44,0 -14.77,-1.281 -19,-3.848 -4.2,-2.566 -6.3,-6.418 -6.3,-11.55 0,-3.934 1.51,-7.016 4.55,-9.239 3.02,-2.226 9.11,-4.351 18.25,-6.382 l 5.83,-1.282 c 11.71,-2.566 20.04,-6.1989 24.97,-10.8903 4.94,-4.6914 7.41,-11.2305 7.41,-19.6172 0,-9.5586 -3.73,-17.1211 -11.18,-22.6953 -7.43,-5.5742 -17.66,-8.3594 -30.69,-8.3594 -5.43,0 -11.09,0.586 -16.98,1.7578 -5.89,1.1758 -12.09,2.9336 -18.59,5.2813 v 16.4258 c 6.21,-3.1289 12.33,-5.4766 18.37,-7.0391 6.04,-1.5664 12.02,-2.3477 17.93,-2.3477 7.94,0 14.04,1.3594 18.3,4.0704 4.27,2.7382 6.41,6.5742 6.41,11.5156 0,4.5937 -1.56,8.1133 -4.69,10.5586 -3.11,2.4453 -9.95,4.789 -20.53,7.039 l -5.91,1.3946 c -10.53,2.1992 -18.15,5.5859 -22.84,10.1559 -4.69,4.571 -7.04,10.84 -7.04,18.809 0,9.68 3.45,17.148 10.34,22.402 6.89,5.282 16.68,7.922 29.37,7.922 6.26,0 12.16,-0.39 17.71,-1.176 5.55,-0.781 10.66,-1.953 15.32,-3.519"
         style="fill:#000000;fill-opacity:1;fill-rule:nonzero;stroke:none"
         id="path546" /><path
         d="m 5597.33,148.605 h 16.43 V 45.3555 h -16.43 V 148.605 m 0,39.895 h 16.43 v -21.121 h -16.43 V 188.5"
         style="fill:#000000;fill-opacity:1;fill-rule:nonzero;stroke:none"
         id="path548" /><path
         d="m 5727.87,146.258 v -16.426 c -4.77,2.348 -9.55,4.106 -14.34,5.281 -4.79,1.172 -9.63,1.758 -14.52,1.758 -10.92,0 -19.41,-3.492 -25.44,-10.484 -6.04,-6.992 -9.06,-16.793 -9.06,-29.4065 0,-12.6133 3.02,-22.418 9.06,-29.4063 6.03,-6.9922 14.52,-10.4883 25.44,-10.4883 4.89,0 9.73,0.586 14.52,1.7618 4.79,1.1718 9.57,2.9336 14.34,5.2773 V 47.6992 c -4.77,-1.5625 -9.71,-2.7383 -14.82,-3.5195 -5.08,-0.7813 -10.5,-1.1719 -16.24,-1.1719 -15.64,0 -28.07,4.8633 -37.29,14.5938 -9.19,9.7265 -13.79,22.8554 -13.79,39.3789 0,16.7695 4.65,29.9575 13.94,39.5625 9.31,9.605 22.06,14.41 38.24,14.41 5.26,0 10.39,-0.39 15.4,-1.176 5.01,-0.781 9.87,-1.953 14.56,-3.519"
         style="fill:#000000;fill-opacity:1;fill-rule:nonzero;stroke:none"
         id="path550" /><path
         d="m 5804.54,96.9805 c -13.89,0 -23.51,-1.5547 -28.86,-4.6563 -5.35,-3.082 -8.03,-8.3594 -8.03,-15.8398 0,-5.9414 2,-10.6602 6.01,-14.1563 4.04,-3.4922 9.5,-5.2422 16.39,-5.2422 9.54,0 17.18,3.3008 22.92,9.9024 5.77,6.5976 8.65,15.375 8.65,26.3242 v 3.668 h -17.08 m 33.51,7.4415 V 45.3555 h -16.43 v 16.4258 c -3.89,-6.4063 -8.73,-11.1368 -14.52,-14.1915 -5.77,-3.0546 -12.84,-4.582 -21.23,-4.582 -10.6,0 -19.04,2.9688 -25.3,8.9102 -6.23,5.9648 -9.35,13.9336 -9.35,23.9062 0,11.6602 3.88,20.4453 11.63,26.3638 7.74,5.914 19.31,8.871 34.68,8.871 h 24.09 v 1.539 c 0,7.726 -2.59,13.703 -7.77,17.933 -5.18,4.227 -12.47,6.34 -21.85,6.34 -5.97,0 -11.79,-0.781 -17.46,-2.344 -5.65,-1.566 -11.07,-3.914 -16.28,-7.043 v 16.43 c 6.21,2.344 12.24,4.106 18.08,5.277 5.87,1.176 11.57,1.762 17.12,1.762 14.96,0 26.13,-3.851 33.52,-11.551 7.38,-7.699 11.07,-19.359 11.07,-34.98"
         style="fill:#000000;fill-opacity:1;fill-rule:nonzero;stroke:none"
         id="path552" /><path
         d="m 5873.44,45.3555 h 16.4258 v 143.145 H 5873.44 Z"
         style="fill:#000000;fill-opacity:1;fill-rule:nonzero;stroke:none"
         id="path554" /><path
         d="m 6069.56,176.766 v -18.774 c -6.9,3.938 -13.4,6.867 -19.51,8.801 -6.09,1.953 -11.98,2.934 -17.67,2.934 -9.88,0 -17.49,-1.993 -22.84,-5.977 -5.36,-3.984 -8.03,-9.656 -8.03,-17.016 0,-6.16 1.82,-10.816 5.46,-13.968 3.67,-3.153 10.6,-5.696 20.79,-7.625 l 11.22,-2.203 c 13.66,-2.59 23.73,-7.161 30.21,-13.711 6.51,-6.551 9.76,-15.3168 9.76,-26.2895 0,-13.1016 -4.48,-23.0391 -13.42,-29.8125 -8.93,-6.7461 -22,-10.1172 -39.24,-10.1172 -6.5,0 -13.43,0.7813 -20.79,2.3477 -7.33,1.5859 -14.92,3.9336 -22.77,7.039 V 71.168 c 7.61,-4.6719 15.06,-8.1914 22.37,-10.5625 7.31,-2.3438 14.49,-3.5196 21.56,-3.5196 10.71,0 18.97,2.0899 24.79,6.2696 5.81,4.207 8.72,10.1836 8.72,17.9297 0,6.7734 -2.08,12.0664 -6.23,15.8789 -4.13,3.8359 -10.93,6.7069 -20.39,8.6169 l -11.33,2.16 c -13.91,2.739 -23.97,7.016 -30.17,12.836 -6.21,5.817 -9.32,13.907 -9.32,24.274 0,12 4.2,21.461 12.58,28.379 8.41,6.918 19.99,10.375 34.76,10.375 6.33,0 12.77,-0.586 19.32,-1.758 6.58,-1.176 13.3,-2.934 20.17,-5.281"
         style="fill:#000000;fill-opacity:1;fill-rule:nonzero;stroke:none"
         id="path556" /><path
         d="M 6125.63,61.7813 V 5.46094 H 6109.2 V 148.605 h 16.43 V 132.18 c 3.54,6.355 8.03,11.074 13.45,14.152 5.43,3.082 11.9,4.621 19.44,4.621 12.51,0 22.67,-4.961 30.46,-14.887 7.83,-9.898 11.74,-22.929 11.74,-39.0855 0,-16.1602 -3.91,-29.1992 -11.74,-39.125 -7.79,-9.8985 -17.95,-14.8477 -30.46,-14.8477 -7.54,0 -14.01,1.5391 -19.44,4.6172 -5.42,3.082 -9.91,7.8008 -13.45,14.1563 m 56.32,35.1992 c 0,12.4415 -2.51,22.1955 -7.52,29.2575 -5.01,7.09 -11.89,10.633 -20.64,10.633 -8.75,0 -15.64,-3.543 -20.65,-10.633 -5.01,-7.062 -7.51,-16.816 -7.51,-29.2575 0,-12.4414 2.5,-22.2071 7.51,-29.2969 5.01,-7.0664 11.9,-10.5977 20.65,-10.5977 8.75,0 15.63,3.5313 20.64,10.5977 5.01,7.0898 7.52,16.8555 7.52,29.2969"
         style="fill:#000000;fill-opacity:1;fill-rule:nonzero;stroke:none"
         id="path558" /><path
         d="m 6279.59,96.9805 c -13.88,0 -23.5,-1.5547 -28.86,-4.6563 -5.35,-3.082 -8.03,-8.3594 -8.03,-15.8398 0,-5.9414 2.01,-10.6602 6.02,-14.1563 4.03,-3.4922 9.49,-5.2422 16.39,-5.2422 9.53,0 17.17,3.3008 22.91,9.9024 5.77,6.5976 8.66,15.375 8.66,26.3242 v 3.668 h -17.09 m 33.51,7.4415 V 45.3555 h -16.42 v 16.4258 c -3.89,-6.4063 -8.73,-11.1368 -14.52,-14.1915 -5.77,-3.0546 -12.85,-4.582 -21.23,-4.582 -10.61,0 -19.04,2.9688 -25.3,8.9102 -6.24,5.9648 -9.35,13.9336 -9.35,23.9062 0,11.6602 3.87,20.4453 11.62,26.3638 7.75,5.914 19.31,8.871 34.69,8.871 h 24.09 v 1.539 c 0,7.726 -2.59,13.703 -7.78,17.933 -5.18,4.227 -12.46,6.34 -21.85,6.34 -5.96,0 -11.78,-0.781 -17.45,-2.344 -5.65,-1.566 -11.08,-3.914 -16.28,-7.043 v 16.43 c 6.21,2.344 12.23,4.106 18.07,5.277 5.87,1.176 11.58,1.762 17.13,1.762 14.96,0 26.13,-3.851 33.51,-11.551 7.38,-7.699 11.07,-19.359 11.07,-34.98"
         style="fill:#000000;fill-opacity:1;fill-rule:nonzero;stroke:none"
         id="path560" /><path
         d="m 6425.93,146.258 v -16.426 c -4.76,2.348 -9.54,4.106 -14.33,5.281 -4.79,1.172 -9.63,1.758 -14.52,1.758 -10.93,0 -19.41,-3.492 -25.45,-10.484 -6.04,-6.992 -9.06,-16.793 -9.06,-29.4065 0,-12.6133 3.02,-22.418 9.06,-29.4063 6.04,-6.9922 14.52,-10.4883 25.45,-10.4883 4.89,0 9.73,0.586 14.52,1.7618 4.79,1.1718 9.57,2.9336 14.33,5.2773 V 47.6992 c -4.76,-1.5625 -9.7,-2.7383 -14.81,-3.5195 -5.08,-0.7813 -10.49,-1.1719 -16.24,-1.1719 -15.65,0 -28.08,4.8633 -37.29,14.5938 -9.19,9.7265 -13.79,22.8554 -13.79,39.3789 0,16.7695 4.65,29.9575 13.93,39.5625 9.32,9.605 22.07,14.41 38.25,14.41 5.25,0 10.39,-0.39 15.4,-1.176 5.01,-0.781 9.86,-1.953 14.55,-3.519"
         style="fill:#000000;fill-opacity:1;fill-rule:nonzero;stroke:none"
         id="path562" /><path
         d="m 6545.5,101.086 v -8.8008 h -77.44 c 0.74,-11.4649 4.2,-20.2032 10.38,-26.2149 6.19,-5.9883 14.8,-8.9844 25.85,-8.9844 6.41,0 12.61,0.7813 18.63,2.3477 6.01,1.5625 11.97,3.9102 17.89,7.0391 V 50.0469 C 6534.75,47.75 6528.53,46 6522.15,44.8047 c -6.38,-1.1992 -12.86,-1.7969 -19.44,-1.7969 -16.42,0 -29.44,4.7656 -39.05,14.3008 -9.58,9.5547 -14.37,22.4727 -14.37,38.7539 0,16.8165 4.59,30.1645 13.75,40.0395 9.19,9.902 21.57,14.851 37.14,14.851 13.96,0 25,-4.473 33.11,-13.422 8.14,-8.945 12.21,-21.093 12.21,-36.445 m -16.42,5.281 c -0.13,9.289 -2.73,16.696 -7.81,22.219 -5.06,5.523 -11.77,8.285 -20.13,8.285 -9.46,0 -17.04,-2.676 -22.74,-8.027 -5.67,-5.328 -8.93,-12.848 -9.79,-22.551 l 60.47,0.074"
         style="fill:#000000;fill-opacity:1;fill-rule:nonzero;stroke:none"
         id="path564" /><path
         d="m 3009.28,2760.95 h 79.78 v -14.08 h -61.01 v -39.9 h 53.97 v -14.08 h -53.97 v -68.05 h -18.77 v 136.11"
         style="fill:#000000;fill-opacity:1;fill-rule:nonzero;stroke:none"
         id="path566" /><path
         d="m 3152.57,2716.36 c -8.7,0 -15.58,-3.56 -20.64,-10.67 -5.04,-7.12 -7.55,-16.85 -7.55,-29.23 0,-12.36 2.5,-22.1 7.51,-29.22 5.04,-7.11 11.93,-10.67 20.68,-10.67 8.65,0 15.5,3.57 20.54,10.71 5.05,7.14 7.59,16.86 7.59,29.18 0,12.25 -2.54,21.96 -7.59,29.12 -5.04,7.19 -11.89,10.78 -20.54,10.78 m -0.03,14.08 c 14.61,0 26.09,-4.78 34.42,-14.34 8.34,-9.53 12.51,-22.74 12.51,-39.64 0,-16.81 -4.17,-30.01 -12.51,-39.59 -8.33,-9.58 -19.81,-14.38 -34.42,-14.38 -14.67,0 -26.16,4.8 -34.47,14.38 -8.31,9.58 -12.47,22.78 -12.47,39.59 0,16.9 4.16,30.11 12.47,39.64 8.31,9.56 19.8,14.34 34.47,14.34"
         style="fill:#000000;fill-opacity:1;fill-rule:nonzero;stroke:none"
         id="path568" /><path
         d="m 3288.83,2714.01 c -1.95,0.81 -4.09,1.4 -6.41,1.76 -2.3,0.39 -4.83,0.59 -7.59,0.59 -9.85,0 -17.42,-3.22 -22.7,-9.65 -5.25,-6.42 -7.88,-15.66 -7.88,-27.71 v -54.16 h -16.43 v 103.25 h 16.43 v -16.43 c 3.66,6.36 8.43,11.08 14.3,14.16 5.86,3.08 12.99,4.62 21.37,4.62 1.2,0 2.52,0 3.96,0 1.47,0 3.08,0 4.84,0 l 0.11,-16.43"
         style="fill:#000000;fill-opacity:1;fill-rule:nonzero;stroke:none"
         id="path570" /><path
         d="m 3297.02,2728.09 h 16.94 l 21.19,-80.55 21.08,80.55 h 20.02 l 21.16,-80.55 21.12,80.55 h 16.94 l -26.99,-103.25 h -19.98 l -22.22,84.62 -22.29,-84.62 H 3324 l -26.98,103.25"
         style="fill:#000000;fill-opacity:1;fill-rule:nonzero;stroke:none"
         id="path572" /><path
         d="m 3512.2,2676.46 c -13.89,0 -23.51,-1.55 -28.86,-4.65 -5.35,-3.08 -8.03,-8.36 -8.03,-15.84 0,-5.94 2,-10.66 6.01,-14.15 4.04,-3.5 9.5,-5.25 16.39,-5.25 9.54,0 17.18,3.31 22.92,9.9 5.77,6.6 8.65,15.38 8.65,26.33 v 3.66 h -17.08 m 33.51,7.45 v -59.07 h -16.43 v 16.43 c -3.89,-6.41 -8.73,-11.14 -14.52,-14.19 -5.76,-3.06 -12.84,-4.59 -21.23,-4.59 -10.6,0 -19.04,2.97 -25.3,8.91 -6.23,5.97 -9.35,13.94 -9.35,23.91 0,11.66 3.88,20.45 11.63,26.36 7.74,5.92 19.31,8.88 34.68,8.88 h 24.09 v 1.54 c 0,7.72 -2.59,13.7 -7.77,17.93 -5.18,4.23 -12.47,6.34 -21.85,6.34 -5.97,0 -11.78,-0.78 -17.46,-2.35 -5.64,-1.56 -11.07,-3.91 -16.28,-7.04 v 16.43 c 6.21,2.35 12.24,4.1 18.08,5.28 5.87,1.17 11.57,1.76 17.13,1.76 14.95,0 26.12,-3.85 33.51,-11.55 7.38,-7.7 11.07,-19.36 11.07,-34.98"
         style="fill:#000000;fill-opacity:1;fill-rule:nonzero;stroke:none"
         id="path574" /><path
         d="m 3642.11,2714.01 c -1.95,0.81 -4.09,1.4 -6.41,1.76 -2.3,0.39 -4.83,0.59 -7.59,0.59 -9.85,0 -17.42,-3.22 -22.7,-9.65 -5.25,-6.42 -7.88,-15.66 -7.88,-27.71 v -54.16 h -16.43 v 103.25 h 16.43 v -16.43 c 3.67,6.36 8.43,11.08 14.3,14.16 5.87,3.08 12.99,4.62 21.37,4.62 1.2,0 2.52,0 3.96,0 1.47,0 3.09,0 4.84,0 l 0.11,-16.43"
         style="fill:#000000;fill-opacity:1;fill-rule:nonzero;stroke:none"
         id="path576" /><path
         d="m 3726.55,2711.66 v 56.32 h 16.42 v -143.14 h -16.42 v 16.43 c -3.55,-6.36 -8.03,-11.08 -13.46,-14.16 -5.43,-3.07 -11.94,-4.62 -19.54,-4.62 -12.44,0 -22.58,4.95 -30.4,14.85 -7.79,9.93 -11.7,22.97 -11.7,39.12 0,16.17 3.91,29.19 11.7,39.09 7.82,9.93 17.96,14.89 30.4,14.89 7.6,0 14.11,-1.54 19.54,-4.62 5.43,-3.08 9.91,-7.8 13.46,-14.16 m -56.32,-35.2 c 0,-12.44 2.49,-22.2 7.48,-29.29 5.01,-7.06 11.89,-10.6 20.64,-10.6 8.73,0 15.61,3.54 20.64,10.6 5.04,7.09 7.56,16.85 7.56,29.29 0,12.45 -2.52,22.2 -7.56,29.27 -5.03,7.09 -11.91,10.63 -20.64,10.63 -8.75,0 -15.63,-3.54 -20.64,-10.63 -4.99,-7.07 -7.48,-16.82 -7.48,-29.27"
         style="fill:#000000;fill-opacity:1;fill-rule:nonzero;stroke:none"
         id="path578" /><path
         d="m 3841.15,2760.95 h 18.78 v -57.54 l 60.86,57.54 h 23.61 l -67.31,-63.44 72.01,-72.67 h -24.13 l -65.04,65.56 v -65.56 h -18.78 v 136.11"
         style="fill:#000000;fill-opacity:1;fill-rule:nonzero;stroke:none"
         id="path580" /><path
         d="m 3964.83,2728.09 h 16.42 v -103.25 h -16.42 v 103.25 m 0,39.89 h 16.42 v -21.11 h -16.42 v 21.11"
         style="fill:#000000;fill-opacity:1;fill-rule:nonzero;stroke:none"
         id="path582" /><path
         d="m 4104.75,2686.88 v -62.04 h -16.43 v 61.49 c 0,10.05 -1.96,17.56 -5.9,22.55 -3.91,4.99 -9.79,7.48 -17.63,7.48 -9.41,0 -16.85,-3 -22.3,-8.98 -5.42,-5.97 -8.14,-14.11 -8.14,-24.42 v -58.12 h -16.42 v 103.25 h 16.42 v -16.43 c 4.11,6.29 8.95,10.98 14.52,14.09 5.6,3.13 12.04,4.69 19.33,4.69 12.02,0 21.12,-3.69 27.28,-11.07 6.18,-7.36 9.27,-18.19 9.27,-32.49"
         style="fill:#000000;fill-opacity:1;fill-rule:nonzero;stroke:none"
         id="path584" /><path
         d="m 4231.21,2680.57 v -8.8 h -77.43 c 0.73,-11.46 4.19,-20.2 10.37,-26.22 6.19,-5.98 14.8,-8.98 25.85,-8.98 6.41,0 12.62,0.79 18.63,2.35 6.01,1.56 11.98,3.91 17.89,7.04 v -16.42 c -6.06,-2.31 -12.28,-4.05 -18.66,-5.25 -6.38,-1.2 -12.86,-1.8 -19.43,-1.8 -16.43,0 -29.45,4.77 -39.05,14.3 -9.58,9.56 -14.38,22.48 -14.38,38.76 0,16.82 4.59,30.16 13.75,40.04 9.2,9.9 21.57,14.85 37.15,14.85 13.96,0 24.99,-4.48 33.11,-13.42 8.13,-8.95 12.2,-21.1 12.2,-36.45 m -16.42,5.28 c -0.12,9.29 -2.73,16.7 -7.81,22.22 -5.06,5.53 -11.77,8.29 -20.13,8.29 -9.46,0 -17.04,-2.68 -22.73,-8.03 -5.67,-5.33 -8.94,-12.85 -9.79,-22.55 l 60.46,0.07"
         style="fill:#000000;fill-opacity:1;fill-rule:nonzero;stroke:none"
         id="path586" /><path
         d="m 4339.66,2707.89 c 4.3,7.7 9.45,13.38 15.44,17.05 6.01,3.67 13.08,5.5 21.19,5.5 10.92,0 19.35,-3.78 25.26,-11.33 5.94,-7.56 8.91,-18.3 8.91,-32.23 v -62.04 h -16.42 v 61.49 c 0,10.17 -1.83,17.71 -5.47,22.62 -3.61,4.94 -9.15,7.41 -16.61,7.41 -9.12,0 -16.33,-3 -21.63,-8.98 -5.28,-5.97 -7.92,-14.11 -7.92,-24.42 v -58.12 h -16.43 v 61.49 c 0,10.24 -1.82,17.81 -5.46,22.7 -3.62,4.88 -9.23,7.33 -16.83,7.33 -8.97,0 -16.11,-3.01 -21.41,-9.02 -5.28,-6.02 -7.92,-14.14 -7.92,-24.38 v -58.12 h -16.43 v 103.25 h 16.43 v -16.43 c 3.96,6.41 8.69,11.14 14.19,14.2 5.52,3.05 12.09,4.58 19.69,4.58 7.65,0 14.15,-1.93 19.5,-5.8 5.38,-3.83 9.35,-9.42 11.92,-16.75"
         style="fill:#000000;fill-opacity:1;fill-rule:nonzero;stroke:none"
         id="path588" /><path
         d="m 4493.46,2676.46 c -13.89,0 -23.5,-1.55 -28.86,-4.65 -5.35,-3.08 -8.03,-8.36 -8.03,-15.84 0,-5.94 2.01,-10.66 6.02,-14.15 4.03,-3.5 9.49,-5.25 16.39,-5.25 9.53,0 17.17,3.31 22.91,9.9 5.77,6.6 8.66,15.38 8.66,26.33 v 3.66 h -17.09 m 33.51,7.45 v -59.07 h -16.42 v 16.43 c -3.89,-6.41 -8.73,-11.14 -14.52,-14.19 -5.77,-3.06 -12.85,-4.59 -21.23,-4.59 -10.61,0 -19.05,2.97 -25.3,8.91 -6.24,5.97 -9.36,13.94 -9.36,23.91 0,11.66 3.88,20.45 11.63,26.36 7.75,5.92 19.31,8.88 34.69,8.88 h 24.09 v 1.54 c 0,7.72 -2.6,13.7 -7.78,17.93 -5.18,4.23 -12.47,6.34 -21.85,6.34 -5.97,0 -11.78,-0.78 -17.46,-2.35 -5.64,-1.56 -11.07,-3.91 -16.27,-7.04 v 16.43 c 6.2,2.35 12.23,4.1 18.07,5.28 5.87,1.17 11.58,1.76 17.13,1.76 14.95,0 26.13,-3.85 33.51,-11.55 7.38,-7.7 11.07,-19.36 11.07,-34.98"
         style="fill:#000000;fill-opacity:1;fill-rule:nonzero;stroke:none"
         id="path590" /><path
         d="m 4578.79,2756.25 v -28.16 h 35.2 v -14.08 h -35.2 v -55.47 c 0,-8.34 1.16,-13.69 3.48,-16.06 2.33,-2.37 7.05,-3.56 14.16,-3.56 h 17.56 v -14.08 h -17.56 c -12.91,0 -21.82,2.42 -26.73,7.26 -4.89,4.84 -7.34,13.65 -7.34,26.44 v 55.47 h -11.73 v 14.08 h 11.73 v 28.16 h 16.43"
         style="fill:#000000;fill-opacity:1;fill-rule:nonzero;stroke:none"
         id="path592" /><path
         d="m 4637.41,2728.09 h 16.43 v -103.25 h -16.43 v 103.25 m 0,39.89 h 16.43 v -21.11 h -16.43 v 21.11"
         style="fill:#000000;fill-opacity:1;fill-rule:nonzero;stroke:none"
         id="path594" /><path
         d="m 4767.95,2725.75 v -16.43 c -4.77,2.34 -9.55,4.11 -14.34,5.28 -4.79,1.17 -9.63,1.76 -14.52,1.76 -10.92,0 -19.41,-3.5 -25.45,-10.49 -6.03,-6.99 -9.05,-16.79 -9.05,-29.41 0,-12.61 3.02,-22.41 9.05,-29.4 6.04,-6.99 14.53,-10.49 25.45,-10.49 4.89,0 9.73,0.59 14.52,1.76 4.79,1.18 9.57,2.94 14.34,5.28 v -16.42 c -4.77,-1.57 -9.7,-2.74 -14.81,-3.52 -5.09,-0.79 -10.5,-1.18 -16.25,-1.18 -15.64,0 -28.07,4.87 -37.29,14.6 -9.19,9.73 -13.78,22.85 -13.78,39.37 0,16.77 4.64,29.96 13.93,39.57 9.31,9.61 22.06,14.41 38.24,14.41 5.26,0 10.39,-0.39 15.4,-1.17 5.01,-0.79 9.86,-1.96 14.56,-3.52"
         style="fill:#000000;fill-opacity:1;fill-rule:nonzero;stroke:none"
         id="path596" /><path
         d="m 4864.05,2725.75 v -16.43 c -4.79,2.34 -9.78,4.11 -14.96,5.28 -5.16,1.17 -10.51,1.76 -16.06,1.76 -8.43,0 -14.76,-1.29 -18.99,-3.85 -4.21,-2.57 -6.31,-6.42 -6.31,-11.55 0,-3.94 1.52,-7.01 4.55,-9.24 3.03,-2.22 9.11,-4.35 18.26,-6.38 l 5.83,-1.29 c 11.7,-2.56 20.03,-6.19 24.97,-10.88 4.93,-4.7 7.4,-11.24 7.4,-19.62 0,-9.56 -3.72,-17.12 -11.18,-22.7 -7.43,-5.57 -17.66,-8.36 -30.69,-8.36 -5.42,0 -11.08,0.59 -16.98,1.76 -5.89,1.18 -12.09,2.94 -18.59,5.29 v 16.42 c 6.21,-3.13 12.34,-5.48 18.38,-7.04 6.03,-1.56 12.01,-2.35 17.93,-2.35 7.94,0 14.04,1.36 18.29,4.07 4.28,2.74 6.42,6.58 6.42,11.52 0,4.59 -1.57,8.11 -4.69,10.55 -3.11,2.45 -9.95,4.8 -20.54,7.05 l -5.9,1.39 c -10.54,2.2 -18.15,5.58 -22.85,10.15 -4.69,4.58 -7.04,10.85 -7.04,18.82 0,9.68 3.45,17.14 10.34,22.4 6.9,5.28 16.69,7.92 29.38,7.92 6.25,0 12.16,-0.39 17.7,-1.17 5.55,-0.79 10.66,-1.96 15.33,-3.52"
         style="fill:#000000;fill-opacity:1;fill-rule:nonzero;stroke:none"
         id="path598" /></g></g></svg>
