<?xml version="1.0" encoding="UTF-8" standalone="no"?>
<!-- Created with Inkscape (http://www.inkscape.org/) -->

<svg
   version="1.1"
   id="svg2"
   xml:space="preserve"
   width="1249.3333"
   height="470.66666"
   viewBox="0 0 1249.3333 470.66666"
   sodipodi:docname="twolink2.svg"
   inkscape:version="1.1 (c4e8f9e, 2021-05-24)"
   xmlns:inkscape="http://www.inkscape.org/namespaces/inkscape"
   xmlns:sodipodi="http://sodipodi.sourceforge.net/DTD/sodipodi-0.dtd"
   xmlns="http://www.w3.org/2000/svg"
   xmlns:svg="http://www.w3.org/2000/svg"><defs
     id="defs6" /><sodipodi:namedview
     id="namedview4"
     pagecolor="#ffffff"
     bordercolor="#666666"
     borderopacity="1.0"
     inkscape:pageshadow="2"
     inkscape:pageopacity="0.0"
     inkscape:pagecheckerboard="0"
     showgrid="false"
     inkscape:zoom="0.8820705"
     inkscape:cx="624.66663"
     inkscape:cy="248.84632"
     inkscape:window-width="1315"
     inkscape:window-height="1081"
     inkscape:window-x="0"
     inkscape:window-y="25"
     inkscape:window-maximized="0"
     inkscape:current-layer="g8" /><g
     id="g8"
     inkscape:groupmode="layer"
     inkscape:label="twolink2"
     transform="matrix(1.3333333,0,0,-1.3333333,0,470.66667)"><g
       id="g10"
       transform="scale(0.1)"><path
         d="M 283.75,3068.91 297.344,77.6211"
         style="fill:none;stroke:#000000;stroke-width:28.346;stroke-linecap:butt;stroke-linejoin:miter;stroke-miterlimit:10;stroke-dasharray:none;stroke-opacity:1"
         id="path12" /><path
         d="m 355.113,2959.2 -71.508,141.41 -70.222,-142.06"
         style="fill:none;stroke:#000000;stroke-width:28.346;stroke-linecap:butt;stroke-linejoin:miter;stroke-miterlimit:10;stroke-dasharray:none;stroke-opacity:1"
         id="path14" /><path
         d="M 225.98,187.336 297.488,45.9297 367.711,187.98"
         style="fill:none;stroke:#000000;stroke-width:28.346;stroke-linecap:butt;stroke-linejoin:miter;stroke-miterlimit:10;stroke-dasharray:none;stroke-opacity:1"
         id="path16" /><path
         d="M 77.5586,311.871 H 3550.73"
         style="fill:none;stroke:#000000;stroke-width:28.346;stroke-linecap:butt;stroke-linejoin:miter;stroke-miterlimit:10;stroke-dasharray:none;stroke-opacity:1"
         id="path18" /><path
         d="M 187.594,382.734 45.8633,311.871 187.594,241.004"
         style="fill:none;stroke:#000000;stroke-width:28.346;stroke-linecap:butt;stroke-linejoin:miter;stroke-miterlimit:10;stroke-dasharray:none;stroke-opacity:1"
         id="path20" /><path
         d="m 3440.7,241.004 141.72,70.867 -141.72,70.863"
         style="fill:none;stroke:#000000;stroke-width:28.346;stroke-linecap:butt;stroke-linejoin:miter;stroke-miterlimit:10;stroke-dasharray:none;stroke-opacity:1"
         id="path22" /><path
         d="M 283.461,326.043 2565.31,1218.94"
         style="fill:none;stroke:#0000ff;stroke-width:28.346;stroke-linecap:butt;stroke-linejoin:miter;stroke-miterlimit:10;stroke-dasharray:none;stroke-opacity:1"
         id="path24" /><path
         d="m 2579.49,1218.94 524.4,1672.42"
         style="fill:none;stroke:#0000ff;stroke-width:28.346;stroke-linecap:butt;stroke-linejoin:miter;stroke-miterlimit:10;stroke-dasharray:none;stroke-opacity:1"
         id="path26" /><path
         d="M 283.461,326.043 3075.54,2848.84"
         style="fill:none;stroke:#ff0000;stroke-width:28.346;stroke-linecap:butt;stroke-linejoin:miter;stroke-miterlimit:10;stroke-dasharray:none;stroke-opacity:1"
         id="path28" /><path
         d="m 2043.69,1254.05 c -12.66,0 -21.44,-1.46 -26.32,-4.36 -4.89,-2.91 -7.33,-7.89 -7.33,-14.93 0,-5.6 1.83,-10.05 5.5,-13.35 3.66,-3.27 8.65,-4.91 14.95,-4.91 8.71,0 15.69,3.08 20.94,9.24 5.25,6.19 7.88,14.4 7.88,24.64 v 3.67 h -15.62 m 32.05,6.2 v -55.48 h -16.43 v 14.08 c -3.61,-5.62 -8.13,-9.77 -13.53,-12.43 -5.4,-2.67 -12.01,-4 -19.83,-4 -9.9,0 -17.77,2.76 -23.62,8.29 -5.81,5.55 -8.72,12.97 -8.72,22.25 0,10.86 3.65,19.04 10.96,24.54 7.31,5.52 18.22,8.28 32.74,8.28 h 22 v 1.76 c 0,7.65 -2.4,13.57 -7.22,17.75 -4.79,4.2 -11.53,6.3 -20.2,6.3 -5.53,0 -10.91,-0.58 -16.14,-1.75 -5.23,-1.18 -10.26,-2.94 -15.1,-5.29 v 14.09 c 5.84,2.34 11.51,4.1 17.01,5.27 5.52,1.18 10.89,1.77 16.1,1.77 14.08,0 24.59,-3.77 31.53,-11.3 6.97,-7.5 10.45,-18.88 10.45,-34.13"
         style="fill:#000000;fill-opacity:1;fill-rule:nonzero;stroke:none"
         id="path30" /><path
         d="m 2624.79,1962.7 c -12.67,0 -21.44,-1.45 -26.33,-4.36 -4.89,-2.91 -7.34,-7.89 -7.34,-14.93 0,-5.59 1.84,-10.04 5.5,-13.34 3.67,-3.28 8.66,-4.92 14.97,-4.92 8.7,0 15.68,3.08 20.93,9.24 5.26,6.19 7.89,14.4 7.89,24.64 v 3.67 h -15.62 m 32.04,6.19 v -55.47 h -16.42 v 14.08 c -3.62,-5.62 -8.13,-9.77 -13.53,-12.43 -5.41,-2.66 -12.02,-4 -19.84,-4 -9.9,0 -17.77,2.77 -23.61,8.29 -5.82,5.55 -8.73,12.97 -8.73,22.26 0,10.85 3.66,19.02 10.96,24.52 7.31,5.53 18.23,8.29 32.75,8.29 h 22 v 1.76 c 0,7.65 -2.41,13.57 -7.23,17.75 -4.79,4.2 -11.52,6.31 -20.2,6.31 -5.52,0 -10.9,-0.59 -16.13,-1.77 -5.23,-1.17 -10.27,-2.93 -15.11,-5.27 v 14.08 c 5.84,2.34 11.51,4.1 17.01,5.28 5.53,1.17 10.89,1.75 16.1,1.75 14.08,0 24.59,-3.76 31.53,-11.29 6.97,-7.5 10.45,-18.88 10.45,-34.14"
         style="fill:#000000;fill-opacity:1;fill-rule:nonzero;stroke:none"
         id="path32" /><path
         d="m 2121.07,1147.98 h 28.16 v 100.91 l -30.51,-7.04 v 14.08 l 31.46,7.04 H 2168 v -114.99 h 28.16 v -14.07 h -75.09 v 14.07"
         style="fill:#000000;fill-opacity:1;fill-rule:nonzero;stroke:none"
         id="path34" /><path
         d="m 2684.75,1828.29 h 62.51 v -14.08 h -82.83 v 14.08 c 6.6,6.94 15.59,16.25 26.95,27.94 11.37,11.71 18.52,19.25 21.45,22.62 5.55,6.36 9.42,11.74 11.62,16.13 2.23,4.43 3.34,8.77 3.34,13.02 0,6.94 -2.43,12.6 -7.3,16.98 -4.84,4.37 -11.14,6.56 -18.92,6.56 -5.52,0 -11.35,-1.17 -17.48,-3.52 -6.14,-2.32 -12.69,-5.84 -19.66,-10.56 v 18.77 c 7.19,3.11 13.9,5.44 20.13,7.01 6.23,1.58 11.94,2.38 17.12,2.38 13.67,0 24.56,-3.36 32.68,-10.08 8.13,-6.72 12.2,-15.71 12.2,-26.95 0,-5.33 -1.02,-10.39 -3.08,-15.18 -2.03,-4.77 -5.73,-10.39 -11.1,-16.87 -1.47,-1.68 -6.18,-6.55 -14.12,-14.59 -7.92,-8.02 -19.09,-19.24 -33.51,-33.66"
         style="fill:#000000;fill-opacity:1;fill-rule:nonzero;stroke:none"
         id="path36" /><path
         d="m 2311.89,1060.38 c 124.99,-138.884 194.16,-319.118 194.16,-505.962 0,-82.484 -13.5,-164.418 -39.95,-242.547"
         style="fill:none;stroke:#00ff00;stroke-width:28.346;stroke-linecap:butt;stroke-linejoin:miter;stroke-miterlimit:10;stroke-dasharray:none;stroke-opacity:1"
         id="path38" /><path
         d="m 2442.58,1038.43 -151.81,45.43 54.75,-148.708"
         style="fill:none;stroke:#00ff00;stroke-width:28.346;stroke-linecap:butt;stroke-linejoin:miter;stroke-miterlimit:10;stroke-dasharray:none;stroke-opacity:1"
         id="path40" /><path
         d="m 3329.54,2063.12 c 0,11.49 -2.02,22.08 -6.05,31.79 -4.01,9.73 -9.57,17.94 -16.69,24.64 -7.26,6.86 -15.78,12.24 -25.59,16.13 -9.78,3.89 -20.26,5.83 -31.46,5.83 -11.36,0 -21.95,-1.98 -31.75,-5.94 -9.78,-3.96 -18.05,-9.14 -24.82,-15.55 -7.43,-7.01 -13.17,-15.34 -17.2,-24.97 -4.01,-9.63 -6.02,-20.35 -6.02,-32.15 0,-10.76 1.9,-20.92 5.69,-30.47 3.79,-9.56 9.15,-17.92 16.1,-25.08 6.94,-7.17 15.3,-12.8 25.07,-16.9 9.81,-4.11 20.78,-6.16 32.93,-6.16 12.15,0 23.15,2.09 33,6.26 9.88,4.18 18.29,9.86 25.23,17.02 6.97,7.16 12.29,15.52 15.98,25.08 3.72,9.55 5.58,19.71 5.58,30.47 m -28.16,-1.54 c 0,-10.96 -0.91,-19.77 -2.72,-26.44 -1.78,-6.65 -4.15,-12.71 -7.11,-18.19 -1.85,-3.54 -4.31,-6.75 -7.37,-9.64 -3.03,-2.88 -6.38,-5.33 -10.04,-7.33 -3.65,-1.98 -7.57,-3.53 -11.78,-4.66 -4.2,-1.1 -8.4,-1.65 -12.61,-1.65 -4.67,0 -9.15,0.59 -13.45,1.76 -4.28,1.2 -8.25,2.86 -11.92,4.99 -3.64,2.15 -6.91,4.7 -9.79,7.66 -2.89,2.96 -5.26,6.15 -7.11,9.57 -3.75,7.09 -6.24,14.18 -7.48,21.27 -1.25,7.11 -1.88,14.66 -1.88,22.66 0,10.92 1.06,20.16 3.16,27.72 2.1,7.55 4.24,13.47 6.42,17.74 4.05,8 9.77,14.17 17.16,18.52 7.4,4.37 15.77,6.56 25.11,6.56 9.37,0 17.66,-2.22 24.9,-6.67 7.24,-4.42 13.04,-10.78 17.42,-19.07 2.64,-4.88 4.81,-11.26 6.52,-19.1 1.71,-7.82 2.57,-16.39 2.57,-25.7 m -18.08,-19.11 c -0.32,2.67 -0.63,5.82 -0.95,9.46 -0.3,3.64 -0.44,7.34 -0.44,11.08 0,3.76 0.14,7.5 0.44,11.22 0.32,3.71 0.63,6.74 0.95,9.09 l -3.52,0.26 c -2.66,-8.31 -7.82,-12.47 -15.47,-12.47 h -30.03 c -3.13,0 -6.11,0.82 -8.95,2.46 -2.81,1.66 -5,5 -6.56,10.01 l -3.52,-0.26 c 0.32,-2.96 0.63,-6.15 0.95,-9.57 0.32,-3.4 0.48,-6.98 0.48,-10.74 0,-3.74 -0.16,-7.44 -0.48,-11.08 -0.32,-3.64 -0.63,-6.79 -0.95,-9.46 l 3.52,-0.25 c 1.73,5.01 3.97,8.33 6.71,9.97 2.73,1.66 5.9,2.49 9.5,2.49 h 29.33 c 3.28,0 6.28,-0.86 9.02,-2.6 2.74,-1.71 4.89,-5 6.45,-9.86 l 3.52,0.25"
         style="fill:#000000;fill-opacity:1;fill-rule:nonzero;stroke:none"
         id="path42" /><path
         d="m 2694.59,819.438 c 0,11.488 -2.02,22.082 -6.05,31.789 -4.01,9.726 -9.57,17.941 -16.68,24.64 -7.27,6.867 -15.8,12.246 -25.6,16.133 -9.78,3.887 -20.26,5.828 -31.46,5.828 -11.37,0 -21.95,-1.98 -31.75,-5.937 -9.78,-3.961 -18.05,-9.145 -24.82,-15.547 -7.44,-7.016 -13.17,-15.34 -17.2,-24.973 -4.01,-9.629 -6.01,-20.348 -6.01,-32.156 0,-10.754 1.89,-20.91 5.68,-30.469 3.79,-9.558 9.15,-17.918 16.1,-25.078 6.94,-7.164 15.3,-12.797 25.08,-16.906 9.8,-4.106 20.77,-6.157 32.92,-6.157 12.15,0 23.15,2.09 33,6.27 9.88,4.18 18.29,9.848 25.23,17.012 6.96,7.16 12.29,15.523 15.99,25.078 3.71,9.558 5.57,19.715 5.57,30.473 m -28.16,-1.543 c 0,-10.95 -0.91,-19.762 -2.72,-26.434 -1.78,-6.649 -4.15,-12.711 -7.11,-18.188 -1.86,-3.543 -4.31,-6.757 -7.37,-9.644 -3.03,-2.883 -6.38,-5.328 -10.05,-7.332 -3.64,-1.981 -7.56,-3.531 -11.77,-4.656 -4.2,-1.102 -8.41,-1.653 -12.61,-1.653 -4.67,0 -9.15,0.59 -13.46,1.762 -4.27,1.199 -8.25,2.859 -11.91,4.988 -3.64,2.149 -6.91,4.703 -9.79,7.66 -2.89,2.961 -5.26,6.149 -7.12,9.571 -3.73,7.09 -6.23,14.179 -7.47,21.269 -1.25,7.114 -1.87,14.664 -1.87,22.657 0,10.929 1.05,20.167 3.15,27.722 2.1,7.551 4.24,13.469 6.42,17.746 4.05,7.992 9.77,14.164 17.16,18.516 7.4,4.375 15.77,6.562 25.11,6.562 9.36,0 17.66,-2.222 24.9,-6.671 7.23,-4.426 13.04,-10.782 17.42,-19.067 2.63,-4.891 4.81,-11.258 6.52,-19.105 1.71,-7.821 2.57,-16.387 2.57,-25.703 m -18.08,-19.102 c -0.32,2.664 -0.64,5.816 -0.95,9.461 -0.29,3.641 -0.44,7.332 -0.44,11.07 0,3.766 0.15,7.508 0.44,11.223 0.31,3.715 0.63,6.746 0.95,9.094 l -3.52,0.254 c -2.66,-8.309 -7.82,-12.465 -15.47,-12.465 h -30.03 c -3.13,0 -6.11,0.82 -8.95,2.457 -2.81,1.66 -5,5 -6.56,10.008 l -3.52,-0.254 c 0.32,-2.961 0.63,-6.149 0.95,-9.571 0.32,-3.398 0.48,-6.98 0.48,-10.746 0,-3.738 -0.16,-7.429 -0.48,-11.07 -0.32,-3.645 -0.63,-6.797 -0.95,-9.461 l 3.52,-0.258 c 1.73,5.012 3.97,8.336 6.71,9.973 2.74,1.664 5.9,2.496 9.49,2.496 h 29.34 c 3.27,0 6.28,-0.867 9.02,-2.606 2.74,-1.71 4.89,-4.996 6.45,-9.863 l 3.52,0.258"
         style="fill:#000000;fill-opacity:1;fill-rule:nonzero;stroke:none"
         id="path44" /><path
         d="m 2716.34,666.102 h 28.16 v 100.906 l -30.51,-7.039 v 14.078 l 31.46,7.039 h 17.82 V 666.102 h 28.16 v -14.079 h -75.09 v 14.079"
         style="fill:#000000;fill-opacity:1;fill-rule:nonzero;stroke:none"
         id="path46" /><path
         d="M 2579.49,1218.94 3883.4,1715"
         style="fill:none;stroke:#0000ff;stroke-width:28.346;stroke-linecap:butt;stroke-linejoin:miter;stroke-miterlimit:10;stroke-dasharray:56.692;stroke-dashoffset:0;stroke-opacity:1"
         id="path48" /><path
         d="m 2936.89,2077.31 c 231.09,-91.97 385.71,-312.15 393.77,-560.74"
         style="fill:none;stroke:#00ff00;stroke-width:28.346;stroke-linecap:butt;stroke-linejoin:miter;stroke-miterlimit:10;stroke-dasharray:none;stroke-opacity:1"
         id="path50" /><path
         d="m 3063.32,2118.27 -155.72,-29.29 116.86,-107.01"
         style="fill:none;stroke:#00ff00;stroke-width:28.346;stroke-linecap:butt;stroke-linejoin:miter;stroke-miterlimit:10;stroke-dasharray:none;stroke-opacity:1"
         id="path52" /><path
         d="m 3308.36,1856.63 h 62.51 v -14.08 h -82.83 v 14.08 c 6.6,6.95 15.58,16.26 26.95,27.94 11.37,11.71 18.52,19.25 21.45,22.63 5.55,6.35 9.43,11.73 11.63,16.13 2.22,4.42 3.33,8.76 3.33,13.02 0,6.94 -2.43,12.6 -7.29,16.97 -4.84,4.38 -11.15,6.57 -18.92,6.57 -5.53,0 -11.36,-1.18 -17.49,-3.52 -6.14,-2.33 -12.69,-5.85 -19.66,-10.56 v 18.77 c 7.19,3.1 13.9,5.44 20.13,7 6.24,1.59 11.94,2.38 17.13,2.38 13.66,0 24.55,-3.35 32.66,-10.08 8.15,-6.72 12.22,-15.7 12.22,-26.95 0,-5.32 -1.03,-10.39 -3.09,-15.18 -2.02,-4.76 -5.73,-10.39 -11.11,-16.86 -1.46,-1.69 -6.17,-6.55 -14.11,-14.6 -7.92,-8.01 -19.09,-19.24 -33.51,-33.66"
         style="fill:#000000;fill-opacity:1;fill-rule:nonzero;stroke:none"
         id="path54" /><path
         d="m 3316.11,2999.12 c -7.95,-13.42 -13.85,-26.7 -17.71,-39.82 -3.84,-13.1 -5.76,-26.4 -5.76,-39.9 0,-13.47 1.95,-26.81 5.83,-40.04 3.89,-13.2 9.77,-26.47 17.64,-39.82 h -14.23 c -8.58,13.72 -15,27.19 -19.28,40.41 -4.26,13.25 -6.38,26.4 -6.38,39.45 0,13.01 2.11,26.1 6.34,39.27 4.23,13.2 10.67,26.69 19.32,40.45 h 14.23"
         style="fill:#000000;fill-opacity:1;fill-rule:nonzero;stroke:none"
         id="path56" /><path
         d="m 3426.8,2961.57 -35.12,-47.96 37.47,-50.6 h -19.03 l -28.6,38.72 -27.76,-38.72 h -18.48 l 36.89,51.55 -34.54,47.01 h 18.81 l 25.77,-35.13 25.78,35.13 h 18.81"
         style="fill:#000000;fill-opacity:1;fill-rule:nonzero;stroke:none"
         id="path58" /><path
         d="m 3459.32,2884.13 h 18.78 v -14.77 l -14.08,-27.47 h -11.73 l 7.03,27.47 v 14.77"
         style="fill:#000000;fill-opacity:1;fill-rule:nonzero;stroke:none"
         id="path60" /><path
         d="m 3552.09,2854.29 c -4.45,-11.93 -8.79,-19.72 -13.02,-23.36 -4.2,-3.64 -9.84,-5.47 -16.9,-5.47 h -12.54 v 14.08 h 9.24 c 4.33,0 7.67,1.04 10.04,3.12 2.4,2.08 5.05,6.97 7.96,14.67 l 2.83,7.37 -39.46,96.87 h 17.42 l 29.88,-77.07 29.92,77.07 h 16.65 l -42.02,-107.28"
         style="fill:#000000;fill-opacity:1;fill-rule:nonzero;stroke:none"
         id="path62" /><path
         d="m 3617.24,2999.12 h 14.23 c 8.58,-13.76 14.99,-27.25 19.25,-40.45 4.28,-13.17 6.42,-26.26 6.42,-39.27 0,-13.05 -2.14,-26.2 -6.42,-39.45 -4.26,-13.22 -10.67,-26.69 -19.25,-40.41 h -14.23 c 7.87,13.35 13.75,26.62 17.64,39.82 3.89,13.23 5.83,26.57 5.83,40.04 0,13.5 -1.94,26.8 -5.83,39.9 -3.89,13.12 -9.77,26.4 -17.64,39.82"
         style="fill:#000000;fill-opacity:1;fill-rule:nonzero;stroke:none"
         id="path64" /><path
         d="m 3747.07,297.699 v 5.68 l -6.86,0.992 c -2.27,0.367 -2.09,2.531 -1.06,4.656 3.89,8.395 9.5,17.782 15.44,27.942 h 0.4 l 16.17,-27.137 c 1.98,-3.336 1.47,-5.094 -1.13,-5.461 l -7.26,-0.992 v -5.68 h 45.57 v 5.68 c -8.72,0 -12.02,0.59 -16.86,7.703 -8.95,13.09 -18.04,26.91 -26.59,40.77 6.46,9.937 14.08,19.875 21.75,29.226 5.06,6.34 7.62,7.149 17.01,7.149 v 5.683 h -35.2 v -5.683 l 6.67,-0.77 c 2.75,-0.402 2.35,-2.383 0.99,-4.512 -4.43,-7.48 -9.68,-15.691 -15.47,-24.711 h -0.22 l -16.24,24.493 c -1.54,2.347 -1.14,4.511 1.72,4.914 l 5.79,0.586 v 5.683 h -41.91 v -5.683 c 8.03,0 10.05,-0.403 14.85,-6.965 8.44,-11.516 17.09,-24.422 25.71,-37.145 -7.19,-10.742 -14.74,-22.074 -22.7,-32.781 -5.06,-6.965 -9.31,-7.957 -17.86,-7.957 v -5.68 h 37.29"
         style="fill:#000000;fill-opacity:1;fill-rule:nonzero;stroke:none"
         id="path66" /><path
         d="m 265.742,3412.76 v -5.69 c 9.426,0 11.367,-1.17 14.887,-9.78 9.828,-23.54 26.109,-65.34 30.801,-78.87 1.172,-3.34 1.578,-6.27 1.578,-9.61 0,-4.55 -1.653,-10.49 -4.438,-16.79 -2.785,-6.53 -6.125,-8.32 -8.14,-8.32 -1.981,0 -3.778,0.58 -7.332,4.21 -2.016,1.83 -3.594,2.82 -5.977,2.82 -3.812,0 -8.875,-5.35 -8.875,-11.07 0,-4.62 5.649,-10.05 14.117,-10.05 7.625,0 17.379,2.35 27.133,31.43 11.844,34.94 29.445,82.86 35.348,96.61 3.445,7.85 4.582,9.42 14.152,9.42 v 5.69 h -37.547 v -5.69 l 10.34,-0.98 c 3.375,-0.37 3.777,-2.72 2.824,-6.61 -2.933,-11.69 -12.98,-41.13 -21.488,-64.53 h -0.363 c -8.473,23.58 -15.879,44.85 -22.7,65.3 -1.097,3.53 -1.464,5.65 2.79,6.05 l 7.918,0.77 v 5.69 h -45.028"
         style="fill:#000000;fill-opacity:1;fill-rule:nonzero;stroke:none"
         id="path68" /><path
         d="m 5567.44,3101.51 13.6,-2991.291"
         style="fill:none;stroke:#000000;stroke-width:28.346;stroke-linecap:butt;stroke-linejoin:miter;stroke-miterlimit:10;stroke-dasharray:none;stroke-opacity:1"
         id="path70" /><path
         d="m 5638.81,2991.8 -71.51,141.4 -70.22,-142.05"
         style="fill:none;stroke:#000000;stroke-width:28.346;stroke-linecap:butt;stroke-linejoin:miter;stroke-miterlimit:10;stroke-dasharray:none;stroke-opacity:1"
         id="path72" /><path
         d="m 5509.68,219.934 71.5,-141.4067 70.23,142.0507"
         style="fill:none;stroke:#000000;stroke-width:28.346;stroke-linecap:butt;stroke-linejoin:miter;stroke-miterlimit:10;stroke-dasharray:none;stroke-opacity:1"
         id="path74" /><path
         d="M 5361.25,344.469 H 8834.43"
         style="fill:none;stroke:#000000;stroke-width:28.346;stroke-linecap:butt;stroke-linejoin:miter;stroke-miterlimit:10;stroke-dasharray:none;stroke-opacity:1"
         id="path76" /><path
         d="m 5471.29,415.332 -141.73,-70.863 141.73,-70.867"
         style="fill:none;stroke:#000000;stroke-width:28.346;stroke-linecap:butt;stroke-linejoin:miter;stroke-miterlimit:10;stroke-dasharray:none;stroke-opacity:1"
         id="path78" /><path
         d="m 8724.39,273.602 141.73,70.867 -141.73,70.863"
         style="fill:none;stroke:#000000;stroke-width:28.346;stroke-linecap:butt;stroke-linejoin:miter;stroke-miterlimit:10;stroke-dasharray:none;stroke-opacity:1"
         id="path80" /><path
         d="M 5567.16,358.641 7849.01,1251.54"
         style="fill:none;stroke:#0000ff;stroke-width:28.346;stroke-linecap:butt;stroke-linejoin:miter;stroke-miterlimit:10;stroke-dasharray:none;stroke-opacity:1"
         id="path82" /><path
         d="m 7863.18,1251.54 524.4,1672.41"
         style="fill:none;stroke:#0000ff;stroke-width:28.346;stroke-linecap:butt;stroke-linejoin:miter;stroke-miterlimit:10;stroke-dasharray:none;stroke-opacity:1"
         id="path84" /><path
         d="M 5567.16,358.641 8359.24,2881.43"
         style="fill:none;stroke:#ff0000;stroke-width:28.346;stroke-linecap:butt;stroke-linejoin:miter;stroke-miterlimit:10;stroke-dasharray:none;stroke-opacity:1"
         id="path86" /><path
         d="m 7327.39,1286.65 c -12.66,0 -21.44,-1.46 -26.33,-4.36 -4.89,-2.91 -7.33,-7.89 -7.33,-14.93 0,-5.6 1.83,-10.05 5.5,-13.34 3.66,-3.28 8.65,-4.92 14.96,-4.92 8.7,0 15.68,3.08 20.93,9.24 5.26,6.18 7.89,14.4 7.89,24.64 v 3.67 h -15.62 m 32.04,6.19 v -55.47 h -16.42 v 14.08 c -3.62,-5.63 -8.13,-9.77 -13.53,-12.43 -5.41,-2.67 -12.02,-4 -19.84,-4 -9.9,0 -17.77,2.76 -23.61,8.29 -5.82,5.55 -8.73,12.96 -8.73,22.25 0,10.86 3.66,19.03 10.97,24.53 7.3,5.53 18.22,8.29 32.74,8.29 h 22 v 1.76 c 0,7.65 -2.41,13.57 -7.22,17.75 -4.8,4.2 -11.53,6.3 -20.21,6.3 -5.52,0 -10.9,-0.58 -16.13,-1.76 -5.23,-1.17 -10.27,-2.93 -15.11,-5.28 v 14.08 c 5.84,2.35 11.52,4.11 17.02,5.28 5.52,1.18 10.89,1.76 16.09,1.76 14.08,0 24.59,-3.76 31.53,-11.29 6.97,-7.5 10.45,-18.88 10.45,-34.14"
         style="fill:#000000;fill-opacity:1;fill-rule:nonzero;stroke:none"
         id="path88" /><path
         d="m 7908.48,1995.3 c -12.66,0 -21.44,-1.46 -26.32,-4.37 -4.89,-2.91 -7.34,-7.88 -7.34,-14.92 0,-5.6 1.84,-10.05 5.5,-13.35 3.67,-3.27 8.66,-4.91 14.96,-4.91 8.7,0 15.68,3.08 20.94,9.24 5.25,6.19 7.88,14.4 7.88,24.64 v 3.67 h -15.62 m 32.05,6.19 v -55.47 h -16.43 v 14.08 c -3.62,-5.62 -8.13,-9.77 -13.53,-12.43 -5.4,-2.67 -12.01,-4 -19.84,-4 -9.89,0 -17.77,2.76 -23.61,8.29 -5.82,5.55 -8.73,12.97 -8.73,22.25 0,10.86 3.66,19.03 10.97,24.53 7.31,5.53 18.22,8.29 32.74,8.29 h 22 v 1.76 c 0,7.65 -2.4,13.57 -7.22,17.75 -4.79,4.2 -11.53,6.3 -20.2,6.3 -5.53,0 -10.91,-0.58 -16.14,-1.76 -5.23,-1.17 -10.26,-2.93 -15.11,-5.28 v 14.08 c 5.85,2.35 11.52,4.11 17.02,5.28 5.52,1.18 10.89,1.76 16.1,1.76 14.07,0 24.59,-3.76 31.53,-11.29 6.96,-7.51 10.45,-18.88 10.45,-34.14"
         style="fill:#000000;fill-opacity:1;fill-rule:nonzero;stroke:none"
         id="path90" /><path
         d="m 7404.77,1180.58 h 28.16 v 100.91 l -30.51,-7.04 v 14.08 l 31.46,7.04 h 17.82 v -114.99 h 28.16 v -14.08 h -75.09 v 14.08"
         style="fill:#000000;fill-opacity:1;fill-rule:nonzero;stroke:none"
         id="path92" /><path
         d="m 7968.44,1860.89 h 62.52 v -14.09 h -82.84 v 14.09 c 6.61,6.94 15.59,16.25 26.95,27.93 11.37,11.72 18.52,19.25 21.46,22.63 5.54,6.35 9.42,11.73 11.62,16.13 2.23,4.43 3.33,8.76 3.33,13.02 0,6.94 -2.43,12.6 -7.29,16.97 -4.84,4.38 -11.15,6.57 -18.92,6.57 -5.52,0 -11.36,-1.18 -17.49,-3.52 -6.14,-2.32 -12.69,-5.84 -19.66,-10.56 v 18.77 c 7.19,3.11 13.9,5.44 20.13,7.01 6.24,1.59 11.95,2.38 17.13,2.38 13.66,0 24.55,-3.36 32.67,-10.08 8.14,-6.73 12.21,-15.71 12.21,-26.96 0,-5.32 -1.03,-10.38 -3.08,-15.18 -2.03,-4.76 -5.73,-10.38 -11.11,-16.86 -1.47,-1.69 -6.17,-6.55 -14.12,-14.59 -7.92,-8.02 -19.09,-19.24 -33.51,-33.66"
         style="fill:#000000;fill-opacity:1;fill-rule:nonzero;stroke:none"
         id="path94" /><path
         d="m 7595.59,1092.98 c 124.99,-138.886 194.15,-319.121 194.15,-505.964 0,-82.485 -13.49,-164.418 -39.94,-242.547"
         style="fill:none;stroke:#00ff00;stroke-width:28.346;stroke-linecap:butt;stroke-linejoin:miter;stroke-miterlimit:10;stroke-dasharray:none;stroke-opacity:1"
         id="path96" /><path
         d="m 7726.28,1071.03 -151.81,45.42 54.74,-148.7"
         style="fill:none;stroke:#00ff00;stroke-width:28.346;stroke-linecap:butt;stroke-linejoin:miter;stroke-miterlimit:10;stroke-dasharray:none;stroke-opacity:1"
         id="path98" /><path
         d="m 8910.87,2336.66 c 0,11.48 -2.02,22.08 -6.05,31.79 -4.01,9.73 -9.57,17.94 -16.69,24.64 -7.25,6.86 -15.79,12.24 -25.59,16.13 -9.78,3.89 -20.26,5.83 -31.46,5.83 -11.37,0 -21.95,-1.98 -31.75,-5.94 -9.78,-3.96 -18.06,-9.15 -24.83,-15.55 -7.43,-7.01 -13.16,-15.34 -17.19,-24.97 -4.01,-9.63 -6.02,-20.35 -6.02,-32.15 0,-10.76 1.9,-20.92 5.69,-30.48 3.79,-9.55 9.15,-17.91 16.09,-25.07 6.95,-7.17 15.31,-12.8 25.08,-16.91 9.81,-4.1 20.78,-6.16 32.93,-6.16 12.15,0 23.15,2.09 33,6.27 9.88,4.18 18.28,9.86 25.22,17.02 6.97,7.16 12.3,15.52 15.99,25.08 3.72,9.55 5.58,19.71 5.58,30.47 m -28.16,-1.54 c 0,-10.96 -0.91,-19.77 -2.72,-26.44 -1.78,-6.65 -4.15,-12.71 -7.11,-18.19 -1.86,-3.54 -4.31,-6.76 -7.37,-9.64 -3.03,-2.89 -6.38,-5.33 -10.05,-7.33 -3.64,-1.98 -7.56,-3.54 -11.76,-4.66 -4.21,-1.1 -8.41,-1.65 -12.62,-1.65 -4.67,0 -9.15,0.59 -13.46,1.76 -4.27,1.2 -8.24,2.86 -11.91,4.99 -3.64,2.15 -6.91,4.7 -9.79,7.66 -2.89,2.96 -5.26,6.15 -7.12,9.57 -3.74,7.09 -6.23,14.18 -7.48,21.27 -1.24,7.11 -1.87,14.66 -1.87,22.66 0,10.92 1.05,20.16 3.16,27.72 2.1,7.55 4.24,13.46 6.41,17.74 4.06,7.99 9.78,14.17 17.16,18.52 7.41,4.37 15.78,6.56 25.12,6.56 9.36,0 17.66,-2.22 24.9,-6.67 7.23,-4.43 13.04,-10.78 17.41,-19.07 2.64,-4.88 4.82,-11.26 6.53,-19.1 1.71,-7.82 2.57,-16.39 2.57,-25.7 m -18.08,-19.11 c -0.32,2.67 -0.63,5.82 -0.95,9.46 -0.3,3.64 -0.44,7.33 -0.44,11.08 0,3.76 0.14,7.5 0.44,11.22 0.32,3.71 0.63,6.74 0.95,9.09 l -3.52,0.26 c -2.66,-8.32 -7.82,-12.47 -15.47,-12.47 h -30.03 c -3.13,0 -6.11,0.82 -8.95,2.46 -2.81,1.66 -5,5 -6.56,10.01 l -3.52,-0.26 c 0.31,-2.96 0.63,-6.15 0.95,-9.57 0.32,-3.4 0.48,-6.98 0.48,-10.74 0,-3.75 -0.16,-7.44 -0.48,-11.08 -0.32,-3.64 -0.64,-6.79 -0.95,-9.46 l 3.52,-0.25 c 1.73,5.01 3.97,8.33 6.71,9.97 2.73,1.66 5.9,2.49 9.49,2.49 h 29.34 c 3.27,0 6.28,-0.86 9.02,-2.6 2.73,-1.71 4.89,-5 6.45,-9.86 l 3.52,0.25"
         style="fill:#000000;fill-opacity:1;fill-rule:nonzero;stroke:none"
         id="path100" /><path
         d="m 7978.28,852.035 c 0,11.488 -2.01,22.086 -6.05,31.789 -4.01,9.731 -9.57,17.942 -16.68,24.641 -7.26,6.867 -15.79,12.246 -25.59,16.133 -9.78,3.886 -20.27,5.828 -31.46,5.828 -11.37,0 -21.95,-1.981 -31.76,-5.938 -9.78,-3.961 -18.05,-9.144 -24.82,-15.547 -7.43,-7.015 -13.16,-15.339 -17.2,-24.972 -4.01,-9.629 -6.01,-20.348 -6.01,-32.157 0,-10.753 1.9,-20.91 5.68,-30.468 3.79,-9.559 9.16,-17.918 16.1,-25.078 6.94,-7.164 15.3,-12.797 25.08,-16.903 9.8,-4.109 20.78,-6.16 32.93,-6.16 12.14,0 23.14,2.09 33,6.27 9.87,4.179 18.28,9.851 25.22,17.011 6.97,7.164 12.3,15.524 15.99,25.082 3.72,9.555 5.57,19.711 5.57,30.469 m -28.16,-1.539 c 0,-10.953 -0.9,-19.766 -2.71,-26.437 -1.79,-6.649 -4.16,-12.711 -7.11,-18.188 -1.86,-3.543 -4.32,-6.758 -7.37,-9.644 -3.04,-2.883 -6.38,-5.329 -10.05,-7.332 -3.64,-1.981 -7.57,-3.532 -11.77,-4.657 -4.2,-1.101 -8.41,-1.648 -12.61,-1.648 -4.67,0 -9.16,0.586 -13.46,1.758 -4.28,1.199 -8.25,2.859 -11.92,4.988 -3.64,2.148 -6.9,4.703 -9.79,7.664 -2.88,2.957 -5.25,6.145 -7.11,9.566 -3.74,7.09 -6.23,14.18 -7.48,21.27 -1.25,7.113 -1.87,14.664 -1.87,22.66 0,10.926 1.05,20.164 3.15,27.719 2.1,7.551 4.25,13.469 6.42,17.746 4.06,7.992 9.78,14.164 17.16,18.516 7.41,4.375 15.78,6.562 25.11,6.562 9.37,0 17.67,-2.223 24.9,-6.672 7.24,-4.426 13.04,-10.781 17.42,-19.066 2.64,-4.891 4.81,-11.258 6.52,-19.102 1.72,-7.824 2.57,-16.39 2.57,-25.703 m -18.07,-19.105 c -0.32,2.664 -0.64,5.816 -0.96,9.461 -0.29,3.64 -0.44,7.332 -0.44,11.074 0,3.762 0.15,7.504 0.44,11.219 0.32,3.714 0.64,6.746 0.96,9.093 l -3.52,0.254 c -2.67,-8.308 -7.83,-12.465 -15.48,-12.465 h -30.03 c -3.13,0 -6.11,0.821 -8.94,2.457 -2.81,1.661 -5,5 -6.57,10.008 l -3.52,-0.254 c 0.32,-2.957 0.64,-6.148 0.96,-9.57 0.32,-3.398 0.47,-6.98 0.47,-10.742 0,-3.742 -0.15,-7.434 -0.47,-11.074 -0.32,-3.645 -0.64,-6.797 -0.96,-9.461 l 3.52,-0.258 c 1.74,5.012 3.97,8.336 6.71,9.976 2.74,1.661 5.9,2.493 9.5,2.493 h 29.33 c 3.28,0 6.29,-0.868 9.02,-2.606 2.74,-1.711 4.89,-4.996 6.46,-9.863 l 3.52,0.258"
         style="fill:#000000;fill-opacity:1;fill-rule:nonzero;stroke:none"
         id="path102" /><path
         d="m 8000.03,698.699 h 28.16 v 100.906 l -30.51,-7.039 v 14.079 l 31.46,7.043 h 17.82 V 698.699 h 28.16 v -14.078 h -75.09 v 14.078"
         style="fill:#000000;fill-opacity:1;fill-rule:nonzero;stroke:none"
         id="path104" /><path
         d="M 7863.18,1251.54 9167.1,1747.59"
         style="fill:none;stroke:#0000ff;stroke-width:28.346;stroke-linecap:butt;stroke-linejoin:miter;stroke-miterlimit:10;stroke-dasharray:56.692;stroke-dashoffset:0;stroke-opacity:1"
         id="path106" /><path
         d="m 8384.18,2527.14 c 259.48,-208.49 412.46,-521.84 417.25,-854.66"
         style="fill:none;stroke:#00ff00;stroke-width:28.346;stroke-linecap:butt;stroke-linejoin:miter;stroke-miterlimit:10;stroke-dasharray:none;stroke-opacity:1"
         id="path108" /><path
         d="m 8516.04,2522.25 -156.52,24.71 74.14,-140.04"
         style="fill:none;stroke:#00ff00;stroke-width:28.346;stroke-linecap:butt;stroke-linejoin:miter;stroke-miterlimit:10;stroke-dasharray:none;stroke-opacity:1"
         id="path110" /><path
         d="m 8892.52,2125.92 h 62.52 v -14.08 h -82.83 v 14.08 c 6.59,6.94 15.58,16.26 26.95,27.94 11.36,11.71 18.51,19.25 21.45,22.62 5.55,6.36 9.42,11.74 11.62,16.14 2.22,4.42 3.34,8.76 3.34,13.01 0,6.94 -2.44,12.6 -7.3,16.98 -4.84,4.37 -11.15,6.56 -18.92,6.56 -5.53,0 -11.35,-1.17 -17.49,-3.52 -6.14,-2.32 -12.69,-5.84 -19.65,-10.56 v 18.78 c 7.18,3.1 13.89,5.43 20.13,7 6.23,1.59 11.94,2.38 17.12,2.38 13.66,0 24.55,-3.36 32.67,-10.08 8.14,-6.72 12.21,-15.71 12.21,-26.95 0,-5.33 -1.03,-10.39 -3.08,-15.18 -2.03,-4.77 -5.73,-10.39 -11.11,-16.86 -1.47,-1.69 -6.17,-6.56 -14.12,-14.6 -7.92,-8.02 -19.09,-19.24 -33.51,-33.66"
         style="fill:#000000;fill-opacity:1;fill-rule:nonzero;stroke:none"
         id="path112" /><path
         d="m 8599.8,3031.71 c -7.94,-13.42 -13.84,-26.69 -17.71,-39.82 -3.83,-13.1 -5.75,-26.39 -5.75,-39.89 0,-13.47 1.94,-26.81 5.83,-40.04 3.88,-13.2 9.76,-26.47 17.63,-39.82 h -14.22 c -8.58,13.72 -15.01,27.18 -19.29,40.41 -4.25,13.25 -6.38,26.4 -6.38,39.45 0,13 2.12,26.09 6.34,39.27 4.23,13.2 10.68,26.68 19.33,40.44 h 14.22"
         style="fill:#000000;fill-opacity:1;fill-rule:nonzero;stroke:none"
         id="path114" /><path
         d="m 8710.5,2994.17 -35.13,-47.96 37.47,-50.6 h -19.03 l -28.6,38.72 -27.75,-38.72 h -18.48 l 36.88,51.55 -34.54,47.01 h 18.81 l 25.78,-35.13 25.78,35.13 h 18.81"
         style="fill:#000000;fill-opacity:1;fill-rule:nonzero;stroke:none"
         id="path116" /><path
         d="m 8743.02,2916.73 h 18.77 v -14.78 l -14.08,-27.46 h -11.73 l 7.04,27.46 v 14.78"
         style="fill:#000000;fill-opacity:1;fill-rule:nonzero;stroke:none"
         id="path118" /><path
         d="m 8835.79,2886.88 c -4.45,-11.93 -8.79,-19.71 -13.02,-23.35 -4.21,-3.65 -9.84,-5.47 -16.91,-5.47 h -12.54 v 14.08 h 9.24 c 4.33,0 7.68,1.04 10.05,3.12 2.4,2.08 5.05,6.97 7.96,14.67 l 2.82,7.37 -39.45,96.87 h 17.42 l 29.88,-77.08 29.92,77.08 h 16.64 l -42.01,-107.29"
         style="fill:#000000;fill-opacity:1;fill-rule:nonzero;stroke:none"
         id="path120" /><path
         d="m 8900.94,3031.71 h 14.22 c 8.59,-13.76 15,-27.24 19.25,-40.44 4.28,-13.18 6.42,-26.27 6.42,-39.27 0,-13.05 -2.14,-26.2 -6.42,-39.45 -4.25,-13.23 -10.66,-26.69 -19.25,-40.41 h -14.22 c 7.87,13.35 13.75,26.62 17.63,39.82 3.89,13.23 5.83,26.57 5.83,40.04 0,13.5 -1.94,26.79 -5.83,39.89 -3.88,13.13 -9.76,26.4 -17.63,39.82"
         style="fill:#000000;fill-opacity:1;fill-rule:nonzero;stroke:none"
         id="path122" /><path
         d="m 8415.93,2867.26 2.83,-1648.32"
         style="fill:none;stroke:#0000ff;stroke-width:28.346;stroke-linecap:butt;stroke-linejoin:miter;stroke-miterlimit:10;stroke-dasharray:56.692;stroke-dashoffset:0;stroke-opacity:1"
         id="path124" /><path
         d="m 8599.57,663.191 c -4.98,4.036 -9,7.895 -12.02,11.586 -3.03,3.692 -5.38,7.176 -7.05,10.45 -1.66,3.253 -2.9,6.308 -3.73,9.168 -0.84,2.859 -1.62,5.535 -2.35,8.031 -1.3,4.863 -2.28,9.996 -2.94,15.398 -0.66,5.426 -0.98,11.879 -0.98,19.36 0,3.812 0.05,7.261 0.18,10.339 0.12,3.106 0.35,6.051 0.7,8.836 0.36,2.789 0.82,5.489 1.35,8.106 0.54,2.613 1.16,5.351 1.87,8.211 0.95,3.691 1.99,7.113 3.12,10.269 1.15,3.153 2.64,6.243 4.47,9.274 1.83,3.031 4.12,6.062 6.86,9.093 2.74,3.032 6.24,6.333 10.52,9.903 l -1.76,3.004 c -1.08,0 -2.95,-0.953 -5.65,-2.86 -2.66,-1.882 -5.65,-4.398 -8.98,-7.55 -3.32,-3.157 -6.66,-6.848 -10.01,-11.075 -3.35,-4.207 -6.08,-8.629 -8.21,-13.273 -2.79,-5.816 -4.91,-12.356 -6.38,-19.617 -1.44,-7.258 -2.17,-14.813 -2.17,-22.66 0,-16.036 3.02,-30.481 9.06,-43.34 1.79,-3.789 4.26,-7.676 7.41,-11.66 3.17,-3.985 6.39,-7.614 9.64,-10.891 3.28,-3.273 6.34,-5.949 9.21,-8.027 2.86,-2.078 4.88,-3.118 6.08,-3.118 l 1.76,3.043"
         style="fill:#000000;fill-opacity:1;fill-rule:nonzero;stroke:none"
         id="path126" /><path
         d="m 8691.91,688.492 c 0,2.492 -0.39,5.047 -1.18,7.664 -0.76,2.614 -2.03,4.985 -3.81,7.114 -1.78,2.148 -4.04,3.933 -6.78,5.351 -2.74,1.441 -6.07,2.223 -9.98,2.348 l -25.52,0.879 c -6.06,0.246 -10.64,1.55 -13.75,3.922 -3.08,2.371 -5.39,5.097 -6.93,8.179 -0.83,1.66 -1.49,3.348 -1.98,5.059 -0.46,1.734 -0.69,3.554 -0.69,5.465 0,3.812 0.75,7.882 2.27,12.207 1.51,4.328 3.48,7.922 5.9,10.781 1.64,1.785 3.65,3.531 6.02,5.242 2.37,1.738 4.75,3.203 7.14,4.402 2.62,-0.71 4.99,-1.25 7.12,-1.613 2.15,-0.367 4.6,-0.551 7.33,-0.551 2.96,0 5.81,0.207 8.55,0.621 2.74,0.442 5.14,1.067 7.22,1.872 2.08,0.808 3.7,1.82 4.87,3.043 1.2,1.222 1.8,2.703 1.8,4.437 0,2.445 -1.18,4.133 -3.55,5.059 -2.37,0.929 -5.41,1.394 -9.1,1.394 -4.52,0 -8.83,-0.683 -12.94,-2.055 -4.08,-1.343 -8.57,-3.199 -13.46,-5.57 -3.78,2.957 -6.37,5.438 -7.73,7.442 -1.37,2.027 -2.06,4.117 -2.06,6.269 0,2.957 0.77,5.918 2.31,8.875 1.54,2.981 4.22,5.781 8.03,8.395 2.13,0.125 4.03,0.269 5.69,0.441 1.66,0.195 3.26,0.441 4.8,0.734 1.56,0.293 3.09,0.707 4.58,1.247 1.49,0.535 3.07,1.222 4.73,2.05 2.84,1.418 5.17,3.043 7.01,4.879 1.85,1.856 2.78,3.985 2.78,6.379 0,1.664 -0.6,2.957 -1.8,3.887 -1.17,0.953 -3,1.43 -5.5,1.43 -4.88,0 -9.3,-1.43 -13.23,-4.29 -3.91,-2.835 -8.24,-6.16 -12.98,-9.972 -2.74,0.121 -5.1,0.988 -7.08,2.601 -1.98,1.614 -2.97,3.301 -2.97,5.063 0,2.027 0.78,3.785 2.35,5.277 1.56,1.492 4.24,2.887 8.03,4.18 l -0.33,2.859 c -0.49,0.125 -1.03,0.184 -1.61,0.184 -0.47,0 -1.01,0 -1.62,0 -1.41,0 -3.11,-0.305 -5.09,-0.914 -1.96,-0.586 -3.78,-1.446 -5.47,-2.567 -1.66,-1.125 -3.03,-2.496 -4.1,-4.109 -1.08,-1.586 -1.62,-3.457 -1.62,-5.609 0,-2.028 0.38,-3.789 1.14,-5.278 0.78,-1.468 1.77,-2.679 2.97,-3.633 1.2,-0.953 2.63,-1.757 4.29,-2.417 1.66,-0.661 3.34,-1.223 5.02,-1.688 -2.49,-1.906 -4.35,-4.203 -5.57,-6.895 -1.2,-2.664 -1.8,-6.011 -1.8,-10.046 0,-3.446 0.89,-6.598 2.68,-9.457 1.78,-2.836 4.05,-5.793 6.78,-8.875 -2.95,-2.372 -5.84,-4.829 -8.65,-7.372 -2.79,-2.539 -4.92,-5.414 -6.42,-8.613 -1.83,-4.156 -3.31,-8.191 -4.43,-12.101 -1.13,-3.887 -1.69,-7.786 -1.69,-11.696 0,-4.742 1.12,-9.609 3.37,-14.593 2.25,-4.965 5.21,-9.157 8.87,-12.579 2.38,-2.371 5.79,-4.421 10.24,-6.16 4.47,-1.711 9.51,-2.566 15.1,-2.566 4.99,0 9.44,0.062 13.35,0.184 3.94,0.121 6.55,0.183 7.85,0.183 2.52,0 4.61,-0.355 6.27,-1.062 1.66,-0.711 2.93,-1.653 3.81,-2.825 0.9,-1.199 1.53,-2.504 1.87,-3.922 0.37,-1.417 0.55,-2.835 0.55,-4.253 0,-2.371 -0.42,-4.387 -1.25,-6.051 -0.83,-1.66 -2.14,-3.02 -3.92,-4.07 -1.78,-1.075 -3.75,-1.614 -5.9,-1.614 -1.3,0 -2.69,0.086 -4.18,0.258 -1.5,0.172 -2.96,0.356 -4.4,0.551 -1.42,0.168 -2.79,0.351 -4.11,0.547 -1.3,0.172 -2.36,0.258 -3.19,0.258 -0.59,0 -1.3,-0.086 -2.13,-0.258 -0.83,-0.196 -1.64,-0.559 -2.42,-1.098 -0.75,-0.539 -1.4,-1.285 -1.94,-2.238 -0.54,-0.953 -0.81,-2.176 -0.81,-3.664 0,-2.52 0.65,-4.5 1.95,-5.942 1.32,-1.465 2.83,-2.543 4.54,-3.226 1.74,-0.707 3.44,-1.149 5.1,-1.321 1.66,-0.195 2.85,-0.293 3.55,-0.293 4.41,0 8.75,1.43 13.02,4.29 4.3,2.835 8,7.285 11.07,13.347 1.32,2.492 2.28,5.231 2.87,8.215 0.58,2.957 0.88,5.621 0.88,7.992"
         style="fill:#000000;fill-opacity:1;fill-rule:nonzero;stroke:none"
         id="path128" /><path
         d="m 8726.92,699.16 c 0,2.617 -0.26,4.633 -0.77,6.051 -0.51,1.441 -1.38,2.871 -2.6,4.289 -1.23,1.441 -2.53,2.578 -3.93,3.41 -1.37,0.832 -2.97,1.246 -4.8,1.246 -2.64,0 -4.8,-0.988 -6.49,-2.968 -1.69,-1.958 -2.53,-4.411 -2.53,-7.372 0,-2.859 0.81,-5.121 2.42,-6.781 1.61,-1.664 3.9,-2.492 6.85,-2.492 0.84,0 1.79,0.168 2.87,0.512 1.07,0.367 1.96,0.55 2.67,0.55 1.42,0 2.13,-0.953 2.13,-2.859 0,-7.016 -4.76,-13.434 -14.26,-19.25 -0.84,-0.488 -1.5,-0.992 -1.98,-1.504 -0.47,-0.539 -0.7,-1.285 -0.7,-2.238 0,-0.488 0.17,-0.844 0.51,-1.063 0.37,-0.246 0.76,-0.367 1.17,-0.367 0.72,0 1.58,0.332 2.61,0.992 1.03,0.633 2.07,1.43 3.12,2.383 1.07,0.953 2.12,1.965 3.15,3.043 1.03,1.074 1.89,2.028 2.6,2.86 2.96,3.445 5.02,7.015 6.2,10.707 1.17,3.668 1.76,7.285 1.76,10.851"
         style="fill:#000000;fill-opacity:1;fill-rule:nonzero;stroke:none"
         id="path130" /><path
         d="m 8834.16,654.246 c -0.22,1.563 -0.72,3.531 -1.5,5.902 -0.78,2.372 -1.23,4.926 -1.32,7.664 l -1.98,88.657 c -0.13,3.668 -0.6,6.75 -1.43,9.242 -0.84,2.516 -1.85,4.863 -3.05,7.039 -1.17,2.199 -2.42,3.973 -3.74,5.316 -1.29,1.372 -2.42,2.532 -3.37,3.485 -1.79,1.734 -3.81,2.922 -6.09,3.554 -2.25,0.637 -4.45,0.954 -6.6,0.954 -6.28,0 -11.6,-1.782 -15.95,-5.352 -4.32,-3.543 -8.33,-8.055 -12.02,-13.531 -0.47,2.152 -0.92,4.023 -1.36,5.613 -0.44,1.613 -0.99,3.066 -1.65,4.363 -1.1,2.371 -2.79,4.203 -5.06,5.5 -2.25,1.317 -4.74,1.977 -7.48,1.977 -3.45,0 -6.68,-0.828 -9.72,-2.492 -3.03,-1.66 -5.48,-4.387 -7.37,-8.176 -0.95,-2.027 -1.7,-4.059 -2.23,-6.086 -0.54,-2.004 -0.87,-5.086 -0.99,-9.242 h 3.22 c 0.23,2.617 0.57,4.965 1.03,7.043 0.49,2.074 1.04,3.762 1.65,5.058 0.83,1.661 1.75,2.786 2.75,3.371 1,0.614 2.16,0.918 3.48,0.918 1.67,0 3.08,-0.511 4.26,-1.539 1.2,-1.004 2.21,-2.336 3.04,-3.996 0.95,-2.004 1.55,-4.23 1.8,-6.676 0.24,-2.417 0.36,-4.46 0.36,-6.121 v -62.148 h 14.08 v 61.746 c 1.2,1.684 2.51,3.309 3.93,4.875 1.42,1.59 2.95,3.008 4.62,4.254 1.68,1.246 3.53,2.262 5.53,3.043 2.03,0.781 4.23,1.172 6.61,1.172 2.02,0 4.08,-0.352 6.15,-1.063 2.08,-0.707 3.89,-1.832 5.43,-3.371 2.74,-2.738 4.17,-7.078 4.29,-13.019 l 2.31,-80.262 c 0.12,-4.156 0.45,-7.457 0.99,-9.898 0.54,-2.446 1.04,-5.036 1.51,-7.774 h 15.87"
         style="fill:#000000;fill-opacity:1;fill-rule:nonzero;stroke:none"
         id="path132" /><path
         d="m 8900.03,737.184 c 0,7.847 -0.73,15.402 -2.2,22.66 -1.44,7.261 -3.55,13.801 -6.34,19.617 -2.25,4.644 -5.01,9.066 -8.29,13.273 -3.27,4.227 -6.58,7.918 -9.93,11.075 -3.33,3.152 -6.34,5.668 -9.02,7.55 -2.67,1.907 -4.53,2.86 -5.58,2.86 l -1.79,-3.004 c 4.28,-3.57 7.78,-6.871 10.52,-9.903 2.74,-3.031 5.02,-6.062 6.86,-9.093 1.85,-3.031 3.35,-6.121 4.47,-9.274 1.13,-3.156 2.16,-6.578 3.12,-10.269 0.7,-2.86 1.33,-5.598 1.86,-8.211 0.54,-2.617 0.99,-5.317 1.33,-8.106 0.36,-2.785 0.61,-5.73 0.73,-8.836 0.12,-3.078 0.18,-6.527 0.18,-10.339 0,-7.481 -0.33,-13.934 -0.99,-19.36 -0.66,-5.402 -1.64,-10.535 -2.93,-15.398 -0.71,-2.496 -1.49,-5.172 -2.35,-8.031 -0.83,-2.86 -2.07,-5.915 -3.74,-9.168 -1.66,-3.274 -4.01,-6.758 -7.04,-10.45 -3.03,-3.691 -7.04,-7.55 -12.02,-11.586 l 1.79,-3.043 c 1.18,0 3.19,1.04 6.05,3.118 2.86,2.078 5.92,4.754 9.17,8.027 3.27,3.277 6.49,6.906 9.64,10.891 3.18,3.984 5.66,7.871 7.45,11.66 6.04,12.859 9.05,27.304 9.05,43.34"
         style="fill:#000000;fill-opacity:1;fill-rule:nonzero;stroke:none"
         id="path134" /><path
         d="m 8525.77,812.176 -493.2,366.734"
         style="fill:none;stroke:#000000;stroke-width:28.346;stroke-linecap:butt;stroke-linejoin:miter;stroke-miterlimit:10;stroke-dasharray:none;stroke-opacity:1"
         id="path136" /><path
         d="m 7998.45,1204.29 62.41,-11.09 -28.29,-14.29 -5.54,-31.2"
         style="fill:#000000;fill-opacity:1;fill-rule:evenodd;stroke:none"
         id="path138" /><path
         d="m 7998.45,1204.29 62.41,-11.09 -28.29,-14.29 -5.54,-31.2 z"
         style="fill:none;stroke:#000000;stroke-width:28.346;stroke-linecap:butt;stroke-linejoin:miter;stroke-miterlimit:10;stroke-dasharray:none;stroke-opacity:1"
         id="path140" /><path
         d="m 9030.77,330.297 v 5.68 l -6.86,0.992 c -2.27,0.367 -2.09,2.531 -1.06,4.656 3.88,8.398 9.49,17.785 15.44,27.941 h 0.4 l 16.17,-27.132 c 1.98,-3.34 1.46,-5.098 -1.14,-5.465 l -7.26,-0.992 v -5.68 h 45.58 v 5.68 c -8.73,0 -12.03,0.589 -16.87,7.703 -8.94,13.09 -18.04,26.91 -26.58,40.773 6.45,9.934 14.08,19.871 21.74,29.223 5.06,6.344 7.63,7.148 17.01,7.148 v 5.684 h -35.2 v -5.684 l 6.68,-0.769 c 2.75,-0.403 2.34,-2.383 0.99,-4.512 -4.44,-7.481 -9.68,-15.691 -15.47,-24.711 h -0.23 l -16.24,24.492 c -1.54,2.348 -1.14,4.512 1.72,4.914 l 5.8,0.586 v 5.684 h -41.91 v -5.684 c 8.03,0 10.05,-0.402 14.85,-6.965 8.43,-11.515 17.08,-24.421 25.7,-37.144 -7.19,-10.742 -14.74,-22.074 -22.69,-32.781 -5.06,-6.965 -9.32,-7.957 -17.86,-7.957 v -5.68 h 37.29"
         style="fill:#000000;fill-opacity:1;fill-rule:nonzero;stroke:none"
         id="path142" /><path
         d="m 5549.44,3445.36 v -5.69 c 9.42,0 11.36,-1.17 14.88,-9.79 9.83,-23.54 26.11,-65.34 30.8,-78.86 1.18,-3.34 1.58,-6.27 1.58,-9.61 0,-4.55 -1.65,-10.49 -4.43,-16.8 -2.79,-6.52 -6.13,-8.32 -8.15,-8.32 -1.98,0 -3.77,0.59 -7.33,4.22 -2.02,1.83 -3.59,2.82 -5.97,2.82 -3.82,0 -8.88,-5.35 -8.88,-11.07 0,-4.62 5.65,-10.05 14.12,-10.05 7.62,0 17.38,2.35 27.13,31.43 11.85,34.94 29.44,82.86 35.35,96.61 3.44,7.85 4.58,9.42 14.15,9.42 v 5.69 h -37.55 v -5.69 l 10.34,-0.99 c 3.38,-0.36 3.78,-2.71 2.83,-6.6 -2.93,-11.69 -12.98,-41.13 -21.49,-64.53 h -0.37 c -8.47,23.58 -15.87,44.84 -22.69,65.31 -1.1,3.52 -1.47,5.64 2.79,6.04 l 7.91,0.77 v 5.69 h -45.02"
         style="fill:#000000;fill-opacity:1;fill-rule:nonzero;stroke:none"
         id="path144" /><path
         d="m 7892.8,1271.52 1461.38,-17.14"
         style="fill:none;stroke:#0000ff;stroke-width:28.346;stroke-linecap:butt;stroke-linejoin:miter;stroke-miterlimit:10;stroke-dasharray:56.692;stroke-dashoffset:0;stroke-opacity:1"
         id="path146" /><path
         d="m 8871.01,1554.65 c 39.65,-55.1 60.98,-121.27 60.98,-189.14 0,-35.39 -5.8,-70.54 -17.17,-104.05"
         style="fill:none;stroke:#00ff00;stroke-width:28.346;stroke-linecap:butt;stroke-linejoin:miter;stroke-miterlimit:10;stroke-dasharray:none;stroke-opacity:1"
         id="path148" /><path
         d="m 8913.62,1561.8 -60.73,18.13 21.94,-59.47"
         style="fill:none;stroke:#00ff00;stroke-width:28.346;stroke-linecap:butt;stroke-linejoin:miter;stroke-miterlimit:10;stroke-dasharray:none;stroke-opacity:1"
         id="path150" /><path
         d="m 9182.99,1538.71 c 0,11.49 -2.02,22.09 -6.05,31.79 -4.01,9.73 -9.57,17.95 -16.69,24.64 -7.25,6.88 -15.79,12.25 -25.59,16.14 -9.78,3.88 -20.26,5.83 -31.46,5.83 -11.36,0 -21.95,-1.98 -31.75,-5.94 -9.78,-3.96 -18.06,-9.14 -24.83,-15.55 -7.42,-7.01 -13.16,-15.33 -17.19,-24.97 -4.01,-9.63 -6.02,-20.35 -6.02,-32.15 0,-10.76 1.9,-20.92 5.69,-30.47 3.79,-9.56 9.15,-17.92 16.1,-25.08 6.94,-7.16 15.3,-12.8 25.07,-16.91 9.81,-4.1 20.78,-6.16 32.93,-6.16 12.15,0 23.15,2.09 33,6.27 9.88,4.18 18.28,9.85 25.23,17.02 6.96,7.16 12.29,15.52 15.98,25.08 3.72,9.55 5.58,19.71 5.58,30.46 m -28.16,-1.53 c 0,-10.95 -0.91,-19.77 -2.72,-26.44 -1.78,-6.65 -4.15,-12.71 -7.11,-18.19 -1.86,-3.54 -4.31,-6.76 -7.37,-9.64 -3.03,-2.88 -6.38,-5.33 -10.04,-7.33 -3.65,-1.98 -7.57,-3.54 -11.77,-4.66 -4.21,-1.1 -8.41,-1.65 -12.62,-1.65 -4.67,0 -9.15,0.59 -13.45,1.76 -4.28,1.2 -8.25,2.86 -11.92,4.99 -3.64,2.15 -6.91,4.7 -9.79,7.66 -2.89,2.96 -5.26,6.15 -7.11,9.57 -3.75,7.09 -6.24,14.18 -7.48,21.27 -1.25,7.11 -1.88,14.66 -1.88,22.66 0,10.92 1.05,20.16 3.16,27.71 2.1,7.56 4.24,13.47 6.41,17.75 4.06,8 9.78,14.17 17.16,18.52 7.41,4.38 15.78,6.56 25.12,6.56 9.37,0 17.66,-2.22 24.9,-6.67 7.23,-4.43 13.04,-10.78 17.41,-19.07 2.65,-4.89 4.82,-11.25 6.53,-19.1 1.71,-7.82 2.57,-16.39 2.57,-25.7 m -18.08,-19.11 c -0.32,2.67 -0.63,5.82 -0.95,9.46 -0.3,3.65 -0.44,7.34 -0.44,11.08 0,3.76 0.14,7.5 0.44,11.21 0.32,3.72 0.63,6.75 0.95,9.1 l -3.52,0.26 c -2.66,-8.32 -7.82,-12.47 -15.47,-12.47 h -30.03 c -3.13,0 -6.11,0.82 -8.95,2.45 -2.81,1.67 -5,5 -6.56,10.02 l -3.52,-0.26 c 0.32,-2.96 0.63,-6.15 0.95,-9.57 0.32,-3.4 0.48,-6.98 0.48,-10.74 0,-3.74 -0.16,-7.43 -0.48,-11.08 -0.32,-3.64 -0.63,-6.79 -0.95,-9.46 l 3.52,-0.25 c 1.73,5.01 3.97,8.33 6.71,9.97 2.73,1.66 5.9,2.49 9.5,2.49 h 29.33 c 3.27,0 6.28,-0.87 9.02,-2.6 2.74,-1.71 4.89,-5 6.45,-9.86 l 3.52,0.25"
         style="fill:#000000;fill-opacity:1;fill-rule:nonzero;stroke:none"
         id="path152" /><path
         d="m 9148.21,1357.57 h 28.17 v 100.9 l -30.51,-7.04 v 14.08 l 31.46,7.04 h 17.82 v -114.98 h 28.16 v -14.09 h -75.1 v 14.09"
         style="fill:#000000;fill-opacity:1;fill-rule:nonzero;stroke:none"
         id="path154" /></g></g></svg>
