<?xml version="1.0" encoding="UTF-8" standalone="no"?>
<!-- Created with Inkscape (http://www.inkscape.org/) -->

<svg
   version="1.1"
   id="svg25"
   xml:space="preserve"
   width="878.66669"
   height="420"
   viewBox="0 0 878.66669 420"
   sodipodi:docname="twolinkalt.svg"
   inkscape:version="1.1 (c4e8f9e, 2021-05-24)"
   xmlns:inkscape="http://www.inkscape.org/namespaces/inkscape"
   xmlns:sodipodi="http://sodipodi.sourceforge.net/DTD/sodipodi-0.dtd"
   xmlns="http://www.w3.org/2000/svg"
   xmlns:svg="http://www.w3.org/2000/svg"><defs
     id="defs29" /><sodipodi:namedview
     id="namedview27"
     pagecolor="#ffffff"
     bordercolor="#666666"
     borderopacity="1.0"
     inkscape:pageshadow="2"
     inkscape:pageopacity="0.0"
     inkscape:pagecheckerboard="0"
     showgrid="false"
     inkscape:zoom="1.2507587"
     inkscape:cx="439.33334"
     inkscape:cy="209.87262"
     inkscape:window-width="1312"
     inkscape:window-height="1081"
     inkscape:window-x="0"
     inkscape:window-y="25"
     inkscape:window-maximized="0"
     inkscape:current-layer="g31" /><g
     id="g31"
     inkscape:groupmode="layer"
     inkscape:label="twolinkalt"
     transform="matrix(1.3333333,0,0,-1.3333333,0,420)"><g
       id="g33"
       transform="scale(0.1)"><path
         d="M 32.9492,89.2148 288.062,358.504 H 571.523 L 798.293,89.2148"
         style="fill:#ff0000;fill-opacity:1;fill-rule:evenodd;stroke:none"
         id="path35" /><path
         d="M 32.9492,89.2148 288.062,358.504 H 571.523 L 798.293,89.2148 Z"
         style="fill:none;stroke:#000000;stroke-width:28.346;stroke-linecap:butt;stroke-linejoin:miter;stroke-miterlimit:10;stroke-dasharray:none;stroke-opacity:1"
         id="path37" /><path
         d="M 429.793,287.637 3349.43,1024.63 3420.3,868.73 486.488,145.91"
         style="fill:#1e90ff;fill-opacity:1;fill-rule:evenodd;stroke:none"
         id="path39" /><path
         d="M 429.793,287.637 3349.43,1024.63 3420.3,868.73 486.488,145.91 Z"
         style="fill:none;stroke:#000000;stroke-width:28.346;stroke-linecap:butt;stroke-linejoin:miter;stroke-miterlimit:10;stroke-dasharray:none;stroke-opacity:1"
         id="path41" /><path
         d="M 3292.74,996.289 4738.39,2597.84 4865.95,2512.8 3391.95,868.73"
         style="fill:#1e90ff;fill-opacity:1;fill-rule:evenodd;stroke:none"
         id="path43" /><path
         d="M 3292.74,996.289 4738.39,2597.84 4865.95,2512.8 3391.95,868.73 Z"
         style="fill:none;stroke:#000000;stroke-width:28.346;stroke-linecap:butt;stroke-linejoin:miter;stroke-miterlimit:10;stroke-dasharray:none;stroke-opacity:1"
         id="path45" /><path
         d="M 798.293,89.2148 3608.29,102.727"
         style="fill:none;stroke:#000000;stroke-width:28.346;stroke-linecap:butt;stroke-linejoin:miter;stroke-miterlimit:10;stroke-dasharray:56.692;stroke-dashoffset:0;stroke-opacity:1"
         id="path47" /><path
         d="m 3714.59,103.238 -141.39,-71.5466 35.09,71.0356 -35.77,70.695"
         style="fill:#000000;fill-opacity:1;fill-rule:evenodd;stroke:none"
         id="path49" /><path
         d="m 3714.59,103.238 -141.39,-71.5466 35.09,71.0356 -35.77,70.695 z"
         style="fill:none;stroke:#000000;stroke-width:28.346;stroke-linecap:butt;stroke-linejoin:miter;stroke-miterlimit:10;stroke-dasharray:none;stroke-opacity:1"
         id="path51" /><path
         d="m 3420.3,868.73 2998.18,732.59"
         style="fill:none;stroke:#000000;stroke-width:28.346;stroke-linecap:butt;stroke-linejoin:miter;stroke-miterlimit:10;stroke-dasharray:56.692;stroke-dashoffset:0;stroke-opacity:1"
         id="path53" /><path
         d="m 6521.75,1626.55 -120.86,-102.48 17.59,77.25 -51.23,60.43"
         style="fill:#000000;fill-opacity:1;fill-rule:evenodd;stroke:none"
         id="path55" /><path
         d="m 6521.75,1626.55 -120.86,-102.48 17.59,77.25 -51.23,60.43 z"
         style="fill:none;stroke:#000000;stroke-width:28.346;stroke-linecap:butt;stroke-linejoin:miter;stroke-miterlimit:10;stroke-dasharray:none;stroke-opacity:1"
         id="path57" /><path
         d="m 2793.85,512.539 c 26.31,-49.305 40.08,-104.336 40.08,-160.219 0,-87.41 -33.64,-171.476 -93.94,-234.758"
         style="fill:none;stroke:#000000;stroke-width:28.346;stroke-linecap:butt;stroke-linejoin:miter;stroke-miterlimit:10;stroke-dasharray:none;stroke-opacity:1"
         id="path59" /><path
         d="m 2735.98,593.312 154.22,-36.398 -72.61,-31.707 -18.2,-77.109"
         style="fill:#000000;fill-opacity:1;fill-rule:evenodd;stroke:none"
         id="path61" /><path
         d="m 2735.98,593.312 154.22,-36.398 -72.61,-31.707 -18.2,-77.109 z"
         style="fill:none;stroke:#000000;stroke-width:28.346;stroke-linecap:butt;stroke-linejoin:miter;stroke-miterlimit:10;stroke-dasharray:none;stroke-opacity:1"
         id="path63" /><path
         d="m 4239.5,1614.98 c 101.2,-92.24 158.88,-222.85 158.88,-359.78 0,-39.5 -4.81,-78.85 -14.32,-117.18"
         style="fill:none;stroke:#000000;stroke-width:28.346;stroke-linecap:butt;stroke-linejoin:miter;stroke-miterlimit:10;stroke-dasharray:none;stroke-opacity:1"
         id="path65" /><path
         d="m 4157.3,1676.61 158.46,0.13 -63.34,-47.59 0.06,-79.23"
         style="fill:#000000;fill-opacity:1;fill-rule:evenodd;stroke:none"
         id="path67" /><path
         d="m 4157.3,1676.61 158.46,0.13 -63.34,-47.59 0.06,-79.23 z"
         style="fill:none;stroke:#000000;stroke-width:28.346;stroke-linecap:butt;stroke-linejoin:miter;stroke-miterlimit:10;stroke-dasharray:none;stroke-opacity:1"
         id="path69" /><path
         d="m 1445.33,877.746 c -16.92,0 -28.64,-1.918 -35.17,-5.758 -6.5,-3.812 -9.75,-10.328 -9.75,-19.543 0,-7.355 2.45,-13.199 7.34,-17.527 4.88,-4.301 11.53,-6.453 19.94,-6.453 11.59,0 20.89,4.058 27.9,12.176 7.02,8.136 10.53,18.957 10.53,32.449 v 4.656 h -20.79 m 41.91,8.652 v -74.359 h -21.12 v 21.121 c -4.79,-8.019 -10.76,-13.933 -17.89,-17.746 -7.14,-3.816 -15.88,-5.723 -26.22,-5.723 -13.05,0 -23.44,3.692 -31.17,11.075 -7.7,7.382 -11.55,17.269 -11.55,29.664 0,14.468 4.8,25.371 14.41,32.707 9.63,7.355 24,11.035 43.09,11.035 h 29.33 v 1.98 c 0,9.828 -3.18,17.43 -9.53,22.805 -6.34,5.379 -15.23,8.066 -26.7,8.066 -7.28,0 -14.38,-0.976 -21.3,-2.929 -6.89,-1.957 -13.53,-4.891 -19.91,-8.801 v 18.773 c 7.68,3.911 15.12,6.844 22.33,8.797 7.23,1.957 14.28,2.934 21.12,2.934 18.48,0 32.28,-4.91 41.39,-14.738 9.15,-9.829 13.72,-24.715 13.72,-44.661"
         style="fill:#000000;fill-opacity:1;fill-rule:nonzero;stroke:none"
         id="path71" /><path
         d="m 3911.43,2096.62 c -16.91,0 -28.64,-1.92 -35.16,-5.75 -6.5,-3.82 -9.75,-10.33 -9.75,-19.55 0,-7.36 2.44,-13.2 7.33,-17.52 4.89,-4.3 11.54,-6.46 19.94,-6.46 11.59,0 20.89,4.06 27.91,12.18 7.01,8.14 10.52,18.95 10.52,32.45 v 4.65 h -20.79 m 41.91,8.66 v -74.36 h -21.12 v 21.12 c -4.79,-8.02 -10.76,-13.93 -17.89,-17.75 -7.14,-3.81 -15.88,-5.72 -26.22,-5.72 -13.05,0 -23.44,3.69 -31.16,11.07 -7.7,7.39 -11.56,17.27 -11.56,29.67 0,14.47 4.81,25.37 14.41,32.71 9.63,7.35 24,11.03 43.09,11.03 h 29.33 v 1.98 c 0,9.83 -3.18,17.43 -9.53,22.81 -6.33,5.37 -15.23,8.06 -26.7,8.06 -7.28,0 -14.38,-0.97 -21.3,-2.93 -6.89,-1.95 -13.53,-4.89 -19.91,-8.8 v 18.77 c 7.68,3.92 15.12,6.85 22.33,8.8 7.24,1.96 14.28,2.94 21.12,2.94 18.48,0 32.28,-4.92 41.39,-14.74 9.15,-9.83 13.72,-24.72 13.72,-44.66"
         style="fill:#000000;fill-opacity:1;fill-rule:nonzero;stroke:none"
         id="path73" /><path
         d="m 1530.41,755.254 h 28.16 V 856.16 l -30.51,-7.039 v 14.078 l 31.46,7.039 h 17.82 V 755.254 h 28.16 v -14.078 h -75.09 v 14.078"
         style="fill:#000000;fill-opacity:1;fill-rule:nonzero;stroke:none"
         id="path75" /><path
         d="m 4007.44,1959.96 h 62.51 v -14.08 h -82.83 v 14.08 c 6.61,6.94 15.59,16.25 26.95,27.94 11.37,11.71 18.52,19.25 21.45,22.62 5.55,6.36 9.43,11.73 11.63,16.14 2.22,4.42 3.33,8.76 3.33,13.01 0,6.94 -2.43,12.6 -7.29,16.98 -4.84,4.37 -11.15,6.56 -18.92,6.56 -5.53,0 -11.36,-1.17 -17.49,-3.52 -6.14,-2.32 -12.69,-5.84 -19.66,-10.56 v 18.78 c 7.19,3.1 13.9,5.43 20.13,7 6.24,1.59 11.95,2.38 17.13,2.38 13.66,0 24.55,-3.36 32.67,-10.08 8.14,-6.72 12.21,-15.71 12.21,-26.95 0,-5.33 -1.03,-10.39 -3.08,-15.18 -2.03,-4.77 -5.73,-10.39 -11.11,-16.87 -1.47,-1.68 -6.18,-6.55 -14.12,-14.59 -7.92,-8.02 -19.09,-19.24 -33.51,-33.66"
         style="fill:#000000;fill-opacity:1;fill-rule:nonzero;stroke:none"
         id="path77" /><path
         d="m 2409.14,245.027 h 28.15 v 100.907 l -30.5,-7.043 v 14.082 l 31.46,7.039 h 17.82 V 245.027 h 28.16 v -14.082 h -75.09 v 14.082"
         style="fill:#000000;fill-opacity:1;fill-rule:nonzero;stroke:none"
         id="path79" /><path
         d="m 4135,1166.27 h 62.51 v -14.08 h -82.83 v 14.08 c 6.6,6.94 15.59,16.26 26.95,27.94 11.37,11.71 18.52,19.25 21.45,22.63 5.55,6.35 9.42,11.73 11.62,16.13 2.23,4.42 3.34,8.76 3.34,13.01 0,6.95 -2.43,12.61 -7.29,16.98 -4.84,4.38 -11.15,6.56 -18.93,6.56 -5.52,0 -11.35,-1.17 -17.48,-3.52 -6.14,-2.32 -12.69,-5.84 -19.66,-10.55 v 18.77 c 7.19,3.1 13.9,5.44 20.13,7 6.23,1.59 11.94,2.39 17.12,2.39 13.67,0 24.56,-3.37 32.68,-10.09 8.14,-6.72 12.2,-15.7 12.2,-26.95 0,-5.33 -1.02,-10.39 -3.08,-15.18 -2.02,-4.77 -5.73,-10.39 -11.11,-16.87 -1.46,-1.68 -6.17,-6.55 -14.11,-14.59 -7.92,-8.02 -19.09,-19.23 -33.51,-33.66"
         style="fill:#000000;fill-opacity:1;fill-rule:nonzero;stroke:none"
         id="path81" /><path
         d="m 2384.55,366.473 c 0,11.488 -2.01,22.082 -6.05,31.789 -4.01,9.726 -9.57,17.941 -16.68,24.64 -7.26,6.868 -15.79,12.246 -25.6,16.133 -9.77,3.887 -20.26,5.828 -31.45,5.828 -11.37,0 -21.96,-1.98 -31.76,-5.941 -9.78,-3.957 -18.05,-9.141 -24.82,-15.543 -7.43,-7.016 -13.16,-15.34 -17.2,-24.973 -4.01,-9.629 -6.01,-20.347 -6.01,-32.156 0,-10.754 1.9,-20.91 5.68,-30.469 3.79,-9.558 9.16,-17.918 16.1,-25.078 6.94,-7.164 15.3,-12.797 25.08,-16.906 9.8,-4.106 20.78,-6.16 32.93,-6.16 12.14,0 23.14,2.09 33,6.273 9.87,4.18 18.28,9.848 25.22,17.012 6.97,7.16 12.3,15.523 15.99,25.078 3.71,9.559 5.57,19.715 5.57,30.473 m -28.16,-1.543 c 0,-10.95 -0.9,-19.762 -2.71,-26.434 -1.79,-6.648 -4.16,-12.711 -7.11,-18.187 -1.86,-3.543 -4.32,-6.758 -7.37,-9.645 -3.04,-2.883 -6.38,-5.328 -10.05,-7.332 -3.65,-1.98 -7.57,-3.531 -11.77,-4.656 -4.21,-1.102 -8.41,-1.653 -12.61,-1.653 -4.67,0 -9.16,0.59 -13.46,1.762 -4.28,1.199 -8.25,2.86 -11.92,4.988 -3.64,2.149 -6.91,4.704 -9.79,7.661 -2.88,2.961 -5.25,6.148 -7.11,9.57 -3.74,7.09 -6.24,14.18 -7.48,21.266 -1.25,7.113 -1.87,14.668 -1.87,22.66 0,10.929 1.05,20.168 3.15,27.722 2.1,7.551 4.24,13.469 6.42,17.746 4.06,7.993 9.77,14.164 17.16,18.516 7.4,4.375 15.78,6.563 25.11,6.563 9.37,0 17.66,-2.223 24.9,-6.672 7.24,-4.426 13.04,-10.782 17.42,-19.067 2.64,-4.89 4.81,-11.258 6.52,-19.105 1.72,-7.821 2.57,-16.387 2.57,-25.703 m -18.07,-19.102 c -0.32,2.664 -0.64,5.817 -0.96,9.461 -0.29,3.641 -0.44,7.332 -0.44,11.07 0,3.766 0.15,7.508 0.44,11.223 0.32,3.715 0.64,6.746 0.96,9.094 l -3.53,0.254 c -2.66,-8.309 -7.82,-12.465 -15.47,-12.465 h -30.03 c -3.13,0 -6.11,0.816 -8.95,2.457 -2.8,1.66 -4.99,4.996 -6.56,10.008 l -3.52,-0.254 c 0.32,-2.961 0.64,-6.149 0.95,-9.571 0.32,-3.398 0.48,-6.98 0.48,-10.746 0,-3.738 -0.16,-7.429 -0.48,-11.07 -0.31,-3.644 -0.63,-6.797 -0.95,-9.461 l 3.52,-0.258 c 1.74,5.012 3.97,8.336 6.71,9.973 2.74,1.664 5.9,2.496 9.5,2.496 h 29.33 c 3.28,0 6.29,-0.867 9.02,-2.605 2.74,-1.711 4.89,-4.996 6.45,-9.864 l 3.53,0.258"
         style="fill:#000000;fill-opacity:1;fill-rule:nonzero;stroke:none"
         id="path83" /><path
         d="m 4117.91,1316.06 c 0,11.49 -2.02,22.09 -6.05,31.79 -4.01,9.73 -9.57,17.94 -16.68,24.64 -7.27,6.87 -15.8,12.25 -25.6,16.13 -9.78,3.89 -20.26,5.83 -31.46,5.83 -11.36,0 -21.95,-1.97 -31.75,-5.93 -9.78,-3.97 -18.05,-9.15 -24.82,-15.55 -7.43,-7.02 -13.17,-15.34 -17.2,-24.97 -4.01,-9.63 -6.01,-20.35 -6.01,-32.16 0,-10.75 1.89,-20.91 5.68,-30.47 3.79,-9.55 9.16,-17.92 16.1,-25.08 6.94,-7.16 15.3,-12.79 25.08,-16.9 9.8,-4.11 20.77,-6.16 32.92,-6.16 12.15,0 23.15,2.09 33,6.27 9.88,4.18 18.29,9.85 25.23,17.01 6.97,7.17 12.29,15.53 15.99,25.08 3.71,9.56 5.57,19.72 5.57,30.47 m -28.16,-1.54 c 0,-10.95 -0.91,-19.76 -2.71,-26.43 -1.79,-6.65 -4.16,-12.71 -7.12,-18.19 -1.85,-3.54 -4.31,-6.76 -7.37,-9.64 -3.03,-2.89 -6.38,-5.33 -10.04,-7.34 -3.65,-1.98 -7.57,-3.53 -11.78,-4.65 -4.2,-1.1 -8.4,-1.65 -12.61,-1.65 -4.67,0 -9.15,0.58 -13.45,1.76 -4.28,1.19 -8.25,2.85 -11.92,4.98 -3.64,2.16 -6.91,4.71 -9.79,7.67 -2.89,2.95 -5.26,6.14 -7.11,9.57 -3.74,7.08 -6.24,14.17 -7.48,21.26 -1.25,7.12 -1.87,14.67 -1.87,22.66 0,10.93 1.05,20.17 3.15,27.72 2.1,7.56 4.24,13.47 6.42,17.75 4.05,7.99 9.77,14.16 17.16,18.51 7.4,4.38 15.77,6.57 25.11,6.57 9.36,0 17.66,-2.23 24.9,-6.68 7.24,-4.42 13.04,-10.78 17.42,-19.06 2.64,-4.89 4.81,-11.26 6.52,-19.1 1.71,-7.83 2.57,-16.39 2.57,-25.71 m -18.08,-19.1 c -0.31,2.66 -0.63,5.82 -0.95,9.46 -0.29,3.64 -0.44,7.33 -0.44,11.07 0,3.76 0.15,7.51 0.44,11.22 0.32,3.72 0.64,6.75 0.95,9.1 l -3.52,0.25 c -2.66,-8.31 -7.82,-12.47 -15.47,-12.47 h -30.03 c -3.13,0 -6.11,0.83 -8.95,2.46 -2.81,1.67 -5,5 -6.56,10.01 l -3.52,-0.25 c 0.32,-2.96 0.63,-6.15 0.95,-9.57 0.32,-3.4 0.48,-6.99 0.48,-10.75 0,-3.74 -0.16,-7.43 -0.48,-11.07 -0.32,-3.64 -0.63,-6.8 -0.95,-9.46 l 3.52,-0.26 c 1.74,5.01 3.97,8.34 6.71,9.98 2.74,1.66 5.9,2.49 9.5,2.49 h 29.33 c 3.27,0 6.28,-0.87 9.02,-2.6 2.74,-1.71 4.89,-5 6.45,-9.87 l 3.52,0.26"
         style="fill:#000000;fill-opacity:1;fill-rule:nonzero;stroke:none"
         id="path85" /><path
         d="m 5113.83,2740.8 h 107.95 v -18.78 h -84.48 v -51.62 h 82.13 v -18.78 h -82.13 v -63.35 h 86.82 v -18.78 h -110.29 v 171.31"
         style="fill:#000000;fill-opacity:1;fill-rule:nonzero;stroke:none"
         id="path87" /><path
         d="m 5373.29,2648.29 v -78.8 h -21.12 v 78.1 c 0,12.34 -2.4,21.57 -7.19,27.68 -4.77,6.14 -11.92,9.21 -21.45,9.21 -11.46,0 -20.51,-3.69 -27.13,-11.08 -6.63,-7.35 -9.94,-17.39 -9.94,-30.1 v -73.81 h -21.12 v 129.07 h 21.12 v -18.77 c 5.09,7.87 11.06,13.75 17.93,17.63 6.87,3.89 14.8,5.83 23.8,5.83 14.83,0 26.06,-4.66 33.66,-13.97 7.62,-9.29 11.44,-22.95 11.44,-40.99"
         style="fill:#000000;fill-opacity:1;fill-rule:nonzero;stroke:none"
         id="path89" /><path
         d="m 5504.38,2679.79 v 68.05 h 21.12 v -178.35 h -21.12 v 21.12 c -4.45,-7.94 -10.06,-13.84 -16.83,-17.71 -6.77,-3.84 -14.91,-5.76 -24.42,-5.76 -15.54,0 -28.2,6.25 -37.98,18.74 -9.76,12.52 -14.63,28.96 -14.63,49.32 0,20.36 4.87,36.79 14.63,49.28 9.78,12.51 22.44,18.77 37.98,18.77 9.51,0 17.65,-1.93 24.42,-5.79 6.77,-3.84 12.38,-9.73 16.83,-17.67 m -70.4,-44.59 c 0,-15.38 3.12,-27.44 9.36,-36.19 6.25,-8.73 14.84,-13.09 25.77,-13.09 10.95,0 19.57,4.36 25.85,13.09 6.28,8.75 9.42,20.81 9.42,36.19 0,15.37 -3.14,27.42 -9.42,36.15 -6.28,8.75 -14.9,13.13 -25.85,13.13 -10.93,0 -19.52,-4.38 -25.77,-13.13 -6.24,-8.73 -9.36,-20.78 -9.36,-36.15"
         style="fill:#000000;fill-opacity:1;fill-rule:nonzero;stroke:none"
         id="path91" /><path
         d="m 5646.24,2740.8 h 107.94 v -18.78 h -84.48 v -51.62 h 82.14 v -18.78 h -82.14 v -63.35 h 86.83 v -18.78 h -110.29 v 171.31"
         style="fill:#000000;fill-opacity:1;fill-rule:nonzero;stroke:none"
         id="path93" /><path
         d="m 5863.45,2747.84 v -18.78 h -19.43 c -7.68,0 -13,-1.44 -15.99,-4.32 -2.98,-2.86 -4.47,-8.03 -4.47,-15.51 v -10.67 h 35.2 v -16.43 h -35.2 v -112.64 h -21.12 v 112.64 h -21.12 v 16.43 h 21.12 v 8.39 c 0,14.23 3.34,24.59 10.01,31.1 6.67,6.52 17.27,9.79 31.79,9.79 h 19.21"
         style="fill:#000000;fill-opacity:1;fill-rule:nonzero;stroke:none"
         id="path95" /><path
         d="m 5947.7,2747.84 v -18.78 h -19.43 c -7.68,0 -13.01,-1.44 -15.99,-4.32 -2.98,-2.86 -4.47,-8.03 -4.47,-15.51 v -10.67 h 35.2 v -16.43 h -35.2 v -112.64 h -21.12 v 112.64 h -21.12 v 16.43 h 21.12 v 8.39 c 0,14.23 3.33,24.59 10.01,31.1 6.67,6.52 17.27,9.79 31.79,9.79 h 19.21"
         style="fill:#000000;fill-opacity:1;fill-rule:nonzero;stroke:none"
         id="path97" /><path
         d="m 6078.88,2640.77 v -10.27 h -96.21 c 0.9,-14.52 5.26,-25.58 13.05,-33.18 7.8,-7.6 18.64,-11.4 32.53,-11.4 8.06,0 15.87,0.97 23.43,2.93 7.55,1.96 15.05,4.89 22.51,8.8 v -21.12 c -7.63,-3.05 -15.45,-5.39 -23.47,-7 -8.01,-1.59 -16.14,-2.39 -24.38,-2.39 -20.63,0 -36.98,6.02 -49.06,18.04 -12.05,12.05 -18.08,28.34 -18.08,48.84 0,21.22 5.71,38.07 17.13,50.53 11.41,12.47 26.8,18.7 46.16,18.7 17.38,0 31.12,-5.61 41.21,-16.83 10.12,-11.19 15.18,-26.41 15.18,-45.65 m -21.12,6.16 c -0.14,11.42 -3.35,20.52 -9.6,27.32 -6.24,6.82 -14.48,10.23 -24.75,10.23 -11.64,0 -20.96,-3.29 -27.98,-9.87 -6.99,-6.57 -11.01,-15.85 -12.06,-27.82 l 74.39,0.14"
         style="fill:#000000;fill-opacity:1;fill-rule:nonzero;stroke:none"
         id="path99" /><path
         d="m 6208.08,2693.86 v -18.77 c -5.82,3.13 -11.66,5.48 -17.53,7.04 -5.84,1.57 -11.75,2.35 -17.71,2.35 -13.37,0 -23.75,-4.32 -31.13,-12.94 -7.38,-8.63 -11.07,-20.75 -11.07,-36.34 0,-15.6 3.69,-27.71 11.07,-36.34 7.38,-8.63 17.76,-12.94 31.13,-12.94 5.96,0 11.87,0.78 17.71,2.35 5.87,1.56 11.71,3.91 17.53,7.03 v -18.77 c -5.85,-3.13 -11.91,-5.48 -18.19,-7.04 -6.26,-1.56 -12.92,-2.35 -19.98,-2.35 -19.19,0 -34.45,6.14 -45.76,18.41 -11.32,12.27 -16.98,28.82 -16.98,49.65 0,21.14 5.71,37.76 17.13,49.86 11.43,12.13 27.1,18.19 47,18.19 6.45,0 12.75,-0.78 18.88,-2.35 6.16,-1.56 12.13,-3.91 17.9,-7.04"
         style="fill:#000000;fill-opacity:1;fill-rule:nonzero;stroke:none"
         id="path101" /><path
         d="m 6267.02,2736.11 v -37.55 h 44.58 v -16.43 h -44.58 v -69.34 c 0,-10.41 1.46,-17.11 4.4,-20.09 2.96,-2.96 8.94,-4.43 17.96,-4.43 h 22.22 v -18.78 h -22.22 c -16.47,0 -27.84,3.11 -34.1,9.31 -6.26,6.24 -9.39,17.57 -9.39,33.99 v 69.34 h -16.42 v 16.43 h 16.42 v 37.55 h 21.13"
         style="fill:#000000;fill-opacity:1;fill-rule:nonzero;stroke:none"
         id="path103" /><path
         d="m 6391.76,2684.48 c -10.88,0 -19.49,-4.4 -25.81,-13.2 -6.31,-8.78 -9.47,-20.8 -9.47,-36.08 0,-15.28 3.14,-27.32 9.43,-36.12 6.28,-8.78 14.89,-13.16 25.85,-13.16 10.78,0 19.32,4.41 25.63,13.24 6.33,8.82 9.49,20.83 9.49,36.04 0,15.13 -3.16,27.12 -9.49,35.97 -6.31,8.87 -14.85,13.31 -25.63,13.31 m -0.08,18.77 c 18.27,0 32.6,-6.02 43.01,-18.07 10.44,-12.03 15.66,-28.69 15.66,-49.98 0,-21.22 -5.22,-37.87 -15.66,-49.94 -10.41,-12.08 -24.74,-18.12 -43.01,-18.12 -18.33,0 -32.69,6.04 -43.08,18.12 -10.39,12.07 -15.58,28.72 -15.58,49.94 0,21.29 5.19,37.95 15.58,49.98 10.39,12.05 24.75,18.07 43.08,18.07"
         style="fill:#000000;fill-opacity:1;fill-rule:nonzero;stroke:none"
         id="path105" /><path
         d="m 6561.7,2682.13 c -2.37,0.81 -4.95,1.39 -7.74,1.76 -2.78,0.39 -5.86,0.59 -9.23,0.59 -11.91,0 -21.05,-3.99 -27.43,-11.96 -6.38,-7.94 -9.57,-19.36 -9.57,-34.24 v -68.79 h -21.12 v 129.07 h 21.12 v -18.77 c 4.42,7.94 10.19,13.83 17.31,17.67 7.11,3.86 15.74,5.79 25.88,5.79 1.47,0 3.07,0 4.81,0 1.75,0 3.71,0 5.86,0 l 0.11,-21.12"
         style="fill:#000000;fill-opacity:1;fill-rule:nonzero;stroke:none"
         id="path107" /><path
         d="m 4728.95,2594.82 122.82,75.59 264.55,278.73 -226.77,-311.8 -23.6,-132.28"
         style="fill:#00ff00;fill-opacity:1;fill-rule:evenodd;stroke:none"
         id="path109" /><path
         d="m 4728.95,2594.82 122.82,75.59 264.55,278.73 -226.77,-311.8 -23.6,-132.28 z"
         style="fill:none;stroke:#000000;stroke-width:28.346;stroke-linecap:butt;stroke-linejoin:miter;stroke-miterlimit:10;stroke-dasharray:none;stroke-opacity:1"
         id="path111" /></g></g></svg>
