<?xml version="1.0" encoding="UTF-8" standalone="no"?>
<!DOCTYPE svg PUBLIC "-//W3C//DTD SVG 1.0//EN" "http://www.w3.org/TR/2001/PR-SVG-20010719/DTD/svg10.dtd">
<svg width="86cm" height="38cm" viewBox="-274 -160 1710 749" xmlns="http://www.w3.org/2000/svg" xmlns:xlink="http://www.w3.org/1999/xlink">
  <g>
    <ellipse style="fill: #d8e5e5" cx="101" cy="215" rx="373.5" ry="373.5"/>
    <ellipse style="fill: none; fill-opacity:0; stroke-width: 2; stroke: #000000" cx="101" cy="215" rx="373.5" ry="373.5"/>
  </g>
  <g>
    <ellipse style="fill: #ffffff" cx="96.5" cy="214.5" rx="24" ry="24"/>
    <ellipse style="fill: none; fill-opacity:0; stroke-width: 2; stroke: #000000" cx="96.5" cy="214.5" rx="24" ry="24"/>
  </g>
  <g>
    <polygon style="fill: #1e90ff" points="92.653,210.212 298.652,158.211 303.652,169.211 96.653,220.212 "/>
    <polygon style="fill: none; fill-opacity:0; stroke-width: 2; stroke: #000000" points="92.653,210.212 298.652,158.211 303.652,169.211 96.653,220.212 "/>
  </g>
  <g>
    <polygon style="fill: #1e90ff" points="294.652,160.211 396.652,47.211 405.652,53.211 301.652,169.211 "/>
    <polygon style="fill: none; fill-opacity:0; stroke-width: 2; stroke: #000000" points="294.652,160.211 396.652,47.211 405.652,53.211 301.652,169.211 "/>
  </g>
  <g>
    <polygon style="fill: #1e90ff" points="97.75,210.5 270.702,269.612 269.5,280.5 94.5,220.5 "/>
    <polygon style="fill: none; fill-opacity:0; stroke-width: 2; stroke: #000000" points="97.75,210.5 270.702,269.612 269.5,280.5 94.5,220.5 "/>
  </g>
  <g>
    <polygon style="fill: #1e90ff" points="162.703,380.612 264.702,267.612 273.702,273.612 169.703,389.612 "/>
    <polygon style="fill: none; fill-opacity:0; stroke-width: 2; stroke: #000000" points="162.703,380.612 264.702,267.612 273.702,273.612 169.703,389.612 "/>
  </g>
  <g>
    <polygon style="fill: #1e90ff" points="-107.5,185.5 94.5,210.5 92.5,221.5 -108.247,194.511 "/>
    <polygon style="fill: none; fill-opacity:0; stroke-width: 2; stroke: #000000" points="-107.5,185.5 94.5,210.5 92.5,221.5 -108.247,194.511 "/>
  </g>
  <g>
    <polygon style="fill: #1e90ff" points="-111.5,194.5 -220.5,81.5002 -213.5,74.5002 -104.247,187.511 "/>
    <polygon style="fill: none; fill-opacity:0; stroke-width: 2; stroke: #000000" points="-111.5,194.5 -220.5,81.5002 -213.5,74.5002 -104.247,187.511 "/>
  </g>
  <g>
    <polygon style="fill: #1e90ff" points="89.5,208.812 65.5,33.812 77.5,31.812 100.5,206.812 "/>
    <polygon style="fill: none; fill-opacity:0; stroke-width: 2; stroke: #000000" points="89.5,208.812 65.5,33.812 77.5,31.812 100.5,206.812 "/>
  </g>
  <g>
    <polygon style="fill: #1e90ff" points="66.104,31.0232 168.104,-81.9768 177.104,-75.9768 73.104,40.0232 "/>
    <polygon style="fill: none; fill-opacity:0; stroke-width: 2; stroke: #000000" points="66.104,31.0232 168.104,-81.9768 177.104,-75.9768 73.104,40.0232 "/>
  </g>
  <g>
    <polygon style="fill: #1e90ff" points="-59.0024,341.208 95.4172,211.582 100.417,222.582 -55.0024,353.208 "/>
    <polygon style="fill: none; fill-opacity:0; stroke-width: 2; stroke: #000000" points="-59.0024,341.208 95.4172,211.582 100.417,222.582 -55.0024,353.208 "/>
  </g>
  <g>
    <polygon style="fill: #1e90ff" points="-79.6692,486.712 -62.3358,342.712 -53.0024,350.712 -70.8358,488.628 "/>
    <polygon style="fill: none; fill-opacity:0; stroke-width: 2; stroke: #000000" points="-79.6692,486.712 -62.3358,342.712 -53.0024,350.712 -70.8358,488.628 "/>
  </g>
  <g>
    <ellipse style="fill: #000000" cx="-75.8358" cy="490.912" rx="3.5" ry="3.5"/>
    <ellipse style="fill: none; fill-opacity:0; stroke-width: 2; stroke: #000000" cx="-75.8358" cy="490.912" rx="3.5" ry="3.5"/>
  </g>
  <g>
    <ellipse style="fill: #000000" cx="-219.836" cy="76.4938" rx="3.5" ry="3.5"/>
    <ellipse style="fill: none; fill-opacity:0; stroke-width: 2; stroke: #000000" cx="-219.836" cy="76.4938" rx="3.5" ry="3.5"/>
  </g>
  <g>
    <ellipse style="fill: #000000" cx="175.164" cy="-82.2722" rx="3.5" ry="3.5"/>
    <ellipse style="fill: none; fill-opacity:0; stroke-width: 2; stroke: #000000" cx="175.164" cy="-82.2722" rx="3.5" ry="3.5"/>
  </g>
  <g>
    <ellipse style="fill: #000000" cx="403.164" cy="46.7278" rx="3.5" ry="3.5"/>
    <ellipse style="fill: none; fill-opacity:0; stroke-width: 2; stroke: #000000" cx="403.164" cy="46.7278" rx="3.5" ry="3.5"/>
  </g>
  <g>
    <ellipse style="fill: #000000" cx="164.164" cy="387.416" rx="3.5" ry="3.5"/>
    <ellipse style="fill: none; fill-opacity:0; stroke-width: 2; stroke: #000000" cx="164.164" cy="387.416" rx="3.5" ry="3.5"/>
  </g>
  <g>
    <ellipse style="fill: #d8e5e5" cx="1061.1" cy="215" rx="373.5" ry="373.5"/>
    <ellipse style="fill: none; fill-opacity:0; stroke-width: 2; stroke: #000000" cx="1061.1" cy="215" rx="373.5" ry="373.5"/>
  </g>
  <g>
    <ellipse style="fill: #ffffff" cx="1056.6" cy="214.5" rx="24" ry="24"/>
    <ellipse style="fill: none; fill-opacity:0; stroke-width: 2; stroke: #000000" cx="1056.6" cy="214.5" rx="24" ry="24"/>
  </g>
  <g>
    <polygon style="fill: #1e90ff" points="1052.75,210.212 1258.75,158.211 1263.75,169.211 1056.75,220.212 "/>
    <polygon style="fill: none; fill-opacity:0; stroke-width: 2; stroke: #000000" points="1052.75,210.212 1258.75,158.211 1263.75,169.211 1056.75,220.212 "/>
  </g>
  <g>
    <polygon style="fill: #1e90ff" points="1254.75,160.211 1356.75,47.211 1365.75,53.211 1261.75,169.211 "/>
    <polygon style="fill: none; fill-opacity:0; stroke-width: 2; stroke: #000000" points="1254.75,160.211 1356.75,47.211 1365.75,53.211 1261.75,169.211 "/>
  </g>
  <g>
    <ellipse style="fill: #000000" cx="1363.26" cy="46.7278" rx="3.5" ry="3.5"/>
    <ellipse style="fill: none; fill-opacity:0; stroke-width: 2; stroke: #000000" cx="1363.26" cy="46.7278" rx="3.5" ry="3.5"/>
  </g>
  <g>
    <path style="fill: #ff0000" d="M 804.86 -58.5 C 823.86,-76.5 985.86,-184.5 926.86,-105.5 C 867.86,-26.5 1013.86,117.5 988.86,138.5 C 963.86,159.5 844.86,-4.5 758.86,47.5 C 672.86,99.5 785.86,-40.5 804.86,-58.5z"/>
    <path style="fill: none; fill-opacity:0; stroke-width: 2; stroke: #ff0000" d="M 804.86 -58.5 C 823.86,-76.5 985.86,-184.5 926.86,-105.5 C 867.86,-26.5 1013.86,117.5 988.86,138.5 C 963.86,159.5 844.86,-4.5 758.86,47.5 C 672.86,99.5 785.86,-40.5 804.86,-58.5"/>
  </g>
</svg>
