<?xml version="1.0" encoding="UTF-8" standalone="no"?>
<!DOCTYPE svg PUBLIC "-//W3C//DTD SVG 1.0//EN" "http://www.w3.org/TR/2001/PR-SVG-20010719/DTD/svg10.dtd">
<svg width="51cm" height="19cm" viewBox="230 66 1010 378" xmlns="http://www.w3.org/2000/svg" xmlns:xlink="http://www.w3.org/1999/xlink">
  <g>
    <rect style="fill: #ff0000" x="232" y="68" width="426" height="53"/>
    <rect style="fill: none; fill-opacity:0; stroke-width: 2; stroke: #ff0000" x="232" y="68" width="426" height="53"/>
  </g>
  <g>
    <rect style="fill: #ff0000" x="233" y="177" width="181" height="52"/>
    <rect style="fill: none; fill-opacity:0; stroke-width: 2; stroke: #ff0000" x="233" y="177" width="181" height="52"/>
  </g>
  <g>
    <rect style="fill: #ff0000" x="598" y="122" width="59" height="159"/>
    <rect style="fill: none; fill-opacity:0; stroke-width: 2; stroke: #ff0000" x="598" y="122" width="59" height="159"/>
  </g>
  <g>
    <rect style="fill: #ff0000" x="233.6" y="230" width="59.4" height="158"/>
    <rect style="fill: none; fill-opacity:0; stroke-width: 2; stroke: #ff0000" x="233.6" y="230" width="59.4" height="158"/>
  </g>
  <g>
    <rect style="fill: #ff0000" x="478" y="174" width="119" height="54"/>
    <rect style="fill: none; fill-opacity:0; stroke-width: 2; stroke: #ff0000" x="478" y="174" width="119" height="54"/>
  </g>
  <g>
    <rect style="fill: #ff0000" x="231.6" y="388.5" width="425.4" height="54.5"/>
    <rect style="fill: none; fill-opacity:0; stroke-width: 2; stroke: #ff0000" x="231.6" y="388.5" width="425.4" height="54.5"/>
  </g>
  <g>
    <rect style="fill: #ff0000" x="354" y="283.3" width="303" height="54.5"/>
    <rect style="fill: none; fill-opacity:0; stroke-width: 2; stroke: #ff0000" x="354" y="283.3" width="303" height="54.5"/>
  </g>
  <g>
    <line style="fill: none; fill-opacity:0; stroke-width: 2; stroke: #7f7f7f" x1="233" y1="82.3571" x2="658" y2="82.3571"/>
    <line style="fill: none; fill-opacity:0; stroke-width: 2; stroke: #7f7f7f" x1="233" y1="95.7143" x2="658" y2="95.7143"/>
    <line style="fill: none; fill-opacity:0; stroke-width: 2; stroke: #7f7f7f" x1="233" y1="109.071" x2="658" y2="109.071"/>
    <line style="fill: none; fill-opacity:0; stroke-width: 2; stroke: #7f7f7f" x1="233" y1="122.429" x2="658" y2="122.429"/>
    <line style="fill: none; fill-opacity:0; stroke-width: 2; stroke: #7f7f7f" x1="233" y1="135.786" x2="658" y2="135.786"/>
    <line style="fill: none; fill-opacity:0; stroke-width: 2; stroke: #7f7f7f" x1="233" y1="149.143" x2="658" y2="149.143"/>
    <line style="fill: none; fill-opacity:0; stroke-width: 2; stroke: #7f7f7f" x1="233" y1="162.5" x2="658" y2="162.5"/>
    <line style="fill: none; fill-opacity:0; stroke-width: 2; stroke: #7f7f7f" x1="233" y1="175.857" x2="658" y2="175.857"/>
    <line style="fill: none; fill-opacity:0; stroke-width: 2; stroke: #7f7f7f" x1="233" y1="189.214" x2="658" y2="189.214"/>
    <line style="fill: none; fill-opacity:0; stroke-width: 2; stroke: #7f7f7f" x1="233" y1="202.571" x2="658" y2="202.571"/>
    <line style="fill: none; fill-opacity:0; stroke-width: 2; stroke: #7f7f7f" x1="233" y1="215.929" x2="658" y2="215.929"/>
    <line style="fill: none; fill-opacity:0; stroke-width: 2; stroke: #7f7f7f" x1="233" y1="229.286" x2="658" y2="229.286"/>
    <line style="fill: none; fill-opacity:0; stroke-width: 2; stroke: #7f7f7f" x1="233" y1="242.643" x2="658" y2="242.643"/>
    <line style="fill: none; fill-opacity:0; stroke-width: 2; stroke: #7f7f7f" x1="233" y1="256" x2="658" y2="256"/>
    <line style="fill: none; fill-opacity:0; stroke-width: 2; stroke: #7f7f7f" x1="233" y1="269.357" x2="658" y2="269.357"/>
    <line style="fill: none; fill-opacity:0; stroke-width: 2; stroke: #7f7f7f" x1="233" y1="282.714" x2="658" y2="282.714"/>
    <line style="fill: none; fill-opacity:0; stroke-width: 2; stroke: #7f7f7f" x1="233" y1="296.071" x2="658" y2="296.071"/>
    <line style="fill: none; fill-opacity:0; stroke-width: 2; stroke: #7f7f7f" x1="233" y1="309.429" x2="658" y2="309.429"/>
    <line style="fill: none; fill-opacity:0; stroke-width: 2; stroke: #7f7f7f" x1="233" y1="322.786" x2="658" y2="322.786"/>
    <line style="fill: none; fill-opacity:0; stroke-width: 2; stroke: #7f7f7f" x1="233" y1="336.143" x2="658" y2="336.143"/>
    <line style="fill: none; fill-opacity:0; stroke-width: 2; stroke: #7f7f7f" x1="233" y1="349.5" x2="658" y2="349.5"/>
    <line style="fill: none; fill-opacity:0; stroke-width: 2; stroke: #7f7f7f" x1="233" y1="362.857" x2="658" y2="362.857"/>
    <line style="fill: none; fill-opacity:0; stroke-width: 2; stroke: #7f7f7f" x1="233" y1="376.214" x2="658" y2="376.214"/>
    <line style="fill: none; fill-opacity:0; stroke-width: 2; stroke: #7f7f7f" x1="233" y1="389.571" x2="658" y2="389.571"/>
    <line style="fill: none; fill-opacity:0; stroke-width: 2; stroke: #7f7f7f" x1="233" y1="402.929" x2="658" y2="402.929"/>
    <line style="fill: none; fill-opacity:0; stroke-width: 2; stroke: #7f7f7f" x1="233" y1="416.286" x2="658" y2="416.286"/>
    <line style="fill: none; fill-opacity:0; stroke-width: 2; stroke: #7f7f7f" x1="233" y1="429.643" x2="658" y2="429.643"/>
    <line style="fill: none; fill-opacity:0; stroke-width: 2; stroke: #7f7f7f" x1="248.179" y1="69" x2="248.179" y2="443"/>
    <line style="fill: none; fill-opacity:0; stroke-width: 2; stroke: #7f7f7f" x1="263.357" y1="69" x2="263.357" y2="443"/>
    <line style="fill: none; fill-opacity:0; stroke-width: 2; stroke: #7f7f7f" x1="278.536" y1="69" x2="278.536" y2="443"/>
    <line style="fill: none; fill-opacity:0; stroke-width: 2; stroke: #7f7f7f" x1="293.714" y1="69" x2="293.714" y2="443"/>
    <line style="fill: none; fill-opacity:0; stroke-width: 2; stroke: #7f7f7f" x1="308.893" y1="69" x2="308.893" y2="443"/>
    <line style="fill: none; fill-opacity:0; stroke-width: 2; stroke: #7f7f7f" x1="324.071" y1="69" x2="324.071" y2="443"/>
    <line style="fill: none; fill-opacity:0; stroke-width: 2; stroke: #7f7f7f" x1="339.25" y1="69" x2="339.25" y2="443"/>
    <line style="fill: none; fill-opacity:0; stroke-width: 2; stroke: #7f7f7f" x1="354.429" y1="69" x2="354.429" y2="443"/>
    <line style="fill: none; fill-opacity:0; stroke-width: 2; stroke: #7f7f7f" x1="369.607" y1="69" x2="369.607" y2="443"/>
    <line style="fill: none; fill-opacity:0; stroke-width: 2; stroke: #7f7f7f" x1="384.786" y1="69" x2="384.786" y2="443"/>
    <line style="fill: none; fill-opacity:0; stroke-width: 2; stroke: #7f7f7f" x1="399.964" y1="69" x2="399.964" y2="443"/>
    <line style="fill: none; fill-opacity:0; stroke-width: 2; stroke: #7f7f7f" x1="415.143" y1="69" x2="415.143" y2="443"/>
    <line style="fill: none; fill-opacity:0; stroke-width: 2; stroke: #7f7f7f" x1="430.321" y1="69" x2="430.321" y2="443"/>
    <line style="fill: none; fill-opacity:0; stroke-width: 2; stroke: #7f7f7f" x1="445.5" y1="69" x2="445.5" y2="443"/>
    <line style="fill: none; fill-opacity:0; stroke-width: 2; stroke: #7f7f7f" x1="460.679" y1="69" x2="460.679" y2="443"/>
    <line style="fill: none; fill-opacity:0; stroke-width: 2; stroke: #7f7f7f" x1="475.857" y1="69" x2="475.857" y2="443"/>
    <line style="fill: none; fill-opacity:0; stroke-width: 2; stroke: #7f7f7f" x1="491.036" y1="69" x2="491.036" y2="443"/>
    <line style="fill: none; fill-opacity:0; stroke-width: 2; stroke: #7f7f7f" x1="506.214" y1="69" x2="506.214" y2="443"/>
    <line style="fill: none; fill-opacity:0; stroke-width: 2; stroke: #7f7f7f" x1="521.393" y1="69" x2="521.393" y2="443"/>
    <line style="fill: none; fill-opacity:0; stroke-width: 2; stroke: #7f7f7f" x1="536.571" y1="69" x2="536.571" y2="443"/>
    <line style="fill: none; fill-opacity:0; stroke-width: 2; stroke: #7f7f7f" x1="551.75" y1="69" x2="551.75" y2="443"/>
    <line style="fill: none; fill-opacity:0; stroke-width: 2; stroke: #7f7f7f" x1="566.929" y1="69" x2="566.929" y2="443"/>
    <line style="fill: none; fill-opacity:0; stroke-width: 2; stroke: #7f7f7f" x1="582.107" y1="69" x2="582.107" y2="443"/>
    <line style="fill: none; fill-opacity:0; stroke-width: 2; stroke: #7f7f7f" x1="597.286" y1="69" x2="597.286" y2="443"/>
    <line style="fill: none; fill-opacity:0; stroke-width: 2; stroke: #7f7f7f" x1="612.464" y1="69" x2="612.464" y2="443"/>
    <line style="fill: none; fill-opacity:0; stroke-width: 2; stroke: #7f7f7f" x1="627.643" y1="69" x2="627.643" y2="443"/>
    <line style="fill: none; fill-opacity:0; stroke-width: 2; stroke: #7f7f7f" x1="642.821" y1="69" x2="642.821" y2="443"/>
    <rect style="fill: none; fill-opacity:0; stroke-width: 2; stroke: #000000" x="233" y="69" width="425" height="374"/>
  </g>
  <g>
    <rect style="fill: #ff0000" x="781.114" y="68" width="426" height="53"/>
    <rect style="fill: none; fill-opacity:0; stroke-width: 2; stroke: #ff0000" x="781.114" y="68" width="426" height="53"/>
  </g>
  <g>
    <rect style="fill: #ff0000" x="782.114" y="177" width="181" height="52"/>
    <rect style="fill: none; fill-opacity:0; stroke-width: 2; stroke: #ff0000" x="782.114" y="177" width="181" height="52"/>
  </g>
  <g>
    <rect style="fill: #ff0000" x="1147.11" y="122" width="59" height="159"/>
    <rect style="fill: none; fill-opacity:0; stroke-width: 2; stroke: #ff0000" x="1147.11" y="122" width="59" height="159"/>
  </g>
  <g>
    <rect style="fill: #ff0000" x="782.714" y="230" width="59.4" height="158"/>
    <rect style="fill: none; fill-opacity:0; stroke-width: 2; stroke: #ff0000" x="782.714" y="230" width="59.4" height="158"/>
  </g>
  <g>
    <rect style="fill: #ff0000" x="1027.11" y="174" width="119" height="54"/>
    <rect style="fill: none; fill-opacity:0; stroke-width: 2; stroke: #ff0000" x="1027.11" y="174" width="119" height="54"/>
  </g>
  <g>
    <rect style="fill: #ff0000" x="780.714" y="388.5" width="425.4" height="54.5"/>
    <rect style="fill: none; fill-opacity:0; stroke-width: 2; stroke: #ff0000" x="780.714" y="388.5" width="425.4" height="54.5"/>
  </g>
  <g>
    <rect style="fill: #ff0000" x="903.114" y="283.3" width="303" height="54.5"/>
    <rect style="fill: none; fill-opacity:0; stroke-width: 2; stroke: #ff0000" x="903.114" y="283.3" width="303" height="54.5"/>
  </g>
  <g>
    <line style="fill: none; fill-opacity:0; stroke-width: 2; stroke: #000000" x1="812.471" y1="149.143" x2="873.186" y2="149.143"/>
    <path style="fill: #000000" d="M 873.186 149.143 C 873.186,150.643 871.686,152.143 870.186,152.143 C 868.686,152.143 867.186,150.643 867.186,149.143 C 867.186,147.643 868.686,146.143 870.186,146.143 C 871.686,146.143 873.186,147.643 873.186,149.143z"/>
    <path style="fill: none; fill-opacity:0; stroke-width: 2; stroke: #000000" d="M 873.186 149.143 C 873.186,150.643 871.686,152.143 870.186,152.143 C 868.686,152.143 867.186,150.643 867.186,149.143 C 867.186,147.643 868.686,146.143 870.186,146.143 C 871.686,146.143 873.186,147.643 873.186,149.143"/>
  </g>
  <g>
    <line style="fill: none; fill-opacity:0; stroke-width: 2; stroke: #000000" x1="873.186" y1="149.143" x2="933.9" y2="149.143"/>
    <path style="fill: #000000" d="M 933.9 149.143 C 933.9,150.643 932.4,152.143 930.9,152.143 C 929.4,152.143 927.9,150.643 927.9,149.143 C 927.9,147.643 929.4,146.143 930.9,146.143 C 932.4,146.143 933.9,147.643 933.9,149.143z"/>
    <path style="fill: none; fill-opacity:0; stroke-width: 2; stroke: #000000" d="M 933.9 149.143 C 933.9,150.643 932.4,152.143 930.9,152.143 C 929.4,152.143 927.9,150.643 927.9,149.143 C 927.9,147.643 929.4,146.143 930.9,146.143 C 932.4,146.143 933.9,147.643 933.9,149.143"/>
  </g>
  <g>
    <line style="fill: none; fill-opacity:0; stroke-width: 2; stroke: #000000" x1="933.9" y1="149.143" x2="994.614" y2="149.143"/>
    <path style="fill: #000000" d="M 994.614 149.143 C 994.614,150.643 993.114,152.143 991.614,152.143 C 990.114,152.143 988.614,150.643 988.614,149.143 C 988.614,147.643 990.114,146.143 991.614,146.143 C 993.114,146.143 994.614,147.643 994.614,149.143z"/>
    <path style="fill: none; fill-opacity:0; stroke-width: 2; stroke: #000000" d="M 994.614 149.143 C 994.614,150.643 993.114,152.143 991.614,152.143 C 990.114,152.143 988.614,150.643 988.614,149.143 C 988.614,147.643 990.114,146.143 991.614,146.143 C 993.114,146.143 994.614,147.643 994.614,149.143"/>
  </g>
  <g>
    <line style="fill: none; fill-opacity:0; stroke-width: 2; stroke: #000000" x1="994.614" y1="149.143" x2="1055.33" y2="149.143"/>
    <path style="fill: #000000" d="M 1055.33 149.143 C 1055.33,150.643 1053.83,152.143 1052.33,152.143 C 1050.83,152.143 1049.33,150.643 1049.33,149.143 C 1049.33,147.643 1050.83,146.143 1052.33,146.143 C 1053.83,146.143 1055.33,147.643 1055.33,149.143z"/>
    <path style="fill: none; fill-opacity:0; stroke-width: 2; stroke: #000000" d="M 1055.33 149.143 C 1055.33,150.643 1053.83,152.143 1052.33,152.143 C 1050.83,152.143 1049.33,150.643 1049.33,149.143 C 1049.33,147.643 1050.83,146.143 1052.33,146.143 C 1053.83,146.143 1055.33,147.643 1055.33,149.143"/>
  </g>
  <g>
    <line style="fill: none; fill-opacity:0; stroke-width: 2; stroke: #000000" x1="1055.33" y1="149.143" x2="1116.04" y2="149.143"/>
    <path style="fill: #000000" d="M 1116.04 149.143 C 1116.04,150.643 1114.54,152.143 1113.04,152.143 C 1111.54,152.143 1110.04,150.643 1110.04,149.143 C 1110.04,147.643 1111.54,146.143 1113.04,146.143 C 1114.54,146.143 1116.04,147.643 1116.04,149.143z"/>
    <path style="fill: none; fill-opacity:0; stroke-width: 2; stroke: #000000" d="M 1116.04 149.143 C 1116.04,150.643 1114.54,152.143 1113.04,152.143 C 1111.54,152.143 1110.04,150.643 1110.04,149.143 C 1110.04,147.643 1111.54,146.143 1113.04,146.143 C 1114.54,146.143 1116.04,147.643 1116.04,149.143"/>
  </g>
  <g>
    <line style="fill: none; fill-opacity:0; stroke-width: 2; stroke: #000000" x1="994.614" y1="149.143" x2="994.614" y2="202.571"/>
    <path style="fill: #000000" d="M 994.614 202.571 C 993.114,202.571 991.614,201.071 991.614,199.571 C 991.614,198.071 993.114,196.571 994.614,196.571 C 996.114,196.571 997.614,198.071 997.614,199.571 C 997.614,201.071 996.114,202.571 994.614,202.571z"/>
    <path style="fill: none; fill-opacity:0; stroke-width: 2; stroke: #000000" d="M 994.614 202.571 C 993.114,202.571 991.614,201.071 991.614,199.571 C 991.614,198.071 993.114,196.571 994.614,196.571 C 996.114,196.571 997.614,198.071 997.614,199.571 C 997.614,201.071 996.114,202.571 994.614,202.571"/>
  </g>
  <g>
    <line style="fill: none; fill-opacity:0; stroke-width: 2; stroke: #000000" x1="994.614" y1="202.571" x2="994.614" y2="256"/>
    <path style="fill: #000000" d="M 994.614 256 C 993.114,256 991.614,254.5 991.614,253 C 991.614,251.5 993.114,250 994.614,250 C 996.114,250 997.614,251.5 997.614,253 C 997.614,254.5 996.114,256 994.614,256z"/>
    <path style="fill: none; fill-opacity:0; stroke-width: 2; stroke: #000000" d="M 994.614 256 C 993.114,256 991.614,254.5 991.614,253 C 991.614,251.5 993.114,250 994.614,250 C 996.114,250 997.614,251.5 997.614,253 C 997.614,254.5 996.114,256 994.614,256"/>
  </g>
  <g>
    <line style="fill: none; fill-opacity:0; stroke-width: 2; stroke: #000000" x1="994.614" y1="256" x2="1055.33" y2="256"/>
    <path style="fill: #000000" d="M 1055.33 256 C 1055.33,257.5 1053.83,259 1052.33,259 C 1050.83,259 1049.33,257.5 1049.33,256 C 1049.33,254.5 1050.83,253 1052.33,253 C 1053.83,253 1055.33,254.5 1055.33,256z"/>
    <path style="fill: none; fill-opacity:0; stroke-width: 2; stroke: #000000" d="M 1055.33 256 C 1055.33,257.5 1053.83,259 1052.33,259 C 1050.83,259 1049.33,257.5 1049.33,256 C 1049.33,254.5 1050.83,253 1052.33,253 C 1053.83,253 1055.33,254.5 1055.33,256"/>
  </g>
  <g>
    <line style="fill: none; fill-opacity:0; stroke-width: 2; stroke: #000000" x1="1055.33" y1="256" x2="1116.04" y2="256"/>
    <path style="fill: #000000" d="M 1116.04 256 C 1116.04,257.5 1114.54,259 1113.04,259 C 1111.54,259 1110.04,257.5 1110.04,256 C 1110.04,254.5 1111.54,253 1113.04,253 C 1114.54,253 1116.04,254.5 1116.04,256z"/>
    <path style="fill: none; fill-opacity:0; stroke-width: 2; stroke: #000000" d="M 1116.04 256 C 1116.04,257.5 1114.54,259 1113.04,259 C 1111.54,259 1110.04,257.5 1110.04,256 C 1110.04,254.5 1111.54,253 1113.04,253 C 1114.54,253 1116.04,254.5 1116.04,256"/>
  </g>
  <g>
    <line style="fill: none; fill-opacity:0; stroke-width: 2; stroke: #000000" x1="994.614" y1="256" x2="933.9" y2="256"/>
    <path style="fill: #000000" d="M 933.9 256 C 933.9,254.5 935.4,253 936.9,253 C 938.4,253 939.9,254.5 939.9,256 C 939.9,257.5 938.4,259 936.9,259 C 935.4,259 933.9,257.5 933.9,256z"/>
    <path style="fill: none; fill-opacity:0; stroke-width: 2; stroke: #000000" d="M 933.9 256 C 933.9,254.5 935.4,253 936.9,253 C 938.4,253 939.9,254.5 939.9,256 C 939.9,257.5 938.4,259 936.9,259 C 935.4,259 933.9,257.5 933.9,256"/>
  </g>
  <g>
    <line style="fill: none; fill-opacity:0; stroke-width: 2; stroke: #000000" x1="933.9" y1="256" x2="873.186" y2="256"/>
    <path style="fill: #000000" d="M 873.186 256 C 873.186,254.5 874.686,253 876.186,253 C 877.686,253 879.186,254.5 879.186,256 C 879.186,257.5 877.686,259 876.186,259 C 874.686,259 873.186,257.5 873.186,256z"/>
    <path style="fill: none; fill-opacity:0; stroke-width: 2; stroke: #000000" d="M 873.186 256 C 873.186,254.5 874.686,253 876.186,253 C 877.686,253 879.186,254.5 879.186,256 C 879.186,257.5 877.686,259 876.186,259 C 874.686,259 873.186,257.5 873.186,256"/>
  </g>
  <g>
    <line style="fill: none; fill-opacity:0; stroke-width: 2; stroke: #000000" x1="873.186" y1="256" x2="873.186" y2="309.429"/>
    <path style="fill: #000000" d="M 873.186 309.429 C 871.686,309.429 870.186,307.929 870.186,306.429 C 870.186,304.929 871.686,303.429 873.186,303.429 C 874.686,303.429 876.186,304.929 876.186,306.429 C 876.186,307.929 874.686,309.429 873.186,309.429z"/>
    <path style="fill: none; fill-opacity:0; stroke-width: 2; stroke: #000000" d="M 873.186 309.429 C 871.686,309.429 870.186,307.929 870.186,306.429 C 870.186,304.929 871.686,303.429 873.186,303.429 C 874.686,303.429 876.186,304.929 876.186,306.429 C 876.186,307.929 874.686,309.429 873.186,309.429"/>
  </g>
  <g>
    <line style="fill: none; fill-opacity:0; stroke-width: 2; stroke: #000000" x1="873.186" y1="309.429" x2="873.186" y2="362.857"/>
    <path style="fill: #000000" d="M 873.186 362.857 C 871.686,362.857 870.186,361.357 870.186,359.857 C 870.186,358.357 871.686,356.857 873.186,356.857 C 874.686,356.857 876.186,358.357 876.186,359.857 C 876.186,361.357 874.686,362.857 873.186,362.857z"/>
    <path style="fill: none; fill-opacity:0; stroke-width: 2; stroke: #000000" d="M 873.186 362.857 C 871.686,362.857 870.186,361.357 870.186,359.857 C 870.186,358.357 871.686,356.857 873.186,356.857 C 874.686,356.857 876.186,358.357 876.186,359.857 C 876.186,361.357 874.686,362.857 873.186,362.857"/>
  </g>
  <g>
    <line style="fill: none; fill-opacity:0; stroke-width: 2; stroke: #000000" x1="994.614" y1="362.857" x2="1055.33" y2="362.857"/>
    <path style="fill: #000000" d="M 1055.33 362.857 C 1055.33,364.357 1053.83,365.857 1052.33,365.857 C 1050.83,365.857 1049.33,364.357 1049.33,362.857 C 1049.33,361.357 1050.83,359.857 1052.33,359.857 C 1053.83,359.857 1055.33,361.357 1055.33,362.857z"/>
    <path style="fill: none; fill-opacity:0; stroke-width: 2; stroke: #000000" d="M 1055.33 362.857 C 1055.33,364.357 1053.83,365.857 1052.33,365.857 C 1050.83,365.857 1049.33,364.357 1049.33,362.857 C 1049.33,361.357 1050.83,359.857 1052.33,359.857 C 1053.83,359.857 1055.33,361.357 1055.33,362.857"/>
  </g>
  <g>
    <line style="fill: none; fill-opacity:0; stroke-width: 2; stroke: #000000" x1="933.9" y1="362.857" x2="994.614" y2="362.857"/>
    <path style="fill: #000000" d="M 994.614 362.857 C 994.614,364.357 993.114,365.857 991.614,365.857 C 990.114,365.857 988.614,364.357 988.614,362.857 C 988.614,361.357 990.114,359.857 991.614,359.857 C 993.114,359.857 994.614,361.357 994.614,362.857z"/>
    <path style="fill: none; fill-opacity:0; stroke-width: 2; stroke: #000000" d="M 994.614 362.857 C 994.614,364.357 993.114,365.857 991.614,365.857 C 990.114,365.857 988.614,364.357 988.614,362.857 C 988.614,361.357 990.114,359.857 991.614,359.857 C 993.114,359.857 994.614,361.357 994.614,362.857"/>
  </g>
  <g>
    <line style="fill: none; fill-opacity:0; stroke-width: 2; stroke: #000000" x1="748.714" y1="149.314" x2="812.471" y2="149.143"/>
    <path style="fill: #000000" d="M 748.714 149.314 C 748.71,147.814 750.206,146.31 751.706,146.306 C 753.206,146.302 754.71,147.798 754.714,149.298 C 754.718,150.798 753.222,152.302 751.722,152.306 C 750.222,152.31 748.718,150.814 748.714,149.314z"/>
    <path style="fill: none; fill-opacity:0; stroke-width: 2; stroke: #000000" d="M 748.714 149.314 C 748.71,147.814 750.206,146.31 751.706,146.306 C 753.206,146.302 754.71,147.798 754.714,149.298 C 754.718,150.798 753.222,152.302 751.722,152.306 C 750.222,152.31 748.718,150.814 748.714,149.314"/>
    <path style="fill: #000000" d="M 812.471 149.143 C 812.475,150.643 810.979,152.147 809.479,152.151 C 807.979,152.155 806.475,150.659 806.471,149.159 C 806.467,147.659 807.963,146.155 809.463,146.151 C 810.963,146.147 812.467,147.643 812.471,149.143z"/>
    <path style="fill: none; fill-opacity:0; stroke-width: 2; stroke: #000000" d="M 812.471 149.143 C 812.475,150.643 810.979,152.147 809.479,152.151 C 807.979,152.155 806.475,150.659 806.471,149.159 C 806.467,147.659 807.963,146.155 809.463,146.151 C 810.963,146.147 812.467,147.643 812.471,149.143"/>
  </g>
  <g>
    <line style="fill: none; fill-opacity:0; stroke-width: 2; stroke: #000000" x1="876.914" y1="361.614" x2="937.628" y2="361.614"/>
    <path style="fill: #000000" d="M 937.628 361.614 C 937.628,363.114 936.128,364.614 934.628,364.614 C 933.128,364.614 931.628,363.114 931.628,361.614 C 931.628,360.114 933.128,358.614 934.628,358.614 C 936.128,358.614 937.628,360.114 937.628,361.614z"/>
    <path style="fill: none; fill-opacity:0; stroke-width: 2; stroke: #000000" d="M 937.628 361.614 C 937.628,363.114 936.128,364.614 934.628,364.614 C 933.128,364.614 931.628,363.114 931.628,361.614 C 931.628,360.114 933.128,358.614 934.628,358.614 C 936.128,358.614 937.628,360.114 937.628,361.614"/>
  </g>
  <g>
    <line style="fill: none; fill-opacity:0; stroke-width: 2; stroke: #000000" x1="1055.33" y1="362.857" x2="1116.04" y2="362.857"/>
    <path style="fill: #000000" d="M 1116.04 362.857 C 1116.04,364.357 1114.54,365.857 1113.04,365.857 C 1111.54,365.857 1110.04,364.357 1110.04,362.857 C 1110.04,361.357 1111.54,359.857 1113.04,359.857 C 1114.54,359.857 1116.04,361.357 1116.04,362.857z"/>
    <path style="fill: none; fill-opacity:0; stroke-width: 2; stroke: #000000" d="M 1116.04 362.857 C 1116.04,364.357 1114.54,365.857 1113.04,365.857 C 1111.54,365.857 1110.04,364.357 1110.04,362.857 C 1110.04,361.357 1111.54,359.857 1113.04,359.857 C 1114.54,359.857 1116.04,361.357 1116.04,362.857"/>
  </g>
  <g>
    <line style="fill: none; fill-opacity:0; stroke-width: 2; stroke: #000000" x1="1116.04" y1="362.857" x2="1176.76" y2="362.857"/>
    <path style="fill: #000000" d="M 1176.76 362.857 C 1176.76,364.357 1175.26,365.857 1173.76,365.857 C 1172.26,365.857 1170.76,364.357 1170.76,362.857 C 1170.76,361.357 1172.26,359.857 1173.76,359.857 C 1175.26,359.857 1176.76,361.357 1176.76,362.857z"/>
    <path style="fill: none; fill-opacity:0; stroke-width: 2; stroke: #000000" d="M 1176.76 362.857 C 1176.76,364.357 1175.26,365.857 1173.76,365.857 C 1172.26,365.857 1170.76,364.357 1170.76,362.857 C 1170.76,361.357 1172.26,359.857 1173.76,359.857 C 1175.26,359.857 1176.76,361.357 1176.76,362.857"/>
  </g>
  <g>
    <line style="fill: none; fill-opacity:0; stroke-width: 2; stroke: #000000" x1="1176.76" y1="362.857" x2="1238.23" y2="363.514"/>
    <path style="fill: #000000" d="M 1238.23 363.514 C 1238.21,365.014 1236.7,366.498 1235.2,366.482 C 1233.7,366.466 1232.21,364.95 1232.23,363.45 C 1232.24,361.95 1233.76,360.466 1235.26,360.482 C 1236.76,360.498 1238.24,362.014 1238.23,363.514z"/>
    <path style="fill: none; fill-opacity:0; stroke-width: 2; stroke: #000000" d="M 1238.23 363.514 C 1238.21,365.014 1236.7,366.498 1235.2,366.482 C 1233.7,366.466 1232.21,364.95 1232.23,363.45 C 1232.24,361.95 1233.76,360.466 1235.26,360.482 C 1236.76,360.498 1238.24,362.014 1238.23,363.514"/>
  </g>
  <g>
    <line style="fill: none; fill-opacity:0; stroke-width: 2; stroke: #7f7f7f" x1="782.114" y1="122.429" x2="1207.11" y2="122.429"/>
    <line style="fill: none; fill-opacity:0; stroke-width: 2; stroke: #7f7f7f" x1="782.114" y1="175.857" x2="1207.11" y2="175.857"/>
    <line style="fill: none; fill-opacity:0; stroke-width: 2; stroke: #7f7f7f" x1="782.114" y1="229.286" x2="1207.11" y2="229.286"/>
    <line style="fill: none; fill-opacity:0; stroke-width: 2; stroke: #7f7f7f" x1="782.114" y1="282.714" x2="1207.11" y2="282.714"/>
    <line style="fill: none; fill-opacity:0; stroke-width: 2; stroke: #7f7f7f" x1="782.114" y1="336.143" x2="1207.11" y2="336.143"/>
    <line style="fill: none; fill-opacity:0; stroke-width: 2; stroke: #7f7f7f" x1="782.114" y1="389.571" x2="1207.11" y2="389.571"/>
    <line style="fill: none; fill-opacity:0; stroke-width: 2; stroke: #7f7f7f" x1="842.828" y1="69" x2="842.828" y2="443"/>
    <line style="fill: none; fill-opacity:0; stroke-width: 2; stroke: #7f7f7f" x1="903.543" y1="69" x2="903.543" y2="443"/>
    <line style="fill: none; fill-opacity:0; stroke-width: 2; stroke: #7f7f7f" x1="964.257" y1="69" x2="964.257" y2="443"/>
    <line style="fill: none; fill-opacity:0; stroke-width: 2; stroke: #7f7f7f" x1="1024.97" y1="69" x2="1024.97" y2="443"/>
    <line style="fill: none; fill-opacity:0; stroke-width: 2; stroke: #7f7f7f" x1="1085.69" y1="69" x2="1085.69" y2="443"/>
    <line style="fill: none; fill-opacity:0; stroke-width: 2; stroke: #7f7f7f" x1="1146.4" y1="69" x2="1146.4" y2="443"/>
    <rect style="fill: none; fill-opacity:0; stroke-width: 2; stroke: #000000" x="782.114" y="69" width="425" height="374"/>
  </g>
</svg>
