<?xml version="1.0" encoding="UTF-8" standalone="no"?>
<!-- Created with Inkscape (http://www.inkscape.org/) -->

<svg
   xmlns:dc="http://purl.org/dc/elements/1.1/"
   xmlns:cc="http://creativecommons.org/ns#"
   xmlns:rdf="http://www.w3.org/1999/02/22-rdf-syntax-ns#"
   xmlns:svg="http://www.w3.org/2000/svg"
   xmlns="http://www.w3.org/2000/svg"
   xmlns:sodipodi="http://sodipodi.sourceforge.net/DTD/sodipodi-0.dtd"
   xmlns:inkscape="http://www.inkscape.org/namespaces/inkscape"
   id="svg2"
   version="1.1"
   inkscape:version="0.91 r13725"
   xml:space="preserve"
   width="708.75"
   height="566.25"
   viewBox="0 0 708.75 566.25"
   sodipodi:docname="brushfire_path.svg"><metadata
     id="metadata8"><rdf:RDF><cc:Work
         rdf:about=""><dc:format>image/svg+xml</dc:format><dc:type
           rdf:resource="http://purl.org/dc/dcmitype/StillImage" /><dc:title></dc:title></cc:Work></rdf:RDF></metadata><defs
     id="defs6" /><sodipodi:namedview
     pagecolor="#ffffff"
     bordercolor="#666666"
     borderopacity="1"
     objecttolerance="10"
     gridtolerance="10"
     guidetolerance="10"
     inkscape:pageopacity="0"
     inkscape:pageshadow="2"
     inkscape:window-width="640"
     inkscape:window-height="480"
     id="namedview4"
     showgrid="false"
     inkscape:zoom="0.41677704"
     inkscape:cx="354.375"
     inkscape:cy="283.125"
     inkscape:window-x="145"
     inkscape:window-y="75"
     inkscape:window-maximized="0"
     inkscape:current-layer="g10" /><g
     id="g10"
     inkscape:groupmode="layer"
     inkscape:label="brushfire_path"
     transform="matrix(1.25,0,0,-1.25,0,566.25)"><g
       id="g12"
       transform="scale(0.1,0.1)"><path
         d="m 14.1719,14.1719 5640.86,0 0,4492.84 -5640.86,0 0,-4492.84 z"
         style="fill:#ffffff;fill-opacity:1;fill-rule:nonzero;stroke:none"
         id="path14"
         inkscape:connector-curvature="0" /><path
         d="m 14.1719,4207.49 5640.8581,0"
         style="fill:none;stroke:#808080;stroke-width:28.34600067;stroke-linecap:butt;stroke-linejoin:miter;stroke-miterlimit:10;stroke-dasharray:none;stroke-opacity:1"
         id="path16"
         inkscape:connector-curvature="0" /><path
         d="m 14.1719,3907.97 5640.8581,0"
         style="fill:none;stroke:#808080;stroke-width:28.34600067;stroke-linecap:butt;stroke-linejoin:miter;stroke-miterlimit:10;stroke-dasharray:none;stroke-opacity:1"
         id="path18"
         inkscape:connector-curvature="0" /><path
         d="m 14.1719,3608.45 5640.8581,0"
         style="fill:none;stroke:#808080;stroke-width:28.34600067;stroke-linecap:butt;stroke-linejoin:miter;stroke-miterlimit:10;stroke-dasharray:none;stroke-opacity:1"
         id="path20"
         inkscape:connector-curvature="0" /><path
         d="m 14.1719,3308.92 5640.8581,0"
         style="fill:none;stroke:#808080;stroke-width:28.34600067;stroke-linecap:butt;stroke-linejoin:miter;stroke-miterlimit:10;stroke-dasharray:none;stroke-opacity:1"
         id="path22"
         inkscape:connector-curvature="0" /><path
         d="m 14.1719,3009.4 5640.8581,0"
         style="fill:none;stroke:#808080;stroke-width:28.34600067;stroke-linecap:butt;stroke-linejoin:miter;stroke-miterlimit:10;stroke-dasharray:none;stroke-opacity:1"
         id="path24"
         inkscape:connector-curvature="0" /><path
         d="m 14.1719,2709.88 5640.8581,0"
         style="fill:none;stroke:#808080;stroke-width:28.34600067;stroke-linecap:butt;stroke-linejoin:miter;stroke-miterlimit:10;stroke-dasharray:none;stroke-opacity:1"
         id="path26"
         inkscape:connector-curvature="0" /><path
         d="m 14.1719,2410.36 5640.8581,0"
         style="fill:none;stroke:#808080;stroke-width:28.34600067;stroke-linecap:butt;stroke-linejoin:miter;stroke-miterlimit:10;stroke-dasharray:none;stroke-opacity:1"
         id="path28"
         inkscape:connector-curvature="0" /><path
         d="m 14.1719,2110.83 5640.8581,0"
         style="fill:none;stroke:#808080;stroke-width:28.34600067;stroke-linecap:butt;stroke-linejoin:miter;stroke-miterlimit:10;stroke-dasharray:none;stroke-opacity:1"
         id="path30"
         inkscape:connector-curvature="0" /><path
         d="m 14.1719,1811.31 5640.8581,0"
         style="fill:none;stroke:#808080;stroke-width:28.34600067;stroke-linecap:butt;stroke-linejoin:miter;stroke-miterlimit:10;stroke-dasharray:none;stroke-opacity:1"
         id="path32"
         inkscape:connector-curvature="0" /><path
         d="m 14.1719,1511.79 5640.8581,0"
         style="fill:none;stroke:#808080;stroke-width:28.34600067;stroke-linecap:butt;stroke-linejoin:miter;stroke-miterlimit:10;stroke-dasharray:none;stroke-opacity:1"
         id="path34"
         inkscape:connector-curvature="0" /><path
         d="m 14.1719,1212.27 5640.8581,0"
         style="fill:none;stroke:#808080;stroke-width:28.34600067;stroke-linecap:butt;stroke-linejoin:miter;stroke-miterlimit:10;stroke-dasharray:none;stroke-opacity:1"
         id="path36"
         inkscape:connector-curvature="0" /><path
         d="m 14.1719,912.742 5640.8581,0"
         style="fill:none;stroke:#808080;stroke-width:28.34600067;stroke-linecap:butt;stroke-linejoin:miter;stroke-miterlimit:10;stroke-dasharray:none;stroke-opacity:1"
         id="path38"
         inkscape:connector-curvature="0" /><path
         d="m 14.1719,613.219 5640.8581,0"
         style="fill:none;stroke:#808080;stroke-width:28.34600067;stroke-linecap:butt;stroke-linejoin:miter;stroke-miterlimit:10;stroke-dasharray:none;stroke-opacity:1"
         id="path40"
         inkscape:connector-curvature="0" /><path
         d="m 14.1719,313.695 5640.8581,0"
         style="fill:none;stroke:#808080;stroke-width:28.34600067;stroke-linecap:butt;stroke-linejoin:miter;stroke-miterlimit:10;stroke-dasharray:none;stroke-opacity:1"
         id="path42"
         inkscape:connector-curvature="0" /><path
         d="m 390.23,4507.02 0,-4492.8481"
         style="fill:none;stroke:#808080;stroke-width:28.34600067;stroke-linecap:butt;stroke-linejoin:miter;stroke-miterlimit:10;stroke-dasharray:none;stroke-opacity:1"
         id="path44"
         inkscape:connector-curvature="0" /><path
         d="m 766.285,4507.02 0,-4492.8481"
         style="fill:none;stroke:#808080;stroke-width:28.34600067;stroke-linecap:butt;stroke-linejoin:miter;stroke-miterlimit:10;stroke-dasharray:none;stroke-opacity:1"
         id="path46"
         inkscape:connector-curvature="0" /><path
         d="m 1142.34,4507.02 0,-4492.8481"
         style="fill:none;stroke:#808080;stroke-width:28.34600067;stroke-linecap:butt;stroke-linejoin:miter;stroke-miterlimit:10;stroke-dasharray:none;stroke-opacity:1"
         id="path48"
         inkscape:connector-curvature="0" /><path
         d="m 1518.4,4507.02 0,-4492.8481"
         style="fill:none;stroke:#808080;stroke-width:28.34600067;stroke-linecap:butt;stroke-linejoin:miter;stroke-miterlimit:10;stroke-dasharray:none;stroke-opacity:1"
         id="path50"
         inkscape:connector-curvature="0" /><path
         d="m 1894.46,4507.02 0,-4492.8481"
         style="fill:none;stroke:#808080;stroke-width:28.34600067;stroke-linecap:butt;stroke-linejoin:miter;stroke-miterlimit:10;stroke-dasharray:none;stroke-opacity:1"
         id="path52"
         inkscape:connector-curvature="0" /><path
         d="m 2270.52,4507.02 0,-4492.8481"
         style="fill:none;stroke:#808080;stroke-width:28.34600067;stroke-linecap:butt;stroke-linejoin:miter;stroke-miterlimit:10;stroke-dasharray:none;stroke-opacity:1"
         id="path54"
         inkscape:connector-curvature="0" /><path
         d="m 2646.57,4507.02 0,-4492.8481"
         style="fill:none;stroke:#808080;stroke-width:28.34600067;stroke-linecap:butt;stroke-linejoin:miter;stroke-miterlimit:10;stroke-dasharray:none;stroke-opacity:1"
         id="path56"
         inkscape:connector-curvature="0" /><path
         d="m 3022.63,4507.02 0,-4492.8481"
         style="fill:none;stroke:#808080;stroke-width:28.34600067;stroke-linecap:butt;stroke-linejoin:miter;stroke-miterlimit:10;stroke-dasharray:none;stroke-opacity:1"
         id="path58"
         inkscape:connector-curvature="0" /><path
         d="m 3398.69,4507.02 0,-4492.8481"
         style="fill:none;stroke:#808080;stroke-width:28.34600067;stroke-linecap:butt;stroke-linejoin:miter;stroke-miterlimit:10;stroke-dasharray:none;stroke-opacity:1"
         id="path60"
         inkscape:connector-curvature="0" /><path
         d="m 3774.74,4507.02 0,-4492.8481"
         style="fill:none;stroke:#808080;stroke-width:28.34600067;stroke-linecap:butt;stroke-linejoin:miter;stroke-miterlimit:10;stroke-dasharray:none;stroke-opacity:1"
         id="path62"
         inkscape:connector-curvature="0" /><path
         d="m 4150.8,4507.02 0,-4492.8481"
         style="fill:none;stroke:#808080;stroke-width:28.34600067;stroke-linecap:butt;stroke-linejoin:miter;stroke-miterlimit:10;stroke-dasharray:none;stroke-opacity:1"
         id="path64"
         inkscape:connector-curvature="0" /><path
         d="m 4526.86,4507.02 0,-4492.8481"
         style="fill:none;stroke:#808080;stroke-width:28.34600067;stroke-linecap:butt;stroke-linejoin:miter;stroke-miterlimit:10;stroke-dasharray:none;stroke-opacity:1"
         id="path66"
         inkscape:connector-curvature="0" /><path
         d="m 4902.91,4507.02 0,-4492.8481"
         style="fill:none;stroke:#808080;stroke-width:28.34600067;stroke-linecap:butt;stroke-linejoin:miter;stroke-miterlimit:10;stroke-dasharray:none;stroke-opacity:1"
         id="path68"
         inkscape:connector-curvature="0" /><path
         d="m 5278.97,4507.02 0,-4492.8481"
         style="fill:none;stroke:#808080;stroke-width:28.34600067;stroke-linecap:butt;stroke-linejoin:miter;stroke-miterlimit:10;stroke-dasharray:none;stroke-opacity:1"
         id="path70"
         inkscape:connector-curvature="0" /><path
         d="m 14.1719,14.1719 5640.86,0 0,4492.84 -5640.86,0 0,-4492.84 z"
         style="fill:none;stroke:#000000;stroke-width:28.34600067;stroke-linecap:butt;stroke-linejoin:miter;stroke-miterlimit:10;stroke-dasharray:none;stroke-opacity:1"
         id="path72"
         inkscape:connector-curvature="0" /><path
         d="m 1133.84,1814.14 779.516,0 0,2395.24 -779.516,0 0,-2395.24 z"
         style="fill:#d8e5e5;fill-opacity:1;fill-rule:nonzero;stroke:none"
         id="path74"
         inkscape:connector-curvature="0" /><path
         d="m 1133.84,1814.14 779.516,0 0,2395.24 -779.516,0 0,-2395.24 z"
         style="fill:none;stroke:#000000;stroke-width:28.34600067;stroke-linecap:butt;stroke-linejoin:miter;stroke-miterlimit:10;stroke-dasharray:none;stroke-opacity:1"
         id="path76"
         inkscape:connector-curvature="0" /><path
         d="m 1771.62,3011.76 c 0,-559.66 -117.39,-1013.37 -262.19,-1013.37 -144.81,0 -262.21,453.71 -262.21,1013.37 0,559.67 117.4,1013.37 262.21,1013.37 144.8,0 262.19,-453.7 262.19,-1013.37"
         style="fill:#ff0000;fill-opacity:1;fill-rule:nonzero;stroke:none"
         id="path78"
         inkscape:connector-curvature="0" /><path
         d="m 1771.62,3011.76 c 0,-559.66 -117.39,-1013.37 -262.19,-1013.37 -144.81,0 -262.21,453.71 -262.21,1013.37 0,559.67 117.4,1013.37 262.21,1013.37 144.8,0 262.19,-453.7 262.19,-1013.37 z"
         style="fill:none;stroke:#000000;stroke-width:28.34600067;stroke-linecap:butt;stroke-linejoin:miter;stroke-miterlimit:10;stroke-dasharray:none;stroke-opacity:1"
         id="path80"
         inkscape:connector-curvature="0" /><path
         d="m 2650.35,311.805 1885.01,0 0,1502.34 -1885.01,0 0,-1502.34 z"
         style="fill:#d8e5e5;fill-opacity:1;fill-rule:nonzero;stroke:none"
         id="path82"
         inkscape:connector-curvature="0" /><path
         d="m 2650.35,311.805 1885.01,0 0,1502.34 -1885.01,0 0,-1502.34 z"
         style="fill:none;stroke:#000000;stroke-width:28.34600067;stroke-linecap:butt;stroke-linejoin:miter;stroke-miterlimit:10;stroke-dasharray:none;stroke-opacity:1"
         id="path84"
         inkscape:connector-curvature="0" /><path
         d="m 4492.84,1077.15 c 0,-352.24 -399.77,-637.787 -892.9,-637.787 -493.13,0 -892.9,285.547 -892.9,637.787 0,352.24 399.77,637.78 892.9,637.78 493.13,0 892.9,-285.54 892.9,-637.78"
         style="fill:#ff0000;fill-opacity:1;fill-rule:nonzero;stroke:none"
         id="path86"
         inkscape:connector-curvature="0" /><path
         d="m 4492.84,1077.15 c 0,-352.24 -399.77,-637.787 -892.9,-637.787 -493.13,0 -892.9,285.547 -892.9,637.787 0,352.24 399.77,637.78 892.9,637.78 493.13,0 892.9,-285.54 892.9,-637.78 z"
         style="fill:none;stroke:#000000;stroke-width:28.34600067;stroke-linecap:butt;stroke-linejoin:miter;stroke-miterlimit:10;stroke-dasharray:none;stroke-opacity:1"
         id="path88"
         inkscape:connector-curvature="0" /><path
         d="m 4521.19,3911.75 736.996,0 0,595.266 -736.996,0 0,-595.266 z"
         style="fill:#d8e5e5;fill-opacity:1;fill-rule:nonzero;stroke:none"
         id="path90"
         inkscape:connector-curvature="0" /><path
         d="m 4521.19,3911.75 736.996,0 0,595.266 -736.996,0 0,-595.266 z"
         style="fill:none;stroke:#000000;stroke-width:28.34600067;stroke-linecap:butt;stroke-linejoin:miter;stroke-miterlimit:10;stroke-dasharray:none;stroke-opacity:1"
         id="path92"
         inkscape:connector-curvature="0" /><path
         d="m 5151.89,4209.38 c 0,-129.15 -111.05,-233.85 -248.03,-233.85 -136.98,0 -248.03,104.7 -248.03,233.85 0,129.16 111.05,233.85 248.03,233.85 136.98,0 248.03,-104.69 248.03,-233.85"
         style="fill:#ff0000;fill-opacity:1;fill-rule:nonzero;stroke:none"
         id="path94"
         inkscape:connector-curvature="0" /><path
         d="m 5151.89,4209.38 c 0,-129.15 -111.05,-233.85 -248.03,-233.85 -136.98,0 -248.03,104.7 -248.03,233.85 0,129.16 111.05,233.85 248.03,233.85 136.98,0 248.03,-104.69 248.03,-233.85 z"
         style="fill:none;stroke:#000000;stroke-width:28.34600067;stroke-linecap:butt;stroke-linejoin:miter;stroke-miterlimit:10;stroke-dasharray:none;stroke-opacity:1"
         id="path96"
         inkscape:connector-curvature="0" /><g
         id="g98"
         transform="scale(10,10)"><text
           transform="matrix(1,0,0,-1,428.025,431.607)"
           style="font-variant:normal;font-weight:normal;font-size:17.49970055px;font-family:Helvetica;-inkscape-font-specification:Helvetica;writing-mode:lr-tb;fill:#000000;fill-opacity:1;fill-rule:nonzero;stroke:none"
           id="text100"><tspan
             x="0"
             y="0"
             id="tspan102">1</tspan><tspan
             x="0"
             y="29.7633"
             id="tspan104">1</tspan><tspan
             x="0"
             y="58.109402"
             id="tspan106">1</tspan><tspan
             x="35.4324"
             y="57.826199"
             id="tspan108">1</tspan><tspan
             x="75.116798"
             y="57.684399"
             id="tspan110">1</tspan><tspan
             x="111.9668"
             y="-0.5668"
             id="tspan112">1</tspan><tspan
             x="113.38399"
             y="31.8894"
             id="tspan114">1</tspan><tspan
             x="111.9668"
             y="58.676498"
             id="tspan116">1</tspan><tspan
             x="-337.3172"
             y="-2.4094"
             id="tspan118">1</tspan><tspan
             x="-301.8844"
             y="-2.6926031"
             id="tspan120">1</tspan><tspan
             x="-262.20001"
             y="-2.8343999"
             id="tspan122">1</tspan><tspan
             x="-225.3504"
             y="-1.842212"
             id="tspan124">1</tspan><tspan
             x="-337.31741"
             y="266.73578"
             id="tspan126">1</tspan><tspan
             x="-301.88461"
             y="266.45258"
             id="tspan128">1</tspan><tspan
             x="-262.2002"
             y="266.31079"
             id="tspan130">1</tspan><tspan
             x="-225.3506"
             y="265.88541"
             id="tspan132">1</tspan><tspan
             x="-184.2486"
             y="237.5397"
             id="tspan134">1</tspan><tspan
             x="-148.81619"
             y="237.2561"
             id="tspan136">1</tspan><tspan
             x="-109.1318"
             y="237.1143"
             id="tspan138">1</tspan><tspan
             x="-72.282204"
             y="236.68932"
             id="tspan140">1</tspan><tspan
             x="-185.6662"
             y="418.81232"
             id="tspan142">1</tspan><tspan
             x="-150.2334"
             y="418.52872"
             id="tspan144">1</tspan><tspan
             x="-110.549"
             y="418.3869"
             id="tspan146">1</tspan><tspan
             x="-73.699402"
             y="417.96191"
             id="tspan148">1</tspan><tspan
             x="-38.266998"
             y="417.25333"
             id="tspan150">1</tspan><tspan
             x="-2.8341999"
             y="416.96973"
             id="tspan152">1</tspan><tspan
             x="36.850201"
             y="416.82794"
             id="tspan154">1</tspan><tspan
             x="-35.432201"
             y="237.11394"
             id="tspan156">1</tspan><tspan
             x="0.00019999999"
             y="236.83034"
             id="tspan158">1</tspan><tspan
             x="39.684601"
             y="236.68893"
             id="tspan160">1</tspan><tspan
             x="-338.73441"
             y="29.76293"
             id="tspan162">1</tspan><tspan
             x="-338.73441"
             y="59.52663"
             id="tspan164">1</tspan><tspan
             x="-338.73441"
             y="87.87233"
             id="tspan166">1</tspan><tspan
             x="-338.73441"
             y="117.63563"
             id="tspan168">1</tspan><tspan
             x="-338.73441"
             y="149.80833"
             id="tspan170">1</tspan><tspan
             x="-338.73441"
             y="179.57204"
             id="tspan172">1</tspan><tspan
             x="-338.73441"
             y="207.91772"
             id="tspan174">1</tspan><tspan
             x="-223.9334"
             y="25.51173"
             id="tspan176">1</tspan><tspan
             x="-225.35059"
             y="57.684429"
             id="tspan178">1</tspan><tspan
             x="-225.35059"
             y="87.447731"
             id="tspan180">1</tspan><tspan
             x="-225.35059"
             y="115.79383"
             id="tspan182">1</tspan><tspan
             x="-225.35059"
             y="145.55713"
             id="tspan184">1</tspan><tspan
             x="-225.35059"
             y="177.72983"
             id="tspan186">1</tspan><tspan
             x="-225.35059"
             y="207.49313"
             id="tspan188">1</tspan><tspan
             x="-225.35059"
             y="235.83923"
             id="tspan190">1</tspan><tspan
             x="-337.3176"
             y="238.10681"
             id="tspan192">1</tspan><tspan
             x="39.68441"
             y="269.28732"
             id="tspan194">1</tspan><tspan
             x="41.10199"
             y="296.6412"
             id="tspan196">1</tspan><tspan
             x="39.68441"
             y="328.8139"
             id="tspan198">1</tspan><tspan
             x="39.68441"
             y="358.57721"
             id="tspan200">1</tspan><tspan
             x="39.68441"
             y="386.92331"
             id="tspan202">1</tspan><tspan
             x="-187.08359"
             y="269.14532"
             id="tspan204">1</tspan><tspan
             x="-185.6664"
             y="296.49921"
             id="tspan206">1</tspan><tspan
             x="-187.08359"
             y="328.67191"
             id="tspan208">1</tspan><tspan
             x="-187.08359"
             y="358.43521"
             id="tspan210">1</tspan><tspan
             x="-187.08359"
             y="386.78131"
             id="tspan212">1</tspan><tspan
             x="-188.50078"
             y="86.455307"
             id="tspan214">2</tspan><tspan
             x="-189.91797"
             y="-1.41739"
             id="tspan216">2</tspan><tspan
             x="-188.50078"
             y="26.928711"
             id="tspan218">2</tspan><tspan
             x="-188.50078"
             y="57.826012"
             id="tspan220">2</tspan><tspan
             x="-188.50078"
             y="205.50801"
             id="tspan222">2</tspan><tspan
             x="-189.91797"
             y="117.63531"
             id="tspan224">2</tspan><tspan
             x="-188.50078"
             y="145.98141"
             id="tspan226">2</tspan><tspan
             x="-188.50078"
             y="176.87871"
             id="tspan228">2</tspan><tspan
             x="-36.849781"
             y="86.45491"
             id="tspan230">2</tspan><tspan
             x="-38.267361"
             y="-2.8348899"
             id="tspan232">2</tspan><tspan
             x="-36.849781"
             y="25.511209"
             id="tspan234">2</tspan><tspan
             x="-36.849781"
             y="56.408508"
             id="tspan236">2</tspan><tspan
             x="-0.00018"
             y="87.730812"
             id="tspan238">2</tspan><tspan
             x="113.38382"
             y="86.313622"
             id="tspan240">2</tspan><tspan
             x="73.699417"
             y="87.730812"
             id="tspan242">2</tspan><tspan
             x="36.849819"
             y="87.872604"
             id="tspan244">2</tspan><tspan
             x="-377.00217"
             y="296.3576"
             id="tspan246">2</tspan><tspan
             x="-340.15219"
             y="297.63339"
             id="tspan248">2</tspan><tspan
             x="-226.76817"
             y="296.21619"
             id="tspan250">2</tspan><tspan
             x="-266.45258"
             y="297.63339"
             id="tspan252">2</tspan><tspan
             x="-303.30258"
             y="297.77518"
             id="tspan254">2</tspan><tspan
             x="-375.58459"
             y="87.873184"
             id="tspan256">2</tspan><tspan
             x="-377.00217"
             y="0.00048399999"
             id="tspan258">2</tspan><tspan
             x="-375.58459"
             y="28.346584"
             id="tspan260">2</tspan><tspan
             x="-375.58459"
             y="59.243885"
             id="tspan262">2</tspan><tspan
             x="-375.58459"
             y="206.92587"
             id="tspan264">2</tspan><tspan
             x="-377.00217"
             y="119.05358"
             id="tspan266">2</tspan><tspan
             x="-375.58459"
             y="147.39928"
             id="tspan268">2</tspan><tspan
             x="-375.58459"
             y="178.29659"
             id="tspan270">2</tspan><tspan
             x="-375.58459"
             y="266.73608"
             id="tspan272">2</tspan><tspan
             x="-375.58459"
             y="236.68958"
             id="tspan274">2</tspan><tspan
             x="-225.35059"
             y="418.10358"
             id="tspan276">2</tspan><tspan
             x="-226.76778"
             y="328.81378"
             id="tspan278">2</tspan><tspan
             x="-225.35059"
             y="357.15988"
             id="tspan280">2</tspan><tspan
             x="-225.35059"
             y="388.05719"
             id="tspan282">2</tspan><tspan
             x="76.534416"
             y="296.21619"
             id="tspan284">2</tspan><tspan
             x="75.116837"
             y="208.34348"
             id="tspan286">2</tspan><tspan
             x="76.534416"
             y="236.68958"
             id="tspan288">2</tspan><tspan
             x="76.534416"
             y="267.58688"
             id="tspan290">2</tspan><tspan
             x="76.534416"
             y="415.26987"
             id="tspan292">2</tspan><tspan
             x="75.116837"
             y="327.39719"
             id="tspan294">2</tspan><tspan
             x="76.534416"
             y="355.74329"
             id="tspan296">2</tspan><tspan
             x="76.534416"
             y="386.64017"
             id="tspan298">2</tspan><tspan
             x="-147.39958"
             y="207.06818"
             id="tspan300">2</tspan><tspan
             x="-110.54958"
             y="208.34396"
             id="tspan302">2</tspan><tspan
             x="2.83442"
             y="206.92638"
             id="tspan304">2</tspan><tspan
             x="-36.849979"
             y="208.34396"
             id="tspan306">2</tspan><tspan
             x="-73.699982"
             y="208.48576"
             id="tspan308">2</tspan><tspan
             x="36.850021"
             y="208.34396"
             id="tspan310">2</tspan><tspan
             x="-76.533981"
             y="119.05416"
             id="tspan312">3</tspan><tspan
             x="-38.267181 -2.8343124 35.432457"
             y="120.47135"
             sodipodi:role="line"
             id="tspan314">333</tspan><tspan
             x="76.534821 114.80194"
             y="120.32956"
             sodipodi:role="line"
             id="tspan316">33</tspan><tspan
             x="-151.65118"
             y="177.16316"
             id="tspan318">3</tspan><tspan
             x="-113.38398 -77.951637 -39.684517"
             y="178.58073"
             sodipodi:role="line"
             id="tspan320">333</tspan><tspan
             x="1.41702 39.684139"
             y="178.43893"
             sodipodi:role="line"
             id="tspan322">33</tspan><tspan
             x="73.699417 111.96654"
             y="177.16316"
             sodipodi:role="line"
             id="tspan324">33</tspan><tspan
             x="-415.26859 -379.83624 -341.56912"
             y="327.39716"
             sodipodi:role="line"
             id="tspan326">333</tspan><tspan
             x="-300.46759 -262.20047"
             y="327.25537"
             sodipodi:role="line"
             id="tspan328">33</tspan><tspan
             x="111.96642"
             y="208.34436"
             id="tspan330">3</tspan><tspan
             x="111.96642"
             y="238.10767"
             id="tspan332">3</tspan><tspan
             x="111.96642"
             y="269.28815"
             id="tspan334">3</tspan><tspan
             x="110.54923"
             y="296.21707"
             id="tspan336">3</tspan><tspan
             x="110.54923"
             y="327.39755"
             id="tspan338">3</tspan><tspan
             x="110.54923"
             y="357.16086"
             id="tspan340">3</tspan><tspan
             x="110.54923"
             y="388.34137"
             id="tspan342">3</tspan><tspan
             x="110.54923"
             y="418.10464"
             id="tspan344">3</tspan><tspan
             x="-415.26877"
             y="-4.2503371"
             id="tspan346">3</tspan><tspan
             x="-415.26877"
             y="26.930162"
             id="tspan348">3</tspan><tspan
             x="-415.26877"
             y="56.693462"
             id="tspan350">3</tspan><tspan
             x="-415.26877"
             y="87.873962"
             id="tspan352">3</tspan><tspan
             x="-416.68634"
             y="114.80286"
             id="tspan354">3</tspan><tspan
             x="-416.68634"
             y="145.98335"
             id="tspan356">3</tspan><tspan
             x="-416.68634"
             y="175.74666"
             id="tspan358">3</tspan><tspan
             x="-416.68634"
             y="206.92715"
             id="tspan360">3</tspan><tspan
             x="-416.68634"
             y="236.69086"
             id="tspan362">3</tspan><tspan
             x="-415.26877"
             y="267.87137"
             id="tspan364">3</tspan><tspan
             x="-415.26877"
             y="297.63507"
             id="tspan366">3</tspan><tspan
             x="-77.951767"
             y="-1.414937"
             id="tspan368">3</tspan><tspan
             x="-77.951767"
             y="28.348763"
             id="tspan370">3</tspan><tspan
             x="-76.534187"
             y="59.529663"
             id="tspan372">3</tspan><tspan
             x="-76.534187"
             y="89.293365"
             id="tspan374">3</tspan><tspan
             x="-263.61819"
             y="358.58035"
             id="tspan376">3</tspan><tspan
             x="-265.03537"
             y="388.34366"
             id="tspan378">3</tspan><tspan
             x="-263.61819"
             y="418.10696"
             id="tspan380">3</tspan><tspan
             x="-148.81619"
             y="-1.414037"
             id="tspan382">3</tspan><tspan
             x="-148.81619"
             y="29.766462"
             id="tspan384">3</tspan><tspan
             x="-148.81619"
             y="59.530163"
             id="tspan386">3</tspan><tspan
             x="-148.81619"
             y="90.710663"
             id="tspan388">3</tspan><tspan
             x="-150.23338"
             y="117.63916"
             id="tspan390">3</tspan><tspan
             x="-150.23338"
             y="148.81966"
             id="tspan392">3</tspan><tspan
             x="-111.96658"
             y="-1.414337"
             id="tspan394">4</tspan><tspan
             x="-111.96658"
             y="28.348963"
             id="tspan396">4</tspan><tspan
             x="-113.38377"
             y="59.529861"
             id="tspan398">4</tspan><tspan
             x="-113.38377"
             y="89.293159"
             id="tspan400">4</tspan><tspan
             x="-114.80096"
             y="118.91466"
             id="tspan402">4</tspan><tspan
             x="-114.80096"
             y="148.67796"
             id="tspan404">4</tspan><tspan
             x="-299.04996"
             y="357.16296"
             id="tspan406">4</tspan><tspan
             x="-300.46716"
             y="386.78445"
             id="tspan408">4</tspan><tspan
             x="-300.46716"
             y="416.54776"
             id="tspan410">4</tspan><tspan
             x="-415.26816"
             y="359.99777"
             id="tspan412">4</tspan><tspan
             x="-375.58374"
             y="359.85596"
             id="tspan414">4</tspan><tspan
             x="-338.73416"
             y="359.71417"
             id="tspan416">4</tspan><tspan
             x="38.267849"
             y="147.40218"
             id="tspan418">4</tspan><tspan
             x="-77.951149"
             y="148.81975"
             id="tspan420">4</tspan><tspan
             x="-38.26675"
             y="148.67795"
             id="tspan422">4</tspan><tspan
             x="-1.41675"
             y="148.53616"
             id="tspan424">4</tspan><tspan
             x="114.80225"
             y="147.40218"
             id="tspan426">4</tspan><tspan
             x="75.117447"
             y="148.53616"
             id="tspan428">4</tspan><tspan
             x="-375.58356"
             y="388.34317"
             id="tspan430">5</tspan><tspan
             x="-415.26794"
             y="389.76074"
             id="tspan432">5</tspan><tspan
             x="-337.31674"
             y="388.20135"
             id="tspan434">5</tspan><tspan
             x="-338.73395"
             y="417.82327"
             id="tspan436">5</tspan><tspan
             x="-378.41833"
             y="418.10648"
             id="tspan438">6</tspan><tspan
             x="-415.26794"
             y="416.68927"
             id="tspan440">6</tspan></text>
</g><path
         d="m 273.066,3458.68 681.25,0 0,-1797.13 1128.174,0 794.63,634.47 2589.88,863.14"
         style="fill:none;stroke:#0000ff;stroke-width:28.34600067;stroke-linecap:butt;stroke-linejoin:miter;stroke-miterlimit:10;stroke-dasharray:none;stroke-opacity:1"
         id="path442"
         inkscape:connector-curvature="0" /><path
         d="m 216.375,3458.68 c 0,14.18 14.172,28.35 28.344,28.35 14.176,0 28.347,-14.17 28.347,-28.35 0,-14.17 -14.171,-28.34 -28.347,-28.34 -14.172,0 -28.344,14.17 -28.344,28.34"
         style="fill:#ffffff;fill-opacity:1;fill-rule:evenodd;stroke:none"
         id="path444"
         inkscape:connector-curvature="0" /><path
         d="m 216.375,3458.68 c 0,14.18 14.172,28.35 28.344,28.35 14.176,0 28.347,-14.17 28.347,-28.35 0,-14.17 -14.171,-28.34 -28.347,-28.34 -14.172,0 -28.344,14.17 -28.344,28.34"
         style="fill:none;stroke:#0000ff;stroke-width:28.34600067;stroke-linecap:butt;stroke-linejoin:miter;stroke-miterlimit:10;stroke-dasharray:none;stroke-opacity:1"
         id="path446"
         inkscape:connector-curvature="0" /><path
         d="m 5467,3159.16 c 4.48,-13.45 -4.48,-31.37 -17.93,-35.85 -13.45,-4.48 -31.37,4.48 -35.86,17.93 -4.48,13.44 4.49,31.37 17.93,35.85 13.45,4.48 31.38,-4.48 35.86,-17.93"
         style="fill:#0000ff;fill-opacity:1;fill-rule:evenodd;stroke:none"
         id="path448"
         inkscape:connector-curvature="0" /><path
         d="m 5467,3159.16 c 4.48,-13.45 -4.48,-31.37 -17.93,-35.85 -13.45,-4.48 -31.37,4.48 -35.86,17.93 -4.48,13.44 4.49,31.37 17.93,35.85 13.45,4.48 31.38,-4.48 35.86,-17.93"
         style="fill:none;stroke:#0000ff;stroke-width:28.34600067;stroke-linecap:butt;stroke-linejoin:miter;stroke-miterlimit:10;stroke-dasharray:none;stroke-opacity:1"
         id="path450"
         inkscape:connector-curvature="0" /></g></g></svg>