<?xml version="1.0" encoding="UTF-8" standalone="no"?>
<!DOCTYPE svg PUBLIC "-//W3C//DTD SVG 1.0//EN" "http://www.w3.org/TR/2001/PR-SVG-20010719/DTD/svg10.dtd">
<svg width="25cm" height="19cm" viewBox="198 66 493 378" xmlns="http://www.w3.org/2000/svg" xmlns:xlink="http://www.w3.org/1999/xlink">
  <g>
    <rect style="fill: #ff0000" x="232" y="68" width="426" height="53"/>
    <rect style="fill: none; fill-opacity:0; stroke-width: 2; stroke: #ff0000" x="232" y="68" width="426" height="53"/>
  </g>
  <g>
    <rect style="fill: #ff0000" x="233" y="177" width="181" height="52"/>
    <rect style="fill: none; fill-opacity:0; stroke-width: 2; stroke: #ff0000" x="233" y="177" width="181" height="52"/>
  </g>
  <g>
    <rect style="fill: #ff0000" x="598" y="122" width="59" height="159"/>
    <rect style="fill: none; fill-opacity:0; stroke-width: 2; stroke: #ff0000" x="598" y="122" width="59" height="159"/>
  </g>
  <g>
    <rect style="fill: #ff0000" x="233.6" y="230" width="59.4" height="158"/>
    <rect style="fill: none; fill-opacity:0; stroke-width: 2; stroke: #ff0000" x="233.6" y="230" width="59.4" height="158"/>
  </g>
  <g>
    <rect style="fill: #ff0000" x="478" y="174" width="119" height="54"/>
    <rect style="fill: none; fill-opacity:0; stroke-width: 2; stroke: #ff0000" x="478" y="174" width="119" height="54"/>
  </g>
  <g>
    <rect style="fill: #ff0000" x="231.6" y="388.5" width="425.4" height="54.5"/>
    <rect style="fill: none; fill-opacity:0; stroke-width: 2; stroke: #ff0000" x="231.6" y="388.5" width="425.4" height="54.5"/>
  </g>
  <g>
    <rect style="fill: #ff0000" x="354" y="283.3" width="303" height="54.5"/>
    <rect style="fill: none; fill-opacity:0; stroke-width: 2; stroke: #ff0000" x="354" y="283.3" width="303" height="54.5"/>
  </g>
  <g>
    <line style="fill: none; fill-opacity:0; stroke-width: 2; stroke: #000000" x1="263.358" y1="149.143" x2="324.072" y2="149.143"/>
    <path style="fill: #000000" d="M 324.072 149.143 C 324.072,150.643 322.572,152.143 321.072,152.143 C 319.572,152.143 318.072,150.643 318.072,149.143 C 318.072,147.643 319.572,146.143 321.072,146.143 C 322.572,146.143 324.072,147.643 324.072,149.143z"/>
    <path style="fill: none; fill-opacity:0; stroke-width: 2; stroke: #000000" d="M 324.072 149.143 C 324.072,150.643 322.572,152.143 321.072,152.143 C 319.572,152.143 318.072,150.643 318.072,149.143 C 318.072,147.643 319.572,146.143 321.072,146.143 C 322.572,146.143 324.072,147.643 324.072,149.143"/>
  </g>
  <g>
    <line style="fill: none; fill-opacity:0; stroke-width: 2; stroke: #000000" x1="324.072" y1="149.143" x2="384.786" y2="149.143"/>
    <path style="fill: #000000" d="M 384.786 149.143 C 384.786,150.643 383.286,152.143 381.786,152.143 C 380.286,152.143 378.786,150.643 378.786,149.143 C 378.786,147.643 380.286,146.143 381.786,146.143 C 383.286,146.143 384.786,147.643 384.786,149.143z"/>
    <path style="fill: none; fill-opacity:0; stroke-width: 2; stroke: #000000" d="M 384.786 149.143 C 384.786,150.643 383.286,152.143 381.786,152.143 C 380.286,152.143 378.786,150.643 378.786,149.143 C 378.786,147.643 380.286,146.143 381.786,146.143 C 383.286,146.143 384.786,147.643 384.786,149.143"/>
  </g>
  <g>
    <line style="fill: none; fill-opacity:0; stroke-width: 2; stroke: #000000" x1="384.786" y1="149.143" x2="445.5" y2="149.143"/>
    <path style="fill: #000000" d="M 445.5 149.143 C 445.5,150.643 444,152.143 442.5,152.143 C 441,152.143 439.5,150.643 439.5,149.143 C 439.5,147.643 441,146.143 442.5,146.143 C 444,146.143 445.5,147.643 445.5,149.143z"/>
    <path style="fill: none; fill-opacity:0; stroke-width: 2; stroke: #000000" d="M 445.5 149.143 C 445.5,150.643 444,152.143 442.5,152.143 C 441,152.143 439.5,150.643 439.5,149.143 C 439.5,147.643 441,146.143 442.5,146.143 C 444,146.143 445.5,147.643 445.5,149.143"/>
  </g>
  <g>
    <line style="fill: none; fill-opacity:0; stroke-width: 2; stroke: #000000" x1="445.5" y1="149.143" x2="506.214" y2="149.143"/>
    <path style="fill: #000000" d="M 506.214 149.143 C 506.214,150.643 504.714,152.143 503.214,152.143 C 501.714,152.143 500.214,150.643 500.214,149.143 C 500.214,147.643 501.714,146.143 503.214,146.143 C 504.714,146.143 506.214,147.643 506.214,149.143z"/>
    <path style="fill: none; fill-opacity:0; stroke-width: 2; stroke: #000000" d="M 506.214 149.143 C 506.214,150.643 504.714,152.143 503.214,152.143 C 501.714,152.143 500.214,150.643 500.214,149.143 C 500.214,147.643 501.714,146.143 503.214,146.143 C 504.714,146.143 506.214,147.643 506.214,149.143"/>
  </g>
  <g>
    <line style="fill: none; fill-opacity:0; stroke-width: 2; stroke: #000000" x1="506.214" y1="149.143" x2="566.928" y2="149.143"/>
    <path style="fill: #000000" d="M 566.928 149.143 C 566.928,150.643 565.428,152.143 563.928,152.143 C 562.428,152.143 560.928,150.643 560.928,149.143 C 560.928,147.643 562.428,146.143 563.928,146.143 C 565.428,146.143 566.928,147.643 566.928,149.143z"/>
    <path style="fill: none; fill-opacity:0; stroke-width: 2; stroke: #000000" d="M 566.928 149.143 C 566.928,150.643 565.428,152.143 563.928,152.143 C 562.428,152.143 560.928,150.643 560.928,149.143 C 560.928,147.643 562.428,146.143 563.928,146.143 C 565.428,146.143 566.928,147.643 566.928,149.143"/>
  </g>
  <g>
    <line style="fill: none; fill-opacity:0; stroke-width: 2; stroke: #000000" x1="445.5" y1="149.143" x2="445.5" y2="202.572"/>
    <path style="fill: #000000" d="M 445.5 202.572 C 444,202.572 442.5,201.072 442.5,199.572 C 442.5,198.072 444,196.572 445.5,196.572 C 447,196.572 448.5,198.072 448.5,199.572 C 448.5,201.072 447,202.572 445.5,202.572z"/>
    <path style="fill: none; fill-opacity:0; stroke-width: 2; stroke: #000000" d="M 445.5 202.572 C 444,202.572 442.5,201.072 442.5,199.572 C 442.5,198.072 444,196.572 445.5,196.572 C 447,196.572 448.5,198.072 448.5,199.572 C 448.5,201.072 447,202.572 445.5,202.572"/>
  </g>
  <g>
    <line style="fill: none; fill-opacity:0; stroke-width: 2; stroke: #000000" x1="445.5" y1="202.572" x2="445.5" y2="256"/>
    <path style="fill: #000000" d="M 445.5 256 C 444,256 442.5,254.5 442.5,253 C 442.5,251.5 444,250 445.5,250 C 447,250 448.5,251.5 448.5,253 C 448.5,254.5 447,256 445.5,256z"/>
    <path style="fill: none; fill-opacity:0; stroke-width: 2; stroke: #000000" d="M 445.5 256 C 444,256 442.5,254.5 442.5,253 C 442.5,251.5 444,250 445.5,250 C 447,250 448.5,251.5 448.5,253 C 448.5,254.5 447,256 445.5,256"/>
  </g>
  <g>
    <line style="fill: none; fill-opacity:0; stroke-width: 2; stroke: #000000" x1="445.5" y1="256" x2="506.214" y2="256"/>
    <path style="fill: #000000" d="M 506.214 256 C 506.214,257.5 504.714,259 503.214,259 C 501.714,259 500.214,257.5 500.214,256 C 500.214,254.5 501.714,253 503.214,253 C 504.714,253 506.214,254.5 506.214,256z"/>
    <path style="fill: none; fill-opacity:0; stroke-width: 2; stroke: #000000" d="M 506.214 256 C 506.214,257.5 504.714,259 503.214,259 C 501.714,259 500.214,257.5 500.214,256 C 500.214,254.5 501.714,253 503.214,253 C 504.714,253 506.214,254.5 506.214,256"/>
  </g>
  <g>
    <line style="fill: none; fill-opacity:0; stroke-width: 2; stroke: #000000" x1="506.214" y1="256" x2="566.928" y2="256"/>
    <path style="fill: #000000" d="M 566.928 256 C 566.928,257.5 565.428,259 563.928,259 C 562.428,259 560.928,257.5 560.928,256 C 560.928,254.5 562.428,253 563.928,253 C 565.428,253 566.928,254.5 566.928,256z"/>
    <path style="fill: none; fill-opacity:0; stroke-width: 2; stroke: #000000" d="M 566.928 256 C 566.928,257.5 565.428,259 563.928,259 C 562.428,259 560.928,257.5 560.928,256 C 560.928,254.5 562.428,253 563.928,253 C 565.428,253 566.928,254.5 566.928,256"/>
  </g>
  <g>
    <line style="fill: none; fill-opacity:0; stroke-width: 2; stroke: #000000" x1="445.5" y1="256" x2="384.786" y2="256"/>
    <path style="fill: #000000" d="M 384.786 256 C 384.786,254.5 386.286,253 387.786,253 C 389.286,253 390.786,254.5 390.786,256 C 390.786,257.5 389.286,259 387.786,259 C 386.286,259 384.786,257.5 384.786,256z"/>
    <path style="fill: none; fill-opacity:0; stroke-width: 2; stroke: #000000" d="M 384.786 256 C 384.786,254.5 386.286,253 387.786,253 C 389.286,253 390.786,254.5 390.786,256 C 390.786,257.5 389.286,259 387.786,259 C 386.286,259 384.786,257.5 384.786,256"/>
  </g>
  <g>
    <line style="fill: none; fill-opacity:0; stroke-width: 2; stroke: #000000" x1="384.786" y1="256" x2="324.072" y2="256"/>
    <path style="fill: #000000" d="M 324.072 256 C 324.072,254.5 325.572,253 327.072,253 C 328.572,253 330.072,254.5 330.072,256 C 330.072,257.5 328.572,259 327.072,259 C 325.572,259 324.072,257.5 324.072,256z"/>
    <path style="fill: none; fill-opacity:0; stroke-width: 2; stroke: #000000" d="M 324.072 256 C 324.072,254.5 325.572,253 327.072,253 C 328.572,253 330.072,254.5 330.072,256 C 330.072,257.5 328.572,259 327.072,259 C 325.572,259 324.072,257.5 324.072,256"/>
  </g>
  <g>
    <line style="fill: none; fill-opacity:0; stroke-width: 2; stroke: #000000" x1="324.072" y1="256" x2="324.072" y2="309.428"/>
    <path style="fill: #000000" d="M 324.072 309.428 C 322.572,309.428 321.072,307.928 321.072,306.428 C 321.072,304.928 322.572,303.428 324.072,303.428 C 325.572,303.428 327.072,304.928 327.072,306.428 C 327.072,307.928 325.572,309.428 324.072,309.428z"/>
    <path style="fill: none; fill-opacity:0; stroke-width: 2; stroke: #000000" d="M 324.072 309.428 C 322.572,309.428 321.072,307.928 321.072,306.428 C 321.072,304.928 322.572,303.428 324.072,303.428 C 325.572,303.428 327.072,304.928 327.072,306.428 C 327.072,307.928 325.572,309.428 324.072,309.428"/>
  </g>
  <g>
    <line style="fill: none; fill-opacity:0; stroke-width: 2; stroke: #000000" x1="324.072" y1="309.428" x2="324.072" y2="362.858"/>
    <path style="fill: #000000" d="M 324.072 362.858 C 322.572,362.858 321.072,361.358 321.072,359.858 C 321.072,358.358 322.572,356.858 324.072,356.858 C 325.572,356.858 327.072,358.358 327.072,359.858 C 327.072,361.358 325.572,362.858 324.072,362.858z"/>
    <path style="fill: none; fill-opacity:0; stroke-width: 2; stroke: #000000" d="M 324.072 362.858 C 322.572,362.858 321.072,361.358 321.072,359.858 C 321.072,358.358 322.572,356.858 324.072,356.858 C 325.572,356.858 327.072,358.358 327.072,359.858 C 327.072,361.358 325.572,362.858 324.072,362.858"/>
  </g>
  <g>
    <line style="fill: none; fill-opacity:0; stroke-width: 2; stroke: #000000" x1="445.5" y1="362.858" x2="506.214" y2="362.858"/>
    <path style="fill: #000000" d="M 506.214 362.858 C 506.214,364.358 504.714,365.858 503.214,365.858 C 501.714,365.858 500.214,364.358 500.214,362.858 C 500.214,361.358 501.714,359.858 503.214,359.858 C 504.714,359.858 506.214,361.358 506.214,362.858z"/>
    <path style="fill: none; fill-opacity:0; stroke-width: 2; stroke: #000000" d="M 506.214 362.858 C 506.214,364.358 504.714,365.858 503.214,365.858 C 501.714,365.858 500.214,364.358 500.214,362.858 C 500.214,361.358 501.714,359.858 503.214,359.858 C 504.714,359.858 506.214,361.358 506.214,362.858"/>
  </g>
  <g>
    <line style="fill: none; fill-opacity:0; stroke-width: 2; stroke: #000000" x1="384.786" y1="362.858" x2="445.5" y2="362.858"/>
    <path style="fill: #000000" d="M 445.5 362.858 C 445.5,364.358 444,365.858 442.5,365.858 C 441,365.858 439.5,364.358 439.5,362.858 C 439.5,361.358 441,359.858 442.5,359.858 C 444,359.858 445.5,361.358 445.5,362.858z"/>
    <path style="fill: none; fill-opacity:0; stroke-width: 2; stroke: #000000" d="M 445.5 362.858 C 445.5,364.358 444,365.858 442.5,365.858 C 441,365.858 439.5,364.358 439.5,362.858 C 439.5,361.358 441,359.858 442.5,359.858 C 444,359.858 445.5,361.358 445.5,362.858"/>
  </g>
  <g>
    <line style="fill: none; fill-opacity:0; stroke-width: 2; stroke: #000000" x1="199.6" y1="149.314" x2="263.358" y2="149.143"/>
    <path style="fill: #000000" d="M 199.6 149.314 C 199.596,147.814 201.092,146.31 202.592,146.306 C 204.092,146.302 205.596,147.798 205.6,149.298 C 205.604,150.798 204.108,152.302 202.608,152.306 C 201.108,152.31 199.604,150.814 199.6,149.314z"/>
    <path style="fill: none; fill-opacity:0; stroke-width: 2; stroke: #000000" d="M 199.6 149.314 C 199.596,147.814 201.092,146.31 202.592,146.306 C 204.092,146.302 205.596,147.798 205.6,149.298 C 205.604,150.798 204.108,152.302 202.608,152.306 C 201.108,152.31 199.604,150.814 199.6,149.314"/>
    <path style="fill: #000000" d="M 263.358 149.143 C 263.362,150.643 261.866,152.147 260.366,152.151 C 258.866,152.155 257.362,150.659 257.358,149.159 C 257.354,147.659 258.85,146.155 260.35,146.151 C 261.85,146.147 263.354,147.643 263.358,149.143z"/>
    <path style="fill: none; fill-opacity:0; stroke-width: 2; stroke: #000000" d="M 263.358 149.143 C 263.362,150.643 261.866,152.147 260.366,152.151 C 258.866,152.155 257.362,150.659 257.358,149.159 C 257.354,147.659 258.85,146.155 260.35,146.151 C 261.85,146.147 263.354,147.643 263.358,149.143"/>
  </g>
  <g>
    <line style="fill: none; fill-opacity:0; stroke-width: 2; stroke: #000000" x1="327.8" y1="361.614" x2="388.514" y2="361.614"/>
    <path style="fill: #000000" d="M 388.514 361.614 C 388.514,363.114 387.014,364.614 385.514,364.614 C 384.014,364.614 382.514,363.114 382.514,361.614 C 382.514,360.114 384.014,358.614 385.514,358.614 C 387.014,358.614 388.514,360.114 388.514,361.614z"/>
    <path style="fill: none; fill-opacity:0; stroke-width: 2; stroke: #000000" d="M 388.514 361.614 C 388.514,363.114 387.014,364.614 385.514,364.614 C 384.014,364.614 382.514,363.114 382.514,361.614 C 382.514,360.114 384.014,358.614 385.514,358.614 C 387.014,358.614 388.514,360.114 388.514,361.614"/>
  </g>
  <g>
    <line style="fill: none; fill-opacity:0; stroke-width: 2; stroke: #000000" x1="506.214" y1="362.858" x2="566.928" y2="362.858"/>
    <path style="fill: #000000" d="M 566.928 362.858 C 566.928,364.358 565.428,365.858 563.928,365.858 C 562.428,365.858 560.928,364.358 560.928,362.858 C 560.928,361.358 562.428,359.858 563.928,359.858 C 565.428,359.858 566.928,361.358 566.928,362.858z"/>
    <path style="fill: none; fill-opacity:0; stroke-width: 2; stroke: #000000" d="M 566.928 362.858 C 566.928,364.358 565.428,365.858 563.928,365.858 C 562.428,365.858 560.928,364.358 560.928,362.858 C 560.928,361.358 562.428,359.858 563.928,359.858 C 565.428,359.858 566.928,361.358 566.928,362.858"/>
  </g>
  <g>
    <line style="fill: none; fill-opacity:0; stroke-width: 2; stroke: #000000" x1="566.928" y1="362.858" x2="627.642" y2="362.858"/>
    <path style="fill: #000000" d="M 627.642 362.858 C 627.642,364.358 626.142,365.858 624.642,365.858 C 623.142,365.858 621.642,364.358 621.642,362.858 C 621.642,361.358 623.142,359.858 624.642,359.858 C 626.142,359.858 627.642,361.358 627.642,362.858z"/>
    <path style="fill: none; fill-opacity:0; stroke-width: 2; stroke: #000000" d="M 627.642 362.858 C 627.642,364.358 626.142,365.858 624.642,365.858 C 623.142,365.858 621.642,364.358 621.642,362.858 C 621.642,361.358 623.142,359.858 624.642,359.858 C 626.142,359.858 627.642,361.358 627.642,362.858"/>
  </g>
  <g>
    <line style="fill: none; fill-opacity:0; stroke-width: 2; stroke: #000000" x1="627.642" y1="362.858" x2="689.114" y2="363.514"/>
    <path style="fill: #000000" d="M 689.114 363.514 C 689.098,365.014 687.582,366.498 686.082,366.482 C 684.582,366.466 683.098,364.95 683.114,363.45 C 683.13,361.95 684.646,360.466 686.146,360.482 C 687.646,360.498 689.13,362.014 689.114,363.514z"/>
    <path style="fill: none; fill-opacity:0; stroke-width: 2; stroke: #000000" d="M 689.114 363.514 C 689.098,365.014 687.582,366.498 686.082,366.482 C 684.582,366.466 683.098,364.95 683.114,363.45 C 683.13,361.95 684.646,360.466 686.146,360.482 C 687.646,360.498 689.13,362.014 689.114,363.514"/>
  </g>
  <g>
    <line style="fill: none; fill-opacity:0; stroke-width: 2; stroke: #7f7f7f" x1="233" y1="122.429" x2="658" y2="122.429"/>
    <line style="fill: none; fill-opacity:0; stroke-width: 2; stroke: #7f7f7f" x1="233" y1="175.857" x2="658" y2="175.857"/>
    <line style="fill: none; fill-opacity:0; stroke-width: 2; stroke: #7f7f7f" x1="233" y1="229.286" x2="658" y2="229.286"/>
    <line style="fill: none; fill-opacity:0; stroke-width: 2; stroke: #7f7f7f" x1="233" y1="282.714" x2="658" y2="282.714"/>
    <line style="fill: none; fill-opacity:0; stroke-width: 2; stroke: #7f7f7f" x1="233" y1="336.143" x2="658" y2="336.143"/>
    <line style="fill: none; fill-opacity:0; stroke-width: 2; stroke: #7f7f7f" x1="233" y1="389.571" x2="658" y2="389.571"/>
    <line style="fill: none; fill-opacity:0; stroke-width: 2; stroke: #7f7f7f" x1="293.714" y1="69" x2="293.714" y2="443"/>
    <line style="fill: none; fill-opacity:0; stroke-width: 2; stroke: #7f7f7f" x1="354.429" y1="69" x2="354.429" y2="443"/>
    <line style="fill: none; fill-opacity:0; stroke-width: 2; stroke: #7f7f7f" x1="415.143" y1="69" x2="415.143" y2="443"/>
    <line style="fill: none; fill-opacity:0; stroke-width: 2; stroke: #7f7f7f" x1="475.857" y1="69" x2="475.857" y2="443"/>
    <line style="fill: none; fill-opacity:0; stroke-width: 2; stroke: #7f7f7f" x1="536.571" y1="69" x2="536.571" y2="443"/>
    <line style="fill: none; fill-opacity:0; stroke-width: 2; stroke: #7f7f7f" x1="597.286" y1="69" x2="597.286" y2="443"/>
    <rect style="fill: none; fill-opacity:0; stroke-width: 2; stroke: #000000" x="233" y="69" width="425" height="374"/>
  </g>
</svg>
