<?xml version="1.0" encoding="UTF-8" standalone="no"?>
<!-- Created with Inkscape (http://www.inkscape.org/) -->

<svg
   xmlns:dc="http://purl.org/dc/elements/1.1/"
   xmlns:cc="http://creativecommons.org/ns#"
   xmlns:rdf="http://www.w3.org/1999/02/22-rdf-syntax-ns#"
   xmlns:svg="http://www.w3.org/2000/svg"
   xmlns="http://www.w3.org/2000/svg"
   xmlns:sodipodi="http://sodipodi.sourceforge.net/DTD/sodipodi-0.dtd"
   xmlns:inkscape="http://www.inkscape.org/namespaces/inkscape"
   id="svg2"
   version="1.1"
   inkscape:version="0.91 r13725"
   xml:space="preserve"
   width="720"
   height="540"
   viewBox="0 0 720 540"
   sodipodi:docname="pcontrolDDbotpath.svg"><metadata
     id="metadata8"><rdf:RDF><cc:Work
         rdf:about=""><dc:format>image/svg+xml</dc:format><dc:type
           rdf:resource="http://purl.org/dc/dcmitype/StillImage" /><dc:title></dc:title></cc:Work></rdf:RDF></metadata><defs
     id="defs6"><clipPath
       clipPathUnits="userSpaceOnUse"
       id="clipPath20"><path
         d="m 72,43.2 446.4,0 0,345.6 -446.4,0 0,-345.6 z"
         id="path22"
         inkscape:connector-curvature="0" /></clipPath><clipPath
       clipPathUnits="userSpaceOnUse"
       id="clipPath30"><path
         d="m -3.25,-3.25 6.5,0 0,6.5 -6.5,0 0,-6.5 z"
         id="path32"
         inkscape:connector-curvature="0" /></clipPath><clipPath
       clipPathUnits="userSpaceOnUse"
       id="clipPath42"><path
         d="m -3.25,-3.25 6.5,0 0,6.5 -6.5,0 0,-6.5 z"
         id="path44"
         inkscape:connector-curvature="0" /></clipPath><clipPath
       clipPathUnits="userSpaceOnUse"
       id="clipPath54"><path
         d="m -3.25,-3.25 6.5,0 0,6.5 -6.5,0 0,-6.5 z"
         id="path56"
         inkscape:connector-curvature="0" /></clipPath><clipPath
       clipPathUnits="userSpaceOnUse"
       id="clipPath66"><path
         d="m -3.25,-3.25 6.5,0 0,6.5 -6.5,0 0,-6.5 z"
         id="path68"
         inkscape:connector-curvature="0" /></clipPath><clipPath
       clipPathUnits="userSpaceOnUse"
       id="clipPath78"><path
         d="m -3.25,-3.25 6.5,0 0,6.5 -6.5,0 0,-6.5 z"
         id="path80"
         inkscape:connector-curvature="0" /></clipPath><clipPath
       clipPathUnits="userSpaceOnUse"
       id="clipPath90"><path
         d="m -3.25,-3.25 6.5,0 0,6.5 -6.5,0 0,-6.5 z"
         id="path92"
         inkscape:connector-curvature="0" /></clipPath><clipPath
       clipPathUnits="userSpaceOnUse"
       id="clipPath102"><path
         d="m -3.25,-3.25 6.5,0 0,6.5 -6.5,0 0,-6.5 z"
         id="path104"
         inkscape:connector-curvature="0" /></clipPath><clipPath
       clipPathUnits="userSpaceOnUse"
       id="clipPath112"><path
         d="m 72,43.2 446.4,0 0,345.6 -446.4,0 0,-345.6 z"
         id="path114"
         inkscape:connector-curvature="0" /></clipPath><clipPath
       clipPathUnits="userSpaceOnUse"
       id="clipPath200"><path
         d="m -184,-236 1472,0 0,1165 -1472,0 0,-1165 z"
         id="path202"
         inkscape:connector-curvature="0" /></clipPath><clipPath
       clipPathUnits="userSpaceOnUse"
       id="clipPath222"><path
         d="m -184,-236 1472,0 0,1165 -1472,0 0,-1165 z"
         id="path224"
         inkscape:connector-curvature="0" /></clipPath><clipPath
       clipPathUnits="userSpaceOnUse"
       id="clipPath244"><path
         d="m -184,-236 1472,0 0,1165 -1472,0 0,-1165 z"
         id="path246"
         inkscape:connector-curvature="0" /></clipPath></defs><sodipodi:namedview
     pagecolor="#ffffff"
     bordercolor="#666666"
     borderopacity="1"
     objecttolerance="10"
     gridtolerance="10"
     guidetolerance="10"
     inkscape:pageopacity="0"
     inkscape:pageshadow="2"
     inkscape:window-width="640"
     inkscape:window-height="480"
     id="namedview4"
     showgrid="false"
     inkscape:zoom="0.43703704"
     inkscape:cx="360"
     inkscape:cy="270"
     inkscape:window-x="130"
     inkscape:window-y="78"
     inkscape:window-maximized="0"
     inkscape:current-layer="g10" /><g
     id="g10"
     inkscape:groupmode="layer"
     inkscape:label="pcontrolDDbotpath"
     transform="matrix(1.25,0,0,-1.25,0,540)"><path
       d="M 0,0 576,0 576,432 0,432 0,0 Z"
       style="fill:#ffffff;fill-opacity:1;fill-rule:nonzero;stroke:none"
       id="path12"
       inkscape:connector-curvature="0" /><path
       d="m 72,43.2 446.4,0 0,345.6 -446.4,0 0,-345.6 z"
       style="fill:#ffffff;fill-opacity:1;fill-rule:nonzero;stroke:none"
       id="path14"
       inkscape:connector-curvature="0" /><g
       id="g16"><g
         id="g18"
         clip-path="url(#clipPath20)"><g
           id="g24"
           transform="translate(72,216)"><g
             id="g26"><g
               id="g28"
               clip-path="url(#clipPath30)"><path
                 d="m 0,-3 c 0.7956093,0 1.5587396,0.3160989 2.1213203,0.8786797 C 2.6839011,-1.5587396 3,-0.7956093 3,0 3,0.7956093 2.6839011,1.5587396 2.1213203,2.1213203 1.5587396,2.6839011 0.7956093,3 0,3 -0.7956093,3 -1.5587396,2.6839011 -2.1213203,2.1213203 -2.6839011,1.5587396 -3,0.7956093 -3,0 -3,-0.7956093 -2.6839011,-1.5587396 -2.1213203,-2.1213203 -1.5587396,-2.6839011 -0.7956093,-3 0,-3 Z"
                 style="fill:#ff0000;fill-opacity:1;fill-rule:nonzero;stroke:#000000;stroke-width:0.5;stroke-linecap:butt;stroke-linejoin:round;stroke-miterlimit:10;stroke-dasharray:none;stroke-opacity:1"
                 id="path34"
                 inkscape:connector-curvature="0" /></g></g><g
             id="g36"
             transform="translate(63.771429,57.6)"><g
               id="g38"><g
                 id="g40"
                 clip-path="url(#clipPath42)"><path
                   d="m 0,-3 c 0.7956093,0 1.5587396,0.3160989 2.1213203,0.8786797 C 2.6839011,-1.5587396 3,-0.7956093 3,0 3,0.7956093 2.6839011,1.5587396 2.1213203,2.1213203 1.5587396,2.6839011 0.7956093,3 0,3 -0.7956093,3 -1.5587396,2.6839011 -2.1213203,2.1213203 -2.6839011,1.5587396 -3,0.7956093 -3,0 -3,-0.7956093 -2.6839011,-1.5587396 -2.1213203,-2.1213203 -1.5587396,-2.6839011 -0.7956093,-3 0,-3 Z"
                   style="fill:#ff0000;fill-opacity:1;fill-rule:nonzero;stroke:#000000;stroke-width:0.5;stroke-linecap:butt;stroke-linejoin:round;stroke-miterlimit:10;stroke-dasharray:none;stroke-opacity:1"
                   id="path46"
                   inkscape:connector-curvature="0" /></g></g><g
               id="g48"
               transform="translate(63.771429,-86.4)"><g
                 id="g50"><g
                   id="g52"
                   clip-path="url(#clipPath54)"><path
                     d="m 0,-3 c 0.7956093,0 1.5587396,0.3160989 2.1213203,0.8786797 C 2.6839011,-1.5587396 3,-0.7956093 3,0 3,0.7956093 2.6839011,1.5587396 2.1213203,2.1213203 1.5587396,2.6839011 0.7956093,3 0,3 -0.7956093,3 -1.5587396,2.6839011 -2.1213203,2.1213203 -2.6839011,1.5587396 -3,0.7956093 -3,0 -3,-0.7956093 -2.6839011,-1.5587396 -2.1213203,-2.1213203 -1.5587396,-2.6839011 -0.7956093,-3 0,-3 Z"
                     style="fill:#ff0000;fill-opacity:1;fill-rule:nonzero;stroke:#000000;stroke-width:0.5;stroke-linecap:butt;stroke-linejoin:round;stroke-miterlimit:10;stroke-dasharray:none;stroke-opacity:1"
                     id="path58"
                     inkscape:connector-curvature="0" /></g></g><g
                 id="g60"
                 transform="translate(63.771429,115.2)"><g
                   id="g62"><g
                     id="g64"
                     clip-path="url(#clipPath66)"><path
                       d="m 0,-3 c 0.7956093,0 1.5587396,0.3160989 2.1213203,0.8786797 C 2.6839011,-1.5587396 3,-0.7956093 3,0 3,0.7956093 2.6839011,1.5587396 2.1213203,2.1213203 1.5587396,2.6839011 0.7956093,3 0,3 -0.7956093,3 -1.5587396,2.6839011 -2.1213203,2.1213203 -2.6839011,1.5587396 -3,0.7956093 -3,0 -3,-0.7956093 -2.6839011,-1.5587396 -2.1213203,-2.1213203 -1.5587396,-2.6839011 -0.7956093,-3 0,-3 Z"
                       style="fill:#ff0000;fill-opacity:1;fill-rule:nonzero;stroke:#000000;stroke-width:0.5;stroke-linecap:butt;stroke-linejoin:round;stroke-miterlimit:10;stroke-dasharray:none;stroke-opacity:1"
                       id="path70"
                       inkscape:connector-curvature="0" /></g></g><g
                   id="g72"
                   transform="translate(63.771429,-201.6)"><g
                     id="g74"><g
                       id="g76"
                       clip-path="url(#clipPath78)"><path
                         d="m 0,-3 c 0.7956093,0 1.5587396,0.3160989 2.1213203,0.8786797 C 2.6839011,-1.5587396 3,-0.7956093 3,0 3,0.7956093 2.6839011,1.5587396 2.1213203,2.1213203 1.5587396,2.6839011 0.7956093,3 0,3 -0.7956093,3 -1.5587396,2.6839011 -2.1213203,2.1213203 -2.6839011,1.5587396 -3,0.7956093 -3,0 -3,-0.7956093 -2.6839011,-1.5587396 -2.1213203,-2.1213203 -1.5587396,-2.6839011 -0.7956093,-3 0,-3 Z"
                         style="fill:#ff0000;fill-opacity:1;fill-rule:nonzero;stroke:#000000;stroke-width:0.5;stroke-linecap:butt;stroke-linejoin:round;stroke-miterlimit:10;stroke-dasharray:none;stroke-opacity:1"
                         id="path82"
                         inkscape:connector-curvature="0" /></g></g><g
                     id="g84"
                     transform="translate(63.771429,259.2)"><g
                       id="g86"><g
                         id="g88"
                         clip-path="url(#clipPath90)"><path
                           d="m 0,-3 c 0.7956093,0 1.5587396,0.3160989 2.1213203,0.8786797 C 2.6839011,-1.5587396 3,-0.7956093 3,0 3,0.7956093 2.6839011,1.5587396 2.1213203,2.1213203 1.5587396,2.6839011 0.7956093,3 0,3 -0.7956093,3 -1.5587396,2.6839011 -2.1213203,2.1213203 -2.6839011,1.5587396 -3,0.7956093 -3,0 -3,-0.7956093 -2.6839011,-1.5587396 -2.1213203,-2.1213203 -1.5587396,-2.6839011 -0.7956093,-3 0,-3 Z"
                           style="fill:#ff0000;fill-opacity:1;fill-rule:nonzero;stroke:#000000;stroke-width:0.5;stroke-linecap:butt;stroke-linejoin:round;stroke-miterlimit:10;stroke-dasharray:none;stroke-opacity:1"
                           id="path94"
                           inkscape:connector-curvature="0" /></g></g><g
                       id="g96"
                       transform="translate(63.771429,-259.2)"><g
                         id="g98"><g
                           id="g100"
                           clip-path="url(#clipPath102)"><path
                             d="m 0,-3 c 0.7956093,0 1.5587396,0.3160989 2.1213203,0.8786797 C 2.6839011,-1.5587396 3,-0.7956093 3,0 3,0.7956093 2.6839011,1.5587396 2.1213203,2.1213203 1.5587396,2.6839011 0.7956093,3 0,3 -0.7956093,3 -1.5587396,2.6839011 -2.1213203,2.1213203 -2.6839011,1.5587396 -3,0.7956093 -3,0 -3,-0.7956093 -2.6839011,-1.5587396 -2.1213203,-2.1213203 -1.5587396,-2.6839011 -0.7956093,-3 0,-3 Z"
                             style="fill:#ff0000;fill-opacity:1;fill-rule:nonzero;stroke:#000000;stroke-width:0.5;stroke-linecap:butt;stroke-linejoin:round;stroke-miterlimit:10;stroke-dasharray:none;stroke-opacity:1"
                             id="path106"
                             inkscape:connector-curvature="0" /></g></g></g></g></g></g></g></g></g></g></g><g
       id="g108"><g
         id="g110"
         clip-path="url(#clipPath112)"><path
           d="m 72,216 3.822035,0.0632 3.786522,0.24389 4.934991,0.5788 4.752223,0.83503 4.530951,1.05695 4.286778,1.24781 4.03119,1.4111 3.77246,1.55032 3.51638,1.66871 3.26685,1.76922 3.02637,1.85447 2.79641,1.92675 3.1893,2.49348 2.8698,2.57153 2.57184,2.6351 2.29405,2.68695 2.03453,2.72929 1.79111,2.7639 1.56141,2.79218 1.34278,2.81529 1.1323,2.83411 0.9265,2.84932 0.72103,2.86141 0.50974,2.87065 0.28281,2.87701 0.0407,2.30381 -0.16249,2.30265 -0.30275,1.72242 -0.14927,0.57204 -0.0242,0.5759 0.097,0.57433 0.53764,1.12496 0.95685,1.0668 1.32428,0.98356 1.63782,0.88217 1.89815,0.76856 2.10794,0.64766 2.271,0.52346 3.62109,0.55258 3.77151,0.28213 3.82295,0.0282 3.79691,-0.20487 3.71215,-0.41519 3.58439,-0.60249 3.42652,-0.76756 3.24884,-0.91181 3.05943,-1.03701 3.77574,-1.54807 3.42901,-1.70495 3.09149,-1.83205 2.76941,-1.93441 2.46637,-2.01643 2.18416,-2.08183 1.92331,-2.13373 1.6835,-2.17472 1.46391,-2.20694 1.55005,-2.79336 1.27103,-2.82201 1.02304,-2.84254 0.80274,-2.85696 0.70691,-3.44106 0.46193,-3.44957 0.24864,-3.45408 0.0563,-4.03181 -0.16153,-4.03125 -0.41366,-4.60412 -0.71559,-5.17382 -0.94335,-5.16639 -1.28115,-5.73079 -1.50305,-5.71979 -1.71777,-5.70745 -1.74863,-5.12342 -1.65701,-4.54463 0.0196,-0.57594 0.14192,-0.57242 0.62912,-1.11521 1.04748,-1.04927 1.41081,-0.9587 1.71753,-0.85067 1.96895,-0.73132 2.16827,-0.60566 2.31987,-0.47774 3.67198,-0.47919 3.79567,-0.20573 3.82196,0.0485 3.77343,0.27978 3.66938,0.48664 3.52583,0.66932 3.35566,0.829 3.16901,0.96745 2.9737,1.08672 3.65698,1.60524 3.31025,1.75223 2.97729,1.87029 2.66339,1.96459 2.37134,2.03959 2.10222,2.099 1.85599,2.14589 1.63186,2.18277 1.75641,2.76833 1.4765,2.80153 1.23057,2.82571 1.01491,2.84318 0.97064,3.42793 0.73856,3.43975 0.61365,4.02234 0.38964,4.02808 0.21883,4.60685 0.0111,5.18392 -0.22031,5.75907 -0.46373,6.33248 -0.7772,7.47972 -1.12847,8.62491 -1.502,9.76844 -1.99836,11.48456 -2.22134,11.47619 -0.8421,4.58974 0.1334,0.57284 0.62538,1.11555 1.0589,1.04685 1.43362,0.95169 1.74756,0.83803 2.00216,0.71262 2.20105,0.58098 2.34918,0.44748 3.70438,0.42493 3.80956,0.14332 3.81472,-0.11612 3.74462,-0.34979 3.6202,-0.55669 3.45848,-0.7375 3.27299,-0.89387 3.0741,-1.02803 2.86965,-1.14236 3.50912,-1.67124 3.15772,-1.80879 2.82547,-1.91776 2.51671,-2.00369 2.2333,-2.07116 1.97548,-2.124 1.74253,-2.16523 1.88626,-2.75083 1.60111,-2.78753 1.3538,-2.8142 1.13989,-2.8335 1.12647,-3.41821 0.90389,-3.4317 0.82168,-4.01478 0.69001,-4.59735 0.52637,-5.17846 0.3478,-5.75779 0.17526,-6.91148 -0.0296,-8.06395 -0.2793,-10.36719 -0.61961,-13.82114 -1.15196,-20.15327 -2.29716,-35.69693 -3.61861,-55.84514 0.21584,-0.56769 0.78101,-1.095394 1.19912,-1.015566 1.55605,-0.911654 1.85109,-0.791428 2.0866,-0.661406 2.26689,-0.526851 2.39743,-0.391881 3.74669,-0.341262 3.82041,-0.06194 3.79948,0.193149 3.70849,0.421203 3.56792,0.621816 3.39426,0.796097 3.20038,0.946025 2.99611,1.074001 2.78873,1.182551 3.40003,1.71668 3.05043,1.846 2.72253,1.94794 2.4198,2.02791 2.1435,2.09046 1.89345,2.13919 1.66854,2.17711 1.80512,2.76194 1.53235,2.79542 1.29686,2.81968 1.29121,3.40627 1.04769,3.42334 0.96875,4.00806 0.74634,4.01781 0.63585,4.59896 0.4991,5.17903 0.37683,6.33365 0.20941,7.48736 0.0243,9.21595 -0.20437,12.09562 -0.53218,17.27831 -1.17712,29.94727 -3.70296,86.38382 -1.84388,42.61586 0.10461,0.57406 0.22883,0.56665 0.80482,1.09188 1.21973,1.01056 1.57334,0.90559 1.8651,0.7847 2.09754,0.65431 2.27504,0.51966 2.40309,0.38476 3.75122,0.33102 3.82112,0.0525 3.79733,-0.20166 3.70428,-0.42873 3.56229,-0.62837 3.38774,-0.80175 3.19336,-0.95086 2.98889,-1.0781 2.78153,-1.18602 3.39071,-1.72044 3.04164,-1.84896 2.71439,-1.95026 2.41237,-2.02972 2.1368,-2.09186 1.88743,-2.14028 1.66319,-2.17794 1.79927,-2.76272 1.52735,-2.79598 1.29261,-2.82008 1.28695,-3.4066 1.04423,-3.42355 0.96553,-4.00823 0.74385,-4.0179 0.63371,-4.59902 0.49741,-5.17907 0.3755,-6.33367 0.20861,-7.48735 0.024,-9.21596 -0.20394,-12.09562 -0.53081,-17.27832 -1.174,-29.9473 -3.71791,-86.95979 -1.73955,-40.31234 0,0"
           style="fill:none;stroke:#0000ff;stroke-width:1;stroke-linecap:square;stroke-linejoin:round;stroke-miterlimit:10;stroke-dasharray:none;stroke-opacity:1"
           id="path116"
           inkscape:connector-curvature="0" /></g></g><g
       id="g118"><path
         d="m 72,43.2 0,4"
         style="fill:#000000;fill-opacity:1;fill-rule:nonzero;stroke:#000000;stroke-width:0.5;stroke-linecap:butt;stroke-linejoin:round;stroke-miterlimit:10;stroke-dasharray:none;stroke-opacity:1"
         id="path120"
         inkscape:connector-curvature="0" /><path
         d="m 72,388.8 0,-4"
         style="fill:#000000;fill-opacity:1;fill-rule:nonzero;stroke:#000000;stroke-width:0.5;stroke-linecap:butt;stroke-linejoin:round;stroke-miterlimit:10;stroke-dasharray:none;stroke-opacity:1"
         id="path122"
         inkscape:connector-curvature="0" /><text
         transform="matrix(1,0,0,-1,68.976562,30.075)"
         style="font-variant:normal;font-weight:normal;font-size:12px;font-family:'Bitstream Vera Sans';-inkscape-font-specification:BitstreamVeraSans-Roman;writing-mode:lr-tb;fill:#000000;fill-opacity:1;fill-rule:nonzero;stroke:none"
         id="text124"><tspan
           x="0"
           y="0"
           id="tspan126">0</tspan></text>
<path
         d="m 135.77143,43.2 0,4"
         style="fill:#000000;fill-opacity:1;fill-rule:nonzero;stroke:#000000;stroke-width:0.5;stroke-linecap:butt;stroke-linejoin:round;stroke-miterlimit:10;stroke-dasharray:none;stroke-opacity:1"
         id="path128"
         inkscape:connector-curvature="0" /><path
         d="m 135.77143,388.8 0,-4"
         style="fill:#000000;fill-opacity:1;fill-rule:nonzero;stroke:#000000;stroke-width:0.5;stroke-linecap:butt;stroke-linejoin:round;stroke-miterlimit:10;stroke-dasharray:none;stroke-opacity:1"
         id="path130"
         inkscape:connector-curvature="0" /><text
         transform="matrix(1,0,0,-1,129.18549,30.075)"
         style="font-variant:normal;font-weight:normal;font-size:12px;font-family:'Bitstream Vera Sans';-inkscape-font-specification:BitstreamVeraSans-Roman;writing-mode:lr-tb;fill:#000000;fill-opacity:1;fill-rule:nonzero;stroke:none"
         id="text132"><tspan
           x="0 7.632"
           y="0"
           sodipodi:role="line"
           id="tspan134">10</tspan></text>
<path
         d="m 199.54286,43.2 0,4"
         style="fill:#000000;fill-opacity:1;fill-rule:nonzero;stroke:#000000;stroke-width:0.5;stroke-linecap:butt;stroke-linejoin:round;stroke-miterlimit:10;stroke-dasharray:none;stroke-opacity:1"
         id="path136"
         inkscape:connector-curvature="0" /><path
         d="m 199.54286,388.8 0,-4"
         style="fill:#000000;fill-opacity:1;fill-rule:nonzero;stroke:#000000;stroke-width:0.5;stroke-linecap:butt;stroke-linejoin:round;stroke-miterlimit:10;stroke-dasharray:none;stroke-opacity:1"
         id="path138"
         inkscape:connector-curvature="0" /><text
         transform="matrix(1,0,0,-1,192.73817,30.075)"
         style="font-variant:normal;font-weight:normal;font-size:12px;font-family:'Bitstream Vera Sans';-inkscape-font-specification:BitstreamVeraSans-Roman;writing-mode:lr-tb;fill:#000000;fill-opacity:1;fill-rule:nonzero;stroke:none"
         id="text140"><tspan
           x="0 7.632"
           y="0"
           sodipodi:role="line"
           id="tspan142">20</tspan></text>
<path
         d="m 263.31429,43.2 0,4"
         style="fill:#000000;fill-opacity:1;fill-rule:nonzero;stroke:#000000;stroke-width:0.5;stroke-linecap:butt;stroke-linejoin:round;stroke-miterlimit:10;stroke-dasharray:none;stroke-opacity:1"
         id="path144"
         inkscape:connector-curvature="0" /><path
         d="m 263.31429,388.8 0,-4"
         style="fill:#000000;fill-opacity:1;fill-rule:nonzero;stroke:#000000;stroke-width:0.5;stroke-linecap:butt;stroke-linejoin:round;stroke-miterlimit:10;stroke-dasharray:none;stroke-opacity:1"
         id="path146"
         inkscape:connector-curvature="0" /><text
         transform="matrix(1,0,0,-1,256.53304,30.075)"
         style="font-variant:normal;font-weight:normal;font-size:12px;font-family:'Bitstream Vera Sans';-inkscape-font-specification:BitstreamVeraSans-Roman;writing-mode:lr-tb;fill:#000000;fill-opacity:1;fill-rule:nonzero;stroke:none"
         id="text148"><tspan
           x="0 7.632"
           y="0"
           sodipodi:role="line"
           id="tspan150">30</tspan></text>
<path
         d="m 327.08571,43.2 0,4"
         style="fill:#000000;fill-opacity:1;fill-rule:nonzero;stroke:#000000;stroke-width:0.5;stroke-linecap:butt;stroke-linejoin:round;stroke-miterlimit:10;stroke-dasharray:none;stroke-opacity:1"
         id="path152"
         inkscape:connector-curvature="0" /><path
         d="m 327.08571,388.8 0,-4"
         style="fill:#000000;fill-opacity:1;fill-rule:nonzero;stroke:#000000;stroke-width:0.5;stroke-linecap:butt;stroke-linejoin:round;stroke-miterlimit:10;stroke-dasharray:none;stroke-opacity:1"
         id="path154"
         inkscape:connector-curvature="0" /><text
         transform="matrix(1,0,0,-1,320.1404,30.075)"
         style="font-variant:normal;font-weight:normal;font-size:12px;font-family:'Bitstream Vera Sans';-inkscape-font-specification:BitstreamVeraSans-Roman;writing-mode:lr-tb;fill:#000000;fill-opacity:1;fill-rule:nonzero;stroke:none"
         id="text156"><tspan
           x="0 7.632"
           y="0"
           sodipodi:role="line"
           id="tspan158">40</tspan></text>
<path
         d="m 390.85714,43.2 0,4"
         style="fill:#000000;fill-opacity:1;fill-rule:nonzero;stroke:#000000;stroke-width:0.5;stroke-linecap:butt;stroke-linejoin:round;stroke-miterlimit:10;stroke-dasharray:none;stroke-opacity:1"
         id="path160"
         inkscape:connector-curvature="0" /><path
         d="m 390.85714,388.8 0,-4"
         style="fill:#000000;fill-opacity:1;fill-rule:nonzero;stroke:#000000;stroke-width:0.5;stroke-linecap:butt;stroke-linejoin:round;stroke-miterlimit:10;stroke-dasharray:none;stroke-opacity:1"
         id="path162"
         inkscape:connector-curvature="0" /><text
         transform="matrix(1,0,0,-1,384.07589,30.075)"
         style="font-variant:normal;font-weight:normal;font-size:12px;font-family:'Bitstream Vera Sans';-inkscape-font-specification:BitstreamVeraSans-Roman;writing-mode:lr-tb;fill:#000000;fill-opacity:1;fill-rule:nonzero;stroke:none"
         id="text164"><tspan
           x="0 7.632"
           y="0"
           sodipodi:role="line"
           id="tspan166">50</tspan></text>
<path
         d="m 454.62857,43.2 0,4"
         style="fill:#000000;fill-opacity:1;fill-rule:nonzero;stroke:#000000;stroke-width:0.5;stroke-linecap:butt;stroke-linejoin:round;stroke-miterlimit:10;stroke-dasharray:none;stroke-opacity:1"
         id="path168"
         inkscape:connector-curvature="0" /><path
         d="m 454.62857,388.8 0,-4"
         style="fill:#000000;fill-opacity:1;fill-rule:nonzero;stroke:#000000;stroke-width:0.5;stroke-linecap:butt;stroke-linejoin:round;stroke-miterlimit:10;stroke-dasharray:none;stroke-opacity:1"
         id="path170"
         inkscape:connector-curvature="0" /><text
         transform="matrix(1,0,0,-1,447.80826,30.075)"
         style="font-variant:normal;font-weight:normal;font-size:12px;font-family:'Bitstream Vera Sans';-inkscape-font-specification:BitstreamVeraSans-Roman;writing-mode:lr-tb;fill:#000000;fill-opacity:1;fill-rule:nonzero;stroke:none"
         id="text172"><tspan
           x="0 7.632"
           y="0"
           sodipodi:role="line"
           id="tspan174">60</tspan></text>
<path
         d="m 518.4,43.2 0,4"
         style="fill:#000000;fill-opacity:1;fill-rule:nonzero;stroke:#000000;stroke-width:0.5;stroke-linecap:butt;stroke-linejoin:round;stroke-miterlimit:10;stroke-dasharray:none;stroke-opacity:1"
         id="path176"
         inkscape:connector-curvature="0" /><path
         d="m 518.4,388.8 0,-4"
         style="fill:#000000;fill-opacity:1;fill-rule:nonzero;stroke:#000000;stroke-width:0.5;stroke-linecap:butt;stroke-linejoin:round;stroke-miterlimit:10;stroke-dasharray:none;stroke-opacity:1"
         id="path178"
         inkscape:connector-curvature="0" /><text
         transform="matrix(1,0,0,-1,511.65,30.075)"
         style="font-variant:normal;font-weight:normal;font-size:12px;font-family:'Bitstream Vera Sans';-inkscape-font-specification:BitstreamVeraSans-Roman;writing-mode:lr-tb;fill:#000000;fill-opacity:1;fill-rule:nonzero;stroke:none"
         id="text180"><tspan
           x="0 7.632"
           y="0"
           sodipodi:role="line"
           id="tspan182">70</tspan></text>
<path
         d="m 72,43.2 4,0"
         style="fill:#000000;fill-opacity:1;fill-rule:nonzero;stroke:#000000;stroke-width:0.5;stroke-linecap:butt;stroke-linejoin:round;stroke-miterlimit:10;stroke-dasharray:none;stroke-opacity:1"
         id="path184"
         inkscape:connector-curvature="0" /><path
         d="m 518.4,43.2 -4,0"
         style="fill:#000000;fill-opacity:1;fill-rule:nonzero;stroke:#000000;stroke-width:0.5;stroke-linecap:butt;stroke-linejoin:round;stroke-miterlimit:10;stroke-dasharray:none;stroke-opacity:1"
         id="path186"
         inkscape:connector-curvature="0" /><g
         id="g188"
         transform="translate(44.71875,39.8875)"><text
           transform="matrix(1,0,0,-1,10.054688,0)"
           style="font-variant:normal;font-weight:normal;font-size:12px;font-family:'Bitstream Vera Sans';-inkscape-font-specification:BitstreamVeraSans-Roman;writing-mode:lr-tb;fill:#000000;fill-opacity:1;fill-rule:nonzero;stroke:none"
           id="text190"><tspan
             x="0 7.632"
             y="0"
             sodipodi:role="line"
             id="tspan192">60</tspan></text>
<g
           id="g194"
           transform="scale(0.012,0.012)"><g
             id="g196"><g
               id="g198"
               clip-path="url(#clipPath200)"><path
                 d="m 106,355 626,0 0,-83 -626,0 0,83"
                 style="fill:#000000;fill-opacity:1;fill-rule:nonzero;stroke:none"
                 id="path204"
                 inkscape:connector-curvature="0" /></g></g></g></g><path
         d="m 72,100.8 4,0"
         style="fill:#000000;fill-opacity:1;fill-rule:nonzero;stroke:#000000;stroke-width:0.5;stroke-linecap:butt;stroke-linejoin:round;stroke-miterlimit:10;stroke-dasharray:none;stroke-opacity:1"
         id="path206"
         inkscape:connector-curvature="0" /><path
         d="m 518.4,100.8 -4,0"
         style="fill:#000000;fill-opacity:1;fill-rule:nonzero;stroke:#000000;stroke-width:0.5;stroke-linecap:butt;stroke-linejoin:round;stroke-miterlimit:10;stroke-dasharray:none;stroke-opacity:1"
         id="path208"
         inkscape:connector-curvature="0" /><g
         id="g210"
         transform="translate(44.71875,97.4875)"><text
           transform="matrix(1,0,0,-1,10.054688,0)"
           style="font-variant:normal;font-weight:normal;font-size:12px;font-family:'Bitstream Vera Sans';-inkscape-font-specification:BitstreamVeraSans-Roman;writing-mode:lr-tb;fill:#000000;fill-opacity:1;fill-rule:nonzero;stroke:none"
           id="text212"><tspan
             x="0 7.632"
             y="0"
             sodipodi:role="line"
             id="tspan214">40</tspan></text>
<g
           id="g216"
           transform="scale(0.012,0.012)"><g
             id="g218"><g
               id="g220"
               clip-path="url(#clipPath222)"><path
                 d="m 106,355 626,0 0,-83 -626,0 0,83"
                 style="fill:#000000;fill-opacity:1;fill-rule:nonzero;stroke:none"
                 id="path226"
                 inkscape:connector-curvature="0" /></g></g></g></g><path
         d="m 72,158.4 4,0"
         style="fill:#000000;fill-opacity:1;fill-rule:nonzero;stroke:#000000;stroke-width:0.5;stroke-linecap:butt;stroke-linejoin:round;stroke-miterlimit:10;stroke-dasharray:none;stroke-opacity:1"
         id="path228"
         inkscape:connector-curvature="0" /><path
         d="m 518.4,158.4 -4,0"
         style="fill:#000000;fill-opacity:1;fill-rule:nonzero;stroke:#000000;stroke-width:0.5;stroke-linecap:butt;stroke-linejoin:round;stroke-miterlimit:10;stroke-dasharray:none;stroke-opacity:1"
         id="path230"
         inkscape:connector-curvature="0" /><g
         id="g232"
         transform="translate(44.71875,155.0875)"><text
           transform="matrix(1,0,0,-1,10.054688,0)"
           style="font-variant:normal;font-weight:normal;font-size:12px;font-family:'Bitstream Vera Sans';-inkscape-font-specification:BitstreamVeraSans-Roman;writing-mode:lr-tb;fill:#000000;fill-opacity:1;fill-rule:nonzero;stroke:none"
           id="text234"><tspan
             x="0 7.632"
             y="0"
             sodipodi:role="line"
             id="tspan236">20</tspan></text>
<g
           id="g238"
           transform="scale(0.012,0.012)"><g
             id="g240"><g
               id="g242"
               clip-path="url(#clipPath244)"><path
                 d="m 106,355 626,0 0,-83 -626,0 0,83"
                 style="fill:#000000;fill-opacity:1;fill-rule:nonzero;stroke:none"
                 id="path248"
                 inkscape:connector-curvature="0" /></g></g></g></g><path
         d="m 72,216 4,0"
         style="fill:#000000;fill-opacity:1;fill-rule:nonzero;stroke:#000000;stroke-width:0.5;stroke-linecap:butt;stroke-linejoin:round;stroke-miterlimit:10;stroke-dasharray:none;stroke-opacity:1"
         id="path250"
         inkscape:connector-curvature="0" /><path
         d="m 518.4,216 -4,0"
         style="fill:#000000;fill-opacity:1;fill-rule:nonzero;stroke:#000000;stroke-width:0.5;stroke-linecap:butt;stroke-linejoin:round;stroke-miterlimit:10;stroke-dasharray:none;stroke-opacity:1"
         id="path252"
         inkscape:connector-curvature="0" /><text
         transform="matrix(1,0,0,-1,61.953125,212.6875)"
         style="font-variant:normal;font-weight:normal;font-size:12px;font-family:'Bitstream Vera Sans';-inkscape-font-specification:BitstreamVeraSans-Roman;writing-mode:lr-tb;fill:#000000;fill-opacity:1;fill-rule:nonzero;stroke:none"
         id="text254"><tspan
           x="0"
           y="0"
           id="tspan256">0</tspan></text>
<path
         d="m 72,273.6 4,0"
         style="fill:#000000;fill-opacity:1;fill-rule:nonzero;stroke:#000000;stroke-width:0.5;stroke-linecap:butt;stroke-linejoin:round;stroke-miterlimit:10;stroke-dasharray:none;stroke-opacity:1"
         id="path258"
         inkscape:connector-curvature="0" /><path
         d="m 518.4,273.6 -4,0"
         style="fill:#000000;fill-opacity:1;fill-rule:nonzero;stroke:#000000;stroke-width:0.5;stroke-linecap:butt;stroke-linejoin:round;stroke-miterlimit:10;stroke-dasharray:none;stroke-opacity:1"
         id="path260"
         inkscape:connector-curvature="0" /><text
         transform="matrix(1,0,0,-1,54.390625,270.2875)"
         style="font-variant:normal;font-weight:normal;font-size:12px;font-family:'Bitstream Vera Sans';-inkscape-font-specification:BitstreamVeraSans-Roman;writing-mode:lr-tb;fill:#000000;fill-opacity:1;fill-rule:nonzero;stroke:none"
         id="text262"><tspan
           x="0 7.632"
           y="0"
           sodipodi:role="line"
           id="tspan264">20</tspan></text>
<path
         d="m 72,331.2 4,0"
         style="fill:#000000;fill-opacity:1;fill-rule:nonzero;stroke:#000000;stroke-width:0.5;stroke-linecap:butt;stroke-linejoin:round;stroke-miterlimit:10;stroke-dasharray:none;stroke-opacity:1"
         id="path266"
         inkscape:connector-curvature="0" /><path
         d="m 518.4,331.2 -4,0"
         style="fill:#000000;fill-opacity:1;fill-rule:nonzero;stroke:#000000;stroke-width:0.5;stroke-linecap:butt;stroke-linejoin:round;stroke-miterlimit:10;stroke-dasharray:none;stroke-opacity:1"
         id="path268"
         inkscape:connector-curvature="0" /><text
         transform="matrix(1,0,0,-1,54.109375,327.8875)"
         style="font-variant:normal;font-weight:normal;font-size:12px;font-family:'Bitstream Vera Sans';-inkscape-font-specification:BitstreamVeraSans-Roman;writing-mode:lr-tb;fill:#000000;fill-opacity:1;fill-rule:nonzero;stroke:none"
         id="text270"><tspan
           x="0 7.632"
           y="0"
           sodipodi:role="line"
           id="tspan272">40</tspan></text>
<path
         d="m 72,388.8 4,0"
         style="fill:#000000;fill-opacity:1;fill-rule:nonzero;stroke:#000000;stroke-width:0.5;stroke-linecap:butt;stroke-linejoin:round;stroke-miterlimit:10;stroke-dasharray:none;stroke-opacity:1"
         id="path274"
         inkscape:connector-curvature="0" /><path
         d="m 518.4,388.8 -4,0"
         style="fill:#000000;fill-opacity:1;fill-rule:nonzero;stroke:#000000;stroke-width:0.5;stroke-linecap:butt;stroke-linejoin:round;stroke-miterlimit:10;stroke-dasharray:none;stroke-opacity:1"
         id="path276"
         inkscape:connector-curvature="0" /><text
         transform="matrix(1,0,0,-1,54.359375,385.4875)"
         style="font-variant:normal;font-weight:normal;font-size:12px;font-family:'Bitstream Vera Sans';-inkscape-font-specification:BitstreamVeraSans-Roman;writing-mode:lr-tb;fill:#000000;fill-opacity:1;fill-rule:nonzero;stroke:none"
         id="text278"><tspan
           x="0 7.632"
           y="0"
           sodipodi:role="line"
           id="tspan280">60</tspan></text>
<path
         d="m 72,388.8 446.4,0"
         style="fill:none;stroke:#000000;stroke-width:1;stroke-linecap:butt;stroke-linejoin:round;stroke-miterlimit:10;stroke-dasharray:none;stroke-opacity:1"
         id="path282"
         inkscape:connector-curvature="0" /><path
         d="m 518.4,43.2 0,345.6"
         style="fill:none;stroke:#000000;stroke-width:1;stroke-linecap:butt;stroke-linejoin:round;stroke-miterlimit:10;stroke-dasharray:none;stroke-opacity:1"
         id="path284"
         inkscape:connector-curvature="0" /><path
         d="m 72,43.2 446.4,0"
         style="fill:none;stroke:#000000;stroke-width:1;stroke-linecap:butt;stroke-linejoin:round;stroke-miterlimit:10;stroke-dasharray:none;stroke-opacity:1"
         id="path286"
         inkscape:connector-curvature="0" /><path
         d="m 72,43.2 0,345.6"
         style="fill:none;stroke:#000000;stroke-width:1;stroke-linecap:butt;stroke-linejoin:round;stroke-miterlimit:10;stroke-dasharray:none;stroke-opacity:1"
         id="path288"
         inkscape:connector-curvature="0" /></g></g></svg>