<?xml version="1.0" encoding="UTF-8" standalone="no"?>
<!DOCTYPE svg PUBLIC "-//W3C//DTD SVG 1.0//EN" "http://www.w3.org/TR/2001/PR-SVG-20010719/DTD/svg10.dtd">
<svg width="12cm" height="12cm" viewBox="118 15 229 236" xmlns="http://www.w3.org/2000/svg" xmlns:xlink="http://www.w3.org/1999/xlink">
  <g>
    <ellipse style="fill: #ffffff" cx="232" cy="130" rx="113" ry="113"/>
    <ellipse style="fill: none; fill-opacity:0; stroke-width: 2; stroke: #000000" cx="232" cy="130" rx="113" ry="113"/>
  </g>
  <g>
    <ellipse style="fill: #ffffff" cx="232.5" cy="129.5" rx="80.5" ry="80.5"/>
    <ellipse style="fill: none; fill-opacity:0; stroke-width: 2; stroke: #000000" cx="232.5" cy="129.5" rx="80.5" ry="80.5"/>
  </g>
  <line style="fill: none; fill-opacity:0; stroke-width: 2; stroke: #000000" x1="232" y1="130" x2="232" y2="243"/>
  <g>
    <line style="fill: none; fill-opacity:0; stroke-width: 2; stroke: #000000" x1="232" y1="243" x2="284.265" y2="243.843"/>
    <polygon style="fill: #000000" points="291.764,243.964 281.685,248.802 284.265,243.843 281.846,238.803 "/>
    <polygon style="fill: none; fill-opacity:0; stroke-width: 2; stroke: #000000" points="291.764,243.964 281.685,248.802 284.265,243.843 281.846,238.803 "/>
  </g>
  <g>
    <line style="fill: none; fill-opacity:0; stroke-width: 2; stroke: #000000" x1="232.5" y1="210" x2="266.264" y2="210"/>
    <polygon style="fill: #000000" points="273.764,210 263.764,215 266.264,210 263.764,205 "/>
    <polygon style="fill: none; fill-opacity:0; stroke-width: 2; stroke: #000000" points="273.764,210 263.764,215 266.264,210 263.764,205 "/>
  </g>
  <g>
    <line style="fill: none; fill-opacity:0; stroke-width: 2; stroke: #000000" x1="233" y1="227" x2="276.264" y2="227"/>
    <polygon style="fill: #000000" points="283.764,227 273.764,232 276.264,227 273.764,222 "/>
    <polygon style="fill: none; fill-opacity:0; stroke-width: 2; stroke: #000000" points="283.764,227 273.764,232 276.264,227 273.764,222 "/>
  </g>
  <line style="fill: none; fill-opacity:0; stroke-width: 2; stroke: #000000" x1="233" y1="131" x2="295" y2="247"/>
</svg>
