<?xml version="1.0" encoding="UTF-8" standalone="no"?>
<!DOCTYPE svg PUBLIC "-//W3C//DTD SVG 1.0//EN" "http://www.w3.org/TR/2001/PR-SVG-20010719/DTD/svg10.dtd">
<svg width="47cm" height="22cm" viewBox="-278 26 938 434" xmlns="http://www.w3.org/2000/svg" xmlns:xlink="http://www.w3.org/1999/xlink">
  <g>
    <rect style="fill: #d8e5e5" x="109" y="77" width="114" height="72"/>
    <rect style="fill: none; fill-opacity:0; stroke-width: 2; stroke: #000000" x="109" y="77" width="114" height="72"/>
  </g>
  <g>
    <rect style="fill: #000000" x="169" y="60" width="42" height="9"/>
    <rect style="fill: none; fill-opacity:0; stroke-width: 2; stroke: #000000" x="169" y="60" width="42" height="9"/>
  </g>
  <g>
    <rect style="fill: #000000" x="170.2" y="155.7" width="42" height="9"/>
    <rect style="fill: none; fill-opacity:0; stroke-width: 2; stroke: #000000" x="170.2" y="155.7" width="42" height="9"/>
  </g>
  <line style="fill: none; fill-opacity:0; stroke-width: 2; stroke: #000000" x1="190" y1="69" x2="191.128" y2="154.695"/>
  <g>
    <ellipse style="fill: #000000" cx="118.5" cy="110.5" rx="6.5" ry="6.5"/>
    <ellipse style="fill: none; fill-opacity:0; stroke-width: 2; stroke: #000000" cx="118.5" cy="110.5" rx="6.5" ry="6.5"/>
  </g>
  <g>
    <ellipse style="fill: #0000ff" cx="190" cy="111" rx="6.5" ry="4.5"/>
    <ellipse style="fill: none; fill-opacity:0; stroke-width: 2; stroke: #000000" cx="190" cy="111" rx="6.5" ry="4.5"/>
  </g>
  <line style="fill: none; fill-opacity:0; stroke-width: 2; stroke: #000000" x1="-180" y1="457" x2="562" y2="457"/>
  <line style="fill: none; fill-opacity:0; stroke-width: 2; stroke: #000000" x1="-276" y1="457" x2="659" y2="459"/>
  <line style="fill: none; fill-opacity:0; stroke-width: 2; stroke: #0000ff" x1="190" y1="455" x2="191.2" y2="164.7"/>
  <line style="fill: none; fill-opacity:0; stroke-width: 2; stroke: #0000ff" x1="191" y1="457" x2="420.204" y2="123.104"/>
  <text font-size="22.5778" style="fill: #000000;text-anchor:start;font-family:SymbolPi;font-style:normal;font-weight:normal" x="202" y="398">
    <tspan x="202" y="398">Q</tspan>
  </text>
  <g>
    <line style="fill: none; fill-opacity:0; stroke-width: 2; stroke: #000000" x1="194" y1="371" x2="228.785" y2="382.858"/>
    <polygon style="fill: #000000" points="235.884,385.278 224.805,386.784 228.785,382.858 228.032,377.319 "/>
    <polygon style="fill: none; fill-opacity:0; stroke-width: 2; stroke: #000000" points="235.884,385.278 224.805,386.784 228.785,382.858 228.032,377.319 "/>
  </g>
  <text font-size="22.5778" style="fill: #000000;text-anchor:start;font-family:SymbolPi;font-style:normal;font-weight:normal" x="202" y="188">
    <tspan x="202" y="188">f</tspan>
  </text>
  <text font-size="22.5778" style="fill: #000000;text-anchor:start;font-family:SymbolPi;font-style:normal;font-weight:normal" x="196" y="48">
    <tspan x="196" y="48">f</tspan>
  </text>
  <text font-size="16.9333" style="fill: #000000;text-anchor:start;font-family:Utopia;font-style:normal;font-weight:normal" x="210" y="199">
    <tspan x="210" y="199">1</tspan>
  </text>
  <text font-size="16.9333" style="fill: #000000;text-anchor:start;font-family:Utopia;font-style:normal;font-weight:normal" x="207" y="54">
    <tspan x="207" y="54">2</tspan>
  </text>
  <text font-size="22.5778" style="fill: #000000;text-anchor:start;font-family:Utopia;font-style:normal;font-weight:normal" x="296" y="63">
    <tspan x="296" y="63">s</tspan>
  </text>
  <text font-size="22.5778" style="fill: #000000;text-anchor:start;font-family:Utopia;font-style:normal;font-weight:normal" x="270" y="189.2">
    <tspan x="270" y="189.2">s</tspan>
  </text>
  <text font-size="16.9333" style="fill: #000000;text-anchor:start;font-family:Utopia;font-style:normal;font-weight:normal" x="278" y="197">
    <tspan x="278" y="197">1</tspan>
  </text>
  <text font-size="16.9333" style="fill: #000000;text-anchor:start;font-family:Utopia;font-style:normal;font-weight:normal" x="306" y="71">
    <tspan x="306" y="71">2</tspan>
  </text>
</svg>
