<?xml version="1.0" encoding="utf-8" standalone="no"?>
<!DOCTYPE svg PUBLIC "-//W3C//DTD SVG 1.1//EN"
  "http://www.w3.org/Graphics/SVG/1.1/DTD/svg11.dtd">
<!-- Created with matplotlib (http://matplotlib.org/) -->
<svg height="345pt" version="1.1" viewBox="0 0 460 345" width="460pt" xmlns="http://www.w3.org/2000/svg" xmlns:xlink="http://www.w3.org/1999/xlink">
 <defs>
  <style type="text/css">
*{stroke-linecap:butt;stroke-linejoin:round;}
  </style>
 </defs>
 <g id="figure_1">
  <g id="patch_1">
   <path d="M 0 345.6 
L 460.8 345.6 
L 460.8 0 
L 0 0 
z
" style="fill:#ffffff;"/>
  </g>
  <g id="axes_1">
   <g id="patch_2">
    <path d="M 57.6 307.584 
L 414.72 307.584 
L 414.72 41.472 
L 57.6 41.472 
z
" style="fill:#ffffff;"/>
   </g>
   <g id="matplotlib.axis_1">
    <g id="xtick_1">
     <g id="line2d_1">
      <defs>
       <path d="M 0 0 
L 0 3.5 
" id="m83b37fb734" style="stroke:#000000;stroke-width:0.8;"/>
      </defs>
      <g>
       <use style="stroke:#000000;stroke-width:0.8;" x="73.832727" xlink:href="#m83b37fb734" y="307.584"/>
      </g>
     </g>
     <g id="text_1">
      <!-- 0 -->
      <defs>
       <path d="M 31.78125 66.40625 
Q 24.171875 66.40625 20.328125 58.90625 
Q 16.5 51.421875 16.5 36.375 
Q 16.5 21.390625 20.328125 13.890625 
Q 24.171875 6.390625 31.78125 6.390625 
Q 39.453125 6.390625 43.28125 13.890625 
Q 47.125 21.390625 47.125 36.375 
Q 47.125 51.421875 43.28125 58.90625 
Q 39.453125 66.40625 31.78125 66.40625 
z
M 31.78125 74.21875 
Q 44.046875 74.21875 50.515625 64.515625 
Q 56.984375 54.828125 56.984375 36.375 
Q 56.984375 17.96875 50.515625 8.265625 
Q 44.046875 -1.421875 31.78125 -1.421875 
Q 19.53125 -1.421875 13.0625 8.265625 
Q 6.59375 17.96875 6.59375 36.375 
Q 6.59375 54.828125 13.0625 64.515625 
Q 19.53125 74.21875 31.78125 74.21875 
z
" id="DejaVuSans-30"/>
      </defs>
      <g transform="translate(70.651477 322.182437)scale(0.1 -0.1)">
       <use xlink:href="#DejaVuSans-30"/>
      </g>
     </g>
    </g>
    <g id="xtick_2">
     <g id="line2d_2">
      <g>
       <use style="stroke:#000000;stroke-width:0.8;" x="138.763636" xlink:href="#m83b37fb734" y="307.584"/>
      </g>
     </g>
     <g id="text_2">
      <!-- 1 -->
      <defs>
       <path d="M 12.40625 8.296875 
L 28.515625 8.296875 
L 28.515625 63.921875 
L 10.984375 60.40625 
L 10.984375 69.390625 
L 28.421875 72.90625 
L 38.28125 72.90625 
L 38.28125 8.296875 
L 54.390625 8.296875 
L 54.390625 0 
L 12.40625 0 
z
" id="DejaVuSans-31"/>
      </defs>
      <g transform="translate(135.582386 322.182437)scale(0.1 -0.1)">
       <use xlink:href="#DejaVuSans-31"/>
      </g>
     </g>
    </g>
    <g id="xtick_3">
     <g id="line2d_3">
      <g>
       <use style="stroke:#000000;stroke-width:0.8;" x="203.694545" xlink:href="#m83b37fb734" y="307.584"/>
      </g>
     </g>
     <g id="text_3">
      <!-- 2 -->
      <defs>
       <path d="M 19.1875 8.296875 
L 53.609375 8.296875 
L 53.609375 0 
L 7.328125 0 
L 7.328125 8.296875 
Q 12.9375 14.109375 22.625 23.890625 
Q 32.328125 33.6875 34.8125 36.53125 
Q 39.546875 41.84375 41.421875 45.53125 
Q 43.3125 49.21875 43.3125 52.78125 
Q 43.3125 58.59375 39.234375 62.25 
Q 35.15625 65.921875 28.609375 65.921875 
Q 23.96875 65.921875 18.8125 64.3125 
Q 13.671875 62.703125 7.8125 59.421875 
L 7.8125 69.390625 
Q 13.765625 71.78125 18.9375 73 
Q 24.125 74.21875 28.421875 74.21875 
Q 39.75 74.21875 46.484375 68.546875 
Q 53.21875 62.890625 53.21875 53.421875 
Q 53.21875 48.921875 51.53125 44.890625 
Q 49.859375 40.875 45.40625 35.40625 
Q 44.1875 33.984375 37.640625 27.21875 
Q 31.109375 20.453125 19.1875 8.296875 
z
" id="DejaVuSans-32"/>
      </defs>
      <g transform="translate(200.513295 322.182437)scale(0.1 -0.1)">
       <use xlink:href="#DejaVuSans-32"/>
      </g>
     </g>
    </g>
    <g id="xtick_4">
     <g id="line2d_4">
      <g>
       <use style="stroke:#000000;stroke-width:0.8;" x="268.625455" xlink:href="#m83b37fb734" y="307.584"/>
      </g>
     </g>
     <g id="text_4">
      <!-- 3 -->
      <defs>
       <path d="M 40.578125 39.3125 
Q 47.65625 37.796875 51.625 33 
Q 55.609375 28.21875 55.609375 21.1875 
Q 55.609375 10.40625 48.1875 4.484375 
Q 40.765625 -1.421875 27.09375 -1.421875 
Q 22.515625 -1.421875 17.65625 -0.515625 
Q 12.796875 0.390625 7.625 2.203125 
L 7.625 11.71875 
Q 11.71875 9.328125 16.59375 8.109375 
Q 21.484375 6.890625 26.8125 6.890625 
Q 36.078125 6.890625 40.9375 10.546875 
Q 45.796875 14.203125 45.796875 21.1875 
Q 45.796875 27.640625 41.28125 31.265625 
Q 36.765625 34.90625 28.71875 34.90625 
L 20.21875 34.90625 
L 20.21875 43.015625 
L 29.109375 43.015625 
Q 36.375 43.015625 40.234375 45.921875 
Q 44.09375 48.828125 44.09375 54.296875 
Q 44.09375 59.90625 40.109375 62.90625 
Q 36.140625 65.921875 28.71875 65.921875 
Q 24.65625 65.921875 20.015625 65.03125 
Q 15.375 64.15625 9.8125 62.3125 
L 9.8125 71.09375 
Q 15.4375 72.65625 20.34375 73.4375 
Q 25.25 74.21875 29.59375 74.21875 
Q 40.828125 74.21875 47.359375 69.109375 
Q 53.90625 64.015625 53.90625 55.328125 
Q 53.90625 49.265625 50.4375 45.09375 
Q 46.96875 40.921875 40.578125 39.3125 
z
" id="DejaVuSans-33"/>
      </defs>
      <g transform="translate(265.444205 322.182437)scale(0.1 -0.1)">
       <use xlink:href="#DejaVuSans-33"/>
      </g>
     </g>
    </g>
    <g id="xtick_5">
     <g id="line2d_5">
      <g>
       <use style="stroke:#000000;stroke-width:0.8;" x="333.556364" xlink:href="#m83b37fb734" y="307.584"/>
      </g>
     </g>
     <g id="text_5">
      <!-- 4 -->
      <defs>
       <path d="M 37.796875 64.3125 
L 12.890625 25.390625 
L 37.796875 25.390625 
z
M 35.203125 72.90625 
L 47.609375 72.90625 
L 47.609375 25.390625 
L 58.015625 25.390625 
L 58.015625 17.1875 
L 47.609375 17.1875 
L 47.609375 0 
L 37.796875 0 
L 37.796875 17.1875 
L 4.890625 17.1875 
L 4.890625 26.703125 
z
" id="DejaVuSans-34"/>
      </defs>
      <g transform="translate(330.375114 322.182437)scale(0.1 -0.1)">
       <use xlink:href="#DejaVuSans-34"/>
      </g>
     </g>
    </g>
    <g id="xtick_6">
     <g id="line2d_6">
      <g>
       <use style="stroke:#000000;stroke-width:0.8;" x="398.487273" xlink:href="#m83b37fb734" y="307.584"/>
      </g>
     </g>
     <g id="text_6">
      <!-- 5 -->
      <defs>
       <path d="M 10.796875 72.90625 
L 49.515625 72.90625 
L 49.515625 64.59375 
L 19.828125 64.59375 
L 19.828125 46.734375 
Q 21.96875 47.46875 24.109375 47.828125 
Q 26.265625 48.1875 28.421875 48.1875 
Q 40.625 48.1875 47.75 41.5 
Q 54.890625 34.8125 54.890625 23.390625 
Q 54.890625 11.625 47.5625 5.09375 
Q 40.234375 -1.421875 26.90625 -1.421875 
Q 22.3125 -1.421875 17.546875 -0.640625 
Q 12.796875 0.140625 7.71875 1.703125 
L 7.71875 11.625 
Q 12.109375 9.234375 16.796875 8.0625 
Q 21.484375 6.890625 26.703125 6.890625 
Q 35.15625 6.890625 40.078125 11.328125 
Q 45.015625 15.765625 45.015625 23.390625 
Q 45.015625 31 40.078125 35.4375 
Q 35.15625 39.890625 26.703125 39.890625 
Q 22.75 39.890625 18.8125 39.015625 
Q 14.890625 38.140625 10.796875 36.28125 
z
" id="DejaVuSans-35"/>
      </defs>
      <g transform="translate(395.306023 322.182437)scale(0.1 -0.1)">
       <use xlink:href="#DejaVuSans-35"/>
      </g>
     </g>
    </g>
   </g>
   <g id="matplotlib.axis_2">
    <g id="ytick_1">
     <g id="line2d_7">
      <defs>
       <path d="M 0 0 
L -3.5 0 
" id="m69781a20d0" style="stroke:#000000;stroke-width:0.8;"/>
      </defs>
      <g>
       <use style="stroke:#000000;stroke-width:0.8;" x="57.6" xlink:href="#m69781a20d0" y="297.16164"/>
      </g>
     </g>
     <g id="text_7">
      <!-- −2.5 -->
      <defs>
       <path d="M 10.59375 35.5 
L 73.1875 35.5 
L 73.1875 27.203125 
L 10.59375 27.203125 
z
" id="DejaVuSans-2212"/>
       <path d="M 10.6875 12.40625 
L 21 12.40625 
L 21 0 
L 10.6875 0 
z
" id="DejaVuSans-2e"/>
      </defs>
      <g transform="translate(26.317187 300.960859)scale(0.1 -0.1)">
       <use xlink:href="#DejaVuSans-2212"/>
       <use x="83.789062" xlink:href="#DejaVuSans-32"/>
       <use x="147.412109" xlink:href="#DejaVuSans-2e"/>
       <use x="179.199219" xlink:href="#DejaVuSans-35"/>
      </g>
     </g>
    </g>
    <g id="ytick_2">
     <g id="line2d_8">
      <g>
       <use style="stroke:#000000;stroke-width:0.8;" x="57.6" xlink:href="#m69781a20d0" y="267.159768"/>
      </g>
     </g>
     <g id="text_8">
      <!-- 0.0 -->
      <g transform="translate(34.696875 270.958986)scale(0.1 -0.1)">
       <use xlink:href="#DejaVuSans-30"/>
       <use x="63.623047" xlink:href="#DejaVuSans-2e"/>
       <use x="95.410156" xlink:href="#DejaVuSans-30"/>
      </g>
     </g>
    </g>
    <g id="ytick_3">
     <g id="line2d_9">
      <g>
       <use style="stroke:#000000;stroke-width:0.8;" x="57.6" xlink:href="#m69781a20d0" y="237.157896"/>
      </g>
     </g>
     <g id="text_9">
      <!-- 2.5 -->
      <g transform="translate(34.696875 240.957114)scale(0.1 -0.1)">
       <use xlink:href="#DejaVuSans-32"/>
       <use x="63.623047" xlink:href="#DejaVuSans-2e"/>
       <use x="95.410156" xlink:href="#DejaVuSans-35"/>
      </g>
     </g>
    </g>
    <g id="ytick_4">
     <g id="line2d_10">
      <g>
       <use style="stroke:#000000;stroke-width:0.8;" x="57.6" xlink:href="#m69781a20d0" y="207.156024"/>
      </g>
     </g>
     <g id="text_10">
      <!-- 5.0 -->
      <g transform="translate(34.696875 210.955242)scale(0.1 -0.1)">
       <use xlink:href="#DejaVuSans-35"/>
       <use x="63.623047" xlink:href="#DejaVuSans-2e"/>
       <use x="95.410156" xlink:href="#DejaVuSans-30"/>
      </g>
     </g>
    </g>
    <g id="ytick_5">
     <g id="line2d_11">
      <g>
       <use style="stroke:#000000;stroke-width:0.8;" x="57.6" xlink:href="#m69781a20d0" y="177.154151"/>
      </g>
     </g>
     <g id="text_11">
      <!-- 7.5 -->
      <defs>
       <path d="M 8.203125 72.90625 
L 55.078125 72.90625 
L 55.078125 68.703125 
L 28.609375 0 
L 18.3125 0 
L 43.21875 64.59375 
L 8.203125 64.59375 
z
" id="DejaVuSans-37"/>
      </defs>
      <g transform="translate(34.696875 180.95337)scale(0.1 -0.1)">
       <use xlink:href="#DejaVuSans-37"/>
       <use x="63.623047" xlink:href="#DejaVuSans-2e"/>
       <use x="95.410156" xlink:href="#DejaVuSans-35"/>
      </g>
     </g>
    </g>
    <g id="ytick_6">
     <g id="line2d_12">
      <g>
       <use style="stroke:#000000;stroke-width:0.8;" x="57.6" xlink:href="#m69781a20d0" y="147.152279"/>
      </g>
     </g>
     <g id="text_12">
      <!-- 10.0 -->
      <g transform="translate(28.334375 150.951498)scale(0.1 -0.1)">
       <use xlink:href="#DejaVuSans-31"/>
       <use x="63.623047" xlink:href="#DejaVuSans-30"/>
       <use x="127.246094" xlink:href="#DejaVuSans-2e"/>
       <use x="159.033203" xlink:href="#DejaVuSans-30"/>
      </g>
     </g>
    </g>
    <g id="ytick_7">
     <g id="line2d_13">
      <g>
       <use style="stroke:#000000;stroke-width:0.8;" x="57.6" xlink:href="#m69781a20d0" y="117.150407"/>
      </g>
     </g>
     <g id="text_13">
      <!-- 12.5 -->
      <g transform="translate(28.334375 120.949626)scale(0.1 -0.1)">
       <use xlink:href="#DejaVuSans-31"/>
       <use x="63.623047" xlink:href="#DejaVuSans-32"/>
       <use x="127.246094" xlink:href="#DejaVuSans-2e"/>
       <use x="159.033203" xlink:href="#DejaVuSans-35"/>
      </g>
     </g>
    </g>
    <g id="ytick_8">
     <g id="line2d_14">
      <g>
       <use style="stroke:#000000;stroke-width:0.8;" x="57.6" xlink:href="#m69781a20d0" y="87.148535"/>
      </g>
     </g>
     <g id="text_14">
      <!-- 15.0 -->
      <g transform="translate(28.334375 90.947754)scale(0.1 -0.1)">
       <use xlink:href="#DejaVuSans-31"/>
       <use x="63.623047" xlink:href="#DejaVuSans-35"/>
       <use x="127.246094" xlink:href="#DejaVuSans-2e"/>
       <use x="159.033203" xlink:href="#DejaVuSans-30"/>
      </g>
     </g>
    </g>
    <g id="ytick_9">
     <g id="line2d_15">
      <g>
       <use style="stroke:#000000;stroke-width:0.8;" x="57.6" xlink:href="#m69781a20d0" y="57.146663"/>
      </g>
     </g>
     <g id="text_15">
      <!-- 17.5 -->
      <g transform="translate(28.334375 60.945882)scale(0.1 -0.1)">
       <use xlink:href="#DejaVuSans-31"/>
       <use x="63.623047" xlink:href="#DejaVuSans-37"/>
       <use x="127.246094" xlink:href="#DejaVuSans-2e"/>
       <use x="159.033203" xlink:href="#DejaVuSans-35"/>
      </g>
     </g>
    </g>
   </g>
   <g id="line2d_16">
    <path clip-path="url(#p73b5d1fc56)" d="M 73.832727 274.132613 
L 77.112066 252.835074 
L 80.391405 264.432376 
L 83.670744 242.974803 
L 86.950083 289.380008 
L 90.229421 244.280911 
L 93.50876 275.454295 
L 96.788099 269.089338 
L 100.067438 265.136421 
L 103.346777 250.856133 
L 106.626116 268.266478 
L 109.905455 247.196859 
L 113.184793 253.478858 
L 116.464132 271.725808 
L 119.743471 250.612216 
L 123.02281 265.711867 
L 126.302149 249.087403 
L 129.581488 275.171649 
L 132.860826 282.488572 
L 136.140165 278.984647 
L 139.419504 294.589841 
L 142.698843 283.140233 
L 145.978182 261.056557 
L 149.257521 258.839327 
L 152.53686 265.793986 
L 155.816198 287.560375 
L 159.095537 280.003187 
L 162.374876 262.457767 
L 165.654215 283.055301 
L 168.933554 249.152029 
L 172.212893 258.518216 
L 175.492231 247.566489 
L 178.77157 237.582313 
L 182.050909 251.370456 
L 185.330248 274.063353 
L 188.609587 267.179349 
L 191.888926 259.21542 
L 195.168264 274.645563 
L 198.447603 250.004287 
L 201.726942 244.138325 
L 205.006281 255.460156 
L 208.28562 218.074763 
L 211.564959 267.750791 
L 214.844298 269.738586 
L 218.123636 234.607128 
L 221.402975 241.774958 
L 224.682314 238.053899 
L 227.961653 249.509932 
L 231.240992 235.331516 
L 234.520331 248.087581 
L 237.799669 261.048582 
L 241.079008 240.85515 
L 244.358347 232.066369 
L 247.637686 231.19592 
L 250.917025 221.400051 
L 254.196364 228.953666 
L 257.475702 244.659168 
L 260.755041 239.663937 
L 264.03438 239.618794 
L 267.313719 216.907098 
L 270.593058 240.561273 
L 273.872397 224.245897 
L 277.151736 220.867444 
L 280.431074 203.333503 
L 283.710413 173.040041 
L 286.989752 188.396708 
L 290.269091 221.36442 
L 293.54843 193.818796 
L 296.827769 210.925577 
L 300.107107 190.521216 
L 303.386446 183.286233 
L 306.665785 185.320086 
L 309.945124 185.531534 
L 313.224463 178.883747 
L 316.503802 145.894754 
L 319.78314 167.333357 
L 323.062479 174.436277 
L 326.341818 162.8965 
L 329.621157 162.968554 
L 332.900496 175.576753 
L 336.179835 131.604351 
L 339.459174 128.782904 
L 342.738512 139.128608 
L 346.017851 146.638063 
L 349.29719 157.772393 
L 352.576529 129.588666 
L 355.855868 137.551443 
L 359.135207 122.733372 
L 362.414545 128.157886 
L 365.693884 108.134832 
L 368.973223 111.56192 
L 372.252562 89.049654 
L 375.531901 106.809942 
L 378.81124 105.311657 
L 382.090579 99.638393 
L 385.369917 108.062064 
L 388.649256 93.172727 
L 391.928595 98.611965 
L 395.207934 55.031677 
L 398.487273 53.568 
" style="fill:none;stroke:#ff0000;stroke-linecap:square;stroke-width:1.5;"/>
   </g>
   <g id="line2d_17">
    <path clip-path="url(#p73b5d1fc56)" d="M 73.832727 256.648889 
L 77.112066 257.843897 
L 80.391405 258.976048 
L 83.670744 260.045341 
L 86.950083 261.051776 
L 90.229421 261.995354 
L 93.50876 262.876074 
L 96.788099 263.693936 
L 100.067438 264.448941 
L 103.346777 265.141088 
L 106.626116 265.770377 
L 109.905455 266.336809 
L 113.184793 266.840383 
L 116.464132 267.2811 
L 119.743471 267.658959 
L 123.02281 267.97396 
L 126.302149 268.226104 
L 129.581488 268.41539 
L 132.860826 268.541818 
L 136.140165 268.605389 
L 139.419504 268.606102 
L 142.698843 268.543957 
L 145.978182 268.418955 
L 149.257521 268.231095 
L 152.53686 267.980378 
L 155.816198 267.666803 
L 159.095537 267.29037 
L 162.374876 266.85108 
L 165.654215 266.348932 
L 168.933554 265.783926 
L 172.212893 265.156063 
L 175.492231 264.465342 
L 178.77157 263.711764 
L 182.050909 262.895328 
L 185.330248 262.016034 
L 188.609587 261.073882 
L 191.888926 260.068873 
L 195.168264 259.001007 
L 198.447603 257.870282 
L 201.726942 256.676701 
L 205.006281 255.420261 
L 208.28562 254.100964 
L 211.564959 252.718809 
L 214.844298 251.273797 
L 218.123636 249.765926 
L 221.402975 248.195199 
L 224.682314 246.561613 
L 227.961653 244.86517 
L 231.240992 243.10587 
L 234.520331 241.283711 
L 237.799669 239.398696 
L 241.079008 237.450822 
L 244.358347 235.440091 
L 247.637686 233.366502 
L 250.917025 231.230056 
L 254.196364 229.030752 
L 257.475702 226.76859 
L 260.755041 224.443571 
L 264.03438 222.055694 
L 267.313719 219.604959 
L 270.593058 217.091367 
L 273.872397 214.514917 
L 277.151736 211.87561 
L 280.431074 209.173444 
L 283.710413 206.408422 
L 286.989752 203.580541 
L 290.269091 200.689803 
L 293.54843 197.736208 
L 296.827769 194.719754 
L 300.107107 191.640443 
L 303.386446 188.498275 
L 306.665785 185.293249 
L 309.945124 182.025365 
L 313.224463 178.694623 
L 316.503802 175.301024 
L 319.78314 171.844568 
L 323.062479 168.325253 
L 326.341818 164.743081 
L 329.621157 161.098052 
L 332.900496 157.390164 
L 336.179835 153.61942 
L 339.459174 149.785817 
L 342.738512 145.889357 
L 346.017851 141.930039 
L 349.29719 137.907864 
L 352.576529 133.822831 
L 355.855868 129.67494 
L 359.135207 125.464192 
L 362.414545 121.190586 
L 365.693884 116.854122 
L 368.973223 112.454801 
L 372.252562 107.992622 
L 375.531901 103.467586 
L 378.81124 98.879691 
L 382.090579 94.22894 
L 385.369917 89.51533 
L 388.649256 84.738863 
L 391.928595 79.899539 
L 395.207934 74.997356 
L 398.487273 70.032316 
" style="fill:none;stroke:#0000ff;stroke-linecap:square;stroke-width:1.5;"/>
   </g>
   <g id="line2d_18">
    <path clip-path="url(#p73b5d1fc56)" d="M 73.832727 284.643492 
L 77.112066 262.150945 
L 80.391405 272.616096 
L 83.670744 250.08923 
L 86.950083 295.488 
L 90.229421 249.445325 
L 93.50876 279.737989 
L 96.788099 272.55517 
L 100.067438 267.847248 
L 103.346777 252.874813 
L 106.626116 269.655869 
L 109.905455 248.019818 
L 113.184793 253.798242 
L 116.464132 271.604476 
L 119.743471 250.113025 
L 123.02281 264.897675 
L 126.302149 248.021068 
L 129.581488 273.916027 
L 132.860826 281.106521 
L 136.140165 277.539026 
L 139.419504 293.143507 
L 142.698843 281.756044 
L 145.978182 259.797369 
L 149.257521 257.767999 
L 152.53686 264.973376 
L 155.816198 287.05334 
L 159.095537 279.872584 
L 162.374876 262.766455 
L 165.654215 283.866137 
L 168.933554 250.527871 
L 172.212893 260.52192 
L 175.492231 250.260915 
L 178.77157 241.030317 
L 182.050909 255.634896 
L 185.330248 279.207087 
L 188.609587 273.265234 
L 191.888926 266.306315 
L 195.168264 282.804324 
L 198.447603 259.293772 
L 201.726942 254.621392 
L 205.006281 267.199663 
L 208.28562 231.133567 
L 211.564959 282.19175 
L 214.844298 285.624557 
L 218.123636 252.000969 
L 221.402975 260.739527 
L 224.682314 258.652053 
L 227.961653 271.804529 
L 231.240992 259.385414 
L 234.520331 273.963637 
L 237.799669 288.809655 
L 241.079008 270.564095 
L 244.358347 263.786046 
L 247.637686 264.989186 
L 250.917025 257.329763 
L 254.196364 267.082683 
L 257.475702 285.050345 
L 260.755041 282.380134 
L 264.03438 284.722869 
L 267.313719 264.461907 
L 270.593058 290.629674 
L 273.872397 276.890747 
L 277.151736 276.151603 
L 280.431074 261.319826 
L 283.710413 233.791387 
L 286.989752 251.975934 
L 290.269091 287.834384 
L 293.54843 263.242356 
L 296.827769 283.365591 
L 300.107107 266.04054 
L 303.386446 261.947726 
L 306.665785 267.186606 
L 309.945124 270.665937 
L 313.224463 267.348891 
L 316.503802 237.753498 
L 319.78314 262.648557 
L 323.062479 273.270792 
L 326.341818 265.313186 
L 329.621157 269.03027 
L 332.900496 285.346356 
L 336.179835 245.144699 
L 339.459174 246.156855 
L 342.738512 260.399019 
L 346.017851 271.867792 
L 349.29719 287.024297 
L 352.576529 262.925604 
L 355.855868 275.03627 
L 359.135207 264.428948 
L 362.414545 274.127068 
L 365.693884 258.440477 
L 368.973223 266.266887 
L 372.252562 248.2168 
L 375.531901 270.502124 
L 378.81124 273.591733 
L 382.090579 272.569221 
L 385.369917 285.706501 
L 388.649256 275.593631 
L 391.928595 285.872194 
L 395.207934 247.194088 
L 398.487273 250.695451 
" style="fill:none;stroke:#bfbf00;stroke-linecap:square;stroke-width:1.5;"/>
   </g>
   <g id="line2d_19">
    <path clip-path="url(#p73b5d1fc56)" d="M 73.832727 255.159019 
L 77.112066 256.340605 
L 80.391405 257.460968 
L 83.670744 258.52011 
L 86.950083 259.51803 
L 90.229421 260.454727 
L 93.50876 261.330203 
L 96.788099 262.144456 
L 100.067438 262.897488 
L 103.346777 263.589297 
L 106.626116 264.219884 
L 109.905455 264.789249 
L 113.184793 265.297393 
L 116.464132 265.744314 
L 119.743471 266.130013 
L 123.02281 266.45449 
L 126.302149 266.717744 
L 129.581488 266.919777 
L 132.860826 267.060588 
L 136.140165 267.140177 
L 139.419504 267.158543 
L 142.698843 267.115688 
L 145.978182 267.01161 
L 149.257521 266.846311 
L 152.53686 266.619789 
L 155.816198 266.332045 
L 159.095537 265.98308 
L 162.374876 265.572892 
L 165.654215 265.101482 
L 168.933554 264.56885 
L 172.212893 263.974996 
L 175.492231 263.31992 
L 178.77157 262.603622 
L 182.050909 261.826102 
L 185.330248 260.987359 
L 188.609587 260.087395 
L 191.888926 259.126209 
L 195.168264 258.1038 
L 198.447603 257.02017 
L 201.726942 255.875317 
L 205.006281 254.669242 
L 208.28562 253.401946 
L 211.564959 252.073427 
L 214.844298 250.683686 
L 218.123636 249.232723 
L 221.402975 247.720538 
L 224.682314 246.147131 
L 227.961653 244.512502 
L 231.240992 242.816651 
L 234.520331 241.059578 
L 237.799669 239.241282 
L 241.079008 237.361765 
L 244.358347 235.421026 
L 247.637686 233.419064 
L 250.917025 231.355881 
L 254.196364 229.231475 
L 257.475702 227.045847 
L 260.755041 224.798998 
L 264.03438 222.490926 
L 267.313719 220.121632 
L 270.593058 217.691116 
L 273.872397 215.199378 
L 277.151736 212.646418 
L 280.431074 210.032236 
L 283.710413 207.356832 
L 286.989752 204.620206 
L 290.269091 201.822357 
L 293.54843 198.963287 
L 296.827769 196.042995 
L 300.107107 193.06148 
L 303.386446 190.018744 
L 306.665785 186.914785 
L 309.945124 183.749604 
L 313.224463 180.523202 
L 316.503802 177.235577 
L 319.78314 173.88673 
L 323.062479 170.476661 
L 326.341818 167.00537 
L 329.621157 163.472857 
L 332.900496 159.879122 
L 336.179835 156.224165 
L 339.459174 152.507985 
L 342.738512 148.730584 
L 346.017851 144.891961 
L 349.29719 140.992115 
L 352.576529 137.031048 
L 355.855868 133.008758 
L 359.135207 128.925247 
L 362.414545 124.780513 
L 365.693884 120.574557 
L 368.973223 116.307379 
L 372.252562 111.97898 
L 375.531901 107.589358 
L 378.81124 103.138514 
L 382.090579 98.626448 
L 385.369917 94.053159 
L 388.649256 89.418649 
L 391.928595 84.722917 
L 395.207934 79.965963 
L 398.487273 75.147786 
" style="fill:none;stroke:#008000;stroke-linecap:square;stroke-width:1.5;"/>
   </g>
   <g id="patch_3">
    <path d="M 57.6 307.584 
L 57.6 41.472 
" style="fill:none;stroke:#000000;stroke-linecap:square;stroke-linejoin:miter;stroke-width:0.8;"/>
   </g>
   <g id="patch_4">
    <path d="M 414.72 307.584 
L 414.72 41.472 
" style="fill:none;stroke:#000000;stroke-linecap:square;stroke-linejoin:miter;stroke-width:0.8;"/>
   </g>
   <g id="patch_5">
    <path d="M 57.6 307.584 
L 414.72 307.584 
" style="fill:none;stroke:#000000;stroke-linecap:square;stroke-linejoin:miter;stroke-width:0.8;"/>
   </g>
   <g id="patch_6">
    <path d="M 57.6 41.472 
L 414.72 41.472 
" style="fill:none;stroke:#000000;stroke-linecap:square;stroke-linejoin:miter;stroke-width:0.8;"/>
   </g>
  </g>
 </g>
 <defs>
  <clipPath id="p73b5d1fc56">
   <rect height="266.112" width="357.12" x="57.6" y="41.472"/>
  </clipPath>
 </defs>
</svg>
