<?xml version="1.0" encoding="UTF-8" standalone="no"?>
<!-- Created with Inkscape (http://www.inkscape.org/) -->

<svg
   xmlns:dc="http://purl.org/dc/elements/1.1/"
   xmlns:cc="http://creativecommons.org/ns#"
   xmlns:rdf="http://www.w3.org/1999/02/22-rdf-syntax-ns#"
   xmlns:svg="http://www.w3.org/2000/svg"
   xmlns="http://www.w3.org/2000/svg"
   xmlns:sodipodi="http://sodipodi.sourceforge.net/DTD/sodipodi-0.dtd"
   xmlns:inkscape="http://www.inkscape.org/namespaces/inkscape"
   id="svg2"
   version="1.1"
   inkscape:version="0.91 r13725"
   xml:space="preserve"
   width="720"
   height="540"
   viewBox="0 0 720 540"
   sodipodi:docname="noisefilter3.svg"><metadata
     id="metadata8"><rdf:RDF><cc:Work
         rdf:about=""><dc:format>image/svg+xml</dc:format><dc:type
           rdf:resource="http://purl.org/dc/dcmitype/StillImage" /><dc:title></dc:title></cc:Work></rdf:RDF></metadata><defs
     id="defs6"><clipPath
       clipPathUnits="userSpaceOnUse"
       id="clipPath20"><path
         d="m 72,43.2 446.4,0 0,345.6 -446.4,0 0,-345.6 z"
         id="path22"
         inkscape:connector-curvature="0" /></clipPath><clipPath
       clipPathUnits="userSpaceOnUse"
       id="clipPath30"><path
         d="m 72,43.2 446.4,0 0,345.6 -446.4,0 0,-345.6 z"
         id="path32"
         inkscape:connector-curvature="0" /></clipPath><clipPath
       clipPathUnits="userSpaceOnUse"
       id="clipPath110"><path
         d="m -184,-236 1472,0 0,1165 -1472,0 0,-1165 z"
         id="path112"
         inkscape:connector-curvature="0" /></clipPath><clipPath
       clipPathUnits="userSpaceOnUse"
       id="clipPath132"><path
         d="m -184,-236 1472,0 0,1165 -1472,0 0,-1165 z"
         id="path134"
         inkscape:connector-curvature="0" /></clipPath><clipPath
       clipPathUnits="userSpaceOnUse"
       id="clipPath154"><path
         d="m -184,-236 1472,0 0,1165 -1472,0 0,-1165 z"
         id="path156"
         inkscape:connector-curvature="0" /></clipPath><clipPath
       clipPathUnits="userSpaceOnUse"
       id="clipPath176"><path
         d="m -184,-236 1472,0 0,1165 -1472,0 0,-1165 z"
         id="path178"
         inkscape:connector-curvature="0" /></clipPath></defs><sodipodi:namedview
     pagecolor="#ffffff"
     bordercolor="#666666"
     borderopacity="1"
     objecttolerance="10"
     gridtolerance="10"
     guidetolerance="10"
     inkscape:pageopacity="0"
     inkscape:pageshadow="2"
     inkscape:window-width="640"
     inkscape:window-height="480"
     id="namedview4"
     showgrid="false"
     inkscape:zoom="0.43703704"
     inkscape:cx="360"
     inkscape:cy="270"
     inkscape:window-x="88"
     inkscape:window-y="22"
     inkscape:window-maximized="0"
     inkscape:current-layer="g10" /><g
     id="g10"
     inkscape:groupmode="layer"
     inkscape:label="noisefilter3"
     transform="matrix(1.25,0,0,-1.25,0,540)"><path
       d="M 0,0 576,0 576,432 0,432 0,0 Z"
       style="fill:#ffffff;fill-opacity:1;fill-rule:nonzero;stroke:none"
       id="path12"
       inkscape:connector-curvature="0" /><path
       d="m 72,43.2 446.4,0 0,345.6 -446.4,0 0,-345.6 z"
       style="fill:#ffffff;fill-opacity:1;fill-rule:nonzero;stroke:none"
       id="path14"
       inkscape:connector-curvature="0" /><g
       id="g16"><g
         id="g18"
         clip-path="url(#clipPath20)"><path
           d="m 72,216 1.340541,60.13048 0.446846,14.84501 0.446847,10.77631 0.446847,6.14799 0.446847,1.22589 0.446847,-3.70735 0.446847,-8.36842 0.446846,-12.48968 0.893694,-34.04525 1.787388,-73.82064 0.446846,-13.07322 0.446847,-9.06082 0.446847,-4.46983 0.446847,0.43589 0.446847,5.37443 0.446847,10.06191 0.893693,31.865 2.681081,117.58787 0.446847,11.37714 0.446847,6.81441 0.446847,1.91552 0.446847,-3.0384 0.446847,-7.76309 0.446846,-11.98745 0.893694,-33.47761 1.787388,-74.82773 0.446846,-13.73597 0.446847,-9.83766 0.446847,-5.32278 0.446847,-0.45098 0.446847,4.4975 0.446847,9.2381 0.446846,13.49811 0.893694,36.67021 1.787388,82.10416 0.893693,27.59505 0.446847,7.37953 0.446847,2.511 0.446847,-2.4564 0.446847,-7.23777 0.446847,-11.559 0.893695,-33.04304 1.78739,-76.08383 0.44684,-14.46635 0.44685,-10.68688 0.44685,-6.25364 0.44684,-1.42182 0.44685,3.53051 0.44685,8.31836 0.44684,12.66616 0.8937,35.40382 1.78738,81.61918 0.8937,28.27855 0.44685,7.85828 0.44684,3.0275 0.44685,-1.94579 0.44685,-6.77658 0.44684,-11.18796 0.8937,-32.70733 1.78738,-77.51401 0.8937,-26.8323 0.44684,-7.24154 0.44685,-2.45539 0.44685,2.49493 0.44684,7.32442 0.44685,11.75501 0.8937,33.96807 2.23423,97.00787 0.44685,12.59833 0.44684,8.27308 0.44685,3.48764 0.44685,-1.48376 0.44684,-6.35632 0.44685,-10.85082 0.89369,-32.42223 2.23424,-95.05952 0.44685,-12.51393 0.44684,-8.25917 0.44685,-3.52412 0.44685,1.41852 0.44684,6.28417 0.44685,10.79262 0.89369,32.41891 2.23424,96.10741 0.44684,12.88364 0.44685,8.65156 0.44685,3.91918 0.44684,-1.04242 0.44685,-5.94894 0.44685,-10.51927 0.89369,-32.13016 2.23424,-97.30368 0.44684,-13.43381 0.44685,-9.27535 0.44685,-4.59668 0.44684,0.33273 0.44685,5.22909 0.44685,9.81043 0.89369,30.81893 2.23424,95.08018 0.44684,13.15581 0.44685,9.02387 0.44685,4.35215 0.44684,-0.59165 0.44685,-5.52426 0.44685,-10.16301 0.89369,-31.76998 2.23423,-99.33382 0.44685,-14.31562 0.44685,-10.25794 0.44685,-5.64088 0.44684,-0.73026 0.44685,4.19126 0.44685,8.8404 0.44684,12.9495 0.8937,34.92769 1.78738,75.43367 0.44685,13.44464 0.44685,9.41958 0.44684,4.81603 0.44685,-0.10216 0.44685,-5.05302 0.44684,-9.75276 0.8937,-31.283 2.68108,-116.13039 0.44685,-11.1769 0.44684,-6.62672 0.44685,-1.74058 0.44685,3.20042 0.44684,7.91201 0.44685,12.12309 0.89369,33.70851 1.78739,75.12607 0.44685,13.77655 0.44685,9.8648 0.44684,5.33661 0.44685,0.45167 0.44685,-4.50981 0.44684,-9.26323 0.44685,-13.53592 0.89369,-36.78336 1.78739,-82.47866 0.89369,-27.8566 0.44685,-7.52917 0.44685,-2.67339 0.44684,2.28111 0.44685,7.04947 0.44685,11.35755 0.89369,32.60033 1.78739,75.03843 0.44685,14.17197 0.44684,10.37953 0.44685,5.93352 0.44685,1.08911 0.44684,-3.87559 0.44685,-8.67559 0.44685,-13.03537 0.89369,-36.1774 1.78739,-83.30365 0.89369,-29.1888 0.44685,-8.33052 0.44685,-3.51125 0.44684,1.45043 0.44685,6.26952 0.44685,10.66912 0.89369,31.63414 1.78739,75.22586 0.44684,14.64329 0.44685,10.97565 0.44685,6.61817 0.44684,1.82122 0.44685,-3.13966 0.44685,-7.97946 0.44685,-12.42011 0.89369,-35.32753 2.23423,-100.56991 0.44685,-13.33811 0.44685,-9.02196 0.44684,-4.2457 0.44685,0.71652 0.44685,5.57981 0.44684,10.06503 0.8937,30.82267 2.23423,90.90016 0.44685,11.65565 0.44685,7.39263 0.44684,2.64957 0.44685,-2.3008 0.44685,-7.17389 0.44684,-11.68948 0.8937,-34.23305 2.23423,-100.75268 0.44685,-13.83061 0.44685,-9.604404 0.44684,-4.877902 0.44685,0.07778 0.44685,4.978369 0.44684,9.54276 0.8937,30.159327 2.23423,92.27631 0.44685,12.41242 0.44684,8.24921 0.44685,3.5661 0.44685,-1.36748 0.44684,-6.26765 0.44685,-10.85252 0.8937,-32.91256 2.23423,-100.359039 0.44685,-14.218133 0.44684,-10.088233 0.44685,-5.418552 0.44685,-0.476776 0.44684,4.45379 0.44685,9.090489 0.44685,13.167547 0.89369,35.205167 1.78739,75.17081 0.44685,13.22971 0.44684,9.17125 0.44685,4.55371 0.44685,-0.35709 0.44684,-5.27847 0.44685,-9.92713 0.89369,-31.40236 2.68108,-114.00029 0.44685,-10.492252 0.44685,-5.886656 0.44684,-0.966427 0.44685,3.98648 0.44685,8.688242 0.44685,12.869462 0.89369,35.046591 1.78739,76.97734 0.44684,14.08372 0.44685,10.13455 0.44685,5.58788 0.44684,0.70554 0.44685,-4.23133 0.44685,-8.93849 0.44684,-13.14485 0.8937,-35.73678 1.78739,-79.116062 0.44684,-14.759449 0.44685,-10.841763 0.44685,-6.307624 0.44684,-1.416752 0.44685,3.550639 0.44685,8.309944 0.44684,12.588508 0.8937,34.906239 1.78738,78.79735 0.44685,14.94529 0.44685,11.10966 0.44685,6.63891 0.44684,1.79055 0.44685,-3.15626 0.44685,-7.91663 0.44684,-12.21644 0.8937,-34.29235 1.78738,-78.314291 0.44685,-14.967793 0.44685,-11.166031 0.44684,-6.710717 0.44685,-1.857059 0.44685,3.116853 0.44684,7.92602 0.44685,12.294904 0.8937,34.723744 1.78738,80.50656 0.8937,27.8473 0.44684,7.67472 0.44685,2.86574 0.44685,-2.08542 0.44684,-6.8937 0.44685,-11.28227 0.89369,-32.82648 1.78739,-77.47052 0.8937,-26.670213 0.44684,-7.126117 0.44685,-2.317455 0.44685,2.655036 0.44684,7.506352 0.44685,11.958448 0.89369,34.438279 2.23424,98.54566 0.44684,12.96802 0.44685,8.66381 0.44685,3.8997 0.44684,-1.05016 0.44685,-5.90089 0.44685,-10.37334 0.89369,-31.40029 2.23424,-92.112007 0.44684,-11.858101 0.44685,-7.581912 0.44685,-2.825826 0.44684,2.137443 0.44685,7.023283 0.44685,11.551516 0.89369,33.994544 2.23424,100.37251 0.44684,13.79184 0.44685,9.57832 0.44685,4.86462 0.44684,-0.0781 0.44685,-4.96552 0.44685,-9.51663 0.89369,-30.06666 2.23423,-91.80631 0.44685,-12.27778 0.44685,-8.10129 0.44684,-3.405052 0.44685,1.541451 0.44685,6.454391 0.44685,11.05182 0.89369,33.34821 2.23423,101.65949 0.44685,14.51425 0.44685,10.39648 0.44684,5.73902 0.44685,0.80958 0.44685,-4.10853 0.44684,-8.73267 0.44685,-12.79709 0.8937,-34.42605 1.78738,-73.46016 0.44685,-12.77081 0.44685,-8.70018 0.44684,-4.07069 0.44685,0.85185 0.44685,5.78472 0.44684,10.44466 0.8937,32.47036 2.68108,117.45752 0.44685,11.10477 0.44684,6.5096 0.44685,1.59988 0.44685,-3.34247 0.44684,-8.0336 0.44685,-12.20414 0.89369,-33.68381 1.78739,-74.12459 0.44685,-13.34475 0.44684,-9.38568 0.44685,-4.82934 0.44685,0.0624 0.44684,5.0084 0.44685,9.7244 0.44685,13.93937 0.89369,37.35067 1.78739,82.43841 0.44685,15.60916 0.44684,11.69906 0.44685,7.17252 0.44685,2.28928 0.44684,-2.67045 0.44685,-7.42205 0.44685,-11.6929 0.89369,-33.0919 1.78739,-75.07828 0.44685,-13.99756 0.44684,-10.1552 0.44685,-5.678 0.44685,-0.82345 0.44684,4.12921 0.44685,8.89515 0.44685,13.20024 0.89369,36.27471 1.78739,82.3324 0.89369,28.1676 0.44685,7.73363 0.44684,2.88399 0.44685,-2.0859 0.44685,-6.89103 0.44685,-11.25588 0.89369,-32.63366 1.78739,-76.28082 0.44684,-14.71768 0.44685,-10.9967 0.44685,-6.60413 0.44684,-1.7928 0.44685,3.1604 0.44685,7.9704 0.44684,12.36039 0.8937,34.98582 1.78739,81.79547 0.89369,28.8336 0.44685,8.20783 0.44684,3.39915 0.44685,-1.57333 0.44685,-6.42465 0.44684,-10.87674 0.8937,-32.27496 2.23423,-93.14256 0.44685,-11.88971 0.44685,-7.58689 0.44684,-2.82443 0.44685,2.12343 0.44685,6.97185 0.44684,11.44168 0.8937,33.52801 2.23423,97.36891 0.44685,12.89774 0.44684,8.61751 0.44685,3.85739 0.44685,-1.10992 0.44684,-5.99977 0.44685,-10.53201 0.8937,-31.96761 2.23423,-95.3795 0.44685,-12.80728 0.44684,-8.59898 0.44685,-3.89082 0.44685,1.04607 0.44684,5.92739 0.44685,10.47208 0.89369,31.95722 2.23424,96.40463 0.44685,13.17456 0.44684,8.99034 0.44685,4.2864 0.44685,-0.66778 0.44684,-5.58834 0.44685,-10.19338 0.89369,-31.6541 2.23424,-97.55942 0.44684,-13.71847 0.44685,-9.60925 0.44685,-4.96061 0.44684,-0.0403 0.44685,4.8685 0.44685,9.48302 0.89369,30.33607 2.23424,95.31273 0.44684,13.43774 0.44685,9.35643 0.44685,4.71629 0.44684,-0.21681 0.44685,-5.1602 0.44685,-9.83058 0.89369,-31.27331 2.68108,-114.11668 0.44685,-10.58557 0.44685,-6.00164 0.44684,-1.10337 0.44685,3.82727 0.44685,8.50648 0.44684,12.66488 0.8937,34.56814 1.78738,75.74143 0.44685,13.71712 0.44685,9.7454 0.44684,5.17648 0.44685,0.27228 0.44685,-4.68608 0.44685,-9.41433 0.44684,-13.64143 0.8937,-36.79091 1.78738,-81.46291 0.44685,-15.39561 0.44685,-11.49788 0.44684,-6.98389 0.44685,-2.11337 0.44685,2.83344 0.44684,7.57196 0.44685,11.82955 0.8937,33.32483 1.78738,75.38072 0.44685,14.03916 0.44685,10.18335 0.44684,5.69282 0.44685,0.82512 0.44685,-4.14054 0.44684,-8.91933 0.44685,-13.2371 0.89369,-36.38598 1.78739,-82.70319 0.8937,-28.42728 0.44684,-7.88232 0.44685,-3.04542 0.44685,1.91159 0.44684,6.70371 0.44685,11.05542 0.89369,32.19295 1.78739,75.23942 0.44685,14.42428 0.44684,10.69033 0.44685,6.28495 0.44685,1.46104 0.44684,-3.50455 0.44685,-8.32674 0.44685,-12.7287 0.89369,-35.75766 1.78739,-83.47652 0.89369,-29.74214 0.44685,-8.6792 0.44685,-3.88204 0.44684,1.07884 0.44685,5.91847 0.44685,10.3588 0.89369,31.20355 2.23424,90.25774 0.44684,11.27824 0.44685,6.96435 0.44685,2.19106 0.44684,-2.76738 0.44685,-7.62612 0.44685,-12.10603 0.89369,-34.88603 2.23423,-100.92749 0.44685,-13.63684 0.44685,-9.36571 0.44684,-4.61474 0.44685,0.34335 0.44685,5.22396 0.44685,9.74691 0.89369,30.36947 2.23423,91.22351 0.44685,11.94965 0.44685,7.73305 0.44684,3.01685 0.44685,-1.92777 0.44685,-6.81656 0.44684,-11.36841 0.8937,-33.77037 2.23423,-101.04761 0.44685,-14.12108 0.44685,-9.942742 0.44684,-5.244689 0.44685,-0.29642 0.44685,4.618221 0.44684,9.21732 0.8937,29.68417 2.23423,92.53412 0.44685,12.69744 0.44685,8.58346 0.44684,3.93035 0.44685,-0.99418 0.44685,-5.90679 0.44684,-10.52485 0.8937,-32.42926 2.23423,-100.590707 0.44685,-14.499917 0.44684,-10.420641 0.44685,-5.782531 0.44685,-0.85146 0.44684,4.089882 0.44685,8.758216 0.44685,12.885955 0.89369,34.854713 1.78739,75.49868 0.44685,13.50542 0.44684,9.49893 0.44685,4.91448 0.44685,0.016 0.44684,-4.9145 0.44685,-9.59326 0.89369,-30.89896 2.68109,-114.440716 0.44684,-10.818214 0.44685,-6.247263 0.44685,-1.341015 0.44684,3.619377 0.44685,8.34966 0.44685,12.578798 0.89369,34.671893 1.78739,77.25262 0.44684,14.34981 0.44685,10.45529 0.44685,5.94477 0.44684,1.07804 0.44685,-3.86468 0.44685,-8.59878 0.44685,-12.85167 0.89369,-35.3539 1.78739,-79.372435 0.44684,-15.022501 0.44685,-11.160754 0.44685,-6.664284 0.44684,-1.790651 0.44685,3.180926 0.44685,7.965597 0.44684,12.289254 0.8937,34.507968 1.78739,79.02001 0.89369,26.6246 0.44685,6.99151 0.44684,2.162 0.44685,-2.78733 0.44685,-7.57147 0.44684,-11.91494 0.8937,-33.88629 1.78738,-78.518039 0.8937,-26.698328 0.44684,-7.062856 0.44685,-2.22967 0.44685,2.745123 0.44685,7.576468 0.44684,11.987557 0.8937,34.302625 1.78738,80.67665 0.8937,28.39916 0.44684,8.02264 0.44685,3.23574 0.44685,-1.71462 0.44684,-6.54348 0.44685,-10.97278 0.8937,-32.39762 2.23423,-93.03839 0.44685,-11.79885 0.44684,-7.473167 0.44685,-2.68818 0.44685,2.281883 0.44684,7.152158 0.44685,11.643513 0.89369,33.995073 2.23424,98.89894 0.44685,13.26584 0.44684,9.00667 0.44685,4.26782 0.44685,-0.67794 0.44684,-5.54599 0.44685,-10.05619 0.89369,-30.94905 2.23424,-92.440367 0.44684,-12.153087 0.44685,-7.923321 0.44685,-3.194086 0.44684,1.763452 0.44685,6.665006 0.44685,11.229497 0.89369,33.529996 2.23424,100.66279 0.44684,14.08137 0.44685,9.91569 0,0"
           style="fill:none;stroke:#0000ff;stroke-width:1;stroke-linecap:square;stroke-linejoin:round;stroke-miterlimit:10;stroke-dasharray:none;stroke-opacity:0.65"
           id="path24"
           inkscape:connector-curvature="0" /></g></g><g
       id="g26"><g
         id="g28"
         clip-path="url(#clipPath30)"><path
           d="m 72,216 1.340541,57.01764 0.446846,13.8081 0.446847,9.73999 0.446847,5.11243 0.446847,0.19122 0.446847,-4.74098 0.446847,-9.40085 0.893693,-30.38482 2.681081,-111.24249 0.446847,-10.07581 0.446847,-5.48214 0.446847,-0.57359 0.446847,4.36789 0.446847,9.05851 0.446846,13.22881 0.893694,35.73327 1.787388,78.22421 0.446846,14.36855 0.446847,10.40819 0.446847,5.84998 0.446847,0.95578 0.446847,-3.99334 0.446847,-8.71307 0.446846,-12.93234 0.893694,-35.35158 1.787388,-78.50869 0.446846,-14.64147 0.446847,-10.73701 0.446847,-6.21584 0.446847,-1.33763 0.446847,3.61741 0.446847,8.36466 0.446846,12.63147 0.893694,34.95783 1.787388,78.76638 0.446846,14.9094 0.446847,11.06218 0.446847,6.57957 0.446847,1.71902 0.446847,-3.24024 0.446847,-8.01341 0.446847,-12.32628 0.893695,-34.55216 1.78739,-78.99721 0.44684,-15.17224 0.44685,-11.38357 0.44685,-6.94105 0.44684,-2.09983 0.44685,2.86197 0.44685,7.65941 0.44684,12.0169 0.8937,34.13469 1.78738,79.2011 0.8937,27.13098 0.44685,7.30017 0.44684,2.47993 0.44685,-2.48274 0.44685,-7.3028 0.44684,-11.70341 0.8937,-33.70559 1.78738,-79.37796 0.8937,-27.6969 0.44684,-7.65679 0.44685,-2.85918 0.44685,2.10265 0.44684,6.9437 0.44685,11.38593 0.8937,33.26498 2.23423,95.45711 0.44685,12.32402 0.44684,8.0108 0.44685,3.23746 0.44685,-1.72184 0.44684,-6.58224 0.44685,-11.06457 0.89369,-32.81303 2.23424,-95.82139 0.44685,-12.62923 0.44684,-8.36209 0.44685,-3.61462 0.44685,1.34045 0.44684,6.21852 0.44685,10.73943 0.89369,32.34989 2.23424,96.15298 0.44684,12.93014 0.44685,8.71051 0.44685,3.99057 0.44684,-0.9586 0.44685,-5.85269 0.44685,-10.41063 0.89369,-31.87571 2.23424,-96.45178 0.44684,-13.22664 0.44685,-9.05596 0.44685,-4.36514 0.44684,0.57642 0.44685,5.48486 0.44685,10.07827 0.89369,31.39066 2.23424,96.71768 0.44684,13.51862 0.44685,9.39833 0.44685,4.73823 0.44684,-0.19405 0.44685,-5.11516 0.44685,-9.74248 0.89369,-30.8949 2.23423,-96.95058 0.44685,-13.80599 0.44685,-9.7375 0.44685,-5.10969 0.44684,-0.1884 0.44685,4.74372 0.44685,9.40337 0.89369,30.38859 2.68108,111.23907 0.44685,10.07334 0.44684,5.47942 0.44685,0.57078 0.44685,-4.37066 0.44684,-9.06104 0.44685,-13.23099 0.8937,-35.73604 1.78738,-78.22201 0.44685,-14.36652 0.44685,-10.40574 0.44684,-5.84728 0.44685,-0.95296 0.44685,3.99611 0.44684,8.71563 0.44685,12.93455 0.89369,35.35444 1.78739,78.50669 0.44685,14.63947 0.44685,10.7346 0.44684,6.21314 0.44685,1.33481 0.44685,-3.62018 0.44684,-8.36725 0.44685,-12.6337 0.89369,-34.96079 1.78739,-78.76457 0.44685,-14.90745 0.44684,-11.05979 0.44685,-6.57688 0.44685,-1.71622 0.44684,3.24304 0.44685,8.016 0.44685,12.32856 0.89369,34.55519 1.78739,78.99561 0.44685,15.17032 0.44684,11.38121 0.44685,6.93839 0.44685,2.09703 0.44684,-2.86478 0.44685,-7.66203 0.44685,-12.0192 0.89369,-34.13782 1.78739,-79.19968 0.89369,-27.12678 0.44685,-7.29752 0.44685,-2.47713 0.44684,2.48554 0.44685,7.30545 0.44685,11.70573 0.89369,33.7088 1.78739,79.37675 0.89369,27.69277 0.44685,7.65416 0.44684,2.85639 0.44685,-2.10546 0.44685,-6.94636 0.44685,-11.38829 0.89369,-33.26828 2.23423,-95.4543 0.44685,-12.32175 0.44685,-8.00819 0.44684,-3.23467 0.44685,1.72465 0.44685,6.58492 0.44684,11.06695 0.8937,32.81641 2.23423,95.81882 0.44685,12.627 0.44685,8.3595 0.44684,3.61184 0.44685,-1.34326 0.44685,-6.22122 0.44684,-10.74184 0.8937,-32.35335 2.23423,-96.15066 0.44685,-12.92793 0.44685,-8.70795 0.44684,-3.9878 0.44685,0.96142 0.44685,5.8554 0.44684,10.41307 0.8937,31.87925 2.23423,96.44969 0.44685,13.22447 0.44684,9.05343 0.44685,4.36238 0.44685,-0.57924 0.44684,-5.48759 0.44685,-10.08074 0.8937,-31.39428 2.23423,-96.71583 0.44685,-13.51648 0.44684,-9.39582 0.44685,-4.73548 0.44685,0.19687 0.44684,5.1179 0.44685,9.74497 0.89369,30.8986 2.23424,96.94898 0.44685,13.80389 0.44684,9.735 0.44685,5.10696 0.44685,0.18558 0.44684,-4.74647 0.44685,-9.40588 0.89369,-30.39238 2.68108,-111.23565 0.44685,-10.07087 0.44685,-5.4767 0.44684,-0.56795 0.44685,4.37342 0.44685,9.06358 0.44685,13.23316 0.89369,35.73882 1.78739,78.2198 0.44684,14.36449 0.44685,10.4033 0.44685,5.84457 0.44684,0.95013 0.44685,-3.99887 0.44685,-8.71819 0.44684,-12.93676 0.8937,-35.3573 1.78739,-78.50468 0.44684,-14.63748 0.44685,-10.73219 0.44685,-6.21044 0.44684,-1.332 0.44685,3.62297 0.44685,8.36983 0.44684,12.63594 0.8937,34.96373 1.78738,78.76277 0.44685,14.90548 0.44685,11.05741 0.44685,6.57421 0.44684,1.7134 0.44685,-3.24582 0.44685,-8.01861 0.44684,-12.33083 0.8937,-34.55823 1.78738,-78.994 0.44685,-15.16839 0.44685,-11.37886 0.44684,-6.93572 0.44685,-2.09422 0.44685,2.86757 0.44684,7.66465 0.44685,12.0215 0.8937,34.14094 1.78738,79.19828 0.8937,27.12256 0.44684,7.29488 0.44685,2.47432 0.44685,-2.48834 0.44684,-7.30808 0.44685,-11.70807 0.89369,-33.71201 1.78739,-79.37554 0.8937,-27.68862 0.44684,-7.65154 0.44685,-2.85359 0.44685,2.10826 0.44684,6.94903 0.44685,11.39064 0.89369,33.27157 2.23424,95.45149 0.44684,12.31948 0.44685,8.00559 0.44685,3.23188 0.44684,-1.72746 0.44685,-6.5876 0.44685,-11.06933 0.89369,-32.81979 2.23424,-95.81625 0.44684,-12.62476 0.44685,-8.35691 0.44685,-3.60907 0.44684,1.34608 0.44685,6.22391 0.44685,10.74426 0.89369,32.3568 2.23424,96.14833 0.44684,12.92573 0.44685,8.70539 0.44685,3.98502 0.44684,-0.96424 0.44685,-5.85811 0.44685,-10.4155 0.89369,-31.88279 2.23423,-96.44761 0.44685,-13.22229 0.44685,-9.05089 0.44684,-4.35962 0.44685,0.58206 0.44685,5.49031 0.44685,10.08321 0.89369,31.39789 2.23423,96.71399 0.44685,13.51435 0.44685,9.3933 0.44684,4.73273 0.44685,-0.19969 0.44685,-5.12064 0.44684,-9.74746 0.8937,-30.90229 2.23423,-96.94738 0.44685,-13.80179 0.44685,-9.73252 0.44684,-5.10422 0.44685,-0.18275 0.44685,4.74922 0.44684,9.4084 0.8937,30.39615 2.68108,111.23222 0.44685,10.0684 0.44684,5.47398 0.44685,0.56513 0.44685,-4.37618 0.44684,-9.06612 0.44685,-13.23533 0.89369,-35.74159 1.78739,-78.2176 0.44685,-14.36245 0.44684,-10.40086 0.44685,-5.84186 0.44685,-0.94732 0.44684,4.00164 0.44685,8.72076 0.44685,12.93896 0.89369,35.36016 1.78739,78.50268 0.44685,14.63548 0.44684,10.72977 0.44685,6.20775 0.44685,1.32918 0.44684,-3.62574 0.44685,-8.37241 0.44685,-12.63818 0.89369,-34.96669 1.78739,-78.76096 0.44685,-14.90352 0.44684,-11.05502 0.44685,-6.57153 0.44685,-1.71059 0.44684,3.24861 0.44685,8.02122 0.44685,12.33309 0.89369,34.56126 1.78739,78.99239 0.44684,15.16648 0.44685,11.37649 0.44685,6.93307 0.44684,2.09141 0.44685,-2.87036 0.44685,-7.66728 0.44685,-12.0238 0.89369,-34.14406 1.78739,-79.19687 0.89369,-27.11835 0.44685,-7.29224 0.44684,-2.47152 0.44685,2.49115 0.44685,7.31072 0.44684,11.7104 0.8937,33.71521 1.78739,79.37434 0.89369,27.68447 0.44685,7.64892 0.44684,2.8508 0.44685,-2.11108 0.44685,-6.95168 0.44684,-11.393 0.8937,-33.27487 2.23423,-95.44867 0.44685,-12.31721 0.44685,-8.00299 0.44684,-3.22909 0.44685,1.73028 0.44685,6.59027 0.44684,11.07172 0.8937,32.82316 2.23423,95.81368 0.44685,12.62252 0.44684,8.35433 0.44685,3.60629 0.44685,-1.3489 0.44684,-6.22661 0.44685,-10.74666 0.8937,-32.36027 2.23423,-96.146 0.44685,-12.92352 0.44684,-8.70282 0.44685,-3.98226 0.44685,0.96706 0.44684,5.86082 0.44685,10.41794 0.89369,31.88633 2.23424,96.44552 0.44685,13.22012 0.44684,9.04835 0.44685,4.35686 0.44685,-0.58488 0.44684,-5.49304 0.44685,-10.08567 0.89369,-31.40151 2.23424,-96.71215 0.44684,-13.5122 0.44685,-9.39079 0.44685,-4.72998 0.44684,0.20252 0.44685,5.12337 0.44685,9.74995 0.89369,30.90599 2.23424,96.94578 0.44684,13.79968 0.44685,9.73003 0.44685,5.10148 0.44684,0.17993 0.44685,-4.75197 0.44685,-9.41091 0.89369,-30.39992 2.68108,-111.2288 0.44685,-10.06593 0.44685,-5.47126 0.44684,-0.5623 0.44685,4.37893 0.44685,9.06866 0.44684,13.2375 0.8937,35.74436 1.78738,78.2154 0.44685,14.36042 0.44685,10.39842 0.44684,5.83915 0.44685,0.94449 0.44685,-4.00441 0.44685,-8.72331 0.44684,-12.94117 0.8937,-35.36302 1.78738,-78.50067 0.44685,-14.63349 0.44685,-10.72735 0.44684,-6.20506 0.44685,-1.32636 0.44685,3.62852 0.44684,8.375 0.44685,12.64041 0.8937,34.96963 1.78738,78.75916 0.44685,14.90156 0.44685,11.05263 0.44684,6.56885 0.44685,1.70778 0.44685,-3.2514 0.44684,-8.02382 0.44685,-12.33536 0.89369,-34.5643 1.78739,-78.99078 0.44685,-15.16455 0.44685,-11.37414 0.44684,-6.9304 0.44685,-2.08861 0.44685,2.87316 0.44684,7.66991 0.44685,12.02609 0.89369,34.14718 1.78739,79.19546 0.89369,27.11414 0.44685,7.28959 0.44685,2.46872 0.44684,-2.49394 0.44685,-7.31337 0.44685,-11.71273 0.89369,-33.71842 1.78739,-79.37312 0.89369,-27.68034 0.44685,-7.64629 0.44685,-2.848 0.44684,2.11389 0.44685,6.95434 0.44685,11.39536 0.89369,33.27815 2.23424,95.44586 0.44684,12.31494 0.44685,8.00039 0.44685,3.2263 0.44684,-1.73309 0.44685,-6.59295 0.44685,-11.07411 0.89369,-32.82654 2.23423,-95.8111 0.44685,-12.62028 0.44685,-8.35175 0.44684,-3.6035 0.44685,1.35171 0.44685,6.2293 0.44685,10.74908 0.89369,32.36372 2.23423,96.14367 0.44685,12.92132 0.44685,8.70026 0.44684,3.97948 0.44685,-0.96988 0.44685,-5.86352 0.44684,-10.42039 0.8937,-31.88987 2.23423,-96.44343 0.44685,-13.21794 0.44685,-9.04581 0.44684,-4.3541 0.44685,0.58771 0.44685,5.49575 0.44684,10.08814 0.8937,31.40513 2.23423,96.7103 0.44685,13.51006 0.44685,9.38827 0.44684,4.72723 0.44685,-0.20533 0.44685,-5.12611 0.44684,-9.75244 0.8937,-30.90969 2.23423,-96.94418 0.44685,-13.79757 0.44684,-9.72753 0.44685,-5.09875 0.44685,-0.17711 0.44684,4.75471 0.44685,9.41343 0.8937,30.4037 2.68108,111.22536 0.44684,10.06348 0.44685,5.46852 0.44685,0.55949 0.44684,-4.3817 0.44685,-9.07119 0.44685,-13.23967 0.89369,-35.74713 1.78739,-78.2132 0.44685,-14.35838 0.44684,-10.39598 0.44685,-5.83644 0.44685,-0.94168 0.44684,4.00719 0.44685,8.72587 0.44685,12.94337 0.89369,35.36589 1.78739,78.49865 0.44684,14.63149 0.44685,10.72494 0.44685,6.20237 0.44684,1.32354 0.44685,-3.6313 0.44685,-8.37758 0.44685,-12.64265 0.89369,-34.97258 1.78739,-78.75734 0.44684,-14.89961 0.44685,-11.05024 0.44685,-6.56617 0.44684,-1.70496 0.44685,3.25418 0.44685,8.02642 0.44684,12.33763 0.8937,34.56734 1.78739,78.98917 0.44684,15.16263 0.44685,11.37177 0.44685,6.92775 0.44684,2.08579 0.44685,-2.87596 0.44685,-7.67252 0.44684,-12.02839 0.8937,-34.15031 1.78738,-79.19405 0.8937,-27.10992 0.44684,-7.28695 0.44685,-2.46592 0.44685,2.49675 0.44685,7.31602 0.44684,11.71505 0.8937,33.72163 1.78738,79.37191 0.8937,27.67619 0.44684,7.64367 0.44685,2.8452 0.44685,-2.11669 0.44684,-6.95701 0.44685,-11.39771 0.8937,-33.28145 2.23423,-95.44304 0.44685,-12.31267 0.44684,-7.99779 0.44685,-3.22351 0.44685,1.73591 0.44684,6.59562 0.44685,11.07649 0.89369,32.82992 2.23424,95.80852 0.44685,12.61805 0.44684,8.34916 0.44685,3.60073 0.44685,-1.35453 0.44684,-6.232 0.44685,-10.75149 0.89369,-32.36718 2.23424,-96.14133 0.44684,-12.91911 0.44685,-8.6977 0.44685,-3.97671 0.44684,0.9727 0.44685,5.86623 0.44685,10.42283 0.89369,31.8934 2.23424,96.44134 0.44684,13.21577 0.44685,9.04327 0,0"
           style="fill:none;stroke:#ff0000;stroke-width:1;stroke-linecap:square;stroke-linejoin:round;stroke-miterlimit:10;stroke-dasharray:none;stroke-opacity:0.45"
           id="path34"
           inkscape:connector-curvature="0" /></g></g><g
       id="g36"><path
         d="m 72,43.2 0,4"
         style="fill:#000000;fill-opacity:1;fill-rule:nonzero;stroke:#000000;stroke-width:0.5;stroke-linecap:butt;stroke-linejoin:round;stroke-miterlimit:10;stroke-dasharray:none;stroke-opacity:1"
         id="path38"
         inkscape:connector-curvature="0" /><path
         d="m 72,388.8 0,-4"
         style="fill:#000000;fill-opacity:1;fill-rule:nonzero;stroke:#000000;stroke-width:0.5;stroke-linecap:butt;stroke-linejoin:round;stroke-miterlimit:10;stroke-dasharray:none;stroke-opacity:1"
         id="path40"
         inkscape:connector-curvature="0" /><text
         transform="matrix(1,0,0,-1,68.976562,30.075)"
         style="font-variant:normal;font-weight:normal;font-size:12px;font-family:'Bitstream Vera Sans';-inkscape-font-specification:BitstreamVeraSans-Roman;writing-mode:lr-tb;fill:#000000;fill-opacity:1;fill-rule:nonzero;stroke:none"
         id="text42"><tspan
           x="0"
           y="0"
           id="tspan44">0</tspan></text>
<path
         d="m 146.4,43.2 0,4"
         style="fill:#000000;fill-opacity:1;fill-rule:nonzero;stroke:#000000;stroke-width:0.5;stroke-linecap:butt;stroke-linejoin:round;stroke-miterlimit:10;stroke-dasharray:none;stroke-opacity:1"
         id="path46"
         inkscape:connector-curvature="0" /><path
         d="m 146.4,388.8 0,-4"
         style="fill:#000000;fill-opacity:1;fill-rule:nonzero;stroke:#000000;stroke-width:0.5;stroke-linecap:butt;stroke-linejoin:round;stroke-miterlimit:10;stroke-dasharray:none;stroke-opacity:1"
         id="path48"
         inkscape:connector-curvature="0" /><text
         transform="matrix(1,0,0,-1,143.61875,30.075)"
         style="font-variant:normal;font-weight:normal;font-size:12px;font-family:'Bitstream Vera Sans';-inkscape-font-specification:BitstreamVeraSans-Roman;writing-mode:lr-tb;fill:#000000;fill-opacity:1;fill-rule:nonzero;stroke:none"
         id="text50"><tspan
           x="0"
           y="0"
           id="tspan52">2</tspan></text>
<path
         d="m 220.8,43.2 0,4"
         style="fill:#000000;fill-opacity:1;fill-rule:nonzero;stroke:#000000;stroke-width:0.5;stroke-linecap:butt;stroke-linejoin:round;stroke-miterlimit:10;stroke-dasharray:none;stroke-opacity:1"
         id="path54"
         inkscape:connector-curvature="0" /><path
         d="m 220.8,388.8 0,-4"
         style="fill:#000000;fill-opacity:1;fill-rule:nonzero;stroke:#000000;stroke-width:0.5;stroke-linecap:butt;stroke-linejoin:round;stroke-miterlimit:10;stroke-dasharray:none;stroke-opacity:1"
         id="path56"
         inkscape:connector-curvature="0" /><text
         transform="matrix(1,0,0,-1,217.6125,30.075)"
         style="font-variant:normal;font-weight:normal;font-size:12px;font-family:'Bitstream Vera Sans';-inkscape-font-specification:BitstreamVeraSans-Roman;writing-mode:lr-tb;fill:#000000;fill-opacity:1;fill-rule:nonzero;stroke:none"
         id="text58"><tspan
           x="0"
           y="0"
           id="tspan60">4</tspan></text>
<path
         d="m 295.2,43.2 0,4"
         style="fill:#000000;fill-opacity:1;fill-rule:nonzero;stroke:#000000;stroke-width:0.5;stroke-linecap:butt;stroke-linejoin:round;stroke-miterlimit:10;stroke-dasharray:none;stroke-opacity:1"
         id="path62"
         inkscape:connector-curvature="0" /><path
         d="m 295.2,388.8 0,-4"
         style="fill:#000000;fill-opacity:1;fill-rule:nonzero;stroke:#000000;stroke-width:0.5;stroke-linecap:butt;stroke-linejoin:round;stroke-miterlimit:10;stroke-dasharray:none;stroke-opacity:1"
         id="path64"
         inkscape:connector-curvature="0" /><text
         transform="matrix(1,0,0,-1,292.18437,30.075)"
         style="font-variant:normal;font-weight:normal;font-size:12px;font-family:'Bitstream Vera Sans';-inkscape-font-specification:BitstreamVeraSans-Roman;writing-mode:lr-tb;fill:#000000;fill-opacity:1;fill-rule:nonzero;stroke:none"
         id="text66"><tspan
           x="0"
           y="0"
           id="tspan68">6</tspan></text>
<path
         d="m 369.6,43.2 0,4"
         style="fill:#000000;fill-opacity:1;fill-rule:nonzero;stroke:#000000;stroke-width:0.5;stroke-linecap:butt;stroke-linejoin:round;stroke-miterlimit:10;stroke-dasharray:none;stroke-opacity:1"
         id="path70"
         inkscape:connector-curvature="0" /><path
         d="m 369.6,388.8 0,-4"
         style="fill:#000000;fill-opacity:1;fill-rule:nonzero;stroke:#000000;stroke-width:0.5;stroke-linecap:butt;stroke-linejoin:round;stroke-miterlimit:10;stroke-dasharray:none;stroke-opacity:1"
         id="path72"
         inkscape:connector-curvature="0" /><text
         transform="matrix(1,0,0,-1,366.6,30.075)"
         style="font-variant:normal;font-weight:normal;font-size:12px;font-family:'Bitstream Vera Sans';-inkscape-font-specification:BitstreamVeraSans-Roman;writing-mode:lr-tb;fill:#000000;fill-opacity:1;fill-rule:nonzero;stroke:none"
         id="text74"><tspan
           x="0"
           y="0"
           id="tspan76">8</tspan></text>
<path
         d="m 444,43.2 0,4"
         style="fill:#000000;fill-opacity:1;fill-rule:nonzero;stroke:#000000;stroke-width:0.5;stroke-linecap:butt;stroke-linejoin:round;stroke-miterlimit:10;stroke-dasharray:none;stroke-opacity:1"
         id="path78"
         inkscape:connector-curvature="0" /><path
         d="m 444,388.8 0,-4"
         style="fill:#000000;fill-opacity:1;fill-rule:nonzero;stroke:#000000;stroke-width:0.5;stroke-linecap:butt;stroke-linejoin:round;stroke-miterlimit:10;stroke-dasharray:none;stroke-opacity:1"
         id="path80"
         inkscape:connector-curvature="0" /><text
         transform="matrix(1,0,0,-1,437.41406,30.075)"
         style="font-variant:normal;font-weight:normal;font-size:12px;font-family:'Bitstream Vera Sans';-inkscape-font-specification:BitstreamVeraSans-Roman;writing-mode:lr-tb;fill:#000000;fill-opacity:1;fill-rule:nonzero;stroke:none"
         id="text82"><tspan
           x="0 7.632"
           y="0"
           sodipodi:role="line"
           id="tspan84">10</tspan></text>
<path
         d="m 518.4,43.2 0,4"
         style="fill:#000000;fill-opacity:1;fill-rule:nonzero;stroke:#000000;stroke-width:0.5;stroke-linecap:butt;stroke-linejoin:round;stroke-miterlimit:10;stroke-dasharray:none;stroke-opacity:1"
         id="path86"
         inkscape:connector-curvature="0" /><path
         d="m 518.4,388.8 0,-4"
         style="fill:#000000;fill-opacity:1;fill-rule:nonzero;stroke:#000000;stroke-width:0.5;stroke-linecap:butt;stroke-linejoin:round;stroke-miterlimit:10;stroke-dasharray:none;stroke-opacity:1"
         id="path88"
         inkscape:connector-curvature="0" /><text
         transform="matrix(1,0,0,-1,512.01719,30.075)"
         style="font-variant:normal;font-weight:normal;font-size:12px;font-family:'Bitstream Vera Sans';-inkscape-font-specification:BitstreamVeraSans-Roman;writing-mode:lr-tb;fill:#000000;fill-opacity:1;fill-rule:nonzero;stroke:none"
         id="text90"><tspan
           x="0 7.632"
           y="0"
           sodipodi:role="line"
           id="tspan92">12</tspan></text>
<path
         d="m 72,43.2 4,0"
         style="fill:#000000;fill-opacity:1;fill-rule:nonzero;stroke:#000000;stroke-width:0.5;stroke-linecap:butt;stroke-linejoin:round;stroke-miterlimit:10;stroke-dasharray:none;stroke-opacity:1"
         id="path94"
         inkscape:connector-curvature="0" /><path
         d="m 518.4,43.2 -4,0"
         style="fill:#000000;fill-opacity:1;fill-rule:nonzero;stroke:#000000;stroke-width:0.5;stroke-linecap:butt;stroke-linejoin:round;stroke-miterlimit:10;stroke-dasharray:none;stroke-opacity:1"
         id="path96"
         inkscape:connector-curvature="0" /><g
         id="g98"
         transform="translate(40.90625,39.8875)"><text
           transform="matrix(1,0,0,-1,10.054688,0)"
           style="font-variant:normal;font-weight:normal;font-size:12px;font-family:'Bitstream Vera Sans';-inkscape-font-specification:BitstreamVeraSans-Roman;writing-mode:lr-tb;fill:#000000;fill-opacity:1;fill-rule:nonzero;stroke:none"
           id="text100"><tspan
             x="0 7.632 11.448"
             y="0"
             sodipodi:role="line"
             id="tspan102">2.0</tspan></text>
<g
           id="g104"
           transform="scale(0.012,0.012)"><g
             id="g106"><g
               id="g108"
               clip-path="url(#clipPath110)"><path
                 d="m 106,355 626,0 0,-83 -626,0 0,83"
                 style="fill:#000000;fill-opacity:1;fill-rule:nonzero;stroke:none"
                 id="path114"
                 inkscape:connector-curvature="0" /></g></g></g></g><path
         d="m 72,86.4 4,0"
         style="fill:#000000;fill-opacity:1;fill-rule:nonzero;stroke:#000000;stroke-width:0.5;stroke-linecap:butt;stroke-linejoin:round;stroke-miterlimit:10;stroke-dasharray:none;stroke-opacity:1"
         id="path116"
         inkscape:connector-curvature="0" /><path
         d="m 518.4,86.4 -4,0"
         style="fill:#000000;fill-opacity:1;fill-rule:nonzero;stroke:#000000;stroke-width:0.5;stroke-linecap:butt;stroke-linejoin:round;stroke-miterlimit:10;stroke-dasharray:none;stroke-opacity:1"
         id="path118"
         inkscape:connector-curvature="0" /><g
         id="g120"
         transform="translate(41.15625,83.0875)"><text
           transform="matrix(1,0,0,-1,10.054688,0)"
           style="font-variant:normal;font-weight:normal;font-size:12px;font-family:'Bitstream Vera Sans';-inkscape-font-specification:BitstreamVeraSans-Roman;writing-mode:lr-tb;fill:#000000;fill-opacity:1;fill-rule:nonzero;stroke:none"
           id="text122"><tspan
             x="0 7.632 11.448"
             y="0"
             sodipodi:role="line"
             id="tspan124">1.5</tspan></text>
<g
           id="g126"
           transform="scale(0.012,0.012)"><g
             id="g128"><g
               id="g130"
               clip-path="url(#clipPath132)"><path
                 d="m 106,355 626,0 0,-83 -626,0 0,83"
                 style="fill:#000000;fill-opacity:1;fill-rule:nonzero;stroke:none"
                 id="path136"
                 inkscape:connector-curvature="0" /></g></g></g></g><path
         d="m 72,129.6 4,0"
         style="fill:#000000;fill-opacity:1;fill-rule:nonzero;stroke:#000000;stroke-width:0.5;stroke-linecap:butt;stroke-linejoin:round;stroke-miterlimit:10;stroke-dasharray:none;stroke-opacity:1"
         id="path138"
         inkscape:connector-curvature="0" /><path
         d="m 518.4,129.6 -4,0"
         style="fill:#000000;fill-opacity:1;fill-rule:nonzero;stroke:#000000;stroke-width:0.5;stroke-linecap:butt;stroke-linejoin:round;stroke-miterlimit:10;stroke-dasharray:none;stroke-opacity:1"
         id="path140"
         inkscape:connector-curvature="0" /><g
         id="g142"
         transform="translate(40.90625,126.2875)"><text
           transform="matrix(1,0,0,-1,10.054688,0)"
           style="font-variant:normal;font-weight:normal;font-size:12px;font-family:'Bitstream Vera Sans';-inkscape-font-specification:BitstreamVeraSans-Roman;writing-mode:lr-tb;fill:#000000;fill-opacity:1;fill-rule:nonzero;stroke:none"
           id="text144"><tspan
             x="0 7.632 11.448"
             y="0"
             sodipodi:role="line"
             id="tspan146">1.0</tspan></text>
<g
           id="g148"
           transform="scale(0.012,0.012)"><g
             id="g150"><g
               id="g152"
               clip-path="url(#clipPath154)"><path
                 d="m 106,355 626,0 0,-83 -626,0 0,83"
                 style="fill:#000000;fill-opacity:1;fill-rule:nonzero;stroke:none"
                 id="path158"
                 inkscape:connector-curvature="0" /></g></g></g></g><path
         d="m 72,172.8 4,0"
         style="fill:#000000;fill-opacity:1;fill-rule:nonzero;stroke:#000000;stroke-width:0.5;stroke-linecap:butt;stroke-linejoin:round;stroke-miterlimit:10;stroke-dasharray:none;stroke-opacity:1"
         id="path160"
         inkscape:connector-curvature="0" /><path
         d="m 518.4,172.8 -4,0"
         style="fill:#000000;fill-opacity:1;fill-rule:nonzero;stroke:#000000;stroke-width:0.5;stroke-linecap:butt;stroke-linejoin:round;stroke-miterlimit:10;stroke-dasharray:none;stroke-opacity:1"
         id="path162"
         inkscape:connector-curvature="0" /><g
         id="g164"
         transform="translate(41.15625,169.4875)"><text
           transform="matrix(1,0,0,-1,10.054688,0)"
           style="font-variant:normal;font-weight:normal;font-size:12px;font-family:'Bitstream Vera Sans';-inkscape-font-specification:BitstreamVeraSans-Roman;writing-mode:lr-tb;fill:#000000;fill-opacity:1;fill-rule:nonzero;stroke:none"
           id="text166"><tspan
             x="0 7.632 11.448"
             y="0"
             sodipodi:role="line"
             id="tspan168">0.5</tspan></text>
<g
           id="g170"
           transform="scale(0.012,0.012)"><g
             id="g172"><g
               id="g174"
               clip-path="url(#clipPath176)"><path
                 d="m 106,355 626,0 0,-83 -626,0 0,83"
                 style="fill:#000000;fill-opacity:1;fill-rule:nonzero;stroke:none"
                 id="path180"
                 inkscape:connector-curvature="0" /></g></g></g></g><path
         d="m 72,216 4,0"
         style="fill:#000000;fill-opacity:1;fill-rule:nonzero;stroke:#000000;stroke-width:0.5;stroke-linecap:butt;stroke-linejoin:round;stroke-miterlimit:10;stroke-dasharray:none;stroke-opacity:1"
         id="path182"
         inkscape:connector-curvature="0" /><path
         d="m 518.4,216 -4,0"
         style="fill:#000000;fill-opacity:1;fill-rule:nonzero;stroke:#000000;stroke-width:0.5;stroke-linecap:butt;stroke-linejoin:round;stroke-miterlimit:10;stroke-dasharray:none;stroke-opacity:1"
         id="path184"
         inkscape:connector-curvature="0" /><text
         transform="matrix(1,0,0,-1,50.5,212.6875)"
         style="font-variant:normal;font-weight:normal;font-size:12px;font-family:'Bitstream Vera Sans';-inkscape-font-specification:BitstreamVeraSans-Roman;writing-mode:lr-tb;fill:#000000;fill-opacity:1;fill-rule:nonzero;stroke:none"
         id="text186"><tspan
           x="0 7.632 11.448"
           y="0"
           sodipodi:role="line"
           id="tspan188">0.0</tspan></text>
<path
         d="m 72,259.2 4,0"
         style="fill:#000000;fill-opacity:1;fill-rule:nonzero;stroke:#000000;stroke-width:0.5;stroke-linecap:butt;stroke-linejoin:round;stroke-miterlimit:10;stroke-dasharray:none;stroke-opacity:1"
         id="path190"
         inkscape:connector-curvature="0" /><path
         d="m 518.4,259.2 -4,0"
         style="fill:#000000;fill-opacity:1;fill-rule:nonzero;stroke:#000000;stroke-width:0.5;stroke-linecap:butt;stroke-linejoin:round;stroke-miterlimit:10;stroke-dasharray:none;stroke-opacity:1"
         id="path192"
         inkscape:connector-curvature="0" /><text
         transform="matrix(1,0,0,-1,50.75,255.8875)"
         style="font-variant:normal;font-weight:normal;font-size:12px;font-family:'Bitstream Vera Sans';-inkscape-font-specification:BitstreamVeraSans-Roman;writing-mode:lr-tb;fill:#000000;fill-opacity:1;fill-rule:nonzero;stroke:none"
         id="text194"><tspan
           x="0 7.632 11.448"
           y="0"
           sodipodi:role="line"
           id="tspan196">0.5</tspan></text>
<path
         d="m 72,302.4 4,0"
         style="fill:#000000;fill-opacity:1;fill-rule:nonzero;stroke:#000000;stroke-width:0.5;stroke-linecap:butt;stroke-linejoin:round;stroke-miterlimit:10;stroke-dasharray:none;stroke-opacity:1"
         id="path198"
         inkscape:connector-curvature="0" /><path
         d="m 518.4,302.4 -4,0"
         style="fill:#000000;fill-opacity:1;fill-rule:nonzero;stroke:#000000;stroke-width:0.5;stroke-linecap:butt;stroke-linejoin:round;stroke-miterlimit:10;stroke-dasharray:none;stroke-opacity:1"
         id="path200"
         inkscape:connector-curvature="0" /><text
         transform="matrix(1,0,0,-1,51.015625,299.0875)"
         style="font-variant:normal;font-weight:normal;font-size:12px;font-family:'Bitstream Vera Sans';-inkscape-font-specification:BitstreamVeraSans-Roman;writing-mode:lr-tb;fill:#000000;fill-opacity:1;fill-rule:nonzero;stroke:none"
         id="text202"><tspan
           x="0 7.632 11.448"
           y="0"
           sodipodi:role="line"
           id="tspan204">1.0</tspan></text>
<path
         d="m 72,345.6 4,0"
         style="fill:#000000;fill-opacity:1;fill-rule:nonzero;stroke:#000000;stroke-width:0.5;stroke-linecap:butt;stroke-linejoin:round;stroke-miterlimit:10;stroke-dasharray:none;stroke-opacity:1"
         id="path206"
         inkscape:connector-curvature="0" /><path
         d="m 518.4,345.6 -4,0"
         style="fill:#000000;fill-opacity:1;fill-rule:nonzero;stroke:#000000;stroke-width:0.5;stroke-linecap:butt;stroke-linejoin:round;stroke-miterlimit:10;stroke-dasharray:none;stroke-opacity:1"
         id="path208"
         inkscape:connector-curvature="0" /><text
         transform="matrix(1,0,0,-1,51.265625,342.2875)"
         style="font-variant:normal;font-weight:normal;font-size:12px;font-family:'Bitstream Vera Sans';-inkscape-font-specification:BitstreamVeraSans-Roman;writing-mode:lr-tb;fill:#000000;fill-opacity:1;fill-rule:nonzero;stroke:none"
         id="text210"><tspan
           x="0 7.632 11.448"
           y="0"
           sodipodi:role="line"
           id="tspan212">1.5</tspan></text>
<path
         d="m 72,388.8 4,0"
         style="fill:#000000;fill-opacity:1;fill-rule:nonzero;stroke:#000000;stroke-width:0.5;stroke-linecap:butt;stroke-linejoin:round;stroke-miterlimit:10;stroke-dasharray:none;stroke-opacity:1"
         id="path214"
         inkscape:connector-curvature="0" /><path
         d="m 518.4,388.8 -4,0"
         style="fill:#000000;fill-opacity:1;fill-rule:nonzero;stroke:#000000;stroke-width:0.5;stroke-linecap:butt;stroke-linejoin:round;stroke-miterlimit:10;stroke-dasharray:none;stroke-opacity:1"
         id="path216"
         inkscape:connector-curvature="0" /><text
         transform="matrix(1,0,0,-1,50.578125,385.4875)"
         style="font-variant:normal;font-weight:normal;font-size:12px;font-family:'Bitstream Vera Sans';-inkscape-font-specification:BitstreamVeraSans-Roman;writing-mode:lr-tb;fill:#000000;fill-opacity:1;fill-rule:nonzero;stroke:none"
         id="text218"><tspan
           x="0 7.632 11.448"
           y="0"
           sodipodi:role="line"
           id="tspan220">2.0</tspan></text>
<path
         d="m 72,388.8 446.4,0"
         style="fill:none;stroke:#000000;stroke-width:1;stroke-linecap:butt;stroke-linejoin:round;stroke-miterlimit:10;stroke-dasharray:none;stroke-opacity:1"
         id="path222"
         inkscape:connector-curvature="0" /><path
         d="m 518.4,43.2 0,345.6"
         style="fill:none;stroke:#000000;stroke-width:1;stroke-linecap:butt;stroke-linejoin:round;stroke-miterlimit:10;stroke-dasharray:none;stroke-opacity:1"
         id="path224"
         inkscape:connector-curvature="0" /><path
         d="m 72,43.2 446.4,0"
         style="fill:none;stroke:#000000;stroke-width:1;stroke-linecap:butt;stroke-linejoin:round;stroke-miterlimit:10;stroke-dasharray:none;stroke-opacity:1"
         id="path226"
         inkscape:connector-curvature="0" /><path
         d="m 72,43.2 0,345.6"
         style="fill:none;stroke:#000000;stroke-width:1;stroke-linecap:butt;stroke-linejoin:round;stroke-miterlimit:10;stroke-dasharray:none;stroke-opacity:1"
         id="path228"
         inkscape:connector-curvature="0" /></g></g></svg>