<?xml version="1.0" encoding="UTF-8" standalone="no"?>
<!-- Created with Inkscape (http://www.inkscape.org/) -->

<svg
   xmlns:dc="http://purl.org/dc/elements/1.1/"
   xmlns:cc="http://creativecommons.org/ns#"
   xmlns:rdf="http://www.w3.org/1999/02/22-rdf-syntax-ns#"
   xmlns:svg="http://www.w3.org/2000/svg"
   xmlns="http://www.w3.org/2000/svg"
   xmlns:sodipodi="http://sodipodi.sourceforge.net/DTD/sodipodi-0.dtd"
   xmlns:inkscape="http://www.inkscape.org/namespaces/inkscape"
   id="svg2"
   version="1.1"
   inkscape:version="0.91 r13725"
   xml:space="preserve"
   width="720"
   height="540"
   viewBox="0 0 720 540"
   sodipodi:docname="noisefilter2.svg"><metadata
     id="metadata8"><rdf:RDF><cc:Work
         rdf:about=""><dc:format>image/svg+xml</dc:format><dc:type
           rdf:resource="http://purl.org/dc/dcmitype/StillImage" /><dc:title></dc:title></cc:Work></rdf:RDF></metadata><defs
     id="defs6"><clipPath
       clipPathUnits="userSpaceOnUse"
       id="clipPath20"><path
         d="m 72,43.2 446.4,0 0,345.6 -446.4,0 0,-345.6 z"
         id="path22"
         inkscape:connector-curvature="0" /></clipPath><clipPath
       clipPathUnits="userSpaceOnUse"
       id="clipPath30"><path
         d="m 72,43.2 446.4,0 0,345.6 -446.4,0 0,-345.6 z"
         id="path32"
         inkscape:connector-curvature="0" /></clipPath><clipPath
       clipPathUnits="userSpaceOnUse"
       id="clipPath40"><path
         d="m 72,43.2 446.4,0 0,345.6 -446.4,0 0,-345.6 z"
         id="path42"
         inkscape:connector-curvature="0" /></clipPath><clipPath
       clipPathUnits="userSpaceOnUse"
       id="clipPath120"><path
         d="m -184,-236 1472,0 0,1165 -1472,0 0,-1165 z"
         id="path122"
         inkscape:connector-curvature="0" /></clipPath><clipPath
       clipPathUnits="userSpaceOnUse"
       id="clipPath142"><path
         d="m -184,-236 1472,0 0,1165 -1472,0 0,-1165 z"
         id="path144"
         inkscape:connector-curvature="0" /></clipPath><clipPath
       clipPathUnits="userSpaceOnUse"
       id="clipPath164"><path
         d="m -184,-236 1472,0 0,1165 -1472,0 0,-1165 z"
         id="path166"
         inkscape:connector-curvature="0" /></clipPath><clipPath
       clipPathUnits="userSpaceOnUse"
       id="clipPath186"><path
         d="m -184,-236 1472,0 0,1165 -1472,0 0,-1165 z"
         id="path188"
         inkscape:connector-curvature="0" /></clipPath></defs><sodipodi:namedview
     pagecolor="#ffffff"
     bordercolor="#666666"
     borderopacity="1"
     objecttolerance="10"
     gridtolerance="10"
     guidetolerance="10"
     inkscape:pageopacity="0"
     inkscape:pageshadow="2"
     inkscape:window-width="640"
     inkscape:window-height="480"
     id="namedview4"
     showgrid="false"
     inkscape:zoom="0.43703704"
     inkscape:cx="360"
     inkscape:cy="270"
     inkscape:window-x="67"
     inkscape:window-y="43"
     inkscape:window-maximized="0"
     inkscape:current-layer="g10" /><g
     id="g10"
     inkscape:groupmode="layer"
     inkscape:label="noisefilter2"
     transform="matrix(1.25,0,0,-1.25,0,540)"><path
       d="M 0,0 576,0 576,432 0,432 0,0 Z"
       style="fill:#ffffff;fill-opacity:1;fill-rule:nonzero;stroke:none"
       id="path12"
       inkscape:connector-curvature="0" /><path
       d="m 72,43.2 446.4,0 0,345.6 -446.4,0 0,-345.6 z"
       style="fill:#ffffff;fill-opacity:1;fill-rule:nonzero;stroke:none"
       id="path14"
       inkscape:connector-curvature="0" /><g
       id="g16"><g
         id="g18"
         clip-path="url(#clipPath20)"><path
           d="m 72,217.6011 0.446847,4.76714 1.34054,-68.70148 0.446847,109.10387 0.446847,-36.97103 0.446847,18.89674 0.446847,-100.93161 0.893693,132.89688 0.446847,10.11893 0.446847,-90.48932 0.446847,72.99875 0.446847,-101.10398 0.446847,114.42835 0.446847,-21.06884 0.446846,-63.235 0.446847,-12.24606 0.446847,168.41433 0.446847,-126.80242 0.446847,-45.97622 0.446847,58.46426 0.446846,-94.67671 0.446847,146.39028 0.446847,-100.06245 0.446847,-6.38293 0.446847,42.7601 0.446847,-0.74602 0.446847,8.06265 0.446846,-66.73228 0.446847,38.59232 0.446847,-77.87523 0.893694,115.58445 0.446847,-42.28052 0.893693,30.54644 0.446847,-38.4314 0.446847,17.29652 0.446847,76.14716 0.893694,-55.67666 0.446846,-62.87034 0.446847,12.55335 0.446847,126.446 0.446847,-59.31659 0.446847,57.55621 0.893693,-33.33256 0.446847,-56.25917 0.446847,-5.75952 0.446847,60.93965 0.446847,-18.63718 0.446847,9.32742 0.446847,-32.10916 0.446846,-16.53199 0.446847,50.79093 0.446847,-43.9202 0.446847,-11.71042 0.446847,58.38656 0.446847,-47.35644 0.446847,13.4763 0.446845,-56.07614 0.44685,86.4949 0.44685,-57.14758 0.44684,-35.93483 0.44685,78.81331 0.44685,-0.31522 0.44684,-24.32859 0.44685,111.26685 0.44685,-72.90397 0.44684,101.52073 0.44685,-85.66167 0.44685,-40.33455 0.44684,87.89258 0.44685,-65.87146 0.44685,-2.09293 0.89369,-84.81369 0.44685,19.34338 0.44684,122.10785 0.44685,-43.12087 0.44685,11.5704 0.89369,-117.85697 0.44685,90.93208 0.44685,-50.78271 0.44684,66.92416 0.44685,-6.06903 0.44685,93.04245 0.44684,-115.991 0.44685,-40.50628 0.44685,47.53104 0.44684,13.33888 0.44685,-32.60877 0.44685,94.53601 0.44684,11.32948 0.44685,-160.63794 0.44685,146.91839 0.44684,-93.67562 0.44685,55.19931 0.44685,-0.74863 0.44685,-22.07717 0.44684,10.99279 0.44685,-26.28588 0.44685,67.75105 0.44684,-75.25636 0.44685,80.99911 0.44685,-53.70771 0.44684,4.6185 0.44685,-10.42681 0.44685,35.19768 0.44684,-67.30275 0.44685,-15.23747 0.44685,2.11942 0.44684,12.71229 0.44685,-35.1926 0.44685,142.63605 0.44684,-83.02714 0.44685,-28.37143 0.44685,99.53702 0.44685,-164.50763 0.44684,96.55522 0.44685,33.52685 0.44685,-148.68344 0.44684,188.23768 0.44685,-116.03679 0.44685,58.07864 0.44684,-32.56074 0.44685,56.9805 0.44685,-2.73277 0.89369,-41.12154 0.44685,-27.45947 0.44684,25.48439 0.44685,-40.39561 0.44685,75.27468 0.44684,-69.96749 0.8937,44.84376 0.44685,-55.87755 0.44684,42.06479 0.44685,-33.85833 0.44685,91.9484 0.44684,-150.23582 0.44685,95.22046 0.44685,63.07025 0.44684,-84.58198 0.44685,41.64863 0.44685,-14.45181 0.44684,9.64842 0.44685,-5.36733 0.44685,28.56012 0.44684,-44.22701 0.44685,-19.99729 0.44685,64.61178 0.44684,-17.89974 0.44685,-6.61022 0.44685,22.98769 0.44685,-4.8221 0.44684,25.95256 0.44685,-30.41256 0.44685,5.37317 0.44684,-6.22975 0.44685,-53.06731 0.44685,-13.59478 0.44684,74.41416 0.44685,-17.45035 0.44685,21.02192 0.44684,-5.68272 0.44685,-49.19592 0.44685,-0.62101 0.44684,-43.93322 0.44685,62.11029 0.8937,-10.21196 0.44684,62.74872 0.44685,40.45366 0.44685,-129.67072 0.44684,13.862 0.44685,32.80279 0.44685,14.44062 0.44684,-10.88922 0.44685,-21.63595 0.44685,-51.82274 0.44684,3.19814 0.44685,117.76044 0.44685,-67.80867 0.44684,67.70397 0.8937,-46.19518 0.44684,-3.48552 0.44685,-8.20194 0.44685,36.53847 0.44685,8.76914 0.44684,-41.66329 0.44685,24.04596 0.44685,-16.61202 0.44684,40.68582 0.44685,-55.23193 0.44685,16.84922 0.44684,-85.56161 0.44685,44.56444 0.89369,52.80573 0.44685,-94.81944 0.44685,7.45597 0.44684,66.49837 0.44685,-35.92325 0.44685,14.95308 0.44684,-17.7227 0.44685,-36.98693 0.44685,-21.72985 0.44685,99.019 0.44684,10.4843 0.44685,19.69502 0.44685,-82.99975 0.44684,-35.3965 0.8937,60.19499 0.44684,-19.61202 0.44685,83.26581 0.44685,-69.21079 0.44684,-16.17073 0.44685,-5.85714 0.44685,20.64369 0.44684,-24.72998 0.44685,-14.48578 0.89369,97.89377 0.44685,-129.67574 0.8937,103.49074 0.44684,-92.28247 0.44685,66.83142 0.44685,25.95362 0.44684,-46.1046 0.44685,-16.93334 0.44685,49.25952 0.44684,31.70934 0.44685,-90.85682 0.44685,152.05078 0.89369,-161.50502 0.44685,147.22294 0.44684,-53.41896 0.44685,-2.08925 0.44685,-77.6426 0.44684,40.29402 0.44685,26.55437 0.44685,-50.49586 0.44685,-3.99151 0.44684,29.71797 0.44685,7.64055 0.44685,-13.28678 0.44684,-29.84918 0.44685,46.61126 0.44685,20.21892 0.44684,-17.44111 0.44685,-8.42783 0.44685,-20.32769 0.44684,3.1532 0.44685,15.96934 0.44685,-4.39864 0.44684,42.49732 0.44685,-109.38972 0.44685,24.63888 0.44684,-13.55537 0.44685,35.23454 0.44685,3.63762 0.44685,-6.44891 0.44684,15.1513 0.44685,27.5759 0.44685,14.64288 0.44684,-107.42243 0.44685,12.48508 0.44685,3.02464 0.44684,-27.28337 0.44685,71.16573 0.44685,-35.69478 0.44684,74.34446 0.44685,-64.54109 0.44685,31.53999 0.44684,75.40301 0.44685,-101.21607 0.44685,46.69241 0.89369,-109.8045 0.44685,55.91448 0.44685,37.35577 0.44684,-69.17884 0.44685,92.30803 0.44685,-31.55552 0.44684,-0.82686 0.44685,-71.78999 0.44685,77.97395 0.44684,-50.32098 0.44685,66.87205 0.44685,-105.25149 0.44684,27.64957 0.44685,83.94174 0.44685,-67.90608 0.44684,-12.4486 0.44685,29.47394 0.44685,-1.96528 0.44685,45.31185 0.44684,-22.34642 0.44685,32.0938 0.44685,45.70622 0.44684,-46.14307 0.8937,-73.62078 0.44684,-40.87283 0.44685,82.17143 0.44685,1.74595 0.44684,-18.74443 0.44685,-43.34357 0.44685,65.66417 0.44684,-93.57594 0.44685,104.83917 0.44685,-35.32863 0.44684,25.52529 0.44685,-97.23255 0.44685,97.03431 0.44685,-48.96315 0.44684,-34.77758 0.44685,29.87776 0.44685,6.91373 0.44684,3.39528 0.44685,-22.80915 0.44685,27.27481 0.44684,-26.86446 0.44685,16.07918 0.44685,-31.14398 0.44684,19.46678 0.44685,78.45767 0.44685,-92.23574 0.44684,62.01315 0.44685,-52.46514 0.44685,22.48407 0.44684,8.26028 0.44685,43.64547 0.44685,-110.58501 0.44685,10.71277 0.44684,47.43574 0.44685,-9.34016 0.44685,51.05211 0.44684,-85.93202 0.8937,37.36274 0.44684,-9.54672 0.44685,2.87957 0.44685,-58.75609 0.44684,47.01473 0.44685,3.35344 0.44685,-39.08621 0.44684,62.16184 0.44685,-74.53042 0.44685,67.59253 0.44684,10.31193 0.44685,55.22547 0.44685,-121.81237 0.44685,-44.149695 0.44684,119.390305 0.44685,-15.54388 0.44685,63.39523 0.44684,-47.74384 0.8937,-28.39955 0.44684,5.86148 0.44685,-66.4666 0.44685,-31.792883 0.44684,147.462563 0.44685,-92.14031 0.44685,21.83779 0.44684,31.84597 0.44685,20.10229 0.44685,-12.86961 0.44684,-120.991769 0.44685,138.531569 0.44685,-30.67281 0.44685,-14.53594 0.44684,91.67449 0.44685,-17.72128 0.44685,-38.4783 0.44684,18.16333 0.44685,-65.34495 0.44685,-88.125552 0.44684,65.174982 0.44685,40.53532 0.44685,-93.703249 0.44684,-2.985494 0.44685,125.525103 0.44685,-17.13962 0.44684,-61.40696 0.44685,62.79523 0.44685,2.09687 0.44685,-5.10757 0.44684,33.69445 0.44685,-78.66785 0.44685,-28.93892 0.44684,107.74558 0.44685,-127.479423 0.44685,36.027743 0.44684,104.05323 0.44685,-78.41549 0.44685,-14.41845 0.44684,91.46107 0.44685,-26.13508 0.44685,-18.84601 0.44684,-2.28075 0.44685,-37.06265 0.44685,75.5422 0.44684,-82.58343 0.44685,-7.56408 0.44685,99.34371 0.44685,-44.54359 0.44684,-1.12151 0.44685,8.42327 0.44685,-40.48448 0.44684,8.44805 0.44685,43.73562 0.44685,5.89336 0.44684,-80.84678 0.44685,66.67951 0.44685,-14.73573 0.44684,73.95757 0.44685,-164.917564 0.44685,119.002534 0.44684,-71.67246 0.44685,47.63787 0.44685,-16.95031 0.44684,47.47017 0.44685,-51.16788 0.44685,63.9229 0.44685,15.82195 0.89369,-87.61967 0.44685,27.77886 0.44684,2.73184 0.44685,-26.89034 0.44685,17.02696 0.44684,-20.81503 0.44685,81.25477 0.44685,-97.35279 0.44684,38.80799 0.44685,-69.96676 0.44685,57.48895 0.44684,17.41717 0.44685,-13.56762 0.44685,114.5577 0.44684,-106.93443 0.44685,-44.46545 0.44685,95.82572 0.44685,-92.47575 0.44684,53.42361 0.44685,5.7775 0.44685,-83.55611 0.44684,118.76341 0.44685,3.52639 0.44685,-71.29062 0.44684,43.20698 0.44685,-16.0559 0.44685,27.18001 0.44684,-19.92733 0.44685,-55.89286 0.44685,-12.06195 0.44684,-3.29843 0.44685,73.22691 0.44685,-34.53668 0.44684,-80.714254 0.44685,151.694914 0.44685,-14.37857 0.44685,91.49855 0.44684,-122.02497 0.44685,-8.16553 0.44685,-51.2081 0.44684,111.6532 0.44685,-64.24603 0.44685,83.90908 0.44684,-63.98347 0.44685,-114.90421 0.44685,116.75403 0.44684,-56.158 0.44685,-29.2588 0.44685,110.54546 0.44684,17.90167 0.44685,-103.25967 0.44685,112.59233 0.44684,-70.54937 0.8937,65.44001 0.44685,-57.78008 0.44684,44.12947 0.44685,-62.77116 0.44685,76.23713 0.44684,-91.04183 0.44685,133.92394 0.44685,-122.99435 0.44684,-12.88992 0.8937,59.54679 0.44684,-17.05084 0.44685,-28.06936 0.44685,36.3181 0.89369,-28.39651 0.44685,95.56726 0.44685,-49.9972 0.44684,-14.07726 0.44685,48.05581 0.44685,-107.82828 0.44684,64.85646 0.44685,-78.1994 0.44685,67.55186 0.44684,-4.89057 0.44685,-11.57724 0.44685,14.05525 0.44684,88.12264 0.44685,-76.50897 0.44685,-9.75914 0.44684,-99.827848 0.44685,108.222818 0.44685,73.19135 0.44684,-82.4805 0.44685,55.14149 0.8937,-82.92789 0.44684,39.94499 0.44685,-26.85433 0.44685,20.03279 0.44684,-43.39393 0.44685,110.88847 0.44685,-30.78629 0.44684,30.69272 0.44685,-30.55193 0.44685,27.63859 0.44684,-42.34596 0.44685,49.12362 0.44685,-19.39462 0.44684,35.70602 0.44685,-70.59904 0.44685,20.07838 0.44684,-82.46215 0.44685,95.02134 0.44685,10.95342 0.44685,-120.79217 0.44684,104.95568 0.44685,10.11824 0.44685,-61.22148 0.44684,10.77423 0.44685,-91.39328 0.44685,72.74221 0.44684,45.34273 0.44685,-76.90842 0.44685,95.1381 0.44684,-44.76517 0.44685,29.83759 0.44685,46.16497 0.44684,-50.21629 0.44685,77.97397 0.44685,-138.023 0.44684,75.6363 0.44685,34.38763 0.44685,18.62531 0.44685,-86.34659 0.44684,-15.06089 0.44685,25.2972 0.44685,-0.60156 0.44684,40.5919 0.44685,0.98369 0.89369,-62.94908 0.44685,-36.07882 0.44685,53.27734 0.44684,69.15777 0.44685,-38.11896 0.44685,15.83879 0.44684,-55.62992 0.44685,72.34334 0.44685,-66.86616 0.44684,70.05977 0.44685,-23.18296 0.44685,-60.45592 0.44685,86.04543 0.44684,-83.7663 0.44685,72.58117 0.44685,-40.01255 0.44684,-1.41917 0.44685,96.85927 0.44685,-142.24489 0.44684,124.63604 0.8937,-120.37036 0.44684,66.26208 0.44685,-17.45198 0.44685,-4.08557 0.44684,-27.49758 0.8937,133.14668 0.44684,-98.04466 0.44685,-6.67237 0.44685,1.21756 0.44685,-17.9301 0.89369,66.31278 0.89369,-70.07461 0.44685,-16.87314 0.44685,100.76532 0.44684,-99.47655 0.44685,31.54668 0.44685,16.89947 0.44684,2.49603 0.44685,0.45363 0.44685,17.98883 0.44684,-82.14808 0.44685,137.84398 0.44685,-65.27126 0.44685,-21.33449 0.44684,-28.64435 0.44685,61.37667 0.44685,-40.83644 0.44684,14.20378 0.44685,64.78758 0.44685,-63.29883 0.44684,12.46847 0.44685,-30.04191 0.44685,-51.73002 0.44684,100.53943 0.44685,1.90007 0.44685,-47.82092 0.44684,43.27753 0.44685,-99.22708 0.44685,19.20587 0.44684,-4.64145 0.44685,99.13668 0.44685,10.16145 0.44685,-90.31508 0.44684,44.23411 0.44685,26.8479 0.89369,-37.32239 0.44685,20.55502 0.44685,-23.73488 0.44684,52.1179 0.44685,-42.83423 0.44685,-24.75368 0.44684,13.63307 0.44685,79.22245 0.44685,-8.32005 0.44684,-45.87102 0.44685,-10.90469 0.44685,-4.48556 0.44684,3.28136 0.44685,-18.11761 0.44685,-9.91978 0.44685,73.97799 0.44684,-145.61259 0.44685,128.31172 0.44685,-66.30941 0.44684,28.51074 0.44685,49.69489 0.44685,-83.69838 0.44684,22.03234 0.44685,-19.49683 0.44685,48.59332 0.44684,-22.5207 0.44685,1.76935 0.44685,31.3578 0.44684,-18.76614 0.44685,5.58467 0.44685,-30.61797 0.44684,-14.65082 0.44685,26.33166 0.44685,-42.25369 0.44685,18.02781 0.44684,23.11293 0.44685,-58.64007 0.44685,60.92503 0.44684,97.104 0.44685,-96.55662 0.44685,-56.81183 0.44684,97.99326 0.44685,-15.12002 0.44685,41.51957 0.44684,-113.32393 0.44685,75.89298 0.44685,-36.7353 0.44684,34.66743 0.44685,-37.37423 0.44685,38.229 0.44684,16.53647 0.44685,-117.72909 0.44685,112.5812 0.44685,-100.74865 0.44684,134.81044 0.44685,-72.30563 0.44685,-36.9478 0.44684,90.81034 0.44685,-87.43997 0.44685,40.49207 0.44684,-14.89222 0.44685,16.59677 0.44685,-72.11976 0.44684,153.75271 0.44685,-125.31573 0.44685,-10.09793 0.44684,139.13286 0.44685,-223.58201 0.44685,152.92224 0.44684,15.27127 0.44685,-44.4986 0.44685,2.35435 0.44685,-67.38462 0.44684,111.09408 0.44685,57.67838 0.44685,-102.36917 0.44684,15.67406 0.44685,-67.74319 0.44685,145.21254 0.44684,-57.17931 0.44685,-11.16877 0.44685,-5.30048 0.44684,-33.43846 0.44685,60.19259 0.44685,-60.66608 0.44684,22.20695 0.44685,-12.44951 0.44685,-37.17052 0.44685,38.29927 0.44684,-36.66407 0.44685,48.97601 0.44685,-49.22688 0.44684,63.18439 0.44685,-63.28437 0.44685,111.94761 0.44684,-61.9162 0.44685,2.7465 0.44685,-57.55558 0.44684,-75.5606 0.44685,164.71909 0.44685,-20.03814 0.44684,49.80356 0.44685,-14.27464 0.44685,-87.39467 0.44684,-16.46416 0.44685,20.78729 0.44685,4.28778 0.44685,49.68477 0.44684,-45.95964 0.44685,-30.54864 0.44685,10.70572 0.44684,30.37569 0.44685,-66.75581 0.44685,135.42541 0.44684,-50.13785 0.44685,-21.39705 0.44685,-51.0005 0.44684,0.76551 0.44685,-1.45983 0.89369,85.62705 0.44685,-81.6616 0.44685,74.04472 0.44684,-25.36267 0.44685,-37.20727 0.44685,36.68457 0.44685,-59.06929 0.44684,47.35293 0.44685,67.16107 0.44685,-49.31709 0.44684,42.31059 0.44685,14.45816 0.44685,-89.83759 0.44684,28.16112 0.44685,1.13872 0.44685,4.0858 0.44684,40.95442 0.44685,-0.93684 0.44685,-68.27386 0.44684,-42.63266 0.44685,31.81995 0.44685,23.25992 0.44684,-50.81309 0.44685,67.7432 0.44685,-4.33897 0.44685,69.01842 0.44684,-95.10712 0.44685,48.36404 0.44685,-53.28084 0.44684,42.68171 0.8937,-28.24429 0.44684,-109.13812 0.44685,108.3201 0.44685,-6.17022 0.44684,-49.21728 0.44685,9.07658 0.44685,78.03343 0.44684,-4.24025 0.44685,-30.68652 0.44685,-53.40545 0.44684,-13.46045 0.44685,44.65723 0.44685,-10.97347 0.44685,93.00966 0.44684,-20.39436 0.44685,-39.05394 0.44685,-53.45889 0.44684,18.26292 0.44685,-17.75708 0.44685,44.17115 0.44684,-26.70298 0.44685,10.94749 0.44685,18.3862 0.44684,-23.72172 0.8937,47.47398 0.89369,-117.04602 0.44685,4.28828 0.44684,126.15288 0.44685,-104.38902 0.44685,61.36485 0.44685,2.4688 0.44684,112.99855 0.8937,-168.78241 0.44684,31.98244 0.44685,46.57242 0.44685,-15.11608 0.44684,-43.73459 0.44685,19.69043 0.44685,-11.70428 0.44684,45.30657 0.44685,-109.18471 0.44685,98.51488 0.44684,-64.78172 0.44685,93.17331 0.44685,-45.28258 0.44685,1.65963 0.44684,28.40899 0.44685,-29.3413 0.44685,-69.96008 0.44684,27.7059 0.44685,-4.68045 0.44685,-12.87841 0.44684,80.83474 0.44685,-88.23725 0.44685,38.8027 0.44684,8.27977 0.44685,22.64026 0.44685,67.10053 0.44684,-136.83043 0.44685,61.22241 0.44685,-6.92944 0.44684,-134.646302 0.44685,160.792022 0.44685,-33.43695 0.44685,32.75129 0.44684,-12.43269 0.44685,-57.21681 0.44685,72.98322 0.44684,4.98893 0.44685,-30.94961 0.44685,11.71138 0.44684,-37.68209 0.8937,37.08595 0.44684,-66.97989 0.44685,120.41786 0.44685,14.2396 0.89369,-79.6855 0.44685,-14.28528 0.44684,32.09325 0.44685,-22.5657 0.44685,-1.65828 0.44685,-38.15526 0.44684,65.3405 0.44685,49.05029 0.44685,-6.9192 0.44684,-47.47616 0.44685,36.92582 0.44685,-82.54017 0.44684,-23.77863 0.44685,48.2633 0.44685,-56.09314 0.44684,75.86699 0.44685,13.81203 0.44685,-37.71006 0.44684,-10.90652 0.44685,-24.5538 0.44685,6.80074 0.44684,0.0215 0.44685,-48.226505 0.8937,102.965585 0.44684,-116.536511 0.44685,148.869681 0.44685,-115.65625 0.44684,-5.7484 0.44685,120.01705 0.89369,-76.45802 0.44685,-26.41704 0.44685,33.93831 0.44684,14.3261 0.44685,-35.41016 0.44685,-18.02765 0.44684,63.61663 0.44685,-98.227767 0.44685,75.021337 0.44684,-10.4454 0.44685,52.01374 0.44685,-57.44671 0.44685,81.42019 0.44684,3.33731 0.44685,-129.58807 0.44685,108.96323 0.44684,-17.20046 0.44685,-53.9438 0.44685,82.06447 0.44684,-87.8308 0.44685,58.64799 0.44685,-16.46695 0.44684,-31.85233 0.44685,13.51877 0.44685,-101.232138 0.44684,120.933858 0.44685,-52.95121 0.44685,40.82975 0.44684,22.19286 0.44685,52.39045 0.44685,-33.68942 0.44685,58.33149 0.44684,-109.47527 0.44685,-31.18724 0.44685,58.57171 0.44684,-43.24658 0.44685,43.44262 0.89369,27.78693 0.44685,-105.63353 0.44685,110.40893 0.44684,-71.63043 0.44685,2.99629 0.44685,-49.319018 0.44684,60.139808 0.44685,31.94752 0.44685,54.04369 0.44685,-105.5928 0.44684,-15.06645 0.44685,43.58865 0.44685,114.43136 0.44684,-145.975 0.44685,75.99618 0.44685,-45.25449 0.44684,16.37343 0.44685,-31.80575 0.44685,22.18055 0.89369,-31.97003 0.44685,57.89449 0.44684,1.55533 0.44685,0.21529 0.44685,26.48641 0.44684,-101.47942 0.44685,39.37356 0.44685,-8.40379 0.44685,12.22542 0.44684,37.47755 0.44685,-26.25939 0.44685,-41.75549 0.44684,72.96273 0.8937,-48.61069 0.44684,60.2966 0.44685,44.7434 0.89369,-105.72607 0.44685,56.94417 0.44685,-49.04962 0.44684,14.1016 0.44685,-0.17524 0.44685,63.2624 0.44684,15.18313 0.44685,-66.5838 0.8937,-54.17632 0.44684,87.81169 0.44685,-54.31271 0.44685,-21.90114 0.44684,46.28459 0.44685,-112.383734 0.89369,183.091254 0.44685,-8.32431 0,0"
           style="fill:none;stroke:#0000ff;stroke-width:1;stroke-linecap:square;stroke-linejoin:round;stroke-miterlimit:10;stroke-dasharray:none;stroke-opacity:0.25"
           id="path24"
           inkscape:connector-curvature="0" /></g></g><g
       id="g26"><g
         id="g28"
         clip-path="url(#clipPath30)"><path
           d="m 72,217.6011 0.446847,0.35753 0.446847,-1.42679 0.446847,-3.18055 0.446846,-4.47634 0.446847,4.04218 0.446847,0.96618 0.446847,2.31098 0.446847,-5.43222 0.446847,-0.0357 0.893693,10.27832 0.446847,-1.85351 0.446847,3.7604 0.446847,-4.10442 0.446847,4.78554 0.446847,2.84646 0.446846,-2.10965 0.446847,-2.86988 0.446847,9.97643 0.446847,-0.28198 0.446847,-3.70905 0.446847,0.95395 0.446846,-6.21835 0.446847,5.2273 0.893694,-5.61738 0.893694,0.86836 0.446847,0.96377 0.446846,-4.11342 0.446847,-0.9105 0.446847,-6.68285 0.446847,-1.38525 0.446847,2.59109 0.446847,-0.77428 0.446846,0.39743 0.446847,1.54497 0.446847,-1.45326 0.446847,-0.047 0.446847,5.66754 0.446847,2.89348 0.446847,0.84971 0.446846,-3.92929 0.446847,-2.6931 0.446847,6.99234 0.446847,2.01917 0.446847,6.18445 0.446847,4.32803 0.446846,2.89607 0.893694,-3.39757 0.446847,2.85275 0.446847,1.24101 0.446847,1.84749 0.446847,-0.69926 0.446846,-1.88672 0.446847,2.06411 0.446847,-1.38471 0.446847,-2.15914 0.446847,2.38178 0.446847,-1.34858 0.446847,-0.23671 0.446845,-4.42467 0.44685,2.39429 0.44685,-2.07134 0.44684,-4.61111 0.8937,3.14438 0.44684,-0.43839 0.44685,7.9395 0.44685,1.87625 0.44684,9.34958 0.44685,2.22373 0.44685,-0.96813 0.44684,5.69642 0.44685,0.32882 0.44685,0.1472 0.44684,-3.48312 0.44685,-5.96363 0.44685,-4.06562 0.44684,5.3974 0.44685,1.75853 0.44685,2.49442 0.44685,-2.43397 0.44684,-6.34938 0.44685,0.94672 0.44685,-2.93299 0.44684,2.3063 0.44685,1.67815 0.44685,8.53048 0.44684,-0.80864 0.44685,-3.78596 0.44685,0.0628 0.44684,1.05852 0.44685,-1.46652 0.89369,11.88701 0.44685,-6.356 0.44685,5.13958 0.44684,-2.27155 0.8937,3.86846 0.44685,0.0367 0.44684,0.8584 0.44685,-1.17743 0.44685,3.99221 0.44684,-1.95143 0.44685,4.26986 0.44685,-0.0785 0.44684,0.27381 0.44685,-0.52873 0.44685,2.15074 0.44684,-3.05826 0.8937,-7.48658 0.44684,-2.29783 0.44685,-4.76495 0.44685,6.29014 0.44684,-0.40867 0.44685,-2.50587 0.44685,5.14735 0.44685,-7.57678 0.44684,0.23313 0.44685,2.73015 0.44685,-8.62587 0.44684,6.1389 0.44685,-3.02428 0.44685,1.55844 0.44684,-1.00049 0.8937,6.24009 0.44684,1.121 0.44685,-0.49308 0.44685,-2.51556 0.44684,-0.41556 0.44685,-3.41406 0.44685,2.48759 0.44684,-2.94654 0.44685,-0.87497 0.44685,0.70336 0.44685,-3.54022 0.44684,-0.11983 0.44685,-2.65023 0.44685,4.44467 0.44684,-7.15636 0.44685,0.5219 0.44685,5.21302 0.44684,-1.5216 0.44685,1.71616 0.44685,0.50357 0.44684,1.18943 0.44685,0.69768 0.44685,2.78736 0.44684,-0.73872 0.44685,-2.18312 0.44685,2.82651 0.44684,1.27203 0.44685,0.68087 0.8937,4.16956 0.44684,3.62595 0.44685,1.07305 0.44685,1.39557 0.44684,0.82367 0.8937,-7.21456 0.44684,1.88439 0.44685,0.43429 0.44685,1.97835 0.44684,1.40378 0.8937,-4.64964 0.44684,-5.38404 0.44685,-0.32197 0.44685,-0.64767 0.44685,-1.01515 0.44684,3.76715 0.44685,6.51863 0.44685,-3.69556 0.44684,-2.37875 0.44685,0.25986 0.44685,1.32342 0.44684,0.40748 0.44685,-1.24578 0.89369,-9.46032 0.44685,4.74236 0.44685,-0.69897 0.44684,4.43126 0.44685,2.46928 0.44685,0.44908 0.44684,0.15398 0.44685,-0.47271 0.8937,5.0912 0.44684,-0.54577 0.44685,1.2986 0.44685,-0.0447 0.44684,3.0101 0.44685,-1.35806 0.44685,0.007 0.44684,-6.41019 0.44685,-2.5871 0.44685,-0.36574 0.44684,1.5948 0.8937,-10.29062 0.44684,0.6821 0.44685,-2.0633 0.44685,-0.78707 0.44684,-2.05725 0.44685,-4.67697 0.44685,-5.95593 0.44685,1.91718 0.44684,2.55972 0.44685,3.84487 0.44685,-2.66848 0.44684,-5.12308 0.44685,-2.38409 0.44685,-0.0454 0.44684,-1.51291 0.44685,4.84549 0.44685,-0.70873 0.89369,-4.03592 0.44685,-0.4567 0.44684,-2.27719 0.44685,-3.19284 0.44685,0.9633 0.44684,4.31641 0.44685,-5.733 0.44685,-0.98251 0.44685,2.53246 0.44684,-4.57865 0.44685,0.77711 0.44685,2.66534 0.44684,-0.9924 0.44685,-2.18798 0.44685,1.67059 0.44684,3.9235 0.44685,-3.18503 0.44685,8.45766 0.44684,1.87923 0.44685,-4.43049 0.44685,6.94353 0.89369,4.49475 0.44685,-3.90066 0.44684,-0.58606 0.44685,1.44947 0.8937,-5.00874 0.44684,-0.14128 0.44685,0.44235 0.44685,-0.58734 0.44684,-2.78197 0.44685,0.92252 0.44685,2.36975 0.44684,0.88393 0.44685,0.18556 0.89369,-2.36792 0.44685,0.25884 0.44685,-0.0905 0.44684,3.10362 0.44685,-5.33338 0.44685,-3.08547 0.44684,-3.8707 0.44685,-0.93782 0.44685,-0.59465 0.44685,-1.03373 0.44684,0.18015 0.44685,2.23484 0.44685,3.16543 0.44684,-5.12865 1.34054,-12.19714 0.44685,0.62519 0.44685,-2.09881 0.44684,3.63443 0.44685,-1.47873 0.44685,0.99768 0.44684,6.57807 0.44685,-1.50648 0.44685,2.10843 0.44685,-1.80747 0.44684,-6.14948 0.44685,-1.49468 0.44685,1.4191 0.44684,-3.87574 0.44685,3.33804 0.89369,1.32595 0.44685,-4.82469 0.44685,1.38521 0.44684,-2.49275 0.44685,2.7096 0.44685,-5.38747 0.44684,-2.9097 0.44685,3.60416 0.44685,-1.75911 0.44684,-2.56082 0.44685,-0.15821 0.44685,-0.29374 0.44685,3.12668 0.44684,1.21619 0.44685,3.53201 0.44685,6.69508 0.44684,2.73222 0.44685,-0.002 0.44685,-2.99408 0.44684,-5.83498 0.8937,1.60453 0.44684,-0.62973 0.44685,-3.83327 0.44685,1.37904 0.44684,-5.74258 0.44685,2.55105 0.44685,-0.28993 0.44684,1.64621 0.44685,-5.76969 0.44685,1.94061 0.44685,-1.87718 0.44684,-4.3447 0.44685,-1.77802 0.44685,-1.12614 0.44684,-0.78703 0.44685,-2.4387 0.44685,-0.21017 0.44684,-2.20925 0.44685,-0.83762 0.44685,-3.1106 0.44684,-1.41729 0.44685,4.57333 0.44685,-2.68735 0.44684,2.16519 0.44685,-1.93209 0.44685,-0.10087 0.44684,0.52621 0.44685,3.76015 0.8937,-8.46682 0.44684,0.18042 0.44685,-0.53363 0.44685,3.33531 0.44684,-3.35975 0.44685,-1.74179 0.44685,-0.17492 0.44684,-0.87781 0.44685,-0.596 0.44685,-4.95801 0.44684,-1.06006 0.44685,-0.72904 0.44685,-3.60583 0.44684,1.32674 0.44685,-4.36254 0.44685,1.03408 0.44684,1.72993 0.44685,5.74209 0.44685,-3.82449 0.44685,-6.84888 0.44684,2.61905 0.44685,1.25684 0.44685,5.91721 0.44684,1.89264 0.44685,0.70447 0.44685,-0.43212 0.44684,0.0399 0.44685,-4.94808 0.44685,-6.96144 0.44684,4.62036 0.44685,-2.6367 0.44685,-0.8011 0.44684,1.64742 0.44685,3.03154 0.44685,1.83896 0.44684,-7.37335 0.44685,3.56952 0.44685,1.00134 0.44685,-0.16395 0.44684,6.72393 0.44685,4.89054 0.44685,1.63788 0.44684,2.87728 0.44685,-2.23938 0.44685,-8.68084 0.44684,-3.14166 0.44685,0.13412 0.89369,-13.51351 0.44685,3.30029 0.44685,1.76731 0.44684,-2.97077 0.8937,3.93351 0.44685,1.44086 0.44684,3.85989 0.44685,-2.32969 0.44685,-4.32539 0.44684,4.07994 0.44685,-5.78702 0.44685,-2.6509 0.44684,5.3519 0.44685,-0.93065 0.44685,-1.94224 0.44684,5.06301 0.44685,2.72315 0.89369,1.95697 0.44685,-1.99206 0.44685,3.82301 0.89369,-5.68295 0.44685,4.65222 1.34054,3.14628 0.44685,-1.76215 0.44684,-0.99637 0.8937,4.98216 0.44684,-3.63665 0.44685,1.63707 0.44685,0.4091 0.44684,5.92524 0.44685,-6.88796 0.44685,2.55381 0.44684,-3.01315 0.44685,0.78568 0.44685,-0.54453 0.44684,3.05658 0.44685,-1.01026 0.8937,8.61663 0.44684,0.92499 0.44685,-2.24072 0.44685,0.0108 0.44684,0.21483 0.44685,-1.81806 0.44685,-0.40468 0.44684,-1.93546 0.44685,4.30381 0.44685,-3.32043 0.44684,-0.16081 0.44685,-5.39625 0.44685,-0.67986 0.44684,0.67742 0.44685,-0.39096 0.44685,8.23019 0.44684,-0.40716 0.44685,-3.71153 0.44685,3.75377 0.44685,-3.46345 0.44684,0.80308 0.44685,1.17616 0.44685,-5.17876 0.89369,8.18952 0.44685,-1.57963 0.44684,1.77937 0.44685,0.44172 0.44685,2.4471 0.44684,0.76901 0.8937,-7.60485 0.44684,-4.0623 0.44685,1.7344 0.44685,-0.98593 0.44684,-6.96556 0.44685,4.93398 0.44685,3.48554 0.44685,10.08651 0.44684,0.17815 0.44685,-0.44762 0.44685,-4.25466 0.44684,4.43843 0.44685,-0.71291 0.44685,5.63375 0.44684,0.41245 0.44685,-8.2363 0.44685,1.13798 0.44684,-3.15922 0.44685,-5.11669 0.44685,3.55797 0.44684,4.63375 0.44685,-3.45825 0.44685,5.24553 0.44684,-0.43908 0.44685,2.32464 0.44685,4.3275 0.44685,-0.33057 0.44684,3.00394 0.44685,-1.92919 0.44685,3.93328 0.44684,-3.18986 0.44685,7.09368 0.44685,-2.66292 0.44684,-3.42995 0.44685,-1.0209 0.44685,1.36988 0.44684,-0.0117 0.44685,-2.116 0.44685,0.76655 0.44684,-0.32057 0.44685,-1.39663 0.44685,5.87566 0.44685,1.68519 0.44684,0.50301 0.44685,4.06947 0.44685,-4.32286 0.44684,0.86559 0.44685,-5.06429 0.44685,0.38193 0.44684,-0.0135 0.44685,-0.88079 0.44685,0.23941 0.44684,6.83065 0.44685,0.58018 0.44685,-0.19526 0.44684,-7.66772 0.44685,1.02408 0.44685,6.43663 0.44684,-0.23216 0.44685,3.92086 0.44685,0.85538 0.44685,-2.65694 0.44684,0.5382 0.44685,-1.51624 0.44685,0.0999 0.44684,-3.1621 0.44685,5.39169 0.44685,2.67834 0.44684,4.77942 0.44685,2.12957 0.44685,4.04274 0.44684,0.56359 0.44685,4.2056 0.44685,2.43557 0.44684,4.93087 0.44685,-0.73389 0.44685,0.82704 0.44684,-5.41965 0.44685,2.11343 0.44685,2.77642 0.44685,-6.49122 0.44684,1.86729 0.44685,2.48612 0.44685,-2.29195 0.44684,-1.31199 0.44685,-8.06809 0.44685,-2.00731 0.44684,1.54394 L 320,208.14 l 0.44685,3.12087 0.44684,-0.47058 0.44685,1.80253 0.44685,5.12971 0.44684,0.97876 0.44685,6.7534 0.44685,-4.10482 0.44684,1.87575 0.8937,9.70163 0.44685,-1.49257 0.44684,-2.51019 0.8937,-0.86255 0.89369,5.15448 0.44685,0.11601 0.44684,-2.40337 0.44685,-4.92902 0.44685,-0.56355 0.44684,4.66556 0.44685,1.45671 0.44685,2.53537 0.44684,-1.82703 0.44685,3.73575 0.44685,-1.55939 0.44684,3.81205 0.44685,1.78741 0.44685,-2.88083 0.44685,3.78864 0.44684,-2.77798 0.44685,2.87395 0.89369,-0.76581 0.44685,6.87291 0.44685,-4.31093 0.44684,5.3601 0.44685,0.72369 0.44685,-4.12397 0.44684,1.15499 0.44685,-0.24053 0.44685,-0.52891 0.44684,-2.55156 0.44685,2.40642 0.44685,7.44533 0.44684,-0.46643 0.8937,-1.70253 0.44685,-2.05762 0.44684,0.37913 0.44685,3.04172 0.44685,0.22169 0.44684,-2.45863 0.44685,-3.53971 0.44685,4.28316 0.44684,-3.49882 0.44685,-0.8704 0.89369,1.0772 0.44685,0.60277 0.44685,1.90673 0.44684,-4.39738 0.44685,6.27072 0.44685,0.90506 0.44685,-0.76289 0.44684,-2.85401 0.44685,1.9633 0.44685,-1.24669 0.44684,-0.0879 0.44685,4.77776 0.44685,-0.32798 0.44684,0.63175 0.44685,-1.66878 0.44685,-5.42337 0.89369,5.0009 0.44685,-1.29528 0.44684,2.04767 0.44685,-5.54794 0.89369,-7.45405 0.8937,8.3751 0.44685,-2.68486 0.44684,0.83406 0.44685,2.78511 0.44685,1.16613 0.44684,-0.31042 0.44685,1.25449 0.44685,-0.61971 0.44684,3.3356 0.44685,-0.12713 0.44685,-1.97412 0.44684,-0.80358 0.8937,9.38286 0.44684,0.43032 0.44685,-0.4198 0.44685,-0.72473 0.44684,-0.42428 0.44685,-1.75127 0.44685,-2.36392 0.44685,3.36173 0.44684,-7.81134 0.44685,2.39789 0.44685,-2.75517 0.44684,-0.41022 0.44685,3.34767 0.44685,-3.18079 0.44684,-1.28981 0.44685,-2.65533 0.44685,1.18832 0.89369,-1.00278 0.44685,1.96989 0.44684,0.41468 0.44685,0.80243 0.44685,-1.5541 0.44684,-2.53635 0.44685,-0.37125 0.44685,-3.51243 0.44685,-1.89692 0.44684,-0.0212 0.44685,-4.4176 0.44685,0.4831 0.44684,7.72967 0.44685,-0.0918 0.44685,-4.3458 0.44684,3.32962 0.44685,1.94591 0.44685,4.91392 0.44684,-3.95391 0.44685,2.03461 0.44685,-0.87314 0.44684,1.7924 0.44685,-1.14509 0.44685,1.80797 0.44684,2.9126 0.44685,-6.13553 0.44685,2.76823 0.44685,-4.99553 0.44684,5.48991 0.44685,-0.34476 0.44685,-3.08998 0.44684,3.95254 0.44685,-2.90189 0.44685,0.35265 0.44684,-0.79072 0.44685,0.51335 0.44685,-4.93413 0.44684,6.96737 0.8937,-6.44351 0.44684,7.20702 0.44685,-10.10215 0.44685,2.12468 0.44684,3.11068 0.44685,-0.46003 0.44685,-0.24894 0.44685,-5.28412 0.44684,3.44425 0.44685,7.5118 0.44685,-0.72927 0.44684,0.50098 0.44685,-4.61733 0.44685,6.61991 0.44684,1.83497 0.44685,0.85969 0.44685,0.39767 0.44684,-2.14003 0.44685,2.53491 0.44685,-2.20516 0.44684,-0.37426 0.44685,-1.2799 0.44685,-3.97169 0.44685,-0.80137 0.44684,-3.49108 0.44685,0.44396 0.44685,-3.28136 0.44684,1.70358 0.44685,-3.17053 0.44685,5.46334 0.44684,0.40988 0.44685,0.58512 0.44685,-3.77544 0.44684,-9.15932 0.44685,3.88157 0.44685,2.08758 0.44684,5.66628 0.44685,4.17071 0.44685,-2.69669 0.44684,-3.72925 0.8937,-3.31765 0.44685,2.40625 0.44684,-1.22118 0.44685,-3.42075 0.44685,-2.36126 0.44684,0.094 0.44685,-4.91973 0.44685,5.60616 0.44684,1.42536 0.44685,-0.28633 1.34054,-11.3714 0.44685,-0.38309 0.44684,3.16165 0.44685,-3.20008 0.44685,2.59327 0.44684,0.49657 0.44685,-2.33121 0.44685,0.59497 0.44685,-3.87984 0.44684,-0.0374 0.44685,5.00249 0.44685,0.92853 0.89369,8.84631 0.44685,-2.28475 0.89369,0.0829 0.44685,0.38431 0.89369,6.52685 0.44685,-2.25324 0.44684,-5.2817 0.44685,-2.49908 0.44685,-0.56715 0.44684,-4.3356 0.44685,1.07031 0.44685,0.66462 0.44685,5.79115 0.44684,-1.77622 0.44685,1.9843 0.44685,-2.16058 0.44684,1.20258 0.44685,0.16625 0.44685,-1.0184 0.44684,-9.12737 0.44685,-0.31882 0.44685,-0.75767 0.89369,-7.77413 0.89369,4.92601 0.44685,-0.26479 0.89369,-9.19144 0.44685,-1.22122 0.44685,-1.95264 0.44685,5.16953 0.44684,3.25224 0.44685,0.0793 0.44685,-3.93608 0.44684,-2.27116 0.44685,-3.43261 0.44685,0.13768 0.44684,-1.87537 0.44685,-0.91366 0.44685,0.53383 0.44684,-1.28534 0.44685,0.43958 0.44685,2.33864 0.44684,-2.07386 0.8937,-12.11323 0.44684,4.23191 0.44685,-3.91465 0.8937,2.07417 0.44684,9.4858 0.44685,1.97667 0.44685,-4.03257 0.44684,-1.33144 0.44685,2.26134 0.44685,0.95804 0.44684,-2.39391 0.44685,-0.73758 0.44685,-1.56009 0.44684,1.95492 0.44685,-6.38056 0.44685,1.4866 0.44684,-3.48352 0.44685,3.76573 0.44685,0.0871 0.44685,0.20505 0.44684,2.32035 0.44685,-0.0543 0.44685,-5.29722 0.89369,-5.78334 0.44685,-3.70514 0.44684,2.63535 0.44685,-4.18009 0.44685,-0.95639 0.44684,-0.26367 0.44685,1.45412 0.44685,6.3776 0.44684,-4.363 0.44685,0.55591 0.44685,-0.006 0.44684,-10.10356 0.44685,2.71362 0.44685,0.002 0.44685,2.45849 0.44684,1.34165 0.44685,-3.05023 0.89369,5.47981 0.44685,0.29424 0.44685,1.15053 0.44684,-1.76192 0.44685,-0.0888 0.44685,1.15833 0.44684,-3.95204 0.8937,11.41621 0.44684,2.53001 0.44685,-0.57871 0.44685,-1.60669 0.44684,0.9208 0.8937,-1.74269 0.44685,-3.696 0.44684,1.48173 0.8937,9.20112 0.44684,0.27964 0.44685,3.02811 0.44685,-3.38952 0.44684,-4.9187 0.44685,-0.93004 0.44685,-5.06729 0.44684,1.0028 0.44685,1.96348 0.44685,-1.01203 0.44684,-1.75412 0.8937,-6.15833 0.44684,-2.49055 0.44685,-5.92075 0.44685,-1.38479 0.44685,2.34958 0.44684,-6.56687 0.44685,5.09087 0.89369,-8.06407 0.44685,5.20979 0.44685,1.71178 0.44684,-1.04368 0.44685,-2.94668 0.44685,-0.18031 0.44684,0.90768 0.44685,-1.81616 0.44685,-3.03203 0.44684,1.96663 0.44685,-5.54796 0.44685,0.49474 0.44684,-0.32577 0.44685,3.5997 0.44685,-0.97879 0.89369,10.26249 0.44685,-5.03736 0.44685,3.51269 0.44684,1.9592 0.44685,-2.23352 0.44685,4.08883 0.44684,-2.80515 0.44685,1.80384 0.44685,0.43353 0.44684,-1.98791 0.44685,-0.82491 0.44685,-8.35545 0.44684,1.34125 0.44685,-2.73069 0.44685,0.53635 0.44684,2.16058 0.44685,5.92783 0.44685,2.95653 0.44685,7.10965 0.44684,-1.63422 0.44685,-3.85069 0.44685,0.83099 0.44684,-2.47483 0.44685,0.96898 0.44685,2.04966 0.44684,2.8266 0.44685,-5.30791 0.44685,3.37085 0.89369,-4.11469 0.44685,-5.41985 0.44684,-0.50287 0.44685,1.93091 0.44685,5.83937 0.44685,-2.51805 0.44684,-3.45918 0.44685,0.0694 0.44685,8.64656 0.44684,-2.95006 0.44685,2.97091 0.44685,-0.646 0.44684,0.63046 0.44685,-1.80225 0.44685,-0.004 0.44684,-1.33828 0.44685,-2.30066 1.34054,6.39693 0.44685,3.85349 0.44684,-4.04649 0.44685,-0.78998 0.44685,-1.36102 0.44685,-0.34203 0.44684,2.49443 0.44685,0.3379 0.44685,-2.8191 0.44684,2.86453 0.44685,1.02391 0.44685,-1.0729 0.44684,3.52981 0.44685,6.62082 0.44685,1.97595 0.44684,-1.95339 0.44685,2.46393 0.44685,-1.39958 0.89369,-0.46936 0.89369,9.85849 0.44685,-0.0647 0.44685,-2.14376 0.44685,-3.96229 0.44684,2.92077 0.44685,-1.37175 0.44685,-2.91145 0.44684,0.77825 0.44685,-7.70889 0.44685,0.57113 0.89369,12.00036 0,0"
           style="fill:none;stroke:#008000;stroke-width:1;stroke-linecap:square;stroke-linejoin:round;stroke-miterlimit:10;stroke-dasharray:none;stroke-opacity:1"
           id="path34"
           inkscape:connector-curvature="0" /></g></g><g
       id="g36"><g
         id="g38"
         clip-path="url(#clipPath40)"><path
           d="m 72,216 10.277477,11.78388 5.809009,6.3204 4.915316,5.00979 4.021621,3.80293 4.021627,3.48864 3.57477,2.80415 3.12793,2.20308 3.12793,1.95285 3.12792,1.68882 3.12793,1.41287 2.68108,0.98376 2.68108,0.76855 2.68108,0.54933 2.68109,0.32727 2.68108,0.10351 2.68108,-0.12079 2.68108,-0.34446 2.68108,-0.56634 2.68108,-0.78529 2.68108,-1.00016 2.68108,-1.20982 3.12793,-1.66803 3.12793,-1.93304 3.12793,-2.18439 3.57477,-2.78434 3.57478,-3.06673 4.02162,-3.75228 4.46847,-4.49288 4.91531,-5.26067 6.25586,-7.03662 20.55495,-23.41569 4.91532,-5.12112 4.46847,-4.33188 4.02162,-3.58155 3.57477,-2.89608 3.57478,-2.59755 3.12793,-2.00906 3.12792,-1.74791 3.12793,-1.4744 2.68108,-1.03814 2.68108,-0.82413 2.68108,-0.60582 2.68109,-0.38439 2.68108,-0.16095 2.68108,0.0633 2.68108,0.28727 2.68108,0.50972 2.68108,0.72952 2.68108,0.94554 2.68108,1.15665 3.12793,1.60818 3.12793,1.87593 3.12793,2.13044 3.57477,2.72704 3.57478,3.01457 4.02162,3.70036 4.46847,4.44429 4.91531,5.21905 6.25586,7.00269 21.89549,24.90114 4.91532,5.07621 4.46847,4.28114 4.02162,3.5284 3.57477,2.84343 3.57478,2.5403 3.12793,1.95561 3.12792,1.69173 3.12793,1.41588 2.68108,0.98644 2.68108,0.77127 2.68109,0.5521 2.68108,0.33006 2.68108,0.10632 2.68108,-0.11798 2.68108,-0.34166 2.68108,-0.56358 2.68108,-0.78257 2.68108,-0.99749 2.68108,-1.20724 3.12793,-1.66512 3.12793,-1.93026 3.12793,-2.18177 3.57477,-2.78156 3.57478,-3.0642 4.02162,-3.74977 4.46847,-4.49055 4.91531,-5.25867 6.25586,-7.03502 20.55495,-23.41809 4.91532,-5.12338 4.46847,-4.33447 4.02162,-3.58424 3.57477,-2.89876 3.57478,-2.60048 3.12793,-2.01179 3.12792,-1.75078 3.12793,-1.4774 2.68108,-1.04079 2.68108,-0.82683 2.68109,-0.60859 2.68108,-0.38717 2.68108,-0.16376 2.68108,0.0605 2.68108,0.28447 2.68108,0.50694 2.68108,0.72679 2.68108,0.94287 2.68108,1.15404 3.12793,1.60523 3.12793,1.87313 3.12793,2.12778 3.57477,2.72421 3.57478,3.012 4.02162,3.69779 1.34054,1.29834 0,0"
           style="fill:none;stroke:#ff0000;stroke-width:1;stroke-linecap:square;stroke-linejoin:round;stroke-miterlimit:10;stroke-dasharray:none;stroke-opacity:1"
           id="path44"
           inkscape:connector-curvature="0" /></g></g><g
       id="g46"><path
         d="m 72,43.2 0,4"
         style="fill:#000000;fill-opacity:1;fill-rule:nonzero;stroke:#000000;stroke-width:0.5;stroke-linecap:butt;stroke-linejoin:round;stroke-miterlimit:10;stroke-dasharray:none;stroke-opacity:1"
         id="path48"
         inkscape:connector-curvature="0" /><path
         d="m 72,388.8 0,-4"
         style="fill:#000000;fill-opacity:1;fill-rule:nonzero;stroke:#000000;stroke-width:0.5;stroke-linecap:butt;stroke-linejoin:round;stroke-miterlimit:10;stroke-dasharray:none;stroke-opacity:1"
         id="path50"
         inkscape:connector-curvature="0" /><text
         transform="matrix(1,0,0,-1,68.976562,30.075)"
         style="font-variant:normal;font-weight:normal;font-size:12px;font-family:'Bitstream Vera Sans';-inkscape-font-specification:BitstreamVeraSans-Roman;writing-mode:lr-tb;fill:#000000;fill-opacity:1;fill-rule:nonzero;stroke:none"
         id="text52"><tspan
           x="0"
           y="0"
           id="tspan54">0</tspan></text>
<path
         d="m 146.4,43.2 0,4"
         style="fill:#000000;fill-opacity:1;fill-rule:nonzero;stroke:#000000;stroke-width:0.5;stroke-linecap:butt;stroke-linejoin:round;stroke-miterlimit:10;stroke-dasharray:none;stroke-opacity:1"
         id="path56"
         inkscape:connector-curvature="0" /><path
         d="m 146.4,388.8 0,-4"
         style="fill:#000000;fill-opacity:1;fill-rule:nonzero;stroke:#000000;stroke-width:0.5;stroke-linecap:butt;stroke-linejoin:round;stroke-miterlimit:10;stroke-dasharray:none;stroke-opacity:1"
         id="path58"
         inkscape:connector-curvature="0" /><text
         transform="matrix(1,0,0,-1,143.61875,30.075)"
         style="font-variant:normal;font-weight:normal;font-size:12px;font-family:'Bitstream Vera Sans';-inkscape-font-specification:BitstreamVeraSans-Roman;writing-mode:lr-tb;fill:#000000;fill-opacity:1;fill-rule:nonzero;stroke:none"
         id="text60"><tspan
           x="0"
           y="0"
           id="tspan62">2</tspan></text>
<path
         d="m 220.8,43.2 0,4"
         style="fill:#000000;fill-opacity:1;fill-rule:nonzero;stroke:#000000;stroke-width:0.5;stroke-linecap:butt;stroke-linejoin:round;stroke-miterlimit:10;stroke-dasharray:none;stroke-opacity:1"
         id="path64"
         inkscape:connector-curvature="0" /><path
         d="m 220.8,388.8 0,-4"
         style="fill:#000000;fill-opacity:1;fill-rule:nonzero;stroke:#000000;stroke-width:0.5;stroke-linecap:butt;stroke-linejoin:round;stroke-miterlimit:10;stroke-dasharray:none;stroke-opacity:1"
         id="path66"
         inkscape:connector-curvature="0" /><text
         transform="matrix(1,0,0,-1,217.6125,30.075)"
         style="font-variant:normal;font-weight:normal;font-size:12px;font-family:'Bitstream Vera Sans';-inkscape-font-specification:BitstreamVeraSans-Roman;writing-mode:lr-tb;fill:#000000;fill-opacity:1;fill-rule:nonzero;stroke:none"
         id="text68"><tspan
           x="0"
           y="0"
           id="tspan70">4</tspan></text>
<path
         d="m 295.2,43.2 0,4"
         style="fill:#000000;fill-opacity:1;fill-rule:nonzero;stroke:#000000;stroke-width:0.5;stroke-linecap:butt;stroke-linejoin:round;stroke-miterlimit:10;stroke-dasharray:none;stroke-opacity:1"
         id="path72"
         inkscape:connector-curvature="0" /><path
         d="m 295.2,388.8 0,-4"
         style="fill:#000000;fill-opacity:1;fill-rule:nonzero;stroke:#000000;stroke-width:0.5;stroke-linecap:butt;stroke-linejoin:round;stroke-miterlimit:10;stroke-dasharray:none;stroke-opacity:1"
         id="path74"
         inkscape:connector-curvature="0" /><text
         transform="matrix(1,0,0,-1,292.18437,30.075)"
         style="font-variant:normal;font-weight:normal;font-size:12px;font-family:'Bitstream Vera Sans';-inkscape-font-specification:BitstreamVeraSans-Roman;writing-mode:lr-tb;fill:#000000;fill-opacity:1;fill-rule:nonzero;stroke:none"
         id="text76"><tspan
           x="0"
           y="0"
           id="tspan78">6</tspan></text>
<path
         d="m 369.6,43.2 0,4"
         style="fill:#000000;fill-opacity:1;fill-rule:nonzero;stroke:#000000;stroke-width:0.5;stroke-linecap:butt;stroke-linejoin:round;stroke-miterlimit:10;stroke-dasharray:none;stroke-opacity:1"
         id="path80"
         inkscape:connector-curvature="0" /><path
         d="m 369.6,388.8 0,-4"
         style="fill:#000000;fill-opacity:1;fill-rule:nonzero;stroke:#000000;stroke-width:0.5;stroke-linecap:butt;stroke-linejoin:round;stroke-miterlimit:10;stroke-dasharray:none;stroke-opacity:1"
         id="path82"
         inkscape:connector-curvature="0" /><text
         transform="matrix(1,0,0,-1,366.6,30.075)"
         style="font-variant:normal;font-weight:normal;font-size:12px;font-family:'Bitstream Vera Sans';-inkscape-font-specification:BitstreamVeraSans-Roman;writing-mode:lr-tb;fill:#000000;fill-opacity:1;fill-rule:nonzero;stroke:none"
         id="text84"><tspan
           x="0"
           y="0"
           id="tspan86">8</tspan></text>
<path
         d="m 444,43.2 0,4"
         style="fill:#000000;fill-opacity:1;fill-rule:nonzero;stroke:#000000;stroke-width:0.5;stroke-linecap:butt;stroke-linejoin:round;stroke-miterlimit:10;stroke-dasharray:none;stroke-opacity:1"
         id="path88"
         inkscape:connector-curvature="0" /><path
         d="m 444,388.8 0,-4"
         style="fill:#000000;fill-opacity:1;fill-rule:nonzero;stroke:#000000;stroke-width:0.5;stroke-linecap:butt;stroke-linejoin:round;stroke-miterlimit:10;stroke-dasharray:none;stroke-opacity:1"
         id="path90"
         inkscape:connector-curvature="0" /><text
         transform="matrix(1,0,0,-1,437.41406,30.075)"
         style="font-variant:normal;font-weight:normal;font-size:12px;font-family:'Bitstream Vera Sans';-inkscape-font-specification:BitstreamVeraSans-Roman;writing-mode:lr-tb;fill:#000000;fill-opacity:1;fill-rule:nonzero;stroke:none"
         id="text92"><tspan
           x="0 7.632"
           y="0"
           sodipodi:role="line"
           id="tspan94">10</tspan></text>
<path
         d="m 518.4,43.2 0,4"
         style="fill:#000000;fill-opacity:1;fill-rule:nonzero;stroke:#000000;stroke-width:0.5;stroke-linecap:butt;stroke-linejoin:round;stroke-miterlimit:10;stroke-dasharray:none;stroke-opacity:1"
         id="path96"
         inkscape:connector-curvature="0" /><path
         d="m 518.4,388.8 0,-4"
         style="fill:#000000;fill-opacity:1;fill-rule:nonzero;stroke:#000000;stroke-width:0.5;stroke-linecap:butt;stroke-linejoin:round;stroke-miterlimit:10;stroke-dasharray:none;stroke-opacity:1"
         id="path98"
         inkscape:connector-curvature="0" /><text
         transform="matrix(1,0,0,-1,512.01719,30.075)"
         style="font-variant:normal;font-weight:normal;font-size:12px;font-family:'Bitstream Vera Sans';-inkscape-font-specification:BitstreamVeraSans-Roman;writing-mode:lr-tb;fill:#000000;fill-opacity:1;fill-rule:nonzero;stroke:none"
         id="text100"><tspan
           x="0 7.632"
           y="0"
           sodipodi:role="line"
           id="tspan102">12</tspan></text>
<path
         d="m 72,43.2 4,0"
         style="fill:#000000;fill-opacity:1;fill-rule:nonzero;stroke:#000000;stroke-width:0.5;stroke-linecap:butt;stroke-linejoin:round;stroke-miterlimit:10;stroke-dasharray:none;stroke-opacity:1"
         id="path104"
         inkscape:connector-curvature="0" /><path
         d="m 518.4,43.2 -4,0"
         style="fill:#000000;fill-opacity:1;fill-rule:nonzero;stroke:#000000;stroke-width:0.5;stroke-linecap:butt;stroke-linejoin:round;stroke-miterlimit:10;stroke-dasharray:none;stroke-opacity:1"
         id="path106"
         inkscape:connector-curvature="0" /><g
         id="g108"
         transform="translate(52.234375,39.8875)"><text
           transform="matrix(1,0,0,-1,10.054688,0)"
           style="font-variant:normal;font-weight:normal;font-size:12px;font-family:'Bitstream Vera Sans';-inkscape-font-specification:BitstreamVeraSans-Roman;writing-mode:lr-tb;fill:#000000;fill-opacity:1;fill-rule:nonzero;stroke:none"
           id="text110"><tspan
             x="0"
             y="0"
             id="tspan112">4</tspan></text>
<g
           id="g114"
           transform="scale(0.012,0.012)"><g
             id="g116"><g
               id="g118"
               clip-path="url(#clipPath120)"><path
                 d="m 106,355 626,0 0,-83 -626,0 0,83"
                 style="fill:#000000;fill-opacity:1;fill-rule:nonzero;stroke:none"
                 id="path124"
                 inkscape:connector-curvature="0" /></g></g></g></g><path
         d="m 72,86.4 4,0"
         style="fill:#000000;fill-opacity:1;fill-rule:nonzero;stroke:#000000;stroke-width:0.5;stroke-linecap:butt;stroke-linejoin:round;stroke-miterlimit:10;stroke-dasharray:none;stroke-opacity:1"
         id="path126"
         inkscape:connector-curvature="0" /><path
         d="m 518.4,86.4 -4,0"
         style="fill:#000000;fill-opacity:1;fill-rule:nonzero;stroke:#000000;stroke-width:0.5;stroke-linecap:butt;stroke-linejoin:round;stroke-miterlimit:10;stroke-dasharray:none;stroke-opacity:1"
         id="path128"
         inkscape:connector-curvature="0" /><g
         id="g130"
         transform="translate(52.53125,83.0875)"><text
           transform="matrix(1,0,0,-1,10.054688,0)"
           style="font-variant:normal;font-weight:normal;font-size:12px;font-family:'Bitstream Vera Sans';-inkscape-font-specification:BitstreamVeraSans-Roman;writing-mode:lr-tb;fill:#000000;fill-opacity:1;fill-rule:nonzero;stroke:none"
           id="text132"><tspan
             x="0"
             y="0"
             id="tspan134">3</tspan></text>
<g
           id="g136"
           transform="scale(0.012,0.012)"><g
             id="g138"><g
               id="g140"
               clip-path="url(#clipPath142)"><path
                 d="m 106,355 626,0 0,-83 -626,0 0,83"
                 style="fill:#000000;fill-opacity:1;fill-rule:nonzero;stroke:none"
                 id="path146"
                 inkscape:connector-curvature="0" /></g></g></g></g><path
         d="m 72,129.6 4,0"
         style="fill:#000000;fill-opacity:1;fill-rule:nonzero;stroke:#000000;stroke-width:0.5;stroke-linecap:butt;stroke-linejoin:round;stroke-miterlimit:10;stroke-dasharray:none;stroke-opacity:1"
         id="path148"
         inkscape:connector-curvature="0" /><path
         d="m 518.4,129.6 -4,0"
         style="fill:#000000;fill-opacity:1;fill-rule:nonzero;stroke:#000000;stroke-width:0.5;stroke-linecap:butt;stroke-linejoin:round;stroke-miterlimit:10;stroke-dasharray:none;stroke-opacity:1"
         id="path150"
         inkscape:connector-curvature="0" /><g
         id="g152"
         transform="translate(52.765625,126.2875)"><text
           transform="matrix(1,0,0,-1,10.054688,0)"
           style="font-variant:normal;font-weight:normal;font-size:12px;font-family:'Bitstream Vera Sans';-inkscape-font-specification:BitstreamVeraSans-Roman;writing-mode:lr-tb;fill:#000000;fill-opacity:1;fill-rule:nonzero;stroke:none"
           id="text154"><tspan
             x="0"
             y="0"
             id="tspan156">2</tspan></text>
<g
           id="g158"
           transform="scale(0.012,0.012)"><g
             id="g160"><g
               id="g162"
               clip-path="url(#clipPath164)"><path
                 d="m 106,355 626,0 0,-83 -626,0 0,83"
                 style="fill:#000000;fill-opacity:1;fill-rule:nonzero;stroke:none"
                 id="path168"
                 inkscape:connector-curvature="0" /></g></g></g></g><path
         d="m 72,172.8 4,0"
         style="fill:#000000;fill-opacity:1;fill-rule:nonzero;stroke:#000000;stroke-width:0.5;stroke-linecap:butt;stroke-linejoin:round;stroke-miterlimit:10;stroke-dasharray:none;stroke-opacity:1"
         id="path170"
         inkscape:connector-curvature="0" /><path
         d="m 518.4,172.8 -4,0"
         style="fill:#000000;fill-opacity:1;fill-rule:nonzero;stroke:#000000;stroke-width:0.5;stroke-linecap:butt;stroke-linejoin:round;stroke-miterlimit:10;stroke-dasharray:none;stroke-opacity:1"
         id="path172"
         inkscape:connector-curvature="0" /><g
         id="g174"
         transform="translate(52.671875,169.4875)"><text
           transform="matrix(1,0,0,-1,10.054688,0)"
           style="font-variant:normal;font-weight:normal;font-size:12px;font-family:'Bitstream Vera Sans';-inkscape-font-specification:BitstreamVeraSans-Roman;writing-mode:lr-tb;fill:#000000;fill-opacity:1;fill-rule:nonzero;stroke:none"
           id="text176"><tspan
             x="0"
             y="0"
             id="tspan178">1</tspan></text>
<g
           id="g180"
           transform="scale(0.012,0.012)"><g
             id="g182"><g
               id="g184"
               clip-path="url(#clipPath186)"><path
                 d="m 106,355 626,0 0,-83 -626,0 0,83"
                 style="fill:#000000;fill-opacity:1;fill-rule:nonzero;stroke:none"
                 id="path190"
                 inkscape:connector-curvature="0" /></g></g></g></g><path
         d="m 72,216 4,0"
         style="fill:#000000;fill-opacity:1;fill-rule:nonzero;stroke:#000000;stroke-width:0.5;stroke-linecap:butt;stroke-linejoin:round;stroke-miterlimit:10;stroke-dasharray:none;stroke-opacity:1"
         id="path192"
         inkscape:connector-curvature="0" /><path
         d="m 518.4,216 -4,0"
         style="fill:#000000;fill-opacity:1;fill-rule:nonzero;stroke:#000000;stroke-width:0.5;stroke-linecap:butt;stroke-linejoin:round;stroke-miterlimit:10;stroke-dasharray:none;stroke-opacity:1"
         id="path194"
         inkscape:connector-curvature="0" /><text
         transform="matrix(1,0,0,-1,61.953125,212.6875)"
         style="font-variant:normal;font-weight:normal;font-size:12px;font-family:'Bitstream Vera Sans';-inkscape-font-specification:BitstreamVeraSans-Roman;writing-mode:lr-tb;fill:#000000;fill-opacity:1;fill-rule:nonzero;stroke:none"
         id="text196"><tspan
           x="0"
           y="0"
           id="tspan198">0</tspan></text>
<path
         d="m 72,259.2 4,0"
         style="fill:#000000;fill-opacity:1;fill-rule:nonzero;stroke:#000000;stroke-width:0.5;stroke-linecap:butt;stroke-linejoin:round;stroke-miterlimit:10;stroke-dasharray:none;stroke-opacity:1"
         id="path200"
         inkscape:connector-curvature="0" /><path
         d="m 518.4,259.2 -4,0"
         style="fill:#000000;fill-opacity:1;fill-rule:nonzero;stroke:#000000;stroke-width:0.5;stroke-linecap:butt;stroke-linejoin:round;stroke-miterlimit:10;stroke-dasharray:none;stroke-opacity:1"
         id="path202"
         inkscape:connector-curvature="0" /><text
         transform="matrix(1,0,0,-1,62.78125,255.8875)"
         style="font-variant:normal;font-weight:normal;font-size:12px;font-family:'Bitstream Vera Sans';-inkscape-font-specification:BitstreamVeraSans-Roman;writing-mode:lr-tb;fill:#000000;fill-opacity:1;fill-rule:nonzero;stroke:none"
         id="text204"><tspan
           x="0"
           y="0"
           id="tspan206">1</tspan></text>
<path
         d="m 72,302.4 4,0"
         style="fill:#000000;fill-opacity:1;fill-rule:nonzero;stroke:#000000;stroke-width:0.5;stroke-linecap:butt;stroke-linejoin:round;stroke-miterlimit:10;stroke-dasharray:none;stroke-opacity:1"
         id="path208"
         inkscape:connector-curvature="0" /><path
         d="m 518.4,302.4 -4,0"
         style="fill:#000000;fill-opacity:1;fill-rule:nonzero;stroke:#000000;stroke-width:0.5;stroke-linecap:butt;stroke-linejoin:round;stroke-miterlimit:10;stroke-dasharray:none;stroke-opacity:1"
         id="path210"
         inkscape:connector-curvature="0" /><text
         transform="matrix(1,0,0,-1,62.4375,299.0875)"
         style="font-variant:normal;font-weight:normal;font-size:12px;font-family:'Bitstream Vera Sans';-inkscape-font-specification:BitstreamVeraSans-Roman;writing-mode:lr-tb;fill:#000000;fill-opacity:1;fill-rule:nonzero;stroke:none"
         id="text212"><tspan
           x="0"
           y="0"
           id="tspan214">2</tspan></text>
<path
         d="m 72,345.6 4,0"
         style="fill:#000000;fill-opacity:1;fill-rule:nonzero;stroke:#000000;stroke-width:0.5;stroke-linecap:butt;stroke-linejoin:round;stroke-miterlimit:10;stroke-dasharray:none;stroke-opacity:1"
         id="path216"
         inkscape:connector-curvature="0" /><path
         d="m 518.4,345.6 -4,0"
         style="fill:#000000;fill-opacity:1;fill-rule:nonzero;stroke:#000000;stroke-width:0.5;stroke-linecap:butt;stroke-linejoin:round;stroke-miterlimit:10;stroke-dasharray:none;stroke-opacity:1"
         id="path218"
         inkscape:connector-curvature="0" /><text
         transform="matrix(1,0,0,-1,62.25,342.2875)"
         style="font-variant:normal;font-weight:normal;font-size:12px;font-family:'Bitstream Vera Sans';-inkscape-font-specification:BitstreamVeraSans-Roman;writing-mode:lr-tb;fill:#000000;fill-opacity:1;fill-rule:nonzero;stroke:none"
         id="text220"><tspan
           x="0"
           y="0"
           id="tspan222">3</tspan></text>
<path
         d="m 72,388.8 4,0"
         style="fill:#000000;fill-opacity:1;fill-rule:nonzero;stroke:#000000;stroke-width:0.5;stroke-linecap:butt;stroke-linejoin:round;stroke-miterlimit:10;stroke-dasharray:none;stroke-opacity:1"
         id="path224"
         inkscape:connector-curvature="0" /><path
         d="m 518.4,388.8 -4,0"
         style="fill:#000000;fill-opacity:1;fill-rule:nonzero;stroke:#000000;stroke-width:0.5;stroke-linecap:butt;stroke-linejoin:round;stroke-miterlimit:10;stroke-dasharray:none;stroke-opacity:1"
         id="path226"
         inkscape:connector-curvature="0" /><text
         transform="matrix(1,0,0,-1,61.625,385.4875)"
         style="font-variant:normal;font-weight:normal;font-size:12px;font-family:'Bitstream Vera Sans';-inkscape-font-specification:BitstreamVeraSans-Roman;writing-mode:lr-tb;fill:#000000;fill-opacity:1;fill-rule:nonzero;stroke:none"
         id="text228"><tspan
           x="0"
           y="0"
           id="tspan230">4</tspan></text>
<path
         d="m 72,388.8 446.4,0"
         style="fill:none;stroke:#000000;stroke-width:1;stroke-linecap:butt;stroke-linejoin:round;stroke-miterlimit:10;stroke-dasharray:none;stroke-opacity:1"
         id="path232"
         inkscape:connector-curvature="0" /><path
         d="m 518.4,43.2 0,345.6"
         style="fill:none;stroke:#000000;stroke-width:1;stroke-linecap:butt;stroke-linejoin:round;stroke-miterlimit:10;stroke-dasharray:none;stroke-opacity:1"
         id="path234"
         inkscape:connector-curvature="0" /><path
         d="m 72,43.2 446.4,0"
         style="fill:none;stroke:#000000;stroke-width:1;stroke-linecap:butt;stroke-linejoin:round;stroke-miterlimit:10;stroke-dasharray:none;stroke-opacity:1"
         id="path236"
         inkscape:connector-curvature="0" /><path
         d="m 72,43.2 0,345.6"
         style="fill:none;stroke:#000000;stroke-width:1;stroke-linecap:butt;stroke-linejoin:round;stroke-miterlimit:10;stroke-dasharray:none;stroke-opacity:1"
         id="path238"
         inkscape:connector-curvature="0" /></g></g></svg>