<?xml version="1.0" encoding="utf-8" standalone="no"?>
<!DOCTYPE svg PUBLIC "-//W3C//DTD SVG 1.1//EN"
  "http://www.w3.org/Graphics/SVG/1.1/DTD/svg11.dtd">
<!-- Created with matplotlib (http://matplotlib.org/) -->
<svg height="345pt" version="1.1" viewBox="0 0 460 345" width="460pt" xmlns="http://www.w3.org/2000/svg" xmlns:xlink="http://www.w3.org/1999/xlink">
 <defs>
  <style type="text/css">
*{stroke-linecap:butt;stroke-linejoin:round;}
  </style>
 </defs>
 <g id="figure_1">
  <g id="patch_1">
   <path d="M 0 345.6 
L 460.8 345.6 
L 460.8 0 
L 0 0 
z
" style="fill:#ffffff;"/>
  </g>
  <g id="axes_1">
   <g id="patch_2">
    <path d="M 57.6 307.584 
L 414.72 307.584 
L 414.72 41.472 
L 57.6 41.472 
z
" style="fill:#ffffff;"/>
   </g>
   <g id="matplotlib.axis_1">
    <g id="xtick_1">
     <g id="line2d_1">
      <defs>
       <path d="M 0 0 
L 0 3.5 
" id="m6e6f403314" style="stroke:#000000;stroke-width:0.8;"/>
      </defs>
      <g>
       <use style="stroke:#000000;stroke-width:0.8;" x="65.655338" xlink:href="#m6e6f403314" y="307.584"/>
      </g>
     </g>
     <g id="text_1">
      <!-- 0 -->
      <defs>
       <path d="M 31.78125 66.40625 
Q 24.171875 66.40625 20.328125 58.90625 
Q 16.5 51.421875 16.5 36.375 
Q 16.5 21.390625 20.328125 13.890625 
Q 24.171875 6.390625 31.78125 6.390625 
Q 39.453125 6.390625 43.28125 13.890625 
Q 47.125 21.390625 47.125 36.375 
Q 47.125 51.421875 43.28125 58.90625 
Q 39.453125 66.40625 31.78125 66.40625 
z
M 31.78125 74.21875 
Q 44.046875 74.21875 50.515625 64.515625 
Q 56.984375 54.828125 56.984375 36.375 
Q 56.984375 17.96875 50.515625 8.265625 
Q 44.046875 -1.421875 31.78125 -1.421875 
Q 19.53125 -1.421875 13.0625 8.265625 
Q 6.59375 17.96875 6.59375 36.375 
Q 6.59375 54.828125 13.0625 64.515625 
Q 19.53125 74.21875 31.78125 74.21875 
z
" id="DejaVuSans-30"/>
      </defs>
      <g transform="translate(62.474088 322.182437)scale(0.1 -0.1)">
       <use xlink:href="#DejaVuSans-30"/>
      </g>
     </g>
    </g>
    <g id="xtick_2">
     <g id="line2d_2">
      <g>
       <use style="stroke:#000000;stroke-width:0.8;" x="119.357594" xlink:href="#m6e6f403314" y="307.584"/>
      </g>
     </g>
     <g id="text_2">
      <!-- 20 -->
      <defs>
       <path d="M 19.1875 8.296875 
L 53.609375 8.296875 
L 53.609375 0 
L 7.328125 0 
L 7.328125 8.296875 
Q 12.9375 14.109375 22.625 23.890625 
Q 32.328125 33.6875 34.8125 36.53125 
Q 39.546875 41.84375 41.421875 45.53125 
Q 43.3125 49.21875 43.3125 52.78125 
Q 43.3125 58.59375 39.234375 62.25 
Q 35.15625 65.921875 28.609375 65.921875 
Q 23.96875 65.921875 18.8125 64.3125 
Q 13.671875 62.703125 7.8125 59.421875 
L 7.8125 69.390625 
Q 13.765625 71.78125 18.9375 73 
Q 24.125 74.21875 28.421875 74.21875 
Q 39.75 74.21875 46.484375 68.546875 
Q 53.21875 62.890625 53.21875 53.421875 
Q 53.21875 48.921875 51.53125 44.890625 
Q 49.859375 40.875 45.40625 35.40625 
Q 44.1875 33.984375 37.640625 27.21875 
Q 31.109375 20.453125 19.1875 8.296875 
z
" id="DejaVuSans-32"/>
      </defs>
      <g transform="translate(112.995094 322.182437)scale(0.1 -0.1)">
       <use xlink:href="#DejaVuSans-32"/>
       <use x="63.623047" xlink:href="#DejaVuSans-30"/>
      </g>
     </g>
    </g>
    <g id="xtick_3">
     <g id="line2d_3">
      <g>
       <use style="stroke:#000000;stroke-width:0.8;" x="173.05985" xlink:href="#m6e6f403314" y="307.584"/>
      </g>
     </g>
     <g id="text_3">
      <!-- 40 -->
      <defs>
       <path d="M 37.796875 64.3125 
L 12.890625 25.390625 
L 37.796875 25.390625 
z
M 35.203125 72.90625 
L 47.609375 72.90625 
L 47.609375 25.390625 
L 58.015625 25.390625 
L 58.015625 17.1875 
L 47.609375 17.1875 
L 47.609375 0 
L 37.796875 0 
L 37.796875 17.1875 
L 4.890625 17.1875 
L 4.890625 26.703125 
z
" id="DejaVuSans-34"/>
      </defs>
      <g transform="translate(166.69735 322.182437)scale(0.1 -0.1)">
       <use xlink:href="#DejaVuSans-34"/>
       <use x="63.623047" xlink:href="#DejaVuSans-30"/>
      </g>
     </g>
    </g>
    <g id="xtick_4">
     <g id="line2d_4">
      <g>
       <use style="stroke:#000000;stroke-width:0.8;" x="226.762105" xlink:href="#m6e6f403314" y="307.584"/>
      </g>
     </g>
     <g id="text_4">
      <!-- 60 -->
      <defs>
       <path d="M 33.015625 40.375 
Q 26.375 40.375 22.484375 35.828125 
Q 18.609375 31.296875 18.609375 23.390625 
Q 18.609375 15.53125 22.484375 10.953125 
Q 26.375 6.390625 33.015625 6.390625 
Q 39.65625 6.390625 43.53125 10.953125 
Q 47.40625 15.53125 47.40625 23.390625 
Q 47.40625 31.296875 43.53125 35.828125 
Q 39.65625 40.375 33.015625 40.375 
z
M 52.59375 71.296875 
L 52.59375 62.3125 
Q 48.875 64.0625 45.09375 64.984375 
Q 41.3125 65.921875 37.59375 65.921875 
Q 27.828125 65.921875 22.671875 59.328125 
Q 17.53125 52.734375 16.796875 39.40625 
Q 19.671875 43.65625 24.015625 45.921875 
Q 28.375 48.1875 33.59375 48.1875 
Q 44.578125 48.1875 50.953125 41.515625 
Q 57.328125 34.859375 57.328125 23.390625 
Q 57.328125 12.15625 50.6875 5.359375 
Q 44.046875 -1.421875 33.015625 -1.421875 
Q 20.359375 -1.421875 13.671875 8.265625 
Q 6.984375 17.96875 6.984375 36.375 
Q 6.984375 53.65625 15.1875 63.9375 
Q 23.390625 74.21875 37.203125 74.21875 
Q 40.921875 74.21875 44.703125 73.484375 
Q 48.484375 72.75 52.59375 71.296875 
z
" id="DejaVuSans-36"/>
      </defs>
      <g transform="translate(220.399605 322.182437)scale(0.1 -0.1)">
       <use xlink:href="#DejaVuSans-36"/>
       <use x="63.623047" xlink:href="#DejaVuSans-30"/>
      </g>
     </g>
    </g>
    <g id="xtick_5">
     <g id="line2d_5">
      <g>
       <use style="stroke:#000000;stroke-width:0.8;" x="280.464361" xlink:href="#m6e6f403314" y="307.584"/>
      </g>
     </g>
     <g id="text_5">
      <!-- 80 -->
      <defs>
       <path d="M 31.78125 34.625 
Q 24.75 34.625 20.71875 30.859375 
Q 16.703125 27.09375 16.703125 20.515625 
Q 16.703125 13.921875 20.71875 10.15625 
Q 24.75 6.390625 31.78125 6.390625 
Q 38.8125 6.390625 42.859375 10.171875 
Q 46.921875 13.96875 46.921875 20.515625 
Q 46.921875 27.09375 42.890625 30.859375 
Q 38.875 34.625 31.78125 34.625 
z
M 21.921875 38.8125 
Q 15.578125 40.375 12.03125 44.71875 
Q 8.5 49.078125 8.5 55.328125 
Q 8.5 64.0625 14.71875 69.140625 
Q 20.953125 74.21875 31.78125 74.21875 
Q 42.671875 74.21875 48.875 69.140625 
Q 55.078125 64.0625 55.078125 55.328125 
Q 55.078125 49.078125 51.53125 44.71875 
Q 48 40.375 41.703125 38.8125 
Q 48.828125 37.15625 52.796875 32.3125 
Q 56.78125 27.484375 56.78125 20.515625 
Q 56.78125 9.90625 50.3125 4.234375 
Q 43.84375 -1.421875 31.78125 -1.421875 
Q 19.734375 -1.421875 13.25 4.234375 
Q 6.78125 9.90625 6.78125 20.515625 
Q 6.78125 27.484375 10.78125 32.3125 
Q 14.796875 37.15625 21.921875 38.8125 
z
M 18.3125 54.390625 
Q 18.3125 48.734375 21.84375 45.5625 
Q 25.390625 42.390625 31.78125 42.390625 
Q 38.140625 42.390625 41.71875 45.5625 
Q 45.3125 48.734375 45.3125 54.390625 
Q 45.3125 60.0625 41.71875 63.234375 
Q 38.140625 66.40625 31.78125 66.40625 
Q 25.390625 66.40625 21.84375 63.234375 
Q 18.3125 60.0625 18.3125 54.390625 
z
" id="DejaVuSans-38"/>
      </defs>
      <g transform="translate(274.101861 322.182437)scale(0.1 -0.1)">
       <use xlink:href="#DejaVuSans-38"/>
       <use x="63.623047" xlink:href="#DejaVuSans-30"/>
      </g>
     </g>
    </g>
    <g id="xtick_6">
     <g id="line2d_6">
      <g>
       <use style="stroke:#000000;stroke-width:0.8;" x="334.166617" xlink:href="#m6e6f403314" y="307.584"/>
      </g>
     </g>
     <g id="text_6">
      <!-- 100 -->
      <defs>
       <path d="M 12.40625 8.296875 
L 28.515625 8.296875 
L 28.515625 63.921875 
L 10.984375 60.40625 
L 10.984375 69.390625 
L 28.421875 72.90625 
L 38.28125 72.90625 
L 38.28125 8.296875 
L 54.390625 8.296875 
L 54.390625 0 
L 12.40625 0 
z
" id="DejaVuSans-31"/>
      </defs>
      <g transform="translate(324.622867 322.182437)scale(0.1 -0.1)">
       <use xlink:href="#DejaVuSans-31"/>
       <use x="63.623047" xlink:href="#DejaVuSans-30"/>
       <use x="127.246094" xlink:href="#DejaVuSans-30"/>
      </g>
     </g>
    </g>
    <g id="xtick_7">
     <g id="line2d_7">
      <g>
       <use style="stroke:#000000;stroke-width:0.8;" x="387.868872" xlink:href="#m6e6f403314" y="307.584"/>
      </g>
     </g>
     <g id="text_7">
      <!-- 120 -->
      <g transform="translate(378.325122 322.182437)scale(0.1 -0.1)">
       <use xlink:href="#DejaVuSans-31"/>
       <use x="63.623047" xlink:href="#DejaVuSans-32"/>
       <use x="127.246094" xlink:href="#DejaVuSans-30"/>
      </g>
     </g>
    </g>
   </g>
   <g id="matplotlib.axis_2">
    <g id="ytick_1">
     <g id="line2d_8">
      <defs>
       <path d="M 0 0 
L -3.5 0 
" id="m159ba8dd8d" style="stroke:#000000;stroke-width:0.8;"/>
      </defs>
      <g>
       <use style="stroke:#000000;stroke-width:0.8;" x="57.6" xlink:href="#m159ba8dd8d" y="307.584"/>
      </g>
     </g>
     <g id="text_8">
      <!-- −20 -->
      <defs>
       <path d="M 10.59375 35.5 
L 73.1875 35.5 
L 73.1875 27.203125 
L 10.59375 27.203125 
z
" id="DejaVuSans-2212"/>
      </defs>
      <g transform="translate(29.495313 311.383219)scale(0.1 -0.1)">
       <use xlink:href="#DejaVuSans-2212"/>
       <use x="83.789062" xlink:href="#DejaVuSans-32"/>
       <use x="147.412109" xlink:href="#DejaVuSans-30"/>
      </g>
     </g>
    </g>
    <g id="ytick_2">
     <g id="line2d_9">
      <g>
       <use style="stroke:#000000;stroke-width:0.8;" x="57.6" xlink:href="#m159ba8dd8d" y="272.1024"/>
      </g>
     </g>
     <g id="text_9">
      <!-- 0 -->
      <g transform="translate(44.2375 275.901619)scale(0.1 -0.1)">
       <use xlink:href="#DejaVuSans-30"/>
      </g>
     </g>
    </g>
    <g id="ytick_3">
     <g id="line2d_10">
      <g>
       <use style="stroke:#000000;stroke-width:0.8;" x="57.6" xlink:href="#m159ba8dd8d" y="236.6208"/>
      </g>
     </g>
     <g id="text_10">
      <!-- 20 -->
      <g transform="translate(37.875 240.420019)scale(0.1 -0.1)">
       <use xlink:href="#DejaVuSans-32"/>
       <use x="63.623047" xlink:href="#DejaVuSans-30"/>
      </g>
     </g>
    </g>
    <g id="ytick_4">
     <g id="line2d_11">
      <g>
       <use style="stroke:#000000;stroke-width:0.8;" x="57.6" xlink:href="#m159ba8dd8d" y="201.1392"/>
      </g>
     </g>
     <g id="text_11">
      <!-- 40 -->
      <g transform="translate(37.875 204.938419)scale(0.1 -0.1)">
       <use xlink:href="#DejaVuSans-34"/>
       <use x="63.623047" xlink:href="#DejaVuSans-30"/>
      </g>
     </g>
    </g>
    <g id="ytick_5">
     <g id="line2d_12">
      <g>
       <use style="stroke:#000000;stroke-width:0.8;" x="57.6" xlink:href="#m159ba8dd8d" y="165.6576"/>
      </g>
     </g>
     <g id="text_12">
      <!-- 60 -->
      <g transform="translate(37.875 169.456819)scale(0.1 -0.1)">
       <use xlink:href="#DejaVuSans-36"/>
       <use x="63.623047" xlink:href="#DejaVuSans-30"/>
      </g>
     </g>
    </g>
    <g id="ytick_6">
     <g id="line2d_13">
      <g>
       <use style="stroke:#000000;stroke-width:0.8;" x="57.6" xlink:href="#m159ba8dd8d" y="130.176"/>
      </g>
     </g>
     <g id="text_13">
      <!-- 80 -->
      <g transform="translate(37.875 133.975219)scale(0.1 -0.1)">
       <use xlink:href="#DejaVuSans-38"/>
       <use x="63.623047" xlink:href="#DejaVuSans-30"/>
      </g>
     </g>
    </g>
    <g id="ytick_7">
     <g id="line2d_14">
      <g>
       <use style="stroke:#000000;stroke-width:0.8;" x="57.6" xlink:href="#m159ba8dd8d" y="94.6944"/>
      </g>
     </g>
     <g id="text_14">
      <!-- 100 -->
      <g transform="translate(31.5125 98.493619)scale(0.1 -0.1)">
       <use xlink:href="#DejaVuSans-31"/>
       <use x="63.623047" xlink:href="#DejaVuSans-30"/>
       <use x="127.246094" xlink:href="#DejaVuSans-30"/>
      </g>
     </g>
    </g>
    <g id="ytick_8">
     <g id="line2d_15">
      <g>
       <use style="stroke:#000000;stroke-width:0.8;" x="57.6" xlink:href="#m159ba8dd8d" y="59.2128"/>
      </g>
     </g>
     <g id="text_15">
      <!-- 120 -->
      <g transform="translate(31.5125 63.012019)scale(0.1 -0.1)">
       <use xlink:href="#DejaVuSans-31"/>
       <use x="63.623047" xlink:href="#DejaVuSans-32"/>
       <use x="127.246094" xlink:href="#DejaVuSans-30"/>
      </g>
     </g>
    </g>
   </g>
   <g id="line2d_16">
    <path clip-path="url(#p9ac862551a)" d="M 66.192361 272.1024 
L 151.844914 272.009283 
L 157.463303 271.699222 
L 163.044776 271.17327 
L 168.570346 270.433216 
L 174.021216 269.481579 
L 179.378843 268.321596 
L 184.625002 266.957212 
L 189.741846 265.39307 
L 194.711969 263.634489 
L 199.518462 261.687453 
L 204.144976 259.558584 
L 208.575772 257.255125 
L 212.795778 254.784912 
L 216.790636 252.156348 
L 220.025279 249.784023 
L 223.076426 247.307849 
L 225.936451 244.734015 
L 228.598204 242.068955 
L 231.055033 239.31933 
L 233.300797 236.492013 
L 235.329884 233.59407 
L 237.13722 230.632745 
L 238.894004 227.280105 
L 272.083707 161.283979 
L 272.083707 161.283979 
" style="fill:none;stroke:#0000ff;stroke-linecap:square;stroke-width:1.5;"/>
   </g>
   <g id="line2d_17">
    <defs>
     <path d="M 0 1.5 
C 0.397805 1.5 0.77937 1.341951 1.06066 1.06066 
C 1.341951 0.77937 1.5 0.397805 1.5 0 
C 1.5 -0.397805 1.341951 -0.77937 1.06066 -1.06066 
C 0.77937 -1.341951 0.397805 -1.5 0 -1.5 
C -0.397805 -1.5 -0.77937 -1.341951 -1.06066 -1.06066 
C -1.341951 -0.77937 -1.5 -0.397805 -1.5 0 
C -1.5 0.397805 -1.341951 0.77937 -1.06066 1.06066 
C -0.77937 1.341951 -0.397805 1.5 0 1.5 
z
" id="m94a704bacd" style="stroke:#ff0000;"/>
    </defs>
    <g clip-path="url(#p9ac862551a)">
     <use style="fill:#ff0000;stroke:#ff0000;" x="254.235958" xlink:href="#m94a704bacd" y="154.18446"/>
     <use style="fill:#ff0000;stroke:#ff0000;" x="214.418015" xlink:href="#m94a704bacd" y="142.530423"/>
     <use style="fill:#ff0000;stroke:#ff0000;" x="291.310818" xlink:href="#m94a704bacd" y="177.566368"/>
     <use style="fill:#ff0000;stroke:#ff0000;" x="301.195151" xlink:href="#m94a704bacd" y="177.44721"/>
     <use style="fill:#ff0000;stroke:#ff0000;" x="229.477321" xlink:href="#m94a704bacd" y="151.856746"/>
     <use style="fill:#ff0000;stroke:#ff0000;" x="309.125425" xlink:href="#m94a704bacd" y="176.608444"/>
     <use style="fill:#ff0000;stroke:#ff0000;" x="268.206717" xlink:href="#m94a704bacd" y="158.6999"/>
     <use style="fill:#ff0000;stroke:#ff0000;" x="316.885374" xlink:href="#m94a704bacd" y="184.492883"/>
     <use style="fill:#ff0000;stroke:#ff0000;" x="253.159391" xlink:href="#m94a704bacd" y="151.923686"/>
     <use style="fill:#ff0000;stroke:#ff0000;" x="289.831327" xlink:href="#m94a704bacd" y="162.076869"/>
     <use style="fill:#ff0000;stroke:#ff0000;" x="284.732845" xlink:href="#m94a704bacd" y="176.683321"/>
     <use style="fill:#ff0000;stroke:#ff0000;" x="285.923927" xlink:href="#m94a704bacd" y="163.670379"/>
     <use style="fill:#ff0000;stroke:#ff0000;" x="310.613468" xlink:href="#m94a704bacd" y="194.095059"/>
     <use style="fill:#ff0000;stroke:#ff0000;" x="286.801018" xlink:href="#m94a704bacd" y="168.390348"/>
     <use style="fill:#ff0000;stroke:#ff0000;" x="312.189824" xlink:href="#m94a704bacd" y="183.647207"/>
     <use style="fill:#ff0000;stroke:#ff0000;" x="269.887089" xlink:href="#m94a704bacd" y="160.819263"/>
     <use style="fill:#ff0000;stroke:#ff0000;" x="293.681287" xlink:href="#m94a704bacd" y="174.9864"/>
     <use style="fill:#ff0000;stroke:#ff0000;" x="279.881865" xlink:href="#m94a704bacd" y="168.17349"/>
     <use style="fill:#ff0000;stroke:#ff0000;" x="270.363952" xlink:href="#m94a704bacd" y="157.649352"/>
     <use style="fill:#ff0000;stroke:#ff0000;" x="230.520074" xlink:href="#m94a704bacd" y="153.317541"/>
     <use style="fill:#ff0000;stroke:#ff0000;" x="269.151736" xlink:href="#m94a704bacd" y="158.913207"/>
     <use style="fill:#ff0000;stroke:#ff0000;" x="300.400462" xlink:href="#m94a704bacd" y="181.841019"/>
     <use style="fill:#ff0000;stroke:#ff0000;" x="266.357323" xlink:href="#m94a704bacd" y="159.851243"/>
     <use style="fill:#ff0000;stroke:#ff0000;" x="271.409354" xlink:href="#m94a704bacd" y="160.401018"/>
     <use style="fill:#ff0000;stroke:#ff0000;" x="243.875228" xlink:href="#m94a704bacd" y="149.271634"/>
     <use style="fill:#ff0000;stroke:#ff0000;" x="267.399954" xlink:href="#m94a704bacd" y="155.770484"/>
     <use style="fill:#ff0000;stroke:#ff0000;" x="281.943555" xlink:href="#m94a704bacd" y="169.517824"/>
     <use style="fill:#ff0000;stroke:#ff0000;" x="264.294553" xlink:href="#m94a704bacd" y="165.384544"/>
     <use style="fill:#ff0000;stroke:#ff0000;" x="288.214685" xlink:href="#m94a704bacd" y="178.30612"/>
     <use style="fill:#ff0000;stroke:#ff0000;" x="288.243292" xlink:href="#m94a704bacd" y="179.976848"/>
     <use style="fill:#ff0000;stroke:#ff0000;" x="269.206082" xlink:href="#m94a704bacd" y="158.108048"/>
     <use style="fill:#ff0000;stroke:#ff0000;" x="234.2167" xlink:href="#m94a704bacd" y="147.625108"/>
     <use style="fill:#ff0000;stroke:#ff0000;" x="307.978799" xlink:href="#m94a704bacd" y="181.5456"/>
     <use style="fill:#ff0000;stroke:#ff0000;" x="261.578796" xlink:href="#m94a704bacd" y="158.163473"/>
     <use style="fill:#ff0000;stroke:#ff0000;" x="286.157686" xlink:href="#m94a704bacd" y="157.47492"/>
     <use style="fill:#ff0000;stroke:#ff0000;" x="262.433269" xlink:href="#m94a704bacd" y="155.000937"/>
     <use style="fill:#ff0000;stroke:#ff0000;" x="258.020397" xlink:href="#m94a704bacd" y="160.046491"/>
     <use style="fill:#ff0000;stroke:#ff0000;" x="307.196671" xlink:href="#m94a704bacd" y="187.576068"/>
     <use style="fill:#ff0000;stroke:#ff0000;" x="273.886609" xlink:href="#m94a704bacd" y="167.803305"/>
     <use style="fill:#ff0000;stroke:#ff0000;" x="268.965621" xlink:href="#m94a704bacd" y="161.028339"/>
     <use style="fill:#ff0000;stroke:#ff0000;" x="260.207372" xlink:href="#m94a704bacd" y="154.992202"/>
     <use style="fill:#ff0000;stroke:#ff0000;" x="300.27458" xlink:href="#m94a704bacd" y="182.93255"/>
     <use style="fill:#ff0000;stroke:#ff0000;" x="288.399316" xlink:href="#m94a704bacd" y="177.040212"/>
     <use style="fill:#ff0000;stroke:#ff0000;" x="287.186416" xlink:href="#m94a704bacd" y="181.058648"/>
     <use style="fill:#ff0000;stroke:#ff0000;" x="269.697184" xlink:href="#m94a704bacd" y="157.539038"/>
     <use style="fill:#ff0000;stroke:#ff0000;" x="275.85771" xlink:href="#m94a704bacd" y="165.278334"/>
     <use style="fill:#ff0000;stroke:#ff0000;" x="212.295781" xlink:href="#m94a704bacd" y="136.844522"/>
     <use style="fill:#ff0000;stroke:#ff0000;" x="292.705118" xlink:href="#m94a704bacd" y="169.475585"/>
     <use style="fill:#ff0000;stroke:#ff0000;" x="285.194817" xlink:href="#m94a704bacd" y="178.598351"/>
     <use style="fill:#ff0000;stroke:#ff0000;" x="252.898224" xlink:href="#m94a704bacd" y="155.371794"/>
     <use style="fill:#ff0000;stroke:#ff0000;" x="269.697472" xlink:href="#m94a704bacd" y="168.743572"/>
     <use style="fill:#ff0000;stroke:#ff0000;" x="302.850444" xlink:href="#m94a704bacd" y="178.364027"/>
     <use style="fill:#ff0000;stroke:#ff0000;" x="271.229296" xlink:href="#m94a704bacd" y="165.3788"/>
     <use style="fill:#ff0000;stroke:#ff0000;" x="286.239315" xlink:href="#m94a704bacd" y="159.704927"/>
     <use style="fill:#ff0000;stroke:#ff0000;" x="288.008381" xlink:href="#m94a704bacd" y="167.20421"/>
     <use style="fill:#ff0000;stroke:#ff0000;" x="256.749828" xlink:href="#m94a704bacd" y="149.048029"/>
     <use style="fill:#ff0000;stroke:#ff0000;" x="254.320381" xlink:href="#m94a704bacd" y="146.229195"/>
     <use style="fill:#ff0000;stroke:#ff0000;" x="280.548185" xlink:href="#m94a704bacd" y="163.738732"/>
     <use style="fill:#ff0000;stroke:#ff0000;" x="247.647362" xlink:href="#m94a704bacd" y="151.407862"/>
     <use style="fill:#ff0000;stroke:#ff0000;" x="255.502444" xlink:href="#m94a704bacd" y="150.760628"/>
     <use style="fill:#ff0000;stroke:#ff0000;" x="280.990635" xlink:href="#m94a704bacd" y="152.611118"/>
     <use style="fill:#ff0000;stroke:#ff0000;" x="293.59356" xlink:href="#m94a704bacd" y="169.314598"/>
     <use style="fill:#ff0000;stroke:#ff0000;" x="277.56825" xlink:href="#m94a704bacd" y="167.20357"/>
     <use style="fill:#ff0000;stroke:#ff0000;" x="267.134185" xlink:href="#m94a704bacd" y="155.95744"/>
     <use style="fill:#ff0000;stroke:#ff0000;" x="239.16689" xlink:href="#m94a704bacd" y="149.84739"/>
     <use style="fill:#ff0000;stroke:#ff0000;" x="293.277476" xlink:href="#m94a704bacd" y="176.268541"/>
     <use style="fill:#ff0000;stroke:#ff0000;" x="311.839586" xlink:href="#m94a704bacd" y="180.547094"/>
     <use style="fill:#ff0000;stroke:#ff0000;" x="277.806907" xlink:href="#m94a704bacd" y="160.678369"/>
     <use style="fill:#ff0000;stroke:#ff0000;" x="287.761536" xlink:href="#m94a704bacd" y="172.649185"/>
     <use style="fill:#ff0000;stroke:#ff0000;" x="290.603507" xlink:href="#m94a704bacd" y="171.57379"/>
     <use style="fill:#ff0000;stroke:#ff0000;" x="290.068938" xlink:href="#m94a704bacd" y="174.610021"/>
     <use style="fill:#ff0000;stroke:#ff0000;" x="245.119264" xlink:href="#m94a704bacd" y="144.045258"/>
     <use style="fill:#ff0000;stroke:#ff0000;" x="251.374684" xlink:href="#m94a704bacd" y="152.903472"/>
     <use style="fill:#ff0000;stroke:#ff0000;" x="281.279014" xlink:href="#m94a704bacd" y="170.104395"/>
     <use style="fill:#ff0000;stroke:#ff0000;" x="302.636922" xlink:href="#m94a704bacd" y="186.643328"/>
     <use style="fill:#ff0000;stroke:#ff0000;" x="268.674348" xlink:href="#m94a704bacd" y="162.510194"/>
     <use style="fill:#ff0000;stroke:#ff0000;" x="220.557365" xlink:href="#m94a704bacd" y="137.191555"/>
     <use style="fill:#ff0000;stroke:#ff0000;" x="280.683754" xlink:href="#m94a704bacd" y="159.753859"/>
     <use style="fill:#ff0000;stroke:#ff0000;" x="257.798985" xlink:href="#m94a704bacd" y="151.544676"/>
     <use style="fill:#ff0000;stroke:#ff0000;" x="248.176749" xlink:href="#m94a704bacd" y="157.912522"/>
     <use style="fill:#ff0000;stroke:#ff0000;" x="265.470349" xlink:href="#m94a704bacd" y="168.789375"/>
     <use style="fill:#ff0000;stroke:#ff0000;" x="286.861655" xlink:href="#m94a704bacd" y="165.119015"/>
     <use style="fill:#ff0000;stroke:#ff0000;" x="339.339609" xlink:href="#m94a704bacd" y="225.379858"/>
     <use style="fill:#ff0000;stroke:#ff0000;" x="262.32988" xlink:href="#m94a704bacd" y="154.621522"/>
     <use style="fill:#ff0000;stroke:#ff0000;" x="302.81986" xlink:href="#m94a704bacd" y="173.55593"/>
     <use style="fill:#ff0000;stroke:#ff0000;" x="266.368043" xlink:href="#m94a704bacd" y="160.322886"/>
     <use style="fill:#ff0000;stroke:#ff0000;" x="300.682144" xlink:href="#m94a704bacd" y="170.949917"/>
     <use style="fill:#ff0000;stroke:#ff0000;" x="250.9836" xlink:href="#m94a704bacd" y="141.632824"/>
     <use style="fill:#ff0000;stroke:#ff0000;" x="248.667777" xlink:href="#m94a704bacd" y="146.141781"/>
     <use style="fill:#ff0000;stroke:#ff0000;" x="299.403993" xlink:href="#m94a704bacd" y="187.441893"/>
     <use style="fill:#ff0000;stroke:#ff0000;" x="305.861131" xlink:href="#m94a704bacd" y="191.675958"/>
     <use style="fill:#ff0000;stroke:#ff0000;" x="287.965267" xlink:href="#m94a704bacd" y="169.008399"/>
     <use style="fill:#ff0000;stroke:#ff0000;" x="292.342179" xlink:href="#m94a704bacd" y="172.066151"/>
     <use style="fill:#ff0000;stroke:#ff0000;" x="211.3071" xlink:href="#m94a704bacd" y="139.171216"/>
     <use style="fill:#ff0000;stroke:#ff0000;" x="328.269679" xlink:href="#m94a704bacd" y="210.819972"/>
     <use style="fill:#ff0000;stroke:#ff0000;" x="263.076476" xlink:href="#m94a704bacd" y="164.952565"/>
     <use style="fill:#ff0000;stroke:#ff0000;" x="296.0703" xlink:href="#m94a704bacd" y="169.532605"/>
     <use style="fill:#ff0000;stroke:#ff0000;" x="280.976866" xlink:href="#m94a704bacd" y="167.061914"/>
     <use style="fill:#ff0000;stroke:#ff0000;" x="234.132445" xlink:href="#m94a704bacd" y="141.425928"/>
     <use style="fill:#ff0000;stroke:#ff0000;" x="260.168036" xlink:href="#m94a704bacd" y="159.383157"/>
    </g>
   </g>
   <g id="patch_3">
    <path d="M 57.6 307.584 
L 57.6 41.472 
" style="fill:none;stroke:#000000;stroke-linecap:square;stroke-linejoin:miter;stroke-width:0.8;"/>
   </g>
   <g id="patch_4">
    <path d="M 414.72 307.584 
L 414.72 41.472 
" style="fill:none;stroke:#000000;stroke-linecap:square;stroke-linejoin:miter;stroke-width:0.8;"/>
   </g>
   <g id="patch_5">
    <path d="M 57.6 307.584 
L 414.72 307.584 
" style="fill:none;stroke:#000000;stroke-linecap:square;stroke-linejoin:miter;stroke-width:0.8;"/>
   </g>
   <g id="patch_6">
    <path d="M 57.6 41.472 
L 414.72 41.472 
" style="fill:none;stroke:#000000;stroke-linecap:square;stroke-linejoin:miter;stroke-width:0.8;"/>
   </g>
  </g>
 </g>
 <defs>
  <clipPath id="p9ac862551a">
   <rect height="266.112" width="357.12" x="57.6" y="41.472"/>
  </clipPath>
 </defs>
</svg>
