<?xml version="1.0" encoding="utf-8" standalone="no"?>
<!DOCTYPE svg PUBLIC "-//W3C//DTD SVG 1.1//EN"
  "http://www.w3.org/Graphics/SVG/1.1/DTD/svg11.dtd">
<!-- Created with matplotlib (http://matplotlib.org/) -->
<svg height="345pt" version="1.1" viewBox="0 0 460 345" width="460pt" xmlns="http://www.w3.org/2000/svg" xmlns:xlink="http://www.w3.org/1999/xlink">
 <defs>
  <style type="text/css">
*{stroke-linecap:butt;stroke-linejoin:round;}
  </style>
 </defs>
 <g id="figure_1">
  <g id="patch_1">
   <path d="M 0 345.6 
L 460.8 345.6 
L 460.8 0 
L 0 0 
z
" style="fill:#ffffff;"/>
  </g>
  <g id="axes_1">
   <g id="patch_2">
    <path d="M 57.6 307.584 
L 414.72 307.584 
L 414.72 41.472 
L 57.6 41.472 
z
" style="fill:#ffffff;"/>
   </g>
   <g id="matplotlib.axis_1">
    <g id="xtick_1">
     <g id="line2d_1">
      <defs>
       <path d="M 0 0 
L 0 3.5 
" id="mc60adff916" style="stroke:#000000;stroke-width:0.8;"/>
      </defs>
      <g>
       <use style="stroke:#000000;stroke-width:0.8;" x="65.655338" xlink:href="#mc60adff916" y="307.584"/>
      </g>
     </g>
     <g id="text_1">
      <!-- 0 -->
      <defs>
       <path d="M 31.78125 66.40625 
Q 24.171875 66.40625 20.328125 58.90625 
Q 16.5 51.421875 16.5 36.375 
Q 16.5 21.390625 20.328125 13.890625 
Q 24.171875 6.390625 31.78125 6.390625 
Q 39.453125 6.390625 43.28125 13.890625 
Q 47.125 21.390625 47.125 36.375 
Q 47.125 51.421875 43.28125 58.90625 
Q 39.453125 66.40625 31.78125 66.40625 
z
M 31.78125 74.21875 
Q 44.046875 74.21875 50.515625 64.515625 
Q 56.984375 54.828125 56.984375 36.375 
Q 56.984375 17.96875 50.515625 8.265625 
Q 44.046875 -1.421875 31.78125 -1.421875 
Q 19.53125 -1.421875 13.0625 8.265625 
Q 6.59375 17.96875 6.59375 36.375 
Q 6.59375 54.828125 13.0625 64.515625 
Q 19.53125 74.21875 31.78125 74.21875 
z
" id="DejaVuSans-30"/>
      </defs>
      <g transform="translate(62.474088 322.182437)scale(0.1 -0.1)">
       <use xlink:href="#DejaVuSans-30"/>
      </g>
     </g>
    </g>
    <g id="xtick_2">
     <g id="line2d_2">
      <g>
       <use style="stroke:#000000;stroke-width:0.8;" x="119.357594" xlink:href="#mc60adff916" y="307.584"/>
      </g>
     </g>
     <g id="text_2">
      <!-- 20 -->
      <defs>
       <path d="M 19.1875 8.296875 
L 53.609375 8.296875 
L 53.609375 0 
L 7.328125 0 
L 7.328125 8.296875 
Q 12.9375 14.109375 22.625 23.890625 
Q 32.328125 33.6875 34.8125 36.53125 
Q 39.546875 41.84375 41.421875 45.53125 
Q 43.3125 49.21875 43.3125 52.78125 
Q 43.3125 58.59375 39.234375 62.25 
Q 35.15625 65.921875 28.609375 65.921875 
Q 23.96875 65.921875 18.8125 64.3125 
Q 13.671875 62.703125 7.8125 59.421875 
L 7.8125 69.390625 
Q 13.765625 71.78125 18.9375 73 
Q 24.125 74.21875 28.421875 74.21875 
Q 39.75 74.21875 46.484375 68.546875 
Q 53.21875 62.890625 53.21875 53.421875 
Q 53.21875 48.921875 51.53125 44.890625 
Q 49.859375 40.875 45.40625 35.40625 
Q 44.1875 33.984375 37.640625 27.21875 
Q 31.109375 20.453125 19.1875 8.296875 
z
" id="DejaVuSans-32"/>
      </defs>
      <g transform="translate(112.995094 322.182437)scale(0.1 -0.1)">
       <use xlink:href="#DejaVuSans-32"/>
       <use x="63.623047" xlink:href="#DejaVuSans-30"/>
      </g>
     </g>
    </g>
    <g id="xtick_3">
     <g id="line2d_3">
      <g>
       <use style="stroke:#000000;stroke-width:0.8;" x="173.05985" xlink:href="#mc60adff916" y="307.584"/>
      </g>
     </g>
     <g id="text_3">
      <!-- 40 -->
      <defs>
       <path d="M 37.796875 64.3125 
L 12.890625 25.390625 
L 37.796875 25.390625 
z
M 35.203125 72.90625 
L 47.609375 72.90625 
L 47.609375 25.390625 
L 58.015625 25.390625 
L 58.015625 17.1875 
L 47.609375 17.1875 
L 47.609375 0 
L 37.796875 0 
L 37.796875 17.1875 
L 4.890625 17.1875 
L 4.890625 26.703125 
z
" id="DejaVuSans-34"/>
      </defs>
      <g transform="translate(166.69735 322.182437)scale(0.1 -0.1)">
       <use xlink:href="#DejaVuSans-34"/>
       <use x="63.623047" xlink:href="#DejaVuSans-30"/>
      </g>
     </g>
    </g>
    <g id="xtick_4">
     <g id="line2d_4">
      <g>
       <use style="stroke:#000000;stroke-width:0.8;" x="226.762105" xlink:href="#mc60adff916" y="307.584"/>
      </g>
     </g>
     <g id="text_4">
      <!-- 60 -->
      <defs>
       <path d="M 33.015625 40.375 
Q 26.375 40.375 22.484375 35.828125 
Q 18.609375 31.296875 18.609375 23.390625 
Q 18.609375 15.53125 22.484375 10.953125 
Q 26.375 6.390625 33.015625 6.390625 
Q 39.65625 6.390625 43.53125 10.953125 
Q 47.40625 15.53125 47.40625 23.390625 
Q 47.40625 31.296875 43.53125 35.828125 
Q 39.65625 40.375 33.015625 40.375 
z
M 52.59375 71.296875 
L 52.59375 62.3125 
Q 48.875 64.0625 45.09375 64.984375 
Q 41.3125 65.921875 37.59375 65.921875 
Q 27.828125 65.921875 22.671875 59.328125 
Q 17.53125 52.734375 16.796875 39.40625 
Q 19.671875 43.65625 24.015625 45.921875 
Q 28.375 48.1875 33.59375 48.1875 
Q 44.578125 48.1875 50.953125 41.515625 
Q 57.328125 34.859375 57.328125 23.390625 
Q 57.328125 12.15625 50.6875 5.359375 
Q 44.046875 -1.421875 33.015625 -1.421875 
Q 20.359375 -1.421875 13.671875 8.265625 
Q 6.984375 17.96875 6.984375 36.375 
Q 6.984375 53.65625 15.1875 63.9375 
Q 23.390625 74.21875 37.203125 74.21875 
Q 40.921875 74.21875 44.703125 73.484375 
Q 48.484375 72.75 52.59375 71.296875 
z
" id="DejaVuSans-36"/>
      </defs>
      <g transform="translate(220.399605 322.182437)scale(0.1 -0.1)">
       <use xlink:href="#DejaVuSans-36"/>
       <use x="63.623047" xlink:href="#DejaVuSans-30"/>
      </g>
     </g>
    </g>
    <g id="xtick_5">
     <g id="line2d_5">
      <g>
       <use style="stroke:#000000;stroke-width:0.8;" x="280.464361" xlink:href="#mc60adff916" y="307.584"/>
      </g>
     </g>
     <g id="text_5">
      <!-- 80 -->
      <defs>
       <path d="M 31.78125 34.625 
Q 24.75 34.625 20.71875 30.859375 
Q 16.703125 27.09375 16.703125 20.515625 
Q 16.703125 13.921875 20.71875 10.15625 
Q 24.75 6.390625 31.78125 6.390625 
Q 38.8125 6.390625 42.859375 10.171875 
Q 46.921875 13.96875 46.921875 20.515625 
Q 46.921875 27.09375 42.890625 30.859375 
Q 38.875 34.625 31.78125 34.625 
z
M 21.921875 38.8125 
Q 15.578125 40.375 12.03125 44.71875 
Q 8.5 49.078125 8.5 55.328125 
Q 8.5 64.0625 14.71875 69.140625 
Q 20.953125 74.21875 31.78125 74.21875 
Q 42.671875 74.21875 48.875 69.140625 
Q 55.078125 64.0625 55.078125 55.328125 
Q 55.078125 49.078125 51.53125 44.71875 
Q 48 40.375 41.703125 38.8125 
Q 48.828125 37.15625 52.796875 32.3125 
Q 56.78125 27.484375 56.78125 20.515625 
Q 56.78125 9.90625 50.3125 4.234375 
Q 43.84375 -1.421875 31.78125 -1.421875 
Q 19.734375 -1.421875 13.25 4.234375 
Q 6.78125 9.90625 6.78125 20.515625 
Q 6.78125 27.484375 10.78125 32.3125 
Q 14.796875 37.15625 21.921875 38.8125 
z
M 18.3125 54.390625 
Q 18.3125 48.734375 21.84375 45.5625 
Q 25.390625 42.390625 31.78125 42.390625 
Q 38.140625 42.390625 41.71875 45.5625 
Q 45.3125 48.734375 45.3125 54.390625 
Q 45.3125 60.0625 41.71875 63.234375 
Q 38.140625 66.40625 31.78125 66.40625 
Q 25.390625 66.40625 21.84375 63.234375 
Q 18.3125 60.0625 18.3125 54.390625 
z
" id="DejaVuSans-38"/>
      </defs>
      <g transform="translate(274.101861 322.182437)scale(0.1 -0.1)">
       <use xlink:href="#DejaVuSans-38"/>
       <use x="63.623047" xlink:href="#DejaVuSans-30"/>
      </g>
     </g>
    </g>
    <g id="xtick_6">
     <g id="line2d_6">
      <g>
       <use style="stroke:#000000;stroke-width:0.8;" x="334.166617" xlink:href="#mc60adff916" y="307.584"/>
      </g>
     </g>
     <g id="text_6">
      <!-- 100 -->
      <defs>
       <path d="M 12.40625 8.296875 
L 28.515625 8.296875 
L 28.515625 63.921875 
L 10.984375 60.40625 
L 10.984375 69.390625 
L 28.421875 72.90625 
L 38.28125 72.90625 
L 38.28125 8.296875 
L 54.390625 8.296875 
L 54.390625 0 
L 12.40625 0 
z
" id="DejaVuSans-31"/>
      </defs>
      <g transform="translate(324.622867 322.182437)scale(0.1 -0.1)">
       <use xlink:href="#DejaVuSans-31"/>
       <use x="63.623047" xlink:href="#DejaVuSans-30"/>
       <use x="127.246094" xlink:href="#DejaVuSans-30"/>
      </g>
     </g>
    </g>
    <g id="xtick_7">
     <g id="line2d_7">
      <g>
       <use style="stroke:#000000;stroke-width:0.8;" x="387.868872" xlink:href="#mc60adff916" y="307.584"/>
      </g>
     </g>
     <g id="text_7">
      <!-- 120 -->
      <g transform="translate(378.325122 322.182437)scale(0.1 -0.1)">
       <use xlink:href="#DejaVuSans-31"/>
       <use x="63.623047" xlink:href="#DejaVuSans-32"/>
       <use x="127.246094" xlink:href="#DejaVuSans-30"/>
      </g>
     </g>
    </g>
   </g>
   <g id="matplotlib.axis_2">
    <g id="ytick_1">
     <g id="line2d_8">
      <defs>
       <path d="M 0 0 
L -3.5 0 
" id="m3309abb999" style="stroke:#000000;stroke-width:0.8;"/>
      </defs>
      <g>
       <use style="stroke:#000000;stroke-width:0.8;" x="57.6" xlink:href="#m3309abb999" y="307.584"/>
      </g>
     </g>
     <g id="text_8">
      <!-- −20 -->
      <defs>
       <path d="M 10.59375 35.5 
L 73.1875 35.5 
L 73.1875 27.203125 
L 10.59375 27.203125 
z
" id="DejaVuSans-2212"/>
      </defs>
      <g transform="translate(29.495313 311.383219)scale(0.1 -0.1)">
       <use xlink:href="#DejaVuSans-2212"/>
       <use x="83.789062" xlink:href="#DejaVuSans-32"/>
       <use x="147.412109" xlink:href="#DejaVuSans-30"/>
      </g>
     </g>
    </g>
    <g id="ytick_2">
     <g id="line2d_9">
      <g>
       <use style="stroke:#000000;stroke-width:0.8;" x="57.6" xlink:href="#m3309abb999" y="272.1024"/>
      </g>
     </g>
     <g id="text_9">
      <!-- 0 -->
      <g transform="translate(44.2375 275.901619)scale(0.1 -0.1)">
       <use xlink:href="#DejaVuSans-30"/>
      </g>
     </g>
    </g>
    <g id="ytick_3">
     <g id="line2d_10">
      <g>
       <use style="stroke:#000000;stroke-width:0.8;" x="57.6" xlink:href="#m3309abb999" y="236.6208"/>
      </g>
     </g>
     <g id="text_10">
      <!-- 20 -->
      <g transform="translate(37.875 240.420019)scale(0.1 -0.1)">
       <use xlink:href="#DejaVuSans-32"/>
       <use x="63.623047" xlink:href="#DejaVuSans-30"/>
      </g>
     </g>
    </g>
    <g id="ytick_4">
     <g id="line2d_11">
      <g>
       <use style="stroke:#000000;stroke-width:0.8;" x="57.6" xlink:href="#m3309abb999" y="201.1392"/>
      </g>
     </g>
     <g id="text_11">
      <!-- 40 -->
      <g transform="translate(37.875 204.938419)scale(0.1 -0.1)">
       <use xlink:href="#DejaVuSans-34"/>
       <use x="63.623047" xlink:href="#DejaVuSans-30"/>
      </g>
     </g>
    </g>
    <g id="ytick_5">
     <g id="line2d_12">
      <g>
       <use style="stroke:#000000;stroke-width:0.8;" x="57.6" xlink:href="#m3309abb999" y="165.6576"/>
      </g>
     </g>
     <g id="text_12">
      <!-- 60 -->
      <g transform="translate(37.875 169.456819)scale(0.1 -0.1)">
       <use xlink:href="#DejaVuSans-36"/>
       <use x="63.623047" xlink:href="#DejaVuSans-30"/>
      </g>
     </g>
    </g>
    <g id="ytick_6">
     <g id="line2d_13">
      <g>
       <use style="stroke:#000000;stroke-width:0.8;" x="57.6" xlink:href="#m3309abb999" y="130.176"/>
      </g>
     </g>
     <g id="text_13">
      <!-- 80 -->
      <g transform="translate(37.875 133.975219)scale(0.1 -0.1)">
       <use xlink:href="#DejaVuSans-38"/>
       <use x="63.623047" xlink:href="#DejaVuSans-30"/>
      </g>
     </g>
    </g>
    <g id="ytick_7">
     <g id="line2d_14">
      <g>
       <use style="stroke:#000000;stroke-width:0.8;" x="57.6" xlink:href="#m3309abb999" y="94.6944"/>
      </g>
     </g>
     <g id="text_14">
      <!-- 100 -->
      <g transform="translate(31.5125 98.493619)scale(0.1 -0.1)">
       <use xlink:href="#DejaVuSans-31"/>
       <use x="63.623047" xlink:href="#DejaVuSans-30"/>
       <use x="127.246094" xlink:href="#DejaVuSans-30"/>
      </g>
     </g>
    </g>
    <g id="ytick_8">
     <g id="line2d_15">
      <g>
       <use style="stroke:#000000;stroke-width:0.8;" x="57.6" xlink:href="#m3309abb999" y="59.2128"/>
      </g>
     </g>
     <g id="text_15">
      <!-- 120 -->
      <g transform="translate(31.5125 63.012019)scale(0.1 -0.1)">
       <use xlink:href="#DejaVuSans-31"/>
       <use x="63.623047" xlink:href="#DejaVuSans-32"/>
       <use x="127.246094" xlink:href="#DejaVuSans-30"/>
      </g>
     </g>
    </g>
   </g>
   <g id="line2d_16">
    <path clip-path="url(#p391525e889)" d="M 66.334829 272.118333 
L 67.651574 272.104145 
L 68.641355 272.124282 
L 69.962648 272.306919 
L 70.367454 272.203449 
L 71.401372 272.203893 
L 72.07314 272.197081 
L 72.640434 272.34243 
L 76.002569 272.435541 
L 76.514857 272.284307 
L 77.061035 272.367314 
L 79.80177 272.229699 
L 80.477983 272.371016 
L 82.209505 272.220167 
L 83.177578 272.481631 
L 84.192985 272.335077 
L 87.459756 272.606874 
L 89.558393 272.273674 
L 90.939549 272.441109 
L 92.215662 272.301454 
L 93.454999 272.321305 
L 93.773835 272.425304 
L 99.272329 272.494291 
L 101.075054 272.068079 
L 102.320353 272.169429 
L 103.226391 272.016557 
L 103.598417 271.869509 
L 104.566376 271.732865 
L 105.111218 271.819532 
L 106.088066 271.8621 
L 108.167349 271.883398 
L 108.763231 271.829683 
L 109.776422 271.557684 
L 111.5038 271.568902 
L 113.283608 271.411702 
L 114.297749 271.155217 
L 115.722695 271.027438 
L 116.65174 270.79925 
L 118.085434 270.889108 
L 118.595439 270.944541 
L 118.924254 270.865282 
L 119.742893 270.788306 
L 120.283199 270.617738 
L 121.106512 270.596542 
L 121.692677 270.70919 
L 124.091827 270.288693 
L 125.11717 270.349516 
L 125.999955 270.142832 
L 133.270456 269.653033 
L 133.873332 269.673837 
L 135.062849 269.566594 
L 135.477761 269.609106 
L 137.199693 269.380132 
L 137.80223 269.489155 
L 141.509226 268.880919 
L 142.030997 269.073099 
L 143.161336 268.87984 
L 145.637218 268.706691 
L 146.234287 268.449315 
L 146.845842 268.334402 
L 147.611518 268.360776 
L 149.045859 267.990166 
L 149.71513 267.956654 
L 151.1378 267.561337 
L 151.998157 267.558787 
L 153.367443 267.27729 
L 154.409758 267.252327 
L 154.888276 267.048458 
L 158.698202 266.421691 
L 160.164684 266.291765 
L 160.840669 266.12687 
L 161.653159 265.802498 
L 162.703224 265.628158 
L 163.392464 265.373906 
L 165.403946 264.973945 
L 166.161167 264.790466 
L 166.711141 264.465797 
L 168.341147 264.114777 
L 170.394127 263.573371 
L 174.393103 262.469986 
L 175.100796 262.126223 
L 175.9642 261.945816 
L 179.009513 260.490248 
L 179.64093 260.344338 
L 180.166283 259.950831 
L 181.064002 259.711052 
L 183.155455 258.787276 
L 183.719142 258.69867 
L 184.070057 258.459994 
L 185.019103 258.24366 
L 186.273401 257.691975 
L 186.660624 257.149965 
L 187.026077 256.916683 
L 187.690473 256.353655 
L 189.551943 255.450093 
L 189.990298 254.932512 
L 191.879494 254.097589 
L 192.221327 253.695584 
L 192.896688 253.515341 
L 194.776422 252.449845 
L 195.264841 251.982717 
L 197.165492 251.168504 
L 197.565559 250.776155 
L 200.410467 249.407527 
L 200.875262 248.891462 
L 202.133656 247.959958 
L 202.338003 247.475486 
L 204.004391 246.185691 
L 204.875215 245.794964 
L 207.543175 243.576849 
L 208.392343 242.656768 
L 208.551845 242.088418 
L 208.8687 241.645774 
L 209.33736 241.261621 
L 209.64305 240.748209 
L 210.04229 240.322404 
L 210.585033 239.980782 
L 211.312657 238.964187 
L 211.851825 238.526269 
L 213.862262 235.903349 
L 214.423732 235.495654 
L 215.026329 234.414193 
L 217.25453 231.811923 
L 217.762765 230.773638 
L 218.577386 228.590714 
L 218.936585 228.247296 
L 218.998982 227.603415 
L 219.526518 227.147539 
L 220.45868 225.463945 
L 220.500902 224.881846 
L 220.987117 224.346735 
L 221.119325 223.768776 
L 222.693192 220.658723 
L 222.703707 219.9663 
L 222.93522 219.416385 
L 224.123056 217.635095 
L 224.598092 216.116245 
L 225.007226 215.67949 
L 225.149968 215.114438 
L 225.074048 213.859414 
L 225.48462 212.941711 
L 225.387712 212.827795 
L 225.213808 212.033362 
L 225.390997 211.673076 
L 225.693601 210.477548 
L 225.893454 209.550781 
L 225.980776 208.49049 
L 225.701854 207.67489 
L 225.858747 207.283529 
L 226.61847 206.565526 
L 226.815152 205.803063 
L 227.243448 205.262469 
L 227.552425 204.513489 
L 228.175439 203.034769 
L 228.312605 202.72951 
L 228.300796 202.406647 
L 228.455504 201.954672 
L 228.981166 201.057659 
L 229.042943 200.818573 
L 228.970548 200.50498 
L 229.2252 199.718882 
L 229.540722 199.492489 
L 229.856288 198.828248 
L 230.281741 198.419269 
L 230.378377 198.041006 
L 230.350108 196.442405 
L 231.387531 193.532378 
L 231.221169 193.333389 
L 231.513682 192.53238 
L 231.408812 192.193352 
L 232.026152 189.594747 
L 231.854835 189.13418 
L 232.113888 188.75056 
L 232.586472 188.268805 
L 232.381619 187.896506 
L 232.595197 187.550056 
L 232.545603 187.209501 
L 232.902876 186.396788 
L 232.930148 185.286422 
L 233.224591 184.849334 
L 233.47018 183.768445 
L 233.782567 183.520156 
L 233.560248 183.249266 
L 233.613698 182.85067 
L 233.952634 182.153416 
L 234.174035 181.997497 
L 234.336885 181.663152 
L 234.367085 180.689819 
L 234.974644 179.780231 
L 235.076639 179.430738 
L 235.336925 179.082232 
L 235.482165 177.727158 
L 235.801373 177.043562 
L 236.317036 176.199378 
L 236.756378 174.654651 
L 237.074581 174.005824 
L 237.278005 173.212668 
L 237.202271 172.868906 
L 237.48287 172.277606 
L 237.514821 171.800418 
L 237.678445 171.409999 
L 237.720095 170.969092 
L 238.336636 169.976027 
L 238.169453 169.612651 
L 238.154208 168.69408 
L 238.438253 168.0129 
L 238.644043 167.520681 
L 239.086087 166.842223 
L 238.963716 166.039318 
L 239.100279 165.631189 
L 239.225907 164.432964 
L 239.462713 164.061739 
L 239.429035 163.755915 
L 239.565228 163.38272 
L 239.453735 163.067043 
L 239.717491 162.8218 
L 239.600346 162.547316 
L 240.179269 161.469873 
L 240.431379 160.503757 
L 240.665202 160.305975 
L 240.821882 159.719845 
L 241.34655 159.122598 
L 241.572905 158.55094 
L 241.451413 158.315692 
L 241.429965 157.483069 
L 241.964659 157.091105 
L 242.070848 156.84577 
L 242.324782 156.545681 
L 242.108092 156.281403 
L 242.106725 155.628552 
L 243.541134 152.812508 
L 243.787586 152.257129 
L 243.743226 151.975665 
L 244.16737 151.165783 
L 244.55185 150.803534 
L 244.565327 150.469747 
L 245.33581 149.014032 
L 245.681137 148.861175 
L 245.932367 148.272398 
L 245.810808 147.874393 
L 246.230983 146.534972 
L 246.684238 146.064867 
L 246.694244 145.711577 
L 247.709423 143.385663 
L 247.709423 143.385663 
" style="fill:none;stroke:#0000ff;stroke-linecap:square;stroke-width:1.5;"/>
   </g>
   <g id="line2d_17">
    <path clip-path="url(#p391525e889)" d="M 66.191371 271.983945 
L 70.172788 271.871004 
L 71.272114 271.915825 
L 71.921058 271.758395 
L 75.873378 272.015656 
L 76.165523 271.99627 
L 77.532739 272.113011 
L 80.881863 272.335681 
L 81.251027 272.21511 
L 88.722321 272.688227 
L 90.231744 272.945732 
L 91.584912 272.665246 
L 93.452731 272.552833 
L 93.828754 272.722335 
L 97.911979 273.131087 
L 101.708677 273.274209 
L 102.335648 273.094268 
L 103.729648 273.32838 
L 104.912456 273.158626 
L 105.952741 273.438771 
L 107.284004 273.505439 
L 107.951155 273.790791 
L 110.642729 274.233612 
L 111.224903 274.107847 
L 111.700445 274.188036 
L 112.478989 274.089004 
L 113.028676 274.227834 
L 114.529357 274.035784 
L 115.557561 274.270946 
L 121.250468 274.017094 
L 121.959642 274.072597 
L 123.016053 274.021652 
L 124.136576 273.952492 
L 126.72523 274.482222 
L 128.064189 274.882879 
L 129.222172 274.904029 
L 130.353696 274.961882 
L 132.011239 275.017768 
L 133.076694 275.096542 
L 134.143794 275.052573 
L 134.909262 274.971577 
L 137.06615 275.127596 
L 138.209287 275.343354 
L 138.792586 275.316798 
L 139.108941 275.421175 
L 139.778853 275.517764 
L 140.296686 275.479389 
L 140.911737 275.671243 
L 142.116137 275.785016 
L 146.357086 276.055428 
L 147.060626 275.828011 
L 149.848279 276.004015 
L 150.719584 276.107371 
L 153.002859 275.973268 
L 154.450523 276.072643 
L 155.292942 275.895487 
L 157.081313 276.102948 
L 158.000851 276.086989 
L 159.674199 275.686419 
L 160.489113 275.572594 
L 162.016852 275.030561 
L 163.533109 274.883411 
L 166.133913 274.928469 
L 168.216188 275.009692 
L 168.861563 274.789577 
L 170.339914 274.726318 
L 172.5993 273.926371 
L 173.374625 273.640822 
L 176.512345 273.07757 
L 177.131636 272.86901 
L 177.842835 272.770205 
L 178.699733 272.435018 
L 180.166272 272.225418 
L 183.249779 271.262193 
L 184.931416 270.575653 
L 186.583369 270.303871 
L 188.564119 269.27214 
L 190.023108 268.850153 
L 190.679481 268.44852 
L 191.344842 268.252907 
L 191.925977 267.86049 
L 193.946918 267.256331 
L 194.412233 266.929 
L 196.555009 266.329486 
L 197.099297 266.057218 
L 197.898023 265.82955 
L 198.969701 265.225461 
L 200.206497 264.914049 
L 204.429628 263.408882 
L 204.934943 263.113668 
L 205.70209 262.855735 
L 206.355774 262.501908 
L 208.398299 261.785355 
L 209.42458 261.259635 
L 211.045718 260.648321 
L 212.210963 260.173426 
L 213.345796 259.355851 
L 214.885539 258.815613 
L 218.426071 257.273741 
L 219.264709 256.988718 
L 220.566061 256.286011 
L 221.999441 255.573391 
L 224.105078 254.544983 
L 225.090416 254.05411 
L 226.186358 253.193093 
L 226.728443 252.851831 
L 227.023883 252.322564 
L 227.995144 251.540298 
L 228.754303 251.292781 
L 230.070707 250.427271 
L 231.216935 249.468552 
L 233.280461 247.97933 
L 235.850703 245.467362 
L 236.34961 245.005249 
L 236.792889 244.40451 
L 238.735441 242.778921 
L 239.197885 242.255885 
L 239.724622 241.920737 
L 239.903252 241.448965 
L 240.804874 240.130104 
L 241.56031 239.682803 
L 241.821624 239.311084 
L 242.744012 238.58525 
L 243.970529 236.750463 
L 244.334939 236.257179 
L 244.572844 235.41783 
L 244.979001 235.099871 
L 244.979687 234.859516 
L 245.179514 234.601286 
L 245.282082 234.230832 
L 245.666121 233.997016 
L 245.886645 233.629578 
L 245.921422 233.237865 
L 246.125984 233.046684 
L 246.472812 232.920548 
L 246.801211 232.505133 
L 246.945878 232.060332 
L 247.215738 231.788428 
L 248.069509 230.424771 
L 248.194082 229.565141 
L 248.508597 229.072588 
L 248.956075 228.674992 
L 249.277261 228.213958 
L 249.522669 227.540324 
L 250.158714 226.16748 
L 250.758904 225.586127 
L 251.343386 224.332023 
L 251.702625 224.160808 
L 252.192101 223.685642 
L 252.613455 223.397787 
L 252.505894 223.146038 
L 252.829062 222.886555 
L 253.185983 221.303338 
L 253.44442 221.121541 
L 253.608597 220.794791 
L 253.939855 220.818762 
L 254.237046 220.608609 
L 254.824394 220.403978 
L 254.86366 220.0023 
L 256.085141 218.794893 
L 256.170338 218.114669 
L 256.710646 217.63561 
L 256.864234 217.24828 
L 257.544719 216.626339 
L 257.703006 215.727731 
L 258.145552 215.019077 
L 258.648586 214.881666 
L 258.800407 214.542208 
L 258.890156 214.06669 
L 259.257709 213.781067 
L 259.333051 213.548378 
L 259.712922 213.321341 
L 259.897103 213.036579 
L 259.870879 212.693668 
L 260.290484 212.427416 
L 261.422218 211.299223 
L 261.77486 211.019326 
L 261.784059 210.722623 
L 262.303906 209.94108 
L 262.822868 209.734856 
L 263.630555 209.036378 
L 263.895409 208.677535 
L 264.198644 207.918356 
L 264.400141 207.489878 
L 264.390014 207.105753 
L 265.058186 206.315015 
L 265.875269 205.748209 
L 267.426253 203.338046 
L 268.095452 202.727834 
L 268.507372 202.427317 
L 268.947062 201.750009 
L 268.925863 201.46643 
L 269.557953 200.451702 
L 269.600843 200.100342 
L 270.087646 199.422419 
L 270.428971 198.950155 
L 270.875576 198.591964 
L 270.910226 198.171751 
L 271.068266 197.823059 
L 272.053346 196.910727 
L 272.541447 196.261098 
L 272.589618 196.076599 
L 273.440887 195.454677 
L 273.603081 195.006079 
L 273.940575 194.60431 
L 274.056187 194.171401 
L 274.492146 193.779408 
L 274.74745 193.301432 
L 276.160266 191.697736 
L 276.879441 191.077443 
L 277.010616 190.737922 
L 277.272937 190.434001 
L 277.755168 190.220309 
L 277.997747 189.913848 
L 278.35196 189.67178 
L 278.498498 189.250912 
L 278.911501 189.011535 
L 279.135077 188.700401 
L 279.236316 188.308145 
L 280.223503 187.497868 
L 280.884641 186.800178 
L 281.333416 185.991508 
L 282.065667 185.404142 
L 282.404249 184.985723 
L 282.824433 184.741247 
L 283.268395 183.618198 
L 283.992891 182.473579 
L 284.369436 182.090762 
L 284.366745 181.666947 
L 285.47194 180.243342 
L 285.642738 179.758464 
L 286.398103 179.172436 
L 286.487257 178.921839 
L 286.889472 178.76512 
L 287.237798 178.481155 
L 287.3896 178.10182 
L 287.815364 177.800848 
L 287.931179 177.462312 
L 288.293824 177.006435 
L 288.684362 176.773329 
L 289.008593 176.410693 
L 289.176625 176.050764 
L 289.897921 175.454296 
L 290.0012 175.128962 
L 290.422902 174.582164 
L 290.38531 174.157511 
L 291.133538 173.342524 
L 291.461397 173.20189 
L 291.54033 172.332771 
L 292.27808 171.667856 
L 292.27808 171.667856 
" style="fill:none;stroke:#0000ff;stroke-linecap:square;stroke-width:1.5;"/>
   </g>
   <g id="line2d_18">
    <path clip-path="url(#p391525e889)" d="M 66.132302 271.950168 
L 67.826541 272.040129 
L 68.825108 272.182927 
L 69.05868 272.039231 
L 72.837035 272.512441 
L 73.228964 272.383345 
L 74.323289 272.365769 
L 79.433635 272.561887 
L 79.608402 272.685566 
L 81.557608 272.830351 
L 82.659644 273.091504 
L 84.083232 272.987579 
L 85.87433 273.249574 
L 87.567951 273.428628 
L 87.943394 273.487633 
L 90.240173 273.179841 
L 90.758799 273.03969 
L 92.508015 273.008616 
L 93.567379 272.859806 
L 94.325799 272.923693 
L 94.644694 272.823337 
L 95.339338 272.95088 
L 98.737697 272.668938 
L 99.327633 272.463921 
L 99.889415 272.550905 
L 100.966899 272.360015 
L 101.440779 272.439855 
L 103.342403 272.209736 
L 103.587024 272.312427 
L 105.094243 272.14724 
L 107.021058 271.950647 
L 107.790942 271.827968 
L 108.448293 271.838496 
L 108.884642 271.63801 
L 110.228546 271.658698 
L 110.804659 271.51973 
L 111.693532 271.648981 
L 116.30817 270.79944 
L 116.706798 270.878662 
L 117.117087 270.826686 
L 117.991107 270.496822 
L 119.060998 270.302566 
L 119.374642 270.188582 
L 120.509331 270.156599 
L 122.226618 269.665947 
L 129.679201 268.271475 
L 130.37907 268.316029 
L 130.984656 268.22209 
L 131.175393 268.387695 
L 133.65057 268.241329 
L 135.443738 267.77379 
L 138.239027 267.604501 
L 139.854517 267.358588 
L 140.26015 267.291678 
L 140.748609 267.43318 
L 141.758893 267.148999 
L 143.026199 267.029657 
L 143.735325 266.910791 
L 144.479538 266.969662 
L 145.936358 266.830503 
L 146.903212 266.884862 
L 148.52621 266.54149 
L 150.502524 265.907758 
L 151.3158 265.657955 
L 152.104648 265.578199 
L 152.818026 265.32423 
L 153.326884 264.95606 
L 154.02884 264.661666 
L 155.325226 264.346368 
L 156.850965 263.91536 
L 158.352228 263.259989 
L 159.641582 262.89742 
L 160.28857 262.624647 
L 162.225103 262.153518 
L 163.321563 261.624919 
L 164.378153 260.869481 
L 165.104668 260.544486 
L 165.879168 260.425023 
L 167.568629 259.872591 
L 169.27174 258.968106 
L 169.981502 258.550571 
L 170.558447 258.455394 
L 171.858216 257.921737 
L 173.803742 256.924723 
L 174.306047 256.490505 
L 174.942527 256.139008 
L 175.573513 255.968338 
L 176.807549 255.456036 
L 177.490039 255.145809 
L 178.55193 254.116596 
L 179.505828 253.904908 
L 181.516222 252.627198 
L 181.931415 252.377643 
L 182.430048 251.845561 
L 185.02214 250.522458 
L 185.322731 250.005924 
L 186.812953 249.047863 
L 187.193288 248.545249 
L 187.577895 248.262904 
L 189.15164 246.322611 
L 190.969557 244.562146 
L 191.163073 244.094579 
L 192.609917 242.890319 
L 192.797203 242.46017 
L 193.350749 241.980249 
L 193.498402 241.5396 
L 194.901645 239.652723 
L 195.51206 239.182422 
L 196.288678 238.208289 
L 196.5338 237.638289 
L 196.999782 237.089823 
L 197.520184 236.220635 
L 198.342561 235.330589 
L 198.366146 234.767776 
L 198.844798 234.362252 
L 200.204646 232.061411 
L 200.501546 231.56926 
L 200.872609 230.5675 
L 201.283604 229.965583 
L 201.306305 229.47584 
L 201.695786 228.968463 
L 201.878081 227.95902 
L 202.192237 227.456257 
L 202.626781 226.356417 
L 203.215636 225.449533 
L 203.456336 224.796685 
L 203.902697 224.244643 
L 204.067583 223.683823 
L 205.271911 221.791654 
L 205.867721 219.980762 
L 206.229178 219.415135 
L 206.097305 218.438478 
L 206.313198 217.913302 
L 206.814039 217.441717 
L 206.903242 216.872623 
L 207.236188 215.980977 
L 207.199357 215.427179 
L 207.802691 212.782613 
L 208.225248 211.753161 
L 208.227316 210.56523 
L 208.452391 210.079889 
L 208.478724 209.593759 
L 208.224638 208.901089 
L 208.622524 206.462868 
L 208.2406 205.901045 
L 208.060419 205.475528 
L 208.125525 204.837265 
L 208.195838 204.320256 
L 208.008814 203.71091 
L 207.954029 203.371757 
L 208.318505 202.418801 
L 207.965214 202.114338 
L 207.851781 201.714078 
L 207.975975 201.600657 
L 207.754976 201.004679 
L 207.820429 200.40064 
L 207.968667 200.018027 
L 208.299338 199.653423 
L 208.120712 199.439796 
L 208.143407 199.027807 
L 208.038071 198.699879 
L 208.264911 198.338974 
L 208.268059 196.020285 
L 208.078618 195.535765 
L 208.098822 195.106715 
L 207.99471 194.803154 
L 208.079921 194.116035 
L 207.962727 193.755772 
L 208.30757 193.170958 
L 208.325094 191.928218 
L 208.417837 191.587601 
L 208.562686 190.062602 
L 209.00419 189.730959 
L 209.036609 188.51899 
L 209.257702 188.273814 
L 209.22952 188.010795 
L 209.374497 187.702836 
L 209.369231 187.226139 
L 209.133357 187.025969 
L 209.237974 186.657297 
L 209.170084 185.919757 
L 209.219978 185.609203 
L 209.081165 185.238696 
L 209.214749 184.927129 
L 209.101835 184.595578 
L 209.402376 184.381876 
L 209.58368 183.832371 
L 209.811529 183.53645 
L 209.930535 183.1644 
L 209.658095 182.754594 
L 209.490916 182.273002 
L 209.707365 181.50504 
L 209.3025 180.695212 
L 209.114947 180.351353 
L 208.960011 178.872504 
L 208.780068 178.689202 
L 208.346088 177.836896 
L 208.492151 177.606718 
L 208.45531 177.336267 
L 208.994433 176.634762 
L 209.089289 176.292193 
L 208.909902 175.937523 
L 209.19645 175.652635 
L 209.200389 174.869331 
L 209.174169 173.843035 
L 209.221046 173.101384 
L 209.512309 172.893429 
L 209.606046 172.522284 
L 209.538252 172.096892 
L 209.30171 171.719391 
L 209.517284 171.215883 
L 209.747945 170.451882 
L 209.921988 169.776142 
L 209.892741 169.384424 
L 209.72457 169.054805 
L 209.797271 168.574802 
L 209.639091 167.469718 
L 209.790061 166.672392 
L 210.000218 166.485499 
L 210.080581 165.979152 
L 209.045828 163.82233 
L 209.053122 163.546344 
L 209.142358 163.023037 
L 209.027582 162.403127 
L 209.333245 162.009085 
L 209.134476 161.850493 
L 209.017744 161.434028 
L 209.192232 161.125659 
L 209.410471 160.200382 
L 209.613569 159.490069 
L 209.691001 159.146795 
L 209.262949 158.522297 
L 209.313973 157.55926 
L 209.09701 157.043115 
L 209.231183 156.785556 
L 209.069549 156.399766 
L 209.203904 155.721679 
L 209.051168 154.073937 
L 208.850869 151.431002 
L 209.031303 151.120414 
L 209.224412 150.356473 
L 209.185964 150.01082 
L 209.302375 149.67643 
L 209.272546 149.308938 
L 209.075849 149.069849 
L 209.477602 147.850534 
L 209.730873 147.502331 
L 209.648564 147.155513 
L 209.847355 146.783774 
L 209.77155 146.096155 
L 209.669049 144.420343 
L 209.483643 144.107224 
L 209.589346 143.436803 
L 209.703004 143.014987 
L 209.491218 142.758008 
L 209.453254 141.987354 
L 208.964282 141.353298 
L 208.985457 141.066666 
L 208.632854 140.708204 
L 208.750261 140.271201 
L 208.686096 139.96475 
L 208.941896 139.214858 
L 208.696849 138.823791 
L 208.747024 138.033613 
L 208.747024 138.033613 
" style="fill:none;stroke:#0000ff;stroke-linecap:square;stroke-width:1.5;"/>
   </g>
   <g id="line2d_19">
    <path clip-path="url(#p391525e889)" d="M 66.094011 272.230969 
L 70.429364 272.292453 
L 71.050656 272.465908 
L 72.433147 272.495385 
L 73.158324 272.325519 
L 74.776308 272.480226 
L 75.149641 272.511201 
L 75.685703 272.71847 
L 80.503038 272.740041 
L 82.469026 272.810203 
L 83.266712 272.914187 
L 83.69866 272.851884 
L 85.907687 273.145078 
L 87.473492 273.368949 
L 88.329283 273.261624 
L 89.459724 273.244728 
L 90.515663 273.231891 
L 91.188167 273.37883 
L 92.73896 273.249894 
L 95.041742 273.686399 
L 95.662619 273.779289 
L 96.770623 273.647413 
L 97.209731 273.656452 
L 99.734514 273.333078 
L 100.208923 273.299505 
L 100.998166 273.529073 
L 102.502911 273.483644 
L 103.844223 273.276078 
L 106.507493 273.19213 
L 108.435983 273.456556 
L 109.332577 273.305993 
L 109.825493 273.481682 
L 110.343514 273.451068 
L 111.383347 273.46157 
L 112.514039 273.399529 
L 113.464494 273.554002 
L 114.909402 273.668472 
L 116.118961 273.53522 
L 120.760564 273.834772 
L 123.023882 273.649676 
L 125.160474 273.435564 
L 126.165628 273.509066 
L 126.635951 273.45897 
L 127.835121 273.601995 
L 128.330196 273.549934 
L 130.115852 273.674655 
L 130.515722 273.647634 
L 131.392317 273.42303 
L 131.846758 273.575358 
L 132.546594 273.546373 
L 133.124232 273.764461 
L 133.995456 273.715071 
L 134.48268 273.601843 
L 134.998801 273.701498 
L 135.709908 273.712553 
L 136.863964 274.088044 
L 137.353877 273.994102 
L 142.071813 274.227085 
L 142.457412 274.143648 
L 143.729825 274.122849 
L 144.222767 274.292303 
L 145.558293 274.480822 
L 146.046785 274.233033 
L 146.572845 274.191564 
L 147.723643 274.46856 
L 149.36717 274.33873 
L 151.902204 274.446259 
L 154.180761 274.114428 
L 154.863277 273.864453 
L 155.485487 273.972525 
L 158.853515 273.702573 
L 159.726014 273.493226 
L 160.689999 273.432682 
L 161.445353 273.555027 
L 162.573615 273.256985 
L 165.696853 272.532621 
L 167.99664 272.259083 
L 168.978753 271.999028 
L 169.662193 272.012458 
L 170.446928 271.726285 
L 171.201279 271.68445 
L 171.86077 271.421892 
L 173.327481 271.192088 
L 173.982743 270.955347 
L 174.900879 270.928082 
L 176.25879 270.643081 
L 177.86097 270.414173 
L 179.164518 269.919442 
L 179.923211 269.891922 
L 181.623915 269.492535 
L 185.265551 268.529701 
L 185.975557 268.457638 
L 188.943548 267.340016 
L 189.39712 266.967098 
L 190.102871 266.656461 
L 192.509243 265.884811 
L 193.808484 265.272107 
L 195.305468 264.733539 
L 195.772797 264.415284 
L 200.524367 262.414712 
L 203.427359 260.613076 
L 205.80578 259.408827 
L 206.932671 258.496383 
L 208.052425 257.863303 
L 208.740715 257.735947 
L 211.389802 256.329706 
L 211.71945 255.929362 
L 212.37248 255.577272 
L 213.579773 254.76175 
L 214.706293 254.022086 
L 214.994141 253.600913 
L 216.599586 252.486599 
L 217.009768 251.986138 
L 217.724976 251.74176 
L 218.387352 251.369944 
L 220.501759 249.645762 
L 221.400106 248.74237 
L 222.059363 248.428719 
L 223.052596 247.165021 
L 224.257358 246.341168 
L 225.030203 245.661036 
L 225.438663 244.978897 
L 226.410757 244.15842 
L 226.658702 243.65678 
L 228.135584 242.106842 
L 228.66008 241.811232 
L 229.141975 241.388001 
L 229.903449 240.298963 
L 230.250457 239.814907 
L 230.317527 239.364499 
L 231.135302 238.368425 
L 231.180341 237.770389 
L 232.763265 236.108357 
L 233.389901 235.058008 
L 234.38931 234.283334 
L 234.442129 233.776746 
L 236.445639 230.692737 
L 236.906657 230.28141 
L 237.4638 228.742797 
L 237.811906 228.008528 
L 237.826409 227.608455 
L 239.007144 226.592575 
L 239.738944 225.815645 
L 239.706461 225.493618 
L 239.831287 225.177387 
L 240.079835 224.882392 
L 240.526057 223.190605 
L 240.919584 222.894071 
L 241.722344 221.84591 
L 242.139311 221.534292 
L 242.267553 221.033175 
L 242.532799 220.602818 
L 242.9683 220.270413 
L 243.370514 218.978258 
L 243.422869 218.56285 
L 243.617636 218.323762 
L 243.962901 217.510821 
L 244.425489 216.943078 
L 244.657492 216.594245 
L 244.773259 216.163478 
L 244.614024 215.888906 
L 244.675496 215.066985 
L 245.071747 214.770128 
L 245.414635 214.146282 
L 245.848021 213.673694 
L 246.025696 213.364769 
L 245.954427 212.907851 
L 246.149724 212.58923 
L 246.842163 211.861348 
L 247.505544 210.449101 
L 248.365817 208.767258 
L 248.591603 208.585628 
L 249.219668 205.403983 
L 249.362111 204.820514 
L 249.726428 204.586923 
L 249.842771 203.857828 
L 250.089657 203.152312 
L 250.225831 202.479684 
L 250.392744 202.012224 
L 250.251448 201.804753 
L 250.529209 201.45427 
L 251.176342 200.811244 
L 251.162603 200.476987 
L 251.7559 199.311876 
L 252.238455 198.695791 
L 252.626781 197.931829 
L 252.928429 197.582425 
L 252.920034 196.570796 
L 253.634621 196.189042 
L 254.049616 195.394073 
L 254.763913 194.242031 
L 255.63316 193.517029 
L 255.775826 192.815088 
L 255.66885 192.525844 
L 256.419469 191.9296 
L 256.506131 191.590299 
L 256.896348 191.056797 
L 257.021046 190.653177 
L 257.274836 190.213654 
L 258.269365 189.438143 
L 259.006365 188.847581 
L 261.53512 185.663837 
L 262.076543 184.725 
L 263.273514 183.413157 
L 263.758751 183.309723 
L 264.096907 182.915552 
L 265.000139 182.316514 
L 265.046607 181.854905 
L 265.472301 181.557507 
L 265.544983 181.222648 
L 265.88355 181.002146 
L 266.353404 180.252435 
L 266.931606 179.951063 
L 267.448664 179.497647 
L 267.723094 179.014403 
L 268.26491 178.743182 
L 268.377783 178.500814 
L 268.88218 178.173213 
L 268.849479 177.866186 
L 270.211782 176.061753 
L 270.186437 175.691625 
L 270.354756 175.045673 
L 270.947248 174.329677 
L 272.562444 172.20851 
L 272.697809 171.852257 
L 273.241143 171.119836 
L 273.619149 170.348522 
L 273.558529 169.856963 
L 274.103753 169.353351 
L 274.580455 168.441798 
L 274.822546 168.051917 
L 275.73135 167.049041 
L 275.947487 166.658831 
L 275.90772 166.451997 
L 276.199491 166.03509 
L 276.592927 165.708044 
L 277.218872 164.76039 
L 278.060133 164.125738 
L 278.12791 163.674043 
L 278.57183 163.079718 
L 279.107131 162.462424 
L 279.648815 162.082106 
L 279.674449 161.827158 
L 279.674449 161.827158 
" style="fill:none;stroke:#0000ff;stroke-linecap:square;stroke-width:1.5;"/>
   </g>
   <g id="line2d_20">
    <path clip-path="url(#p391525e889)" d="M 65.930439 272.136164 
L 69.39289 271.980868 
L 70.279877 271.735557 
L 71.173915 271.827836 
L 71.549923 271.755187 
L 73.202691 271.971342 
L 74.145061 272.217428 
L 75.743542 272.191204 
L 76.18474 272.264064 
L 77.463283 272.143821 
L 81.944529 272.322527 
L 83.163819 272.096152 
L 90.587879 272.061612 
L 91.950566 272.36665 
L 92.452263 272.180485 
L 93.1779 272.056006 
L 94.369226 272.198902 
L 95.792852 271.98633 
L 97.620745 271.877896 
L 98.439954 271.947682 
L 102.366667 271.514058 
L 103.89825 271.584929 
L 105.772807 271.434716 
L 106.052425 271.351072 
L 106.979208 271.27313 
L 108.141824 271.103756 
L 110.107753 270.773676 
L 111.339987 270.883615 
L 111.781706 270.854073 
L 112.411417 270.933187 
L 114.380004 270.815543 
L 117.103928 270.829454 
L 117.885958 270.579408 
L 119.609328 270.406125 
L 122.800401 270.151446 
L 124.359207 270.173275 
L 124.809504 270.097832 
L 125.950075 270.131148 
L 126.39611 269.933948 
L 127.31628 269.905269 
L 129.217791 269.694762 
L 129.779755 269.493197 
L 130.774894 269.428503 
L 131.163161 269.403482 
L 131.810333 269.543204 
L 132.487764 269.424003 
L 133.490505 269.357768 
L 138.2358 268.918524 
L 139.199695 268.902511 
L 139.750717 268.707806 
L 141.727008 268.567673 
L 142.050106 268.775448 
L 143.623413 268.297423 
L 145.305455 268.264268 
L 145.79522 268.037543 
L 146.239334 267.988515 
L 146.620436 268.130839 
L 147.871653 267.948764 
L 149.530386 267.498603 
L 150.408399 267.45985 
L 151.191968 267.12805 
L 152.097337 267.032915 
L 155.209409 266.301709 
L 157.436598 266.186181 
L 158.180257 265.941785 
L 160.493733 265.557667 
L 163.709324 265.080725 
L 169.020935 263.878035 
L 169.825543 263.857405 
L 171.33094 263.595927 
L 172.201856 263.542717 
L 172.713174 263.246604 
L 173.517395 262.991423 
L 174.086174 262.685323 
L 175.642527 262.357073 
L 176.571728 261.881422 
L 179.041949 260.973274 
L 179.78215 260.746156 
L 180.553634 260.630222 
L 181.253228 260.24011 
L 181.856211 260.17706 
L 182.628888 259.926053 
L 183.265229 259.837058 
L 184.585731 259.127446 
L 185.278117 258.881079 
L 186.311051 258.145282 
L 187.024134 257.743148 
L 188.66875 256.986229 
L 189.060196 256.70259 
L 189.840268 256.431299 
L 190.348574 256.128962 
L 190.949391 255.901345 
L 191.366926 255.604198 
L 194.126417 254.586557 
L 195.672377 254.129309 
L 196.154262 253.703327 
L 198.823825 252.115838 
L 199.740509 251.284101 
L 200.532164 251.060275 
L 201.608702 250.283608 
L 202.851733 249.702284 
L 204.328952 248.225481 
L 208.900774 245.783575 
L 210.983293 244.087717 
L 211.220661 243.657229 
L 211.751865 243.31901 
L 212.493833 243.03164 
L 213.248838 242.253378 
L 213.77773 241.745079 
L 214.398472 241.370081 
L 215.655105 239.850648 
L 218.437126 237.566841 
L 218.783358 237.164104 
L 219.471622 236.855081 
L 219.715143 236.344466 
L 220.389345 235.965734 
L 220.843567 235.489211 
L 221.436995 235.104105 
L 222.67819 233.256841 
L 223.24421 232.791656 
L 224.446455 231.291598 
L 226.129801 229.182973 
L 226.412802 228.120383 
L 227.868338 225.270217 
L 228.519599 223.309877 
L 228.902647 222.966911 
L 229.3528 222.037731 
L 229.644581 220.989108 
L 230.13254 219.998457 
L 230.509424 219.541061 
L 231.202195 217.790821 
L 231.277915 217.476652 
L 231.714422 216.723545 
L 231.912185 215.962749 
L 232.185079 215.682139 
L 232.18738 215.162129 
L 232.518112 214.428913 
L 232.343382 213.804316 
L 232.274918 213.280191 
L 232.559363 211.987732 
L 233.191943 210.970931 
L 233.094008 210.602564 
L 233.285486 210.235659 
L 233.230072 209.888046 
L 233.476344 209.571768 
L 233.190627 208.890159 
L 232.938804 208.49995 
L 232.952656 208.199831 
L 233.11017 208.006109 
L 232.954629 207.904078 
L 233.232526 206.636694 
L 233.426459 205.964466 
L 233.295051 205.595261 
L 233.543364 205.119996 
L 233.526236 204.477998 
L 233.612392 204.0845 
L 233.554298 203.732558 
L 234.072828 203.119388 
L 234.242206 202.621647 
L 234.798953 201.954041 
L 234.71182 201.514474 
L 234.839581 200.792348 
L 234.824243 200.38161 
L 234.956905 200.082575 
L 234.898606 199.389004 
L 234.733538 199.06601 
L 234.98708 198.324554 
L 234.982181 197.722376 
L 235.168504 197.43275 
L 234.959633 197.134795 
L 235.307189 196.337685 
L 235.135687 196.037553 
L 235.949662 194.211445 
L 235.88608 193.869994 
L 236.182032 193.469763 
L 236.071176 193.282293 
L 236.453567 192.082397 
L 236.508498 191.638654 
L 236.399877 191.291532 
L 236.362988 190.784664 
L 236.450593 190.358392 
L 236.743464 190.025345 
L 236.743973 189.626685 
L 237.05811 188.74768 
L 237.402486 186.879255 
L 237.779935 186.705173 
L 239.030782 183.818262 
L 239.221663 183.34655 
L 239.578505 183.051375 
L 239.835454 182.400141 
L 239.627003 181.942667 
L 239.791668 181.068406 
L 239.922517 180.570677 
L 239.83475 180.17864 
L 240.154873 179.499329 
L 240.102294 178.810555 
L 240.26988 178.531352 
L 239.995214 178.161137 
L 240.184743 177.760849 
L 240.553861 177.449688 
L 240.455626 177.233647 
L 240.62374 177.014006 
L 240.828105 175.388982 
L 240.970745 174.885044 
L 240.978497 174.270887 
L 241.41243 173.085132 
L 241.23364 172.728786 
L 241.137841 172.128142 
L 241.379756 171.430276 
L 241.181692 171.04033 
L 241.233974 170.673643 
L 241.522627 170.321708 
L 241.608746 170.024192 
L 241.49194 169.761587 
L 241.688775 168.742227 
L 241.678231 168.35346 
L 241.932363 168.017054 
L 241.868098 167.698429 
L 242.061499 167.374692 
L 242.031078 167.134642 
L 242.141539 165.480898 
L 242.19592 164.858604 
L 242.713046 163.221107 
L 242.601037 162.926753 
L 242.654296 162.65878 
L 242.37679 162.190412 
L 242.366672 161.863471 
L 242.807326 161.04216 
L 242.699159 160.690931 
L 242.793092 160.154586 
L 242.743564 159.748681 
L 243.048609 159.453337 
L 243.076738 159.112987 
L 243.316501 158.899066 
L 243.445033 158.258762 
L 243.768317 156.897031 
L 243.721973 156.593711 
L 243.49156 155.853196 
L 243.420372 155.116974 
L 243.49998 154.707485 
L 243.88599 154.262247 
L 243.874726 152.80677 
L 244.19093 152.307653 
L 244.248424 151.707254 
L 243.929917 150.568708 
L 244.046626 150.089387 
L 243.510669 147.107968 
L 243.65907 146.22875 
L 243.65907 146.22875 
" style="fill:none;stroke:#0000ff;stroke-linecap:square;stroke-width:1.5;"/>
   </g>
   <g id="line2d_21">
    <path clip-path="url(#p391525e889)" d="M 66.120723 272.08692 
L 67.082583 272.072658 
L 69.725266 272.0993 
L 70.086356 272.230876 
L 71.478848 272.157342 
L 71.867601 272.3044 
L 73.679199 272.421353 
L 74.786888 272.749103 
L 76.445316 272.546456 
L 76.87404 272.533112 
L 77.557122 272.704968 
L 78.363607 272.516564 
L 80.487497 272.69248 
L 81.586569 272.755379 
L 82.170216 272.651585 
L 85.801072 272.814978 
L 86.336488 272.7104 
L 88.39828 272.536302 
L 89.026324 272.450578 
L 90.379282 272.530065 
L 91.747243 272.611503 
L 92.034948 272.509908 
L 93.417242 272.44631 
L 95.676184 272.029822 
L 98.24597 271.920798 
L 98.844992 272.001373 
L 100.461828 271.802318 
L 100.780692 271.864494 
L 102.733767 271.600215 
L 103.798835 271.579187 
L 105.601065 271.144846 
L 108.397908 271.276084 
L 108.84572 271.089638 
L 109.622298 271.159453 
L 110.016277 271.037195 
L 110.587935 271.067878 
L 111.104032 270.900567 
L 112.762826 270.703808 
L 113.403023 270.524618 
L 114.602932 270.546615 
L 116.598376 270.328918 
L 117.225397 270.258797 
L 118.476966 270.221384 
L 121.274818 270.322695 
L 121.90533 270.416049 
L 124.586986 270.102416 
L 125.555299 270.244468 
L 125.930936 269.941144 
L 126.613833 269.933178 
L 128.350548 269.691834 
L 130.636592 269.690338 
L 131.284392 269.596839 
L 131.983711 269.6341 
L 132.925268 269.447399 
L 134.045763 269.680795 
L 134.535766 269.51053 
L 136.311605 269.59564 
L 138.161225 269.366837 
L 140.267661 269.322879 
L 141.6267 269.355424 
L 144.455569 269.719459 
L 144.974372 269.491506 
L 147.139962 269.72268 
L 148.233203 269.507107 
L 149.9318 269.446442 
L 151.299644 269.092719 
L 153.098127 268.871819 
L 153.904068 268.699371 
L 154.680553 268.802225 
L 159.975327 268.307575 
L 160.562131 268.152642 
L 162.336401 267.834251 
L 162.924641 267.726654 
L 163.548607 267.362358 
L 165.221124 266.992433 
L 166.249724 267.07682 
L 167.551293 266.770249 
L 168.538619 266.637461 
L 169.202006 266.432567 
L 170.655686 265.781825 
L 171.321169 265.585382 
L 174.883506 265.059836 
L 178.251401 264.046452 
L 180.247077 263.571262 
L 182.028137 263.321105 
L 182.635209 263.071267 
L 184.090841 262.636732 
L 184.958046 262.575917 
L 185.92139 262.073575 
L 186.444194 261.758319 
L 187.992364 261.284844 
L 191.323269 260.041122 
L 191.750976 259.693874 
L 193.740426 258.921859 
L 195.661111 258.250291 
L 196.203686 257.783709 
L 196.718568 257.603021 
L 202.801732 253.966894 
L 203.628208 253.589358 
L 205.510144 252.238149 
L 205.969146 251.755594 
L 207.239711 250.976349 
L 207.981985 250.410362 
L 208.43946 249.842586 
L 211.212384 248.121058 
L 211.561403 247.707032 
L 213.960578 246.054657 
L 214.461566 245.707933 
L 214.706758 245.210927 
L 215.200119 244.733087 
L 215.862277 244.306402 
L 216.006436 243.834692 
L 216.575451 243.336576 
L 217.292245 242.951747 
L 217.777578 242.486218 
L 219.801021 239.819779 
L 220.46755 239.105052 
L 220.887479 238.55191 
L 222.205516 237.404768 
L 223.303363 236.055553 
L 224.996684 233.377107 
L 226.715688 231.152085 
L 226.7405 230.721545 
L 227.124734 229.75 
L 227.729676 229.320511 
L 228.052807 228.682716 
L 228.474814 228.3073 
L 228.988816 227.324683 
L 231.1764 224.480572 
L 231.641858 223.473548 
L 232.735074 221.96268 
L 232.801566 221.468611 
L 233.967119 219.150762 
L 234.561225 217.670035 
L 234.310107 217.273113 
L 234.470203 216.929077 
L 234.90517 216.767193 
L 235.312241 216.409803 
L 235.487765 215.306114 
L 235.660952 214.997259 
L 235.654589 214.166019 
L 235.839555 213.928923 
L 235.938695 213.50219 
L 236.439048 212.828193 
L 236.585779 212.477961 
L 236.573916 212.144121 
L 236.818092 211.986119 
L 236.859375 211.697957 
L 237.120902 211.257711 
L 237.223472 210.844477 
L 237.471625 210.626568 
L 237.520464 210.18453 
L 237.439184 209.787909 
L 237.908968 208.521725 
L 237.841309 208.21481 
L 238.693155 207.305756 
L 238.601665 206.907143 
L 238.800198 206.695137 
L 238.946846 206.245483 
L 239.16716 206.01341 
L 239.086308 205.666927 
L 239.257218 205.26963 
L 239.912283 204.748075 
L 240.314587 203.472507 
L 240.892967 202.534331 
L 240.982265 202.179004 
L 240.930828 201.692415 
L 241.752412 199.161244 
L 241.932645 198.858668 
L 242.294836 198.629375 
L 242.186165 198.289494 
L 242.756893 197.972071 
L 242.809996 197.613345 
L 243.10061 197.315587 
L 242.980732 196.588576 
L 243.019223 196.149037 
L 243.698332 194.903515 
L 243.89113 194.081747 
L 244.243726 193.767398 
L 244.200479 193.433917 
L 244.530671 193.044538 
L 244.597752 192.784177 
L 244.877277 192.39026 
L 244.98285 192.024981 
L 244.809524 191.696706 
L 244.902384 190.738711 
L 245.376786 190.041564 
L 245.35644 189.707214 
L 245.600382 189.341456 
L 246.36809 188.594176 
L 246.564012 186.627864 
L 246.744683 186.337982 
L 246.724646 185.933883 
L 247.168654 185.147368 
L 247.286502 184.50176 
L 247.467015 184.350137 
L 247.962111 182.196968 
L 248.19645 181.885149 
L 248.219909 181.306755 
L 248.486557 181.060931 
L 248.642561 180.39076 
L 248.898017 180.065706 
L 248.876564 179.851715 
L 249.117802 179.658496 
L 249.305836 179.218095 
L 249.331953 178.833716 
L 249.60001 178.25259 
L 249.472648 177.758632 
L 249.555282 177.272649 
L 249.411067 177.016646 
L 249.373074 176.709525 
L 249.552357 176.492492 
L 249.476136 175.788587 
L 250.22876 173.407241 
L 250.129172 172.681404 
L 250.199226 172.346743 
L 250.417729 172.145841 
L 250.847643 171.268083 
L 250.902897 170.80985 
L 251.137112 170.252666 
L 251.226204 169.876103 
L 251.461003 169.671946 
L 251.893105 167.784777 
L 252.062527 167.514614 
L 251.97528 167.098251 
L 251.98379 166.300213 
L 251.907142 165.830004 
L 252.11425 165.565204 
L 251.927565 164.351143 
L 252.117868 164.027833 
L 251.975714 163.689888 
L 252.132567 163.423812 
L 252.346008 162.515806 
L 252.614904 162.375496 
L 252.766924 162.128859 
L 253.087897 161.827461 
L 252.951771 161.26632 
L 253.026488 160.277728 
L 253.440673 160.043989 
L 253.646357 159.656338 
L 253.604513 159.291181 
L 253.822902 158.974905 
L 253.734718 158.569774 
L 253.769439 157.684336 
L 253.659028 157.249117 
L 253.730424 156.3514 
L 253.646488 155.937763 
L 253.851222 155.337315 
L 254.159797 154.946667 
L 254.020266 154.530492 
L 254.109243 154.260986 
L 253.998432 153.8485 
L 254.281751 153.197608 
L 254.238504 152.682801 
L 254.429707 152.0174 
L 254.358096 151.613301 
L 254.358096 151.613301 
" style="fill:none;stroke:#0000ff;stroke-linecap:square;stroke-width:1.5;"/>
   </g>
   <g id="line2d_22">
    <path clip-path="url(#p391525e889)" d="M 66.436698 272.125868 
L 67.415964 272.155348 
L 68.696432 272.081385 
L 69.329771 272.013498 
L 69.816452 271.921484 
L 71.004374 272.139266 
L 71.398181 272.165776 
L 72.900025 272.067179 
L 74.71845 272.074249 
L 74.987267 271.907756 
L 77.452569 272.07013 
L 79.795681 271.97121 
L 81.385809 272.105183 
L 83.010764 271.716248 
L 85.242844 271.864948 
L 85.900146 272.019524 
L 87.258033 271.952077 
L 87.992396 271.738914 
L 88.286885 271.857016 
L 92.105889 272.041605 
L 92.816706 272.20159 
L 93.259595 272.021366 
L 95.715796 271.738203 
L 96.257017 271.908454 
L 97.978068 271.821439 
L 100.215287 271.587931 
L 100.752416 271.449103 
L 102.763146 271.420987 
L 104.192958 271.455776 
L 108.51931 271.497927 
L 108.933377 271.592075 
L 111.219194 271.593314 
L 112.748079 271.869194 
L 113.136061 271.796118 
L 113.812091 271.916933 
L 114.546472 271.868001 
L 115.385324 271.645222 
L 117.298422 271.339972 
L 118.428432 271.288322 
L 120.868663 270.972466 
L 121.267741 270.862913 
L 122.614913 270.833288 
L 123.050414 270.733825 
L 123.647767 270.828557 
L 125.395924 270.469739 
L 126.481175 270.441468 
L 127.238803 270.536821 
L 127.735195 270.354781 
L 130.013634 270.208344 
L 130.660708 270.098127 
L 131.882644 270.182576 
L 133.180955 270.082838 
L 134.195344 270.18405 
L 135.593046 270.013248 
L 136.308364 269.940233 
L 136.834147 270.206037 
L 140.792756 270.08578 
L 144.526841 269.675481 
L 146.306167 269.587881 
L 152.623941 269.199783 
L 153.109327 268.984501 
L 154.759933 268.88802 
L 158.259926 268.728761 
L 159.011966 268.575812 
L 160.930787 268.482392 
L 162.340905 268.256633 
L 164.76878 267.838898 
L 165.415589 267.620286 
L 166.332926 267.665545 
L 169.544195 266.904363 
L 171.859597 266.502807 
L 172.694133 266.36109 
L 176.188408 264.884944 
L 177.983556 264.494748 
L 178.599817 264.176417 
L 181.006031 263.495123 
L 181.71557 263.337981 
L 182.450423 262.895261 
L 184.598489 262.32745 
L 185.378588 262.276524 
L 186.75792 261.757688 
L 190.752268 259.927024 
L 191.531528 259.761834 
L 193.330701 259.136873 
L 195.823493 258.474438 
L 197.128894 257.809638 
L 202.008085 254.892099 
L 202.924294 254.480756 
L 203.173541 254.122409 
L 203.86068 253.697577 
L 205.126657 253.175228 
L 206.289406 252.477393 
L 207.081986 252.040979 
L 208.41947 250.771065 
L 209.069101 250.43168 
L 210.189466 249.428876 
L 210.499427 249.058997 
L 212.040702 247.738839 
L 212.247171 247.354433 
L 212.93276 247.049799 
L 213.863165 246.144258 
L 215.632546 245.010829 
L 216.0099 244.562207 
L 216.519983 244.15433 
L 217.338373 243.658056 
L 218.497209 242.720367 
L 218.847535 242.215584 
L 219.504387 241.691657 
L 220.475771 240.205922 
L 222.00676 238.982401 
L 223.360153 237.349524 
L 223.59027 236.769213 
L 224.019002 236.393863 
L 224.605382 236.05955 
L 225.192522 235.58324 
L 225.312488 235.102449 
L 226.632602 232.99709 
L 227.477999 231.116292 
L 227.822168 230.422656 
L 228.009373 229.772282 
L 228.287951 229.271261 
L 228.70559 227.746678 
L 229.227204 227.15449 
L 229.788921 225.588738 
L 230.402802 224.681227 
L 230.707795 224.124166 
L 230.58541 223.304164 
L 230.850134 222.753302 
L 230.964675 221.848218 
L 231.321661 220.73989 
L 231.681604 219.761902 
L 231.96104 219.538909 
L 231.988575 219.178178 
L 232.182619 218.680396 
L 232.419422 218.410764 
L 232.399403 218.153679 
L 232.595736 217.9529 
L 232.573326 217.596756 
L 232.841229 217.342219 
L 232.795433 216.901441 
L 233.190717 216.41862 
L 233.181743 216.169973 
L 233.581289 215.41025 
L 233.811516 214.78393 
L 234.073622 214.020274 
L 233.948226 213.545516 
L 234.087482 212.848289 
L 234.289363 212.429266 
L 234.339834 211.917785 
L 234.240912 211.464075 
L 234.451363 211.193314 
L 234.382937 210.778284 
L 234.620107 210.505798 
L 234.613846 210.098218 
L 234.917623 209.803296 
L 235.075629 209.356253 
L 235.369959 208.867635 
L 235.441901 208.499934 
L 235.283721 207.787363 
L 235.138858 207.395243 
L 235.319759 206.898989 
L 235.318435 206.461177 
L 235.62412 205.87969 
L 235.600572 205.17961 
L 235.939957 204.886268 
L 235.836467 204.526553 
L 236.03592 203.713902 
L 236.050416 203.064663 
L 236.240822 202.820095 
L 236.221795 202.39623 
L 236.352436 201.942799 
L 236.571095 201.661083 
L 236.637484 200.050162 
L 236.485288 199.618676 
L 236.59296 198.354934 
L 236.47964 198.004999 
L 236.481025 197.585942 
L 236.313415 197.140897 
L 236.592472 196.316888 
L 236.438868 195.926922 
L 237.280487 193.985584 
L 237.297844 193.463183 
L 237.27897 193.064837 
L 237.451012 192.67536 
L 237.422336 192.399551 
L 237.785457 190.997963 
L 237.965582 190.385899 
L 238.239936 189.71426 
L 238.259607 189.284776 
L 238.046637 188.974169 
L 238.429043 188.708777 
L 238.283095 188.492269 
L 238.530082 188.204611 
L 239.01508 187.846676 
L 238.933099 187.375149 
L 239.20651 186.646939 
L 239.642954 185.586154 
L 239.584481 185.062566 
L 239.402034 183.944297 
L 239.504465 183.539216 
L 239.31482 183.059284 
L 239.508662 182.147141 
L 239.294859 181.258116 
L 239.331462 180.621515 
L 239.527814 180.172792 
L 239.323891 179.808989 
L 239.214174 179.108588 
L 239.754573 177.924816 
L 240.052302 177.613604 
L 240.149645 176.938746 
L 240.334687 176.264567 
L 240.656146 175.542537 
L 240.822545 174.988788 
L 240.698093 174.560123 
L 240.813731 174.255052 
L 240.690915 173.170399 
L 241.027734 172.022852 
L 241.024136 171.614434 
L 241.138395 171.208122 
L 241.012362 170.953529 
L 241.43887 169.915132 
L 241.352598 169.514715 
L 241.152652 169.114465 
L 241.293307 168.480703 
L 241.217485 168.069938 
L 241.446642 167.882798 
L 241.485634 167.226439 
L 241.581421 167.002 
L 241.560173 165.532289 
L 241.673182 165.126794 
L 241.305296 164.74418 
L 241.308007 164.404015 
L 241.08083 163.809716 
L 241.417947 163.503544 
L 241.132939 161.611316 
L 241.309164 161.259508 
L 241.163464 160.468952 
L 241.272833 160.101951 
L 241.236922 159.819864 
L 241.703442 158.631125 
L 241.722556 158.076941 
L 241.956801 157.8371 
L 241.89654 156.729128 
L 241.909869 156.323671 
L 242.090431 155.932916 
L 241.932776 155.475012 
L 242.162946 154.143773 
L 242.352672 153.830402 
L 242.293333 153.492693 
L 242.764126 151.892245 
L 242.930472 151.412269 
L 242.945454 150.926283 
L 243.228979 150.71289 
L 243.803712 149.136893 
L 244.17067 148.737028 
L 244.17067 148.737028 
" style="fill:none;stroke:#0000ff;stroke-linecap:square;stroke-width:1.5;"/>
   </g>
   <g id="line2d_23">
    <path clip-path="url(#p391525e889)" d="M 65.894835 272.097619 
L 66.345389 272.186623 
L 68.135732 272.122541 
L 69.275598 271.809982 
L 69.891571 271.691027 
L 70.317291 271.870429 
L 71.628153 271.539584 
L 72.800319 271.446419 
L 73.806484 271.159796 
L 76.030325 270.916162 
L 76.552758 271.031872 
L 78.478552 270.892316 
L 78.791593 270.930482 
L 80.327966 270.848589 
L 81.329328 270.903186 
L 81.760212 270.785741 
L 82.46269 270.759655 
L 82.964577 270.947984 
L 83.441063 270.919211 
L 84.603521 271.162844 
L 85.170819 270.92391 
L 85.86078 270.859309 
L 86.419795 271.014013 
L 88.159696 270.792843 
L 89.491673 270.817521 
L 90.021902 270.679645 
L 91.635806 270.512678 
L 92.16611 270.426673 
L 92.508089 270.223358 
L 93.746632 270.098973 
L 94.084849 270.305549 
L 94.675829 270.517853 
L 95.425709 270.482062 
L 98.710448 270.610449 
L 99.136875 270.492391 
L 101.032037 270.486689 
L 101.346399 270.407217 
L 102.526005 270.597199 
L 107.81491 270.605333 
L 109.413723 270.782941 
L 113.359947 271.300007 
L 115.222396 271.445884 
L 116.434092 271.385571 
L 118.041696 271.506354 
L 119.550387 271.557157 
L 122.769767 271.625195 
L 126.691033 272.164913 
L 128.515845 272.735948 
L 129.144043 272.90617 
L 129.654064 272.779628 
L 130.288835 272.958656 
L 131.571062 273.011861 
L 134.489635 273.320458 
L 134.700367 273.553095 
L 135.571641 273.811206 
L 135.981439 273.803702 
L 137.024368 273.947823 
L 138.665219 274.171265 
L 140.389255 274.236356 
L 141.551838 274.026312 
L 142.940784 274.167953 
L 144.441567 274.227884 
L 147.342503 274.053181 
L 148.242308 274.086052 
L 151.397527 273.681072 
L 152.106095 273.7294 
L 160.467866 272.893784 
L 161.366337 272.889175 
L 162.148332 272.649772 
L 163.089972 272.515249 
L 163.867663 272.230676 
L 166.070757 272.28503 
L 166.671339 272.032865 
L 169.475946 271.565805 
L 170.077263 271.262844 
L 171.862361 270.995042 
L 174.408968 270.602948 
L 175.60731 270.499001 
L 176.387959 270.35117 
L 177.887518 270.242906 
L 183.04113 269.109819 
L 184.151403 268.638677 
L 184.895714 268.514593 
L 185.360726 268.3078 
L 186.806403 267.930854 
L 188.224364 267.440163 
L 189.460653 266.656957 
L 190.35416 266.421398 
L 191.275428 266.355607 
L 192.522916 265.742727 
L 194.419066 265.013964 
L 195.079037 264.62077 
L 198.948277 263.12776 
L 199.593475 262.666287 
L 200.275111 262.407181 
L 200.928317 262.032122 
L 201.624091 261.771537 
L 202.889005 260.96278 
L 204.35286 260.284493 
L 204.86067 259.753391 
L 208.450254 257.280762 
L 209.21233 256.981907 
L 212.452161 254.787522 
L 213.170888 254.423004 
L 213.749856 253.961744 
L 214.127299 253.444539 
L 214.72605 253.003632 
L 215.366547 252.749647 
L 215.989154 251.989667 
L 216.736835 251.488228 
L 217.392357 251.200428 
L 217.774336 250.715433 
L 217.806399 250.27143 
L 218.82325 249.395353 
L 220.657037 247.619126 
L 220.901323 246.949048 
L 221.594362 246.163979 
L 222.79161 244.76072 
L 222.923248 244.260357 
L 223.444395 243.827561 
L 224.017587 242.907255 
L 224.793739 242.108615 
L 224.97863 241.485481 
L 225.595883 240.904969 
L 225.919737 240.310529 
L 225.982574 239.773827 
L 226.2018 239.281346 
L 226.558843 238.831817 
L 226.726824 238.285926 
L 227.223748 237.791384 
L 227.305974 237.302349 
L 227.834737 236.693903 
L 227.94616 236.383566 
L 227.803597 235.22501 
L 228.514096 233.938299 
L 228.632745 232.886654 
L 228.699584 232.362944 
L 229.101434 231.448041 
L 229.290546 230.223337 
L 229.540567 229.592265 
L 229.60708 229.177593 
L 229.403058 228.897269 
L 229.714074 227.735858 
L 230.106471 227.571048 
L 230.039803 226.778158 
L 230.176865 226.356974 
L 230.104831 226.022936 
L 230.313341 225.327706 
L 230.25035 224.704293 
L 230.577115 224.298415 
L 230.803772 222.825878 
L 231.018982 222.470644 
L 230.975357 222.073228 
L 231.343644 221.406197 
L 231.381864 220.960899 
L 231.553645 220.800095 
L 231.969339 219.995172 
L 232.024819 219.559201 
L 232.375763 219.277107 
L 232.284899 218.962376 
L 232.398492 218.678193 
L 232.277556 218.461838 
L 232.478366 217.798025 
L 233.101674 216.634981 
L 233.422269 215.955791 
L 233.732777 215.187589 
L 234.381237 213.608363 
L 234.205528 213.321171 
L 234.473827 212.487954 
L 234.961278 211.39465 
L 235.366171 211.095761 
L 235.469949 210.716159 
L 236.030649 209.994951 
L 235.91905 209.102964 
L 236.375174 208.805886 
L 236.840492 207.907829 
L 237.373917 206.346262 
L 237.702215 206.093132 
L 237.670484 205.777477 
L 237.853834 205.200957 
L 237.636595 204.811121 
L 237.610725 204.434888 
L 237.893571 204.141473 
L 237.63822 203.377399 
L 237.807526 203.007095 
L 238.240447 202.741241 
L 238.279415 202.502912 
L 238.19568 202.218978 
L 238.495325 202.020315 
L 238.678583 201.258577 
L 239.103522 200.763855 
L 239.139876 200.141854 
L 239.138159 199.770395 
L 239.771436 198.149522 
L 240.051478 197.829965 
L 239.916926 197.580896 
L 240.220316 196.873633 
L 240.227762 196.464176 
L 240.592323 195.868758 
L 240.890829 195.514682 
L 240.919199 194.668466 
L 241.226 194.349033 
L 241.350576 194.020656 
L 241.243204 193.697856 
L 241.285721 193.472362 
L 241.59408 193.346512 
L 242.329504 190.986105 
L 242.854492 190.658572 
L 243.146658 190.039684 
L 243.181541 189.766195 
L 243.528335 189.453119 
L 244.05166 188.123603 
L 244.293702 187.715374 
L 244.719314 187.460751 
L 244.893776 186.899955 
L 244.813494 186.259526 
L 244.769594 185.78676 
L 245.358554 185.381831 
L 245.396341 185.042774 
L 246.14502 183.818744 
L 246.096663 183.499704 
L 246.383836 183.299274 
L 246.433409 182.915645 
L 246.277216 182.633864 
L 246.744581 181.859483 
L 246.947509 181.111155 
L 247.30957 180.408522 
L 247.406341 179.92133 
L 247.9518 178.93495 
L 248.645987 178.186524 
L 248.755437 177.759589 
L 249.172896 177.215434 
L 249.270412 176.945861 
L 249.54889 176.60845 
L 249.523214 176.35304 
L 249.817331 176.076329 
L 250.209122 175.146474 
L 250.555379 174.98562 
L 251.386264 173.469408 
L 251.817558 173.072007 
L 252.05617 172.66383 
L 252.429878 172.289281 
L 252.587476 171.403279 
L 252.666272 171.128671 
L 253.089307 170.892558 
L 253.335768 170.329241 
L 253.358287 169.971402 
L 253.801102 169.193394 
L 254.175246 168.801037 
L 254.498013 167.474286 
L 254.811424 167.303173 
L 255.455978 165.477115 
L 255.782704 165.152419 
L 255.920371 164.779318 
L 255.901107 164.326097 
L 256.001742 164.021304 
L 255.940565 163.582544 
L 256.111848 162.802452 
L 256.111848 162.802452 
" style="fill:none;stroke:#0000ff;stroke-linecap:square;stroke-width:1.5;"/>
   </g>
   <g id="line2d_24">
    <path clip-path="url(#p391525e889)" d="M 66.144352 272.033052 
L 66.708123 272.059647 
L 67.486642 272.220479 
L 68.713728 271.936862 
L 69.75219 272.017364 
L 70.445505 271.899763 
L 71.030012 271.923373 
L 71.566802 271.829217 
L 73.093486 271.868856 
L 74.275389 271.922338 
L 77.868734 271.827172 
L 79.095063 271.702828 
L 80.232276 271.196211 
L 81.870974 271.339399 
L 84.333626 271.792731 
L 84.674288 271.945472 
L 85.442439 271.912553 
L 85.844769 271.755119 
L 90.098256 271.742131 
L 91.881922 272.032524 
L 92.160401 271.966847 
L 100.59917 271.739659 
L 101.278761 271.757504 
L 103.311441 271.451136 
L 106.174955 271.382492 
L 106.581486 271.226709 
L 107.745161 271.343665 
L 109.840724 271.498541 
L 111.386924 271.436267 
L 112.56139 271.474704 
L 113.158821 271.559572 
L 115.231531 271.689111 
L 117.462039 271.576467 
L 121.652043 271.534774 
L 123.132502 271.262051 
L 124.691926 271.341939 
L 125.265755 271.527838 
L 126.703074 271.651666 
L 127.197616 271.837073 
L 127.673095 271.605601 
L 128.348215 271.624138 
L 129.135928 271.806122 
L 130.498679 271.737609 
L 134.259693 271.764874 
L 136.426816 271.61915 
L 139.83313 271.824879 
L 143.480904 271.889992 
L 144.184421 271.744646 
L 145.642823 271.863719 
L 146.04435 271.766189 
L 151.161909 272.000091 
L 155.302745 271.999557 
L 156.108243 271.876982 
L 157.798838 271.740171 
L 159.607623 271.462631 
L 162.131172 271.333385 
L 162.894027 271.144758 
L 164.568366 271.029415 
L 166.18447 271.001713 
L 167.092941 271.013862 
L 174.144508 270.049494 
L 176.286151 270.040963 
L 177.637163 269.675716 
L 178.510022 269.552559 
L 179.430931 269.302599 
L 180.707729 269.26844 
L 181.532711 269.062067 
L 182.344876 268.693512 
L 183.952738 268.548791 
L 184.765049 268.292565 
L 188.347696 267.812231 
L 190.903382 267.189293 
L 191.620471 266.726123 
L 192.997708 266.364938 
L 193.606926 265.999157 
L 194.435175 265.942531 
L 194.963797 265.615832 
L 195.692285 265.487063 
L 196.372328 265.173478 
L 197.454438 264.898667 
L 198.801726 264.387067 
L 200.906582 263.801403 
L 201.394202 263.450866 
L 203.554638 262.995806 
L 204.136943 262.732151 
L 204.929981 262.665581 
L 206.627004 262.023157 
L 207.249079 261.679502 
L 208.764298 261.259604 
L 209.958738 260.431307 
L 210.718026 260.258223 
L 211.388071 259.886823 
L 212.019594 259.697549 
L 212.655659 259.310203 
L 214.979672 258.572583 
L 218.53236 256.688752 
L 219.231203 256.464411 
L 219.552847 256.06935 
L 221.543842 254.887432 
L 222.305741 254.635484 
L 225.181624 252.310071 
L 225.739658 252.052469 
L 226.100087 251.680777 
L 227.18648 251.059228 
L 228.215631 250.020687 
L 228.388319 249.51501 
L 229.361557 248.710205 
L 229.856389 248.214905 
L 230.403328 247.877009 
L 230.736895 247.254154 
L 232.37363 245.78976 
L 233.804397 244.176371 
L 234.741952 242.737192 
L 235.311294 242.340188 
L 235.917732 241.294487 
L 237.140554 239.299044 
L 237.346838 238.70452 
L 237.676117 238.099322 
L 237.899185 237.090069 
L 238.098334 236.146193 
L 239.038342 233.98458 
L 239.391741 232.324546 
L 239.65281 232.086639 
L 239.589231 231.73801 
L 239.931751 231.528349 
L 240.297905 231.063445 
L 240.607521 229.6977 
L 241.002312 228.961602 
L 240.990925 228.283816 
L 241.207849 227.952958 
L 241.191526 227.511004 
L 241.286762 227.058475 
L 241.869679 226.461871 
L 242.170591 225.695996 
L 242.538906 225.519964 
L 243.101417 224.574023 
L 243.686095 224.019021 
L 244.342283 222.628449 
L 244.584677 222.237653 
L 244.505545 221.771353 
L 244.8142 220.662065 
L 244.759666 219.778727 
L 245.012817 219.614208 
L 244.854295 219.515591 
L 245.424637 218.992086 
L 245.601527 218.313641 
L 246.003734 218.119453 
L 246.545852 217.046358 
L 246.958656 216.758868 
L 247.155514 215.999635 
L 247.365818 215.702108 
L 247.514252 214.669296 
L 247.770249 213.88642 
L 248.021186 213.196742 
L 247.912246 212.921974 
L 248.013433 212.661973 
L 248.032161 212.26221 
L 248.333913 211.911393 
L 248.358105 211.513811 
L 248.490045 211.308379 
L 248.436339 210.900481 
L 248.883245 210.077928 
L 249.314398 209.868199 
L 249.618997 209.363424 
L 250.030765 209.178683 
L 250.523225 208.067163 
L 250.615735 207.710509 
L 250.841513 207.378978 
L 251.861029 203.623723 
L 251.831586 203.231424 
L 252.225343 202.006832 
L 252.529921 201.659066 
L 253.274878 200.400367 
L 253.432846 199.879262 
L 253.961067 198.840776 
L 254.541068 197.690554 
L 255.107417 197.029071 
L 255.732006 196.061958 
L 255.693006 195.885079 
L 256.328061 195.321472 
L 256.751953 194.583903 
L 256.989023 193.755685 
L 256.868266 193.055467 
L 256.798239 192.623176 
L 256.916898 192.378133 
L 256.82724 192.11771 
L 257.00413 191.830156 
L 257.0361 191.470548 
L 257.653247 190.47461 
L 257.564514 190.090078 
L 257.696281 189.645058 
L 258.199047 188.795375 
L 258.288614 187.98099 
L 258.475073 187.735931 
L 258.32222 187.305866 
L 258.71054 186.660167 
L 258.840259 186.287257 
L 258.768186 185.981972 
L 258.938153 185.115532 
L 259.148223 184.661768 
L 259.082758 184.28796 
L 259.562359 183.641399 
L 259.56391 183.367737 
L 259.682949 183.080415 
L 259.572246 182.748857 
L 259.737152 182.440002 
L 259.676939 182.16651 
L 259.983688 181.584321 
L 260.33073 181.426262 
L 260.365582 181.006805 
L 260.53802 180.70552 
L 261.217693 180.204488 
L 261.281197 179.908225 
L 261.562955 179.221388 
L 261.669038 178.903424 
L 262.095222 178.566857 
L 262.082706 178.195407 
L 262.308418 178.023096 
L 262.587976 177.229394 
L 262.619938 176.903118 
L 262.916663 176.477197 
L 263.229841 176.241441 
L 263.396367 175.541274 
L 263.6486 175.258642 
L 263.590146 174.62762 
L 263.662785 174.350945 
L 263.971623 174.157229 
L 263.9445 173.862733 
L 264.246168 173.582111 
L 264.16678 173.415261 
L 264.569391 172.508995 
L 264.882112 171.703583 
L 264.885087 171.309317 
L 264.673242 171.085443 
L 264.65032 170.596667 
L 264.926779 170.255892 
L 265.102687 169.469358 
L 265.747488 168.723652 
L 265.761562 167.482071 
L 265.964076 167.160999 
L 265.868111 166.800318 
L 265.868111 166.800318 
" style="fill:none;stroke:#0000ff;stroke-linecap:square;stroke-width:1.5;"/>
   </g>
   <g id="line2d_25">
    <path clip-path="url(#p391525e889)" d="M 66.077507 272.038507 
L 66.41062 271.884865 
L 67.135665 271.968893 
L 69.017966 271.798222 
L 70.996244 271.648922 
L 72.208316 271.674375 
L 72.647009 271.539557 
L 76.499376 271.483109 
L 77.772124 271.675204 
L 79.326908 271.587511 
L 79.863793 271.801441 
L 81.014776 271.80844 
L 83.082086 271.754807 
L 84.453627 272.106716 
L 85.299836 271.951564 
L 86.453033 271.805039 
L 88.952037 272.099228 
L 89.473563 271.954203 
L 90.319247 272.036479 
L 90.77102 271.931903 
L 91.970444 271.993077 
L 92.426127 271.923896 
L 92.846131 271.98523 
L 94.089194 271.765289 
L 95.396491 271.448352 
L 99.091471 271.071999 
L 100.235804 270.90045 
L 100.863071 271.027412 
L 102.983785 270.909024 
L 104.009055 270.878515 
L 104.913355 270.843278 
L 106.194113 270.786884 
L 106.846805 270.682447 
L 107.460643 270.766057 
L 107.676107 270.67118 
L 108.071483 270.723757 
L 109.237227 270.375187 
L 114.486597 270.367167 
L 115.053122 270.140569 
L 115.579556 270.085304 
L 115.91986 270.16145 
L 116.990838 269.853061 
L 117.579942 269.769274 
L 118.660414 269.803883 
L 129.399985 268.778283 
L 130.503536 268.87557 
L 131.725886 268.696145 
L 133.366598 269.085145 
L 135.1421 268.768321 
L 135.466281 268.490229 
L 137.555534 268.452537 
L 138.010786 268.598245 
L 140.215142 268.314239 
L 141.731996 268.244887 
L 143.23775 268.001384 
L 143.867909 268.042694 
L 144.326437 267.875975 
L 145.15901 267.89707 
L 146.804918 267.731339 
L 147.724676 267.696363 
L 149.336666 267.208893 
L 150.144922 267.153026 
L 151.662754 266.793532 
L 153.035788 266.669856 
L 153.833421 266.47175 
L 154.800056 266.540536 
L 155.689088 266.452396 
L 158.724874 265.528441 
L 160.120215 264.912895 
L 161.645382 264.722315 
L 162.977317 264.203173 
L 164.553666 263.610869 
L 167.904063 262.303827 
L 169.462871 262.102106 
L 174.682934 260.605829 
L 177.793791 259.176964 
L 178.437227 258.756791 
L 180.420917 257.930975 
L 181.479582 257.066082 
L 183.526575 255.819035 
L 184.140129 255.38451 
L 184.67981 255.185646 
L 185.897204 254.270234 
L 186.863178 253.934931 
L 187.830554 253.090247 
L 189.051587 252.369289 
L 190.643966 251.158903 
L 192.133345 250.39487 
L 195.527205 247.709564 
L 196.46216 246.981434 
L 197.086541 246.857869 
L 198.721001 246.310583 
L 199.644068 245.297364 
L 200.421267 244.944504 
L 202.191622 243.710865 
L 203.575434 242.993788 
L 203.976042 242.540809 
L 205.93637 241.197496 
L 207.312833 239.771904 
L 207.784893 239.556208 
L 209.334497 238.024966 
L 209.918459 236.897425 
L 210.589194 236.326181 
L 211.196458 236.015357 
L 211.469554 235.647013 
L 212.630665 234.70885 
L 212.901762 234.296044 
L 213.934171 233.526793 
L 214.252391 232.953704 
L 214.707623 232.594129 
L 215.412732 231.707543 
L 216.171388 230.755122 
L 217.077693 229.300636 
L 217.456163 228.869005 
L 217.835698 227.859588 
L 218.334129 226.918119 
L 218.525139 226.306126 
L 219.650505 224.251852 
L 220.088758 223.746248 
L 220.256823 223.160551 
L 220.719152 222.743194 
L 221.05011 221.841676 
L 221.229271 220.659435 
L 221.489246 220.151934 
L 221.594992 219.596074 
L 222.119707 218.700068 
L 222.19324 218.125059 
L 222.068737 217.658265 
L 222.198657 217.234503 
L 222.08976 216.727285 
L 222.369449 215.733787 
L 222.907116 214.749131 
L 223.979865 211.476737 
L 224.289519 210.553034 
L 224.558041 210.168718 
L 224.586257 209.858936 
L 226.178671 206.31005 
L 226.400174 205.997309 
L 226.36583 204.663638 
L 226.526808 203.618419 
L 226.540815 202.780932 
L 227.011575 202.403363 
L 226.688095 201.991577 
L 226.562943 201.640053 
L 227.006821 201.081626 
L 227.180344 200.515119 
L 227.68451 198.746385 
L 227.956801 197.946816 
L 227.898143 197.517513 
L 228.118655 196.980207 
L 228.565334 196.092287 
L 228.838703 195.843259 
L 228.976186 194.625744 
L 229.416395 194.271059 
L 229.541028 193.368023 
L 229.543358 192.935705 
L 229.692944 192.567758 
L 229.850301 191.436202 
L 230.067882 191.132861 
L 230.503321 189.933979 
L 230.379937 189.667448 
L 230.902991 189.044286 
L 231.447516 188.33383 
L 231.788603 187.469758 
L 231.696727 187.117968 
L 233.216328 183.458928 
L 233.521705 183.141725 
L 234.091323 182.22142 
L 234.395505 181.82762 
L 234.402046 181.413737 
L 234.634768 181.105492 
L 234.591811 180.608302 
L 234.965274 180.302869 
L 234.899994 180.105679 
L 235.136519 179.793445 
L 235.248738 179.388756 
L 235.685449 178.438394 
L 236.086179 177.442623 
L 235.906898 177.193909 
L 236.148258 176.748472 
L 236.176264 176.406585 
L 236.069758 176.091492 
L 236.247145 175.184678 
L 236.381338 174.657127 
L 236.46978 174.322118 
L 236.744168 173.926667 
L 236.683099 173.612023 
L 236.889792 172.951193 
L 237.084716 172.283599 
L 237.245275 171.441713 
L 237.456324 170.604769 
L 237.731245 170.242096 
L 238.184054 168.673757 
L 238.450889 168.329435 
L 238.615448 167.183832 
L 239.225356 166.525699 
L 239.215039 166.135854 
L 239.47732 165.262875 
L 239.191687 164.664893 
L 239.351442 164.422046 
L 239.457858 163.677488 
L 239.712427 163.281158 
L 239.466149 162.764049 
L 239.891428 162.006452 
L 240.068546 161.844949 
L 240.479786 161.046937 
L 240.622934 160.634671 
L 240.961252 160.397514 
L 240.837904 159.940193 
L 241.108591 159.606236 
L 241.080736 159.33623 
L 241.713325 157.874599 
L 242.10707 157.627589 
L 242.644178 156.489059 
L 242.768411 156.08602 
L 242.664658 155.85942 
L 242.937674 155.106397 
L 242.8218 154.153072 
L 243.046897 153.831961 
L 243.197645 153.151086 
L 243.348689 152.271535 
L 243.25182 151.625205 
L 243.752798 150.076634 
L 243.687644 149.40382 
L 244.25436 148.745827 
L 244.103656 148.416244 
L 244.121838 147.956169 
L 244.619786 147.031631 
L 244.490064 146.595119 
L 244.949811 145.718478 
L 245.030592 144.873986 
L 245.068049 144.38475 
L 245.455772 143.817736 
L 245.650191 143.162371 
L 245.703541 142.641687 
L 246.046904 142.197954 
L 245.901548 141.830331 
L 245.901548 141.830331 
" style="fill:none;stroke:#0000ff;stroke-linecap:square;stroke-width:1.5;"/>
   </g>
   <g id="patch_3">
    <path d="M 57.6 307.584 
L 57.6 41.472 
" style="fill:none;stroke:#000000;stroke-linecap:square;stroke-linejoin:miter;stroke-width:0.8;"/>
   </g>
   <g id="patch_4">
    <path d="M 414.72 307.584 
L 414.72 41.472 
" style="fill:none;stroke:#000000;stroke-linecap:square;stroke-linejoin:miter;stroke-width:0.8;"/>
   </g>
   <g id="patch_5">
    <path d="M 57.6 307.584 
L 414.72 307.584 
" style="fill:none;stroke:#000000;stroke-linecap:square;stroke-linejoin:miter;stroke-width:0.8;"/>
   </g>
   <g id="patch_6">
    <path d="M 57.6 41.472 
L 414.72 41.472 
" style="fill:none;stroke:#000000;stroke-linecap:square;stroke-linejoin:miter;stroke-width:0.8;"/>
   </g>
  </g>
 </g>
 <defs>
  <clipPath id="p391525e889">
   <rect height="266.112" width="357.12" x="57.6" y="41.472"/>
  </clipPath>
 </defs>
</svg>
