<?xml version="1.0" encoding="UTF-8" standalone="no"?>
<!DOCTYPE svg PUBLIC "-//W3C//DTD SVG 1.0//EN" "http://www.w3.org/TR/2001/PR-SVG-20010719/DTD/svg10.dtd">
<svg width="13cm" height="10cm" viewBox="84 59 249 188" xmlns="http://www.w3.org/2000/svg" xmlns:xlink="http://www.w3.org/1999/xlink">
  <g>
    <rect style="fill: #e5e5e5" x="115" y="60.2772" width="136.667" height="16.5"/>
    <rect style="fill: none; fill-opacity:0; stroke-width: 1; stroke: #000000" x="115" y="60.2772" width="136.667" height="16.5"/>
  </g>
  <g>
    <ellipse style="fill: #ffc0cb" cx="101.167" cy="129.5" rx="15.5" ry="19.4191"/>
    <ellipse style="fill: none; fill-opacity:0; stroke-width: 2; stroke: #000000" cx="101.167" cy="129.5" rx="15.5" ry="19.4191"/>
  </g>
  <g>
    <line style="fill: none; fill-opacity:0; stroke-width: 2; stroke: #000000" x1="101" y1="159" x2="101" y2="138.13"/>
    <line style="fill: none; fill-opacity:0; stroke-width: 6; stroke: #000000" x1="91" y1="138.13" x2="111" y2="138.13"/>
    <polygon style="fill: #ffffff" points="101,138.13 91,119.87 111,119.87 "/>
    <polygon style="fill: none; fill-opacity:0; stroke-width: 2; stroke: #000000" points="101,138.13 91,119.87 111,119.87 "/>
    <line style="fill: none; fill-opacity:0; stroke-width: 2; stroke: #000000" x1="101" y1="119.87" x2="101" y2="99"/>
  </g>
  <polyline style="fill: none; fill-opacity:0; stroke-width: 2; stroke: #000000" points="101,158.586 101,174.286 95,176.03 107,179.519 95,183.008 107,186.497 95,189.986 107,193.475 101,195.219 101,210.919 "/>
  <g>
    <line style="fill: none; fill-opacity:0; stroke-width: 2; stroke: #000000" x1="101" y1="206" x2="101" y2="226"/>
    <line style="fill: none; fill-opacity:0; stroke-width: 2; stroke: #000000" x1="87" y1="226" x2="115" y2="226"/>
    <line style="fill: none; fill-opacity:0; stroke-width: 2; stroke: #000000" x1="91.69" y1="236" x2="110.31" y2="236"/>
    <line style="fill: none; fill-opacity:0; stroke-width: 2; stroke: #000000" x1="96.38" y1="246" x2="105.62" y2="246"/>
  </g>
  <g>
    <line style="fill: none; fill-opacity:0; stroke-width: 2; stroke: #000000" x1="101" y1="99" x2="101" y2="79"/>
    <polyline style="fill: none; fill-opacity:0; stroke-width: 2; stroke: #000000" points="104,76 101,79 98,76 "/>
  </g>
  <text font-size="14.1111" style="fill: #000000;text-anchor:start;font-family:Utopia;font-style:normal;font-weight:normal" x="116" y="187.919">
    <tspan x="116" y="187.919">R</tspan>
  </text>
  <text font-size="14.1111" style="fill: #000000;text-anchor:start;font-family:Utopia;font-style:normal;font-weight:normal" x="85" y="80.9192">
    <tspan x="85" y="80.9192">V</tspan>
  </text>
  <g>
    <line style="fill: none; fill-opacity:0; stroke-width: 2; stroke: #000000" x1="111.333" y1="110.919" x2="124.017" y2="91.2472"/>
    <polygon style="fill: #000000" points="126.455,87.4651 125.725,94.1335 124.017,91.2472 120.682,90.8823 "/>
    <polygon style="fill: none; fill-opacity:0; stroke-width: 2; stroke: #000000" points="126.455,87.4651 125.725,94.1335 124.017,91.2472 120.682,90.8823 "/>
  </g>
  <g>
    <line style="fill: none; fill-opacity:0; stroke-width: 2; stroke: #000000" x1="116.982" y1="114.132" x2="134.11" y2="90.251"/>
    <polygon style="fill: #000000" points="136.732,86.5943 135.673,93.2183 134.11,90.251 130.798,89.7215 "/>
    <polygon style="fill: none; fill-opacity:0; stroke-width: 2; stroke: #000000" points="136.732,86.5943 135.673,93.2183 134.11,90.251 130.798,89.7215 "/>
  </g>
  <g>
    <line style="fill: none; fill-opacity:0; stroke-width: 2; stroke: #000000" x1="120.249" y1="122.798" x2="132.932" y2="103.127"/>
    <polygon style="fill: #000000" points="135.371,99.3445 134.641,106.013 132.932,103.127 129.598,102.762 "/>
    <polygon style="fill: none; fill-opacity:0; stroke-width: 2; stroke: #000000" points="135.371,99.3445 134.641,106.013 132.932,103.127 129.598,102.762 "/>
  </g>
  <g>
    <line style="fill: none; fill-opacity:0; stroke-width: 2; stroke: #000000" x1="233.666" y1="133.919" x2="248.666" y2="133.919"/>
    <line style="fill: none; fill-opacity:0; stroke-width: 2; stroke: #000000" x1="248.666" y1="118.919" x2="248.666" y2="148.919"/>
    <line style="fill: none; fill-opacity:0; stroke-width: 2; stroke: #000000" x1="248.666" y1="123.919" x2="263.666" y2="113.919"/>
    <line style="fill: none; fill-opacity:0; stroke-width: 2; stroke: #000000" x1="248.666" y1="143.919" x2="263.666" y2="153.919"/>
    <polyline style="fill: none; fill-opacity:0; stroke-width: 2; stroke: #000000" points="258.666,153.919 263.666,153.919 261.743,149.304 "/>
  </g>
  <polyline style="fill: none; fill-opacity:0; stroke-width: 2; stroke: #000000" points="263.934,158.586 263.934,174.286 257.934,176.03 269.934,179.519 257.934,183.008 269.934,186.497 257.934,189.986 269.934,193.475 263.934,195.219 263.934,210.919 "/>
  <g>
    <line style="fill: none; fill-opacity:0; stroke-width: 2; stroke: #000000" x1="263.934" y1="206" x2="263.934" y2="226"/>
    <line style="fill: none; fill-opacity:0; stroke-width: 2; stroke: #000000" x1="249.934" y1="226" x2="277.934" y2="226"/>
    <line style="fill: none; fill-opacity:0; stroke-width: 2; stroke: #000000" x1="254.624" y1="236" x2="273.244" y2="236"/>
    <line style="fill: none; fill-opacity:0; stroke-width: 2; stroke: #000000" x1="259.314" y1="246" x2="268.554" y2="246"/>
  </g>
  <text font-size="14.1111" style="fill: #000000;text-anchor:start;font-family:Utopia;font-style:normal;font-weight:normal" x="279.266" y="187.919">
    <tspan x="279.266" y="187.919">R</tspan>
  </text>
  <line style="fill: none; fill-opacity:0; stroke-width: 2; stroke: #000000" x1="263.666" y1="153.919" x2="264.036" y2="160.919"/>
  <g>
    <line style="fill: none; fill-opacity:0; stroke-width: 2; stroke: #000000" x1="263.666" y1="113.919" x2="263.982" y2="79.1102"/>
    <polyline style="fill: none; fill-opacity:0; stroke-width: 2; stroke: #000000" points="267.009,76.1375 263.982,79.1102 261.009,76.0831 "/>
  </g>
  <text font-size="14.1111" style="fill: #000000;text-anchor:start;font-family:Utopia;font-style:normal;font-weight:normal" x="272.036" y="79.1104">
    <tspan x="272.036" y="79.1104">V</tspan>
  </text>
  <line style="fill: none; fill-opacity:0; stroke-width: 2; stroke: #000000" x1="264.368" y1="113.11" x2="328.702" y2="112.777"/>
  <text font-size="14.1111" style="fill: #000000;text-anchor:start;font-family:Utopia;font-style:normal;font-weight:normal" x="301.702" y="104.11">
    <tspan x="301.702" y="104.11">Vout</tspan>
  </text>
  <g>
    <line style="fill: none; fill-opacity:0; stroke-width: 2; stroke: #000000" x1="198.035" y1="104.777" x2="217.295" y2="128.392"/>
    <polygon style="fill: #000000" points="220.139,131.88 214.022,129.126 217.295,128.392 218.672,125.334 "/>
    <polygon style="fill: none; fill-opacity:0; stroke-width: 2; stroke: #000000" points="220.139,131.88 214.022,129.126 217.295,128.392 218.672,125.334 "/>
  </g>
  <g>
    <line style="fill: none; fill-opacity:0; stroke-width: 2; stroke: #000000" x1="215.036" y1="91.7772" x2="232.23" y2="115.184"/>
    <polygon style="fill: #000000" points="234.894,118.81 228.924,115.751 232.23,115.184 233.76,112.199 "/>
    <polygon style="fill: none; fill-opacity:0; stroke-width: 2; stroke: #000000" points="234.894,118.81 228.924,115.751 232.23,115.184 233.76,112.199 "/>
  </g>
  <g>
    <line style="fill: none; fill-opacity:0; stroke-width: 2; stroke: #000000" x1="199.035" y1="87.7772" x2="226.412" y2="124.112"/>
    <polygon style="fill: #000000" points="229.12,127.706 223.114,124.719 226.412,124.112 227.906,121.108 "/>
    <polygon style="fill: none; fill-opacity:0; stroke-width: 2; stroke: #000000" points="229.12,127.706 223.114,124.719 226.412,124.112 227.906,121.108 "/>
  </g>
  <line style="fill: none; fill-opacity:0; stroke-width: 10; stroke-dasharray: 14; stroke: #000000" x1="120" y1="68.6104" x2="251.666" y2="68.5272"/>
  <g>
    <ellipse style="fill: #ffffff" cx="240.437" cy="133.522" rx="5.56258" ry="9.58931"/>
    <ellipse style="fill: none; fill-opacity:0; stroke-width: 2; stroke: #ffffff" cx="240.437" cy="133.522" rx="5.56258" ry="9.58931"/>
    <text font-size="12.7998" style="fill: #000000;text-anchor:middle;font-family:sans-serif;font-style:normal;font-weight:normal" x="240.437" y="137.422">
      <tspan x="240.437" y="137.422"></tspan>
    </text>
  </g>
</svg>
