<?xml version="1.0" encoding="UTF-8" standalone="no"?>
<!DOCTYPE svg PUBLIC "-//W3C//DTD SVG 1.0//EN" "http://www.w3.org/TR/2001/PR-SVG-20010719/DTD/svg10.dtd">
<svg width="16cm" height="13cm" viewBox="176 68 305 245" xmlns="http://www.w3.org/2000/svg" xmlns:xlink="http://www.w3.org/1999/xlink">
  <g>
    <rect style="fill: #ff0000" x="178" y="71" width="302" height="241"/>
    <rect style="fill: none; fill-opacity:0; stroke-width: 2; stroke: #000000" x="178" y="71" width="302" height="241"/>
  </g>
  <g>
    <rect style="fill: #00ff00" x="178" y="150" width="301" height="78"/>
    <rect style="fill: none; fill-opacity:0; stroke-width: 2; stroke: #00ff00" x="178" y="150" width="301" height="78"/>
  </g>
  <g>
    <line style="fill: none; fill-opacity:0; stroke-width: 2; stroke: #7f7f7f" x1="178" y1="150" x2="479" y2="150"/>
    <line style="fill: none; fill-opacity:0; stroke-width: 2; stroke: #7f7f7f" x1="178" y1="230" x2="479" y2="230"/>
    <line style="fill: none; fill-opacity:0; stroke-width: 2; stroke: #7f7f7f" x1="278.333" y1="70" x2="278.333" y2="310"/>
    <line style="fill: none; fill-opacity:0; stroke-width: 2; stroke: #7f7f7f" x1="378.667" y1="70" x2="378.667" y2="310"/>
    <rect style="fill: none; fill-opacity:0; stroke-width: 2; stroke: #000000" x="178" y="70" width="301" height="240"/>
  </g>
  <g>
    <rect style="fill: #00ff00" x="277" y="73" width="104" height="235"/>
    <rect style="fill: none; fill-opacity:0; stroke-width: 2; stroke: #00ff00" x="277" y="73" width="104" height="235"/>
  </g>
  <g>
    <rect style="fill: #7474fd" x="277" y="150" width="103" height="79"/>
    <rect style="fill: none; fill-opacity:0; stroke-width: 2; stroke: #000000" x="277" y="150" width="103" height="79"/>
  </g>
  <text font-size="19.7556" style="fill: #000000;text-anchor:start;font-family:sans-serif;font-style:normal;font-weight:normal" x="219" y="115">
    <tspan x="219" y="115">N1</tspan>
  </text>
  <text font-size="19.7556" style="fill: #000000;text-anchor:start;font-family:sans-serif;font-style:normal;font-weight:normal" x="318.4" y="118">
    <tspan x="318.4" y="118">N2</tspan>
  </text>
  <text font-size="19.7556" style="fill: #000000;text-anchor:start;font-family:sans-serif;font-style:normal;font-weight:normal" x="422.8" y="114.9">
    <tspan x="422.8" y="114.9">N3</tspan>
  </text>
  <text font-size="19.7556" style="fill: #000000;text-anchor:start;font-family:sans-serif;font-style:normal;font-weight:normal" x="216.2" y="195.8">
    <tspan x="216.2" y="195.8">N4</tspan>
  </text>
  <text font-size="19.7556" style="fill: #000000;text-anchor:start;font-family:sans-serif;font-style:normal;font-weight:normal" x="320.6" y="194.7">
    <tspan x="320.6" y="194.7">N5</tspan>
  </text>
  <text font-size="19.7556" style="fill: #000000;text-anchor:start;font-family:sans-serif;font-style:normal;font-weight:normal" x="421" y="194.6">
    <tspan x="421" y="194.6">N6</tspan>
  </text>
  <text font-size="19.7556" style="fill: #000000;text-anchor:start;font-family:sans-serif;font-style:normal;font-weight:normal" x="218.4" y="276.2">
    <tspan x="218.4" y="276.2">N7</tspan>
  </text>
  <text font-size="19.7556" style="fill: #000000;text-anchor:start;font-family:sans-serif;font-style:normal;font-weight:normal" x="322.8" y="275.1">
    <tspan x="322.8" y="275.1">N8</tspan>
  </text>
  <text font-size="19.7556" style="fill: #000000;text-anchor:start;font-family:sans-serif;font-style:normal;font-weight:normal" x="423.2" y="275">
    <tspan x="423.2" y="275">N9</tspan>
  </text>
</svg>
