<?xml version="1.0" encoding="UTF-8" standalone="no"?>
<!DOCTYPE svg PUBLIC "-//W3C//DTD SVG 1.0//EN" "http://www.w3.org/TR/2001/PR-SVG-20010719/DTD/svg10.dtd">
<svg width="52cm" height="18cm" viewBox="902 100 1034 358" xmlns="http://www.w3.org/2000/svg" xmlns:xlink="http://www.w3.org/1999/xlink">
  <g>
    <ellipse style="fill: #ffff00" cx="965.422" cy="390" rx="51.5" ry="51.5"/>
    <ellipse style="fill: none; fill-opacity:0; stroke-width: 2; stroke: #000000" cx="965.422" cy="390" rx="51.5" ry="51.5"/>
  </g>
  <g>
    <path style="fill: #ff0000" d="M 933.484 102 C 1019.48,102 1065.48,183 1063.48,239 C 1061.48,295 1026.48,390 939.484,391 C 852.484,392 976.484,289 976.484,239 C 976.484,189 847.484,102 933.484,102z"/>
    <path style="fill: none; fill-opacity:0; stroke-width: 2; stroke: #000000" d="M 933.484 102 C 1019.48,102 1065.48,183 1063.48,239 C 1061.48,295 1026.48,390 939.484,391 C 852.484,392 976.484,289 976.484,239 C 976.484,189 847.484,102 933.484,102"/>
  </g>
  <g>
    <line style="fill: none; fill-opacity:0; stroke-width: 2; stroke: #000000" x1="972.484" y1="242" x2="1175.3" y2="242.5"/>
    <path style="fill: #000000" d="M 972.484 242 C 972.49,239.5 974.996,237.006 977.496,237.012 C 979.996,237.019 982.49,239.525 982.484,242.025 C 982.478,244.525 979.972,247.018 977.472,247.012 C 974.972,247.006 972.478,244.5 972.484,242z"/>
    <path style="fill: none; fill-opacity:0; stroke-width: 2; stroke: #000000" d="M 972.484 242 C 972.49,239.5 974.996,237.006 977.496,237.012 C 979.996,237.019 982.49,239.525 982.484,242.025 C 982.478,244.525 979.972,247.018 977.472,247.012 C 974.972,247.006 972.478,244.5 972.484,242"/>
    <path style="fill: #000000" d="M 1175.3 242.5 C 1175.29,245 1172.79,247.494 1170.29,247.488 C 1167.79,247.481 1165.29,244.975 1165.3,242.475 C 1165.3,239.975 1167.81,237.482 1170.31,237.488 C 1172.81,237.494 1175.3,240 1175.3,242.5z"/>
    <path style="fill: none; fill-opacity:0; stroke-width: 2; stroke: #000000" d="M 1175.3 242.5 C 1175.29,245 1172.79,247.494 1170.29,247.488 C 1167.79,247.481 1165.29,244.975 1165.3,242.475 C 1165.3,239.975 1167.81,237.482 1170.31,237.488 C 1172.81,237.494 1175.3,240 1175.3,242.5"/>
  </g>
  <text font-size="16.9333" style="fill: #000000;text-anchor:start;font-family:Utopia;font-style:normal;font-weight:normal" x="1173.3" y="229.5">
    <tspan x="1173.3" y="229.5">Goal</tspan>
  </text>
  <g>
    <line style="fill: none; fill-opacity:0; stroke-width: 2; stroke: #000000" x1="1006.46" y1="368.91" x2="1174.65" y2="240.108"/>
    <path style="fill: #000000" d="M 1006.46 368.91 C 1004.94,366.925 1005.4,363.42 1007.39,361.9 C 1009.37,360.38 1012.88,360.845 1014.4,362.83 C 1015.92,364.815 1015.45,368.32 1013.47,369.84 C 1011.48,371.36 1007.98,370.895 1006.46,368.91z"/>
    <path style="fill: none; fill-opacity:0; stroke-width: 2; stroke: #000000" d="M 1006.46 368.91 C 1004.94,366.925 1005.4,363.42 1007.39,361.9 C 1009.37,360.38 1012.88,360.845 1014.4,362.83 C 1015.92,364.815 1015.45,368.32 1013.47,369.84 C 1011.48,371.36 1007.98,370.895 1006.46,368.91"/>
    <path style="fill: #000000" d="M 1174.65 240.108 C 1176.17,242.093 1175.7,245.598 1173.72,247.118 C 1171.73,248.638 1168.23,248.173 1166.71,246.188 C 1165.19,244.203 1165.65,240.698 1167.64,239.178 C 1169.62,237.658 1173.13,238.123 1174.65,240.108z"/>
    <path style="fill: none; fill-opacity:0; stroke-width: 2; stroke: #000000" d="M 1174.65 240.108 C 1176.17,242.093 1175.7,245.598 1173.72,247.118 C 1171.73,248.638 1168.23,248.173 1166.71,246.188 C 1165.19,244.203 1165.65,240.698 1167.64,239.178 C 1169.62,237.658 1173.13,238.123 1174.65,240.108"/>
  </g>
  <text font-size="16.9333" style="fill: #000000;text-anchor:start;font-family:Utopia;font-style:normal;font-weight:normal" x="1069.05" y="259.608">
    <tspan x="1069.05" y="259.608">d</tspan>
  </text>
  <text font-size="14.1111" style="fill: #000000;text-anchor:start;font-family:Utopia;font-style:normal;font-weight:normal" x="1080.05" y="267.608">
    <tspan x="1080.05" y="267.608">followed</tspan>
  </text>
  <text font-size="16.9333" style="fill: #000000;text-anchor:start;font-family:Utopia;font-style:normal;font-weight:normal" x="1112.05" y="308.608">
    <tspan x="1112.05" y="308.608">d</tspan>
  </text>
  <text font-size="14.1111" style="fill: #000000;text-anchor:start;font-family:Utopia;font-style:normal;font-weight:normal" x="1123.05" y="316.608">
    <tspan x="1123.05" y="316.608">reach</tspan>
  </text>
  <g>
    <polygon style="fill: #00ff00" points="967.922,405 1007.92,368 986.922,381 964.922,390 936.922,393 914.922,389 "/>
    <polygon style="fill: none; fill-opacity:0; stroke-width: 2; stroke: #00ff00" points="967.922,405 1007.92,368 986.922,381 964.922,390 936.922,393 914.922,389 "/>
  </g>
  <text font-size="19.7556" style="fill: #000000;text-anchor:start;font-family:SymbolPi;font-style:normal;font-weight:normal" x="960.92" y="399.822">
    <tspan x="960.92" y="399.822">L</tspan>
  </text>
  <g>
    <ellipse style="fill: #ffff00" cx="1335.02" cy="388.3" rx="51.5" ry="51.5"/>
    <ellipse style="fill: none; fill-opacity:0; stroke-width: 2; stroke: #000000" cx="1335.02" cy="388.3" rx="51.5" ry="51.5"/>
  </g>
  <g>
    <path style="fill: #ff0000" d="M 1291.08 103.3 C 1377.08,103.3 1423.08,184.3 1421.08,240.3 C 1419.08,296.3 1384.08,391.3 1297.08,392.3 C 1210.08,393.3 1334.08,290.3 1334.08,240.3 C 1334.08,190.3 1205.08,103.3 1291.08,103.3z"/>
    <path style="fill: none; fill-opacity:0; stroke-width: 2; stroke: #000000" d="M 1291.08 103.3 C 1377.08,103.3 1423.08,184.3 1421.08,240.3 C 1419.08,296.3 1384.08,391.3 1297.08,392.3 C 1210.08,393.3 1334.08,290.3 1334.08,240.3 C 1334.08,190.3 1205.08,103.3 1291.08,103.3"/>
  </g>
  <text font-size="16.9333" style="fill: #000000;text-anchor:start;font-family:Utopia;font-style:normal;font-weight:normal" x="1530.9" y="230.8">
    <tspan x="1530.9" y="230.8">Goal</tspan>
  </text>
  <g>
    <line style="fill: none; fill-opacity:0; stroke-width: 2; stroke: #000000" x1="1376.92" y1="357" x2="1532.25" y2="241.408"/>
    <path style="fill: #000000" d="M 1376.92 357 C 1375.43,354.994 1375.94,351.496 1377.95,350.004 C 1379.95,348.511 1383.45,349.024 1384.94,351.03 C 1386.44,353.035 1385.92,356.534 1383.92,358.026 C 1381.91,359.519 1378.41,359.006 1376.92,357z"/>
    <path style="fill: none; fill-opacity:0; stroke-width: 2; stroke: #000000" d="M 1376.92 357 C 1375.43,354.994 1375.94,351.496 1377.95,350.004 C 1379.95,348.511 1383.45,349.024 1384.94,351.03 C 1386.44,353.035 1385.92,356.534 1383.92,358.026 C 1381.91,359.519 1378.41,359.006 1376.92,357"/>
    <path style="fill: #000000" d="M 1532.25 241.408 C 1533.74,243.414 1533.23,246.912 1531.22,248.404 C 1529.21,249.897 1525.72,249.384 1524.22,247.378 C 1522.73,245.373 1523.24,241.874 1525.25,240.382 C 1527.26,238.889 1530.75,239.402 1532.25,241.408z"/>
    <path style="fill: none; fill-opacity:0; stroke-width: 2; stroke: #000000" d="M 1532.25 241.408 C 1533.74,243.414 1533.23,246.912 1531.22,248.404 C 1529.21,249.897 1525.72,249.384 1524.22,247.378 C 1522.73,245.373 1523.24,241.874 1525.25,240.382 C 1527.26,238.889 1530.75,239.402 1532.25,241.408"/>
  </g>
  <text font-size="16.9333" style="fill: #000000;text-anchor:start;font-family:Utopia;font-style:normal;font-weight:normal" x="1419.65" y="339.908">
    <tspan x="1419.65" y="339.908">d</tspan>
  </text>
  <text font-size="14.1111" style="fill: #000000;text-anchor:start;font-family:Utopia;font-style:normal;font-weight:normal" x="1430.65" y="347.908">
    <tspan x="1430.65" y="347.908">followed</tspan>
  </text>
  <text font-size="16.9333" style="fill: #000000;text-anchor:start;font-family:Utopia;font-style:normal;font-weight:normal" x="1469.65" y="309.908">
    <tspan x="1469.65" y="309.908">d</tspan>
  </text>
  <text font-size="14.1111" style="fill: #000000;text-anchor:start;font-family:Utopia;font-style:normal;font-weight:normal" x="1480.65" y="317.908">
    <tspan x="1480.65" y="317.908">reach</tspan>
  </text>
  <g>
    <polygon style="fill: #00ff00" points="1337.92,402 1374.92,360 1352.92,379 1332.92,389 1307.92,394 1284.52,393.3 "/>
    <polygon style="fill: none; fill-opacity:0; stroke-width: 2; stroke: #00ff00" points="1337.92,402 1374.92,360 1352.92,379 1332.92,389 1307.92,394 1284.52,393.3 "/>
  </g>
  <text font-size="19.7556" style="fill: #000000;text-anchor:start;font-family:SymbolPi;font-style:normal;font-weight:normal" x="1323.52" y="404.122">
    <tspan x="1323.52" y="404.122">L</tspan>
  </text>
  <g>
    <ellipse style="fill: #ffff00" cx="1771.75" cy="343.3" rx="51.5" ry="51.5"/>
    <ellipse style="fill: none; fill-opacity:0; stroke-width: 2; stroke: #000000" cx="1771.75" cy="343.3" rx="51.5" ry="51.5"/>
  </g>
  <g>
    <path style="fill: #ff0000" d="M 1657.81 103.3 C 1743.81,103.3 1789.81,184.3 1787.81,240.3 C 1785.81,296.3 1750.81,391.3 1663.81,392.3 C 1576.81,393.3 1700.81,290.3 1700.81,240.3 C 1700.81,190.3 1571.81,103.3 1657.81,103.3z"/>
    <path style="fill: none; fill-opacity:0; stroke-width: 2; stroke: #000000" d="M 1657.81 103.3 C 1743.81,103.3 1789.81,184.3 1787.81,240.3 C 1785.81,296.3 1750.81,391.3 1663.81,392.3 C 1576.81,393.3 1700.81,290.3 1700.81,240.3 C 1700.81,190.3 1571.81,103.3 1657.81,103.3"/>
  </g>
  <text font-size="16.9333" style="fill: #000000;text-anchor:start;font-family:Utopia;font-style:normal;font-weight:normal" x="1897.63" y="230.8">
    <tspan x="1897.63" y="230.8">Goal</tspan>
  </text>
  <text font-size="16.9333" style="fill: #000000;text-anchor:start;font-family:Utopia;font-style:normal;font-weight:normal" x="1799.37" y="245.908">
    <tspan x="1799.37" y="245.908">d</tspan>
  </text>
  <text font-size="14.1111" style="fill: #000000;text-anchor:start;font-family:Utopia;font-style:normal;font-weight:normal" x="1810.37" y="253.908">
    <tspan x="1810.37" y="253.908">followed</tspan>
  </text>
  <text font-size="16.9333" style="fill: #000000;text-anchor:start;font-family:Utopia;font-style:normal;font-weight:normal" x="1847.37" y="280.908">
    <tspan x="1847.37" y="280.908">d</tspan>
  </text>
  <text font-size="14.1111" style="fill: #000000;text-anchor:start;font-family:Utopia;font-style:normal;font-weight:normal" x="1858.37" y="288.908">
    <tspan x="1858.37" y="288.908">reach</tspan>
  </text>
  <g>
    <polygon style="fill: #00ff00" points="1776.38,347 1778.38,295 1773.38,311 1763.38,333 1749.38,351 1729.25,370.3 "/>
    <polygon style="fill: none; fill-opacity:0; stroke-width: 2; stroke: #00ff00" points="1776.38,347 1778.38,295 1773.38,311 1763.38,333 1749.38,351 1729.25,370.3 "/>
  </g>
  <text font-size="19.7556" style="fill: #000000;text-anchor:start;font-family:SymbolPi;font-style:normal;font-weight:normal" x="1763.25" y="345.122">
    <tspan x="1763.25" y="345.122">L</tspan>
  </text>
  <g>
    <line style="fill: none; fill-opacity:0; stroke-width: 2; stroke: #7f7f7f" x1="1452.38" y1="248" x2="1457.17" y2="268.519"/>
    <polygon style="fill: #7f7f7f" points="1458.87,275.822 1451.73,267.22 1457.17,268.519 1461.47,264.948 "/>
    <polygon style="fill: none; fill-opacity:0; stroke-width: 2; stroke: #7f7f7f" points="1458.87,275.822 1451.73,267.22 1457.17,268.519 1461.47,264.948 "/>
  </g>
  <g>
    <path style="fill: none; fill-opacity:0; stroke-width: 2; stroke: #7f7f7f" d="M 1315.38,450 A 60.4423,60.4423 0 0 0 1358.84,448.477"/>
    <polygon style="fill: #7f7f7f" points="1365.49,445.193 1359.7,454.757 1359.14,449.194 1354.36,446.299 "/>
    <polygon style="fill: none; fill-opacity:0; stroke-width: 2; stroke: #7f7f7f" points="1365.49,445.193 1359.7,454.757 1359.14,449.194 1354.36,446.299 "/>
  </g>
  <g>
    <path style="fill: none; fill-opacity:0; stroke-width: 2; stroke: #7f7f7f" d="M 943.378,447 A 66.4402,66.4402 0 0 0 989.381,449.513"/>
    <polygon style="fill: #7f7f7f" points="996.36,446.963 989.486,455.78 989.59,450.191 985.181,446.754 "/>
    <polygon style="fill: none; fill-opacity:0; stroke-width: 2; stroke: #7f7f7f" points="996.36,446.963 989.486,455.78 989.59,450.191 985.181,446.754 "/>
  </g>
  <g>
    <path style="fill: none; fill-opacity:0; stroke-width: 2; stroke: #7f7f7f" d="M 1774.69,413.708 A 73.4236,73.4236 0 0 0 1814.56,395.863"/>
    <polygon style="fill: #7f7f7f" points="1819.91,390.687 1817.12,401.513 1814.99,396.345 1809.57,394.948 "/>
    <polygon style="fill: none; fill-opacity:0; stroke-width: 2; stroke: #7f7f7f" points="1819.91,390.687 1817.12,401.513 1814.99,396.345 1809.57,394.948 "/>
  </g>
  <g>
    <line style="fill: none; fill-opacity:0; stroke-width: 2; stroke: #000000" x1="1778.38" y1="295" x2="1898.97" y2="241.408"/>
    <path style="fill: #000000" d="M 1778.38 295 C 1777.36,292.715 1778.63,289.416 1780.92,288.4 C 1783.2,287.385 1786.5,288.654 1787.52,290.939 C 1788.53,293.224 1787.26,296.523 1784.98,297.539 C 1782.69,298.554 1779.39,297.285 1778.38,295z"/>
    <path style="fill: none; fill-opacity:0; stroke-width: 2; stroke: #000000" d="M 1778.38 295 C 1777.36,292.715 1778.63,289.416 1780.92,288.4 C 1783.2,287.385 1786.5,288.654 1787.52,290.939 C 1788.53,293.224 1787.26,296.523 1784.98,297.539 C 1782.69,298.554 1779.39,297.285 1778.38,295"/>
    <path style="fill: #000000" d="M 1898.97 241.408 C 1899.99,243.693 1898.72,246.992 1896.44,248.008 C 1894.15,249.023 1890.85,247.754 1889.84,245.469 C 1888.82,243.184 1890.09,239.885 1892.37,238.869 C 1894.66,237.854 1897.96,239.123 1898.97,241.408z"/>
    <path style="fill: none; fill-opacity:0; stroke-width: 2; stroke: #000000" d="M 1898.97 241.408 C 1899.99,243.693 1898.72,246.992 1896.44,248.008 C 1894.15,249.023 1890.85,247.754 1889.84,245.469 C 1888.82,243.184 1890.09,239.885 1892.37,238.869 C 1894.66,237.854 1897.96,239.123 1898.97,241.408"/>
  </g>
</svg>
