<?xml version='1.0' encoding='UTF-8'?><svg id="qoppa_document" width="283pt" height="259pt" version="1.1" xmlns="http://www.w3.org/2000/svg" xmlns:xlink="http://www.w3.org/1999/xlink"><!-- jPDFWeb v2021R1.00, Build #105 --><g id="qoppa_viewxform_p0" transform="matrix(1 0 0 1 0 0)"><svg id="qoppa_page_p0" class="qoppa_page" y="0pt" width="283pt" height="259pt"><rect class="qoppa_pageborder" x="0.5pt" y="0.5pt" width="282pt" height="258pt" fill="none" /><svg class="qoppa_pagecontents" x="0pt" y="0pt" width="283pt" height="259pt" viewBox="0 0 283 259" style="isolation: isolate;" ><g class="qoppa_contentstream" transform="matrix(1 0 0 -1 0 259)" fill="black" stroke="black" stroke-width="1" stroke-linecap="butt" stroke-linejoin="miter" stroke-miterlimit="10"><clipPath id="clip0-1"><path d="M 0 0 L 283 0 L 283 259 L 0 259 L 0 0 z "/></clipPath><path clip-path="url(#clip0-1)" fill="#00f" stroke="none" d="M 185.957 52.434 C 185.957 39.5188 183.102 29.0484 179.579 29.0484 C 176.057 29.0484 173.202 39.5188 173.202 52.434 C 173.202 65.3492 176.057 75.8195 179.579 75.8195 C 183.102 75.8195 185.957 65.3492 185.957 52.434 z "/><path clip-path="url(#clip0-1)" fill="none" stroke="#000" stroke-width="2.8346" d="M 185.957 52.434 C 185.957 39.5188 183.102 29.0484 179.579 29.0484 C 176.057 29.0484 173.202 39.5188 173.202 52.434 C 173.202 65.3492 176.057 75.8195 179.579 75.8195 C 183.102 75.8195 185.957 65.3492 185.957 52.434 z "/><path clip-path="url(#clip0-1)" fill="#00f" stroke="none" d="M 77.1086 51.4418 C 77.1086 38.5266 74.2531 28.0563 70.7309 28.0563 C 67.2086 28.0563 64.3527 38.5266 64.3527 51.4418 C 64.3527 64.357 67.2086 74.8273 70.7309 74.8273 C 74.2531 74.8273 77.1086 64.357 77.1086 51.4418 z "/><path clip-path="url(#clip0-1)" fill="none" stroke="#000" stroke-width="2.8346" d="M 77.1086 51.4418 C 77.1086 38.5266 74.2531 28.0563 70.7309 28.0563 C 67.2086 28.0563 64.3527 38.5266 64.3527 51.4418 C 64.3527 64.357 67.2086 74.8273 70.7309 74.8273 C 74.2531 74.8273 77.1086 64.357 77.1086 51.4418 z "/><path clip-path="url(#clip0-1)" fill-rule="evenodd" fill="#00f" stroke="none" d="M 69.4477 159.163 C 80.7859 171.918 73.6996 133.652 62.3613 119.479 C 51.0227 105.305 58.1094 146.407 69.4477 159.163 z "/><path clip-path="url(#clip0-1)" fill="none" stroke="#000" stroke-width="2.8346" d="M 69.4477 159.163 C 80.7859 171.918 73.6996 133.652 62.3613 119.479 C 51.0227 105.305 58.1094 146.407 69.4477 159.163 "/><path clip-path="url(#clip0-1)" fill-rule="evenodd" fill="#00f" stroke="none" d="M 188.501 153.494 C 198.422 157.745 190.5 131.371 170.367 122.59 C 150.234 113.809 178.58 149.242 188.501 153.494 z "/><path clip-path="url(#clip0-1)" fill="none" stroke="#000" stroke-width="2.8346" d="M 188.501 153.494 C 198.422 157.745 190.5 131.371 170.367 122.59 C 150.234 113.809 178.58 149.242 188.501 153.494 "/><path clip-path="url(#clip0-1)" fill="none" stroke="#000" stroke-width="2.8346" stroke-dasharray="56.692" d="M 173.202 52.434 L 276.373 51.448 "/><path clip-path="url(#clip0-1)" fill="none" stroke="#000" stroke-width="2.8346" stroke-dasharray="56.692" d="M 276.373 48.6133 L 72.443 136.503 "/><path clip-path="url(#clip0-1)" fill="none" stroke="#000" stroke-width="2.8346" stroke-dasharray="56.692" d="M 280.625 45.7789 L 185.573 132.445 "/><path clip-path="url(#clip0-1)" fill="none" stroke="#ff1e1e" stroke-width="2.8346" d="M 68.0305 207.351 L 66.6133 161.997 "/><path clip-path="url(#clip0-1)" fill="none" stroke="#ff1e1e" stroke-width="2.8346" d="M 181.414 207.351 L 179.738 148.686 "/><path clip-path="url(#clip0-1)" fill="none" stroke="#ff1e1e" stroke-width="2.8346" d="M 192.534 154.385 L 233.855 205.934 "/><path clip-path="url(#clip0-1)" fill="none" stroke="#ff1e1e" stroke-width="2.8346" d="M 75.1168 163.415 L 93.5418 201.682 "/><path clip-path="url(#clip0-1)" fill="none" stroke="#000" stroke-width="2.8346" d="M 69.4477 215.855 C 72.3922 217.535 75.7242 218.42 79.1145 218.42 C 85.5141 218.42 91.507 215.279 95.1488 210.017 "/><path clip-path="url(#clip0-1)" fill="none" stroke="#000" stroke-width="2.8346" d="M 90.3707 214.478 L 96.8844 207.552 L 98.5168 216.919 "/><path clip-path="url(#clip0-1)" fill="none" stroke="#000" stroke-width="2.8346" d="M 183.257 212.439 C 188.114 214.655 193.393 215.802 198.732 215.802 C 207.298 215.802 215.604 212.852 222.252 207.45 "/><path clip-path="url(#clip0-1)" fill="none" stroke="#000" stroke-width="2.8346" d="M 215.875 209.072 L 224.679 205.482 L 222.268 214.679 "/><path clip-path="url(#clip0-1)" fill="none" stroke="#000" stroke-width="2.8346" d="M 78.4359 51.5164 L 173.202 52.434 "/><path clip-path="url(#clip0-1)" fill="none" stroke="#000" stroke-width="2.8346" d="M 70.8785 136.122 L 169.972 137.875 "/><path clip-path="url(#clip0-1)" fill="none" stroke="#0f0" stroke-width="2.8346" d="M 121.888 183.257 L 120.425 136.998 "/><path clip-path="url(#clip0-1)" fill="none" stroke="#0f0" stroke-width="2.8346" d="M 121.888 142.155 L 145.982 179.005 "/><path clip-path="url(#clip0-1)" fill="none" stroke="#000" stroke-width="2.8346" d="M 121.931 191.18 C 125.514 193.98 129.931 195.502 134.479 195.502 C 139.288 195.502 143.943 193.8 147.619 190.698 "/><path clip-path="url(#clip0-1)" fill="none" stroke="#000" stroke-width="2.8346" d="M 141.786 193.642 L 149.946 188.763 L 148.953 198.218 "/><path clip-path="url(#clip0-1)" fill-rule="evenodd" fill="#dcdcff" stroke="none" d="M 133.226 161.997 C 144.564 174.753 131.809 132.234 117.636 120.896 C 103.463 109.557 121.888 149.242 133.226 161.997 z "/><path clip-path="url(#clip0-1)" fill="none" stroke="#000" stroke-width="2.8346" d="M 133.226 161.997 C 144.564 174.753 131.809 132.234 117.636 120.896 C 103.463 109.557 121.888 149.242 133.226 161.997 "/><path clip-path="url(#clip0-1)" fill="#000" stroke="none" d="M 211.066 235.077 C 211.066 236.225 210.864 237.285 210.461 238.255 C 210.06 239.228 209.504 240.05 208.793 240.72 C 208.067 241.406 207.214 241.944 206.233 242.333 C 205.255 242.721 204.207 242.916 203.088 242.916 C 201.951 242.916 200.892 242.718 199.912 242.322 C 198.934 241.926 198.107 241.407 197.43 240.767 C 196.687 240.066 196.113 239.233 195.71 238.27 C 195.309 237.307 195.109 236.235 195.109 235.054 C 195.109 233.979 195.298 232.963 195.677 232.007 C 196.056 231.052 196.593 230.216 197.287 229.5 C 197.981 228.783 198.817 228.22 199.795 227.809 C 200.775 227.398 201.873 227.193 203.088 227.193 C 204.302 227.193 205.402 227.402 206.388 227.82 C 207.375 228.238 208.216 228.805 208.91 229.521 C 209.607 230.238 210.139 231.074 210.509 232.029 C 210.88 232.985 211.066 234.001 211.066 235.077 M 208.25 234.922 C 208.25 233.827 208.159 232.946 207.979 232.279 C 207.8 231.614 207.563 231.008 207.267 230.46 C 207.082 230.106 206.836 229.784 206.53 229.496 C 206.227 229.207 205.892 228.963 205.526 228.763 C 205.161 228.564 204.769 228.409 204.349 228.297 C 203.928 228.187 203.508 228.132 203.088 228.132 C 202.62 228.132 202.172 228.191 201.742 228.308 C 201.314 228.428 200.917 228.594 200.55 228.807 C 200.186 229.021 199.859 229.277 199.571 229.573 C 199.283 229.869 199.046 230.188 198.86 230.53 C 198.486 231.239 198.236 231.948 198.112 232.657 C 197.987 233.368 197.925 234.123 197.925 234.922 C 197.925 236.015 198.03 236.939 198.24 237.695 C 198.45 238.45 198.664 239.041 198.882 239.469 C 199.288 240.268 199.859 240.886 200.598 241.321 C 201.338 241.758 202.176 241.977 203.109 241.977 C 204.046 241.977 204.875 241.755 205.599 241.31 C 206.323 240.867 206.903 240.232 207.341 239.403 C 207.605 238.914 207.822 238.277 207.993 237.493 C 208.164 236.711 208.25 235.854 208.25 234.922 M 206.442 233.012 C 206.411 233.279 206.379 233.594 206.347 233.958 C 206.318 234.322 206.303 234.691 206.303 235.066 C 206.303 235.442 206.318 235.816 206.347 236.188 C 206.379 236.559 206.411 236.862 206.442 237.097 L 206.09 237.122 C 205.824 236.291 205.308 235.876 204.543 235.876 L 201.54 235.876 C 201.227 235.876 200.929 235.958 200.645 236.121 C 200.364 236.288 200.146 236.621 199.989 237.122 L 199.637 237.097 C 199.669 236.801 199.701 236.482 199.732 236.14 C 199.764 235.8 199.78 235.442 199.78 235.066 C 199.78 234.691 199.764 234.322 199.732 233.958 C 199.701 233.594 199.669 233.279 199.637 233.012 L 199.989 232.986 C 200.163 233.488 200.386 233.82 200.66 233.984 C 200.934 234.15 201.25 234.233 201.61 234.233 L 204.543 234.233 C 204.871 234.233 205.171 234.146 205.445 233.973 C 205.719 233.802 205.934 233.473 206.09 232.986 L 206.442 233.012 z "/><path clip-path="url(#clip0-1)" fill="#000" stroke="none" d="M 144.453 219.911 C 144.453 221.06 144.251 222.12 143.848 223.09 C 143.447 224.063 142.891 224.884 142.18 225.554 C 141.454 226.241 140.6 226.779 139.62 227.168 C 138.643 227.556 137.594 227.751 136.474 227.751 C 135.338 227.751 134.279 227.553 133.299 227.157 C 132.321 226.761 131.494 226.243 130.817 225.602 C 130.073 224.9 129.5 224.068 129.097 223.105 C 128.696 222.142 128.496 221.07 128.496 219.889 C 128.496 218.814 128.685 217.798 129.064 216.842 C 129.443 215.887 129.979 215.051 130.674 214.334 C 131.368 213.618 132.204 213.055 133.182 212.644 C 134.162 212.234 135.259 212.028 136.474 212.028 C 137.689 212.028 138.789 212.237 139.774 212.655 C 140.762 213.073 141.603 213.64 142.297 214.356 C 142.994 215.073 143.527 215.909 143.896 216.864 C 144.267 217.82 144.453 218.836 144.453 219.911 M 141.637 219.757 C 141.637 218.662 141.546 217.781 141.366 217.114 C 141.187 216.449 140.95 215.843 140.654 215.295 C 140.468 214.941 140.223 214.619 139.917 214.331 C 139.614 214.042 139.279 213.798 138.913 213.597 C 138.548 213.399 138.156 213.244 137.736 213.132 C 137.315 213.022 136.895 212.967 136.474 212.967 C 136.007 212.967 135.559 213.025 135.129 213.143 C 134.701 213.263 134.304 213.429 133.937 213.641 C 133.573 213.857 133.246 214.112 132.958 214.408 C 132.67 214.704 132.432 215.023 132.246 215.365 C 131.873 216.073 131.623 216.782 131.499 217.491 C 131.374 218.203 131.312 218.958 131.312 219.757 C 131.312 220.85 131.417 221.774 131.627 222.529 C 131.837 223.285 132.051 223.876 132.269 224.304 C 132.675 225.103 133.246 225.721 133.985 226.155 C 134.725 226.593 135.563 226.812 136.496 226.812 C 137.432 226.812 138.263 226.589 138.986 226.145 C 139.709 225.702 140.29 225.067 140.728 224.238 C 140.991 223.749 141.209 223.113 141.38 222.328 C 141.551 221.545 141.637 220.689 141.637 219.757 M 139.829 217.847 C 139.798 218.113 139.766 218.429 139.734 218.793 C 139.705 219.157 139.69 219.526 139.69 219.9 C 139.69 220.277 139.705 220.651 139.734 221.022 C 139.766 221.394 139.798 221.697 139.829 221.932 L 139.477 221.957 C 139.211 221.126 138.695 220.711 137.93 220.711 L 134.927 220.711 C 134.614 220.711 134.316 220.793 134.032 220.956 C 133.751 221.123 133.532 221.456 133.376 221.957 L 133.024 221.932 C 133.056 221.636 133.088 221.317 133.119 220.975 C 133.151 220.635 133.167 220.277 133.167 219.9 C 133.167 219.526 133.151 219.157 133.119 218.793 C 133.088 218.429 133.056 218.113 133.024 217.847 L 133.376 217.821 C 133.55 218.323 133.773 218.655 134.047 218.819 C 134.321 218.985 134.637 219.068 134.996 219.068 L 137.93 219.068 C 138.257 219.068 138.558 218.981 138.832 218.808 C 139.106 218.637 139.321 218.308 139.477 217.821 L 139.829 217.847 z "/><path clip-path="url(#clip0-1)" fill="#000" stroke="none" d="M 90.5953 241.738 C 90.5953 242.887 90.3938 243.946 89.9906 244.917 C 89.5895 245.889 89.0336 246.711 88.3223 247.381 C 87.5961 248.068 86.743 248.605 85.7629 248.994 C 84.7852 249.383 83.7363 249.577 82.6168 249.577 C 81.4801 249.577 80.4219 249.379 79.4414 248.983 C 78.4637 248.587 77.6363 248.069 76.9594 247.429 C 76.216 246.727 75.643 245.895 75.2395 244.931 C 74.8387 243.968 74.6383 242.896 74.6383 241.716 C 74.6383 240.64 74.8277 239.625 75.2066 238.669 C 75.5855 237.713 76.1219 236.877 76.8164 236.161 C 77.5105 235.445 78.3465 234.881 79.3242 234.471 C 80.3043 234.06 81.402 233.855 82.6168 233.855 C 83.8316 233.855 84.9316 234.064 85.9168 234.482 C 86.9043 234.9 87.7453 235.467 88.4395 236.183 C 89.1363 236.899 89.6691 237.735 90.0383 238.691 C 90.4098 239.646 90.5953 240.662 90.5953 241.738 M 87.7793 241.584 C 87.7793 240.489 87.6891 239.607 87.5082 238.94 C 87.3297 238.275 87.0926 237.669 86.7969 237.121 C 86.6109 236.767 86.3652 236.446 86.0598 236.157 C 85.7566 235.869 85.4219 235.624 85.0551 235.424 C 84.691 235.226 84.2984 235.071 83.8781 234.958 C 83.4578 234.848 83.0375 234.793 82.6168 234.793 C 82.15 234.793 81.7016 234.852 81.2711 234.969 C 80.8434 235.089 80.4461 235.255 80.0797 235.468 C 79.7152 235.683 79.3891 235.938 79.1004 236.234 C 78.8121 236.53 78.575 236.849 78.3891 237.191 C 78.0152 237.9 77.766 238.609 77.6414 239.318 C 77.5164 240.029 77.4543 240.784 77.4543 241.584 C 77.4543 242.677 77.5594 243.6 77.7695 244.356 C 77.9797 245.111 78.1938 245.703 78.4113 246.13 C 78.8172 246.93 79.3891 247.547 80.1273 247.982 C 80.868 248.42 81.7051 248.638 82.6387 248.638 C 83.575 248.638 84.4051 248.416 85.1285 247.971 C 85.852 247.529 86.4324 246.893 86.8703 246.064 C 87.134 245.575 87.3516 244.939 87.5227 244.154 C 87.6938 243.372 87.7793 242.515 87.7793 241.584 M 85.9719 239.673 C 85.9402 239.94 85.9082 240.255 85.8766 240.62 C 85.8473 240.984 85.8324 241.353 85.8324 241.727 C 85.8324 242.103 85.8473 242.477 85.8766 242.849 C 85.9082 243.22 85.9402 243.523 85.9719 243.758 L 85.6199 243.784 C 85.3535 242.953 84.8375 242.537 84.0727 242.537 L 81.0695 242.537 C 80.7566 242.537 80.4586 242.619 80.175 242.783 C 79.8938 242.949 79.675 243.283 79.5188 243.784 L 79.1664 243.758 C 79.1984 243.463 79.2301 243.143 79.2617 242.801 C 79.2938 242.461 79.3094 242.103 79.3094 241.727 C 79.3094 241.353 79.2938 240.984 79.2617 240.62 C 79.2301 240.255 79.1984 239.94 79.1664 239.673 L 79.5188 239.648 C 79.6922 240.149 79.9156 240.481 80.1895 240.645 C 80.4633 240.811 80.7801 240.895 81.1391 240.895 L 84.0727 240.895 C 84.4 240.895 84.7008 240.808 84.9746 240.634 C 85.2484 240.463 85.4633 240.134 85.6199 239.648 L 85.9719 239.673 z "/><path clip-path="url(#clip0-1)" fill="#000" stroke="none" d="M 94.002 240.091 L 95.8793 240.091 L 95.8793 227.419 L 102.919 227.419 L 102.919 225.776 L 94.002 225.776 L 94.002 240.091 z "/><path clip-path="url(#clip0-1)" fill="#000" stroke="none" d="M 219.692 225.473 C 220.117 225.331 220.531 225.027 220.935 224.56 C 221.338 224.093 221.743 223.451 222.148 222.635 L 224.084 218.689 L 222.027 218.689 L 220.135 222.393 C 219.671 223.361 219.22 224.002 218.782 224.318 C 218.347 224.633 217.753 224.791 217 224.791 L 214.932 224.791 L 214.932 218.689 L 213.055 218.689 L 213.055 233.004 L 217.32 233.004 C 218.962 233.004 220.187 232.665 220.993 231.988 C 221.802 231.311 222.207 230.288 222.207 228.919 C 222.207 228.027 221.992 227.286 221.562 226.697 C 221.134 226.108 220.511 225.7 219.692 225.473 M 214.932 231.361 L 214.932 226.433 L 217.32 226.433 C 218.236 226.433 218.928 226.642 219.395 227.06 C 219.862 227.479 220.095 228.094 220.095 228.908 C 220.095 229.72 219.862 230.331 219.395 230.742 C 218.928 231.155 218.236 231.361 217.32 231.361 L 214.932 231.361 z "/><path clip-path="url(#clip0-1)" fill="#000" stroke="none" d="M 154.89 218.362 L 154.89 216.484 C 154.179 216.8 153.506 217.034 152.873 217.188 C 152.243 217.345 151.633 217.423 151.043 217.423 C 150.022 217.423 149.234 217.226 148.679 216.833 C 148.126 216.439 147.85 215.879 147.85 215.153 C 147.85 214.545 148.032 214.085 148.396 213.775 C 148.763 213.464 149.456 213.214 150.475 213.023 L 151.597 212.788 C 153.042 212.512 154.108 212.026 154.795 211.329 C 155.484 210.632 155.829 209.7 155.829 208.531 C 155.829 207.138 155.361 206.081 154.424 205.36 C 153.488 204.641 152.115 204.282 150.307 204.282 C 149.622 204.282 148.895 204.36 148.125 204.516 C 147.357 204.675 146.562 204.91 145.738 205.22 L 145.738 207.332 C 146.523 206.866 147.291 206.514 148.044 206.277 C 148.797 206.042 149.537 205.924 150.263 205.924 C 151.365 205.924 152.216 206.142 152.814 206.577 C 153.416 207.012 153.716 207.633 153.716 208.44 C 153.716 209.141 153.509 209.69 153.093 210.086 C 152.68 210.484 152 210.783 151.055 210.981 L 149.921 211.208 C 148.45 211.491 147.384 211.934 146.724 212.535 C 146.067 213.139 145.738 213.977 145.738 215.051 C 145.738 216.295 146.18 217.275 147.065 217.991 C 147.953 218.707 149.173 219.066 150.728 219.066 C 151.396 219.066 152.075 219.007 152.767 218.889 C 153.459 218.772 154.166 218.596 154.89 218.362 z "/><path clip-path="url(#clip0-1)" fill="none" stroke="#7474fd" stroke-width="2.8346" d="M 33.8449 121.271 L 32.7684 60.9934 "/><path clip-path="url(#clip0-1)" fill-rule="evenodd" fill="#7474fd" stroke="none" d="M 33.9586 127.648 L 38.0582 119.07 L 33.8449 121.271 L 29.5555 119.221 z "/><path clip-path="url(#clip0-1)" fill="none" stroke="#7474fd" stroke-width="2.8346" d="M 33.9586 127.648 L 38.0582 119.07 L 33.8449 121.271 L 29.5555 119.221 z "/><path clip-path="url(#clip0-1)" fill-rule="evenodd" fill="#7474fd" stroke="none" d="M 32.6543 54.6168 L 28.5551 63.1949 L 32.7684 60.9934 L 37.0574 63.0434 z "/><path clip-path="url(#clip0-1)" fill="none" stroke="#7474fd" stroke-width="2.8346" d="M 32.6543 54.6168 L 28.5551 63.1949 L 32.7684 60.9934 L 37.0574 63.0434 z "/><path clip-path="url(#clip0-1)" fill="#000" stroke="none" d="M 1.8773 98.3605 L 3.7547 98.3605 L 3.7547 85.6887 L 10.7945 85.6887 L 10.7945 84.0457 L 1.8773 84.0457 L 1.8773 98.3605 z "/><path clip-path="url(#clip0-1)" fill="#000" stroke="none" d="M 13.584 76.95 L 20.3234 76.95 L 20.3234 75.5422 L 11.3289 75.5422 L 11.3289 76.95 C 12.0625 77.7395 13.0609 78.798 14.3246 80.1254 C 15.5887 81.4551 16.3828 82.3121 16.7082 82.6957 C 17.3242 83.4191 17.7543 84.0316 17.9988 84.5328 C 18.2457 85.0336 18.3691 85.5262 18.3691 86.0102 C 18.3691 86.7973 18.0988 87.4391 17.5586 87.9352 C 17.0211 88.434 16.3195 88.6832 15.4539 88.6832 C 14.8406 88.6832 14.1926 88.5477 13.5105 88.2762 C 12.8313 88.0051 12.1039 87.593 11.3289 87.0406 L 11.3289 89.1527 C 12.109 89.4629 12.8371 89.6965 13.5145 89.8531 C 14.1914 90.0117 14.8125 90.0914 15.377 90.0914 C 16.8582 90.0914 18.0402 89.7148 18.9227 88.9621 C 19.8051 88.209 20.2465 87.2031 20.2465 85.9441 C 20.2465 85.348 20.1363 84.782 19.9164 84.2465 C 19.6965 83.7113 19.2969 83.0793 18.7172 82.3512 C 18.5586 82.1629 18.0512 81.6188 17.1957 80.7195 C 16.3426 79.8223 15.1387 78.566 13.584 76.95 z "/><path clip-path="url(#clip0-1)" fill="none" stroke="#7474fd" stroke-width="2.8346" d="M 84.7859 35.0844 L 116.595 35.6793 "/><path clip-path="url(#clip0-1)" fill-rule="evenodd" fill="#7474fd" stroke="none" d="M 78.409 34.9652 L 86.832 39.3754 L 84.7859 35.0844 L 86.991 30.873 z "/><path clip-path="url(#clip0-1)" fill="none" stroke="#7474fd" stroke-width="2.8346" d="M 78.409 34.9652 L 86.832 39.3754 L 84.7859 35.0844 L 86.991 30.873 z "/><path clip-path="url(#clip0-1)" fill-rule="evenodd" fill="#7474fd" stroke="none" d="M 122.971 35.7984 L 114.548 31.3883 L 116.595 35.6793 L 114.389 39.8906 z "/><path clip-path="url(#clip0-1)" fill="none" stroke="#7474fd" stroke-width="2.8346" d="M 122.971 35.7984 L 114.548 31.3883 L 116.595 35.6793 L 114.389 39.8906 z "/><path clip-path="url(#clip0-1)" fill="#000" stroke="none" d="M 95.4191 23.2434 L 97.2965 23.2434 L 97.2965 10.5715 L 104.336 10.5715 L 104.336 8.9289 L 95.4191 8.9289 L 95.4191 23.2434 z "/><path clip-path="url(#clip0-1)" fill="#000" stroke="none" d="M 106.044 6.0852 L 109.095 6.0852 L 109.095 17.5836 L 105.575 16.8797 L 105.575 18.2875 L 109.021 18.9918 L 110.972 18.9918 L 110.972 6.0852 L 114.023 6.0852 L 114.023 4.677 L 106.044 4.677 L 106.044 6.0852 z "/><path clip-path="url(#clip0-1)" fill="none" stroke="#1e90ff" stroke-width="2.8346" d="M 125.819 51.9754 L 126.492 36.9461 "/></g></svg></svg></g></svg>