<?xml version='1.0' encoding='UTF-8'?><svg id="qoppa_document" width="576pt" height="244pt" version="1.1" xmlns="http://www.w3.org/2000/svg" xmlns:xlink="http://www.w3.org/1999/xlink"><!-- jPDFWeb v2021R1.00, Build #105 --><g id="qoppa_viewxform_p0" transform="matrix(1 0 0 1 0 0)"><svg id="qoppa_page_p0" class="qoppa_page" y="0pt" width="576pt" height="244pt"><rect class="qoppa_pageborder" x="0.5pt" y="0.5pt" width="575pt" height="243pt" fill="none" /><svg class="qoppa_pagecontents" x="0pt" y="0pt" width="576pt" height="244pt" viewBox="0 0 576 244" style="isolation: isolate;" ><g class="qoppa_contentstream" transform="matrix(1 0 0 -1 0 244)" fill="black" stroke="black" stroke-width="1" stroke-linecap="butt" stroke-linejoin="miter" stroke-miterlimit="10"><clipPath id="clip0-1"><path d="M 0 0 L 576 0 L 576 244 L 0 244 L 0 0 z "/></clipPath><path clip-path="url(#clip0-1)" fill="#d8e5e5" stroke="none" d="M 59.5301 33.3066 L 382.6751 33.3066 L 382.6751 184.9576 L 59.5301 184.9576 z "/><path clip-path="url(#clip0-1)" fill="none" stroke="#000" stroke-width="2.8346" d="M 59.5301 33.3066 L 382.6751 33.3066 L 382.6751 184.9576 L 59.5301 184.9576 z "/><path clip-path="url(#clip0-1)" fill="#000" stroke="none" d="M 87.8762 143.856 L 164.4106 143.856 L 164.4106 167.9501 L 87.8762 167.9501 z "/><path clip-path="url(#clip0-1)" fill="none" stroke="#000" stroke-width="2.8346" d="M 87.8762 143.856 L 164.4106 143.856 L 164.4106 167.9501 L 87.8762 167.9501 z "/><path clip-path="url(#clip0-1)" fill="#000" stroke="none" d="M 87.5926 49.0387 L 164.127 49.0387 L 164.127 73.1328 L 87.5926 73.1328 z "/><path clip-path="url(#clip0-1)" fill="none" stroke="#000" stroke-width="2.8346" d="M 87.5926 49.0387 L 164.127 49.0387 L 164.127 73.1328 L 87.5926 73.1328 z "/><path clip-path="url(#clip0-1)" fill-rule="evenodd" fill="#00f" stroke="none" d="M 294.802 125.431 L 283.464 145.273 L 351.494 184.958 L 362.832 166.533 z "/><path clip-path="url(#clip0-1)" fill="none" stroke="#000" stroke-width="2.8346" d="M 294.802 125.431 L 283.464 145.273 L 351.494 184.958 L 362.832 166.533 z "/><path clip-path="url(#clip0-1)" fill="none" stroke="#000" stroke-width="2.8346" d="M 1.4207 155.195 L 555.959 153.811 "/><path clip-path="url(#clip0-1)" fill-rule="evenodd" fill="#000" stroke="none" d="M 566.589 153.785 L 552.398 146.734 L 555.959 153.811 L 552.434 160.907 z "/><path clip-path="url(#clip0-1)" fill="none" stroke="#000" stroke-width="2.8346" d="M 566.589 153.785 L 552.398 146.734 L 555.959 153.811 L 552.434 160.907 z "/><path clip-path="url(#clip0-1)" fill-rule="evenodd" fill="#00f" stroke="none" d="M 291.967 36.5285 L 283.464 57.3156 L 352.911 87.1641 L 361.888 66.7641 z "/><path clip-path="url(#clip0-1)" fill="none" stroke="#000" stroke-width="2.8346" d="M 291.967 36.5285 L 283.464 57.3156 L 352.911 87.1641 L 361.888 66.7641 z "/><path clip-path="url(#clip0-1)" fill="none" stroke="#00f" stroke-width="2.8346" d="M 238.11 107.006 L 461.311 237.896 "/><path clip-path="url(#clip0-1)" fill-rule="evenodd" fill="#00f" stroke="none" d="M 464.979 240.046 L 461.522 234.734 L 461.311 237.896 L 458.655 239.624 z "/><path clip-path="url(#clip0-1)" fill="none" stroke="#00f" stroke-width="2.8346" d="M 464.979 240.046 L 461.522 234.734 L 461.311 237.896 L 458.655 239.624 z "/><path clip-path="url(#clip0-1)" fill="none" stroke="#000" stroke-width="2.8346" d="M 416.655 200.121 C 420.845 193.119 423.058 185.111 423.058 176.951 C 423.058 170.939 421.857 164.988 419.524 159.446 "/><path clip-path="url(#clip0-1)" fill-rule="evenodd" fill="#000" stroke="none" d="M 413.175 205.311 L 422.075 201.966 L 417.512 200.634 L 415.84 196.184 z "/><path clip-path="url(#clip0-1)" fill="none" stroke="#000" stroke-width="2.8346" d="M 413.175 205.311 L 422.075 201.966 L 417.512 200.634 L 415.84 196.184 z "/><path clip-path="url(#clip0-1)" fill="none" stroke="#000" stroke-width="1.4173" d="M 126.143 142.49 L 126.143 0.7086 "/><path clip-path="url(#clip0-1)" fill="none" stroke="#000" stroke-width="1.4173" d="M 323.015 140.825 L 321.731 2.1258 "/><path clip-path="url(#clip0-1)" fill="none" stroke="#000" stroke-width="1.4173" d="M 59.5301 109.132 L 382.675 109.132 "/><path clip-path="url(#clip0-1)" fill="#000" stroke="none" d="M 445.205 184.864 C 445.205 185.849 444.961 186.743 444.472 187.548 C 443.986 188.354 443.294 188.95 442.396 189.333 C 442.462 189.382 442.551 189.452 442.661 189.542 C 442.771 189.633 442.884 189.736 443.002 189.85 C 443.119 189.965 443.232 190.092 443.343 190.232 C 443.453 190.373 443.547 190.514 443.625 190.654 C 443.728 190.832 443.82 191.062 443.904 191.343 C 443.989 191.626 444.032 191.901 444.032 192.168 C 444.032 192.73 443.856 193.238 443.504 193.693 C 443.154 194.148 442.701 194.508 442.144 194.775 C 441.496 195.095 440.829 195.255 440.142 195.255 C 439.804 195.255 439.496 195.22 439.218 195.148 C 438.939 195.078 438.682 194.985 438.448 194.87 C 437.748 194.525 437.252 194.139 436.959 193.711 C 436.668 193.284 436.523 192.82 436.523 192.321 L 436.523 179.752 C 436.523 179.22 436.484 178.698 436.405 178.187 C 436.327 177.673 436.262 177.182 436.211 176.713 L 437.93 176.713 C 437.957 176.96 437.991 177.207 438.03 177.454 C 438.069 177.7 438.088 177.935 438.088 178.157 L 438.129 181.762 C 438.723 181.351 439.264 181.072 439.753 180.926 C 440.242 180.779 440.764 180.706 441.319 180.706 C 441.888 180.706 442.414 180.807 442.895 181.01 C 443.377 181.215 443.786 181.504 444.123 181.875 C 444.461 182.247 444.725 182.684 444.916 183.188 C 445.109 183.694 445.205 184.253 445.205 184.864 M 443.093 184.475 C 443.093 183.779 443.016 183.248 442.862 182.884 C 442.708 182.522 442.524 182.231 442.309 182.011 C 442.128 181.83 441.903 181.685 441.634 181.575 C 441.368 181.465 441.094 181.41 440.812 181.41 C 440.402 181.41 439.989 181.484 439.573 181.634 C 439.158 181.782 438.809 181.999 438.528 182.282 C 438.465 182.348 438.404 182.407 438.345 182.459 C 438.289 182.51 438.229 182.568 438.165 182.634 L 438.165 192.454 C 438.165 192.649 438.209 192.867 438.297 193.106 C 438.385 193.346 438.51 193.572 438.671 193.785 C 438.833 193.997 439.028 194.178 439.258 194.327 C 439.49 194.477 439.75 194.551 440.039 194.551 C 440.3 194.551 440.558 194.489 440.812 194.364 C 441.069 194.242 441.294 194.064 441.487 193.832 C 441.683 193.6 441.843 193.312 441.968 192.967 C 442.092 192.625 442.155 192.234 442.155 191.794 C 442.155 191.549 442.128 191.297 442.074 191.038 C 442.023 190.779 441.958 190.571 441.88 190.415 C 441.777 190.195 441.654 190.011 441.509 189.861 C 441.368 189.715 441.232 189.641 441.102 189.641 C 441.024 189.641 440.877 189.663 440.662 189.707 C 440.45 189.754 440.265 189.777 440.109 189.777 C 439.811 189.777 439.589 189.702 439.445 189.554 C 439.303 189.404 439.232 189.245 439.232 189.077 C 439.232 188.959 439.297 188.842 439.427 188.725 C 439.556 188.61 439.77 188.552 440.068 188.552 C 440.225 188.552 440.387 188.564 440.556 188.589 C 440.725 188.616 440.861 188.629 440.967 188.629 C 441.096 188.629 441.212 188.61 441.315 188.571 C 441.42 188.534 441.551 188.438 441.707 188.281 C 442.062 187.932 442.381 187.423 442.664 186.756 C 442.95 186.091 443.093 185.33 443.093 184.475 z "/><path clip-path="url(#clip0-1)" fill="none" stroke="#00f" stroke-width="2.8346" d="M 261.259 34.6387 L 494.935 137.475 "/><path clip-path="url(#clip0-1)" fill-rule="evenodd" fill="#00f" stroke="none" d="M 498.827 139.187 L 494.78 134.309 L 494.935 137.475 L 492.496 139.498 z "/><path clip-path="url(#clip0-1)" fill="none" stroke="#00f" stroke-width="2.8346" d="M 498.827 139.187 L 494.78 134.309 L 494.935 137.475 L 492.496 139.498 z "/><path clip-path="url(#clip0-1)" fill="none" stroke="#000" stroke-width="2.8346" d="M 3.9754 61.2746 L 558.514 59.8918 "/><path clip-path="url(#clip0-1)" fill-rule="evenodd" fill="#000" stroke="none" d="M 569.144 59.8652 L 554.953 52.8141 L 558.514 59.8918 L 554.988 66.9871 z "/><path clip-path="url(#clip0-1)" fill="none" stroke="#000" stroke-width="2.8346" d="M 569.144 59.8652 L 554.953 52.8141 L 558.514 59.8918 L 554.988 66.9871 z "/><path clip-path="url(#clip0-1)" fill="none" stroke="#000" stroke-width="2.8346" d="M 435.896 101.733 C 439.196 95.8473 440.93 89.2117 440.93 82.4637 C 440.93 76.1266 439.401 69.8824 436.473 64.2625 "/><path clip-path="url(#clip0-1)" fill-rule="evenodd" fill="#000" stroke="none" d="M 432.548 106.962 L 441.452 103.628 L 436.89 102.291 L 435.223 97.8387 z "/><path clip-path="url(#clip0-1)" fill="none" stroke="#000" stroke-width="2.8346" d="M 432.548 106.962 L 441.452 103.628 L 436.89 102.291 L 435.223 97.8387 z "/><path clip-path="url(#clip0-1)" fill="#000" stroke="none" d="M 460.512 85.2984 C 460.512 86.2836 460.268 87.1781 459.779 87.9824 C 459.292 88.7891 458.6 89.3844 457.704 89.768 C 457.77 89.8168 457.857 89.8867 457.968 89.977 C 458.077 90.0676 458.191 90.1703 458.309 90.2852 C 458.426 90.4 458.539 90.527 458.65 90.6664 C 458.759 90.8082 458.854 90.9488 458.932 91.0879 C 459.034 91.2664 459.127 91.4961 459.211 91.7773 C 459.296 92.0609 459.339 92.3359 459.339 92.6023 C 459.339 93.1645 459.163 93.673 458.811 94.1277 C 458.461 94.5824 458.008 94.943 457.45 95.2094 C 456.803 95.5297 456.135 95.6895 455.448 95.6895 C 455.111 95.6895 454.803 95.6543 454.525 95.5832 C 454.246 95.5125 453.989 95.4195 453.754 95.3047 C 453.055 94.9602 452.559 94.5738 452.266 94.1461 C 451.975 93.7184 451.83 93.2551 451.83 92.7562 L 451.83 80.1871 C 451.83 79.6543 451.79 79.1324 451.712 78.6215 C 451.634 78.1082 451.569 77.6168 451.518 77.1477 L 453.238 77.1477 C 453.264 77.3945 453.297 77.6414 453.336 77.8883 C 453.376 78.1352 453.395 78.3695 453.395 78.5922 L 453.436 82.1965 C 454.029 81.7859 454.571 81.507 455.06 81.3605 C 455.549 81.2137 456.071 81.1406 456.625 81.1406 C 457.195 81.1406 457.721 81.2418 458.202 81.4449 C 458.684 81.65 459.093 81.9387 459.43 82.3102 C 459.768 82.6816 460.032 83.1191 460.222 83.6227 C 460.416 84.1289 460.512 84.6871 460.512 85.2984 M 458.4 84.9098 C 458.4 84.2129 458.323 83.6828 458.169 83.3184 C 458.015 82.9566 457.83 82.6656 457.616 82.4457 C 457.434 82.2648 457.21 82.1195 456.941 82.0094 C 456.674 81.8996 456.4 81.8445 456.12 81.8445 C 455.709 81.8445 455.296 81.9191 454.88 82.068 C 454.464 82.2172 454.116 82.4336 453.835 82.7172 C 453.771 82.7832 453.711 82.8418 453.652 82.893 C 453.596 82.9445 453.536 83.0031 453.472 83.0691 L 453.472 92.8883 C 453.472 93.084 453.516 93.3016 453.604 93.541 C 453.692 93.7805 453.817 94.0066 453.978 94.2191 C 454.139 94.432 454.335 94.6129 454.565 94.7621 C 454.797 94.9109 455.057 94.9855 455.346 94.9855 C 455.607 94.9855 455.865 94.9234 456.12 94.7988 C 456.376 94.6766 456.601 94.4992 456.794 94.2668 C 456.99 94.0348 457.15 93.7465 457.275 93.4016 C 457.399 93.0594 457.461 92.6684 457.461 92.2285 C 457.461 91.984 457.434 91.732 457.381 91.473 C 457.329 91.2141 457.265 91.0062 457.186 90.8496 C 457.084 90.6297 456.96 90.4453 456.816 90.2961 C 456.674 90.1492 456.539 90.0762 456.409 90.0762 C 456.331 90.0762 456.184 90.098 455.969 90.1422 C 455.757 90.1883 455.572 90.2117 455.416 90.2117 C 455.117 90.2117 454.896 90.1371 454.752 89.9879 C 454.61 89.8391 454.539 89.6801 454.539 89.5113 C 454.539 89.3941 454.604 89.2766 454.734 89.1594 C 454.863 89.0445 455.077 88.9871 455.375 88.9871 C 455.532 88.9871 455.694 88.9992 455.863 89.0238 C 456.032 89.0504 456.168 89.0641 456.273 89.0641 C 456.403 89.0641 456.519 89.0445 456.622 89.0055 C 456.727 88.9688 456.858 88.8723 457.014 88.7156 C 457.368 88.366 457.688 87.8578 457.971 87.1902 C 458.257 86.5254 458.4 85.7652 458.4 84.9098 z "/><path clip-path="url(#clip0-1)" fill="#000" stroke="none" d="M 469.246 71.5738 L 469.246 72.1457 L 467.607 72.2852 C 467.197 72.3215 466.962 72.4793 466.962 73.2457 L 466.962 84.832 L 466.863 84.9496 L 462.8 84.2602 L 462.8 83.7688 L 464.615 83.5523 C 464.949 83.5121 465.085 83.3547 465.085 82.7863 L 465.085 73.2457 C 465.085 72.8715 465.026 72.6371 464.909 72.4977 C 464.81 72.3621 464.656 72.3031 464.439 72.2852 L 462.8 72.1457 L 462.8 71.5738 L 469.246 71.5738 z "/><path clip-path="url(#clip0-1)" fill="#000" stroke="none" d="M 454.481 174.765 L 453.935 174.86 C 453.513 173.823 453.11 173.687 452.303 173.687 L 447.291 173.687 C 447.606 174.688 448.768 176.055 450.602 177.343 C 452.494 178.692 453.953 179.557 453.953 181.713 C 453.953 184.57 452.127 185.556 450.045 185.556 C 447.368 185.556 445.982 183.858 445.982 182.795 C 445.982 182.087 446.722 181.754 447.056 181.754 C 447.408 181.754 447.544 181.962 447.624 182.314 C 447.936 183.73 448.699 184.874 449.909 184.874 C 451.412 184.874 451.841 183.521 451.841 182.003 C 451.841 179.935 450.785 178.776 449.088 177.288 C 446.682 175.22 445.843 173.903 445.472 172.396 L 445.666 172.202 L 453.814 172.202 L 454.481 174.765 z "/><path clip-path="url(#clip0-1)" fill="#000" stroke="none" d="M 350.716 132.988 C 350.716 133.741 350.585 134.452 350.323 135.122 C 350.062 135.794 349.647 136.398 349.08 136.933 C 348.674 137.317 348.242 137.597 347.782 137.773 C 347.325 137.952 346.77 138.096 346.118 138.205 L 346.095 141.652 L 345.113 141.979 L 345.157 138.268 C 344.069 138.185 343.14 137.78 342.37 137.054 C 342.109 136.81 341.871 136.523 341.659 136.193 C 341.449 135.865 341.266 135.512 341.112 135.133 C 340.961 134.757 340.841 134.369 340.753 133.971 C 340.668 133.575 340.625 133.192 340.625 132.823 C 340.625 132.112 340.767 131.416 341.05 130.737 C 341.334 130.06 341.73 129.482 342.238 129.002 C 342.644 128.619 343.123 128.33 343.675 128.137 C 344.228 127.946 344.766 127.796 345.289 127.686 L 345.333 123.363 L 346.205 123.103 L 346.184 127.708 C 346.777 127.791 347.311 127.907 347.782 128.056 C 348.256 128.208 348.682 128.462 349.058 128.819 C 349.496 129.23 349.881 129.787 350.213 130.491 C 350.548 131.197 350.716 132.03 350.716 132.988 M 348.838 132.398 C 348.838 131.989 348.798 131.595 348.717 131.213 C 348.636 130.832 348.517 130.49 348.358 130.187 C 348.138 129.791 347.875 129.451 347.57 129.167 C 347.264 128.886 346.813 128.712 346.216 128.647 L 346.154 137.329 C 346.692 137.065 347.099 136.795 347.375 136.519 C 347.652 136.243 347.905 135.9 348.138 135.492 C 348.358 135.099 348.529 134.622 348.651 134.062 C 348.776 133.505 348.838 132.95 348.838 132.398 M 345.377 127.704 C 345.203 127.719 345.029 127.784 344.852 127.899 C 344.679 128.016 344.508 128.161 344.339 128.335 C 344.173 128.511 344.013 128.704 343.859 128.914 C 343.707 129.127 343.574 129.35 343.459 129.582 C 343.212 130.075 343.03 130.609 342.913 131.184 C 342.796 131.759 342.737 132.329 342.737 132.896 C 342.737 133.48 342.784 134.023 342.88 134.524 C 342.975 135.025 343.124 135.469 343.327 135.855 C 343.53 136.241 343.792 136.562 344.112 136.816 C 344.432 137.07 344.818 137.241 345.27 137.329 L 345.377 127.704 z "/><path clip-path="url(#clip0-1)" fill="#000" stroke="none" d="M 296.575 86.2879 C 296.575 87.0406 296.444 87.752 296.182 88.4219 C 295.921 89.0941 295.506 89.698 294.939 90.2332 C 294.534 90.6172 294.101 90.8969 293.641 91.073 C 293.184 91.2512 292.629 91.3957 291.977 91.5055 L 291.955 94.9523 L 290.972 95.2785 L 291.016 91.568 C 289.928 91.4848 288.999 91.0801 288.229 90.3543 C 287.968 90.1098 287.731 89.8227 287.518 89.4926 C 287.308 89.1648 287.126 88.8117 286.972 88.4328 C 286.82 88.0566 286.7 87.6691 286.612 87.2707 C 286.527 86.8746 286.484 86.4922 286.484 86.123 C 286.484 85.4117 286.626 84.716 286.909 84.0367 C 287.193 83.3594 287.589 82.7812 288.097 82.3023 C 288.503 81.9184 288.982 81.6301 289.535 81.4371 C 290.087 81.2465 290.625 81.0961 291.148 80.9859 L 291.192 76.6629 L 292.065 76.4027 L 292.043 81.0078 C 292.637 81.091 293.17 81.207 293.641 81.3562 C 294.116 81.5078 294.541 81.7621 294.917 82.1191 C 295.355 82.5297 295.74 83.0871 296.072 83.791 C 296.407 84.4973 296.575 85.3297 296.575 86.2879 M 294.697 85.6977 C 294.697 85.2895 294.657 84.8945 294.576 84.5133 C 294.496 84.132 294.376 83.7898 294.217 83.4867 C 293.997 83.0906 293.734 82.7508 293.429 82.4672 C 293.123 82.1863 292.672 82.0125 292.076 81.9465 L 292.013 90.6293 C 292.551 90.3652 292.958 90.0953 293.234 89.8188 C 293.511 89.5426 293.765 89.2004 293.997 88.7922 C 294.217 88.3988 294.388 87.9219 294.51 87.3621 C 294.635 86.8051 294.697 86.25 294.697 85.6977 M 291.236 81.0043 C 291.062 81.0191 290.888 81.0836 290.712 81.1988 C 290.538 81.316 290.367 81.4613 290.198 81.6352 C 290.032 81.8109 289.872 82.0039 289.718 82.2145 C 289.566 82.427 289.433 82.6496 289.318 82.8816 C 289.071 83.3754 288.889 83.9094 288.772 84.484 C 288.655 85.0582 288.596 85.6293 288.596 86.1961 C 288.596 86.7805 288.644 87.323 288.739 87.8242 C 288.834 88.3254 288.984 88.7691 289.186 89.1551 C 289.389 89.5414 289.651 89.8617 289.971 90.116 C 290.291 90.3703 290.677 90.5414 291.13 90.6293 L 291.236 81.0043 z "/><path clip-path="url(#clip0-1)" fill="#000" stroke="none" d="M 306.257 72.4332 L 306.257 73.0055 L 304.618 73.1445 C 304.207 73.1812 303.973 73.3391 303.973 74.1055 L 303.973 85.6918 L 303.873 85.8094 L 299.811 85.1199 L 299.811 84.6285 L 301.626 84.4121 C 301.959 84.3719 302.095 84.2141 302.095 83.6457 L 302.095 74.1055 C 302.095 73.7312 302.037 73.4965 301.919 73.3574 C 301.82 73.2215 301.666 73.1629 301.45 73.1445 L 299.811 73.0055 L 299.811 72.4332 L 306.257 72.4332 z "/><path clip-path="url(#clip0-1)" fill="#000" stroke="none" d="M 360.939 120.35 L 360.393 120.445 C 359.971 119.407 359.568 119.272 358.761 119.272 L 353.749 119.272 C 354.064 120.273 355.227 121.641 357.06 122.927 C 358.952 124.277 360.411 125.142 360.411 127.298 C 360.411 130.154 358.585 131.141 356.503 131.141 C 353.826 131.141 352.44 129.443 352.44 128.38 C 352.44 127.672 353.18 127.339 353.514 127.339 C 353.866 127.339 354.002 127.548 354.083 127.9 C 354.394 129.315 355.157 130.459 356.367 130.459 C 357.87 130.459 358.299 129.106 358.299 127.588 C 358.299 125.52 357.243 124.361 355.546 122.873 C 353.14 120.805 352.301 119.488 351.93 117.981 L 352.125 117.787 L 360.272 117.787 L 360.939 120.35 z "/><path clip-path="url(#clip0-1)" fill="#000" stroke="none" d="M 292.668 97.7102 C 293.69 97.7102 294.295 98.4543 294.295 99.4445 C 294.295 100.46 293.676 101.23 292.668 101.23 C 291.666 101.23 291.01 100.46 291.01 99.4445 C 291.01 98.4543 291.666 97.7102 292.668 97.7102 z "/><path clip-path="url(#clip0-1)" fill="#000" stroke="none" d="M 346.525 144.481 C 347.548 144.481 348.153 145.225 348.153 146.215 C 348.153 147.231 347.533 148.001 346.525 148.001 C 345.524 148.001 344.868 147.231 344.868 146.215 C 344.868 145.225 345.524 144.481 346.525 144.481 z "/></g></svg></svg></g></svg>