<?xml version='1.0' encoding='UTF-8'?><svg id="qoppa_document" width="248pt" height="265pt" version="1.1" xmlns="http://www.w3.org/2000/svg" xmlns:xlink="http://www.w3.org/1999/xlink"><!-- jPDFWeb v2021R1.00, Build #105 --><g id="qoppa_viewxform_p0" transform="matrix(1 0 0 1 0 0)"><svg id="qoppa_page_p0" class="qoppa_page" y="0pt" width="248pt" height="265pt"><rect class="qoppa_pageborder" x="0.5pt" y="0.5pt" width="247pt" height="264pt" fill="none" /><svg class="qoppa_pagecontents" x="0pt" y="0pt" width="248pt" height="265pt" viewBox="0 0 248 265" style="isolation: isolate;" ><g class="qoppa_contentstream" transform="matrix(1 0 0 -1 0 265)" fill="black" stroke="black" stroke-width="1" stroke-linecap="butt" stroke-linejoin="miter" stroke-miterlimit="10"><clipPath id="clip0-1"><path d="M 0 0 L 248 0 L 248 265 L 0 265 L 0 0 z "/></clipPath><path clip-path="url(#clip0-1)" fill="#fff" stroke="none" d="M 1.4172 70.8734 L 162.9892 70.8734 L 162.9892 172.9194 L 1.4172 172.9194 z "/><path clip-path="url(#clip0-1)" fill="none" stroke="#000" stroke-width="2.8346" d="M 1.4172 70.8734 L 162.9892 70.8734 L 162.9892 172.9194 L 1.4172 172.9194 z "/><path clip-path="url(#clip0-1)" fill="#000" stroke="none" d="M 86.4555 184.257 L 145.9821 184.257 L 145.9821 197.0129 L 86.4555 197.0129 z "/><path clip-path="url(#clip0-1)" fill="none" stroke="#000" stroke-width="2.8346" d="M 86.4555 184.257 L 145.9821 184.257 L 145.9821 197.0129 L 86.4555 197.0129 z "/><path clip-path="url(#clip0-1)" fill="#000" stroke="none" d="M 88.1562 48.6219 L 147.6828 48.6219 L 147.6828 61.3774 L 88.1562 61.3774 z "/><path clip-path="url(#clip0-1)" fill="none" stroke="#000" stroke-width="2.8346" d="M 88.1562 48.6219 L 147.6828 48.6219 L 147.6828 61.3774 L 88.1562 61.3774 z "/><path clip-path="url(#clip0-1)" fill="none" stroke="#000" stroke-width="2.8346" d="M 117.673 234.611 L 119.016 7.7641 "/><path clip-path="url(#clip0-1)" fill="none" stroke="#000" stroke-width="2.8346" d="M 124.825 223.65 L 117.655 237.78 L 110.652 223.566 "/><path clip-path="url(#clip0-1)" fill="none" stroke="#000" stroke-width="2.8346" d="M 111.864 18.7258 L 119.034 4.5949 L 126.037 18.8094 "/><path clip-path="url(#clip0-1)" fill="#000" stroke="none" d="M 24.0941 125.439 C 24.0941 120.352 19.9695 116.227 14.8816 116.227 C 9.7938 116.227 5.6691 120.352 5.6691 125.439 C 5.6691 130.527 9.7938 134.652 14.8816 134.652 C 19.9695 134.652 24.0941 130.527 24.0941 125.439 z "/><path clip-path="url(#clip0-1)" fill="none" stroke="#000" stroke-width="2.8346" d="M 24.0941 125.439 C 24.0941 120.352 19.9695 116.227 14.8816 116.227 C 9.7938 116.227 5.6691 120.352 5.6691 125.439 C 5.6691 130.527 9.7938 134.652 14.8816 134.652 C 19.9695 134.652 24.0941 130.527 24.0941 125.439 z "/><path clip-path="url(#clip0-1)" fill="#00f" stroke="none" d="M 125.431 124.731 C 125.431 121.209 121.306 118.353 116.219 118.353 C 111.131 118.353 107.006 121.209 107.006 124.731 C 107.006 128.253 111.131 131.109 116.219 131.109 C 121.306 131.109 125.431 128.253 125.431 124.731 z "/><path clip-path="url(#clip0-1)" fill="none" stroke="#000" stroke-width="2.8346" d="M 125.431 124.731 C 125.431 121.209 121.306 118.353 116.219 118.353 C 111.131 118.353 107.006 121.209 107.006 124.731 C 107.006 128.253 111.131 131.109 116.219 131.109 C 121.306 131.109 125.431 128.253 125.431 124.731 z "/><path clip-path="url(#clip0-1)" fill="#000" stroke="none" d="M 97.0617 130.56 L 97.0617 125.632 L 99.2324 125.632 C 100.037 125.632 100.657 125.846 101.095 126.274 C 101.535 126.702 101.755 127.31 101.755 128.1 C 101.755 128.884 101.535 129.491 101.095 129.918 C 100.657 130.346 100.037 130.56 99.2324 130.56 L 97.0617 130.56 M 95.1844 131.968 L 99.2324 131.968 C 100.682 131.968 101.777 131.639 102.518 130.982 C 103.261 130.327 103.632 129.366 103.632 128.1 C 103.632 126.824 103.261 125.858 102.518 125.203 C 101.777 124.55 100.682 124.224 99.2324 124.224 L 97.0617 124.224 L 97.0617 119.062 L 95.1844 119.062 L 95.1844 131.968 z "/><path clip-path="url(#clip0-1)" fill="none" stroke="#000" stroke-width="2.8346" d="M 122.733 124.989 L 213.343 124.748 "/><path clip-path="url(#clip0-1)" fill="none" stroke="#000" stroke-width="2.8346" d="M 202.321 117.691 L 216.512 124.739 L 202.358 131.863 "/><path clip-path="url(#clip0-1)" fill="#000" stroke="none" d="M 140.088 136.322 L 139.769 136.322 C 139.732 135.955 139.672 135.688 139.589 135.519 C 139.506 135.353 139.417 135.222 139.321 135.127 C 139.263 135.068 139.188 135.012 139.098 134.958 C 139.01 134.904 138.924 134.877 138.841 134.877 C 138.638 134.877 138.456 134.935 138.295 135.05 C 138.136 135.164 137.996 135.311 137.877 135.489 C 137.759 135.67 137.662 135.872 137.584 136.095 C 137.505 136.317 137.449 136.532 137.415 136.74 L 139.464 141.917 L 137.895 141.917 L 136.755 138.742 L 136.718 138.742 C 136.635 139.311 136.495 139.808 136.296 140.23 C 136.098 140.654 135.865 141.007 135.596 141.29 C 135.327 141.576 135.028 141.752 134.698 141.818 C 134.368 141.884 134.023 141.917 133.664 141.917 C 133.366 141.917 133.093 141.898 132.846 141.859 C 132.602 141.82 132.372 141.755 132.157 141.664 C 131.942 141.576 131.732 141.465 131.526 141.33 C 131.323 141.196 131.114 141.029 130.899 140.828 C 130.445 140.403 130.127 139.91 129.946 139.35 C 129.768 138.793 129.678 138.134 129.678 137.374 C 129.678 135.966 130.073 134.893 130.862 134.155 C 131.163 133.876 131.531 133.653 131.966 133.484 C 132.404 133.318 132.85 133.235 133.305 133.235 C 133.796 133.235 134.298 133.32 134.812 133.491 C 135.327 133.665 135.742 133.907 136.055 134.217 C 136.341 134.501 136.55 134.773 136.682 135.035 C 136.814 135.296 136.933 135.523 137.041 135.713 C 137.136 135.452 137.243 135.175 137.36 134.885 C 137.48 134.594 137.611 134.326 137.752 134.082 C 137.896 133.837 138.054 133.634 138.225 133.473 C 138.399 133.314 138.586 133.235 138.786 133.235 C 138.965 133.235 139.131 133.304 139.285 133.444 C 139.441 133.583 139.576 133.76 139.688 133.975 C 139.801 134.19 139.89 134.418 139.956 134.657 C 140.022 134.899 140.055 135.109 140.055 135.288 L 140.088 136.322 M 136.249 137.323 L 135.765 136.113 C 135.633 135.798 135.474 135.485 135.288 135.174 C 135.105 134.864 134.918 134.621 134.727 134.445 C 134.546 134.281 134.351 134.155 134.141 134.067 C 133.933 133.981 133.734 133.939 133.543 133.939 C 133.257 133.939 132.976 134.025 132.7 134.199 C 132.426 134.375 132.206 134.621 132.039 134.936 C 131.873 135.229 131.751 135.621 131.673 136.113 C 131.595 136.604 131.555 137.105 131.555 137.616 C 131.555 138.086 131.6 138.551 131.688 139.013 C 131.778 139.478 131.919 139.884 132.109 140.23 C 132.241 140.482 132.417 140.709 132.637 140.909 C 132.86 141.112 133.12 141.213 133.418 141.213 C 133.704 141.213 133.984 141.164 134.258 141.066 C 134.534 140.969 134.798 140.805 135.05 140.575 C 135.229 140.411 135.377 140.232 135.497 140.036 C 135.617 139.841 135.721 139.617 135.809 139.365 C 135.899 139.116 135.978 138.821 136.044 138.482 C 136.11 138.144 136.178 137.758 136.249 137.323 z "/><path clip-path="url(#clip0-1)" fill="#000" stroke="none" d="M 143.326 221.783 C 143.326 222.954 143.085 223.872 142.604 224.537 C 142.125 225.204 141.466 225.538 140.627 225.538 C 139.789 225.538 139.129 225.204 138.648 224.537 C 138.168 223.872 137.929 222.954 137.929 221.783 C 137.929 220.612 138.168 219.693 138.648 219.026 C 139.129 218.361 139.789 218.029 140.627 218.029 C 141.466 218.029 142.125 218.361 142.604 219.026 C 143.085 219.693 143.326 220.612 143.326 221.783 M 137.929 225.303 C 138.261 225.858 138.682 226.27 139.19 226.539 C 139.698 226.81 140.306 226.946 141.012 226.946 C 142.186 226.946 143.138 226.471 143.869 225.523 C 144.602 224.575 144.969 223.328 144.969 221.783 C 144.969 220.238 144.602 218.992 143.869 218.043 C 143.138 217.095 142.186 216.621 141.012 216.621 C 140.306 216.621 139.698 216.755 139.19 217.024 C 138.682 217.295 138.261 217.709 137.929 218.263 L 137.929 216.855 L 136.286 216.855 L 136.286 230.466 L 137.929 230.466 L 137.929 225.303 z "/><path clip-path="url(#clip0-1)" fill="none" stroke="#000" stroke-width="2.8346" d="M 120.47 157.329 C 121.787 157.552 123.12 157.664 124.455 157.664 C 137.596 157.664 148.25 147.011 148.25 133.87 C 148.25 131.74 147.963 129.619 147.399 127.565 "/><path clip-path="url(#clip0-1)" fill="#000" stroke="none" d="M 103.688 161.731 L 105.566 161.731 L 105.566 150.233 L 111.902 150.233 L 111.902 148.825 L 103.688 148.825 L 103.688 161.731 z "/><path clip-path="url(#clip0-1)" fill="#000" stroke="none" d="M 223.689 133.386 L 225.548 133.386 L 228.727 128.586 L 231.921 133.386 L 233.78 133.386 L 229.67 127.189 L 234.015 120.479 L 232.17 120.479 L 228.599 125.968 L 224.896 120.479 L 222.986 120.479 L 227.671 127.368 L 223.689 133.386 z "/><path clip-path="url(#clip0-1)" fill="#000" stroke="none" d="M 243.118 119.376 C 243.497 119.252 243.866 118.984 244.226 118.573 C 244.588 118.162 244.949 117.599 245.311 116.883 L 247.005 113.393 L 245.205 113.393 L 243.522 116.667 C 243.099 117.522 242.689 118.089 242.293 118.368 C 241.897 118.649 241.357 118.79 240.673 118.79 L 238.792 118.79 L 238.792 113.393 L 236.914 113.393 L 236.914 126.299 L 240.962 126.299 C 242.441 126.299 243.544 125.987 244.27 125.364 C 244.998 124.741 245.362 123.801 245.362 122.544 C 245.362 121.725 245.171 121.045 244.787 120.502 C 244.405 119.962 243.849 119.587 243.118 119.376 M 238.792 124.891 L 238.792 120.198 L 240.962 120.198 C 241.796 120.198 242.424 120.397 242.847 120.795 C 243.272 121.194 243.485 121.779 243.485 122.552 C 243.485 123.327 243.272 123.909 242.847 124.301 C 242.424 124.694 241.796 124.891 240.962 124.891 L 238.792 124.891 z "/><path clip-path="url(#clip0-1)" fill="#000" stroke="none" d="M 114.567 260.943 L 116.51 260.943 L 120.213 255.633 L 123.891 260.943 L 125.83 260.943 L 121.137 254.181 L 121.137 248.036 L 119.26 248.036 L 119.26 254.181 L 114.567 260.943 z "/><path clip-path="url(#clip0-1)" fill="#000" stroke="none" d="M 131.152 244.099 C 131.53 243.974 131.9 243.706 132.259 243.296 C 132.621 242.885 132.982 242.321 133.344 241.605 L 135.038 238.115 L 133.238 238.115 L 131.555 241.389 C 131.132 242.245 130.723 242.812 130.327 243.09 C 129.931 243.371 129.391 243.512 128.706 243.512 L 126.825 243.512 L 126.825 238.115 L 124.948 238.115 L 124.948 251.021 L 128.996 251.021 C 130.475 251.021 131.577 250.71 132.303 250.086 C 133.032 249.463 133.396 248.523 133.396 247.267 C 133.396 246.448 133.204 245.767 132.82 245.224 C 132.439 244.684 131.882 244.309 131.152 244.099 M 126.825 249.613 L 126.825 244.92 L 128.996 244.92 C 129.829 244.92 130.457 245.119 130.88 245.518 C 131.306 245.916 131.518 246.502 131.518 247.274 C 131.518 248.049 131.306 248.632 130.88 249.023 C 130.457 249.416 129.829 249.613 128.996 249.613 L 126.825 249.613 z "/></g></svg></svg></g></svg>