<?xml version='1.0' encoding='UTF-8'?><svg id="qoppa_document" width="573pt" height="271pt" version="1.1" xmlns="http://www.w3.org/2000/svg" xmlns:xlink="http://www.w3.org/1999/xlink"><!-- jPDFWeb v2021R1.00, Build #105 --><g id="qoppa_viewxform_p0" transform="matrix(1 0 0 1 0 0)"><svg id="qoppa_page_p0" class="qoppa_page" y="0pt" width="573pt" height="271pt"><rect class="qoppa_pageborder" x="0.5pt" y="0.5pt" width="572pt" height="270pt" fill="none" /><svg class="qoppa_pagecontents" x="0pt" y="0pt" width="573pt" height="271pt" viewBox="0 0 573 271" style="isolation: isolate;" ><g class="qoppa_contentstream" transform="matrix(1 0 0 -1 0 271)" fill="black" stroke="black" stroke-width="1" stroke-linecap="butt" stroke-linejoin="miter" stroke-miterlimit="10"><clipPath id="clip0-1"><path d="M 0 0 L 573 0 L 573 271 L 0 271 L 0 0 z "/></clipPath><path clip-path="url(#clip0-1)" fill="#d8e5e5" stroke="none" d="M 59.5301 58.8887 L 382.6751 58.8887 L 382.6751 210.5397 L 59.5301 210.5397 z "/><path clip-path="url(#clip0-1)" fill="none" stroke="#000" stroke-width="2.8346" d="M 59.5301 58.8887 L 382.6751 58.8887 L 382.6751 210.5397 L 59.5301 210.5397 z "/><path clip-path="url(#clip0-1)" fill="#000" stroke="none" d="M 87.8762 169.438 L 164.4106 169.438 L 164.4106 193.5321 L 87.8762 193.5321 z "/><path clip-path="url(#clip0-1)" fill="none" stroke="#000" stroke-width="2.8346" d="M 87.8762 169.438 L 164.4106 169.438 L 164.4106 193.5321 L 87.8762 193.5321 z "/><path clip-path="url(#clip0-1)" fill="#000" stroke="none" d="M 87.5926 74.6207 L 164.127 74.6207 L 164.127 98.7148 L 87.5926 98.7148 z "/><path clip-path="url(#clip0-1)" fill="none" stroke="#000" stroke-width="2.8346" d="M 87.5926 74.6207 L 164.127 74.6207 L 164.127 98.7148 L 87.5926 98.7148 z "/><path clip-path="url(#clip0-1)" fill-rule="evenodd" fill="#00f" stroke="none" d="M 294.802 151.013 L 283.464 170.855 L 351.494 210.54 L 362.832 192.115 z "/><path clip-path="url(#clip0-1)" fill="none" stroke="#000" stroke-width="2.8346" d="M 294.802 151.013 L 283.464 170.855 L 351.494 210.54 L 362.832 192.115 z "/><path clip-path="url(#clip0-1)" fill="none" stroke="#000" stroke-width="2.8346" d="M 1.4207 180.777 L 555.959 179.394 "/><path clip-path="url(#clip0-1)" fill-rule="evenodd" fill="#000" stroke="none" d="M 566.589 179.367 L 552.398 172.316 L 555.959 179.394 L 552.434 186.489 z "/><path clip-path="url(#clip0-1)" fill="none" stroke="#000" stroke-width="2.8346" d="M 566.589 179.367 L 552.398 172.316 L 555.959 179.394 L 552.434 186.489 z "/><path clip-path="url(#clip0-1)" fill-rule="evenodd" fill="#00f" stroke="none" d="M 293.611 58.5262 L 282.273 78.3684 L 350.304 118.053 L 361.642 99.6277 z "/><path clip-path="url(#clip0-1)" fill="none" stroke="#000" stroke-width="2.8346" d="M 293.611 58.5262 L 282.273 78.3684 L 350.304 118.053 L 361.642 99.6277 z "/><path clip-path="url(#clip0-1)" fill="none" stroke="#00f" stroke-width="2.8346" d="M 238.11 132.588 L 461.311 263.478 "/><path clip-path="url(#clip0-1)" fill-rule="evenodd" fill="#00f" stroke="none" d="M 464.979 265.629 L 461.522 260.316 L 461.311 263.478 L 458.655 265.206 z "/><path clip-path="url(#clip0-1)" fill="none" stroke="#00f" stroke-width="2.8346" d="M 464.979 265.629 L 461.522 260.316 L 461.311 263.478 L 458.655 265.206 z "/><path clip-path="url(#clip0-1)" fill="none" stroke="#000" stroke-width="2.8346" d="M 416.655 225.704 C 420.845 218.701 423.058 210.693 423.058 202.534 C 423.058 196.521 421.857 190.57 419.524 185.029 "/><path clip-path="url(#clip0-1)" fill-rule="evenodd" fill="#000" stroke="none" d="M 413.175 230.893 L 422.075 227.549 L 417.512 226.216 L 415.84 221.766 z "/><path clip-path="url(#clip0-1)" fill="none" stroke="#000" stroke-width="2.8346" d="M 413.175 230.893 L 422.075 227.549 L 417.512 226.216 L 415.84 221.766 z "/><path clip-path="url(#clip0-1)" fill="none" stroke="#000" stroke-width="1.4173" d="M 126.143 168.073 L 126.143 26.291 "/><path clip-path="url(#clip0-1)" fill="none" stroke="#000" stroke-width="1.4173" d="M 323.015 166.408 L 321.731 27.7082 "/><path clip-path="url(#clip0-1)" fill="none" stroke="#000" stroke-width="2.8346" d="M 136.733 32.0074 L 313.975 33.3301 "/><path clip-path="url(#clip0-1)" fill="none" stroke="#000" stroke-width="2.8346" d="M 142.036 36.2988 L 133.564 31.9836 L 142.1 27.7953 "/><path clip-path="url(#clip0-1)" fill="none" stroke="#000" stroke-width="2.8346" d="M 308.672 29.0387 L 317.144 33.3539 L 308.609 37.5422 "/><path clip-path="url(#clip0-1)" fill="#000" stroke="none" d="M 226.744 23.8949 C 226.744 25.0023 226.802 25.0426 228.617 25.1602 L 228.617 25.7285 L 223.106 25.7285 L 223.106 25.1602 C 224.826 25.0426 224.866 25.0023 224.866 23.8949 L 224.866 13.907 C 224.866 12.8367 224.826 12.8 223.106 12.6863 L 223.106 12.118 L 233.189 12.118 L 233.424 15.6047 L 232.838 15.6047 C 232.445 13.0527 231.371 12.8 229.321 12.8 C 228.346 12.8 227.642 12.8 227.231 12.9574 C 226.821 13.1371 226.744 13.4707 226.744 14.4391 L 226.744 23.8949 z "/><path clip-path="url(#clip0-1)" fill="#000" stroke="none" d="M 244.721 7.5945 L 244.174 7.6898 C 243.753 6.652 243.349 6.5164 242.543 6.5164 L 237.53 6.5164 C 237.846 7.5172 239.008 8.8852 240.841 10.1719 C 242.733 11.5215 244.193 12.3867 244.193 14.5426 C 244.193 17.3988 242.367 18.3852 240.284 18.3852 C 237.607 18.3852 236.221 16.6875 236.221 15.6242 C 236.221 14.9168 236.962 14.5828 237.296 14.5828 C 237.648 14.5828 237.783 14.7918 237.864 15.1441 C 238.176 16.5594 238.938 17.7031 240.148 17.7031 C 241.652 17.7031 242.08 16.3504 242.08 14.8324 C 242.08 12.7645 241.025 11.6059 239.327 10.1172 C 236.922 8.0492 236.082 6.7328 235.712 5.2258 L 235.906 5.0312 L 244.053 5.0312 L 244.721 7.5945 z "/><path clip-path="url(#clip0-1)" fill="none" stroke="#000" stroke-width="1.4173" d="M 59.5301 134.714 L 382.675 134.714 "/><path clip-path="url(#clip0-1)" fill="#000" stroke="none" d="M 136.036 159.956 C 136.036 161.063 136.095 161.104 137.91 161.221 L 137.91 161.789 L 132.399 161.789 L 132.399 161.221 C 134.119 161.104 134.159 161.063 134.159 159.956 L 134.159 149.968 C 134.159 148.897 134.119 148.861 132.399 148.747 L 132.399 148.179 L 142.482 148.179 L 142.717 151.666 L 142.13 151.666 C 141.738 149.114 140.664 148.861 138.614 148.861 C 137.639 148.861 136.935 148.861 136.524 149.018 C 136.113 149.198 136.036 149.532 136.036 150.5 L 136.036 159.956 z "/><path clip-path="url(#clip0-1)" fill="#000" stroke="none" d="M 153.188 143.927 L 153.188 144.499 L 151.55 144.638 C 151.139 144.675 150.904 144.832 150.904 145.599 L 150.904 157.186 L 150.805 157.303 L 146.743 156.613 L 146.743 156.122 L 148.557 155.906 C 148.891 155.865 149.027 155.708 149.027 155.139 L 149.027 145.599 C 149.027 145.225 148.968 144.99 148.851 144.851 C 148.752 144.715 148.598 144.657 148.382 144.638 L 146.743 144.499 L 146.743 143.927 L 153.188 143.927 z "/><path clip-path="url(#clip0-1)" fill="none" stroke="#a52a2a" stroke-width="2.8346" d="M 471.841 261.229 L 470.547 183.611 "/><path clip-path="url(#clip0-1)" fill-rule="evenodd" fill="#a52a2a" stroke="none" d="M 471.912 265.48 L 474.652 259.765 L 471.841 261.229 L 468.983 259.859 z "/><path clip-path="url(#clip0-1)" fill="none" stroke="#a52a2a" stroke-width="2.8346" d="M 471.912 265.48 L 474.652 259.765 L 471.841 261.229 L 468.983 259.859 z "/><path clip-path="url(#clip0-1)" fill="none" stroke="#0f0" stroke-width="2.8346" d="M 328.817 171.564 L 463.127 169.55 "/><path clip-path="url(#clip0-1)" fill-rule="evenodd" fill="#0f0" stroke="none" d="M 467.379 169.486 L 461.667 166.736 L 463.127 169.55 L 461.752 172.405 z "/><path clip-path="url(#clip0-1)" fill="none" stroke="#0f0" stroke-width="2.8346" d="M 467.379 169.486 L 461.667 166.736 L 463.127 169.55 L 461.752 172.405 z "/><path clip-path="url(#clip0-1)" fill="#000" stroke="none" d="M 399.166 254.177 L 399.166 253.553 L 400.153 253.454 C 400.475 253.418 400.534 253.201 400.453 252.93 C 400.296 252.303 399.921 251.173 399.467 249.923 L 398.139 246.315 L 398.103 246.315 L 396.922 249.593 C 396.537 250.704 396.148 251.837 395.782 252.889 C 395.646 253.26 395.723 253.418 396.09 253.454 L 396.962 253.553 L 396.962 254.177 L 392.596 254.177 L 392.596 253.553 C 393.512 253.476 393.688 253.395 393.978 252.673 C 394.506 251.386 394.953 250.118 395.441 248.772 L 396.941 244.555 L 398.334 244.555 L 400.087 249.3 C 400.659 250.829 401.227 252.123 401.502 252.75 C 401.799 253.436 402.015 253.553 402.921 253.553 L 402.921 254.177 L 399.166 254.177 z "/><path clip-path="url(#clip0-1)" fill="#000" stroke="none" d="M 404.836 160.635 L 404.836 160.011 L 405.822 159.912 C 406.145 159.875 406.203 159.659 406.123 159.388 C 405.965 158.761 405.591 157.632 405.136 156.381 L 403.809 152.773 L 403.772 152.773 L 402.591 156.051 C 402.207 157.162 401.818 158.295 401.451 159.348 C 401.316 159.718 401.393 159.875 401.759 159.912 L 402.632 160.011 L 402.632 160.635 L 398.265 160.635 L 398.265 160.011 C 399.182 159.934 399.357 159.854 399.647 159.131 C 400.175 157.844 400.623 156.576 401.11 155.23 L 402.61 151.013 L 404.003 151.013 L 405.756 155.758 C 406.328 157.287 406.896 158.581 407.171 159.208 C 407.468 159.894 407.684 160.011 408.59 160.011 L 408.59 160.635 L 404.836 160.635 z "/><path clip-path="url(#clip0-1)" fill="#000" stroke="none" d="M 418.771 151.717 C 416.446 151.717 415.9 154.17 415.9 156.029 C 415.9 158.977 417.051 160.165 418.4 160.165 C 419.299 160.165 419.864 159.512 420.256 158.442 C 420.373 158.127 420.491 157.929 420.861 157.929 C 421.253 157.929 422.016 158.185 422.016 158.937 C 422.016 159.843 420.725 160.847 418.617 160.847 C 415.002 160.847 413.788 158.299 413.788 155.673 C 413.788 152.429 415.42 150.779 418.4 150.779 C 419.768 150.779 421.605 151.486 422.152 153.536 L 421.583 153.814 C 420.978 152.429 420.197 151.717 418.771 151.717 z "/><path clip-path="url(#clip0-1)" fill="#000" stroke="none" d="M 428.382 160.847 C 425.247 160.847 423.7 158.985 423.7 155.813 C 423.7 152.641 425.247 150.779 428.382 150.779 C 431.557 150.779 433.086 152.641 433.086 155.813 C 433.086 158.985 431.557 160.847 428.382 160.847 M 425.812 155.813 C 425.812 158.519 426.648 160.165 428.382 160.165 C 430.153 160.165 430.974 158.519 430.974 155.813 C 430.974 153.107 430.153 151.461 428.382 151.461 C 426.648 151.461 425.812 153.107 425.812 155.813 z "/><path clip-path="url(#clip0-1)" fill="#000" stroke="none" d="M 441.378 157.892 L 441.378 160.184 C 440.766 160.653 439.816 160.847 438.98 160.847 C 436.89 160.847 435.475 159.85 435.475 157.991 C 435.475 156.363 436.754 155.637 438.338 155.149 C 439.2 154.874 440.403 154.423 440.403 153.089 C 440.403 152.088 439.666 151.461 438.687 151.461 C 437.125 151.461 436.255 152.616 435.871 154.284 L 435.298 154.284 L 435.475 151.717 C 436.179 151.09 437.37 150.779 438.521 150.779 C 440.766 150.779 442.045 152.011 442.045 153.675 C 442.045 155.402 441.037 156.187 439.116 156.814 C 438.349 157.067 437.117 157.481 437.117 158.578 C 437.117 159.597 437.836 160.165 438.76 160.165 C 440.076 160.165 440.707 159.087 440.835 157.892 L 441.378 157.892 z "/><path clip-path="url(#clip0-1)" fill="#000" stroke="none" d="M 445.205 210.446 C 445.205 211.431 444.961 212.326 444.472 213.13 C 443.986 213.937 443.294 214.532 442.396 214.916 C 442.462 214.964 442.551 215.034 442.661 215.125 C 442.771 215.215 442.884 215.318 443.002 215.433 C 443.119 215.548 443.232 215.675 443.343 215.814 C 443.453 215.956 443.547 216.096 443.625 216.236 C 443.728 216.414 443.82 216.644 443.904 216.925 C 443.989 217.209 444.032 217.484 444.032 217.75 C 444.032 218.312 443.856 218.821 443.504 219.275 C 443.154 219.73 442.701 220.091 442.144 220.357 C 441.496 220.677 440.829 220.837 440.142 220.837 C 439.804 220.837 439.496 220.802 439.218 220.731 C 438.939 220.66 438.682 220.567 438.448 220.452 C 437.748 220.107 437.252 219.721 436.959 219.294 C 436.668 218.866 436.523 218.403 436.523 217.904 L 436.523 205.335 C 436.523 204.802 436.484 204.28 436.405 203.769 C 436.327 203.256 436.262 202.764 436.211 202.295 L 437.93 202.295 C 437.957 202.542 437.991 202.789 438.03 203.036 C 438.069 203.283 438.088 203.517 438.088 203.74 L 438.129 207.344 C 438.723 206.933 439.264 206.655 439.753 206.508 C 440.242 206.361 440.764 206.288 441.319 206.288 C 441.888 206.288 442.414 206.389 442.895 206.592 C 443.377 206.798 443.786 207.086 444.123 207.458 C 444.461 207.829 444.725 208.267 444.916 208.77 C 445.109 209.276 445.205 209.835 445.205 210.446 M 443.093 210.057 C 443.093 209.361 443.016 208.83 442.862 208.466 C 442.708 208.104 442.524 207.813 442.309 207.593 C 442.128 207.412 441.903 207.267 441.634 207.157 C 441.368 207.047 441.094 206.992 440.812 206.992 C 440.402 206.992 439.989 207.066 439.573 207.216 C 439.158 207.365 438.809 207.581 438.528 207.865 C 438.465 207.931 438.404 207.989 438.345 208.041 C 438.289 208.092 438.229 208.151 438.165 208.217 L 438.165 218.036 C 438.165 218.232 438.209 218.449 438.297 218.689 C 438.385 218.928 438.51 219.154 438.671 219.367 C 438.833 219.58 439.028 219.761 439.258 219.91 C 439.49 220.059 439.75 220.133 440.039 220.133 C 440.3 220.133 440.558 220.071 440.812 219.946 C 441.069 219.824 441.294 219.647 441.487 219.414 C 441.683 219.182 441.843 218.894 441.968 218.549 C 442.092 218.207 442.155 217.816 442.155 217.376 C 442.155 217.132 442.128 216.88 442.074 216.621 C 442.023 216.361 441.958 216.154 441.88 215.997 C 441.777 215.777 441.654 215.593 441.509 215.444 C 441.368 215.297 441.232 215.223 441.102 215.223 C 441.024 215.223 440.877 215.246 440.662 215.289 C 440.45 215.336 440.265 215.359 440.109 215.359 C 439.811 215.359 439.589 215.285 439.445 215.136 C 439.303 214.986 439.232 214.828 439.232 214.659 C 439.232 214.542 439.297 214.424 439.427 214.307 C 439.556 214.192 439.77 214.135 440.068 214.135 C 440.225 214.135 440.387 214.147 440.556 214.171 C 440.725 214.198 440.861 214.212 440.967 214.212 C 441.096 214.212 441.212 214.192 441.315 214.153 C 441.42 214.116 441.551 214.02 441.707 213.863 C 442.062 213.514 442.381 213.005 442.664 212.338 C 442.95 211.673 443.093 210.913 443.093 210.057 z "/><path clip-path="url(#clip0-1)" fill="#000" stroke="none" d="M 456.26 154.959 C 456.26 155.944 456.016 156.838 455.527 157.643 C 455.041 158.449 454.349 159.045 453.452 159.429 C 453.518 159.477 453.605 159.547 453.716 159.638 C 453.826 159.728 453.939 159.83 454.057 159.945 C 454.174 160.06 454.288 160.188 454.398 160.327 C 454.507 160.468 454.602 160.609 454.68 160.748 C 454.782 160.927 454.875 161.157 454.959 161.438 C 455.044 161.721 455.087 161.996 455.087 162.262 C 455.087 162.825 454.911 163.333 454.559 163.788 C 454.209 164.243 453.756 164.603 453.198 164.87 C 452.551 165.19 451.884 165.35 451.196 165.35 C 450.859 165.35 450.551 165.314 450.273 165.244 C 449.994 165.173 449.737 165.08 449.503 164.965 C 448.804 164.62 448.307 164.234 448.014 163.806 C 447.723 163.379 447.578 162.915 447.578 162.417 L 447.578 149.847 C 447.578 149.314 447.539 148.793 447.46 148.282 C 447.382 147.768 447.317 147.277 447.266 146.808 L 448.986 146.808 C 449.012 147.055 449.046 147.302 449.085 147.548 C 449.124 147.795 449.143 148.03 449.143 148.252 L 449.184 151.857 C 449.778 151.446 450.319 151.168 450.808 151.021 C 451.297 150.874 451.819 150.801 452.373 150.801 C 452.943 150.801 453.469 150.902 453.95 151.105 C 454.432 151.311 454.841 151.599 455.179 151.97 C 455.516 152.342 455.78 152.78 455.971 153.283 C 456.164 153.789 456.26 154.348 456.26 154.959 M 454.148 154.57 C 454.148 153.873 454.071 153.343 453.917 152.979 C 453.763 152.617 453.579 152.326 453.364 152.106 C 453.183 151.925 452.958 151.78 452.689 151.67 C 452.423 151.56 452.149 151.505 451.868 151.505 C 451.457 151.505 451.044 151.579 450.628 151.729 C 450.213 151.877 449.864 152.094 449.583 152.377 C 449.52 152.443 449.459 152.502 449.4 152.554 C 449.344 152.605 449.284 152.663 449.22 152.729 L 449.22 162.548 C 449.22 162.744 449.264 162.962 449.352 163.201 C 449.44 163.441 449.565 163.667 449.726 163.88 C 449.888 164.092 450.083 164.273 450.313 164.422 C 450.545 164.571 450.805 164.646 451.094 164.646 C 451.355 164.646 451.613 164.584 451.868 164.459 C 452.124 164.337 452.349 164.159 452.542 163.927 C 452.738 163.695 452.898 163.407 453.023 163.062 C 453.147 162.72 453.21 162.329 453.21 161.889 C 453.21 161.644 453.183 161.393 453.129 161.133 C 453.078 160.874 453.013 160.666 452.935 160.51 C 452.832 160.29 452.709 160.105 452.564 159.956 C 452.423 159.81 452.287 159.736 452.157 159.736 C 452.079 159.736 451.932 159.758 451.717 159.802 C 451.505 159.849 451.32 159.872 451.164 159.872 C 450.865 159.872 450.644 159.797 450.5 159.648 C 450.358 159.499 450.287 159.34 450.287 159.171 C 450.287 159.054 450.352 158.937 450.482 158.82 C 450.611 158.705 450.825 158.647 451.123 158.647 C 451.28 158.647 451.442 158.659 451.611 158.684 C 451.78 158.711 451.916 158.724 452.021 158.724 C 452.151 158.724 452.267 158.705 452.37 158.666 C 452.475 158.629 452.606 158.532 452.762 158.376 C 453.117 158.027 453.436 157.518 453.719 156.851 C 454.005 156.186 454.148 155.425 454.148 154.57 z "/><path clip-path="url(#clip0-1)" fill="#000" stroke="none" d="M 485.621 231.5 L 485.621 230.876 L 486.608 230.777 C 486.93 230.741 486.989 230.524 486.909 230.253 C 486.751 229.626 486.377 228.496 485.922 227.246 L 484.595 223.638 L 484.558 223.638 L 483.378 226.916 C 482.993 228.027 482.604 229.16 482.237 230.212 C 482.102 230.583 482.179 230.741 482.545 230.777 L 483.418 230.876 L 483.418 231.5 L 479.051 231.5 L 479.051 230.876 C 479.968 230.799 480.144 230.719 480.433 229.996 C 480.961 228.709 481.409 227.441 481.896 226.095 L 483.396 221.879 L 484.789 221.879 L 486.542 226.623 C 487.114 228.152 487.682 229.446 487.957 230.073 C 488.254 230.759 488.471 230.876 489.376 230.876 L 489.376 231.5 L 485.621 231.5 z "/><path clip-path="url(#clip0-1)" fill="#000" stroke="none" d="M 500.712 228.757 L 500.712 231.048 C 500.1 231.518 499.15 231.712 498.314 231.712 C 496.224 231.712 494.809 230.715 494.809 228.856 C 494.809 227.228 496.088 226.502 497.672 226.014 C 498.534 225.739 499.737 225.288 499.737 223.954 C 499.737 222.953 499 222.326 498.021 222.326 C 496.459 222.326 495.59 223.48 495.205 225.149 L 494.633 225.149 L 494.809 222.582 C 495.513 221.955 496.704 221.644 497.856 221.644 C 500.1 221.644 501.379 222.876 501.379 224.54 C 501.379 226.267 500.371 227.052 498.45 227.679 C 497.683 227.932 496.452 228.346 496.452 229.443 C 496.452 230.462 497.17 231.03 498.094 231.03 C 499.411 231.03 500.041 229.952 500.17 228.757 L 500.712 228.757 z "/><path clip-path="url(#clip0-1)" fill="#000" stroke="none" d="M 503.146 231.107 L 503.146 230.62 L 503.858 230.521 C 504.342 230.444 504.455 230.345 504.455 229.641 L 504.455 223.484 C 504.455 222.487 504.4 222.446 503.048 222.446 L 503.048 221.879 L 507.777 221.879 L 507.777 222.446 C 506.41 222.446 506.333 222.487 506.333 223.484 L 506.333 231.481 L 506.193 231.598 L 503.146 231.107 M 505.376 235.723 C 504.694 235.723 504.221 235.225 504.221 234.532 C 504.221 233.857 504.694 233.377 505.376 233.377 C 506.109 233.377 506.568 233.857 506.568 234.532 C 506.568 235.225 506.098 235.723 505.376 235.723 z "/><path clip-path="url(#clip0-1)" fill="#000" stroke="none" d="M 518.474 228.577 C 518.474 230.583 517.396 231.734 515.589 231.734 C 514.177 231.734 513.3 230.975 512.12 230.128 L 511.838 231.734 L 508.893 231.191 L 508.893 230.649 L 509.634 230.55 C 510.143 230.469 510.261 230.37 510.261 229.659 L 510.261 223.484 C 510.261 222.487 510.202 222.446 508.794 222.446 L 508.794 221.879 L 513.568 221.879 L 513.568 222.446 C 512.215 222.446 512.138 222.487 512.138 223.484 L 512.138 228.071 C 512.138 228.562 512.175 228.838 512.329 229.149 C 512.729 229.916 513.586 230.561 514.595 230.561 C 515.893 230.561 516.597 229.816 516.597 228.112 L 516.597 223.484 C 516.597 222.487 516.538 222.446 515.167 222.446 L 515.167 221.879 L 519.941 221.879 L 519.941 222.446 C 518.551 222.446 518.474 222.487 518.474 223.499 L 518.474 228.577 z "/><path clip-path="url(#clip0-1)" fill="#000" stroke="none" d="M 533.928 225.966 C 533.928 226.95 533.684 227.845 533.195 228.65 C 532.709 229.456 532.017 230.051 531.12 230.435 C 531.186 230.484 531.273 230.554 531.384 230.644 C 531.494 230.734 531.607 230.837 531.725 230.952 C 531.842 231.067 531.955 231.194 532.066 231.333 C 532.176 231.475 532.27 231.616 532.348 231.755 C 532.451 231.934 532.543 232.163 532.627 232.445 C 532.712 232.728 532.755 233.003 532.755 233.27 C 532.755 233.832 532.579 234.34 532.227 234.795 C 531.877 235.249 531.424 235.61 530.867 235.876 C 530.219 236.196 529.552 236.357 528.864 236.357 C 528.527 236.357 528.219 236.321 527.941 236.25 C 527.662 236.179 527.405 236.087 527.171 235.972 C 526.471 235.627 525.975 235.241 525.682 234.813 C 525.391 234.385 525.246 233.922 525.246 233.423 L 525.246 220.854 C 525.246 220.321 525.207 219.799 525.129 219.289 C 525.05 218.775 524.985 218.284 524.934 217.814 L 526.654 217.814 C 526.68 218.061 526.714 218.308 526.753 218.555 C 526.792 218.802 526.811 219.037 526.811 219.259 L 526.852 222.863 C 527.446 222.453 527.987 222.174 528.476 222.027 C 528.965 221.881 529.487 221.807 530.042 221.807 C 530.611 221.807 531.137 221.909 531.618 222.112 C 532.1 222.317 532.509 222.605 532.846 222.977 C 533.184 223.349 533.448 223.786 533.639 224.29 C 533.832 224.796 533.928 225.354 533.928 225.966 M 531.816 225.577 C 531.816 224.88 531.739 224.35 531.585 223.986 C 531.431 223.624 531.247 223.333 531.032 223.113 C 530.851 222.932 530.626 222.786 530.357 222.677 C 530.091 222.566 529.817 222.511 529.536 222.511 C 529.125 222.511 528.712 222.586 528.296 222.735 C 527.881 222.884 527.532 223.1 527.251 223.384 C 527.188 223.45 527.127 223.509 527.068 223.56 C 527.012 223.611 526.952 223.67 526.888 223.736 L 526.888 233.555 C 526.888 233.751 526.932 233.968 527.02 234.208 C 527.108 234.448 527.233 234.674 527.394 234.886 C 527.555 235.099 527.751 235.28 527.981 235.429 C 528.213 235.578 528.473 235.653 528.762 235.653 C 529.023 235.653 529.281 235.59 529.536 235.466 C 529.792 235.343 530.017 235.166 530.21 234.934 C 530.406 234.702 530.566 234.413 530.691 234.069 C 530.815 233.727 530.878 233.336 530.878 232.895 C 530.878 232.651 530.851 232.399 530.797 232.14 C 530.746 231.881 530.681 231.673 530.603 231.517 C 530.5 231.297 530.377 231.112 530.232 230.963 C 530.091 230.816 529.955 230.743 529.825 230.743 C 529.747 230.743 529.6 230.765 529.385 230.809 C 529.173 230.855 528.988 230.879 528.832 230.879 C 528.534 230.879 528.312 230.804 528.168 230.655 C 528.026 230.506 527.955 230.347 527.955 230.179 C 527.955 230.061 528.02 229.944 528.15 229.827 C 528.279 229.711 528.493 229.654 528.791 229.654 C 528.948 229.654 529.11 229.666 529.279 229.691 C 529.448 229.718 529.584 229.731 529.689 229.731 C 529.819 229.731 529.935 229.711 530.038 229.672 C 530.143 229.636 530.274 229.539 530.43 229.383 C 530.785 229.033 531.104 228.525 531.387 227.857 C 531.673 227.193 531.816 226.432 531.816 225.577 z "/></g></svg></svg></g></svg>