<?xml version="1.0" encoding="UTF-8" standalone="no"?>
<!-- Created by diasvg.py -->
<svg width="12.573cm" height="7.784cm" viewBox="2.277 1.045 14.850 8.829"
 xmlns="http://www.w3.org/2000/svg"
 xmlns:xlink="http://www.w3.org/1999/xlink">
<line x1="2.649" y1="5.737" x2="2.603" y2="2.574" stroke="#000000" stroke-width="0.100" />
<polyline fill="none" stroke="#000000" stroke-width="0.100"  points="2.859,2.958 2.602,2.462 2.359,2.965 "/>
<line x1="2.599" y1="5.637" x2="5.626" y2="5.683" stroke="#000000" stroke-width="0.100" />
<polyline fill="none" stroke="#000000" stroke-width="0.100"  points="5.234,5.927 5.737,5.685 5.241,5.427 "/>
<line x1="2.649" y1="5.637" x2="4.068" y2="3.668" stroke="#000000" stroke-width="0.100" />
<polyline fill="none" stroke="#000000" stroke-width="0.100"  points="4.044,4.129 4.134,3.577 3.639,3.837 "/>
<text x="5.450" y="6.550"  fill="#000000" text-anchor="start" font-size="1.06" font-family="sans" font-style="normal" font-weight="400">
A</text>
<text x="4.350" y="3.450"  fill="#000000" text-anchor="start" font-size="1.06" font-family="sans" font-style="normal" font-weight="400">
B</text>
<text x="2.300" y="1.950"  fill="#000000" text-anchor="start" font-size="1.06" font-family="sans" font-style="normal" font-weight="400">
C</text>
<line x1="2.800" y1="5.600" x2="9.397" y2="2.593" stroke="#0000FF" stroke-width="0.100" />
<polyline fill="none" stroke="#0000FF" stroke-width="0.100"  points="9.147,2.981 9.498,2.546 8.940,2.526 "/>
<text x="10.000" y="2.600"  fill="#000000" text-anchor="start" font-size="1.06" font-family="sans" font-style="normal" font-weight="400">
U</text>
<line x1="9.600" y1="5.700" x2="14.800" y2="5.700" stroke="#000000" stroke-width="0.100" stroke-dasharray="0.10,0.10"/>
<line x1="2.700" y1="5.650" x2="9.500" y2="5.700" stroke="#00FF00" stroke-width="0.100" />
<line x1="9.450" y1="3.050" x2="9.496" y2="5.476" stroke="#FF00FF" stroke-width="0.100" />
<polyline fill="none" stroke="#FF00FF" stroke-width="0.100"  points="9.239,5.093 9.498,5.588 9.738,5.084 "/>
<text x="8.175" y="8.180"  fill="#000000" text-anchor="start" font-size="1.06" font-family="sans" font-style="normal" font-weight="400">
U</text>
<text x="8.725" y="8.630"  fill="#000000" text-anchor="start" font-size="0.85" font-family="sans" font-style="normal" font-weight="400">
A</text>
<line x1="8.350" y1="7.350" x2="7.976" y2="6.310" stroke="#000000" stroke-width="0.100" />
<polyline fill="none" stroke="#000000" stroke-width="0.100"  points="8.342,6.591 7.938,6.205 7.872,6.760 "/>
</svg>