<?xml version="1.0" encoding="UTF-8" standalone="no"?>
<!-- Created by diasvg.py -->
<svg width="26.494cm" height="6.823cm" viewBox="2.776 2.547 29.270 9.371"
 xmlns="http://www.w3.org/2000/svg"
 xmlns:xlink="http://www.w3.org/1999/xlink">
<line x1="3.150" y1="8.400" x2="3.103" y2="4.474" stroke="#000000" stroke-width="0.100" />
<polyline fill="none" stroke="#000000" stroke-width="0.100"  points="3.357,4.859 3.101,4.362 2.857,4.865 "/>
<line x1="3.100" y1="8.300" x2="6.126" y2="8.347" stroke="#000000" stroke-width="0.100" />
<polyline fill="none" stroke="#000000" stroke-width="0.100"  points="5.734,8.591 6.238,8.348 5.742,8.091 "/>
<line x1="3.150" y1="8.300" x2="4.569" y2="6.331" stroke="#000000" stroke-width="0.100" />
<polyline fill="none" stroke="#000000" stroke-width="0.100"  points="4.545,6.792 4.635,6.241 4.139,6.500 "/>
<line x1="11.972" y1="8.040" x2="10.839" y2="4.992" stroke="#000000" stroke-width="0.100" />
<polyline fill="none" stroke="#000000" stroke-width="0.100"  points="11.603,7.764 12.011,8.145 12.071,7.589 "/>
<line x1="10.839" y1="4.992" x2="14.130" y2="4.437" stroke="#000000" stroke-width="0.100" />
<polyline fill="none" stroke="#000000" stroke-width="0.100"  points="13.788,4.748 14.240,4.419 13.705,4.255 "/>
<line x1="10.889" y1="4.992" x2="11.811" y2="2.855" stroke="#000000" stroke-width="0.100" />
<polyline fill="none" stroke="#000000" stroke-width="0.100"  points="11.887,3.311 11.856,2.753 11.428,3.113 "/>
<line x1="3.200" y1="8.300" x2="10.344" y2="5.238" stroke="#000000" stroke-width="0.100" stroke-dasharray="0.10,0.10"/>
<polyline fill="none" stroke="#000000" stroke-width="0.100"  points="10.086,5.621 10.447,5.194 9.889,5.161 "/>
<line x1="20.052" y1="9.132" x2="18.539" y2="7.419" stroke="#000000" stroke-width="0.100" />
<polyline fill="none" stroke="#000000" stroke-width="0.100"  points="19.608,9.007 20.126,9.216 19.982,8.676 "/>
<line x1="18.489" y1="7.269" x2="16.302" y2="8.304" stroke="#000000" stroke-width="0.100" />
<polyline fill="none" stroke="#000000" stroke-width="0.100"  points="16.546,7.912 16.201,8.352 16.760,8.364 "/>
<line x1="18.539" y1="7.269" x2="19.461" y2="5.133" stroke="#000000" stroke-width="0.100" />
<polyline fill="none" stroke="#000000" stroke-width="0.100"  points="19.537,5.588 19.506,5.030 19.078,5.390 "/>
<line x1="11.700" y1="5.300" x2="17.535" y2="6.988" stroke="#000000" stroke-width="0.100" stroke-dasharray="0.10,0.10"/>
<polyline fill="none" stroke="#000000" stroke-width="0.100"  points="17.093,7.120 17.643,7.019 17.232,6.640 "/>
<line x1="29.023" y1="4.637" x2="26.665" y2="6.469" stroke="#000000" stroke-width="0.100" />
<polyline fill="none" stroke="#000000" stroke-width="0.100"  points="28.870,5.073 29.112,4.569 28.564,4.678 "/>
<line x1="26.615" y1="6.319" x2="23.931" y2="4.381" stroke="#000000" stroke-width="0.100" />
<polyline fill="none" stroke="#000000" stroke-width="0.100"  points="24.392,4.406 23.841,4.315 24.100,4.811 "/>
<line x1="26.665" y1="6.319" x2="26.149" y2="8.632" stroke="#000000" stroke-width="0.100" />
<polyline fill="none" stroke="#000000" stroke-width="0.100"  points="25.989,8.198 26.124,8.741 26.477,8.307 "/>
<line x1="19.300" y1="7.200" x2="25.956" y2="6.648" stroke="#000000" stroke-width="0.100" stroke-dasharray="0.10,0.10"/>
<polyline fill="none" stroke="#000000" stroke-width="0.100"  points="25.590,6.929 26.068,6.638 25.549,6.431 "/>
<text x="7.750" y="7.650"  fill="#000000" text-anchor="start" font-size="1.27" font-family="sans" font-style="normal" font-weight="400">
T</text>
<text x="13.625" y="7.311"  fill="#000000" text-anchor="start" font-size="1.27" font-family="sans" font-style="normal" font-weight="400">
T</text>
<text x="22.100" y="8.036"  fill="#000000" text-anchor="start" font-size="1.27" font-family="sans" font-style="normal" font-weight="400">
T</text>
<text x="8.200" y="8.100"  fill="#000000" text-anchor="start" font-size="0.80" font-family="sans" font-style="normal" font-weight="400">
1</text>
<text x="14.150" y="7.650"  fill="#000000" text-anchor="start" font-size="0.80" font-family="sans" font-style="normal" font-weight="400">
2</text>
<text x="22.550" y="8.300"  fill="#000000" text-anchor="start" font-size="0.80" font-family="sans" font-style="normal" font-weight="400">
3</text>
</svg>