<?xml version='1.0' encoding='UTF-8'?><svg id="qoppa_document" width="576pt" height="432pt" version="1.1" xmlns="http://www.w3.org/2000/svg" xmlns:xlink="http://www.w3.org/1999/xlink"><!-- jPDFWeb v2021R1.00, Build #105 --><style type="text/css"></style><defs><g id="f0-0- " transform="matrix(0.001 0 0 0.001 0 0)"></g><g id="f0-0-0" transform="matrix(0.001 0 0 0.001 0 0)"><clipPath id="clipt3p0f0-1"><path d="M -184 -236 L 1288 -236 L 1288 929 L -184 929 L -184 -236 z "/></clipPath><path clip-path="url(#clipt3p0f0-1)" stroke="none" d="M 318 664 C 267 664 229 639 203 589 C 177 539 165 464 165 364 C 165 264 177 189 203 139 C 229 89 267 64 318 64 C 369 64 407 89 433 139 C 458 189 471 264 471 364 C 471 464 458 539 433 589 C 407 639 369 664 318 664 M 318 742 C 399 742 461 709 505 645 C 548 580 570 486 570 364 C 570 241 548 147 505 83 C 461 19 399 -13 318 -13 C 236 -13 173 19 130 83 C 87 147 66 241 66 364 C 66 486 87 580 130 645 C 173 709 236 742 318 742 z "/></g><g id="f0-0-1" transform="matrix(0.001 0 0 0.001 0 0)"><clipPath id="clipt3p0f0-2"><path d="M -184 -236 L 1288 -236 L 1288 929 L -184 929 L -184 -236 z "/></clipPath><path clip-path="url(#clipt3p0f0-2)" stroke="none" d="M 124 83 L 285 83 L 285 639 L 110 604 L 110 694 L 284 729 L 383 729 L 383 83 L 544 83 L 544 0 L 124 0 L 124 83 z "/></g><g id="f0-0-2" transform="matrix(0.001 0 0 0.001 0 0)"><clipPath id="clipt3p0f0-3"><path d="M -184 -236 L 1288 -236 L 1288 929 L -184 929 L -184 -236 z "/></clipPath><path clip-path="url(#clipt3p0f0-3)" stroke="none" d="M 192 83 L 536 83 L 536 0 L 73 0 L 73 83 C 110 121 161 173 226 239 C 290 304 331 346 348 365 C 380 400 402 430 414 455 C 426 479 433 504 433 528 C 433 566 419 598 392 622 C 365 646 330 659 286 659 C 255 659 222 653 188 643 C 154 632 117 616 78 594 L 78 694 C 118 710 155 722 189 730 C 223 738 255 742 284 742 C 359 742 419 723 464 685 C 509 647 532 597 532 534 C 532 504 526 475 515 449 C 504 422 484 390 454 354 C 446 344 420 317 376 272 C 332 227 271 164 192 83 z "/></g><g id="f0-0-3" transform="matrix(0.001 0 0 0.001 0 0)"><clipPath id="clipt3p0f0-4"><path d="M -184 -236 L 1288 -236 L 1288 929 L -184 929 L -184 -236 z "/></clipPath><path clip-path="url(#clipt3p0f0-4)" stroke="none" d="M 406 393 C 453 383 490 362 516 330 C 542 298 556 258 556 212 C 556 140 531 84 482 45 C 432 6 362 -13 271 -13 C 240 -13 208 -10 176 -4 C 144 1 110 10 76 22 L 76 117 C 103 101 133 89 166 81 C 198 73 232 69 268 69 C 330 69 377 81 409 105 C 441 129 458 165 458 212 C 458 254 443 288 413 312 C 383 336 341 349 287 349 L 202 349 L 202 430 L 291 430 C 339 430 376 439 402 459 C 428 478 441 506 441 543 C 441 580 427 609 401 629 C 374 649 336 659 287 659 C 260 659 231 656 200 650 C 169 644 135 635 98 623 L 98 711 C 135 721 170 729 203 734 C 235 739 266 742 296 742 C 370 742 429 725 473 691 C 517 657 539 611 539 553 C 539 513 527 479 504 451 C 481 423 448 403 406 393 z "/></g><g id="f0-0-4" transform="matrix(0.001 0 0 0.001 0 0)"><clipPath id="clipt3p0f0-5"><path d="M -184 -236 L 1288 -236 L 1288 929 L -184 929 L -184 -236 z "/></clipPath><path clip-path="url(#clipt3p0f0-5)" stroke="none" d="M 378 643 L 129 254 L 378 254 L 378 643 M 352 729 L 476 729 L 476 254 L 580 254 L 580 172 L 476 172 L 476 0 L 378 0 L 378 172 L 49 172 L 49 267 L 352 729 z "/></g><g id="f0-0-5" transform="matrix(0.001 0 0 0.001 0 0)"><clipPath id="clipt3p0f0-6"><path d="M -184 -236 L 1288 -236 L 1288 929 L -184 929 L -184 -236 z "/></clipPath><path clip-path="url(#clipt3p0f0-6)" stroke="none" d="M 108 729 L 495 729 L 495 646 L 198 646 L 198 467 C 212 472 227 476 241 478 C 255 480 270 482 284 482 C 365 482 429 459 477 415 C 525 370 549 310 549 234 C 549 155 524 94 475 51 C 426 8 357 -13 269 -13 C 238 -13 207 -10 175 -6 C 143 -1 111 6 77 17 L 77 116 C 106 100 136 88 168 80 C 199 72 232 69 267 69 C 323 69 368 83 401 113 C 433 143 450 183 450 234 C 450 284 433 324 401 354 C 368 384 323 399 267 399 C 241 399 214 396 188 390 C 162 384 135 375 108 363 L 108 729 z "/></g><g id="f0-0-6" transform="matrix(0.001 0 0 0.001 0 0)"><clipPath id="clipt3p0f0-7"><path d="M -184 -236 L 1288 -236 L 1288 929 L -184 929 L -184 -236 z "/></clipPath><path clip-path="url(#clipt3p0f0-7)" stroke="none" d="M 330 404 C 286 404 251 388 225 358 C 199 328 186 286 186 234 C 186 181 199 139 225 109 C 251 79 286 64 330 64 C 374 64 409 79 435 109 C 461 139 474 181 474 234 C 474 286 461 328 435 358 C 409 388 374 404 330 404 M 526 713 L 526 623 C 501 635 476 644 451 650 C 425 656 400 659 376 659 C 310 659 260 637 226 593 C 192 549 172 482 168 394 C 187 422 211 444 240 459 C 269 474 301 482 336 482 C 409 482 467 459 509 415 C 551 371 573 310 573 234 C 573 159 550 99 506 54 C 462 9 403 -13 330 -13 C 246 -13 181 19 137 83 C 92 147 70 241 70 364 C 70 479 97 571 152 639 C 206 707 280 742 372 742 C 396 742 421 739 447 735 C 472 730 498 723 526 713 z "/></g><g id="f0-0-7" transform="matrix(0.001 0 0 0.001 0 0)"><clipPath id="clipt3p0f0-8"><path d="M -184 -236 L 1288 -236 L 1288 929 L -184 929 L -184 -236 z "/></clipPath><path clip-path="url(#clipt3p0f0-8)" stroke="none" d="M 82 729 L 551 729 L 551 687 L 286 0 L 183 0 L 432 646 L 82 646 L 82 729 z "/></g><g id="f0-0-8" transform="matrix(0.001 0 0 0.001 0 0)"><clipPath id="clipt3p0f0-9"><path d="M -184 -236 L 1288 -236 L 1288 929 L -184 929 L -184 -236 z "/></clipPath><path clip-path="url(#clipt3p0f0-9)" stroke="none" d="M 318 346 C 271 346 234 333 207 308 C 180 283 167 249 167 205 C 167 161 180 126 207 101 C 234 76 271 64 318 64 C 364 64 401 76 428 102 C 455 127 469 161 469 205 C 469 249 455 283 429 308 C 402 333 365 346 318 346 M 219 388 C 177 398 144 418 120 447 C 96 476 85 511 85 553 C 85 611 105 657 147 691 C 188 725 245 742 318 742 C 390 742 447 725 489 691 C 530 657 551 611 551 553 C 551 511 539 476 515 447 C 491 418 459 398 417 388 C 464 377 501 355 528 323 C 554 291 568 251 568 205 C 568 134 546 80 503 43 C 459 5 398 -13 318 -13 C 237 -13 175 5 132 43 C 89 80 68 134 68 205 C 68 251 81 291 108 323 C 134 355 171 377 219 388 M 183 544 C 183 506 194 476 218 455 C 242 434 275 424 318 424 C 360 424 393 434 417 455 C 441 476 453 506 453 544 C 453 582 441 611 417 632 C 393 653 360 664 318 664 C 275 664 242 653 218 632 C 194 611 183 582 183 544 z "/></g><g id="f0-0-C" transform="matrix(0.001 0 0 0.001 0 0)"><clipPath id="clipt3p0f0-10"><path d="M -184 -236 L 1288 -236 L 1288 929 L -184 929 L -184 -236 z "/></clipPath><path clip-path="url(#clipt3p0f0-10)" stroke="none" d="M 644 673 L 644 569 C 610 599 575 622 537 638 C 499 653 460 661 418 661 C 334 661 270 635 226 584 C 182 533 160 460 160 364 C 160 268 182 194 226 143 C 270 92 334 67 418 67 C 460 67 499 74 537 90 C 575 105 610 128 644 159 L 644 56 C 609 32 572 15 534 4 C 496 -7 455 -13 412 -13 C 302 -13 215 20 151 87 C 87 154 56 246 56 364 C 56 481 87 573 151 641 C 215 708 302 742 412 742 C 456 742 497 736 535 725 C 573 713 610 696 644 673 z "/></g><g id="f0-0-D" transform="matrix(0.001 0 0 0.001 0 0)"><clipPath id="clipt3p0f0-11"><path d="M -184 -236 L 1288 -236 L 1288 929 L -184 929 L -184 -236 z "/></clipPath><path clip-path="url(#clipt3p0f0-11)" stroke="none" d="M 197 648 L 197 81 L 316 81 C 416 81 490 103 537 149 C 583 195 607 267 607 365 C 607 463 583 534 537 580 C 490 625 416 648 316 648 L 197 648 M 98 729 L 301 729 C 442 729 546 699 612 641 C 678 582 711 490 711 365 C 711 239 677 147 611 88 C 545 29 441 0 301 0 L 98 0 L 98 729 z "/></g><g id="f0-0-M" transform="matrix(0.001 0 0 0.001 0 0)"><clipPath id="clipt3p0f0-12"><path d="M -184 -236 L 1288 -236 L 1288 929 L -184 929 L -184 -236 z "/></clipPath><path clip-path="url(#clipt3p0f0-12)" stroke="none" d="M 98 729 L 245 729 L 431 233 L 618 729 L 765 729 L 765 0 L 669 0 L 669 640 L 481 140 L 382 140 L 194 640 L 194 0 L 98 0 L 98 729 z "/></g><g id="f0-0-S" transform="matrix(0.001 0 0 0.001 0 0)"><clipPath id="clipt3p0f0-13"><path d="M -184 -236 L 1288 -236 L 1288 929 L -184 929 L -184 -236 z "/></clipPath><path clip-path="url(#clipt3p0f0-13)" stroke="none" d="M 535 705 L 535 609 C 497 627 462 640 429 649 C 395 657 363 662 333 662 C 279 662 237 651 208 631 C 179 610 165 580 165 542 C 165 510 174 485 194 469 C 213 452 250 439 304 429 L 364 417 C 437 403 491 378 526 343 C 561 307 579 260 579 201 C 579 130 555 77 508 41 C 460 5 391 -13 300 -13 C 265 -13 228 -9 189 -2 C 150 5 110 16 69 32 L 69 134 C 109 111 148 94 186 83 C 224 71 262 66 300 66 C 356 66 399 77 430 99 C 460 121 476 152 476 194 C 476 230 465 258 443 278 C 421 298 385 313 335 323 L 275 335 C 201 349 148 372 115 404 C 82 435 66 478 66 534 C 66 598 88 649 134 686 C 179 723 242 742 322 742 C 356 742 390 739 426 733 C 461 727 497 717 535 705 z "/></g><g id="f0-0-a" transform="matrix(0.001 0 0 0.001 0 0)"><clipPath id="clipt3p0f0-14"><path d="M -184 -236 L 1288 -236 L 1288 929 L -184 929 L -184 -236 z "/></clipPath><path clip-path="url(#clipt3p0f0-14)" stroke="none" d="M 343 275 C 270 275 220 266 192 250 C 164 233 150 205 150 165 C 150 133 160 107 181 89 C 202 70 231 61 267 61 C 317 61 357 78 387 114 C 417 149 432 196 432 255 L 432 275 L 343 275 M 522 312 L 522 0 L 432 0 L 432 83 C 411 49 385 25 355 10 C 325 -5 287 -13 243 -13 C 187 -13 142 2 109 33 C 76 64 60 106 60 159 C 60 220 80 266 122 298 C 163 329 224 345 306 345 L 432 345 L 432 354 C 432 395 418 427 391 450 C 364 472 326 484 277 484 C 245 484 215 480 185 472 C 155 464 127 453 100 439 L 100 522 C 132 534 164 544 195 550 C 226 556 256 560 286 560 C 365 560 424 539 463 498 C 502 457 522 395 522 312 z "/></g><g id="f0-0-b" transform="matrix(0.001 0 0 0.001 0 0)"><clipPath id="clipt3p0f0-15"><path d="M -184 -236 L 1288 -236 L 1288 929 L -184 929 L -184 -236 z "/></clipPath><path clip-path="url(#clipt3p0f0-15)" stroke="none" d="M 487 273 C 487 339 473 390 446 428 C 418 466 381 485 334 485 C 286 485 249 466 222 428 C 194 390 181 339 181 273 C 181 207 194 155 222 117 C 249 79 286 61 334 61 C 381 61 418 79 446 117 C 473 155 487 207 487 273 M 181 464 C 199 496 223 520 252 536 C 281 552 316 560 356 560 C 422 560 476 533 518 481 C 559 428 580 359 580 273 C 580 187 559 117 518 65 C 476 13 422 -13 356 -13 C 316 -13 281 -5 252 10 C 223 25 199 49 181 82 L 181 0 L 91 0 L 91 760 L 181 760 L 181 464 z "/></g><g id="f0-0-c" transform="matrix(0.001 0 0 0.001 0 0)"><clipPath id="clipt3p0f0-16"><path d="M -184 -236 L 1288 -236 L 1288 929 L -184 929 L -184 -236 z "/></clipPath><path clip-path="url(#clipt3p0f0-16)" stroke="none" d="M 488 526 L 488 442 C 462 456 437 466 411 473 C 385 480 360 484 334 484 C 276 484 230 465 198 428 C 166 391 150 339 150 273 C 150 206 166 154 198 117 C 230 80 276 62 334 62 C 360 62 385 65 411 72 C 437 79 462 90 488 104 L 488 21 C 462 9 436 0 410 -5 C 383 -10 354 -13 324 -13 C 242 -13 176 12 128 64 C 79 115 55 185 55 273 C 55 362 79 432 128 483 C 177 534 244 560 330 560 C 358 560 385 557 411 551 C 437 545 463 537 488 526 z "/></g><g id="f0-0-e" transform="matrix(0.001 0 0 0.001 0 0)"><clipPath id="clipt3p0f0-17"><path d="M -184 -236 L 1288 -236 L 1288 929 L -184 929 L -184 -236 z "/></clipPath><path clip-path="url(#clipt3p0f0-17)" stroke="none" d="M 562 296 L 562 252 L 149 252 C 153 190 171 142 205 110 C 238 78 284 62 344 62 C 378 62 412 66 444 74 C 476 82 509 95 541 113 L 541 28 C 509 14 476 3 442 -3 C 408 -9 373 -13 339 -13 C 251 -13 182 12 131 62 C 80 112 55 181 55 268 C 55 357 79 428 127 481 C 175 533 241 560 323 560 C 397 560 455 536 498 489 C 540 441 562 377 562 296 M 472 322 C 471 371 457 410 431 440 C 404 469 368 484 324 484 C 274 484 234 469 204 441 C 174 413 156 373 152 322 L 472 322 z "/></g><g id="f0-0-i" transform="matrix(0.001 0 0 0.001 0 0)"><clipPath id="clipt3p0f0-18"><path d="M -184 -236 L 1288 -236 L 1288 929 L -184 929 L -184 -236 z "/></clipPath><path clip-path="url(#clipt3p0f0-18)" stroke="none" d="M 94 547 L 184 547 L 184 0 L 94 0 L 94 547 M 94 760 L 184 760 L 184 646 L 94 646 L 94 760 z "/></g><g id="f0-0-l" transform="matrix(0.001 0 0 0.001 0 0)"><clipPath id="clipt3p0f0-19"><path d="M -184 -236 L 1288 -236 L 1288 929 L -184 929 L -184 -236 z "/></clipPath><path clip-path="url(#clipt3p0f0-19)" stroke="none" d="M 94 760 L 184 760 L 184 0 L 94 0 L 94 760 z "/></g><g id="f0-0-n" transform="matrix(0.001 0 0 0.001 0 0)"><clipPath id="clipt3p0f0-20"><path d="M -184 -236 L 1288 -236 L 1288 929 L -184 929 L -184 -236 z "/></clipPath><path clip-path="url(#clipt3p0f0-20)" stroke="none" d="M 549 330 L 549 0 L 459 0 L 459 327 C 459 379 448 417 428 443 C 408 469 378 482 338 482 C 289 482 251 466 223 435 C 195 404 181 362 181 309 L 181 0 L 91 0 L 91 547 L 181 547 L 181 462 C 202 494 227 519 257 535 C 286 551 320 560 358 560 C 420 560 468 540 500 501 C 532 462 549 405 549 330 z "/></g><g id="f0-0-o" transform="matrix(0.001 0 0 0.001 0 0)"><clipPath id="clipt3p0f0-21"><path d="M -184 -236 L 1288 -236 L 1288 929 L -184 929 L -184 -236 z "/></clipPath><path clip-path="url(#clipt3p0f0-21)" stroke="none" d="M 306 484 C 258 484 220 465 192 427 C 164 389 150 338 150 273 C 150 207 163 156 191 118 C 219 80 257 62 306 62 C 354 62 392 80 420 118 C 448 156 462 207 462 273 C 462 337 448 389 420 427 C 392 465 354 484 306 484 M 306 560 C 384 560 445 534 490 484 C 534 433 557 363 557 273 C 557 183 534 113 490 63 C 445 12 384 -13 306 -13 C 227 -13 165 12 121 63 C 77 113 55 183 55 273 C 55 363 77 433 121 484 C 165 534 227 560 306 560 z "/></g><g id="f0-0-p" transform="matrix(0.001 0 0 0.001 0 0)"><clipPath id="clipt3p0f0-22"><path d="M -184 -236 L 1288 -236 L 1288 929 L -184 929 L -184 -236 z "/></clipPath><path clip-path="url(#clipt3p0f0-22)" stroke="none" d="M 181 82 L 181 -207 L 91 -207 L 91 547 L 181 547 L 181 464 C 199 496 223 520 252 536 C 281 552 316 560 356 560 C 422 560 476 533 518 481 C 559 428 580 359 580 273 C 580 187 559 117 518 65 C 476 13 422 -13 356 -13 C 316 -13 281 -5 252 10 C 223 25 199 49 181 82 M 487 273 C 487 339 473 390 446 428 C 418 466 381 485 334 485 C 286 485 249 466 222 428 C 194 390 181 339 181 273 C 181 207 194 155 222 117 C 249 79 286 61 334 61 C 381 61 418 79 446 117 C 473 155 487 207 487 273 z "/></g><g id="f0-0-t" transform="matrix(0.001 0 0 0.001 0 0)"><clipPath id="clipt3p0f0-23"><path d="M -184 -236 L 1288 -236 L 1288 929 L -184 929 L -184 -236 z "/></clipPath><path clip-path="url(#clipt3p0f0-23)" stroke="none" d="M 183 702 L 183 547 L 368 547 L 368 477 L 183 477 L 183 180 C 183 135 189 106 201 94 C 213 81 238 75 276 75 L 368 75 L 368 0 L 276 0 C 206 0 158 13 132 39 C 106 65 93 112 93 180 L 93 477 L 27 477 L 27 547 L 93 547 L 93 702 L 183 702 z "/></g><g id="f0-0-u" transform="matrix(0.001 0 0 0.001 0 0)"><clipPath id="clipt3p0f0-24"><path d="M -184 -236 L 1288 -236 L 1288 929 L -184 929 L -184 -236 z "/></clipPath><path clip-path="url(#clipt3p0f0-24)" stroke="none" d="M 85 216 L 85 547 L 175 547 L 175 219 C 175 167 185 129 205 103 C 225 77 255 64 296 64 C 344 64 383 79 411 110 C 439 141 453 183 453 237 L 453 547 L 543 547 L 543 0 L 453 0 L 453 84 C 431 50 405 26 377 10 C 348 -5 315 -13 277 -13 C 214 -13 166 6 134 45 C 101 83 85 140 85 216 z "/></g></defs><g id="qoppa_viewxform_p0" transform="matrix(1 0 0 1 0 0)"><svg id="qoppa_page_p0" class="qoppa_page" y="0pt" width="576pt" height="432pt"><rect class="qoppa_pageborder" x="0.5pt" y="0.5pt" width="575pt" height="431pt" fill="none" /><svg class="qoppa_pagecontents" x="0pt" y="0pt" width="576pt" height="432pt" viewBox="0 0 576 432" style="isolation: isolate;" ><g class="qoppa_contentstream" transform="matrix(1 0 0 -1 0 432)" fill="black" stroke="black" stroke-width="1" stroke-linecap="butt" stroke-linejoin="miter" stroke-miterlimit="10"><clipPath id="clip0-25"><path d="M 0 0 L 576 0 L 576 432 L 0 432 L 0 0 z "/></clipPath><path clip-path="url(#clip0-25)" fill="#fff" stroke="none" d="M 0 0 L 576 0 L 576 432 L 0 432 z "/><path clip-path="url(#clip0-25)" fill="#fff" stroke="none" d="M 72 43.2 L 518.4 43.2 L 518.4 388.8 L 72 388.8 z "/><clipPath id="clip0-26"><path d="M 72 43.2 L 72 388.8 L 518.4 388.8 L 518.4 43.2 z "/></clipPath><g clip-path="url(#clip0-26)"><g transform="translate(72 86.4)"><clipPath id="clip0-27"><path d="M -3.25 -3.25 L 3.25 -3.25 L 3.25 3.25 L -3.25 3.25 L -3.25 -3.25 z "/></clipPath><path clip-path="url(#clip0-27)" fill="#008000" stroke="#000" stroke-width="0.5" d="M -3 -3 L 3 -3 L 3 3 L -3 3 z "/></g></g><g clip-path="url(#clip0-26)"><g transform="translate(116.64 172.8)"><clipPath id="clip0-28"><path d="M -3.25 -3.25 L 3.25 -3.25 L 3.25 3.25 L -3.25 3.25 L -3.25 -3.25 z "/></clipPath><path clip-path="url(#clip0-28)" fill="#008000" stroke="#000" stroke-width="0.5" d="M -3 -3 L 3 -3 L 3 3 L -3 3 z "/></g></g><g clip-path="url(#clip0-26)"><g transform="translate(161.28 259.2)"><clipPath id="clip0-29"><path d="M -3.25 -3.25 L 3.25 -3.25 L 3.25 3.25 L -3.25 3.25 L -3.25 -3.25 z "/></clipPath><path clip-path="url(#clip0-29)" fill="#008000" stroke="#000" stroke-width="0.5" d="M -3 -3 L 3 -3 L 3 3 L -3 3 z "/></g></g><g clip-path="url(#clip0-26)"><g transform="translate(205.92 216)"><clipPath id="clip0-30"><path d="M -3.25 -3.25 L 3.25 -3.25 L 3.25 3.25 L -3.25 3.25 L -3.25 -3.25 z "/></clipPath><path clip-path="url(#clip0-30)" fill="#008000" stroke="#000" stroke-width="0.5" d="M -3 -3 L 3 -3 L 3 3 L -3 3 z "/></g></g><g clip-path="url(#clip0-26)"><g transform="translate(250.56 172.8)"><clipPath id="clip0-31"><path d="M -3.25 -3.25 L 3.25 -3.25 L 3.25 3.25 L -3.25 3.25 L -3.25 -3.25 z "/></clipPath><path clip-path="url(#clip0-31)" fill="#008000" stroke="#000" stroke-width="0.5" d="M -3 -3 L 3 -3 L 3 3 L -3 3 z "/></g></g><g clip-path="url(#clip0-26)"><g transform="translate(295.2 129.6)"><clipPath id="clip0-32"><path d="M -3.25 -3.25 L 3.25 -3.25 L 3.25 3.25 L -3.25 3.25 L -3.25 -3.25 z "/></clipPath><path clip-path="url(#clip0-32)" fill="#008000" stroke="#000" stroke-width="0.5" d="M -3 -3 L 3 -3 L 3 3 L -3 3 z "/></g></g><g clip-path="url(#clip0-26)"><g transform="translate(339.84 172.8)"><clipPath id="clip0-33"><path d="M -3.25 -3.25 L 3.25 -3.25 L 3.25 3.25 L -3.25 3.25 L -3.25 -3.25 z "/></clipPath><path clip-path="url(#clip0-33)" fill="#008000" stroke="#000" stroke-width="0.5" d="M -3 -3 L 3 -3 L 3 3 L -3 3 z "/></g></g><g clip-path="url(#clip0-26)"><g transform="translate(384.48 259.2)"><clipPath id="clip0-34"><path d="M -3.25 -3.25 L 3.25 -3.25 L 3.25 3.25 L -3.25 3.25 L -3.25 -3.25 z "/></clipPath><path clip-path="url(#clip0-34)" fill="#008000" stroke="#000" stroke-width="0.5" d="M -3 -3 L 3 -3 L 3 3 L -3 3 z "/></g></g><g clip-path="url(#clip0-26)"><g transform="translate(429.12 302.4)"><clipPath id="clip0-35"><path d="M -3.25 -3.25 L 3.25 -3.25 L 3.25 3.25 L -3.25 3.25 L -3.25 -3.25 z "/></clipPath><path clip-path="url(#clip0-35)" fill="#008000" stroke="#000" stroke-width="0.5" d="M -3 -3 L 3 -3 L 3 3 L -3 3 z "/></g></g><g clip-path="url(#clip0-26)"><g transform="translate(473.76 388.8)"><clipPath id="clip0-36"><path d="M -3.25 -3.25 L 3.25 -3.25 L 3.25 3.25 L -3.25 3.25 L -3.25 -3.25 z "/></clipPath><path clip-path="url(#clip0-36)" fill="#008000" stroke="#000" stroke-width="0.5" d="M -3 -3 L 3 -3 L 3 3 L -3 3 z "/></g></g><path clip-path="url(#clip0-26)" fill="none" stroke="#00f" stroke-width="1" stroke-linecap="square" stroke-linejoin="round" d="M 72 86.4 L 76.2661 86.0767 L 80.294 87.2045 L 84.102 89.6714 L 87.7087 93.3655 L 91.1323 98.1748 L 94.3911 103.9874 L 97.5037 110.6914 L 100.4884 118.1748 L 103.3635 126.3255 L 106.1474 135.0318 L 108.8585 144.1817 L 111.5152 153.6631 L 114.1358 163.3642 L 116.7387 173.173 L 119.3423 182.9775 L 121.9651 192.6658 L 124.6252 202.126 L 127.3412 211.2461 L 130.1314 219.9142 L 133.0141 228.0182 L 136.0079 235.4463 L 139.1309 242.0865 L 142.4017 247.8269 L 145.8385 252.5555 L 149.4598 256.1604 L 153.2839 258.5295 L 157.3292 259.5511 L 161.6141 259.113 L 166.1457 257.1761 L 170.895 253.9324 L 175.826 249.62 L 180.9026 244.4772 L 186.0888 238.742 L 191.3484 232.6526 L 196.6454 226.4472 L 201.9437 220.364 L 207.2074 214.6401 L 212.4136 209.3983 L 217.5654 204.5361 L 222.6687 199.9249 L 227.7296 195.4357 L 232.7542 190.94 L 237.7485 186.3089 L 242.7185 181.4138 L 247.6702 176.1259 L 252.6098 170.3213 L 257.5458 164.0483 L 262.4901 157.5701 L 267.4545 151.1637 L 272.451 145.1057 L 277.4915 139.673 L 282.588 135.1423 L 287.7523 131.7904 L 292.9964 129.8942 L 298.3302 129.7136 L 303.7284 131.2425 L 309.1381 134.2613 L 314.5054 138.5444 L 319.7768 143.8663 L 324.8983 150.0016 L 329.8161 156.7245 L 334.4765 163.8097 L 338.8258 171.0316 L 342.8178 178.1807 L 346.4726 185.1863 L 349.8438 192.0482 L 352.9855 198.7666 L 355.9516 205.3417 L 358.796 211.7739 L 361.5727 218.0634 L 364.3355 224.2105 L 367.1386 230.2154 L 370.0358 236.0785 L 373.081 241.8 L 376.3283 247.3802 L 379.8315 252.8194 L 383.6446 258.1177 L 387.8129 263.2776 L 392.3156 268.3161 L 397.1019 273.2575 L 402.1207 278.1257 L 407.3209 282.9449 L 412.6516 287.7393 L 418.0616 292.5328 L 423.4999 297.3497 L 428.9156 302.2141 L 434.2574 307.15 L 439.4744 312.1816 L 444.5155 317.333 L 449.3297 322.6283 L 453.8659 328.0915 L 458.0731 333.7469 L 461.9002 339.6186 L 465.2962 345.7306 L 468.2101 352.107 L 470.5907 358.772 L 472.387 365.7497 L 473.5481 373.0642 L 474.0227 380.7396 L 473.76 388.8 "/><clipPath id="clip0-37"><path d="M 0 0 L 576 0 L 576 432 L 0 432 L 0 0 z "/></clipPath><path clip-path="url(#clip0-37)" fill="#000" stroke="#000" stroke-width="0.5" stroke-linejoin="round" d="M 72 43.2 L 72 47.2 "/><path clip-path="url(#clip0-37)" fill="#000" stroke="#000" stroke-width="0.5" stroke-linejoin="round" d="M 72 388.8 L 72 384.8 "/><g clip-path="url(#clip0-37)"><g  transform="matrix(12 0 0 12 68.9766 30.2937)"><use xlink:href="#f0-0-0" x="0" fill="#000" stroke="#000"/></g></g><path clip-path="url(#clip0-37)" fill="#000" stroke="#000" stroke-width="0.5" stroke-linejoin="round" d="M 161.28 43.2 L 161.28 47.2 "/><path clip-path="url(#clip0-37)" fill="#000" stroke="#000" stroke-width="0.5" stroke-linejoin="round" d="M 161.28 388.8 L 161.28 384.8 "/><g clip-path="url(#clip0-37)"><g  transform="matrix(12 0 0 12 158.4988 30.2937)"><use xlink:href="#f0-0-2" x="0" fill="#000" stroke="#000"/></g></g><path clip-path="url(#clip0-37)" fill="#000" stroke="#000" stroke-width="0.5" stroke-linejoin="round" d="M 250.56 43.2 L 250.56 47.2 "/><path clip-path="url(#clip0-37)" fill="#000" stroke="#000" stroke-width="0.5" stroke-linejoin="round" d="M 250.56 388.8 L 250.56 384.8 "/><g clip-path="url(#clip0-37)"><g  transform="matrix(12 0 0 12 247.3725 30.45)"><use xlink:href="#f0-0-4" x="0" fill="#000" stroke="#000"/></g></g><path clip-path="url(#clip0-37)" fill="#000" stroke="#000" stroke-width="0.5" stroke-linejoin="round" d="M 339.84 43.2 L 339.84 47.2 "/><path clip-path="url(#clip0-37)" fill="#000" stroke="#000" stroke-width="0.5" stroke-linejoin="round" d="M 339.84 388.8 L 339.84 384.8 "/><g clip-path="url(#clip0-37)"><g  transform="matrix(12 0 0 12 336.8244 30.2937)"><use xlink:href="#f0-0-6" x="0" fill="#000" stroke="#000"/></g></g><path clip-path="url(#clip0-37)" fill="#000" stroke="#000" stroke-width="0.5" stroke-linejoin="round" d="M 429.12 43.2 L 429.12 47.2 "/><path clip-path="url(#clip0-37)" fill="#000" stroke="#000" stroke-width="0.5" stroke-linejoin="round" d="M 429.12 388.8 L 429.12 384.8 "/><g clip-path="url(#clip0-37)"><g  transform="matrix(12 0 0 12 426.12 30.2937)"><use xlink:href="#f0-0-8" x="0" fill="#000" stroke="#000"/></g></g><path clip-path="url(#clip0-37)" fill="#000" stroke="#000" stroke-width="0.5" stroke-linejoin="round" d="M 518.4 43.2 L 518.4 47.2 "/><path clip-path="url(#clip0-37)" fill="#000" stroke="#000" stroke-width="0.5" stroke-linejoin="round" d="M 518.4 388.8 L 518.4 384.8 "/><g clip-path="url(#clip0-37)"><g  transform="matrix(12 0 0 12 511.8141 30.2937)"><use xlink:href="#f0-0-1" x="0" fill="#000" stroke="#000"/><use xlink:href="#f0-0-0" x="0.636" fill="#000" stroke="#000"/></g></g><path clip-path="url(#clip0-37)" fill="#000" stroke="#000" stroke-width="0.5" stroke-linejoin="round" d="M 72 43.2 L 76 43.2 "/><path clip-path="url(#clip0-37)" fill="#000" stroke="#000" stroke-width="0.5" stroke-linejoin="round" d="M 518.4 43.2 L 514.4 43.2 "/><g clip-path="url(#clip0-37)"><g  transform="matrix(12 0 0 12 62.7266 38.825)"><use xlink:href="#f0-0-1" x="0" fill="#000" stroke="#000"/></g></g><g clip-path="url(#clip0-37)"><g transform="matrix(0.012 0 0 0.012 52.6719 38.825)"><clipPath id="clip0-38"><path d="M -184 -236 L 1288 -236 L 1288 929 L -184 929 L -184 -236 z "/></clipPath><path clip-path="url(#clip0-38)" fill="#000" stroke="none" d="M 106 355 L 732 355 L 732 272 L 106 272 L 106 355 z "/></g></g><path clip-path="url(#clip0-37)" fill="#000" stroke="#000" stroke-width="0.5" stroke-linejoin="round" d="M 72 86.4 L 76 86.4 "/><path clip-path="url(#clip0-37)" fill="#000" stroke="#000" stroke-width="0.5" stroke-linejoin="round" d="M 518.4 86.4 L 514.4 86.4 "/><g clip-path="url(#clip0-37)"><g  transform="matrix(12 0 0 12 61.9531 82.0328)"><use xlink:href="#f0-0-0" x="0" fill="#000" stroke="#000"/></g></g><path clip-path="url(#clip0-37)" fill="#000" stroke="#000" stroke-width="0.5" stroke-linejoin="round" d="M 72 129.6 L 76 129.6 "/><path clip-path="url(#clip0-37)" fill="#000" stroke="#000" stroke-width="0.5" stroke-linejoin="round" d="M 518.4 129.6 L 514.4 129.6 "/><g clip-path="url(#clip0-37)"><g  transform="matrix(12 0 0 12 62.7812 125.225)"><use xlink:href="#f0-0-1" x="0" fill="#000" stroke="#000"/></g></g><path clip-path="url(#clip0-37)" fill="#000" stroke="#000" stroke-width="0.5" stroke-linejoin="round" d="M 72 172.8 L 76 172.8 "/><path clip-path="url(#clip0-37)" fill="#000" stroke="#000" stroke-width="0.5" stroke-linejoin="round" d="M 518.4 172.8 L 514.4 172.8 "/><g clip-path="url(#clip0-37)"><g  transform="matrix(12 0 0 12 62.4375 168.3469)"><use xlink:href="#f0-0-2" x="0" fill="#000" stroke="#000"/></g></g><path clip-path="url(#clip0-37)" fill="#000" stroke="#000" stroke-width="0.5" stroke-linejoin="round" d="M 72 216 L 76 216 "/><path clip-path="url(#clip0-37)" fill="#000" stroke="#000" stroke-width="0.5" stroke-linejoin="round" d="M 518.4 216 L 514.4 216 "/><g clip-path="url(#clip0-37)"><g  transform="matrix(12 0 0 12 62.25 211.6328)"><use xlink:href="#f0-0-3" x="0" fill="#000" stroke="#000"/></g></g><path clip-path="url(#clip0-37)" fill="#000" stroke="#000" stroke-width="0.5" stroke-linejoin="round" d="M 72 259.2 L 76 259.2 "/><path clip-path="url(#clip0-37)" fill="#000" stroke="#000" stroke-width="0.5" stroke-linejoin="round" d="M 518.4 259.2 L 514.4 259.2 "/><g clip-path="url(#clip0-37)"><g  transform="matrix(12 0 0 12 61.625 254.825)"><use xlink:href="#f0-0-4" x="0" fill="#000" stroke="#000"/></g></g><path clip-path="url(#clip0-37)" fill="#000" stroke="#000" stroke-width="0.5" stroke-linejoin="round" d="M 72 302.4 L 76 302.4 "/><path clip-path="url(#clip0-37)" fill="#000" stroke="#000" stroke-width="0.5" stroke-linejoin="round" d="M 518.4 302.4 L 514.4 302.4 "/><g clip-path="url(#clip0-37)"><g  transform="matrix(12 0 0 12 62.3281 298.1109)"><use xlink:href="#f0-0-5" x="0" fill="#000" stroke="#000"/></g></g><path clip-path="url(#clip0-37)" fill="#000" stroke="#000" stroke-width="0.5" stroke-linejoin="round" d="M 72 345.6 L 76 345.6 "/><path clip-path="url(#clip0-37)" fill="#000" stroke="#000" stroke-width="0.5" stroke-linejoin="round" d="M 518.4 345.6 L 514.4 345.6 "/><g clip-path="url(#clip0-37)"><g  transform="matrix(12 0 0 12 61.9688 341.2328)"><use xlink:href="#f0-0-6" x="0" fill="#000" stroke="#000"/></g></g><path clip-path="url(#clip0-37)" fill="#000" stroke="#000" stroke-width="0.5" stroke-linejoin="round" d="M 72 388.8 L 76 388.8 "/><path clip-path="url(#clip0-37)" fill="#000" stroke="#000" stroke-width="0.5" stroke-linejoin="round" d="M 518.4 388.8 L 514.4 388.8 "/><g clip-path="url(#clip0-37)"><g  transform="matrix(12 0 0 12 62.375 384.425)"><use xlink:href="#f0-0-7" x="0" fill="#000" stroke="#000"/></g></g><path clip-path="url(#clip0-37)" fill="none" stroke="#000" stroke-width="1" stroke-linecap="square" stroke-linejoin="round" d="M 72 388.8 L 518.4 388.8 "/><path clip-path="url(#clip0-37)" fill="none" stroke="#000" stroke-width="1" stroke-linecap="square" stroke-linejoin="round" d="M 518.4 43.2 L 518.4 388.8 "/><path clip-path="url(#clip0-37)" fill="none" stroke="#000" stroke-width="1" stroke-linecap="square" stroke-linejoin="round" d="M 72 43.2 L 518.4 43.2 "/><path clip-path="url(#clip0-37)" fill="none" stroke="#000" stroke-width="1" stroke-linecap="square" stroke-linejoin="round" d="M 72 43.2 L 72 388.8 "/><g clip-path="url(#clip0-37)"><g  transform="matrix(14.4 0 0 14.4 235.2781 393.8)"><use xlink:href="#f0-0-M" x="0" fill="#000" stroke="#000"/><use xlink:href="#f0-0-u" x="0.863" fill="#000" stroke="#000"/><use xlink:href="#f0-0-l" x="1.497" fill="#000" stroke="#000"/><use xlink:href="#f0-0-t" x="1.775" fill="#000" stroke="#000"/><use xlink:href="#f0-0-i" x="2.167" fill="#000" stroke="#000"/><use xlink:href="#f0-0-p" x="2.445" fill="#000" stroke="#000"/><use xlink:href="#f0-0-o" x="3.08" fill="#000" stroke="#000"/><use xlink:href="#f0-0-i" x="3.692" fill="#000" stroke="#000"/><use xlink:href="#f0-0-n" x="3.97" fill="#000" stroke="#000"/><use xlink:href="#f0-0-t" x="4.604" fill="#000" stroke="#000"/><use xlink:href="#f0-0- " x="4.996" fill="#000" stroke="#000"/><use xlink:href="#f0-0-S" x="5.314" fill="#000" stroke="#000"/><use xlink:href="#f0-0-p" x="5.949" fill="#000" stroke="#000"/><use xlink:href="#f0-0-l" x="6.584" fill="#000" stroke="#000"/><use xlink:href="#f0-0-i" x="6.862" fill="#000" stroke="#000"/><use xlink:href="#f0-0-n" x="7.14" fill="#000" stroke="#000"/><use xlink:href="#f0-0-e" x="7.774" fill="#000" stroke="#000"/></g></g><path clip-path="url(#clip0-37)" fill="#fff" stroke="#000" stroke-width="1" stroke-linecap="square" stroke-linejoin="round" d="M 371.1725 335.7863 L 511.2 335.7863 L 511.2 381.6 L 371.1725 381.6 L 371.1725 335.7863 z "/><path clip-path="url(#clip0-37)" fill="#008000" stroke="#000" stroke-width="0.5" d="M 378.2525 367.2394 L 384.2525 367.2394 L 384.2525 373.2394 L 378.2525 373.2394 z "/><path clip-path="url(#clip0-37)" fill="#008000" stroke="#000" stroke-width="0.5" d="M 398.4125 367.2394 L 404.4125 367.2394 L 404.4125 373.2394 L 398.4125 373.2394 z "/><g clip-path="url(#clip0-37)"><g  transform="matrix(14.4 0 0 14.4 417.2525 365.1994)"><use xlink:href="#f0-0-D" x="0" fill="#000" stroke="#000"/><use xlink:href="#f0-0-a" x="0.77" fill="#000" stroke="#000"/><use xlink:href="#f0-0-t" x="1.383" fill="#000" stroke="#000"/><use xlink:href="#f0-0-a" x="1.775" fill="#000" stroke="#000"/></g></g><path clip-path="url(#clip0-37)" fill="none" stroke="#00f" stroke-width="1" stroke-linecap="square" stroke-linejoin="round" d="M 381.2525 349.4925 L 401.4125 349.4925 "/><g clip-path="url(#clip0-37)"><g  transform="matrix(14.4 0 0 14.4 417.2525 344.4525)"><use xlink:href="#f0-0-C" x="0" fill="#000" stroke="#000"/><use xlink:href="#f0-0-u" x="0.698" fill="#000" stroke="#000"/><use xlink:href="#f0-0-b" x="1.332" fill="#000" stroke="#000"/><use xlink:href="#f0-0-i" x="1.967" fill="#000" stroke="#000"/><use xlink:href="#f0-0-c" x="2.245" fill="#000" stroke="#000"/><use xlink:href="#f0-0- " x="2.795" fill="#000" stroke="#000"/><use xlink:href="#f0-0-S" x="3.113" fill="#000" stroke="#000"/><use xlink:href="#f0-0-p" x="3.748" fill="#000" stroke="#000"/><use xlink:href="#f0-0-l" x="4.383" fill="#000" stroke="#000"/><use xlink:href="#f0-0-i" x="4.661" fill="#000" stroke="#000"/><use xlink:href="#f0-0-n" x="4.939" fill="#000" stroke="#000"/><use xlink:href="#f0-0-e" x="5.573" fill="#000" stroke="#000"/></g></g></g></svg></svg></g></svg>