<?xml version="1.0" encoding="utf-8"?>
<svg xmlns="http://www.w3.org/2000/svg" xmlns:xlink="http://www.w3.org/1999/xlink" width="600" height="400" viewBox="0 0 2400 1600">
<defs>
  <clipPath id="clip290">
    <rect x="0" y="0" width="2400" height="1600"/>
  </clipPath>
</defs>
<path clip-path="url(#clip290)" d="
M0 1600 L2400 1600 L2400 0 L0 0  Z
  " fill="#ffffff" fill-rule="evenodd" fill-opacity="1"/>
<defs>
  <clipPath id="clip291">
    <rect x="480" y="0" width="1681" height="1600"/>
  </clipPath>
</defs>
<path clip-path="url(#clip290)" d="
M112.177 1486.45 L2352.76 1486.45 L2352.76 47.2441 L112.177 47.2441  Z
  " fill="#ffffff" fill-rule="evenodd" fill-opacity="1"/>
<defs>
  <clipPath id="clip292">
    <rect x="112" y="47" width="2242" height="1440"/>
  </clipPath>
</defs>
<polyline clip-path="url(#clip292)" style="stroke:#000000; stroke-linecap:butt; stroke-linejoin:round; stroke-width:2; stroke-opacity:0.1; fill:none" points="
  175.59,1486.45 175.59,47.2441 
  "/>
<polyline clip-path="url(#clip292)" style="stroke:#000000; stroke-linecap:butt; stroke-linejoin:round; stroke-width:2; stroke-opacity:0.1; fill:none" points="
  704.028,1486.45 704.028,47.2441 
  "/>
<polyline clip-path="url(#clip292)" style="stroke:#000000; stroke-linecap:butt; stroke-linejoin:round; stroke-width:2; stroke-opacity:0.1; fill:none" points="
  1232.47,1486.45 1232.47,47.2441 
  "/>
<polyline clip-path="url(#clip292)" style="stroke:#000000; stroke-linecap:butt; stroke-linejoin:round; stroke-width:2; stroke-opacity:0.1; fill:none" points="
  1760.9,1486.45 1760.9,47.2441 
  "/>
<polyline clip-path="url(#clip292)" style="stroke:#000000; stroke-linecap:butt; stroke-linejoin:round; stroke-width:2; stroke-opacity:0.1; fill:none" points="
  2289.34,1486.45 2289.34,47.2441 
  "/>
<polyline clip-path="url(#clip290)" style="stroke:#000000; stroke-linecap:butt; stroke-linejoin:round; stroke-width:4; stroke-opacity:1; fill:none" points="
  112.177,1486.45 2352.76,1486.45 
  "/>
<polyline clip-path="url(#clip290)" style="stroke:#000000; stroke-linecap:butt; stroke-linejoin:round; stroke-width:4; stroke-opacity:1; fill:none" points="
  175.59,1486.45 175.59,1469.18 
  "/>
<polyline clip-path="url(#clip290)" style="stroke:#000000; stroke-linecap:butt; stroke-linejoin:round; stroke-width:4; stroke-opacity:1; fill:none" points="
  704.028,1486.45 704.028,1469.18 
  "/>
<polyline clip-path="url(#clip290)" style="stroke:#000000; stroke-linecap:butt; stroke-linejoin:round; stroke-width:4; stroke-opacity:1; fill:none" points="
  1232.47,1486.45 1232.47,1469.18 
  "/>
<polyline clip-path="url(#clip290)" style="stroke:#000000; stroke-linecap:butt; stroke-linejoin:round; stroke-width:4; stroke-opacity:1; fill:none" points="
  1760.9,1486.45 1760.9,1469.18 
  "/>
<polyline clip-path="url(#clip290)" style="stroke:#000000; stroke-linecap:butt; stroke-linejoin:round; stroke-width:4; stroke-opacity:1; fill:none" points="
  2289.34,1486.45 2289.34,1469.18 
  "/>
<path clip-path="url(#clip290)" d="M170.243 1543.18 L186.562 1543.18 L186.562 1547.12 L164.618 1547.12 L164.618 1543.18 Q167.28 1540.43 171.863 1535.8 Q176.469 1531.15 177.65 1529.81 Q179.895 1527.28 180.775 1525.55 Q181.678 1523.79 181.678 1522.1 Q181.678 1519.34 179.733 1517.61 Q177.812 1515.87 174.71 1515.87 Q172.511 1515.87 170.057 1516.63 Q167.627 1517.4 164.849 1518.95 L164.849 1514.23 Q167.673 1513.09 170.127 1512.51 Q172.581 1511.93 174.618 1511.93 Q179.988 1511.93 183.182 1514.62 Q186.377 1517.31 186.377 1521.8 Q186.377 1523.93 185.567 1525.85 Q184.78 1527.74 182.673 1530.34 Q182.094 1531.01 178.993 1534.23 Q175.891 1537.42 170.243 1543.18 Z" fill="#000000" fill-rule="evenodd" fill-opacity="1" /><path clip-path="url(#clip290)" d="M708.276 1528.49 Q711.632 1529.2 713.507 1531.47 Q715.405 1533.74 715.405 1537.07 Q715.405 1542.19 711.887 1544.99 Q708.368 1547.79 701.887 1547.79 Q699.711 1547.79 697.396 1547.35 Q695.105 1546.93 692.651 1546.08 L692.651 1541.56 Q694.595 1542.7 696.91 1543.28 Q699.225 1543.86 701.748 1543.86 Q706.146 1543.86 708.438 1542.12 Q710.753 1540.38 710.753 1537.07 Q710.753 1534.02 708.6 1532.31 Q706.47 1530.57 702.651 1530.57 L698.623 1530.57 L698.623 1526.73 L702.836 1526.73 Q706.285 1526.73 708.114 1525.36 Q709.942 1523.97 709.942 1521.38 Q709.942 1518.72 708.044 1517.31 Q706.169 1515.87 702.651 1515.87 Q700.73 1515.87 698.531 1516.29 Q696.331 1516.7 693.693 1517.58 L693.693 1513.42 Q696.355 1512.68 698.669 1512.31 Q701.007 1511.93 703.068 1511.93 Q708.392 1511.93 711.493 1514.37 Q714.595 1516.77 714.595 1520.89 Q714.595 1523.76 712.952 1525.75 Q711.308 1527.72 708.276 1528.49 Z" fill="#000000" fill-rule="evenodd" fill-opacity="1" /><path clip-path="url(#clip290)" d="M1235.48 1516.63 L1223.67 1535.08 L1235.48 1535.08 L1235.48 1516.63 M1234.25 1512.56 L1240.13 1512.56 L1240.13 1535.08 L1245.06 1535.08 L1245.06 1538.97 L1240.13 1538.97 L1240.13 1547.12 L1235.48 1547.12 L1235.48 1538.97 L1219.87 1538.97 L1219.87 1534.46 L1234.25 1512.56 Z" fill="#000000" fill-rule="evenodd" fill-opacity="1" /><path clip-path="url(#clip290)" d="M1751.18 1512.56 L1769.54 1512.56 L1769.54 1516.5 L1755.47 1516.5 L1755.47 1524.97 Q1756.48 1524.62 1757.5 1524.46 Q1758.52 1524.27 1759.54 1524.27 Q1765.33 1524.27 1768.71 1527.44 Q1772.09 1530.62 1772.09 1536.03 Q1772.09 1541.61 1768.61 1544.71 Q1765.14 1547.79 1758.82 1547.79 Q1756.65 1547.79 1754.38 1547.42 Q1752.13 1547.05 1749.72 1546.31 L1749.72 1541.61 Q1751.81 1542.74 1754.03 1543.3 Q1756.25 1543.86 1758.73 1543.86 Q1762.73 1543.86 1765.07 1541.75 Q1767.41 1539.64 1767.41 1536.03 Q1767.41 1532.42 1765.07 1530.31 Q1762.73 1528.21 1758.73 1528.21 Q1756.85 1528.21 1754.98 1528.62 Q1753.13 1529.04 1751.18 1529.92 L1751.18 1512.56 Z" fill="#000000" fill-rule="evenodd" fill-opacity="1" /><path clip-path="url(#clip290)" d="M2289.75 1527.98 Q2286.6 1527.98 2284.75 1530.13 Q2282.92 1532.28 2282.92 1536.03 Q2282.92 1539.76 2284.75 1541.93 Q2286.6 1544.09 2289.75 1544.09 Q2292.9 1544.09 2294.73 1541.93 Q2296.58 1539.76 2296.58 1536.03 Q2296.58 1532.28 2294.73 1530.13 Q2292.9 1527.98 2289.75 1527.98 M2299.03 1513.32 L2299.03 1517.58 Q2297.27 1516.75 2295.47 1516.31 Q2293.68 1515.87 2291.92 1515.87 Q2287.29 1515.87 2284.84 1519 Q2282.41 1522.12 2282.06 1528.44 Q2283.43 1526.43 2285.49 1525.36 Q2287.55 1524.27 2290.03 1524.27 Q2295.23 1524.27 2298.24 1527.44 Q2301.28 1530.59 2301.28 1536.03 Q2301.28 1541.36 2298.13 1544.57 Q2294.98 1547.79 2289.75 1547.79 Q2283.75 1547.79 2280.58 1543.21 Q2277.41 1538.6 2277.41 1529.87 Q2277.41 1521.68 2281.3 1516.82 Q2285.19 1511.93 2291.74 1511.93 Q2293.5 1511.93 2295.28 1512.28 Q2297.09 1512.63 2299.03 1513.32 Z" fill="#000000" fill-rule="evenodd" fill-opacity="1" /><polyline clip-path="url(#clip292)" style="stroke:#000000; stroke-linecap:butt; stroke-linejoin:round; stroke-width:2; stroke-opacity:0.1; fill:none" points="
  112.177,1276 2352.76,1276 
  "/>
<polyline clip-path="url(#clip292)" style="stroke:#000000; stroke-linecap:butt; stroke-linejoin:round; stroke-width:2; stroke-opacity:0.1; fill:none" points="
  112.177,936.563 2352.76,936.563 
  "/>
<polyline clip-path="url(#clip292)" style="stroke:#000000; stroke-linecap:butt; stroke-linejoin:round; stroke-width:2; stroke-opacity:0.1; fill:none" points="
  112.177,597.129 2352.76,597.129 
  "/>
<polyline clip-path="url(#clip292)" style="stroke:#000000; stroke-linecap:butt; stroke-linejoin:round; stroke-width:2; stroke-opacity:0.1; fill:none" points="
  112.177,257.694 2352.76,257.694 
  "/>
<polyline clip-path="url(#clip290)" style="stroke:#000000; stroke-linecap:butt; stroke-linejoin:round; stroke-width:4; stroke-opacity:1; fill:none" points="
  112.177,1486.45 112.177,47.2441 
  "/>
<polyline clip-path="url(#clip290)" style="stroke:#000000; stroke-linecap:butt; stroke-linejoin:round; stroke-width:4; stroke-opacity:1; fill:none" points="
  112.177,1276 139.064,1276 
  "/>
<polyline clip-path="url(#clip290)" style="stroke:#000000; stroke-linecap:butt; stroke-linejoin:round; stroke-width:4; stroke-opacity:1; fill:none" points="
  112.177,936.563 139.064,936.563 
  "/>
<polyline clip-path="url(#clip290)" style="stroke:#000000; stroke-linecap:butt; stroke-linejoin:round; stroke-width:4; stroke-opacity:1; fill:none" points="
  112.177,597.129 139.064,597.129 
  "/>
<polyline clip-path="url(#clip290)" style="stroke:#000000; stroke-linecap:butt; stroke-linejoin:round; stroke-width:4; stroke-opacity:1; fill:none" points="
  112.177,257.694 139.064,257.694 
  "/>
<path clip-path="url(#clip290)" d="M59.8578 1289.34 L76.1772 1289.34 L76.1772 1293.28 L54.2328 1293.28 L54.2328 1289.34 Q56.8949 1286.59 61.4782 1281.96 Q66.0846 1277.31 67.2652 1275.96 Q69.5105 1273.44 70.3902 1271.7 Q71.2929 1269.95 71.2929 1268.26 Q71.2929 1265.5 69.3485 1263.76 Q67.4272 1262.03 64.3254 1262.03 Q62.1263 1262.03 59.6726 1262.79 Q57.2421 1263.56 54.4643 1265.11 L54.4643 1260.38 Q57.2884 1259.25 59.7421 1258.67 Q62.1958 1258.09 64.2328 1258.09 Q69.6031 1258.09 72.7976 1260.78 Q75.992 1263.46 75.992 1267.95 Q75.992 1270.08 75.1818 1272.01 Q74.3948 1273.9 72.2883 1276.5 Q71.7096 1277.17 68.6078 1280.38 Q65.5059 1283.58 59.8578 1289.34 Z" fill="#000000" fill-rule="evenodd" fill-opacity="1" /><path clip-path="url(#clip290)" d="M66.5939 923.357 L54.7884 941.806 L66.5939 941.806 L66.5939 923.357 M65.367 919.283 L71.2466 919.283 L71.2466 941.806 L76.1772 941.806 L76.1772 945.695 L71.2466 945.695 L71.2466 953.843 L66.5939 953.843 L66.5939 945.695 L50.9921 945.695 L50.9921 941.181 L65.367 919.283 Z" fill="#000000" fill-rule="evenodd" fill-opacity="1" /><path clip-path="url(#clip290)" d="M64.6495 595.265 Q61.5013 595.265 59.6495 597.418 Q57.8208 599.571 57.8208 603.321 Q57.8208 607.047 59.6495 609.223 Q61.5013 611.376 64.6495 611.376 Q67.7976 611.376 69.6263 609.223 Q71.4781 607.047 71.4781 603.321 Q71.4781 599.571 69.6263 597.418 Q67.7976 595.265 64.6495 595.265 M73.9318 580.612 L73.9318 584.872 Q72.1726 584.038 70.367 583.599 Q68.5846 583.159 66.8254 583.159 Q62.1958 583.159 59.7421 586.284 Q57.3115 589.409 56.9643 595.728 Q58.33 593.714 60.3902 592.649 Q62.4504 591.561 64.9272 591.561 Q70.1355 591.561 73.1448 594.733 Q76.1772 597.881 76.1772 603.321 Q76.1772 608.645 73.029 611.862 Q69.8809 615.08 64.6495 615.08 Q58.6541 615.08 55.4828 610.497 Q52.3116 605.89 52.3116 597.163 Q52.3116 588.969 56.2004 584.108 Q60.0893 579.224 66.6402 579.224 Q68.3994 579.224 70.1818 579.571 Q71.9874 579.918 73.9318 580.612 Z" fill="#000000" fill-rule="evenodd" fill-opacity="1" /><path clip-path="url(#clip290)" d="M64.3254 258.562 Q60.9921 258.562 59.0708 260.344 Q57.1726 262.127 57.1726 265.252 Q57.1726 268.377 59.0708 270.159 Q60.9921 271.941 64.3254 271.941 Q67.6587 271.941 69.58 270.159 Q71.5013 268.353 71.5013 265.252 Q71.5013 262.127 69.58 260.344 Q67.6819 258.562 64.3254 258.562 M59.6495 256.571 Q56.6402 255.83 54.9504 253.77 Q53.2838 251.71 53.2838 248.747 Q53.2838 244.603 56.2236 242.196 Q59.1865 239.789 64.3254 239.789 Q69.4874 239.789 72.4272 242.196 Q75.367 244.603 75.367 248.747 Q75.367 251.71 73.6772 253.77 Q72.0105 255.83 69.0244 256.571 Q72.404 257.358 74.279 259.65 Q76.1772 261.941 76.1772 265.252 Q76.1772 270.275 73.0985 272.96 Q70.0429 275.645 64.3254 275.645 Q58.6078 275.645 55.5291 272.96 Q52.4736 270.275 52.4736 265.252 Q52.4736 261.941 54.3717 259.65 Q56.2699 257.358 59.6495 256.571 M57.9365 249.187 Q57.9365 251.872 59.6032 253.377 Q61.293 254.881 64.3254 254.881 Q67.3346 254.881 69.0244 253.377 Q70.7374 251.872 70.7374 249.187 Q70.7374 246.502 69.0244 244.997 Q67.3346 243.492 64.3254 243.492 Q61.293 243.492 59.6032 244.997 Q57.9365 246.502 57.9365 249.187 Z" fill="#000000" fill-rule="evenodd" fill-opacity="1" /><polyline clip-path="url(#clip292)" style="stroke:#009af9; stroke-linecap:butt; stroke-linejoin:round; stroke-width:4; stroke-opacity:1; fill:none" points="
  175.59,1445.72 196.941,1432 218.292,1418.29 239.643,1404.57 260.994,1390.86 282.345,1377.14 303.696,1363.43 325.047,1349.71 346.398,1336 367.749,1322.28 
  389.1,1308.57 410.451,1294.86 431.802,1281.14 453.153,1267.43 474.504,1253.71 495.855,1240 517.207,1226.28 538.558,1212.57 559.909,1198.85 581.26,1185.14 
  602.611,1171.42 623.962,1157.71 645.313,1144 666.664,1130.28 688.015,1116.57 709.366,1102.85 730.717,1089.14 752.068,1075.42 773.419,1061.71 794.77,1047.99 
  816.121,1034.28 837.472,1020.56 858.823,1006.85 880.174,993.136 901.525,979.421 922.876,965.707 944.227,951.992 965.578,938.278 986.93,924.563 1008.28,910.849 
  1029.63,897.134 1050.98,883.42 1072.33,869.705 1093.68,855.99 1115.04,842.276 1136.39,828.561 1157.74,814.847 1179.09,801.132 1200.44,787.418 1221.79,773.703 
  1243.14,759.989 1264.49,746.274 1285.84,732.56 1307.2,718.845 1328.55,705.131 1349.9,691.416 1371.25,677.701 1392.6,663.987 1413.95,650.272 1435.3,636.558 
  1456.65,622.843 1478,609.129 1499.35,595.414 1520.71,581.7 1542.06,567.985 1563.41,554.271 1584.76,540.556 1606.11,526.842 1627.46,513.127 1648.81,499.412 
  1670.16,485.698 1691.51,471.983 1712.87,458.269 1734.22,444.554 1755.57,430.84 1776.92,417.125 1798.27,403.411 1819.62,389.696 1840.97,375.982 1862.32,362.267 
  1883.67,348.553 1905.02,334.838 1926.38,321.123 1947.73,307.409 1969.08,293.694 1990.43,279.98 2011.78,266.265 2033.13,252.551 2054.48,238.836 2075.83,225.122 
  2097.18,211.407 2118.53,197.693 2139.89,183.978 2161.24,170.264 2182.59,156.549 2203.94,142.834 2225.29,129.12 2246.64,115.405 2267.99,101.691 2289.34,87.9763 
  
  "/>
<path clip-path="url(#clip290)" d="
M1976.69 216.178 L2278.07 216.178 L2278.07 95.2176 L1976.69 95.2176  Z
  " fill="#ffffff" fill-rule="evenodd" fill-opacity="1"/>
<polyline clip-path="url(#clip290)" style="stroke:#000000; stroke-linecap:butt; stroke-linejoin:round; stroke-width:4; stroke-opacity:1; fill:none" points="
  1976.69,216.178 2278.07,216.178 2278.07,95.2176 1976.69,95.2176 1976.69,216.178 
  "/>
<polyline clip-path="url(#clip290)" style="stroke:#009af9; stroke-linecap:butt; stroke-linejoin:round; stroke-width:4; stroke-opacity:1; fill:none" points="
  2001.58,155.698 2150.95,155.698 
  "/>
<path clip-path="url(#clip290)" d="M2189.69 175.385 Q2187.89 180.015 2186.17 181.427 Q2184.46 182.839 2181.59 182.839 L2178.19 182.839 L2178.19 179.274 L2180.69 179.274 Q2182.45 179.274 2183.42 178.44 Q2184.39 177.607 2185.57 174.505 L2186.34 172.561 L2175.85 147.052 L2180.36 147.052 L2188.46 167.329 L2196.57 147.052 L2201.08 147.052 L2189.69 175.385 Z" fill="#000000" fill-rule="evenodd" fill-opacity="1" /><path clip-path="url(#clip290)" d="M2208.37 169.042 L2216.01 169.042 L2216.01 142.677 L2207.7 144.343 L2207.7 140.084 L2215.96 138.418 L2220.64 138.418 L2220.64 169.042 L2228.28 169.042 L2228.28 172.978 L2208.37 172.978 L2208.37 169.042 Z" fill="#000000" fill-rule="evenodd" fill-opacity="1" /></svg>
