<?xml version="1.0" encoding="utf-8"?>
<svg xmlns="http://www.w3.org/2000/svg" xmlns:xlink="http://www.w3.org/1999/xlink" width="600" height="400" viewBox="0 0 2400 1600">
<defs>
  <clipPath id="clip050">
    <rect x="0" y="0" width="2400" height="1600"/>
  </clipPath>
</defs>
<path clip-path="url(#clip050)" d="
M0 1600 L2400 1600 L2400 0 L0 0  Z
  " fill="#ffffff" fill-rule="evenodd" fill-opacity="1"/>
<defs>
  <clipPath id="clip051">
    <rect x="480" y="0" width="1681" height="1600"/>
  </clipPath>
</defs>
<path clip-path="url(#clip050)" d="
M138.959 1486.45 L2352.76 1486.45 L2352.76 47.2441 L138.959 47.2441  Z
  " fill="#ffffff" fill-rule="evenodd" fill-opacity="1"/>
<defs>
  <clipPath id="clip052">
    <rect x="138" y="47" width="2215" height="1440"/>
  </clipPath>
</defs>
<polyline clip-path="url(#clip052)" style="stroke:#000000; stroke-linecap:butt; stroke-linejoin:round; stroke-width:2; stroke-opacity:0.1; fill:none" points="
  409.99,1486.45 409.99,47.2441 
  "/>
<polyline clip-path="url(#clip052)" style="stroke:#000000; stroke-linecap:butt; stroke-linejoin:round; stroke-width:2; stroke-opacity:0.1; fill:none" points="
  827.792,1486.45 827.792,47.2441 
  "/>
<polyline clip-path="url(#clip052)" style="stroke:#000000; stroke-linecap:butt; stroke-linejoin:round; stroke-width:2; stroke-opacity:0.1; fill:none" points="
  1245.59,1486.45 1245.59,47.2441 
  "/>
<polyline clip-path="url(#clip052)" style="stroke:#000000; stroke-linecap:butt; stroke-linejoin:round; stroke-width:2; stroke-opacity:0.1; fill:none" points="
  1663.4,1486.45 1663.4,47.2441 
  "/>
<polyline clip-path="url(#clip052)" style="stroke:#000000; stroke-linecap:butt; stroke-linejoin:round; stroke-width:2; stroke-opacity:0.1; fill:none" points="
  2081.2,1486.45 2081.2,47.2441 
  "/>
<polyline clip-path="url(#clip050)" style="stroke:#000000; stroke-linecap:butt; stroke-linejoin:round; stroke-width:4; stroke-opacity:1; fill:none" points="
  138.959,1486.45 2352.76,1486.45 
  "/>
<polyline clip-path="url(#clip050)" style="stroke:#000000; stroke-linecap:butt; stroke-linejoin:round; stroke-width:4; stroke-opacity:1; fill:none" points="
  409.99,1486.45 409.99,1469.18 
  "/>
<polyline clip-path="url(#clip050)" style="stroke:#000000; stroke-linecap:butt; stroke-linejoin:round; stroke-width:4; stroke-opacity:1; fill:none" points="
  827.792,1486.45 827.792,1469.18 
  "/>
<polyline clip-path="url(#clip050)" style="stroke:#000000; stroke-linecap:butt; stroke-linejoin:round; stroke-width:4; stroke-opacity:1; fill:none" points="
  1245.59,1486.45 1245.59,1469.18 
  "/>
<polyline clip-path="url(#clip050)" style="stroke:#000000; stroke-linecap:butt; stroke-linejoin:round; stroke-width:4; stroke-opacity:1; fill:none" points="
  1663.4,1486.45 1663.4,1469.18 
  "/>
<polyline clip-path="url(#clip050)" style="stroke:#000000; stroke-linecap:butt; stroke-linejoin:round; stroke-width:4; stroke-opacity:1; fill:none" points="
  2081.2,1486.45 2081.2,1469.18 
  "/>
<path clip-path="url(#clip050)" d="M410.395 1527.98 Q407.246 1527.98 405.395 1530.13 Q403.566 1532.28 403.566 1536.03 Q403.566 1539.76 405.395 1541.93 Q407.246 1544.09 410.395 1544.09 Q413.543 1544.09 415.371 1541.93 Q417.223 1539.76 417.223 1536.03 Q417.223 1532.28 415.371 1530.13 Q413.543 1527.98 410.395 1527.98 M419.677 1513.32 L419.677 1517.58 Q417.918 1516.75 416.112 1516.31 Q414.33 1515.87 412.571 1515.87 Q407.941 1515.87 405.487 1519 Q403.057 1522.12 402.709 1528.44 Q404.075 1526.43 406.135 1525.36 Q408.196 1524.27 410.672 1524.27 Q415.881 1524.27 418.89 1527.44 Q421.922 1530.59 421.922 1536.03 Q421.922 1541.36 418.774 1544.57 Q415.626 1547.79 410.395 1547.79 Q404.399 1547.79 401.228 1543.21 Q398.057 1538.6 398.057 1529.87 Q398.057 1521.68 401.946 1516.82 Q405.834 1511.93 412.385 1511.93 Q414.145 1511.93 415.927 1512.28 Q417.733 1512.63 419.677 1513.32 Z" fill="#000000" fill-rule="evenodd" fill-opacity="1" /><path clip-path="url(#clip050)" d="M827.792 1530.71 Q824.459 1530.71 822.538 1532.49 Q820.639 1534.27 820.639 1537.4 Q820.639 1540.52 822.538 1542.31 Q824.459 1544.09 827.792 1544.09 Q831.125 1544.09 833.047 1542.31 Q834.968 1540.5 834.968 1537.4 Q834.968 1534.27 833.047 1532.49 Q831.149 1530.71 827.792 1530.71 M823.116 1528.72 Q820.107 1527.98 818.417 1525.92 Q816.751 1523.86 816.751 1520.89 Q816.751 1516.75 819.69 1514.34 Q822.653 1511.93 827.792 1511.93 Q832.954 1511.93 835.894 1514.34 Q838.834 1516.75 838.834 1520.89 Q838.834 1523.86 837.144 1525.92 Q835.477 1527.98 832.491 1528.72 Q835.871 1529.5 837.746 1531.8 Q839.644 1534.09 839.644 1537.4 Q839.644 1542.42 836.565 1545.11 Q833.51 1547.79 827.792 1547.79 Q822.075 1547.79 818.996 1545.11 Q815.94 1542.42 815.94 1537.4 Q815.94 1534.09 817.838 1531.8 Q819.737 1529.5 823.116 1528.72 M821.403 1521.33 Q821.403 1524.02 823.07 1525.52 Q824.76 1527.03 827.792 1527.03 Q830.801 1527.03 832.491 1525.52 Q834.204 1524.02 834.204 1521.33 Q834.204 1518.65 832.491 1517.14 Q830.801 1515.64 827.792 1515.64 Q824.76 1515.64 823.07 1517.14 Q821.403 1518.65 821.403 1521.33 Z" fill="#000000" fill-rule="evenodd" fill-opacity="1" /><path clip-path="url(#clip050)" d="M1220.28 1543.18 L1227.92 1543.18 L1227.92 1516.82 L1219.61 1518.49 L1219.61 1514.23 L1227.87 1512.56 L1232.55 1512.56 L1232.55 1543.18 L1240.19 1543.18 L1240.19 1547.12 L1220.28 1547.12 L1220.28 1543.18 Z" fill="#000000" fill-rule="evenodd" fill-opacity="1" /><path clip-path="url(#clip050)" d="M1259.63 1515.64 Q1256.02 1515.64 1254.19 1519.2 Q1252.39 1522.75 1252.39 1529.87 Q1252.39 1536.98 1254.19 1540.55 Q1256.02 1544.09 1259.63 1544.09 Q1263.27 1544.09 1265.07 1540.55 Q1266.9 1536.98 1266.9 1529.87 Q1266.9 1522.75 1265.07 1519.2 Q1263.27 1515.64 1259.63 1515.64 M1259.63 1511.93 Q1265.44 1511.93 1268.5 1516.54 Q1271.58 1521.12 1271.58 1529.87 Q1271.58 1538.6 1268.5 1543.21 Q1265.44 1547.79 1259.63 1547.79 Q1253.82 1547.79 1250.75 1543.21 Q1247.69 1538.6 1247.69 1529.87 Q1247.69 1521.12 1250.75 1516.54 Q1253.82 1511.93 1259.63 1511.93 Z" fill="#000000" fill-rule="evenodd" fill-opacity="1" /><path clip-path="url(#clip050)" d="M1638.88 1543.18 L1646.52 1543.18 L1646.52 1516.82 L1638.21 1518.49 L1638.21 1514.23 L1646.48 1512.56 L1651.15 1512.56 L1651.15 1543.18 L1658.79 1543.18 L1658.79 1547.12 L1638.88 1547.12 L1638.88 1543.18 Z" fill="#000000" fill-rule="evenodd" fill-opacity="1" /><path clip-path="url(#clip050)" d="M1672.26 1543.18 L1688.58 1543.18 L1688.58 1547.12 L1666.64 1547.12 L1666.64 1543.18 Q1669.3 1540.43 1673.88 1535.8 Q1678.49 1531.15 1679.67 1529.81 Q1681.92 1527.28 1682.8 1525.55 Q1683.7 1523.79 1683.7 1522.1 Q1683.7 1519.34 1681.75 1517.61 Q1679.83 1515.87 1676.73 1515.87 Q1674.53 1515.87 1672.08 1516.63 Q1669.65 1517.4 1666.87 1518.95 L1666.87 1514.23 Q1669.69 1513.09 1672.15 1512.51 Q1674.6 1511.93 1676.64 1511.93 Q1682.01 1511.93 1685.2 1514.62 Q1688.4 1517.31 1688.4 1521.8 Q1688.4 1523.93 1687.59 1525.85 Q1686.8 1527.74 1684.69 1530.34 Q1684.11 1531.01 1681.01 1534.23 Q1677.91 1537.42 1672.26 1543.18 Z" fill="#000000" fill-rule="evenodd" fill-opacity="1" /><path clip-path="url(#clip050)" d="M2055.64 1543.18 L2063.28 1543.18 L2063.28 1516.82 L2054.97 1518.49 L2054.97 1514.23 L2063.24 1512.56 L2067.91 1512.56 L2067.91 1543.18 L2075.55 1543.18 L2075.55 1547.12 L2055.64 1547.12 L2055.64 1543.18 Z" fill="#000000" fill-rule="evenodd" fill-opacity="1" /><path clip-path="url(#clip050)" d="M2097.84 1516.63 L2086.04 1535.08 L2097.84 1535.08 L2097.84 1516.63 M2096.62 1512.56 L2102.5 1512.56 L2102.5 1535.08 L2107.43 1535.08 L2107.43 1538.97 L2102.5 1538.97 L2102.5 1547.12 L2097.84 1547.12 L2097.84 1538.97 L2082.24 1538.97 L2082.24 1534.46 L2096.62 1512.56 Z" fill="#000000" fill-rule="evenodd" fill-opacity="1" /><polyline clip-path="url(#clip052)" style="stroke:#000000; stroke-linecap:butt; stroke-linejoin:round; stroke-width:2; stroke-opacity:0.1; fill:none" points="
  138.959,1310.01 2352.76,1310.01 
  "/>
<polyline clip-path="url(#clip052)" style="stroke:#000000; stroke-linecap:butt; stroke-linejoin:round; stroke-width:2; stroke-opacity:0.1; fill:none" points="
  138.959,1038.43 2352.76,1038.43 
  "/>
<polyline clip-path="url(#clip052)" style="stroke:#000000; stroke-linecap:butt; stroke-linejoin:round; stroke-width:2; stroke-opacity:0.1; fill:none" points="
  138.959,766.846 2352.76,766.846 
  "/>
<polyline clip-path="url(#clip052)" style="stroke:#000000; stroke-linecap:butt; stroke-linejoin:round; stroke-width:2; stroke-opacity:0.1; fill:none" points="
  138.959,495.264 2352.76,495.264 
  "/>
<polyline clip-path="url(#clip052)" style="stroke:#000000; stroke-linecap:butt; stroke-linejoin:round; stroke-width:2; stroke-opacity:0.1; fill:none" points="
  138.959,223.682 2352.76,223.682 
  "/>
<polyline clip-path="url(#clip050)" style="stroke:#000000; stroke-linecap:butt; stroke-linejoin:round; stroke-width:4; stroke-opacity:1; fill:none" points="
  138.959,1486.45 138.959,47.2441 
  "/>
<polyline clip-path="url(#clip050)" style="stroke:#000000; stroke-linecap:butt; stroke-linejoin:round; stroke-width:4; stroke-opacity:1; fill:none" points="
  138.959,1310.01 165.525,1310.01 
  "/>
<polyline clip-path="url(#clip050)" style="stroke:#000000; stroke-linecap:butt; stroke-linejoin:round; stroke-width:4; stroke-opacity:1; fill:none" points="
  138.959,1038.43 165.525,1038.43 
  "/>
<polyline clip-path="url(#clip050)" style="stroke:#000000; stroke-linecap:butt; stroke-linejoin:round; stroke-width:4; stroke-opacity:1; fill:none" points="
  138.959,766.846 165.525,766.846 
  "/>
<polyline clip-path="url(#clip050)" style="stroke:#000000; stroke-linecap:butt; stroke-linejoin:round; stroke-width:4; stroke-opacity:1; fill:none" points="
  138.959,495.264 165.525,495.264 
  "/>
<polyline clip-path="url(#clip050)" style="stroke:#000000; stroke-linecap:butt; stroke-linejoin:round; stroke-width:4; stroke-opacity:1; fill:none" points="
  138.959,223.682 165.525,223.682 
  "/>
<path clip-path="url(#clip050)" d="M93.3762 1296.8 L81.5707 1315.25 L93.3762 1315.25 L93.3762 1296.8 M92.1493 1292.73 L98.0289 1292.73 L98.0289 1315.25 L102.959 1315.25 L102.959 1319.14 L98.0289 1319.14 L98.0289 1327.29 L93.3762 1327.29 L93.3762 1319.14 L77.7744 1319.14 L77.7744 1314.63 L92.1493 1292.73 Z" fill="#000000" fill-rule="evenodd" fill-opacity="1" /><path clip-path="url(#clip050)" d="M91.4317 1036.56 Q88.2836 1036.56 86.4318 1038.72 Q84.6031 1040.87 84.6031 1044.62 Q84.6031 1048.35 86.4318 1050.52 Q88.2836 1052.68 91.4317 1052.68 Q94.5799 1052.68 96.4085 1050.52 Q98.2604 1048.35 98.2604 1044.62 Q98.2604 1040.87 96.4085 1038.72 Q94.5799 1036.56 91.4317 1036.56 M100.714 1021.91 L100.714 1026.17 Q98.9548 1025.34 97.1493 1024.9 Q95.3669 1024.46 93.6076 1024.46 Q88.978 1024.46 86.5243 1027.58 Q84.0938 1030.71 83.7466 1037.03 Q85.1123 1035.01 87.1725 1033.95 Q89.2327 1032.86 91.7095 1032.86 Q96.9178 1032.86 99.927 1036.03 Q102.959 1039.18 102.959 1044.62 Q102.959 1049.94 99.8113 1053.16 Q96.6632 1056.38 91.4317 1056.38 Q85.4364 1056.38 82.2651 1051.8 Q79.0938 1047.19 79.0938 1038.46 Q79.0938 1030.27 82.9827 1025.41 Q86.8716 1020.52 93.4225 1020.52 Q95.1817 1020.52 96.9641 1020.87 Q98.7696 1021.22 100.714 1021.91 Z" fill="#000000" fill-rule="evenodd" fill-opacity="1" /><path clip-path="url(#clip050)" d="M91.1077 767.714 Q87.7743 767.714 85.8531 769.496 Q83.9549 771.279 83.9549 774.404 Q83.9549 777.529 85.8531 779.311 Q87.7743 781.094 91.1077 781.094 Q94.441 781.094 96.3623 779.311 Q98.2835 777.506 98.2835 774.404 Q98.2835 771.279 96.3623 769.496 Q94.4641 767.714 91.1077 767.714 M86.4318 765.723 Q83.4225 764.983 81.7327 762.922 Q80.066 760.862 80.066 757.899 Q80.066 753.756 83.0058 751.348 Q85.9688 748.941 91.1077 748.941 Q96.2697 748.941 99.2095 751.348 Q102.149 753.756 102.149 757.899 Q102.149 760.862 100.459 762.922 Q98.7928 764.983 95.8067 765.723 Q99.1863 766.51 101.061 768.802 Q102.959 771.094 102.959 774.404 Q102.959 779.427 99.8808 782.112 Q96.8252 784.797 91.1077 784.797 Q85.3901 784.797 82.3114 782.112 Q79.2559 779.427 79.2559 774.404 Q79.2559 771.094 81.154 768.802 Q83.0521 766.51 86.4318 765.723 M84.7188 758.339 Q84.7188 761.024 86.3855 762.529 Q88.0753 764.033 91.1077 764.033 Q94.1169 764.033 95.8067 762.529 Q97.5197 761.024 97.5197 758.339 Q97.5197 755.654 95.8067 754.149 Q94.1169 752.645 91.1077 752.645 Q88.0753 752.645 86.3855 754.149 Q84.7188 755.654 84.7188 758.339 Z" fill="#000000" fill-rule="evenodd" fill-opacity="1" /><path clip-path="url(#clip050)" d="M51.6634 508.609 L59.3023 508.609 L59.3023 482.243 L50.9921 483.91 L50.9921 479.651 L59.256 477.984 L63.9319 477.984 L63.9319 508.609 L71.5707 508.609 L71.5707 512.544 L51.6634 512.544 L51.6634 508.609 Z" fill="#000000" fill-rule="evenodd" fill-opacity="1" /><path clip-path="url(#clip050)" d="M91.0151 481.063 Q87.404 481.063 85.5753 484.627 Q83.7697 488.169 83.7697 495.299 Q83.7697 502.405 85.5753 505.97 Q87.404 509.512 91.0151 509.512 Q94.6493 509.512 96.4548 505.97 Q98.2835 502.405 98.2835 495.299 Q98.2835 488.169 96.4548 484.627 Q94.6493 481.063 91.0151 481.063 M91.0151 477.359 Q96.8252 477.359 99.8808 481.965 Q102.959 486.549 102.959 495.299 Q102.959 504.025 99.8808 508.632 Q96.8252 513.215 91.0151 513.215 Q85.2049 513.215 82.1262 508.632 Q79.0707 504.025 79.0707 495.299 Q79.0707 486.549 82.1262 481.965 Q85.2049 477.359 91.0151 477.359 Z" fill="#000000" fill-rule="evenodd" fill-opacity="1" /><path clip-path="url(#clip050)" d="M53.2606 237.027 L60.8995 237.027 L60.8995 210.661 L52.5893 212.328 L52.5893 208.069 L60.8532 206.402 L65.5291 206.402 L65.5291 237.027 L73.1679 237.027 L73.1679 240.962 L53.2606 240.962 L53.2606 237.027 Z" fill="#000000" fill-rule="evenodd" fill-opacity="1" /><path clip-path="url(#clip050)" d="M86.6401 237.027 L102.959 237.027 L102.959 240.962 L81.0151 240.962 L81.0151 237.027 Q83.6771 234.272 88.2604 229.642 Q92.8669 224.99 94.0475 223.647 Q96.2928 221.124 97.1724 219.388 Q98.0752 217.629 98.0752 215.939 Q98.0752 213.184 96.1308 211.448 Q94.2095 209.712 91.1077 209.712 Q88.9086 209.712 86.4549 210.476 Q84.0244 211.24 81.2466 212.791 L81.2466 208.069 Q84.0707 206.934 86.5243 206.356 Q88.978 205.777 91.0151 205.777 Q96.3854 205.777 99.5798 208.462 Q102.774 211.147 102.774 215.638 Q102.774 217.768 101.964 219.689 Q101.177 221.587 99.0706 224.18 Q98.4919 224.851 95.39 228.068 Q92.2882 231.263 86.6401 237.027 Z" fill="#000000" fill-rule="evenodd" fill-opacity="1" /><polyline clip-path="url(#clip052)" style="stroke:#009af9; stroke-linecap:butt; stroke-linejoin:round; stroke-width:4; stroke-opacity:1; fill:none" points="
  2290.1,766.846 2288,723.784 2281.7,680.895 2271.23,638.353 2256.62,596.328 2237.95,554.989 2215.28,514.504 2188.71,475.035 2158.34,436.74 2124.29,399.775 
  2086.7,364.288 2045.73,330.422 2001.54,298.313 1954.3,268.091 1904.21,239.877 1851.47,213.785 1796.29,189.921 1738.88,168.379 1679.5,149.247 1618.36,132.601 
  1555.73,118.51 1491.85,107.029 1426.97,98.2057 1361.37,92.0742 1295.29,88.6598 1229.02,87.9763 1162.82,90.0263 1096.95,94.8016 1031.67,102.283 967.261,112.44 
  903.97,125.233 842.055,140.609 781.764,158.506 723.341,178.854 667.022,201.568 613.031,226.559 561.588,253.726 512.9,282.959 467.161,314.14 424.557,347.144 
  385.259,381.838 349.425,418.082 317.2,455.731 288.713,494.632 264.08,534.63 243.398,575.562 226.752,617.265 214.208,659.57 205.818,702.307 201.614,745.304 
  201.614,788.388 205.818,831.385 214.208,874.122 226.752,916.427 243.398,958.13 264.08,999.062 288.713,1039.06 317.2,1077.96 349.425,1115.61 385.259,1151.85 
  424.557,1186.55 467.161,1219.55 512.9,1250.73 561.588,1279.97 613.031,1307.13 667.022,1332.12 723.341,1354.84 781.764,1375.19 842.055,1393.08 903.97,1408.46 
  967.261,1421.25 1031.67,1431.41 1096.95,1438.89 1162.82,1443.67 1229.02,1445.72 1295.29,1445.03 1361.37,1441.62 1426.97,1435.49 1491.85,1426.66 1555.73,1415.18 
  1618.36,1401.09 1679.5,1384.45 1738.88,1365.31 1796.29,1343.77 1851.47,1319.91 1904.21,1293.81 1954.3,1265.6 2001.54,1235.38 2045.73,1203.27 2086.7,1169.4 
  2124.29,1133.92 2158.34,1096.95 2188.71,1058.66 2215.28,1019.19 2237.95,978.703 2256.62,937.364 2271.23,895.339 2281.7,852.797 2288,809.908 2290.1,766.846 
  
  "/>
<path clip-path="url(#clip050)" d="
M1980.56 216.178 L2278.96 216.178 L2278.96 95.2176 L1980.56 95.2176  Z
  " fill="#ffffff" fill-rule="evenodd" fill-opacity="1"/>
<polyline clip-path="url(#clip050)" style="stroke:#000000; stroke-linecap:butt; stroke-linejoin:round; stroke-width:4; stroke-opacity:1; fill:none" points="
  1980.56,216.178 2278.96,216.178 2278.96,95.2176 1980.56,95.2176 1980.56,216.178 
  "/>
<polyline clip-path="url(#clip050)" style="stroke:#009af9; stroke-linecap:butt; stroke-linejoin:round; stroke-width:4; stroke-opacity:1; fill:none" points="
  2005.15,155.698 2152.74,155.698 
  "/>
<path clip-path="url(#clip050)" d="M2191.18 175.385 Q2189.37 180.015 2187.66 181.427 Q2185.95 182.839 2183.08 182.839 L2179.67 182.839 L2179.67 179.274 L2182.17 179.274 Q2183.93 179.274 2184.91 178.44 Q2185.88 177.607 2187.06 174.505 L2187.82 172.561 L2177.34 147.052 L2181.85 147.052 L2189.95 167.329 L2198.05 147.052 L2202.57 147.052 L2191.18 175.385 Z" fill="#000000" fill-rule="evenodd" fill-opacity="1" /><path clip-path="url(#clip050)" d="M2209.86 169.042 L2217.5 169.042 L2217.5 142.677 L2209.19 144.343 L2209.19 140.084 L2217.45 138.418 L2222.13 138.418 L2222.13 169.042 L2229.77 169.042 L2229.77 172.978 L2209.86 172.978 L2209.86 169.042 Z" fill="#000000" fill-rule="evenodd" fill-opacity="1" /></svg>
