<?xml version="1.0" standalone="no"?>
<!DOCTYPE svg PUBLIC "-//W3C//DTD SVG 1.1//EN"
    "http://www.w3.org/Graphics/SVG/1.1/DTD/svg11.dtd">
<svg width="100%" height="100%" viewBox="0 0 478 432"
    version="1.1" xmlns="http://www.w3.org/2000/svg">
    <g transform="scale(1, 1)">
        
        <!-- ** Arc *************** -->
        
        <g>
            <path
                d="
                    M292.00 42.00
                    C292.00 85.00 355.50 128.00 419.00 128.00
                    "
                transform="
                    translate(0.5 0.5)
                    "
                fill="none"
                stroke-width="2.00"
                stroke-linecap="round"
                stroke-linejoin="round"
                stroke="rgb(0, 0, 255)"
                />
            
        </g>
        
        
        <!-- ** Smart Path *************** -->
        
        <g>
            <path
                d="
                    M10.00 63.00
                    C10.00 63.00 4.15 76.67 10.00 102.00
                    C15.85 127.33 25.33 178.13 42.00 207.00
                    C58.67 235.87 94.84 277.13 120.00 299.00
                    C145.16 320.87 211.04 371.39 241.00 386.00
                    C270.96 400.61 375.00 424.00 375.00 424.00
                    "
                transform="
                    translate(0.5 0.5)
                    "
                fill="none"
                stroke-width="2.00"
                stroke-linecap="round"
                stroke-linejoin="round"
                stroke="rgb(0, 0, 255)"
                />
            
        </g>
        
        
        <!-- ** Smart Path *************** -->
        
        <g>
            <path
                d="
                    M10.00 76.00
                    C10.00 76.00 66.73 136.34 95.00 154.00
                    C123.27 171.66 178.69 202.84 212.00 204.00
                    C245.31 205.16 245.87 190.70 261.00 161.00
                    C276.13 131.30 292.00 49.00 292.00 49.00
                    "
                transform="
                    translate(0.5 0.5)
                    "
                fill="none"
                stroke-width="2.00"
                stroke-linecap="round"
                stroke-linejoin="round"
                stroke="rgb(0, 0, 255)"
                />
            
        </g>
        
        
        <!-- ** Smart Path *************** -->
        
        <g>
            <path
                d="
                    M32.00 181.00
                    C32.00 181.00 86.04 227.39 116.00 242.00
                    C145.96 256.61 199.67 283.58 233.00 283.00
                    C266.33 282.42 267.39 269.96 282.00 240.00
                    C296.61 210.04 325.00 99.00 325.00 99.00
                    "
                transform="
                    translate(0.5 0.5)
                    "
                fill="none"
                stroke-width="2.00"
                stroke-linecap="round"
                stroke-linejoin="round"
                stroke="rgb(0, 0, 255)"
                />
            
        </g>
        
        
        <!-- ** Smart Path *************** -->
        
        <g>
            <path
                d="
                    M187.00 351.00
                    C187.00 351.00 250.12 368.75 282.00 359.00
                    C313.88 349.25 321.05 338.12 333.00 307.00
                    C344.95 275.88 375.00 121.00 375.00 121.00
                    "
                transform="
                    translate(0.5 0.5)
                    "
                fill="none"
                stroke-width="2.00"
                stroke-linecap="round"
                stroke-linejoin="round"
                stroke="rgb(0, 0, 255)"
                />
            
        </g>
        
        
        <!-- ** Smart Path *************** -->
        
        <g>
            <path
                d="
                    M325.00 411.00
                    C325.00 411.00 365.48 411.27 386.00 385.00
                    C406.52 358.73 405.67 339.25 408.00 306.00
                    C410.33 272.75 407.00 128.00 407.00 128.00
                    "
                transform="
                    translate(0.5 0.5)
                    "
                fill="none"
                stroke-width="2.00"
                stroke-linecap="round"
                stroke-linejoin="round"
                stroke="rgb(0, 0, 255)"
                />
            
        </g>
        
        
        <!-- ** Line *************** -->
        
        <g>
            <defs>
                <clipPath id="clipPath-07DF0BE6-2D00-4CBA-8FB0-9DFF8D775F21">
                    <path d="
                        M-10000,-10000 h100000 v100000 h-100000 v-100000
                        M269.54 205.49
                        L269.13 200.51
                        L291.05 198.69
                        L291.88 208.66
                        L269.95 210.47
                        Z
                        "
                    clip-rule="evenodd"/>
                </clipPath>
            </defs>
            
            <path
                d="
                    M124.00 217.00
                    L281.00 204.00
                    "
                clip-path="url(#clipPath-07DF0BE6-2D00-4CBA-8FB0-9DFF8D775F21)"
                transform="
                    translate(0.5 0.5)
                    "
                fill="none"
                stroke-width="2.00"
                stroke-linecap="round"
                stroke-linejoin="round"
                stroke="rgb(255, 0, 0)"
                />
            
            
            <path
                d="
                    M270.12 205.44
                    L269.76 201.04
                    L280.50 204.58
                    L270.49 209.84
                    Z
                    "
                fill="rgb(255, 0, 0)"
                stroke-width="1.41"
                stroke-linecap="butt"
                stroke-linejoin="miter"
                stroke="rgb(255, 0, 0)"
                />
        </g>
        
        
        <!-- ** Line *************** -->
        
        <g>
            <defs>
                <clipPath id="clipPath-B399572C-7ADE-4498-821F-665A53FE9965">
                    <path d="
                        M-10000,-10000 h100000 v100000 h-100000 v-100000
                        M154.19 231.78
                        L155.32 236.65
                        L133.89 241.64
                        L131.63 231.90
                        L153.06 226.91
                        Z
                        "
                    clip-rule="evenodd"/>
                </clipPath>
            </defs>
            
            <path
                d="
                    M271.00 204.00
                    L142.00 234.00
                    "
                clip-path="url(#clipPath-B399572C-7ADE-4498-821F-665A53FE9965)"
                transform="
                    translate(0.5 0.5)
                    "
                fill="none"
                stroke-width="2.00"
                stroke-linecap="round"
                stroke-linejoin="round"
                stroke="rgb(255, 0, 0)"
                />
            
            
            <path
                d="
                    M153.62 231.91
                    L154.62 236.21
                    L143.47 234.27
                    L152.62 227.62
                    Z
                    "
                fill="rgb(255, 0, 0)"
                stroke-width="1.41"
                stroke-linecap="butt"
                stroke-linejoin="miter"
                stroke="rgb(255, 0, 0)"
                />
        </g>
        
        
        <!-- ** Line *************** -->
        
        <g>
            <defs>
                <clipPath id="clipPath-381B8BB0-94F2-468C-8960-0B3C2A09CA9A">
                    <path d="
                        M-10000,-10000 h100000 v100000 h-100000 v-100000
                        M280.56 220.69
                        L280.06 215.71
                        L301.96 213.54
                        L302.95 223.49
                        L281.05 225.66
                        Z
                        "
                    clip-rule="evenodd"/>
                </clipPath>
            </defs>
            
            <path
                d="
                    M151.00 233.00
                    L292.00 219.00
                    "
                clip-path="url(#clipPath-381B8BB0-94F2-468C-8960-0B3C2A09CA9A)"
                transform="
                    translate(0.5 0.5)
                    "
                fill="none"
                stroke-width="2.00"
                stroke-linecap="round"
                stroke-linejoin="round"
                stroke="rgb(255, 0, 0)"
                />
            
            
            <path
                d="
                    M281.14 220.63
                    L280.71 216.24
                    L291.50 219.60
                    L281.58 225.02
                    Z
                    "
                fill="rgb(255, 0, 0)"
                stroke-width="1.41"
                stroke-linecap="butt"
                stroke-linejoin="miter"
                stroke="rgb(255, 0, 0)"
                />
        </g>
        
        
        <!-- ** Line *************** -->
        
        <g>
            <defs>
                <clipPath id="clipPath-3B580A0B-414F-42C0-985A-0BEABA37E5A4">
                    <path d="
                        M-10000,-10000 h100000 v100000 h-100000 v-100000
                        M168.19 249.79
                        L169.32 254.66
                        L147.89 259.63
                        L145.63 249.89
                        L167.06 244.92
                        Z
                        "
                    clip-rule="evenodd"/>
                </clipPath>
            </defs>
            
            <path
                d="
                    M281.00 223.00
                    L156.00 252.00
                    "
                clip-path="url(#clipPath-3B580A0B-414F-42C0-985A-0BEABA37E5A4)"
                transform="
                    translate(0.5 0.5)
                    "
                fill="none"
                stroke-width="2.00"
                stroke-linecap="round"
                stroke-linejoin="round"
                stroke="rgb(255, 0, 0)"
                />
            
            
            <path
                d="
                    M167.62 249.92
                    L168.62 254.22
                    L157.47 252.27
                    L166.62 245.62
                    Z
                    "
                fill="rgb(255, 0, 0)"
                stroke-width="1.41"
                stroke-linecap="butt"
                stroke-linejoin="miter"
                stroke="rgb(255, 0, 0)"
                />
        </g>
        
        
        <!-- ** Line *************** -->
        
        <g>
            <defs>
                <clipPath id="clipPath-E4BFDE81-63D1-42E3-A408-797239567C05">
                    <path d="
                        M-10000,-10000 h100000 v100000 h-100000 v-100000
                        M289.52 245.20
                        L289.23 240.21
                        L311.19 238.92
                        L311.78 248.90
                        L289.81 250.20
                        Z
                        "
                    clip-rule="evenodd"/>
                </clipPath>
            </defs>
            
            <path
                d="
                    M165.00 252.00
                    L301.00 244.00
                    "
                clip-path="url(#clipPath-E4BFDE81-63D1-42E3-A408-797239567C05)"
                transform="
                    translate(0.5 0.5)
                    "
                fill="none"
                stroke-width="2.00"
                stroke-linecap="round"
                stroke-linejoin="round"
                stroke="rgb(255, 0, 0)"
                />
            
            
            <path
                d="
                    M290.11 245.17
                    L289.85 240.76
                    L300.50 244.56
                    L290.36 249.58
                    Z
                    "
                fill="rgb(255, 0, 0)"
                stroke-width="1.41"
                stroke-linecap="butt"
                stroke-linejoin="miter"
                stroke="rgb(255, 0, 0)"
                />
        </g>
        
        
        <!-- ** Line *************** -->
        
        <g>
            <defs>
                <clipPath id="clipPath-A96648B7-428B-4661-904B-28E433760B67">
                    <path d="
                        M-10000,-10000 h100000 v100000 h-100000 v-100000
                        M194.77 283.39
                        L196.49 288.09
                        L175.82 295.62
                        L172.39 286.23
                        L193.06 278.69
                        Z
                        "
                    clip-rule="evenodd"/>
                </clipPath>
            </defs>
            
            <path
                d="
                    M301.00 244.00
                    L183.00 287.00
                    "
                clip-path="url(#clipPath-A96648B7-428B-4661-904B-28E433760B67)"
                transform="
                    translate(0.5 0.5)
                    "
                fill="none"
                stroke-width="2.00"
                stroke-linecap="round"
                stroke-linejoin="round"
                stroke="rgb(255, 0, 0)"
                />
            
            
            <path
                d="
                    M194.22 283.59
                    L195.74 287.74
                    L184.44 287.16
                    L192.71 279.44
                    Z
                    "
                fill="rgb(255, 0, 0)"
                stroke-width="1.41"
                stroke-linecap="butt"
                stroke-linejoin="miter"
                stroke="rgb(255, 0, 0)"
                />
        </g>
        
        
        <!-- ** Line *************** -->
        
        <g>
            <defs>
                <clipPath id="clipPath-0A867585-0A2C-49EC-9C33-55688FCF7343">
                    <path d="
                        M-10000,-10000 h100000 v100000 h-100000 v-100000
                        M307.66 268.44
                        L306.85 263.51
                        L328.56 259.95
                        L330.18 269.82
                        L308.47 273.38
                        Z
                        "
                    clip-rule="evenodd"/>
                </clipPath>
            </defs>
            
            <path
                d="
                    M191.00 287.00
                    L319.00 266.00
                    "
                clip-path="url(#clipPath-0A867585-0A2C-49EC-9C33-55688FCF7343)"
                transform="
                    translate(0.5 0.5)
                    "
                fill="none"
                stroke-width="2.00"
                stroke-linecap="round"
                stroke-linejoin="round"
                stroke="rgb(255, 0, 0)"
                />
            
            
            <path
                d="
                    M308.24 268.35
                    L307.52 263.99
                    L318.51 266.66
                    L308.95 272.70
                    Z
                    "
                fill="rgb(255, 0, 0)"
                stroke-width="1.41"
                stroke-linecap="butt"
                stroke-linejoin="miter"
                stroke="rgb(255, 0, 0)"
                />
        </g>
        
        
        <!-- ** Line *************** -->
        
        <g>
            <defs>
                <clipPath id="clipPath-86B15B54-96ED-49C2-92C2-6AE03A821375">
                    <path d="
                        M-10000,-10000 h100000 v100000 h-100000 v-100000
                        M229.84 319.40
                        L232.38 323.71
                        L213.43 334.89
                        L208.35 326.28
                        L227.29 315.10
                        Z
                        "
                    clip-rule="evenodd"/>
                </clipPath>
            </defs>
            
            <path
                d="
                    M319.00 266.00
                    L219.00 325.00
                    "
                clip-path="url(#clipPath-86B15B54-96ED-49C2-92C2-6AE03A821375)"
                transform="
                    translate(0.5 0.5)
                    "
                fill="none"
                stroke-width="2.00"
                stroke-linecap="round"
                stroke-linejoin="round"
                stroke="rgb(255, 0, 0)"
                />
            
            
            <path
                d="
                    M229.33 319.70
                    L231.57 323.50
                    L220.36 324.99
                    L227.09 315.90
                    Z
                    "
                fill="rgb(255, 0, 0)"
                stroke-width="1.41"
                stroke-linecap="butt"
                stroke-linejoin="miter"
                stroke="rgb(255, 0, 0)"
                />
        </g>
        
        
        <!-- ** Line *************** -->
        
        <g>
            <defs>
                <clipPath id="clipPath-6CFDB134-3E47-4F65-A294-3A71C5069ED1">
                    <path d="
                        M-10000,-10000 h100000 v100000 h-100000 v-100000
                        M319.99 295.89
                        L318.58 291.10
                        L339.68 284.88
                        L342.51 294.47
                        L321.40 300.69
                        Z
                        "
                    clip-rule="evenodd"/>
                </clipPath>
            </defs>
            
            <path
                d="
                    M219.00 325.00
                    L331.00 292.00
                    "
                clip-path="url(#clipPath-6CFDB134-3E47-4F65-A294-3A71C5069ED1)"
                transform="
                    translate(0.5 0.5)
                    "
                fill="none"
                stroke-width="2.00"
                stroke-linecap="round"
                stroke-linejoin="round"
                stroke="rgb(255, 0, 0)"
                />
            
            
            <path
                d="
                    M320.55 295.73
                    L319.30 291.49
                    L330.54 292.78
                    L321.80 299.96
                    Z
                    "
                fill="rgb(255, 0, 0)"
                stroke-width="1.41"
                stroke-linecap="butt"
                stroke-linejoin="miter"
                stroke="rgb(255, 0, 0)"
                />
        </g>
        
        
        <!-- ** Smart Path *************** -->
        
        <g>
            <defs>
                <clipPath id="clipPath-6195EA8C-3E95-4619-8AA7-F62B0E690D4D">
                    <path d="
                        M-10000,-10000 h100000 v100000 h-100000 v-100000
                        M408.37 384.05
                        L409.60 379.21
                        L430.92 384.61
                        L428.47 394.30
                        L407.14 388.90
                        Z
                        "
                    clip-rule="evenodd"/>
                </clipPath>
            </defs>
            
            <path
                d="
                    M219.00 204.00
                    C219.00 204.00 236.85 255.04 255.00 283.00
                    C273.15 310.96 280.73 330.34 309.00 348.00
                    C337.27 365.66 419.00 386.00 419.00 386.00
                    "
                clip-path="url(#clipPath-6195EA8C-3E95-4619-8AA7-F62B0E690D4D)"
                transform="
                    translate(0.5 0.5)
                    "
                fill="none"
                stroke-width="2.00"
                stroke-linecap="round"
                stroke-linejoin="round"
                stroke="rgb(0, 255, 0)"
                />
            
            
            <path
                d="
                    M408.94 384.20
                    L410.02 379.92
                    L419.03 386.75
                    L407.85 388.48
                    Z
                    "
                fill="rgb(0, 255, 0)"
                stroke-width="1.41"
                stroke-linecap="butt"
                stroke-linejoin="miter"
                stroke="rgb(0, 255, 0)"
                />
        </g>
        
        
        <!-- ** Ellipse *************** -->
        
        <g>
            <ellipse cx="383.11" cy="67.00" rx="87.11" ry="48.95"
                transform="
                    rotate(22 383.11 67.00)
                    "
                fill="rgb(255, 0, 255)"
                />
            
        </g>
        
        
        <!-- ** Text *************** -->
        
        <g>
            <path
                d="
                    M355.00 55.00
                    L414.00 55.00
                    L414.00 72.00
                    L355.00 72.00
                    Z
                    "
                fill="none"
                />
            
            
            <text x="355.10" y="68.00"
            >
                <tspan style="font-family:LucidaGrande; font-size:14px; font-style:normal; font-weight:normal;" fill="rgb(0, 0, 0)">Obstacle</tspan>
            </text>
        </g>
        
        
        <!-- ** Text *************** -->
        
        <g>
            <path
                d="
                    M393.00 390.00
                    L463.00 390.00
                    L463.00 407.00
                    L393.00 407.00
                    Z
                    "
                fill="none"
                />
            
            
            <text x="395.45" y="403.00"
            >
                <tspan style="font-family:LucidaGrande; font-size:13px; font-style:normal; font-weight:normal;" fill="rgb(0, 0, 0)">Mean Path</tspan>
            </text>
        </g>
        
        
        <!-- ** Text *************** -->
        
        <g>
            <path
                d="
                    M88.00 196.00
                    L164.00 196.00
                    L164.00 213.00
                    L88.00 213.00
                    Z
                    "
                fill="none"
                />
            
            
            <text x="90.55" y="209.00"
            >
                <tspan style="font-family:LucidaGrande; font-size:13px; font-style:normal; font-weight:normal;" fill="rgb(0, 0, 0)">Actual Path</tspan>
            </text>
        </g>
        
    </g>
</svg>

