<?xml version="1.0" encoding="UTF-8" standalone="no"?>
<!-- Created with Inkscape (http://www.inkscape.org/) -->

<svg
   xmlns:dc="http://purl.org/dc/elements/1.1/"
   xmlns:cc="http://creativecommons.org/ns#"
   xmlns:rdf="http://www.w3.org/1999/02/22-rdf-syntax-ns#"
   xmlns:svg="http://www.w3.org/2000/svg"
   xmlns="http://www.w3.org/2000/svg"
   xmlns:sodipodi="http://sodipodi.sourceforge.net/DTD/sodipodi-0.dtd"
   xmlns:inkscape="http://www.inkscape.org/namespaces/inkscape"
   id="svg2"
   version="1.1"
   inkscape:version="0.91 r13725"
   xml:space="preserve"
   width="227.5"
   height="217.5"
   viewBox="0 0 227.5 217.5"
   sodipodi:docname="curvature.svg"><metadata
     id="metadata8"><rdf:RDF><cc:Work
         rdf:about=""><dc:format>image/svg+xml</dc:format><dc:type
           rdf:resource="http://purl.org/dc/dcmitype/StillImage" /><dc:title></dc:title></cc:Work></rdf:RDF></metadata><defs
     id="defs6" /><sodipodi:namedview
     pagecolor="#ffffff"
     bordercolor="#666666"
     borderopacity="1"
     objecttolerance="10"
     gridtolerance="10"
     guidetolerance="10"
     inkscape:pageopacity="0"
     inkscape:pageshadow="2"
     inkscape:window-width="640"
     inkscape:window-height="480"
     id="namedview4"
     showgrid="false"
     inkscape:zoom="1.0850575"
     inkscape:cx="113.75"
     inkscape:cy="108.75"
     inkscape:window-x="132"
     inkscape:window-y="46"
     inkscape:window-maximized="0"
     inkscape:current-layer="g10" /><g
     id="g10"
     inkscape:groupmode="layer"
     inkscape:label="curvature"
     transform="matrix(1.25,0,0,-1.25,0,217.5)"><g
       id="g12"
       transform="scale(0.1,0.1)"><path
         d="M 14.2852,271.414 1800.08,285.586"
         style="fill:none;stroke:#000000;stroke-width:28.34600067;stroke-linecap:butt;stroke-linejoin:miter;stroke-miterlimit:10;stroke-dasharray:none;stroke-opacity:1"
         id="path14"
         inkscape:connector-curvature="0" /><path
         d="M 42.6328,285.586 1204.82,1164.31"
         style="fill:none;stroke:#000000;stroke-width:28.34600067;stroke-linecap:butt;stroke-linejoin:miter;stroke-miterlimit:10;stroke-dasharray:none;stroke-opacity:1"
         id="path16"
         inkscape:connector-curvature="0" /><path
         d="m 1204.82,1135.96 0,-878.722"
         style="fill:none;stroke:#000000;stroke-width:28.34600067;stroke-linecap:butt;stroke-linejoin:miter;stroke-miterlimit:10;stroke-dasharray:none;stroke-opacity:1"
         id="path18"
         inkscape:connector-curvature="0" /><path
         d="m 56.8047,1717.06 c 1.3008,0 2.6133,0 3.9141,0 788.4222,0 1427.5612,-639.14 1427.5612,-1427.56 0,-1.301 0,-2.613 0,-3.914"
         style="fill:none;stroke:#000000;stroke-width:28.34600067;stroke-linecap:butt;stroke-linejoin:miter;stroke-miterlimit:10;stroke-dasharray:none;stroke-opacity:1"
         id="path20"
         inkscape:connector-curvature="0" /><path
         d="m 462.812,766.816 -30.066,-5.281 0,-5.242 7.406,-0.953 c 5.098,-0.809 6.27,-1.762 6.27,-8.762 l 0,-62.152 c 0,-10.082 -0.988,-10.485 -14.668,-10.485 l 0,-5.683 51.996,0 0,5.683 c -17.383,0 -18.555,0.403 -18.555,10.485 l 0,46.238 c 0,14.738 6.637,19.727 11.145,19.727 3.117,0 6.453,-1.028 12.101,-3.813 1.395,-0.699 2.934,-0.883 3.922,-0.883 4.696,0 8.985,4.84 8.985,10.817 0,4.621 -2.75,10.304 -10.375,10.304 -7.043,0 -12.871,-4.621 -25.778,-16.757 l -2.383,16.757"
         style="fill:#000000;fill-opacity:1;fill-rule:nonzero;stroke:none"
         id="path22"
         inkscape:connector-curvature="0" /><path
         d="m 963.719,512.355 0,5.684 c -13.899,0 -14.668,0.402 -14.668,10.449 l 0,128.184 -1.395,1.176 -30.468,-4.914 0,-4.914 7.113,-0.77 c 4.84,-0.625 5.976,-1.578 5.976,-9.059 l 0,-32.191 c -5.281,2.934 -12.211,4.691 -20.863,4.691 -15.984,0 -27.902,-5.023 -36.078,-13.343 -8.398,-8.727 -13.457,-21.489 -13.457,-38.317 0,-29.371 15.105,-49.023 41.031,-49.023 10.227,0 19.137,5.097 29.367,14.445 l 0,-10.742 1.395,-1.356 32.047,0 m -33.442,34.137 c 0,-4.254 0,-7.554 -1.136,-10.82 -3.778,-10.082 -12.137,-13.93 -22,-13.93 -17.414,0 -26.141,17.379 -26.141,39.598 0,25.117 8.91,42.531 28.23,42.531 8.911,0 16.133,-4.25 19.543,-12.172 1.504,-3.261 1.504,-5.976 1.504,-11.219 l 0,-33.988"
         style="fill:#000000;fill-opacity:1;fill-rule:nonzero;stroke:none"
         id="path24"
         inkscape:connector-curvature="0" /><path
         d="m 1001.86,510.008 41.03,140.797 -13.09,0 -41.034,-140.797 13.094,0"
         style="fill:#000000;fill-opacity:1;fill-rule:nonzero;stroke:none"
         id="path26"
         inkscape:connector-curvature="0" /><path
         d="m 1156.63,537.984 -5.46,0.954 c -4.22,-10.379 -8.25,-11.735 -16.32,-11.735 l -50.12,0 c 3.15,10.012 14.77,23.688 33.11,36.559 18.92,13.492 33.51,22.144 33.51,43.703 0,28.566 -18.26,38.43 -39.08,38.43 -26.77,0 -40.63,-16.977 -40.63,-27.614 0,-7.074 7.41,-10.41 10.74,-10.41 3.52,0 4.88,2.09 5.69,5.609 3.11,14.153 10.74,25.594 22.84,25.594 15.03,0 19.32,-13.531 19.32,-28.711 0,-20.679 -10.56,-32.265 -27.53,-47.152 -24.06,-20.68 -32.45,-33.844 -36.16,-48.914 l 1.94,-1.942 81.48,0 6.67,25.629"
         style="fill:#000000;fill-opacity:1;fill-rule:nonzero;stroke:none"
         id="path28"
         inkscape:connector-curvature="0" /><path
         d="m 476.648,127.238 c 0,7.43 -0.55,14.141 -1.648,20.129 -1.078,6.012 -2.824,11.379 -5.246,16.098 -2.418,4.594 -5.094,8.59 -8.027,11.988 -2.911,3.399 -5.93,6.184 -9.059,8.359 -3.129,2.176 -6.258,3.79 -9.387,4.84 -3.101,1.051 -6,1.578 -8.687,1.578 -3.449,0 -6.86,-0.648 -10.231,-1.945 -3.375,-1.293 -6.59,-3.129 -9.644,-5.5 -3.055,-2.344 -5.891,-5.105 -8.508,-8.285 -2.613,-3.152 -4.875,-6.648 -6.781,-10.488 -2.422,-4.692 -4.242,-9.899 -5.465,-15.617 -1.195,-5.696 -1.797,-12.75 -1.797,-21.157 0,-10.047 0.699,-18.761 2.09,-26.144 1.418,-7.3557 3.461,-13.6409 6.125,-18.8479 3.836,-7.4297 8.836,-13.1992 14.996,-17.3047 6.183,-4.082 12.59,-6.125 19.215,-6.125 3.691,0 7.222,0.6484 10.594,1.9453 3.398,1.2969 6.589,3.0313 9.57,5.2071 3.008,2.1757 5.683,4.6796 8.031,7.5156 2.371,2.8594 4.313,5.8437 5.828,8.9453 2.422,4.6953 4.363,10.793 5.832,18.2973 1.465,7.503 2.199,16.343 2.199,26.511 m -18.773,-0.367 -46.934,0 1.176,18.774 c 0.121,1.562 0.379,3.445 0.77,5.644 0.39,2.227 0.867,4.473 1.429,6.746 0.586,2.301 1.27,4.547 2.055,6.75 0.781,2.223 1.625,4.25 2.527,6.086 1.809,3.52 4.29,6.453 7.446,8.801 3.176,2.344 5.804,3.519 7.883,3.519 2.711,0 5.621,-1.273 8.726,-3.816 3.106,-2.539 5.621,-5.766 7.551,-9.68 0.785,-1.441 1.492,-3.199 2.129,-5.277 0.66,-2.078 1.269,-4.23 1.832,-6.453 0.586,-2.227 1.078,-4.449 1.469,-6.676 0.39,-2.199 0.644,-4.141 0.769,-5.828 l 1.172,-18.59 m -0.293,-7.039 -1.172,-19.215 c -0.269,-4.0311 -1.051,-8.1287 -2.348,-12.2811 -1.296,-4.1328 -2.921,-7.8476 -4.874,-11.1484 -1.934,-3.2734 -4.208,-5.9883 -6.821,-8.1406 -2.594,-2.125 -5.246,-3.1875 -7.957,-3.1875 -2.738,0 -5.402,0.9765 -7.996,2.9336 -2.59,1.9531 -4.898,4.5429 -6.93,7.7695 -2.004,3.2266 -3.691,6.9453 -5.058,11.1484 -1.367,4.2032 -2.176,8.5664 -2.418,13.0901 l -1.176,19.031 46.75,0"
         style="fill:#000000;fill-opacity:1;fill-rule:nonzero;stroke:none"
         id="path30"
         inkscape:connector-curvature="0" /><path
         d="m 393.984,475.637 c 23.223,-28.469 35.907,-64.086 35.907,-100.825 0,-26.175 -6.446,-51.957 -18.762,-75.054"
         style="fill:none;stroke:#000000;stroke-width:28.34600067;stroke-linecap:butt;stroke-linejoin:miter;stroke-miterlimit:10;stroke-dasharray:none;stroke-opacity:1"
         id="path32"
         inkscape:connector-curvature="0" /><path
         d="m 368.441,504.551 63.379,0.793 -25.113,-19.332 0.398,-31.688"
         style="fill:#000000;fill-opacity:1;fill-rule:evenodd;stroke:none"
         id="path34"
         inkscape:connector-curvature="0" /><path
         d="m 368.441,504.551 63.379,0.793 -25.113,-19.332 0.398,-31.688 -38.664,50.227 z"
         style="fill:none;stroke:#000000;stroke-width:28.34600067;stroke-linecap:butt;stroke-linejoin:miter;stroke-miterlimit:10;stroke-dasharray:none;stroke-opacity:1"
         id="path36"
         inkscape:connector-curvature="0" /></g></g></svg>