<?xml version="1.0" encoding="UTF-8" standalone="no"?>
<!-- Created with Inkscape (http://www.inkscape.org/) -->

<svg
   xmlns:dc="http://purl.org/dc/elements/1.1/"
   xmlns:cc="http://creativecommons.org/ns#"
   xmlns:rdf="http://www.w3.org/1999/02/22-rdf-syntax-ns#"
   xmlns:svg="http://www.w3.org/2000/svg"
   xmlns="http://www.w3.org/2000/svg"
   xmlns:sodipodi="http://sodipodi.sourceforge.net/DTD/sodipodi-0.dtd"
   xmlns:inkscape="http://www.inkscape.org/namespaces/inkscape"
   id="svg2"
   version="1.1"
   inkscape:version="0.91 r13725"
   xml:space="preserve"
   width="448.75"
   height="177.5"
   viewBox="0 0 448.75 177.5"
   sodipodi:docname="icr-acker.svg"><metadata
     id="metadata8"><rdf:RDF><cc:Work
         rdf:about=""><dc:format>image/svg+xml</dc:format><dc:type
           rdf:resource="http://purl.org/dc/dcmitype/StillImage" /><dc:title></dc:title></cc:Work></rdf:RDF></metadata><defs
     id="defs6" /><sodipodi:namedview
     pagecolor="#ffffff"
     bordercolor="#666666"
     borderopacity="1"
     objecttolerance="10"
     gridtolerance="10"
     guidetolerance="10"
     inkscape:pageopacity="0"
     inkscape:pageshadow="2"
     inkscape:window-width="640"
     inkscape:window-height="480"
     id="namedview4"
     showgrid="false"
     inkscape:zoom="0.72423398"
     inkscape:cx="224.375"
     inkscape:cy="88.75"
     inkscape:window-x="149"
     inkscape:window-y="92"
     inkscape:window-maximized="0"
     inkscape:current-layer="g10" /><g
     id="g10"
     inkscape:groupmode="layer"
     inkscape:label="icr-acker"
     transform="matrix(1.25,0,0,-1.25,0,177.5)"><g
       id="g12"
       transform="scale(0.1,0.1)"><path
         d="M 566.922,1159.35 832.727,267.531"
         style="fill:none;stroke:#000000;stroke-width:28.34600067;stroke-linecap:butt;stroke-linejoin:miter;stroke-miterlimit:10;stroke-dasharray:56.692;stroke-dashoffset:0;stroke-opacity:1"
         id="path14"
         inkscape:connector-curvature="0" /><path
         d="M 2504.99,1176.89 2172.01,282.75"
         style="fill:none;stroke:#000000;stroke-width:28.34600067;stroke-linecap:butt;stroke-linejoin:miter;stroke-miterlimit:10;stroke-dasharray:56.692;stroke-dashoffset:0;stroke-opacity:1"
         id="path16"
         inkscape:connector-curvature="0" /><path
         d="M 2986.3,1177.66 2179.1,268.578"
         style="fill:none;stroke:#000000;stroke-width:28.34600067;stroke-linecap:butt;stroke-linejoin:miter;stroke-miterlimit:10;stroke-dasharray:56.692;stroke-dashoffset:0;stroke-opacity:1"
         id="path18"
         inkscape:connector-curvature="0" /><path
         d="m 3084.99,257.949 c 0,-129.152 -28.56,-233.8552 -63.78,-233.8552 -35.22,0 -63.78,104.7032 -63.78,233.8552 0,129.153 28.56,233.856 63.78,233.856 35.22,0 63.78,-104.703 63.78,-233.856"
         style="fill:#0000ff;fill-opacity:1;fill-rule:nonzero;stroke:none"
         id="path20"
         inkscape:connector-curvature="0" /><path
         d="m 3084.99,257.949 c 0,-129.152 -28.56,-233.8552 -63.78,-233.8552 -35.22,0 -63.78,104.7032 -63.78,233.8552 0,129.153 28.56,233.856 63.78,233.856 35.22,0 63.78,-104.703 63.78,-233.856 z"
         style="fill:none;stroke:#000000;stroke-width:28.34600067;stroke-linecap:butt;stroke-linejoin:miter;stroke-miterlimit:10;stroke-dasharray:none;stroke-opacity:1"
         id="path22"
         inkscape:connector-curvature="0" /><path
         d="m 2464.21,248.027 c 0,-129.152 -28.55,-233.8551 -63.78,-233.8551 -35.22,0 -63.77,104.7031 -63.77,233.8551 0,129.153 28.55,233.856 63.77,233.856 35.23,0 63.78,-104.703 63.78,-233.856"
         style="fill:#0000ff;fill-opacity:1;fill-rule:nonzero;stroke:none"
         id="path24"
         inkscape:connector-curvature="0" /><path
         d="m 2464.21,248.027 c 0,-129.152 -28.55,-233.8551 -63.78,-233.8551 -35.22,0 -63.77,104.7031 -63.77,233.8551 0,129.153 28.55,233.856 63.77,233.856 35.23,0 63.78,-104.703 63.78,-233.856 z"
         style="fill:none;stroke:#000000;stroke-width:28.34600067;stroke-linecap:butt;stroke-linejoin:miter;stroke-miterlimit:10;stroke-dasharray:none;stroke-opacity:1"
         id="path26"
         inkscape:connector-curvature="0" /><path
         d="m 2475.55,1342.18 c 113.38,127.56 28.35,-226.77 -99.21,-354.321 -127.56,-127.558 -14.17,226.771 99.21,354.321"
         style="fill:#0000ff;fill-opacity:1;fill-rule:evenodd;stroke:none"
         id="path28"
         inkscape:connector-curvature="0" /><path
         d="m 2475.55,1342.18 c 113.38,127.56 28.35,-226.77 -99.21,-354.321 -127.56,-127.558 -14.17,226.771 99.21,354.321"
         style="fill:none;stroke:#000000;stroke-width:28.34600067;stroke-linecap:butt;stroke-linejoin:miter;stroke-miterlimit:10;stroke-dasharray:none;stroke-opacity:1"
         id="path30"
         inkscape:connector-curvature="0" /><path
         d="m 3141.68,1337.46 c 99.21,42.52 -56.69,-283.46 -198.42,-354.327 -141.73,-70.863 99.21,311.807 198.42,354.327"
         style="fill:#0000ff;fill-opacity:1;fill-rule:evenodd;stroke:none"
         id="path32"
         inkscape:connector-curvature="0" /><path
         d="m 3141.68,1337.46 c 99.21,42.52 -56.69,-283.46 -198.42,-354.327 -141.73,-70.863 99.21,311.807 198.42,354.327"
         style="fill:none;stroke:#000000;stroke-width:28.34600067;stroke-linecap:butt;stroke-linejoin:miter;stroke-miterlimit:10;stroke-dasharray:none;stroke-opacity:1"
         id="path34"
         inkscape:connector-curvature="0" /><path
         d="m 1938.16,254.406 1636.98,7.086"
         style="fill:none;stroke:#000000;stroke-width:28.34600067;stroke-linecap:butt;stroke-linejoin:miter;stroke-miterlimit:10;stroke-dasharray:none;stroke-opacity:1"
         id="path36"
         inkscape:connector-curvature="0" /><path
         d="m 2498.34,1164.46 464.51,-3.55"
         style="fill:none;stroke:#000000;stroke-width:85.03800201;stroke-linecap:butt;stroke-linejoin:miter;stroke-miterlimit:10;stroke-dasharray:none;stroke-opacity:1"
         id="path38"
         inkscape:connector-curvature="0" /><path
         d="m 1182.32,267.531 c 0,-129.152 -28.55,-233.8552 -63.77,-233.8552 -35.23,0 -63.78,104.7032 -63.78,233.8552 0,129.153 28.55,233.856 63.78,233.856 35.22,0 63.77,-104.703 63.77,-233.856"
         style="fill:#0000ff;fill-opacity:1;fill-rule:nonzero;stroke:none"
         id="path40"
         inkscape:connector-curvature="0" /><path
         d="m 1182.32,267.531 c 0,-129.152 -28.55,-233.8552 -63.77,-233.8552 -35.23,0 -63.78,104.7032 -63.78,233.8552 0,129.153 28.55,233.856 63.78,233.856 35.22,0 63.77,-104.703 63.77,-233.856 z"
         style="fill:none;stroke:#000000;stroke-width:28.34600067;stroke-linecap:butt;stroke-linejoin:miter;stroke-miterlimit:10;stroke-dasharray:none;stroke-opacity:1"
         id="path42"
         inkscape:connector-curvature="0" /><path
         d="m 561.547,257.609 c 0,-129.152 -28.555,-233.8551 -63.777,-233.8551 -35.223,0 -63.778,104.7031 -63.778,233.8551 0,129.153 28.555,233.856 63.778,233.856 35.222,0 63.777,-104.703 63.777,-233.856"
         style="fill:#0000ff;fill-opacity:1;fill-rule:nonzero;stroke:none"
         id="path44"
         inkscape:connector-curvature="0" /><path
         d="m 561.547,257.609 c 0,-129.152 -28.555,-233.8551 -63.777,-233.8551 -35.223,0 -63.778,104.7031 -63.778,233.8551 0,129.153 28.555,233.856 63.778,233.856 35.222,0 63.777,-104.703 63.777,-233.856 z"
         style="fill:none;stroke:#000000;stroke-width:28.34600067;stroke-linecap:butt;stroke-linejoin:miter;stroke-miterlimit:10;stroke-dasharray:none;stroke-opacity:1"
         id="path46"
         inkscape:connector-curvature="0" /><path
         d="M 14.2344,263.988 1651.21,271.074"
         style="fill:none;stroke:#000000;stroke-width:28.34600067;stroke-linecap:butt;stroke-linejoin:miter;stroke-miterlimit:10;stroke-dasharray:none;stroke-opacity:1"
         id="path48"
         inkscape:connector-curvature="0" /><path
         d="m 566.922,1159.35 493.258,11.14"
         style="fill:none;stroke:#000000;stroke-width:85.03800201;stroke-linecap:butt;stroke-linejoin:miter;stroke-miterlimit:10;stroke-dasharray:none;stroke-opacity:1"
         id="path50"
         inkscape:connector-curvature="0" /><path
         d="m 566.922,1159.35 c 0,-129.15 -28.559,-233.854 -63.781,-233.854 -35.223,0 -63.778,104.704 -63.778,233.854 0,129.15 28.555,233.86 63.778,233.86 35.222,0 63.781,-104.71 63.781,-233.86"
         style="fill:#0000ff;fill-opacity:1;fill-rule:nonzero;stroke:none"
         id="path52"
         inkscape:connector-curvature="0" /><path
         d="m 566.922,1159.35 c 0,-129.15 -28.559,-233.854 -63.781,-233.854 -35.223,0 -63.778,104.704 -63.778,233.854 0,129.15 28.555,233.86 63.778,233.86 35.222,0 63.781,-104.71 63.781,-233.86 z"
         style="fill:none;stroke:#000000;stroke-width:28.34600067;stroke-linecap:butt;stroke-linejoin:miter;stroke-miterlimit:10;stroke-dasharray:none;stroke-opacity:1"
         id="path54"
         inkscape:connector-curvature="0" /><path
         d="m 1179.9,1171.4 c 0,-129.15 -28.55,-233.857 -63.77,-233.857 -35.23,0 -63.79,104.707 -63.79,233.857 0,129.15 28.56,233.85 63.79,233.85 35.22,0 63.77,-104.7 63.77,-233.85"
         style="fill:#0000ff;fill-opacity:1;fill-rule:nonzero;stroke:none"
         id="path56"
         inkscape:connector-curvature="0" /><path
         d="m 1179.9,1171.4 c 0,-129.15 -28.55,-233.857 -63.77,-233.857 -35.23,0 -63.79,104.707 -63.79,233.857 0,129.15 28.56,233.85 63.79,233.85 35.22,0 63.77,-104.7 63.77,-233.85 z"
         style="fill:none;stroke:#000000;stroke-width:28.34600067;stroke-linecap:butt;stroke-linejoin:miter;stroke-miterlimit:10;stroke-dasharray:none;stroke-opacity:1"
         id="path58"
         inkscape:connector-curvature="0" /><path
         d="m 566.922,1159.35 67.32,-238.815"
         style="fill:none;stroke:#000000;stroke-width:56.69200134;stroke-linecap:butt;stroke-linejoin:miter;stroke-miterlimit:10;stroke-dasharray:none;stroke-opacity:1"
         id="path60"
         inkscape:connector-curvature="0" /><path
         d="M 1052.34,1171.4 832.727,267.531"
         style="fill:none;stroke:#000000;stroke-width:28.34600067;stroke-linecap:butt;stroke-linejoin:miter;stroke-miterlimit:10;stroke-dasharray:56.692;stroke-dashoffset:0;stroke-opacity:1"
         id="path62"
         inkscape:connector-curvature="0" /><path
         d="M 1052.34,1171.4 981.48,927.621"
         style="fill:none;stroke:#000000;stroke-width:56.69200134;stroke-linecap:butt;stroke-linejoin:miter;stroke-miterlimit:10;stroke-dasharray:none;stroke-opacity:1"
         id="path64"
         inkscape:connector-curvature="0" /><path
         d="m 648.414,920.535 333.066,0"
         style="fill:none;stroke:#000000;stroke-width:28.34600067;stroke-linecap:butt;stroke-linejoin:miter;stroke-miterlimit:10;stroke-dasharray:none;stroke-opacity:1"
         id="path66"
         inkscape:connector-curvature="0" /><path
         d="M 2958.61,1182.74 2760.19,934.711"
         style="fill:none;stroke:#000000;stroke-width:56.69200134;stroke-linecap:butt;stroke-linejoin:miter;stroke-miterlimit:10;stroke-dasharray:none;stroke-opacity:1"
         id="path68"
         inkscape:connector-curvature="0" /><path
         d="m 2416.41,945.164 347.24,-7.086"
         style="fill:none;stroke:#000000;stroke-width:28.34600067;stroke-linecap:butt;stroke-linejoin:miter;stroke-miterlimit:10;stroke-dasharray:none;stroke-opacity:1"
         id="path70"
         inkscape:connector-curvature="0" /><path
         d="M 2519.25,1175.65 2420.04,934.711"
         style="fill:none;stroke:#000000;stroke-width:56.69200134;stroke-linecap:butt;stroke-linejoin:miter;stroke-miterlimit:10;stroke-dasharray:none;stroke-opacity:1"
         id="path72"
         inkscape:connector-curvature="0" /></g></g></svg>