<?xml version="1.0" encoding="UTF-8" standalone="no"?>
<!DOCTYPE svg PUBLIC "-//W3C//DTD SVG 1.0//EN" "http://www.w3.org/TR/2001/PR-SVG-20010719/DTD/svg10.dtd">
<svg width="13cm" height="6cm" viewBox="-87 -43 254 101" xmlns="http://www.w3.org/2000/svg" xmlns:xlink="http://www.w3.org/1999/xlink">
  <line style="fill: none; fill-opacity:0; stroke-width: 2; stroke-dasharray: 4; stroke: #000000" x1="-46.6666" y1="-24.1" x2="-27.9124" y2="38.824"/>
  <line style="fill: none; fill-opacity:0; stroke-width: 2; stroke-dasharray: 4; stroke: #000000" x1="90.0774" y1="-25.3376" x2="66.5834" y2="37.75"/>
  <line style="fill: none; fill-opacity:0; stroke-width: 2; stroke-dasharray: 4; stroke: #000000" x1="124.037" y1="-25.3922" x2="67.0834" y2="38.75"/>
  <g>
    <ellipse style="fill: #0000ff" cx="126.5" cy="39.5" rx="4.5" ry="16.5"/>
    <ellipse style="fill: none; fill-opacity:0; stroke-width: 2; stroke: #000000" cx="126.5" cy="39.5" rx="4.5" ry="16.5"/>
  </g>
  <g>
    <ellipse style="fill: #0000ff" cx="82.7" cy="40.2" rx="4.5" ry="16.5"/>
    <ellipse style="fill: none; fill-opacity:0; stroke-width: 2; stroke: #000000" cx="82.7" cy="40.2" rx="4.5" ry="16.5"/>
  </g>
  <g>
    <path style="fill: #0000ff" d="M 88 -37 C 96,-46 90,-21 81,-12 C 72,-3 80,-28 88,-37z"/>
    <path style="fill: none; fill-opacity:0; stroke-width: 2; stroke: #000000" d="M 88 -37 C 96,-46 90,-21 81,-12 C 72,-3 80,-28 88,-37"/>
  </g>
  <g>
    <path style="fill: #0000ff" d="M 135 -36.6666 C 142,-39.6666 131,-16.6667 121,-11.6667 C 111,-6.66666 128,-33.6666 135,-36.6666z"/>
    <path style="fill: none; fill-opacity:0; stroke-width: 2; stroke: #000000" d="M 135 -36.6666 C 142,-39.6666 131,-16.6667 121,-11.6667 C 111,-6.66666 128,-33.6666 135,-36.6666"/>
  </g>
  <line style="fill: none; fill-opacity:0; stroke-width: 2; stroke: #000000" x1="50.0834" y1="39.75" x2="165.583" y2="39.25"/>
  <text font-size="12.8" style="fill: #000000;text-anchor:start;font-family:Symbol;font-style:normal;font-weight:normal" x="112" y="60">
    <tspan x="112" y="60"></tspan>
  </text>
  <line style="fill: none; fill-opacity:0; stroke-width: 6; stroke: #000000" x1="89.6083" y1="-24.4609" x2="122.382" y2="-24.2097"/>
  <g>
    <ellipse style="fill: #0000ff" cx="-7.74568" cy="38.824" rx="4.5" ry="16.5"/>
    <ellipse style="fill: none; fill-opacity:0; stroke-width: 2; stroke: #000000" cx="-7.74568" cy="38.824" rx="4.5" ry="16.5"/>
  </g>
  <g>
    <ellipse style="fill: #0000ff" cx="-51.5456" cy="39.524" rx="4.5" ry="16.5"/>
    <ellipse style="fill: none; fill-opacity:0; stroke-width: 2; stroke: #000000" cx="-51.5456" cy="39.524" rx="4.5" ry="16.5"/>
  </g>
  <line style="fill: none; fill-opacity:0; stroke-width: 2; stroke: #000000" x1="-85.6624" y1="39.074" x2="29.8376" y2="38.574"/>
  <text font-size="12.8" style="fill: #000000;text-anchor:start;font-family:Symbol;font-style:normal;font-weight:normal" x="-22.2456" y="59.324">
    <tspan x="-22.2456" y="59.324"></tspan>
  </text>
  <line style="fill: none; fill-opacity:0; stroke-width: 6; stroke: #000000" x1="-46.6666" y1="-24.1" x2="-11.8637" y2="-24.8858"/>
  <g>
    <ellipse style="fill: #0000ff" cx="-51.1666" cy="-24.1" rx="4.5" ry="16.5"/>
    <ellipse style="fill: none; fill-opacity:0; stroke-width: 2; stroke: #000000" cx="-51.1666" cy="-24.1" rx="4.5" ry="16.5"/>
  </g>
  <g>
    <ellipse style="fill: #0000ff" cx="-7.91666" cy="-24.95" rx="4.5" ry="16.5"/>
    <ellipse style="fill: none; fill-opacity:0; stroke-width: 2; stroke: #000000" cx="-7.91666" cy="-24.95" rx="4.5" ry="16.5"/>
  </g>
  <line style="fill: none; fill-opacity:0; stroke-width: 4; stroke: #000000" x1="-46.6666" y1="-24.1" x2="-41.9166" y2="-7.25"/>
  <line style="fill: none; fill-opacity:0; stroke-width: 2; stroke-dasharray: 4; stroke: #000000" x1="-12.4167" y1="-24.95" x2="-27.9124" y2="38.824"/>
  <line style="fill: none; fill-opacity:0; stroke-width: 4; stroke: #000000" x1="-12.4167" y1="-24.95" x2="-17.4167" y2="-7.75"/>
  <line style="fill: none; fill-opacity:0; stroke-width: 2; stroke: #000000" x1="-40.9166" y1="-7.25" x2="-17.4167" y2="-7.25"/>
  <line style="fill: none; fill-opacity:0; stroke-width: 4; stroke: #000000" x1="122.083" y1="-25.75" x2="108.083" y2="-8.25"/>
  <line style="fill: none; fill-opacity:0; stroke-width: 2; stroke: #000000" x1="83.8274" y1="-8.98758" x2="108.327" y2="-8.48758"/>
  <line style="fill: none; fill-opacity:0; stroke-width: 4; stroke: #000000" x1="91.0834" y1="-25.25" x2="84.0834" y2="-8.25"/>
</svg>
