<?xml version="1.0" encoding="UTF-8" standalone="no"?>
<!-- Created with Inkscape (http://www.inkscape.org/) -->

<svg
   xmlns:dc="http://purl.org/dc/elements/1.1/"
   xmlns:cc="http://creativecommons.org/ns#"
   xmlns:rdf="http://www.w3.org/1999/02/22-rdf-syntax-ns#"
   xmlns:svg="http://www.w3.org/2000/svg"
   xmlns="http://www.w3.org/2000/svg"
   xmlns:sodipodi="http://sodipodi.sourceforge.net/DTD/sodipodi-0.dtd"
   xmlns:inkscape="http://www.inkscape.org/namespaces/inkscape"
   id="svg2"
   version="1.1"
   inkscape:version="0.91 r13725"
   xml:space="preserve"
   width="865"
   height="368.75"
   viewBox="0 0 865 368.75"
   sodipodi:docname="pivot_brake.svg"><metadata
     id="metadata8"><rdf:RDF><cc:Work
         rdf:about=""><dc:format>image/svg+xml</dc:format><dc:type
           rdf:resource="http://purl.org/dc/dcmitype/StillImage" /><dc:title></dc:title></cc:Work></rdf:RDF></metadata><defs
     id="defs6" /><sodipodi:namedview
     pagecolor="#ffffff"
     bordercolor="#666666"
     borderopacity="1"
     objecttolerance="10"
     gridtolerance="10"
     guidetolerance="10"
     inkscape:pageopacity="0"
     inkscape:pageshadow="2"
     inkscape:window-width="640"
     inkscape:window-height="480"
     id="namedview4"
     showgrid="false"
     inkscape:zoom="0.38959538"
     inkscape:cx="432.5"
     inkscape:cy="184.375"
     inkscape:window-x="118"
     inkscape:window-y="59"
     inkscape:window-maximized="0"
     inkscape:current-layer="g10" /><g
     id="g10"
     inkscape:groupmode="layer"
     inkscape:label="pivot_brake"
     transform="matrix(1.25,0,0,-1.25,0,368.75)"><g
       id="g12"
       transform="scale(0.1,0.1)"><path
         d="m 539.863,2448.74 1686.587,0"
         style="fill:none;stroke:#000000;stroke-width:28.34600067;stroke-linecap:butt;stroke-linejoin:miter;stroke-miterlimit:10;stroke-dasharray:none;stroke-opacity:1"
         id="path14"
         inkscape:connector-curvature="0" /><path
         d="m 2240.62,2165.28 212.594,0 0,552.75 -212.594,0 0,-552.75 z"
         style="fill:#a52a2a;fill-opacity:1;fill-rule:nonzero;stroke:none"
         id="path16"
         inkscape:connector-curvature="0" /><path
         d="m 2240.62,2165.28 212.594,0 0,552.75 -212.594,0 0,-552.75 z"
         style="fill:none;stroke:#000000;stroke-width:28.34600067;stroke-linecap:butt;stroke-linejoin:miter;stroke-miterlimit:10;stroke-dasharray:none;stroke-opacity:1"
         id="path18"
         inkscape:connector-curvature="0" /><path
         d="m 342.859,2200.71 212.594,0 0,552.746 -212.594,0 0,-552.746 z"
         style="fill:#a52a2a;fill-opacity:1;fill-rule:nonzero;stroke:none"
         id="path20"
         inkscape:connector-curvature="0" /><path
         d="m 342.859,2200.71 212.594,0 0,552.746 -212.594,0 0,-552.746 z"
         style="fill:none;stroke:#000000;stroke-width:28.34600067;stroke-linecap:butt;stroke-linejoin:miter;stroke-miterlimit:10;stroke-dasharray:none;stroke-opacity:1"
         id="path22"
         inkscape:connector-curvature="0" /><path
         d="m 1482.37,1570.02 c 0,-58.71 -41.25,-106.3 -92.13,-106.3 -50.87,0 -92.12,47.59 -92.12,106.3 0,58.7 41.25,106.29 92.12,106.29 50.88,0 92.13,-47.59 92.13,-106.29"
         style="fill:#0000ff;fill-opacity:1;fill-rule:nonzero;stroke:none"
         id="path24"
         inkscape:connector-curvature="0" /><path
         d="m 1482.37,1570.02 c 0,-58.71 -41.25,-106.3 -92.13,-106.3 -50.87,0 -92.12,47.59 -92.12,106.3 0,58.7 41.25,106.29 92.12,106.29 50.88,0 92.13,-47.59 92.13,-106.29 z"
         style="fill:none;stroke:#0000ff;stroke-width:28.34600067;stroke-linecap:butt;stroke-linejoin:miter;stroke-miterlimit:10;stroke-dasharray:none;stroke-opacity:1"
         id="path26"
         inkscape:connector-curvature="0" /><path
         d="M 555.453,691.289 2240.62,670.031"
         style="fill:none;stroke:#000000;stroke-width:28.34600067;stroke-linecap:butt;stroke-linejoin:miter;stroke-miterlimit:10;stroke-dasharray:none;stroke-opacity:1"
         id="path28"
         inkscape:connector-curvature="0" /><path
         d="m 2240.62,393.656 212.594,0 0,552.75 -212.594,0 0,-552.75 z"
         style="fill:#a52a2a;fill-opacity:1;fill-rule:nonzero;stroke:none"
         id="path30"
         inkscape:connector-curvature="0" /><path
         d="m 2240.62,393.656 212.594,0 0,552.75 -212.594,0 0,-552.75 z"
         style="fill:none;stroke:#000000;stroke-width:28.34600067;stroke-linecap:butt;stroke-linejoin:miter;stroke-miterlimit:10;stroke-dasharray:none;stroke-opacity:1"
         id="path32"
         inkscape:connector-curvature="0" /><path
         d="m 342.859,414.918 212.594,0 0,552.746 -212.594,0 0,-552.746 z"
         style="fill:#a52a2a;fill-opacity:1;fill-rule:nonzero;stroke:none"
         id="path34"
         inkscape:connector-curvature="0" /><path
         d="m 342.859,414.918 212.594,0 0,552.746 -212.594,0 0,-552.746 z"
         style="fill:none;stroke:#000000;stroke-width:28.34600067;stroke-linecap:butt;stroke-linejoin:miter;stroke-miterlimit:10;stroke-dasharray:none;stroke-opacity:1"
         id="path36"
         inkscape:connector-curvature="0" /><path
         d="M 1383.16,2448.74 1398.04,680.66"
         style="fill:none;stroke:#000000;stroke-width:28.34600067;stroke-linecap:butt;stroke-linejoin:miter;stroke-miterlimit:10;stroke-dasharray:none;stroke-opacity:1"
         id="path38"
         inkscape:connector-curvature="0" /><path
         d="m 2609.12,2221.98 10,329.78"
         style="fill:none;stroke:#000000;stroke-width:28.34600067;stroke-linecap:butt;stroke-linejoin:miter;stroke-miterlimit:10;stroke-dasharray:none;stroke-opacity:1"
         id="path40"
         inkscape:connector-curvature="0" /><path
         d="m 2622.34,2658.01 66.54,-143.81 -69.76,37.56 -71.91,-33.27"
         style="fill:#000000;fill-opacity:1;fill-rule:evenodd;stroke:none"
         id="path42"
         inkscape:connector-curvature="0" /><path
         d="m 2622.34,2658.01 66.54,-143.81 -69.76,37.56 -71.91,-33.27 75.13,139.52 z"
         style="fill:none;stroke:#000000;stroke-width:28.34600067;stroke-linecap:butt;stroke-linejoin:miter;stroke-miterlimit:10;stroke-dasharray:none;stroke-opacity:1"
         id="path44"
         inkscape:connector-curvature="0" /><path
         d="m 138.816,496.609 9.993,329.786"
         style="fill:none;stroke:#000000;stroke-width:28.34600067;stroke-linecap:butt;stroke-linejoin:miter;stroke-miterlimit:10;stroke-dasharray:none;stroke-opacity:1"
         id="path46"
         inkscape:connector-curvature="0" /><path
         d="M 152.031,932.641 218.57,788.832 148.809,826.395 76.9023,793.125"
         style="fill:#000000;fill-opacity:1;fill-rule:evenodd;stroke:none"
         id="path48"
         inkscape:connector-curvature="0" /><path
         d="M 152.031,932.641 218.57,788.832 148.809,826.395 76.9023,793.125 152.031,932.641 Z"
         style="fill:none;stroke:#000000;stroke-width:28.34600067;stroke-linecap:butt;stroke-linejoin:miter;stroke-miterlimit:10;stroke-dasharray:none;stroke-opacity:1"
         id="path50"
         inkscape:connector-curvature="0" /><path
         d="m 100.477,2392 9.992,329.79"
         style="fill:none;stroke:#000000;stroke-width:28.34600067;stroke-linecap:butt;stroke-linejoin:miter;stroke-miterlimit:10;stroke-dasharray:none;stroke-opacity:1"
         id="path52"
         inkscape:connector-curvature="0" /><path
         d="m 97.2578,2285.75 -66.539,143.82 69.7582,-37.57 71.906,33.27"
         style="fill:#000000;fill-opacity:1;fill-rule:evenodd;stroke:none"
         id="path54"
         inkscape:connector-curvature="0" /><path
         d="m 97.2578,2285.75 -66.539,143.82 69.7582,-37.57 71.906,33.27 -75.1252,-139.52 z"
         style="fill:none;stroke:#000000;stroke-width:28.34600067;stroke-linecap:butt;stroke-linejoin:miter;stroke-miterlimit:10;stroke-dasharray:none;stroke-opacity:1"
         id="path56"
         inkscape:connector-curvature="0" /><path
         d="m 2597.62,580.766 10,329.781"
         style="fill:none;stroke:#000000;stroke-width:28.34600067;stroke-linecap:butt;stroke-linejoin:miter;stroke-miterlimit:10;stroke-dasharray:none;stroke-opacity:1"
         id="path58"
         inkscape:connector-curvature="0" /><path
         d="m 2594.41,474.516 -66.54,143.812 69.75,-37.562 71.91,33.269"
         style="fill:#000000;fill-opacity:1;fill-rule:evenodd;stroke:none"
         id="path60"
         inkscape:connector-curvature="0" /><path
         d="m 2594.41,474.516 -66.54,143.812 69.75,-37.562 71.91,33.269 -75.12,-139.519 z"
         style="fill:none;stroke:#000000;stroke-width:28.34600067;stroke-linecap:butt;stroke-linejoin:miter;stroke-miterlimit:10;stroke-dasharray:none;stroke-opacity:1"
         id="path62"
         inkscape:connector-curvature="0" /><path
         d="m 1687.6,1597.99 11.62,0 c 9.24,0 18.26,0.77 25.67,2.53 15.47,3.93 33.11,14.48 33.11,38.94 0,14.85 -6.6,25 -15.62,30.5 -9.61,5.87 -22.44,7.82 -36.45,7.82 l -54.71,0 0,-5.69 c 17.2,-1.13 17.6,-1.54 17.6,-12.5 l 0,-99.51 c 0,-11.15 -0.4,-11.52 -17.6,-12.72 l 0,-5.69 57.98,0 0,5.69 c -20.98,1.2 -21.6,1.57 -21.6,12.72 l 0,37.91 m 0,65.74 c 0,5.47 2.24,7.23 15.47,7.23 20.97,0 33.81,-11.55 33.81,-32.89 0,-24.46 -16.68,-33.26 -34.21,-33.26 -12.03,0 -15.07,0.4 -15.07,7.63 l 0,51.29"
         style="fill:#000000;fill-opacity:1;fill-rule:nonzero;stroke:none"
         id="path64"
         inkscape:connector-curvature="0" /><path
         d="m 1773.04,1633.96 0,-4.88 7.11,-0.99 c 4.84,-0.77 5.97,-1.76 5.97,-8.8 l 0,-61.56 c 0,-9.97 -0.54,-10.37 -14.07,-10.37 l 0,-5.69 47.3,0 0,5.69 c -13.68,0 -14.45,0.4 -14.45,10.37 l 0,79.97 -1.39,1.18 -30.47,-4.92 m 22.29,46.16 c -6.82,0 -11.55,-4.98 -11.55,-11.91 0,-6.75 4.73,-11.55 11.55,-11.55 7.33,0 11.92,4.8 11.92,11.55 0,6.93 -4.7,11.91 -11.92,11.91"
         style="fill:#000000;fill-opacity:1;fill-rule:nonzero;stroke:none"
         id="path66"
         inkscape:connector-curvature="0" /><path
         d="m 1888.77,1637.88 0,-6.23 9.86,-0.99 c 3.23,-0.37 3.81,-2.53 3.01,-5.24 -1.58,-6.27 -5.32,-17.57 -9.87,-30.07 l -13.27,-36.08 -0.37,0 -11.8,32.78 c -3.85,11.11 -7.74,22.44 -11.41,32.96 -1.35,3.7 -0.58,5.28 3.08,5.65 l 8.73,0.99 0,6.23 -43.67,0 0,-6.23 c 9.17,-0.77 10.93,-1.58 13.82,-8.8 5.28,-12.87 9.76,-25.56 14.63,-39.01 l 15,-42.17 13.93,0 17.53,47.45 c 5.72,15.29 11.4,28.23 14.15,34.5 2.97,6.86 5.14,8.03 14.19,8.03 l 0,6.23 -37.54,0"
         style="fill:#000000;fill-opacity:1;fill-rule:nonzero;stroke:none"
         id="path68"
         inkscape:connector-curvature="0" /><path
         d="m 1979.8,1640.01 c -31.35,0 -46.82,-18.63 -46.82,-50.34 0,-31.72 15.47,-50.35 46.82,-50.35 31.76,0 47.05,18.63 47.05,50.35 0,31.71 -15.29,50.34 -47.05,50.34 m -25.7,-50.34 c 0,27.06 8.36,43.52 25.7,43.52 17.71,0 25.93,-16.46 25.93,-43.52 0,-27.06 -8.22,-43.53 -25.93,-43.53 -17.34,0 -25.7,16.47 -25.7,43.53"
         style="fill:#000000;fill-opacity:1;fill-rule:nonzero;stroke:none"
         id="path70"
         inkscape:connector-curvature="0" /><path
         d="m 2104.08,1630.07 0,7.81 -25.19,0 0,24.6 -5.79,0 -12.18,-24.6 -14.88,0 0,-7.81 14.08,0 0,-69.04 c 0,-19.43 15.14,-21.71 22.11,-21.71 9.97,0 19.32,4.7 25,7.96 l -1.57,4 c -4.7,-1.98 -8.99,-2.57 -13.86,-2.57 -6.64,0 -12.91,4.77 -12.91,19.84 l 0,61.52 25.19,0"
         style="fill:#000000;fill-opacity:1;fill-rule:nonzero;stroke:none"
         id="path72"
         inkscape:connector-curvature="0" /><path
         d="m 4985.59,2187.96 1599.06,437.95"
         style="fill:none;stroke:#000000;stroke-width:28.34600067;stroke-linecap:butt;stroke-linejoin:miter;stroke-miterlimit:10;stroke-dasharray:none;stroke-opacity:1"
         id="path74"
         inkscape:connector-curvature="0" /><path
         d="M 4965.98,916.641 6651.15,328.461"
         style="fill:none;stroke:#000000;stroke-width:28.34600067;stroke-linecap:butt;stroke-linejoin:miter;stroke-miterlimit:10;stroke-dasharray:none;stroke-opacity:1"
         id="path76"
         inkscape:connector-curvature="0" /><path
         d="m 6520.87,2859.76 198.42,70.86 113.39,-481.88 -184.25,-56.69"
         style="fill:#a52a2a;fill-opacity:1;fill-rule:evenodd;stroke:none"
         id="path78"
         inkscape:connector-curvature="0" /><path
         d="m 6520.87,2859.76 198.42,70.86 113.39,-481.88 -184.25,-56.69 -127.56,467.71 z"
         style="fill:none;stroke:#000000;stroke-width:28.34600067;stroke-linecap:butt;stroke-linejoin:miter;stroke-miterlimit:10;stroke-dasharray:none;stroke-opacity:1"
         id="path80"
         inkscape:connector-curvature="0" /><path
         d="m 4725.86,2366.53 198.42,70.86 122.6,-498.87 -198.42,-70.87"
         style="fill:#a52a2a;fill-opacity:1;fill-rule:evenodd;stroke:none"
         id="path82"
         inkscape:connector-curvature="0" /><path
         d="m 4725.86,2366.53 198.42,70.86 122.6,-498.87 -198.42,-70.87 -122.6,498.88 z"
         style="fill:none;stroke:#000000;stroke-width:28.34600067;stroke-linecap:butt;stroke-linejoin:miter;stroke-miterlimit:10;stroke-dasharray:none;stroke-opacity:1"
         id="path84"
         inkscape:connector-curvature="0" /><path
         d="m 4883.18,1268.13 192.05,-80.78 -184.25,-510.233 -212.6,70.867"
         style="fill:#a52a2a;fill-opacity:1;fill-rule:evenodd;stroke:none"
         id="path86"
         inkscape:connector-curvature="0" /><path
         d="m 4883.18,1268.13 192.05,-80.78 -184.25,-510.233 -212.6,70.867 204.8,520.146 z"
         style="fill:none;stroke:#000000;stroke-width:28.34600067;stroke-linecap:butt;stroke-linejoin:miter;stroke-miterlimit:10;stroke-dasharray:none;stroke-opacity:1"
         id="path88"
         inkscape:connector-curvature="0" /><path
         d="M 6703.25,608.832 6895.27,528.047 6711.02,17.8164 6498.42,88.6836"
         style="fill:#a52a2a;fill-opacity:1;fill-rule:evenodd;stroke:none"
         id="path90"
         inkscape:connector-curvature="0" /><path
         d="M 6703.25,608.832 6895.27,528.047 6711.02,17.8164 6498.42,88.6836 6703.25,608.832 Z"
         style="fill:none;stroke:#000000;stroke-width:28.34600067;stroke-linecap:butt;stroke-linejoin:miter;stroke-miterlimit:10;stroke-dasharray:none;stroke-opacity:1"
         id="path92"
         inkscape:connector-curvature="0" /><path
         d="m 6248.44,1428.29 c 30.18,0 49.61,10.89 49.61,38.42 0,23.4 -16.28,33.7 -35.09,36.27 l 0,0.4 c 19.18,3.7 30.4,15.03 30.4,30.1 0,10.64 -4.44,18.56 -12.54,23.76 -7.89,5.03 -20.02,7.15 -35.79,7.15 l -58.44,0 0,-5.68 c 17.19,-1.14 17.59,-1.5 17.59,-12.28 l 0,-99.81 c 0,-11.11 -0.4,-11.51 -17.59,-12.65 l 0,-5.68 61.85,0 m -25.48,70.4 15.18,0 c 25.04,0 38.79,-12.32 38.79,-33.37 0,-23.87 -16.5,-30.21 -33.77,-30.21 -16.83,0 -20.2,2.97 -20.2,15.28 l 0,48.3 m 0,49.27 c 0,8.44 0.62,9.61 17.05,9.61 15.18,0 32.23,-5.39 32.23,-25.26 0,-19.18 -13.28,-26.8 -35.17,-26.8 l -14.11,0 0,42.45"
         style="fill:#000000;fill-opacity:1;fill-rule:nonzero;stroke:none"
         id="path94"
         inkscape:connector-curvature="0" /><path
         d="m 6347.08,1526.85 -30.06,-5.28 0,-5.25 7.4,-0.95 c 5.1,-0.81 6.27,-1.76 6.27,-8.76 l 0,-62.15 c 0,-10.08 -0.99,-10.49 -14.67,-10.49 l 0,-5.68 52,0 0,5.68 c -17.38,0 -18.56,0.41 -18.56,10.49 l 0,46.23 c 0,14.74 6.64,19.73 11.15,19.73 3.12,0 6.45,-1.03 12.1,-3.81 1.4,-0.7 2.93,-0.88 3.92,-0.88 4.7,0 8.99,4.84 8.99,10.81 0,4.62 -2.75,10.31 -10.38,10.31 -7.04,0 -12.87,-4.62 -25.78,-16.76 l -2.38,16.76"
         style="fill:#000000;fill-opacity:1;fill-rule:nonzero;stroke:none"
         id="path96"
         inkscape:connector-curvature="0" /><path
         d="m 6455.5,1455.53 c 0,-16.06 -12.8,-20.2 -20.86,-20.2 -12.84,0 -19.03,8.65 -19.03,20.27 0,9.35 4.55,14.12 16.13,18.3 8.25,2.97 19.21,6.74 23.76,9.53 l 0,-27.9 m 18.77,44.99 c 0,11.37 -2.71,26.1 -34.06,26.1 -22.4,0 -40.04,-11.66 -40.04,-22.51 0,-6.38 6.9,-9.35 10.42,-9.35 4.25,0 5.46,2.2 6.48,5.58 4.44,14.7 12.77,19.46 20.87,19.46 8.06,0 17.56,-3.95 17.56,-19.87 l 0,-8.36 c -4.98,-5.17 -24.35,-10.12 -40.11,-15.11 -14.37,-4.36 -18.55,-14.29 -18.55,-23.64 0,-14.2 9.6,-26.88 27.64,-26.88 12.83,0 24.2,6.75 30.8,10.6 2.93,-6.53 6.27,-10.6 13.57,-10.6 7.33,0 15.87,2.05 23.39,5.61 l -1.17,3.78 c -2.75,0 -7.04,0 -9.98,0.77 -3.48,0.8 -6.82,4.54 -6.82,16.9 l 0,47.52"
         style="fill:#000000;fill-opacity:1;fill-rule:nonzero;stroke:none"
         id="path98"
         inkscape:connector-curvature="0" /><path
         d="m 6511,1444.46 c 0,-10.08 -0.59,-10.49 -14.66,-10.49 l 0,-5.68 48.1,0 0,5.68 c -13.9,0 -14.67,0.41 -14.67,10.49 l 0,33.11 0.41,0 c 7.99,-12.62 21.89,-29.48 32.04,-39.78 7.23,-7.19 14.85,-9.5 21.09,-9.5 l 14.63,0 0,4.51 c -5.83,1.58 -10.71,4.5 -16.76,10.59 -12.14,11.96 -27.35,30.62 -34.8,41.22 -0.95,1.35 -1.35,2.34 0.59,4.51 9.39,10.77 15.62,16.46 22.3,21.37 6.63,4.92 11.51,7.26 22.84,8.44 l 0,5.57 -20.13,0 c -6.64,0 -8.4,-0.99 -12.28,-5.79 -5.69,-6.97 -25.01,-31.65 -29.52,-38.43 l -0.41,0 0,92.33 -1.39,1.17 -31.06,-4.88 0,-4.91 7.41,-0.77 c 5.1,-0.59 6.27,-1.58 6.27,-8.99 l 0,-109.77"
         style="fill:#000000;fill-opacity:1;fill-rule:nonzero;stroke:none"
         id="path100"
         inkscape:connector-curvature="0" /><path
         d="m 6682.77,1479.91 c 4.25,0 8.11,0.88 8.11,6.82 0,11.7 -3.74,39.89 -39.68,39.89 -30.4,0 -44.81,-21.7 -44.81,-51.07 0,-30.73 13.24,-49.61 45,-49.61 21.77,0 32.96,11.92 38.27,27.32 l -6.08,3.15 c -5.5,-11.55 -12.94,-21.08 -28.42,-21.08 -22.99,0 -27.64,23.87 -27.64,44.58 l 55.25,0 m -55.25,6.82 c 0,8.18 2.86,33.07 22.55,33.07 17.59,0 19.68,-18.91 19.68,-26.69 0,-3.77 -1.13,-6.38 -6.45,-6.38 l -35.78,0"
         style="fill:#000000;fill-opacity:1;fill-rule:nonzero;stroke:none"
         id="path102"
         inkscape:connector-curvature="0" /><path
         d="M 5785.12,2406.93 6038.99,1442.46 5808.56,622.551"
         style="fill:none;stroke:#000000;stroke-width:28.34600067;stroke-linecap:butt;stroke-linejoin:miter;stroke-miterlimit:10;stroke-dasharray:none;stroke-opacity:1"
         id="path104"
         inkscape:connector-curvature="0" /><path
         d="m 6124.03,1442.46 c 0,-62.62 -38.08,-113.39 -85.04,-113.39 -46.97,0 -85.04,50.77 -85.04,113.39 0,62.62 38.07,113.38 85.04,113.38 46.96,0 85.04,-50.76 85.04,-113.38"
         style="fill:#0000ff;fill-opacity:1;fill-rule:nonzero;stroke:none"
         id="path106"
         inkscape:connector-curvature="0" /><path
         d="m 6124.03,1442.46 c 0,-62.62 -38.08,-113.39 -85.04,-113.39 -46.97,0 -85.04,50.77 -85.04,113.39 0,62.62 38.07,113.38 85.04,113.38 46.96,0 85.04,-50.76 85.04,-113.38 z"
         style="fill:none;stroke:#0000ff;stroke-width:28.34600067;stroke-linecap:butt;stroke-linejoin:miter;stroke-miterlimit:10;stroke-dasharray:none;stroke-opacity:1"
         id="path108"
         inkscape:connector-curvature="0" /></g></g></svg>