<?xml version="1.0" encoding="UTF-8" standalone="no"?>
<!-- Created with Inkscape (http://www.inkscape.org/) -->

<svg
   xmlns:dc="http://purl.org/dc/elements/1.1/"
   xmlns:cc="http://creativecommons.org/ns#"
   xmlns:rdf="http://www.w3.org/1999/02/22-rdf-syntax-ns#"
   xmlns:svg="http://www.w3.org/2000/svg"
   xmlns="http://www.w3.org/2000/svg"
   xmlns:sodipodi="http://sodipodi.sourceforge.net/DTD/sodipodi-0.dtd"
   xmlns:inkscape="http://www.inkscape.org/namespaces/inkscape"
   id="svg2"
   version="1.1"
   inkscape:version="0.91 r13725"
   xml:space="preserve"
   width="906.25"
   height="368.75"
   viewBox="0 0 906.25 368.75"
   sodipodi:docname="split_axle_box.svg"><metadata
     id="metadata8"><rdf:RDF><cc:Work
         rdf:about=""><dc:format>image/svg+xml</dc:format><dc:type
           rdf:resource="http://purl.org/dc/dcmitype/StillImage" /><dc:title></dc:title></cc:Work></rdf:RDF></metadata><defs
     id="defs6" /><sodipodi:namedview
     pagecolor="#ffffff"
     bordercolor="#666666"
     borderopacity="1"
     objecttolerance="10"
     gridtolerance="10"
     guidetolerance="10"
     inkscape:pageopacity="0"
     inkscape:pageshadow="2"
     inkscape:window-width="640"
     inkscape:window-height="480"
     id="namedview4"
     showgrid="false"
     inkscape:zoom="0.38731034"
     inkscape:cx="453.125"
     inkscape:cy="184.375"
     inkscape:window-x="73"
     inkscape:window-y="58"
     inkscape:window-maximized="0"
     inkscape:current-layer="g10" /><g
     id="g10"
     inkscape:groupmode="layer"
     inkscape:label="split_axle_box"
     transform="matrix(1.25,0,0,-1.25,0,368.75)"><g
       id="g12"
       transform="scale(0.1,0.1)"><path
         d="m 958.094,631.773 779.516,0 0,1767.37 -779.516,0 0,-1767.37 z"
         style="fill:#d8e5e5;fill-opacity:1;fill-rule:nonzero;stroke:none"
         id="path14"
         inkscape:connector-curvature="0" /><path
         d="m 958.094,631.773 779.516,0 0,1767.37 -779.516,0 0,-1767.37 z"
         style="fill:none;stroke:#000000;stroke-width:28.34600067;stroke-linecap:butt;stroke-linejoin:miter;stroke-miterlimit:10;stroke-dasharray:none;stroke-opacity:1"
         id="path16"
         inkscape:connector-curvature="0" /><path
         d="m 5738.65,546.734 779.516,0 0,1799.97 -779.516,0 0,-1799.97 z"
         style="fill:#d8e5e5;fill-opacity:1;fill-rule:nonzero;stroke:none"
         id="path18"
         inkscape:connector-curvature="0" /><path
         d="m 5738.65,546.734 779.516,0 0,1799.97 -779.516,0 0,-1799.97 z"
         style="fill:none;stroke:#000000;stroke-width:28.34600067;stroke-linecap:butt;stroke-linejoin:miter;stroke-miterlimit:10;stroke-dasharray:none;stroke-opacity:1"
         id="path20"
         inkscape:connector-curvature="0" /><path
         d="m 480.465,2403.4 1686.585,0"
         style="fill:none;stroke:#000000;stroke-width:28.34600067;stroke-linecap:butt;stroke-linejoin:miter;stroke-miterlimit:10;stroke-dasharray:none;stroke-opacity:1"
         id="path22"
         inkscape:connector-curvature="0" /><path
         d="m 2181.23,2119.94 212.594,0 0,552.746 -212.594,0 0,-552.746 z"
         style="fill:#a52a2a;fill-opacity:1;fill-rule:nonzero;stroke:none"
         id="path24"
         inkscape:connector-curvature="0" /><path
         d="m 2181.23,2119.94 212.594,0 0,552.746 -212.594,0 0,-552.746 z"
         style="fill:none;stroke:#000000;stroke-width:28.34600067;stroke-linecap:butt;stroke-linejoin:miter;stroke-miterlimit:10;stroke-dasharray:none;stroke-opacity:1"
         id="path26"
         inkscape:connector-curvature="0" /><path
         d="m 283.461,2155.37 212.594,0 0,552.746 -212.594,0 0,-552.746 z"
         style="fill:#a52a2a;fill-opacity:1;fill-rule:nonzero;stroke:none"
         id="path28"
         inkscape:connector-curvature="0" /><path
         d="m 283.461,2155.37 212.594,0 0,552.746 -212.594,0 0,-552.746 z"
         style="fill:none;stroke:#000000;stroke-width:28.34600067;stroke-linecap:butt;stroke-linejoin:miter;stroke-miterlimit:10;stroke-dasharray:none;stroke-opacity:1"
         id="path30"
         inkscape:connector-curvature="0" /><path
         d="m 1833.98,631.773 c 0,-58.707 -41.24,-106.3 -92.12,-106.3 -50.88,0 -92.12,47.593 -92.12,106.3 0,58.704 41.24,106.297 92.12,106.297 50.88,0 92.12,-47.593 92.12,-106.297"
         style="fill:#0000ff;fill-opacity:1;fill-rule:nonzero;stroke:none"
         id="path32"
         inkscape:connector-curvature="0" /><path
         d="m 1833.98,631.773 c 0,-58.707 -41.24,-106.3 -92.12,-106.3 -50.88,0 -92.12,47.593 -92.12,106.3 0,58.704 41.24,106.297 92.12,106.297 50.88,0 92.12,-47.593 92.12,-106.297 z"
         style="fill:none;stroke:#0000ff;stroke-width:28.34600067;stroke-linecap:butt;stroke-linejoin:miter;stroke-miterlimit:10;stroke-dasharray:none;stroke-opacity:1"
         id="path34"
         inkscape:connector-curvature="0" /><path
         d="M 496.055,645.945 2181.23,638.859"
         style="fill:none;stroke:#000000;stroke-width:28.34600067;stroke-linecap:butt;stroke-linejoin:miter;stroke-miterlimit:10;stroke-dasharray:none;stroke-opacity:1"
         id="path36"
         inkscape:connector-curvature="0" /><path
         d="m 2181.23,362.484 212.594,0 0,552.746 -212.594,0 0,-552.746 z"
         style="fill:#a52a2a;fill-opacity:1;fill-rule:nonzero;stroke:none"
         id="path38"
         inkscape:connector-curvature="0" /><path
         d="m 2181.23,362.484 212.594,0 0,552.746 -212.594,0 0,-552.746 z"
         style="fill:none;stroke:#000000;stroke-width:28.34600067;stroke-linecap:butt;stroke-linejoin:miter;stroke-miterlimit:10;stroke-dasharray:none;stroke-opacity:1"
         id="path40"
         inkscape:connector-curvature="0" /><path
         d="m 283.461,369.57 212.594,0 0,552.75 -212.594,0 0,-552.75 z"
         style="fill:#a52a2a;fill-opacity:1;fill-rule:nonzero;stroke:none"
         id="path42"
         inkscape:connector-curvature="0" /><path
         d="m 283.461,369.57 212.594,0 0,552.75 -212.594,0 0,-552.75 z"
         style="fill:none;stroke:#000000;stroke-width:28.34600067;stroke-linecap:butt;stroke-linejoin:miter;stroke-miterlimit:10;stroke-dasharray:none;stroke-opacity:1"
         id="path44"
         inkscape:connector-curvature="0" /><path
         d="m 1040.3,645.945 c 0,-58.703 -41.249,-106.297 -92.128,-106.297 -50.879,0 -92.125,47.594 -92.125,106.297 0,58.703 41.246,106.297 92.125,106.297 50.879,0 92.128,-47.594 92.128,-106.297"
         style="fill:#0000ff;fill-opacity:1;fill-rule:nonzero;stroke:none"
         id="path46"
         inkscape:connector-curvature="0" /><path
         d="m 1040.3,645.945 c 0,-58.703 -41.249,-106.297 -92.128,-106.297 -50.879,0 -92.125,47.594 -92.125,106.297 0,58.703 41.246,106.297 92.125,106.297 50.879,0 92.128,-47.594 92.128,-106.297 z"
         style="fill:none;stroke:#0000ff;stroke-width:28.34600067;stroke-linecap:butt;stroke-linejoin:miter;stroke-miterlimit:10;stroke-dasharray:none;stroke-opacity:1"
         id="path48"
         inkscape:connector-curvature="0" /><path
         d="m 2549.72,2176.63 9.99,329.78"
         style="fill:none;stroke:#000000;stroke-width:28.34600067;stroke-linecap:butt;stroke-linejoin:miter;stroke-miterlimit:10;stroke-dasharray:none;stroke-opacity:1"
         id="path50"
         inkscape:connector-curvature="0" /><path
         d="m 2562.94,2612.66 66.54,-143.81 -69.77,37.56 -71.9,-33.27"
         style="fill:#000000;fill-opacity:1;fill-rule:evenodd;stroke:none"
         id="path52"
         inkscape:connector-curvature="0" /><path
         d="m 2562.94,2612.66 66.54,-143.81 -69.77,37.56 -71.9,-33.27 75.13,139.52 z"
         style="fill:none;stroke:#000000;stroke-width:28.34600067;stroke-linecap:butt;stroke-linejoin:miter;stroke-miterlimit:10;stroke-dasharray:none;stroke-opacity:1"
         id="path54"
         inkscape:connector-curvature="0" /><path
         d="m 93.5898,2222.89 9.9922,329.78"
         style="fill:none;stroke:#000000;stroke-width:28.34600067;stroke-linecap:butt;stroke-linejoin:miter;stroke-miterlimit:10;stroke-dasharray:none;stroke-opacity:1"
         id="path56"
         inkscape:connector-curvature="0" /><path
         d="m 106.801,2658.92 66.543,-143.81 -69.762,37.56 -71.9062,-33.27"
         style="fill:#000000;fill-opacity:1;fill-rule:evenodd;stroke:none"
         id="path58"
         inkscape:connector-curvature="0" /><path
         d="m 106.801,2658.92 66.543,-143.81 -69.762,37.56 -71.9062,-33.27 75.1252,139.52 z"
         style="fill:none;stroke:#000000;stroke-width:28.34600067;stroke-linecap:butt;stroke-linejoin:miter;stroke-miterlimit:10;stroke-dasharray:none;stroke-opacity:1"
         id="path60"
         inkscape:connector-curvature="0" /><path
         d="m 126.113,546.688 9.996,329.781"
         style="fill:none;stroke:#000000;stroke-width:28.34600067;stroke-linecap:butt;stroke-linejoin:miter;stroke-miterlimit:10;stroke-dasharray:none;stroke-opacity:1"
         id="path62"
         inkscape:connector-curvature="0" /><path
         d="M 122.895,440.438 56.3555,584.25 126.113,546.688 198.02,579.957"
         style="fill:#000000;fill-opacity:1;fill-rule:evenodd;stroke:none"
         id="path64"
         inkscape:connector-curvature="0" /><path
         d="M 122.895,440.438 56.3555,584.25 126.113,546.688 198.02,579.957 122.895,440.438 Z"
         style="fill:none;stroke:#000000;stroke-width:28.34600067;stroke-linecap:butt;stroke-linejoin:miter;stroke-miterlimit:10;stroke-dasharray:none;stroke-opacity:1"
         id="path66"
         inkscape:connector-curvature="0" /><path
         d="m 777.816,2629.79 11.625,0 c 9.239,0 18.258,0.77 25.668,2.53 15.473,3.93 33.11,14.48 33.11,38.94 0,14.85 -6.602,25.01 -15.621,30.51 -9.606,5.87 -22.442,7.81 -36.446,7.81 l -54.707,0 0,-5.69 c 17.196,-1.13 17.598,-1.53 17.598,-12.5 l 0,-99.51 c 0,-11.15 -0.402,-11.51 -17.598,-12.72 l 0,-5.69 57.969,0 0,5.69 c -20.973,1.21 -21.598,1.57 -21.598,12.72 l 0,37.91 m 0,65.75 c 0,5.46 2.239,7.22 15.477,7.22 20.973,0 33.805,-11.55 33.805,-32.89 0,-24.46 -16.684,-33.26 -34.211,-33.26 -12.028,0 -15.071,0.41 -15.071,7.63 l 0,51.3"
         style="fill:#000000;fill-opacity:1;fill-rule:nonzero;stroke:none"
         id="path68"
         inkscape:connector-curvature="0" /><path
         d="m 863.258,2665.76 0,-4.87 7.113,-1 c 4.84,-0.77 5.977,-1.75 5.977,-8.79 l 0,-61.57 c 0,-9.97 -0.551,-10.37 -14.082,-10.37 l 0,-5.69 47.3,0 0,5.69 c -13.675,0 -14.445,0.4 -14.445,10.37 l 0,79.97 -1.394,1.18 -30.469,-4.92 m 22.293,46.17 c -6.821,0 -11.551,-4.99 -11.551,-11.92 0,-6.75 4.73,-11.55 11.551,-11.55 7.332,0 11.914,4.8 11.914,11.55 0,6.93 -4.692,11.92 -11.914,11.92"
         style="fill:#000000;fill-opacity:1;fill-rule:nonzero;stroke:none"
         id="path70"
         inkscape:connector-curvature="0" /><path
         d="m 978.988,2669.69 0,-6.24 9.864,-0.99 c 3.226,-0.36 3.812,-2.53 3.003,-5.24 -1.574,-6.27 -5.316,-17.56 -9.863,-30.07 l -13.273,-36.08 -0.367,0 -11.805,32.78 c -3.852,11.11 -7.738,22.44 -11.402,32.97 -1.36,3.7 -0.586,5.28 3.078,5.64 l 8.726,0.99 0,6.24 -43.668,0 0,-6.24 c 9.164,-0.77 10.926,-1.57 13.824,-8.8 5.278,-12.87 9.75,-25.55 14.629,-39.01 l 14.996,-42.17 13.934,0 17.527,47.45 c 5.719,15.29 11.403,28.23 14.149,34.5 2.97,6.86 5.14,8.03 14.19,8.03 l 0,6.24 -37.542,0"
         style="fill:#000000;fill-opacity:1;fill-rule:nonzero;stroke:none"
         id="path72"
         inkscape:connector-curvature="0" /><path
         d="m 1070.02,2671.81 c -31.34,0 -46.82,-18.62 -46.82,-50.34 0,-31.72 15.48,-50.35 46.82,-50.35 31.76,0 47.05,18.63 47.05,50.35 0,31.72 -15.29,50.34 -47.05,50.34 m -25.7,-50.34 c 0,27.06 8.36,43.52 25.7,43.52 17.71,0 25.93,-16.46 25.93,-43.52 0,-27.06 -8.22,-43.52 -25.93,-43.52 -17.34,0 -25.7,16.46 -25.7,43.52"
         style="fill:#000000;fill-opacity:1;fill-rule:nonzero;stroke:none"
         id="path74"
         inkscape:connector-curvature="0" /><path
         d="m 1194.3,2661.88 0,7.81 -25.19,0 0,24.6 -5.79,0 -12.18,-24.6 -14.88,0 0,-7.81 14.08,0 0,-69.05 c 0,-19.43 15.14,-21.71 22.11,-21.71 9.97,0 19.32,4.7 25,7.96 l -1.57,4 c -4.7,-1.98 -8.99,-2.57 -13.86,-2.57 -6.64,0 -12.91,4.77 -12.91,19.84 l 0,61.53 25.19,0"
         style="fill:#000000;fill-opacity:1;fill-rule:nonzero;stroke:none"
         id="path76"
         inkscape:connector-curvature="0" /><path
         d="m 793.406,389.039 11.625,0 c 9.239,0 18.262,0.773 25.668,2.531 15.473,3.926 33.11,14.485 33.11,38.942 0,14.847 -6.602,25.004 -15.621,30.504 -9.606,5.867 -22.442,7.812 -36.446,7.812 l -54.707,0 0,-5.683 c 17.195,-1.137 17.602,-1.54 17.602,-12.504 l 0,-99.512 c 0,-11.149 -0.407,-11.516 -17.602,-12.723 l 0,-5.683 57.969,0 0,5.683 c -20.973,1.207 -21.598,1.574 -21.598,12.723 l 0,37.91 m 0,65.746 c 0,5.461 2.239,7.223 15.477,7.223 20.972,0 33.805,-11.551 33.805,-32.891 0,-24.457 -16.684,-33.258 -34.211,-33.258 -12.024,0 -15.071,0.407 -15.071,7.629 l 0,51.297"
         style="fill:#000000;fill-opacity:1;fill-rule:nonzero;stroke:none"
         id="path78"
         inkscape:connector-curvature="0" /><path
         d="m 878.848,425.012 0,-4.879 7.113,-0.988 c 4.84,-0.77 5.977,-1.762 5.977,-8.801 l 0,-61.563 c 0,-9.972 -0.551,-10.375 -14.083,-10.375 l 0,-5.683 47.301,0 0,5.683 c -13.676,0 -14.445,0.403 -14.445,10.375 l 0,79.969 -1.395,1.176 -30.468,-4.914 m 22.293,46.16 c -6.821,0 -11.551,-4.984 -11.551,-11.914 0,-6.746 4.73,-11.551 11.551,-11.551 7.332,0 11.918,4.805 11.918,11.551 0,6.93 -4.696,11.914 -11.918,11.914"
         style="fill:#000000;fill-opacity:1;fill-rule:nonzero;stroke:none"
         id="path80"
         inkscape:connector-curvature="0" /><path
         d="m 994.578,428.934 0,-6.235 9.862,-0.988 c 3.23,-0.367 3.81,-2.531 3.01,-5.242 -1.58,-6.27 -5.32,-17.567 -9.868,-30.067 l -13.273,-36.082 -0.364,0 -11.808,32.782 c -3.848,11.109 -7.735,22.437 -11.403,32.96 -1.355,3.704 -0.586,5.282 3.078,5.649 l 8.727,0.988 0,6.235 -43.668,0 0,-6.235 c 9.168,-0.769 10.926,-1.574 13.824,-8.797 5.278,-12.871 9.754,-25.558 14.629,-39.015 l 14.996,-42.164 13.934,0 17.526,47.445 c 5.72,15.289 11.4,28.234 14.15,34.504 2.97,6.855 5.14,8.027 14.19,8.027 l 0,6.235 -37.542,0"
         style="fill:#000000;fill-opacity:1;fill-rule:nonzero;stroke:none"
         id="path82"
         inkscape:connector-curvature="0" /><path
         d="m 1085.61,431.059 c -31.34,0 -46.82,-18.625 -46.82,-50.34 0,-31.719 15.48,-50.344 46.82,-50.344 31.76,0 47.05,18.625 47.05,50.344 0,31.715 -15.29,50.34 -47.05,50.34 m -25.7,-50.34 c 0,27.058 8.36,43.523 25.7,43.523 17.71,0 25.93,-16.465 25.93,-43.523 0,-27.063 -8.22,-43.524 -25.93,-43.524 -17.34,0 -25.7,16.461 -25.7,43.524"
         style="fill:#000000;fill-opacity:1;fill-rule:nonzero;stroke:none"
         id="path84"
         inkscape:connector-curvature="0" /><path
         d="m 1209.89,421.125 0,7.809 -25.19,0 0,24.601 -5.79,0 -12.18,-24.601 -14.88,0 0,-7.809 14.08,0 0,-69.043 c 0,-19.434 15.14,-21.707 22.11,-21.707 9.97,0 19.32,4.691 25,7.957 l -1.58,3.996 c -4.69,-1.98 -8.98,-2.566 -13.85,-2.566 -6.64,0 -12.91,4.765 -12.91,19.836 l 0,61.527 25.19,0"
         style="fill:#000000;fill-opacity:1;fill-rule:nonzero;stroke:none"
         id="path86"
         inkscape:connector-curvature="0" /><path
         d="M 6886.01,2612.69 6518.16,2346.71"
         style="fill:none;stroke:#000000;stroke-width:28.34600067;stroke-linecap:butt;stroke-linejoin:miter;stroke-miterlimit:10;stroke-dasharray:none;stroke-opacity:1"
         id="path88"
         inkscape:connector-curvature="0" /><path
         d="m 5805.15,2359.46 c 0,-58.7 -41.25,-106.3 -92.13,-106.3 -50.88,0 -92.12,47.6 -92.12,106.3 0,58.7 41.24,106.3 92.12,106.3 50.88,0 92.13,-47.6 92.13,-106.3"
         style="fill:#0000ff;fill-opacity:1;fill-rule:nonzero;stroke:none"
         id="path90"
         inkscape:connector-curvature="0" /><path
         d="m 5805.15,2359.46 c 0,-58.7 -41.25,-106.3 -92.13,-106.3 -50.88,0 -92.12,47.6 -92.12,106.3 0,58.7 41.24,106.3 92.12,106.3 50.88,0 92.13,-47.6 92.13,-106.3 z"
         style="fill:none;stroke:#0000ff;stroke-width:28.34600067;stroke-linecap:butt;stroke-linejoin:miter;stroke-miterlimit:10;stroke-dasharray:none;stroke-opacity:1"
         id="path92"
         inkscape:connector-curvature="0" /><path
         d="m 5232.52,381.023 380.55,152.571"
         style="fill:none;stroke:#000000;stroke-width:28.34600067;stroke-linecap:butt;stroke-linejoin:miter;stroke-miterlimit:10;stroke-dasharray:none;stroke-opacity:1"
         id="path94"
         inkscape:connector-curvature="0" /><path
         d="m 5805.15,573.664 c 0,-58.707 -41.25,-106.301 -92.13,-106.301 -50.88,0 -92.12,47.594 -92.12,106.301 0,58.703 41.24,106.297 92.12,106.297 50.88,0 92.13,-47.594 92.13,-106.297"
         style="fill:#0000ff;fill-opacity:1;fill-rule:nonzero;stroke:none"
         id="path96"
         inkscape:connector-curvature="0" /><path
         d="m 5805.15,573.664 c 0,-58.707 -41.25,-106.301 -92.13,-106.301 -50.88,0 -92.12,47.594 -92.12,106.301 0,58.703 41.24,106.297 92.12,106.297 50.88,0 92.13,-47.594 92.13,-106.297 z"
         style="fill:none;stroke:#0000ff;stroke-width:28.34600067;stroke-linecap:butt;stroke-linejoin:miter;stroke-miterlimit:10;stroke-dasharray:none;stroke-opacity:1"
         id="path98"
         inkscape:connector-curvature="0" /><path
         d="m 6773.28,2800.24 170.07,127.56 240.94,-382.67 -155.9,-113.39"
         style="fill:#a52a2a;fill-opacity:1;fill-rule:evenodd;stroke:none"
         id="path100"
         inkscape:connector-curvature="0" /><path
         d="m 6773.28,2800.24 170.07,127.56 240.94,-382.67 -155.9,-113.39 -255.11,368.5 z"
         style="fill:none;stroke:#000000;stroke-width:28.34600067;stroke-linecap:butt;stroke-linejoin:miter;stroke-miterlimit:10;stroke-dasharray:none;stroke-opacity:1"
         id="path102"
         inkscape:connector-curvature="0" /><path
         d="m 5494.56,2559.3 c 30.18,0 49.61,10.89 49.61,38.43 0,23.39 -16.28,33.69 -35.08,36.26 l 0,0.4 c 19.17,3.71 30.39,15.04 30.39,30.11 0,10.63 -4.44,18.55 -12.54,23.75 -7.88,5.03 -20.02,7.16 -35.79,7.16 l -58.44,0 0,-5.69 c 17.2,-1.13 17.6,-1.5 17.6,-12.28 l 0,-99.81 c 0,-11.11 -0.4,-11.51 -17.6,-12.65 l 0,-5.68 61.85,0 m -25.48,70.4 15.18,0 c 25.04,0 38.79,-12.32 38.79,-33.37 0,-23.87 -16.5,-30.21 -33.76,-30.21 -16.84,0 -20.21,2.97 -20.21,15.29 l 0,48.29 m 0,49.28 c 0,8.43 0.62,9.61 17.05,9.61 15.18,0 32.23,-5.39 32.23,-25.27 0,-19.18 -13.27,-26.8 -35.16,-26.8 l -14.12,0 0,42.46"
         style="fill:#000000;fill-opacity:1;fill-rule:nonzero;stroke:none"
         id="path104"
         inkscape:connector-curvature="0" /><path
         d="m 5593.2,2657.86 -30.06,-5.28 0,-5.24 7.4,-0.96 c 5.1,-0.81 6.27,-1.76 6.27,-8.76 l 0,-62.15 c 0,-10.08 -0.99,-10.49 -14.66,-10.49 l 0,-5.68 51.99,0 0,5.68 c -17.38,0 -18.55,0.41 -18.55,10.49 l 0,46.24 c 0,14.74 6.63,19.72 11.14,19.72 3.12,0 6.46,-1.02 12.1,-3.81 1.4,-0.7 2.94,-0.88 3.93,-0.88 4.69,0 8.98,4.84 8.98,10.81 0,4.63 -2.75,10.31 -10.38,10.31 -7.04,0 -12.87,-4.62 -25.77,-16.76 l -2.39,16.76"
         style="fill:#000000;fill-opacity:1;fill-rule:nonzero;stroke:none"
         id="path106"
         inkscape:connector-curvature="0" /><path
         d="m 5701.62,2586.54 c 0,-16.06 -12.79,-20.2 -20.86,-20.2 -12.83,0 -19.03,8.65 -19.03,20.28 0,9.34 4.55,14.11 16.13,18.29 8.25,2.97 19.22,6.75 23.76,9.54 l 0,-27.91 m 18.78,44.99 c 0,11.37 -2.72,26.11 -34.07,26.11 -22.4,0 -40.04,-11.66 -40.04,-22.52 0,-6.37 6.9,-9.34 10.42,-9.34 4.25,0 5.46,2.2 6.49,5.57 4.43,14.7 12.76,19.47 20.86,19.47 8.07,0 17.56,-3.96 17.56,-19.87 l 0,-8.36 c -4.98,-5.17 -24.34,-10.13 -40.11,-15.11 -14.37,-4.36 -18.55,-14.3 -18.55,-23.65 0,-14.19 9.6,-26.88 27.65,-26.88 12.83,0 24.19,6.75 30.79,10.6 2.94,-6.53 6.27,-10.6 13.57,-10.6 7.33,0 15.88,2.06 23.39,5.61 l -1.17,3.78 c -2.75,0 -7.04,0 -9.97,0.77 -3.49,0.81 -6.82,4.55 -6.82,16.9 l 0,47.52"
         style="fill:#000000;fill-opacity:1;fill-rule:nonzero;stroke:none"
         id="path108"
         inkscape:connector-curvature="0" /><path
         d="m 5757.12,2575.47 c 0,-10.08 -0.58,-10.49 -14.66,-10.49 l 0,-5.68 48.1,0 0,5.68 c -13.89,0 -14.66,0.41 -14.66,10.49 l 0,33.11 0.4,0 c 7.99,-12.62 21.89,-29.48 32.05,-39.78 7.22,-7.19 14.85,-9.5 21.08,-9.5 l 14.63,0 0,4.51 c -5.83,1.58 -10.7,4.51 -16.76,10.6 -12.13,11.95 -27.35,30.61 -34.79,41.21 -0.96,1.36 -1.36,2.34 0.58,4.51 9.39,10.78 15.62,16.46 22.3,21.37 6.63,4.92 11.51,7.27 22.84,8.44 l 0,5.57 -20.13,0 c -6.64,0 -8.4,-0.99 -12.28,-5.79 -5.69,-6.97 -25.01,-31.65 -29.52,-38.43 l -0.4,0 0,92.33 -1.4,1.17 -31.05,-4.88 0,-4.91 7.41,-0.77 c 5.09,-0.59 6.26,-1.57 6.26,-8.98 l 0,-109.78"
         style="fill:#000000;fill-opacity:1;fill-rule:nonzero;stroke:none"
         id="path110"
         inkscape:connector-curvature="0" /><path
         d="m 5928.89,2610.93 c 4.26,0 8.11,0.87 8.11,6.82 0,11.69 -3.74,39.89 -39.68,39.89 -30.39,0 -44.8,-21.71 -44.8,-51.08 0,-30.72 13.23,-49.61 44.99,-49.61 21.78,0 32.96,11.92 38.28,27.32 l -6.09,3.15 c -5.5,-11.54 -12.94,-21.08 -28.41,-21.08 -23,0 -27.65,23.87 -27.65,44.59 l 55.25,0 m -55.25,6.82 c 0,8.17 2.86,33.07 22.55,33.07 17.6,0 19.69,-18.92 19.69,-26.7 0,-3.77 -1.14,-6.37 -6.45,-6.37 l -35.79,0"
         style="fill:#000000;fill-opacity:1;fill-rule:nonzero;stroke:none"
         id="path112"
         inkscape:connector-curvature="0" /><path
         d="m 5510.16,233.512 c 30.17,0 49.61,10.89 49.61,38.426 0,23.394 -16.29,33.695 -35.09,36.261 l 0,0.403 c 19.17,3.707 30.39,15.035 30.39,30.105 0,10.633 -4.44,18.551 -12.54,23.758 -7.88,5.023 -20.02,7.152 -35.78,7.152 l -58.45,0 0,-5.683 c 17.2,-1.137 17.6,-1.504 17.6,-12.286 l 0,-99.804 c 0,-11.11 -0.4,-11.512 -17.6,-12.649 l 0,-5.683 61.86,0 m -25.49,70.398 15.18,0 c 25.04,0 38.79,-12.32 38.79,-33.367 0,-23.867 -16.5,-30.211 -33.76,-30.211 -16.84,0 -20.21,2.969 -20.21,15.289 l 0,48.289 m 0,49.281 c 0,8.43 0.62,9.606 17.05,9.606 15.18,0 32.23,-5.391 32.23,-25.266 0,-19.176 -13.27,-26.801 -35.16,-26.801 l -14.12,0 0,42.461"
         style="fill:#000000;fill-opacity:1;fill-rule:nonzero;stroke:none"
         id="path114"
         inkscape:connector-curvature="0" /><path
         d="m 5608.79,332.07 -30.06,-5.281 0,-5.242 7.4,-0.953 c 5.1,-0.809 6.27,-1.762 6.27,-8.766 l 0,-62.148 c 0,-10.082 -0.99,-10.485 -14.66,-10.485 l 0,-5.683 51.99,0 0,5.683 c -17.38,0 -18.55,0.403 -18.55,10.485 l 0,46.238 c 0,14.738 6.63,19.727 11.14,19.727 3.12,0 6.46,-1.028 12.1,-3.817 1.4,-0.695 2.94,-0.879 3.93,-0.879 4.69,0 8.98,4.84 8.98,10.817 0,4.621 -2.75,10.304 -10.38,10.304 -7.04,0 -12.87,-4.621 -25.77,-16.758 l -2.39,16.758"
         style="fill:#000000;fill-opacity:1;fill-rule:nonzero;stroke:none"
         id="path116"
         inkscape:connector-curvature="0" /><path
         d="m 5717.21,260.754 c 0,-16.059 -12.79,-20.203 -20.86,-20.203 -12.83,0 -19.03,8.652 -19.03,20.277 0,9.348 4.55,14.117 16.13,18.297 8.25,2.969 19.22,6.746 23.76,9.531 l 0,-27.902 m 18.78,44.988 c 0,11.367 -2.72,26.11 -34.06,26.11 -22.41,0 -40.05,-11.661 -40.05,-22.516 0,-6.379 6.9,-9.348 10.42,-9.348 4.25,0 5.46,2.2 6.49,5.571 4.43,14.703 12.76,19.472 20.86,19.472 8.07,0 17.56,-3.961 17.56,-19.875 l 0,-8.359 c -4.98,-5.172 -24.34,-10.121 -40.11,-15.106 -14.37,-4.363 -18.55,-14.3 -18.55,-23.652 0,-14.187 9.61,-26.875 27.65,-26.875 12.83,0 24.19,6.746 30.79,10.598 2.94,-6.528 6.28,-10.598 13.57,-10.598 7.33,0 15.88,2.055 23.39,5.609 l -1.17,3.778 c -2.75,0 -7.04,0 -9.97,0.769 -3.49,0.809 -6.82,4.547 -6.82,16.903 l 0,47.519"
         style="fill:#000000;fill-opacity:1;fill-rule:nonzero;stroke:none"
         id="path118"
         inkscape:connector-curvature="0" /><path
         d="m 5772.71,249.68 c 0,-10.082 -0.58,-10.485 -14.66,-10.485 l 0,-5.683 48.11,0 0,5.683 c -13.9,0 -14.67,0.403 -14.67,10.485 l 0,33.109 0.4,0 c 7.99,-12.613 21.89,-29.477 32.05,-39.781 7.22,-7.188 14.85,-9.496 21.08,-9.496 l 14.63,0 0,4.508 c -5.83,1.578 -10.7,4.511 -16.76,10.597 -12.13,11.953 -27.35,30.617 -34.79,41.215 -0.96,1.356 -1.36,2.344 0.58,4.508 9.39,10.781 15.62,16.465 22.3,21.375 6.63,4.914 11.51,7.262 22.84,8.433 l 0,5.575 -20.13,0 c -6.64,0 -8.4,-0.989 -12.28,-5.793 -5.69,-6.965 -25.01,-31.645 -29.52,-38.426 l -0.4,0 0,92.324 -1.4,1.176 -31.05,-4.879 0,-4.914 7.41,-0.77 c 5.09,-0.586 6.26,-1.574 6.26,-8.98 l 0,-109.781"
         style="fill:#000000;fill-opacity:1;fill-rule:nonzero;stroke:none"
         id="path120"
         inkscape:connector-curvature="0" /><path
         d="m 5944.48,285.137 c 4.26,0 8.11,0.879 8.11,6.82 0,11.695 -3.74,39.895 -39.68,39.895 -30.39,0 -44.8,-21.707 -44.8,-51.079 0,-30.726 13.23,-49.609 44.99,-49.609 21.78,0 32.96,11.918 38.28,27.316 l -6.09,3.153 c -5.5,-11.551 -12.94,-21.082 -28.41,-21.082 -22.99,0 -27.65,23.871 -27.65,44.586 l 55.25,0 m -55.25,6.82 c 0,8.176 2.86,33.074 22.55,33.074 17.6,0 19.69,-18.922 19.69,-26.695 0,-3.777 -1.14,-6.379 -6.45,-6.379 l -35.79,0"
         style="fill:#000000;fill-opacity:1;fill-rule:nonzero;stroke:none"
         id="path122"
         inkscape:connector-curvature="0" /><path
         d="m 5200.2,2606.65 415.04,-200.06"
         style="fill:none;stroke:#000000;stroke-width:28.34600067;stroke-linecap:butt;stroke-linejoin:miter;stroke-miterlimit:10;stroke-dasharray:none;stroke-opacity:1"
         id="path124"
         inkscape:connector-curvature="0" /><path
         d="M 7035.01,608.832 7227.05,528.047 7042.8,17.8164 6830.21,88.6836"
         style="fill:#a52a2a;fill-opacity:1;fill-rule:evenodd;stroke:none"
         id="path126"
         inkscape:connector-curvature="0" /><path
         d="M 7035.01,608.832 7227.05,528.047 7042.8,17.8164 6830.21,88.6836 7035.01,608.832 Z"
         style="fill:none;stroke:#000000;stroke-width:28.34600067;stroke-linecap:butt;stroke-linejoin:miter;stroke-miterlimit:10;stroke-dasharray:none;stroke-opacity:1"
         id="path128"
         inkscape:connector-curvature="0" /><path
         d="M 6518.16,546.734 6932.61,348.758"
         style="fill:none;stroke:#000000;stroke-width:28.34600067;stroke-linecap:butt;stroke-linejoin:miter;stroke-miterlimit:10;stroke-dasharray:none;stroke-opacity:1"
         id="path130"
         inkscape:connector-curvature="0" /><path
         d="m 5129.21,2927.8 184.25,-70.87 -226.53,-500.57 -184.49,75.38"
         style="fill:#a52a2a;fill-opacity:1;fill-rule:evenodd;stroke:none"
         id="path132"
         inkscape:connector-curvature="0" /><path
         d="m 5129.21,2927.8 184.25,-70.87 -226.53,-500.57 -184.49,75.38 226.77,496.06 z"
         style="fill:none;stroke:#000000;stroke-width:28.34600067;stroke-linecap:butt;stroke-linejoin:miter;stroke-miterlimit:10;stroke-dasharray:none;stroke-opacity:1"
         id="path134"
         inkscape:connector-curvature="0" /><path
         d="m 4958.63,552.512 198.42,70.867 150.94,-484.707 -184.25,-70.8673"
         style="fill:#a52a2a;fill-opacity:1;fill-rule:evenodd;stroke:none"
         id="path136"
         inkscape:connector-curvature="0" /><path
         d="M 4958.63,552.512 5157.05,623.379 5307.99,138.672 5123.74,67.8047 4958.63,552.512 Z"
         style="fill:none;stroke:#000000;stroke-width:28.34600067;stroke-linecap:butt;stroke-linejoin:miter;stroke-miterlimit:10;stroke-dasharray:none;stroke-opacity:1"
         id="path138"
         inkscape:connector-curvature="0" /><path
         d="m 2532.56,538.254 9.99,329.785"
         style="fill:none;stroke:#000000;stroke-width:28.34600067;stroke-linecap:butt;stroke-linejoin:miter;stroke-miterlimit:10;stroke-dasharray:none;stroke-opacity:1"
         id="path140"
         inkscape:connector-curvature="0" /><path
         d="m 2529.34,432.008 -66.54,143.808 69.76,-37.562 71.91,33.269"
         style="fill:#000000;fill-opacity:1;fill-rule:evenodd;stroke:none"
         id="path142"
         inkscape:connector-curvature="0" /><path
         d="m 2529.34,432.008 -66.54,143.808 69.76,-37.562 71.91,33.269 -75.13,-139.515 z"
         style="fill:none;stroke:#000000;stroke-width:28.34600067;stroke-linecap:butt;stroke-linejoin:miter;stroke-miterlimit:10;stroke-dasharray:none;stroke-opacity:1"
         id="path144"
         inkscape:connector-curvature="0" /><path
         d="m 6596.11,2304.19 c 0,-58.71 -41.24,-106.3 -92.12,-106.3 -50.88,0 -92.12,47.59 -92.12,106.3 0,58.7 41.24,106.29 92.12,106.29 50.88,0 92.12,-47.59 92.12,-106.29"
         style="fill:#0000ff;fill-opacity:1;fill-rule:nonzero;stroke:none"
         id="path146"
         inkscape:connector-curvature="0" /><path
         d="m 6596.11,2304.19 c 0,-58.71 -41.24,-106.3 -92.12,-106.3 -50.88,0 -92.12,47.59 -92.12,106.3 0,58.7 41.24,106.29 92.12,106.29 50.88,0 92.12,-47.59 92.12,-106.29 z"
         style="fill:none;stroke:#0000ff;stroke-width:28.34600067;stroke-linecap:butt;stroke-linejoin:miter;stroke-miterlimit:10;stroke-dasharray:none;stroke-opacity:1"
         id="path148"
         inkscape:connector-curvature="0" /><path
         d="m 6596.11,575.078 c 0,-58.703 -41.24,-106.297 -92.12,-106.297 -50.88,0 -92.12,47.594 -92.12,106.297 0,58.707 41.24,106.301 92.12,106.301 50.88,0 92.12,-47.594 92.12,-106.301"
         style="fill:#0000ff;fill-opacity:1;fill-rule:nonzero;stroke:none"
         id="path150"
         inkscape:connector-curvature="0" /><path
         d="m 6596.11,575.078 c 0,-58.703 -41.24,-106.297 -92.12,-106.297 -50.88,0 -92.12,47.594 -92.12,106.297 0,58.707 41.24,106.301 92.12,106.301 50.88,0 92.12,-47.594 92.12,-106.301 z"
         style="fill:none;stroke:#0000ff;stroke-width:28.34600067;stroke-linecap:butt;stroke-linejoin:miter;stroke-miterlimit:10;stroke-dasharray:none;stroke-opacity:1"
         id="path152"
         inkscape:connector-curvature="0" /><path
         d="m 6227.31,2560.72 c 30.17,0 49.61,10.89 49.61,38.42 0,23.4 -16.28,33.7 -35.09,36.27 l 0,0.4 c 19.17,3.7 30.39,15.03 30.39,30.1 0,10.64 -4.43,18.55 -12.54,23.76 -7.88,5.03 -20.02,7.15 -35.78,7.15 l -58.45,0 0,-5.68 c 17.2,-1.14 17.6,-1.5 17.6,-12.28 l 0,-99.81 c 0,-11.11 -0.4,-11.51 -17.6,-12.65 l 0,-5.68 61.86,0 m -25.49,70.4 15.18,0 c 25.05,0 38.8,-12.32 38.8,-33.37 0,-23.87 -16.5,-30.21 -33.77,-30.21 -16.83,0 -20.21,2.97 -20.21,15.29 l 0,48.29 m 0,49.27 c 0,8.44 0.63,9.61 17.06,9.61 15.17,0 32.23,-5.39 32.23,-25.26 0,-19.18 -13.28,-26.8 -35.17,-26.8 l -14.12,0 0,42.45"
         style="fill:#000000;fill-opacity:1;fill-rule:nonzero;stroke:none"
         id="path154"
         inkscape:connector-curvature="0" /><path
         d="m 6325.95,2659.28 -30.07,-5.28 0,-5.25 7.41,-0.95 c 5.1,-0.81 6.27,-1.76 6.27,-8.76 l 0,-62.15 c 0,-10.09 -0.99,-10.49 -14.67,-10.49 l 0,-5.68 52,0 0,5.68 c -17.39,0 -18.56,0.4 -18.56,10.49 l 0,46.23 c 0,14.74 6.64,19.73 11.15,19.73 3.11,0 6.45,-1.03 12.1,-3.81 1.39,-0.7 2.93,-0.88 3.92,-0.88 4.7,0 8.98,4.84 8.98,10.81 0,4.62 -2.75,10.31 -10.37,10.31 -7.04,0 -12.87,-4.62 -25.78,-16.76 l -2.38,16.76"
         style="fill:#000000;fill-opacity:1;fill-rule:nonzero;stroke:none"
         id="path156"
         inkscape:connector-curvature="0" /><path
         d="m 6434.37,2587.96 c 0,-16.06 -12.8,-20.2 -20.87,-20.2 -12.83,0 -19.02,8.65 -19.02,20.28 0,9.34 4.54,14.11 16.13,18.29 8.25,2.97 19.21,6.75 23.76,9.53 l 0,-27.9 m 18.77,44.99 c 0,11.37 -2.71,26.1 -34.06,26.1 -22.4,0 -40.04,-11.65 -40.04,-22.51 0,-6.38 6.89,-9.34 10.41,-9.34 4.25,0 5.46,2.19 6.49,5.57 4.44,14.7 12.76,19.47 20.86,19.47 8.07,0 17.57,-3.96 17.57,-19.88 l 0,-8.36 c -4.99,-5.17 -24.35,-10.12 -40.12,-15.1 -14.37,-4.36 -18.55,-14.3 -18.55,-23.65 0,-14.19 9.61,-26.88 27.65,-26.88 12.83,0 24.2,6.75 30.8,10.6 2.93,-6.53 6.27,-10.6 13.56,-10.6 7.34,0 15.88,2.06 23.4,5.61 l -1.18,3.78 c -2.75,0 -7.04,0 -9.97,0.77 -3.48,0.81 -6.82,4.54 -6.82,16.9 l 0,47.52"
         style="fill:#000000;fill-opacity:1;fill-rule:nonzero;stroke:none"
         id="path158"
         inkscape:connector-curvature="0" /><path
         d="m 6489.87,2576.89 c 0,-10.09 -0.59,-10.49 -14.67,-10.49 l 0,-5.68 48.11,0 0,5.68 c -13.9,0 -14.67,0.4 -14.67,10.49 l 0,33.11 0.41,0 c 7.99,-12.62 21.88,-29.48 32.04,-39.79 7.23,-7.18 14.85,-9.49 21.09,-9.49 l 14.62,0 0,4.51 c -5.82,1.57 -10.7,4.51 -16.75,10.59 -12.14,11.96 -27.35,30.62 -34.8,41.22 -0.95,1.35 -1.36,2.34 0.59,4.51 9.39,10.78 15.62,16.46 22.29,21.37 6.64,4.92 11.51,7.26 22.85,8.44 l 0,5.57 -20.14,0 c -6.63,0 -8.39,-0.99 -12.28,-5.79 -5.68,-6.97 -25.01,-31.65 -29.51,-38.43 l -0.41,0 0,92.33 -1.39,1.17 -31.06,-4.88 0,-4.91 7.41,-0.77 c 5.1,-0.59 6.27,-1.58 6.27,-8.98 l 0,-109.78"
         style="fill:#000000;fill-opacity:1;fill-rule:nonzero;stroke:none"
         id="path160"
         inkscape:connector-curvature="0" /><path
         d="m 6661.64,2612.34 c 4.25,0 8.1,0.88 8.1,6.82 0,11.7 -3.74,39.89 -39.67,39.89 -30.4,0 -44.81,-21.7 -44.81,-51.07 0,-30.73 13.24,-49.61 44.99,-49.61 21.78,0 32.96,11.92 38.28,27.32 l -6.08,3.15 c -5.5,-11.55 -12.95,-21.08 -28.42,-21.08 -22.99,0 -27.65,23.87 -27.65,44.58 l 55.26,0 m -55.26,6.82 c 0,8.18 2.86,33.08 22.55,33.08 17.6,0 19.69,-18.92 19.69,-26.7 0,-3.77 -1.14,-6.38 -6.45,-6.38 l -35.79,0"
         style="fill:#000000;fill-opacity:1;fill-rule:nonzero;stroke:none"
         id="path162"
         inkscape:connector-curvature="0" /><path
         d="m 6251.4,232.094 c 30.18,0 49.61,10.89 49.61,38.426 0,23.394 -16.28,33.695 -35.09,36.261 l 0,0.407 c 19.18,3.703 30.4,15.031 30.4,30.101 0,10.633 -4.44,18.555 -12.54,23.758 -7.89,5.023 -20.02,7.152 -35.79,7.152 l -58.44,0 0,-5.683 c 17.19,-1.137 17.59,-1.504 17.59,-12.286 l 0,-99.804 c 0,-11.11 -0.4,-11.512 -17.59,-12.649 l 0,-5.683 61.85,0 m -25.48,70.398 15.18,0 c 25.04,0 38.79,-12.32 38.79,-33.367 0,-23.867 -16.5,-30.211 -33.77,-30.211 -16.83,0 -20.2,2.969 -20.2,15.289 l 0,48.289 m 0,49.281 c 0,8.434 0.62,9.606 17.05,9.606 15.18,0 32.23,-5.391 32.23,-25.262 0,-19.179 -13.27,-26.805 -35.16,-26.805 l -14.12,0 0,42.461"
         style="fill:#000000;fill-opacity:1;fill-rule:nonzero;stroke:none"
         id="path164"
         inkscape:connector-curvature="0" /><path
         d="m 6350.04,330.652 -30.06,-5.281 0,-5.242 7.4,-0.953 c 5.1,-0.809 6.27,-1.762 6.27,-8.762 l 0,-62.152 c 0,-10.082 -0.99,-10.485 -14.67,-10.485 l 0,-5.683 52,0 0,5.683 c -17.38,0 -18.55,0.403 -18.55,10.485 l 0,46.238 c 0,14.738 6.63,19.727 11.14,19.727 3.12,0 6.45,-1.028 12.1,-3.813 1.4,-0.699 2.94,-0.883 3.92,-0.883 4.7,0 8.99,4.84 8.99,10.817 0,4.621 -2.75,10.304 -10.38,10.304 -7.04,0 -12.87,-4.621 -25.77,-16.757 l -2.39,16.757"
         style="fill:#000000;fill-opacity:1;fill-rule:nonzero;stroke:none"
         id="path166"
         inkscape:connector-curvature="0" /><path
         d="m 6458.46,259.336 c 0,-16.059 -12.8,-20.203 -20.86,-20.203 -12.83,0 -19.03,8.652 -19.03,20.277 0,9.348 4.55,14.117 16.13,18.297 8.25,2.969 19.21,6.746 23.76,9.531 l 0,-27.902 m 18.77,44.988 c 0,11.367 -2.71,26.11 -34.06,26.11 -22.4,0 -40.04,-11.661 -40.04,-22.516 0,-6.379 6.9,-9.348 10.42,-9.348 4.25,0 5.46,2.2 6.49,5.575 4.43,14.703 12.76,19.468 20.86,19.468 8.06,0 17.56,-3.961 17.56,-19.875 l 0,-8.359 c -4.98,-5.168 -24.35,-10.121 -40.11,-15.106 -14.37,-4.363 -18.55,-14.3 -18.55,-23.652 0,-14.187 9.6,-26.875 27.64,-26.875 12.83,0 24.2,6.746 30.8,10.598 2.94,-6.528 6.27,-10.598 13.57,-10.598 7.33,0 15.87,2.055 23.39,5.609 l -1.17,3.778 c -2.75,0 -7.04,0 -9.98,0.769 -3.48,0.809 -6.82,4.547 -6.82,16.903 l 0,47.519"
         style="fill:#000000;fill-opacity:1;fill-rule:nonzero;stroke:none"
         id="path168"
         inkscape:connector-curvature="0" /><path
         d="m 6513.96,248.262 c 0,-10.082 -0.58,-10.485 -14.66,-10.485 l 0,-5.683 48.1,0 0,5.683 c -13.89,0 -14.67,0.403 -14.67,10.485 l 0,33.109 0.41,0 c 7.99,-12.613 21.89,-29.476 32.05,-39.781 7.22,-7.188 14.85,-9.496 21.08,-9.496 l 14.63,0 0,4.508 c -5.83,1.578 -10.71,4.511 -16.76,10.597 -12.14,11.953 -27.35,30.617 -34.79,41.215 -0.96,1.356 -1.36,2.344 0.58,4.508 9.39,10.781 15.62,16.465 22.3,21.379 6.63,4.91 11.51,7.258 22.84,8.429 l 0,5.575 -20.13,0 c -6.64,0 -8.4,-0.989 -12.28,-5.793 -5.69,-6.965 -25.01,-31.641 -29.52,-38.426 l -0.41,0 0,92.324 -1.39,1.176 -31.05,-4.879 0,-4.91 7.4,-0.774 c 5.1,-0.585 6.27,-1.574 6.27,-8.98 l 0,-109.781"
         style="fill:#000000;fill-opacity:1;fill-rule:nonzero;stroke:none"
         id="path170"
         inkscape:connector-curvature="0" /><path
         d="m 6685.73,283.719 c 4.25,0 8.11,0.879 8.11,6.82 0,11.695 -3.74,39.895 -39.68,39.895 -30.39,0 -44.8,-21.707 -44.8,-51.079 0,-30.726 13.23,-49.609 44.99,-49.609 21.77,0 32.96,11.918 38.27,27.316 l -6.08,3.153 c -5.5,-11.547 -12.94,-21.082 -28.42,-21.082 -22.99,0 -27.64,23.871 -27.64,44.586 l 55.25,0 m -55.25,6.82 c 0,8.176 2.86,33.074 22.55,33.074 17.59,0 19.68,-18.922 19.68,-26.695 0,-3.773 -1.13,-6.379 -6.45,-6.379 l -35.78,0"
         style="fill:#000000;fill-opacity:1;fill-rule:nonzero;stroke:none"
         id="path172"
         inkscape:connector-curvature="0" /><path
         d="m 1054.47,2375.05 c 0,-58.7 -41.24,-106.3 -92.122,-106.3 -50.879,0 -92.125,47.6 -92.125,106.3 0,58.7 41.246,106.3 92.125,106.3 50.882,0 92.122,-47.6 92.122,-106.3"
         style="fill:#0000ff;fill-opacity:1;fill-rule:nonzero;stroke:none"
         id="path174"
         inkscape:connector-curvature="0" /><path
         d="m 1054.47,2375.05 c 0,-58.7 -41.24,-106.3 -92.122,-106.3 -50.879,0 -92.125,47.6 -92.125,106.3 0,58.7 41.246,106.3 92.125,106.3 50.882,0 92.122,-47.6 92.122,-106.3 z"
         style="fill:none;stroke:#0000ff;stroke-width:28.34600067;stroke-linecap:butt;stroke-linejoin:miter;stroke-miterlimit:10;stroke-dasharray:none;stroke-opacity:1"
         id="path176"
         inkscape:connector-curvature="0" /><path
         d="m 1805.64,2375.05 c 0,-58.7 -41.25,-106.3 -92.12,-106.3 -50.88,0 -92.13,47.6 -92.13,106.3 0,58.7 41.25,106.3 92.13,106.3 50.87,0 92.12,-47.6 92.12,-106.3"
         style="fill:#0000ff;fill-opacity:1;fill-rule:nonzero;stroke:none"
         id="path178"
         inkscape:connector-curvature="0" /><path
         d="m 1805.64,2375.05 c 0,-58.7 -41.25,-106.3 -92.12,-106.3 -50.88,0 -92.13,47.6 -92.13,106.3 0,58.7 41.25,106.3 92.13,106.3 50.87,0 92.12,-47.6 92.12,-106.3 z"
         style="fill:none;stroke:#0000ff;stroke-width:28.34600067;stroke-linecap:butt;stroke-linejoin:miter;stroke-miterlimit:10;stroke-dasharray:none;stroke-opacity:1"
         id="path180"
         inkscape:connector-curvature="0" /><path
         d="m 1524.73,363.531 11.63,0 c 9.24,0 18.26,0.77 25.66,2.528 15.48,3.925 33.11,14.484 33.11,38.941 0,14.848 -6.59,25.004 -15.61,30.504 -9.61,5.867 -22.45,7.812 -36.45,7.812 l -54.71,0 0,-5.683 c 17.2,-1.137 17.6,-1.539 17.6,-12.504 l 0,-99.512 c 0,-11.148 -0.4,-11.515 -17.6,-12.722 l 0,-5.684 57.97,0 0,5.684 c -20.97,1.207 -21.6,1.574 -21.6,12.722 l 0,37.914 m 0,65.742 c 0,5.461 2.24,7.223 15.48,7.223 20.97,0 33.81,-11.551 33.81,-32.891 0,-24.457 -16.69,-33.257 -34.22,-33.257 -12.02,0 -15.07,0.406 -15.07,7.629 l 0,51.296"
         style="fill:#000000;fill-opacity:1;fill-rule:nonzero;stroke:none"
         id="path182"
         inkscape:connector-curvature="0" /><path
         d="m 1610.18,399.5 0,-4.879 7.11,-0.988 c 4.84,-0.77 5.98,-1.762 5.98,-8.801 l 0,-61.562 c 0,-9.973 -0.56,-10.375 -14.09,-10.375 l 0,-5.684 47.3,0 0,5.684 c -13.67,0 -14.44,0.402 -14.44,10.375 l 0,79.968 -1.4,1.176 -30.46,-4.914 m 22.29,46.16 c -6.82,0 -11.55,-4.984 -11.55,-11.914 0,-6.746 4.73,-11.551 11.55,-11.551 7.33,0 11.91,4.805 11.91,11.551 0,6.93 -4.69,11.914 -11.91,11.914"
         style="fill:#000000;fill-opacity:1;fill-rule:nonzero;stroke:none"
         id="path184"
         inkscape:connector-curvature="0" /><path
         d="m 1725.9,403.422 0,-6.234 9.87,-0.989 c 3.22,-0.367 3.81,-2.531 3,-5.242 -1.57,-6.269 -5.31,-17.562 -9.86,-30.066 l -13.27,-36.082 -0.37,0 -11.81,32.781 c -3.85,11.109 -7.73,22.437 -11.4,32.961 -1.36,3.703 -0.59,5.281 3.08,5.648 l 8.73,0.989 0,6.234 -43.67,0 0,-6.234 c 9.16,-0.77 10.92,-1.575 13.82,-8.797 5.28,-12.871 9.75,-25.559 14.63,-39.016 l 15,-42.164 13.93,0 17.53,47.445 c 5.72,15.289 11.4,28.235 14.15,34.504 2.97,6.856 5.13,8.028 14.19,8.028 l 0,6.234 -37.55,0"
         style="fill:#000000;fill-opacity:1;fill-rule:nonzero;stroke:none"
         id="path186"
         inkscape:connector-curvature="0" /><path
         d="m 1816.94,405.551 c -31.35,0 -46.82,-18.629 -46.82,-50.344 0,-31.719 15.47,-50.344 46.82,-50.344 31.76,0 47.04,18.625 47.04,50.344 0,31.715 -15.28,50.344 -47.04,50.344 m -25.7,-50.344 c 0,27.059 8.36,43.523 25.7,43.523 17.71,0 25.92,-16.464 25.92,-43.523 0,-27.062 -8.21,-43.523 -25.92,-43.523 -17.34,0 -25.7,16.461 -25.7,43.523"
         style="fill:#000000;fill-opacity:1;fill-rule:nonzero;stroke:none"
         id="path188"
         inkscape:connector-curvature="0" /><path
         d="m 1941.21,395.613 0,7.809 -25.18,0 0,24.605 -5.8,0 -12.17,-24.605 -14.89,0 0,-7.809 14.08,0 0,-69.043 c 0,-19.433 15.14,-21.707 22.11,-21.707 9.98,0 19.33,4.692 25.01,7.957 l -1.58,3.996 c -4.69,-1.98 -8.98,-2.566 -13.86,-2.566 -6.63,0 -12.9,4.766 -12.9,19.836 l 0,61.527 25.18,0"
         style="fill:#000000;fill-opacity:1;fill-rule:nonzero;stroke:none"
         id="path190"
         inkscape:connector-curvature="0" /><path
         d="m 1520.48,2641.13 11.63,0 c 9.24,0 18.26,0.77 25.66,2.53 15.48,3.93 33.11,14.48 33.11,38.94 0,14.85 -6.6,25.01 -15.62,30.51 -9.6,5.86 -22.44,7.81 -36.44,7.81 l -54.71,0 0,-5.69 c 17.2,-1.13 17.6,-1.53 17.6,-12.5 l 0,-99.51 c 0,-11.15 -0.4,-11.52 -17.6,-12.72 l 0,-5.69 57.97,0 0,5.69 c -20.97,1.2 -21.6,1.57 -21.6,12.72 l 0,37.91 m 0,65.75 c 0,5.46 2.24,7.22 15.48,7.22 20.97,0 33.8,-11.55 33.8,-32.89 0,-24.46 -16.68,-33.26 -34.21,-33.26 -12.02,0 -15.07,0.41 -15.07,7.63 l 0,51.3"
         style="fill:#000000;fill-opacity:1;fill-rule:nonzero;stroke:none"
         id="path192"
         inkscape:connector-curvature="0" /><path
         d="m 1605.92,2677.1 0,-4.88 7.12,-0.99 c 4.84,-0.77 5.97,-1.76 5.97,-8.8 l 0,-61.56 c 0,-9.97 -0.55,-10.37 -14.08,-10.37 l 0,-5.69 47.3,0 0,5.69 c -13.68,0 -14.44,0.4 -14.44,10.37 l 0,79.97 -1.4,1.18 -30.47,-4.92 m 22.29,46.16 c -6.82,0 -11.55,-4.98 -11.55,-11.91 0,-6.75 4.73,-11.55 11.55,-11.55 7.34,0 11.92,4.8 11.92,11.55 0,6.93 -4.69,11.91 -11.92,11.91"
         style="fill:#000000;fill-opacity:1;fill-rule:nonzero;stroke:none"
         id="path194"
         inkscape:connector-curvature="0" /><path
         d="m 1721.65,2681.02 0,-6.23 9.87,-0.99 c 3.22,-0.37 3.81,-2.53 3,-5.24 -1.57,-6.27 -5.31,-17.56 -9.86,-30.07 l -13.27,-36.08 -0.37,0 -11.81,32.78 c -3.85,11.11 -7.73,22.44 -11.4,32.96 -1.36,3.71 -0.59,5.28 3.08,5.65 l 8.73,0.99 0,6.23 -43.67,0 0,-6.23 c 9.16,-0.77 10.92,-1.58 13.82,-8.8 5.28,-12.87 9.75,-25.56 14.63,-39.01 l 14.99,-42.17 13.94,0 17.53,47.45 c 5.71,15.29 11.4,28.23 14.15,34.5 2.97,6.86 5.13,8.03 14.19,8.03 l 0,6.23 -37.55,0"
         style="fill:#000000;fill-opacity:1;fill-rule:nonzero;stroke:none"
         id="path196"
         inkscape:connector-curvature="0" /><path
         d="m 1812.69,2683.15 c -31.35,0 -46.82,-18.63 -46.82,-50.34 0,-31.72 15.47,-50.35 46.82,-50.35 31.75,0 47.04,18.63 47.04,50.35 0,31.71 -15.29,50.34 -47.04,50.34 m -25.71,-50.34 c 0,27.06 8.37,43.52 25.71,43.52 17.71,0 25.92,-16.46 25.92,-43.52 0,-27.06 -8.21,-43.52 -25.92,-43.52 -17.34,0 -25.71,16.46 -25.71,43.52"
         style="fill:#000000;fill-opacity:1;fill-rule:nonzero;stroke:none"
         id="path198"
         inkscape:connector-curvature="0" /><path
         d="m 1936.96,2673.21 0,7.81 -25.19,0 0,24.61 -5.79,0 -12.17,-24.61 -14.89,0 0,-7.81 14.08,0 0,-69.04 c 0,-19.43 15.14,-21.71 22.11,-21.71 9.98,0 19.32,4.7 25.01,7.96 l -1.58,4 c -4.69,-1.98 -8.98,-2.57 -13.86,-2.57 -6.64,0 -12.91,4.77 -12.91,19.84 l 0,61.52 25.19,0"
         style="fill:#000000;fill-opacity:1;fill-rule:nonzero;stroke:none"
         id="path200"
         inkscape:connector-curvature="0" /></g></g></svg>