<?xml version="1.0" encoding="UTF-8" standalone="no"?>
<!DOCTYPE svg PUBLIC "-//W3C//DTD SVG 1.0//EN" "http://www.w3.org/TR/2001/PR-SVG-20010719/DTD/svg10.dtd">
<svg width="8cm" height="8cm" viewBox="307 107 151 151" xmlns="http://www.w3.org/2000/svg" xmlns:xlink="http://www.w3.org/1999/xlink">
  <g>
    <ellipse style="fill: #ffffff" cx="382.25" cy="182.25" rx="74.25" ry="74.25"/>
    <ellipse style="fill: none; fill-opacity:0; stroke-width: 2; stroke: #000000" cx="382.25" cy="182.25" rx="74.25" ry="74.25"/>
    <ellipse style="fill: none; fill-opacity:0; stroke-width: 2; stroke: #000000" cx="382.25" cy="182.25" rx="74.25" ry="74.25"/>
  </g>
  <g>
    <polygon style="fill: #dcdcff" points="345.5,186 361,186 345.5,233 330,233 "/>
    <polygon style="fill: none; fill-opacity:0; stroke-width: 2; stroke: #000000" points="345.5,186 361,186 345.5,233 330,233 "/>
    <polygon style="fill: none; fill-opacity:0; stroke-width: 2; stroke: #000000" points="345.5,186 361,186 345.5,233 330,233 "/>
  </g>
  <g>
    <polygon style="fill: #dcdcff" points="417.782,184.1 433.282,184.1 417.782,231.1 402.282,231.1 "/>
    <polygon style="fill: none; fill-opacity:0; stroke-width: 2; stroke: #000000" points="417.782,184.1 433.282,184.1 417.782,231.1 402.282,231.1 "/>
    <polygon style="fill: none; fill-opacity:0; stroke-width: 2; stroke: #000000" points="417.782,184.1 433.282,184.1 417.782,231.1 402.282,231.1 "/>
  </g>
  <g>
    <polygon style="fill: #dcdcff" points="384.682,111.2 400.182,111.2 384.682,158.2 369.182,158.2 "/>
    <polygon style="fill: none; fill-opacity:0; stroke-width: 2; stroke: #000000" points="384.682,111.2 400.182,111.2 384.682,158.2 369.182,158.2 "/>
    <polygon style="fill: none; fill-opacity:0; stroke-width: 2; stroke: #000000" points="384.682,111.2 400.182,111.2 384.682,158.2 369.182,158.2 "/>
  </g>
  <g>
    <ellipse style="fill: #0000ff" cx="416.75" cy="205.75" rx="12.75" ry="12.75"/>
    <ellipse style="fill: none; fill-opacity:0; stroke-width: 2; stroke: #000000" cx="416.75" cy="205.75" rx="12.75" ry="12.75"/>
    <ellipse style="fill: none; fill-opacity:0; stroke-width: 2; stroke: #000000" cx="416.75" cy="205.75" rx="12.75" ry="12.75"/>
  </g>
  <g>
    <ellipse style="fill: #0000ff" cx="346.65" cy="207.85" rx="12.75" ry="12.75"/>
    <ellipse style="fill: none; fill-opacity:0; stroke-width: 2; stroke: #000000" cx="346.65" cy="207.85" rx="12.75" ry="12.75"/>
    <ellipse style="fill: none; fill-opacity:0; stroke-width: 2; stroke: #000000" cx="346.65" cy="207.85" rx="12.75" ry="12.75"/>
  </g>
  <g>
    <ellipse style="fill: #0000ff" cx="385.55" cy="134.95" rx="12.75" ry="12.75"/>
    <ellipse style="fill: none; fill-opacity:0; stroke-width: 2; stroke: #000000" cx="385.55" cy="134.95" rx="12.75" ry="12.75"/>
    <ellipse style="fill: none; fill-opacity:0; stroke-width: 2; stroke: #000000" cx="385.55" cy="134.95" rx="12.75" ry="12.75"/>
  </g>
  <line style="fill: none; fill-opacity:0; stroke-width: 2; stroke: #000000" x1="398.3" y1="134.95" x2="429.5" y2="205.75"/>
  <line style="fill: none; fill-opacity:0; stroke-width: 2; stroke: #000000" x1="416.75" y1="218.5" x2="346.65" y2="220.6"/>
  <line style="fill: none; fill-opacity:0; stroke-width: 2; stroke: #000000" x1="372.8" y1="134.95" x2="333.9" y2="207.85"/>
</svg>
