<?xml version="1.0" encoding="UTF-8" standalone="no"?>
<!DOCTYPE svg PUBLIC "-//W3C//DTD SVG 1.0//EN" "http://www.w3.org/TR/2001/PR-SVG-20010719/DTD/svg10.dtd">
<svg width="22cm" height="19cm" viewBox="230 66 429 378" xmlns="http://www.w3.org/2000/svg" xmlns:xlink="http://www.w3.org/1999/xlink">
  <g>
    <rect style="fill: #ff0000" x="232" y="68" width="426" height="53"/>
    <rect style="fill: none; fill-opacity:0; stroke-width: 2; stroke: #ff0000" x="232" y="68" width="426" height="53"/>
  </g>
  <g>
    <rect style="fill: #ff0000" x="233" y="177" width="181" height="52"/>
    <rect style="fill: none; fill-opacity:0; stroke-width: 2; stroke: #ff0000" x="233" y="177" width="181" height="52"/>
  </g>
  <g>
    <rect style="fill: #ff0000" x="598" y="122" width="59" height="159"/>
    <rect style="fill: none; fill-opacity:0; stroke-width: 2; stroke: #ff0000" x="598" y="122" width="59" height="159"/>
  </g>
  <g>
    <rect style="fill: #ff0000" x="233.6" y="230" width="59.4" height="158"/>
    <rect style="fill: none; fill-opacity:0; stroke-width: 2; stroke: #ff0000" x="233.6" y="230" width="59.4" height="158"/>
  </g>
  <g>
    <rect style="fill: #ff0000" x="478" y="174" width="119" height="54"/>
    <rect style="fill: none; fill-opacity:0; stroke-width: 2; stroke: #ff0000" x="478" y="174" width="119" height="54"/>
  </g>
  <g>
    <rect style="fill: #ff0000" x="231.6" y="388.5" width="425.4" height="54.5"/>
    <rect style="fill: none; fill-opacity:0; stroke-width: 2; stroke: #ff0000" x="231.6" y="388.5" width="425.4" height="54.5"/>
  </g>
  <g>
    <rect style="fill: #ff0000" x="354" y="283.3" width="303" height="54.5"/>
    <rect style="fill: none; fill-opacity:0; stroke-width: 2; stroke: #ff0000" x="354" y="283.3" width="303" height="54.5"/>
  </g>
  <g>
    <line style="fill: none; fill-opacity:0; stroke-width: 2; stroke: #7f7f7f" x1="233" y1="82.3571" x2="658" y2="82.3571"/>
    <line style="fill: none; fill-opacity:0; stroke-width: 2; stroke: #7f7f7f" x1="233" y1="95.7143" x2="658" y2="95.7143"/>
    <line style="fill: none; fill-opacity:0; stroke-width: 2; stroke: #7f7f7f" x1="233" y1="109.071" x2="658" y2="109.071"/>
    <line style="fill: none; fill-opacity:0; stroke-width: 2; stroke: #7f7f7f" x1="233" y1="122.429" x2="658" y2="122.429"/>
    <line style="fill: none; fill-opacity:0; stroke-width: 2; stroke: #7f7f7f" x1="233" y1="135.786" x2="658" y2="135.786"/>
    <line style="fill: none; fill-opacity:0; stroke-width: 2; stroke: #7f7f7f" x1="233" y1="149.143" x2="658" y2="149.143"/>
    <line style="fill: none; fill-opacity:0; stroke-width: 2; stroke: #7f7f7f" x1="233" y1="162.5" x2="658" y2="162.5"/>
    <line style="fill: none; fill-opacity:0; stroke-width: 2; stroke: #7f7f7f" x1="233" y1="175.857" x2="658" y2="175.857"/>
    <line style="fill: none; fill-opacity:0; stroke-width: 2; stroke: #7f7f7f" x1="233" y1="189.214" x2="658" y2="189.214"/>
    <line style="fill: none; fill-opacity:0; stroke-width: 2; stroke: #7f7f7f" x1="233" y1="202.571" x2="658" y2="202.571"/>
    <line style="fill: none; fill-opacity:0; stroke-width: 2; stroke: #7f7f7f" x1="233" y1="215.929" x2="658" y2="215.929"/>
    <line style="fill: none; fill-opacity:0; stroke-width: 2; stroke: #7f7f7f" x1="233" y1="229.286" x2="658" y2="229.286"/>
    <line style="fill: none; fill-opacity:0; stroke-width: 2; stroke: #7f7f7f" x1="233" y1="242.643" x2="658" y2="242.643"/>
    <line style="fill: none; fill-opacity:0; stroke-width: 2; stroke: #7f7f7f" x1="233" y1="256" x2="658" y2="256"/>
    <line style="fill: none; fill-opacity:0; stroke-width: 2; stroke: #7f7f7f" x1="233" y1="269.357" x2="658" y2="269.357"/>
    <line style="fill: none; fill-opacity:0; stroke-width: 2; stroke: #7f7f7f" x1="233" y1="282.714" x2="658" y2="282.714"/>
    <line style="fill: none; fill-opacity:0; stroke-width: 2; stroke: #7f7f7f" x1="233" y1="296.071" x2="658" y2="296.071"/>
    <line style="fill: none; fill-opacity:0; stroke-width: 2; stroke: #7f7f7f" x1="233" y1="309.429" x2="658" y2="309.429"/>
    <line style="fill: none; fill-opacity:0; stroke-width: 2; stroke: #7f7f7f" x1="233" y1="322.786" x2="658" y2="322.786"/>
    <line style="fill: none; fill-opacity:0; stroke-width: 2; stroke: #7f7f7f" x1="233" y1="336.143" x2="658" y2="336.143"/>
    <line style="fill: none; fill-opacity:0; stroke-width: 2; stroke: #7f7f7f" x1="233" y1="349.5" x2="658" y2="349.5"/>
    <line style="fill: none; fill-opacity:0; stroke-width: 2; stroke: #7f7f7f" x1="233" y1="362.857" x2="658" y2="362.857"/>
    <line style="fill: none; fill-opacity:0; stroke-width: 2; stroke: #7f7f7f" x1="233" y1="376.214" x2="658" y2="376.214"/>
    <line style="fill: none; fill-opacity:0; stroke-width: 2; stroke: #7f7f7f" x1="233" y1="389.571" x2="658" y2="389.571"/>
    <line style="fill: none; fill-opacity:0; stroke-width: 2; stroke: #7f7f7f" x1="233" y1="402.929" x2="658" y2="402.929"/>
    <line style="fill: none; fill-opacity:0; stroke-width: 2; stroke: #7f7f7f" x1="233" y1="416.286" x2="658" y2="416.286"/>
    <line style="fill: none; fill-opacity:0; stroke-width: 2; stroke: #7f7f7f" x1="233" y1="429.643" x2="658" y2="429.643"/>
    <line style="fill: none; fill-opacity:0; stroke-width: 2; stroke: #7f7f7f" x1="248.179" y1="69" x2="248.179" y2="443"/>
    <line style="fill: none; fill-opacity:0; stroke-width: 2; stroke: #7f7f7f" x1="263.357" y1="69" x2="263.357" y2="443"/>
    <line style="fill: none; fill-opacity:0; stroke-width: 2; stroke: #7f7f7f" x1="278.536" y1="69" x2="278.536" y2="443"/>
    <line style="fill: none; fill-opacity:0; stroke-width: 2; stroke: #7f7f7f" x1="293.714" y1="69" x2="293.714" y2="443"/>
    <line style="fill: none; fill-opacity:0; stroke-width: 2; stroke: #7f7f7f" x1="308.893" y1="69" x2="308.893" y2="443"/>
    <line style="fill: none; fill-opacity:0; stroke-width: 2; stroke: #7f7f7f" x1="324.071" y1="69" x2="324.071" y2="443"/>
    <line style="fill: none; fill-opacity:0; stroke-width: 2; stroke: #7f7f7f" x1="339.25" y1="69" x2="339.25" y2="443"/>
    <line style="fill: none; fill-opacity:0; stroke-width: 2; stroke: #7f7f7f" x1="354.429" y1="69" x2="354.429" y2="443"/>
    <line style="fill: none; fill-opacity:0; stroke-width: 2; stroke: #7f7f7f" x1="369.607" y1="69" x2="369.607" y2="443"/>
    <line style="fill: none; fill-opacity:0; stroke-width: 2; stroke: #7f7f7f" x1="384.786" y1="69" x2="384.786" y2="443"/>
    <line style="fill: none; fill-opacity:0; stroke-width: 2; stroke: #7f7f7f" x1="399.964" y1="69" x2="399.964" y2="443"/>
    <line style="fill: none; fill-opacity:0; stroke-width: 2; stroke: #7f7f7f" x1="415.143" y1="69" x2="415.143" y2="443"/>
    <line style="fill: none; fill-opacity:0; stroke-width: 2; stroke: #7f7f7f" x1="430.321" y1="69" x2="430.321" y2="443"/>
    <line style="fill: none; fill-opacity:0; stroke-width: 2; stroke: #7f7f7f" x1="445.5" y1="69" x2="445.5" y2="443"/>
    <line style="fill: none; fill-opacity:0; stroke-width: 2; stroke: #7f7f7f" x1="460.679" y1="69" x2="460.679" y2="443"/>
    <line style="fill: none; fill-opacity:0; stroke-width: 2; stroke: #7f7f7f" x1="475.857" y1="69" x2="475.857" y2="443"/>
    <line style="fill: none; fill-opacity:0; stroke-width: 2; stroke: #7f7f7f" x1="491.036" y1="69" x2="491.036" y2="443"/>
    <line style="fill: none; fill-opacity:0; stroke-width: 2; stroke: #7f7f7f" x1="506.214" y1="69" x2="506.214" y2="443"/>
    <line style="fill: none; fill-opacity:0; stroke-width: 2; stroke: #7f7f7f" x1="521.393" y1="69" x2="521.393" y2="443"/>
    <line style="fill: none; fill-opacity:0; stroke-width: 2; stroke: #7f7f7f" x1="536.571" y1="69" x2="536.571" y2="443"/>
    <line style="fill: none; fill-opacity:0; stroke-width: 2; stroke: #7f7f7f" x1="551.75" y1="69" x2="551.75" y2="443"/>
    <line style="fill: none; fill-opacity:0; stroke-width: 2; stroke: #7f7f7f" x1="566.929" y1="69" x2="566.929" y2="443"/>
    <line style="fill: none; fill-opacity:0; stroke-width: 2; stroke: #7f7f7f" x1="582.107" y1="69" x2="582.107" y2="443"/>
    <line style="fill: none; fill-opacity:0; stroke-width: 2; stroke: #7f7f7f" x1="597.286" y1="69" x2="597.286" y2="443"/>
    <line style="fill: none; fill-opacity:0; stroke-width: 2; stroke: #7f7f7f" x1="612.464" y1="69" x2="612.464" y2="443"/>
    <line style="fill: none; fill-opacity:0; stroke-width: 2; stroke: #7f7f7f" x1="627.643" y1="69" x2="627.643" y2="443"/>
    <line style="fill: none; fill-opacity:0; stroke-width: 2; stroke: #7f7f7f" x1="642.821" y1="69" x2="642.821" y2="443"/>
    <rect style="fill: none; fill-opacity:0; stroke-width: 2; stroke: #000000" x="233" y="69" width="425" height="374"/>
  </g>
</svg>
