<?xml version="1.0" encoding="UTF-8" standalone="no"?>
<!DOCTYPE svg PUBLIC "-//W3C//DTD SVG 1.0//EN" "http://www.w3.org/TR/2001/PR-SVG-20010719/DTD/svg10.dtd">
<svg width="37cm" height="8cm" viewBox="26 106 731 158" xmlns="http://www.w3.org/2000/svg" xmlns:xlink="http://www.w3.org/1999/xlink">
  <g>
    <line style="fill: none; fill-opacity:0; stroke-width: 2; stroke: #000000" x1="181" y1="207" x2="208.807" y2="187.46"/>
    <path style="fill: #000000" d="M 181 207 C 180.138,205.773 180.502,203.683 181.73,202.821 C 182.957,201.958 185.047,202.323 185.909,203.55 C 186.772,204.778 186.407,206.867 185.179,207.73 C 183.952,208.592 181.862,208.227 181,207z"/>
    <path style="fill: none; fill-opacity:0; stroke-width: 2; stroke: #000000" d="M 181 207 C 180.138,205.773 180.502,203.683 181.73,202.821 C 182.957,201.958 185.047,202.323 185.909,203.55 C 186.772,204.778 186.407,206.867 185.179,207.73 C 183.952,208.592 181.862,208.227 181,207"/>
    <polygon style="fill: #000000" points="216.17,182.286 209.802,194.094 208.807,187.46 202.902,184.276 "/>
    <polygon style="fill: none; fill-opacity:0; stroke-width: 2; stroke: #000000" points="216.17,182.286 209.802,194.094 208.807,187.46 202.902,184.276 "/>
  </g>
  <g>
    <line style="fill: none; fill-opacity:0; stroke-width: 2; stroke: #000000" x1="217.466" y1="181.719" x2="246.896" y2="186.279"/>
    <path style="fill: #000000" d="M 217.466 181.719 C 217.696,180.236 219.408,178.984 220.89,179.213 C 222.372,179.443 223.625,181.155 223.395,182.637 C 223.166,184.12 221.454,185.372 219.971,185.143 C 218.489,184.913 217.236,183.201 217.466,181.719z"/>
    <path style="fill: none; fill-opacity:0; stroke-width: 2; stroke: #000000" d="M 217.466 181.719 C 217.696,180.236 219.408,178.984 220.89,179.213 C 222.372,179.443 223.625,181.155 223.395,182.637 C 223.166,184.12 221.454,185.372 219.971,185.143 C 218.489,184.913 217.236,183.201 217.466,181.719"/>
    <polygon style="fill: #000000" points="255.79,187.658 243.013,191.749 246.896,186.279 244.851,179.891 "/>
    <polygon style="fill: none; fill-opacity:0; stroke-width: 2; stroke: #000000" points="255.79,187.658 243.013,191.749 246.896,186.279 244.851,179.891 "/>
  </g>
  <g>
    <line style="fill: none; fill-opacity:0; stroke-width: 2; stroke: #000000" x1="256.966" y1="188.019" x2="281.172" y2="212.94"/>
    <path style="fill: #000000" d="M 256.966 188.019 C 258.042,186.974 260.163,187.004 261.208,188.08 C 262.253,189.156 262.222,191.278 261.146,192.323 C 260.07,193.368 257.949,193.337 256.904,192.261 C 255.859,191.185 255.89,189.064 256.966,188.019z"/>
    <path style="fill: none; fill-opacity:0; stroke-width: 2; stroke: #000000" d="M 256.966 188.019 C 258.042,186.974 260.163,187.004 261.208,188.08 C 262.253,189.156 262.222,191.278 261.146,192.323 C 260.07,193.368 257.949,193.337 256.904,192.261 C 255.859,191.185 255.89,189.064 256.966,188.019"/>
    <polygon style="fill: #000000" points="287.442,219.396 274.777,214.968 281.172,212.94 283.385,206.608 "/>
    <polygon style="fill: none; fill-opacity:0; stroke-width: 2; stroke: #000000" points="287.442,219.396 274.777,214.968 281.172,212.94 283.385,206.608 "/>
  </g>
  <g>
    <path style="fill: none; fill-opacity:0; stroke-width: 2; stroke: #000000" d="M 289.466,220.318 A 46.6514,46.6514 0 0 0 311.453,239.876"/>
    <path style="fill: #000000" d="M 289.466 220.318 C 290.766,219.569 292.814,220.119 293.563,221.419 C 294.312,222.718 293.762,224.767 292.463,225.516 C 291.163,226.265 289.114,225.715 288.365,224.415 C 287.616,223.116 288.166,221.067 289.466,220.318z"/>
    <path style="fill: none; fill-opacity:0; stroke-width: 2; stroke: #000000" d="M 289.466 220.318 C 290.766,219.569 292.814,220.119 293.563,221.419 C 294.312,222.718 293.762,224.767 292.463,225.516 C 291.163,226.265 289.114,225.715 288.365,224.415 C 287.616,223.116 288.166,221.067 289.466,220.318"/>
    <polygon style="fill: #000000" points="319.796,242.622 306.955,246.508 310.926,241.101 308.982,234.681 "/>
    <polygon style="fill: none; fill-opacity:0; stroke-width: 2; stroke: #000000" points="319.796,242.622 306.955,246.508 310.926,241.101 308.982,234.681 "/>
  </g>
  <g>
    <path style="fill: none; fill-opacity:0; stroke-width: 2; stroke: #000000" d="M 320.322,244 A 36.3682,36.3682 0 0 0 354.048,235.985"/>
    <path style="fill: #000000" d="M 320.322 244 C 320.713,242.552 322.551,241.494 324,241.885 C 325.448,242.275 326.506,244.114 326.115,245.562 C 325.724,247.011 323.886,248.068 322.437,247.678 C 320.989,247.287 319.931,245.448 320.322,244z"/>
    <path style="fill: none; fill-opacity:0; stroke-width: 2; stroke: #000000" d="M 320.322 244 C 320.713,242.552 322.551,241.494 324,241.885 C 325.448,242.275 326.506,244.114 326.115,245.562 C 325.724,247.011 323.886,248.068 322.437,247.678 C 320.989,247.287 319.931,245.448 320.322,244"/>
    <polygon style="fill: #000000" points="359.814,229.535 358.777,242.911 355.179,237.249 348.491,236.73 "/>
    <polygon style="fill: none; fill-opacity:0; stroke-width: 2; stroke: #000000" points="359.814,229.535 358.777,242.911 355.179,237.249 348.491,236.73 "/>
  </g>
  <g>
    <line style="fill: none; fill-opacity:0; stroke-width: 2; stroke: #000000" x1="361.466" y1="229.918" x2="389.273" y2="210.378"/>
    <path style="fill: #000000" d="M 361.466 229.918 C 360.604,228.691 360.968,226.601 362.196,225.739 C 363.423,224.876 365.513,225.241 366.375,226.468 C 367.238,227.696 366.873,229.785 365.645,230.648 C 364.418,231.51 362.328,231.145 361.466,229.918z"/>
    <path style="fill: none; fill-opacity:0; stroke-width: 2; stroke: #000000" d="M 361.466 229.918 C 360.604,228.691 360.968,226.601 362.196,225.739 C 363.423,224.876 365.513,225.241 366.375,226.468 C 367.238,227.696 366.873,229.785 365.645,230.648 C 364.418,231.51 362.328,231.145 361.466,229.918"/>
    <polygon style="fill: #000000" points="396.636,205.204 390.268,217.012 389.273,210.378 383.368,207.194 "/>
    <polygon style="fill: none; fill-opacity:0; stroke-width: 2; stroke: #000000" points="396.636,205.204 390.268,217.012 389.273,210.378 383.368,207.194 "/>
  </g>
  <g>
    <path style="fill: none; fill-opacity:0; stroke-width: 2; stroke: #000000" d="M 397.966,202.218 A 62.7812,62.7812 0 0 0 436.04,199.908"/>
    <path style="fill: #000000" d="M 397.966 202.218 C 398.334,200.764 400.157,199.678 401.611,200.046 C 403.065,200.415 404.151,202.237 403.782,203.691 C 403.414,205.145 401.592,206.231 400.138,205.863 C 398.684,205.494 397.598,203.672 397.966,202.218z"/>
    <path style="fill: none; fill-opacity:0; stroke-width: 2; stroke: #000000" d="M 397.966 202.218 C 398.334,200.764 400.157,199.678 401.611,200.046 C 403.065,200.415 404.151,202.237 403.782,203.691 C 403.414,205.145 401.592,206.231 400.138,205.863 C 398.684,205.494 397.598,203.672 397.966,202.218"/>
    <polygon style="fill: #000000" points="444.089,196.162 436.954,207.523 436.4,200.838 430.719,197.27 "/>
    <polygon style="fill: none; fill-opacity:0; stroke-width: 2; stroke: #000000" points="444.089,196.162 436.954,207.523 436.4,200.838 430.719,197.27 "/>
  </g>
  <g>
    <line style="fill: none; fill-opacity:0; stroke-width: 2; stroke: #000000" x1="443.178" y1="193.935" x2="470.985" y2="174.395"/>
    <path style="fill: #000000" d="M 443.178 193.935 C 442.316,192.707 442.68,190.618 443.908,189.755 C 445.135,188.893 447.225,189.258 448.087,190.485 C 448.95,191.712 448.585,193.802 447.357,194.664 C 446.13,195.527 444.04,195.162 443.178,193.935z"/>
    <path style="fill: none; fill-opacity:0; stroke-width: 2; stroke: #000000" d="M 443.178 193.935 C 442.316,192.707 442.68,190.618 443.908,189.755 C 445.135,188.893 447.225,189.258 448.087,190.485 C 448.95,191.712 448.585,193.802 447.357,194.664 C 446.13,195.527 444.04,195.162 443.178,193.935"/>
    <polygon style="fill: #000000" points="478.348,169.22 471.98,181.029 470.985,174.395 465.08,171.21 "/>
    <polygon style="fill: none; fill-opacity:0; stroke-width: 2; stroke: #000000" points="478.348,169.22 471.98,181.029 470.985,174.395 465.08,171.21 "/>
  </g>
  <g>
    <line style="fill: none; fill-opacity:0; stroke-width: 2; stroke: #000000" x1="479.644" y1="168.653" x2="509.074" y2="173.214"/>
    <path style="fill: #000000" d="M 479.644 168.653 C 479.874,167.171 481.586,165.918 483.068,166.148 C 484.55,166.378 485.803,168.09 485.573,169.572 C 485.344,171.054 483.632,172.307 482.149,172.077 C 480.667,171.848 479.414,170.136 479.644,168.653z"/>
    <path style="fill: none; fill-opacity:0; stroke-width: 2; stroke: #000000" d="M 479.644 168.653 C 479.874,167.171 481.586,165.918 483.068,166.148 C 484.55,166.378 485.803,168.09 485.573,169.572 C 485.344,171.054 483.632,172.307 482.149,172.077 C 480.667,171.848 479.414,170.136 479.644,168.653"/>
    <polygon style="fill: #000000" points="517.968,174.592 505.191,178.684 509.074,173.214 507.029,166.825 "/>
    <polygon style="fill: none; fill-opacity:0; stroke-width: 2; stroke: #000000" points="517.968,174.592 505.191,178.684 509.074,173.214 507.029,166.825 "/>
  </g>
  <g>
    <path style="fill: none; fill-opacity:0; stroke-width: 2; stroke: #000000" d="M 102,243 A 52.9418,52.9418 0 0 0 136.818,239.446"/>
    <path style="fill: #000000" d="M 102 243 C 102.349,241.541 104.158,240.432 105.616,240.782 C 107.075,241.131 108.184,242.939 107.835,244.398 C 107.485,245.857 105.677,246.966 104.218,246.616 C 102.76,246.267 101.651,244.459 102,243z"/>
    <path style="fill: none; fill-opacity:0; stroke-width: 2; stroke: #000000" d="M 102 243 C 102.349,241.541 104.158,240.432 105.616,240.782 C 107.075,241.131 108.184,242.939 107.835,244.398 C 107.485,245.857 105.677,246.966 104.218,246.616 C 102.76,246.267 101.651,244.459 102,243"/>
    <polygon style="fill: #000000" points="144.495,235.083 138.546,247.108 137.318,240.514 131.306,237.539 "/>
    <polygon style="fill: none; fill-opacity:0; stroke-width: 2; stroke: #000000" points="144.495,235.083 138.546,247.108 137.318,240.514 131.306,237.539 "/>
  </g>
  <g>
    <path style="fill: none; fill-opacity:0; stroke-width: 2; stroke: #000000" d="M 145,236 A 122.644,122.644 0 0 0 175.057,212.296"/>
    <path style="fill: #000000" d="M 145 236 C 144.266,234.692 144.841,232.65 146.149,231.916 C 147.458,231.182 149.5,231.757 150.233,233.065 C 150.967,234.374 150.392,236.416 149.084,237.149 C 147.776,237.883 145.734,237.308 145,236z"/>
    <path style="fill: none; fill-opacity:0; stroke-width: 2; stroke: #000000" d="M 145 236 C 144.266,234.692 144.841,232.65 146.149,231.916 C 147.458,231.182 149.5,231.757 150.233,233.065 C 150.967,234.374 150.392,236.416 149.084,237.149 C 147.776,237.883 145.734,237.308 145,236"/>
    <polygon style="fill: #000000" points="180.917,205.507 178.365,218.679 175.434,212.645 168.848,211.369 "/>
    <polygon style="fill: none; fill-opacity:0; stroke-width: 2; stroke: #000000" points="180.917,205.507 178.365,218.679 175.434,212.645 168.848,211.369 "/>
  </g>
  <g>
    <line style="fill: none; fill-opacity:0; stroke-width: 2; stroke: #000000" x1="27.7006" y1="262.534" x2="55.5073" y2="242.994"/>
    <path style="fill: #000000" d="M 27.7006 262.534 C 26.8382,261.307 27.2031,259.217 28.4303,258.355 C 29.6576,257.492 31.7473,257.857 32.6098,259.084 C 33.4722,260.312 33.1073,262.401 31.88,263.264 C 30.6527,264.126 28.563,263.761 27.7006,262.534z"/>
    <path style="fill: none; fill-opacity:0; stroke-width: 2; stroke: #000000" d="M 27.7006 262.534 C 26.8382,261.307 27.2031,259.217 28.4303,258.355 C 29.6576,257.492 31.7473,257.857 32.6098,259.084 C 33.4722,260.312 33.1073,262.401 31.88,263.264 C 30.6527,264.126 28.563,263.761 27.7006,262.534"/>
    <polygon style="fill: #000000" points="62.8711,237.82 56.5024,249.628 55.5073,242.994 49.6031,239.81 "/>
    <polygon style="fill: none; fill-opacity:0; stroke-width: 2; stroke: #000000" points="62.8711,237.82 56.5024,249.628 55.5073,242.994 49.6031,239.81 "/>
  </g>
  <g>
    <line style="fill: none; fill-opacity:0; stroke-width: 2; stroke: #000000" x1="64.1666" y1="237.254" x2="93.597" y2="241.814"/>
    <path style="fill: #000000" d="M 64.1666 237.254 C 64.3963,235.772 66.1082,234.519 67.5905,234.749 C 69.0729,234.978 70.3255,236.69 70.0959,238.173 C 69.8662,239.655 68.1542,240.908 66.6719,240.678 C 65.1896,240.448 63.9369,238.736 64.1666,237.254z"/>
    <path style="fill: none; fill-opacity:0; stroke-width: 2; stroke: #000000" d="M 64.1666 237.254 C 64.3963,235.772 66.1082,234.519 67.5905,234.749 C 69.0729,234.978 70.3255,236.69 70.0959,238.173 C 69.8662,239.655 68.1542,240.908 66.6719,240.678 C 65.1896,240.448 63.9369,238.736 64.1666,237.254"/>
    <polygon style="fill: #000000" points="102.491,243.192 89.7137,247.284 93.597,241.814 91.551,235.425 "/>
    <polygon style="fill: none; fill-opacity:0; stroke-width: 2; stroke: #000000" points="102.491,243.192 89.7137,247.284 93.597,241.814 91.551,235.425 "/>
  </g>
  <g>
    <line style="fill: none; fill-opacity:0; stroke-width: 2; stroke: #000000" x1="597.698" y1="138.511" x2="625.505" y2="118.971"/>
    <path style="fill: #000000" d="M 597.698 138.511 C 596.836,137.283 597.2,135.194 598.428,134.331 C 599.655,133.469 601.745,133.834 602.607,135.061 C 603.47,136.288 603.105,138.378 601.877,139.24 C 600.65,140.103 598.56,139.738 597.698,138.511z"/>
    <path style="fill: none; fill-opacity:0; stroke-width: 2; stroke: #000000" d="M 597.698 138.511 C 596.836,137.283 597.2,135.194 598.428,134.331 C 599.655,133.469 601.745,133.834 602.607,135.061 C 603.47,136.288 603.105,138.378 601.877,139.24 C 600.65,140.103 598.56,139.738 597.698,138.511"/>
    <polygon style="fill: #000000" points="632.868,113.796 626.5,125.605 625.505,118.971 619.6,115.786 "/>
    <polygon style="fill: none; fill-opacity:0; stroke-width: 2; stroke: #000000" points="632.868,113.796 626.5,125.605 625.505,118.971 619.6,115.786 "/>
  </g>
  <g>
    <path style="fill: none; fill-opacity:0; stroke-width: 2; stroke: #000000" d="M 518.698,174.511 A 52.9402,52.9402 0 0 0 553.515,170.957"/>
    <path style="fill: #000000" d="M 518.698 174.511 C 519.048,173.052 520.856,171.943 522.314,172.292 C 523.773,172.642 524.882,174.45 524.533,175.909 C 524.183,177.367 522.375,178.477 520.916,178.127 C 519.458,177.778 518.348,175.969 518.698,174.511z"/>
    <path style="fill: none; fill-opacity:0; stroke-width: 2; stroke: #000000" d="M 518.698 174.511 C 519.048,173.052 520.856,171.943 522.314,172.292 C 523.773,172.642 524.882,174.45 524.533,175.909 C 524.183,177.367 522.375,178.477 520.916,178.127 C 519.458,177.778 518.348,175.969 518.698,174.511"/>
    <polygon style="fill: #000000" points="561.193,166.594 555.244,178.62 554.016,172.025 548.003,169.05 "/>
    <polygon style="fill: none; fill-opacity:0; stroke-width: 2; stroke: #000000" points="561.193,166.594 555.244,178.62 554.016,172.025 548.003,169.05 "/>
  </g>
  <g>
    <path style="fill: none; fill-opacity:0; stroke-width: 2; stroke: #000000" d="M 561.698,167.511 A 122.64,122.64 0 0 0 591.755,143.807"/>
    <path style="fill: #000000" d="M 561.698 167.511 C 560.964,166.202 561.539,164.16 562.847,163.427 C 564.156,162.693 566.198,163.268 566.931,164.576 C 567.665,165.884 567.09,167.926 565.782,168.66 C 564.474,169.394 562.432,168.819 561.698,167.511z"/>
    <path style="fill: none; fill-opacity:0; stroke-width: 2; stroke: #000000" d="M 561.698 167.511 C 560.964,166.202 561.539,164.16 562.847,163.427 C 564.156,162.693 566.198,163.268 566.931,164.576 C 567.665,165.884 567.09,167.926 565.782,168.66 C 564.474,169.394 562.432,168.819 561.698,167.511"/>
    <polygon style="fill: #000000" points="597.614,137.019 595.063,150.19 592.132,144.156 585.546,142.881 "/>
    <polygon style="fill: none; fill-opacity:0; stroke-width: 2; stroke: #000000" points="597.614,137.019 595.063,150.19 592.132,144.156 585.546,142.881 "/>
  </g>
  <g>
    <line style="fill: none; fill-opacity:0; stroke-width: 2; stroke: #000000" x1="634.4" y1="114.356" x2="666.087" y2="114.832"/>
    <path style="fill: #000000" d="M 634.4 114.356 C 634.422,112.857 635.945,111.379 637.445,111.402 C 638.944,111.424 640.422,112.947 640.399,114.446 C 640.377,115.946 638.855,117.424 637.355,117.401 C 635.855,117.379 634.378,115.856 634.4,114.356z"/>
    <path style="fill: none; fill-opacity:0; stroke-width: 2; stroke: #000000" d="M 634.4 114.356 C 634.422,112.857 635.945,111.379 637.445,111.402 C 638.944,111.424 640.422,112.947 640.399,114.446 C 640.377,115.946 638.855,117.424 637.355,117.401 C 635.855,117.379 634.378,115.856 634.4,114.356"/>
    <polygon style="fill: #000000" points="675.086,114.966 662.998,120.786 666.087,114.832 663.177,108.787 "/>
    <polygon style="fill: none; fill-opacity:0; stroke-width: 2; stroke: #000000" points="675.086,114.966 662.998,120.786 666.087,114.832 663.177,108.787 "/>
  </g>
  <g>
    <path style="fill: none; fill-opacity:0; stroke-width: 2; stroke: #000000" d="M 672.866,113.075 A 41.7736,41.7736 0 0 0 702.739,121.831"/>
    <path style="fill: #000000" d="M 672.866 113.075 C 673.794,111.896 675.9,111.646 677.079,112.574 C 678.257,113.501 678.508,115.608 677.58,116.786 C 676.652,117.965 674.546,118.216 673.367,117.288 C 672.189,116.36 671.938,114.254 672.866,113.075z"/>
    <path style="fill: none; fill-opacity:0; stroke-width: 2; stroke: #000000" d="M 672.866 113.075 C 673.794,111.896 675.9,111.646 677.079,112.574 C 678.257,113.501 678.508,115.608 677.58,116.786 C 676.652,117.965 674.546,118.216 673.367,117.288 C 672.189,116.36 671.938,114.254 672.866,113.075"/>
    <polygon style="fill: #000000" points="711.307,120.143 702.184,129.981 702.882,123.309 697.963,118.747 "/>
    <polygon style="fill: none; fill-opacity:0; stroke-width: 2; stroke: #000000" points="711.307,120.143 702.184,129.981 702.882,123.309 697.963,118.747 "/>
  </g>
  <g>
    <line style="fill: none; fill-opacity:0; stroke-width: 2; stroke: #000000" x1="710.366" y1="122.375" x2="744.093" y2="123.594"/>
    <path style="fill: #000000" d="M 710.366 122.375 C 710.42,120.876 711.973,119.431 713.472,119.485 C 714.971,119.54 716.416,121.093 716.362,122.592 C 716.308,124.091 714.755,125.536 713.256,125.481 C 711.757,125.427 710.312,123.874 710.366,122.375z"/>
    <path style="fill: none; fill-opacity:0; stroke-width: 2; stroke: #000000" d="M 710.366 122.375 C 710.42,120.876 711.973,119.431 713.472,119.485 C 714.971,119.54 716.416,121.093 716.362,122.592 C 716.308,124.091 714.755,125.536 713.256,125.481 C 711.757,125.427 710.312,123.874 710.366,122.375"/>
    <polygon style="fill: #000000" points="753.087,123.919 740.878,129.482 744.093,123.594 741.312,117.49 "/>
    <polygon style="fill: none; fill-opacity:0; stroke-width: 2; stroke: #000000" points="753.087,123.919 740.878,129.482 744.093,123.594 741.312,117.49 "/>
  </g>
</svg>
