<?xml version="1.0" encoding="UTF-8" standalone="no"?>
<!DOCTYPE svg PUBLIC "-//W3C//DTD SVG 1.0//EN" "http://www.w3.org/TR/2001/PR-SVG-20010719/DTD/svg10.dtd">
<svg width="6cm" height="6cm" viewBox="334 98 109 106" xmlns="http://www.w3.org/2000/svg" xmlns:xlink="http://www.w3.org/1999/xlink">
  <g>
    <ellipse style="fill: #ffffff" cx="388.5" cy="151" rx="46.5" ry="45"/>
    <ellipse style="fill: none; fill-opacity:0; stroke-width: 2; stroke: #000000" cx="388.5" cy="151" rx="46.5" ry="45"/>
  </g>
  <g>
    <ellipse style="fill: #0000ff" cx="422" cy="120" rx="6.5" ry="6.5"/>
    <ellipse style="fill: none; fill-opacity:0; stroke-width: 2; stroke: #000000" cx="422" cy="120" rx="6.5" ry="6.5"/>
  </g>
  <g>
    <ellipse style="fill: #0000ff" cx="358" cy="117" rx="6.5" ry="6.5"/>
    <ellipse style="fill: none; fill-opacity:0; stroke-width: 2; stroke: #000000" cx="358" cy="117" rx="6.5" ry="6.5"/>
  </g>
  <g>
    <ellipse style="fill: #0000ff" cx="389" cy="106" rx="6.5" ry="6.5"/>
    <ellipse style="fill: none; fill-opacity:0; stroke-width: 2; stroke: #000000" cx="389" cy="106" rx="6.5" ry="6.5"/>
  </g>
  <g>
    <ellipse style="fill: #0000ff" cx="389" cy="196" rx="6.5" ry="6.5"/>
    <ellipse style="fill: none; fill-opacity:0; stroke-width: 2; stroke: #000000" cx="389" cy="196" rx="6.5" ry="6.5"/>
  </g>
  <g>
    <ellipse style="fill: #0000ff" cx="435" cy="149" rx="6.5" ry="6.5"/>
    <ellipse style="fill: none; fill-opacity:0; stroke-width: 2; stroke: #000000" cx="435" cy="149" rx="6.5" ry="6.5"/>
  </g>
  <g>
    <ellipse style="fill: #0000ff" cx="342" cy="148" rx="6.5" ry="6.5"/>
    <ellipse style="fill: none; fill-opacity:0; stroke-width: 2; stroke: #000000" cx="342" cy="148" rx="6.5" ry="6.5"/>
  </g>
  <g>
    <ellipse style="fill: #0000ff" cx="423" cy="180" rx="6.5" ry="6.5"/>
    <ellipse style="fill: none; fill-opacity:0; stroke-width: 2; stroke: #000000" cx="423" cy="180" rx="6.5" ry="6.5"/>
  </g>
  <g>
    <ellipse style="fill: #0000ff" cx="356" cy="182" rx="6.5" ry="6.5"/>
    <ellipse style="fill: none; fill-opacity:0; stroke-width: 2; stroke: #000000" cx="356" cy="182" rx="6.5" ry="6.5"/>
  </g>
</svg>
