<?xml version="1.0" encoding="UTF-8" standalone="no"?>
<!DOCTYPE svg PUBLIC "-//W3C//DTD SVG 1.0//EN" "http://www.w3.org/TR/2001/PR-SVG-20010719/DTD/svg10.dtd">
<svg width="15cm" height="11cm" viewBox="105 5 295 203" xmlns="http://www.w3.org/2000/svg" xmlns:xlink="http://www.w3.org/1999/xlink">
  <g>
    <rect style="fill: #ffffff" x="106" y="128" width="159" height="79"/>
    <rect style="fill: none; fill-opacity:0; stroke-width: 2; stroke-dasharray: 4; stroke: #000000" x="106" y="128" width="159" height="79"/>
  </g>
  <g>
    <line style="fill: none; fill-opacity:0; stroke-width: 2; stroke: #000000" x1="141" y1="168" x2="373.528" y2="167.019"/>
    <polyline style="fill: none; fill-opacity:0; stroke-width: 2; stroke: #000000" points="365.785,172.052 375.764,167.009 365.743,162.052 "/>
  </g>
  <g>
    <line style="fill: none; fill-opacity:0; stroke-width: 2; stroke: #000000" x1="186" y1="200" x2="185.024" y2="21.4721"/>
    <polyline style="fill: none; fill-opacity:0; stroke-width: 2; stroke: #000000" points="190.067,29.2086 185.012,19.236 180.067,29.2632 "/>
  </g>
  <text font-size="12.8" style="fill: #000000;text-anchor:start;font-family:sans-serif;font-style:normal;font-weight:normal" x="384" y="168">
    <tspan x="384" y="168">X</tspan>
  </text>
  <text font-size="12.8" style="fill: #000000;text-anchor:start;font-family:sans-serif;font-style:normal;font-weight:normal" x="192" y="17">
    <tspan x="192" y="17">Y</tspan>
  </text>
  <text font-size="12.8" style="fill: #000000;text-anchor:start;font-family:sans-serif;font-style:normal;font-weight:normal" x="198" y="23">
    <tspan x="198" y="23">R</tspan>
  </text>
  <text font-size="12.8" style="fill: #000000;text-anchor:start;font-family:sans-serif;font-style:normal;font-weight:normal" x="391" y="173">
    <tspan x="391" y="173">R</tspan>
  </text>
  <g>
    <path style="fill: #7f7f7f" d="M 255 68 C 262,64 273,97 266,100 C 259,103 248,72 255,68z"/>
    <path style="fill: none; fill-opacity:0; stroke-width: 2; stroke: #000000" d="M 255 68 C 262,64 273,97 266,100 C 259,103 248,72 255,68"/>
  </g>
  <line style="fill: none; fill-opacity:0; stroke-width: 2; stroke: #000000" x1="185" y1="168" x2="250" y2="117"/>
  <line style="fill: none; fill-opacity:0; stroke-width: 2; stroke: #000000" x1="219" y1="141" x2="226" y2="167"/>
  <text font-size="12.8" style="fill: #000000;text-anchor:start;font-family:LMMathSymbols10;font-style:italic;font-weight:normal" x="337" y="240">
    <tspan x="337" y="240"></tspan>
  </text>
  <text font-size="12.8" style="fill: #000000;text-anchor:start;font-family:sans-serif;font-style:normal;font-weight:normal" x="299" y="235">
    <tspan x="299" y="235"></tspan>
  </text>
  <g>
    <line style="fill: none; fill-opacity:0; stroke-width: 2; stroke: #000000" x1="261" y1="83" x2="271.685" y2="117.726"/>
    <polyline style="fill: none; fill-opacity:0; stroke-width: 2; stroke: #000000" points="264.623,111.775 272.342,119.863 274.18,108.835 "/>
  </g>
  <text font-size="12.8" style="fill: #000000;text-anchor:start;font-family:sans-serif;font-style:normal;font-weight:normal" x="175" y="181">
    <tspan x="175" y="181">P</tspan>
  </text>
  <text font-size="12.8" style="fill: #000000;text-anchor:start;font-family:sans-serif;font-style:normal;font-weight:normal" x="271" y="131">
    <tspan x="271" y="131">v</tspan>
  </text>
  <text font-size="12.8" style="fill: #000000;text-anchor:start;font-family:sans-serif;font-style:normal;font-weight:normal" x="202" y="144">
    <tspan x="202" y="144">L</tspan>
  </text>
  <text font-size="14.6643" style="fill: #000000;text-anchor:start;font-family:SymbolPi;font-style:normal;font-weight:normal" x="231" y="154">
    <tspan x="231" y="154">a</tspan>
  </text>
  <line style="fill: none; fill-opacity:0; stroke-width: 2; stroke: #000000" x1="260" y1="86" x2="250" y2="117"/>
  <text font-size="12.8" style="fill: #000000;text-anchor:start;font-family:sans-serif;font-style:normal;font-weight:normal" x="243" y="103">
    <tspan x="243" y="103">d</tspan>
  </text>
  <text font-size="12.8" style="fill: #000000;text-anchor:start;font-family:sans-serif;font-style:normal;font-weight:normal" x="251" y="125">
    <tspan x="251" y="125">A</tspan>
  </text>
  <text font-size="12.8" style="fill: #000000;text-anchor:start;font-family:sans-serif;font-style:normal;font-weight:normal" x="272" y="83">
    <tspan x="272" y="83">B</tspan>
  </text>
  <g>
    <path style="fill: none; fill-opacity:0; stroke-width: 2; stroke: #000000" d="M 280,61 A 22.5017,22.5017 0 0 0 240.298,53.2391"/>
    <polyline style="fill: none; fill-opacity:0; stroke-width: 2; stroke: #000000" points="238.826,43.8076 238.973,54.9869 247.828,48.161 "/>
  </g>
  <text font-size="12.8" style="fill: #000000;text-anchor:start;font-family:sans-serif;font-style:normal;font-weight:normal" x="270" y="40">
    <tspan x="270" y="40">(t)</tspan>
  </text>
  <text font-size="12.8" style="fill: #000000;text-anchor:start;font-family:SymbolPi;font-style:normal;font-weight:normal" x="264" y="39">
    <tspan x="264" y="39">b</tspan>
  </text>
</svg>
