<?xml version="1.0" encoding="UTF-8" standalone="no"?>
<!-- Created with Inkscape (http://www.inkscape.org/) -->

<svg
   xmlns:dc="http://purl.org/dc/elements/1.1/"
   xmlns:cc="http://creativecommons.org/ns#"
   xmlns:rdf="http://www.w3.org/1999/02/22-rdf-syntax-ns#"
   xmlns:svg="http://www.w3.org/2000/svg"
   xmlns="http://www.w3.org/2000/svg"
   xmlns:sodipodi="http://sodipodi.sourceforge.net/DTD/sodipodi-0.dtd"
   xmlns:inkscape="http://www.inkscape.org/namespaces/inkscape"
   id="svg2"
   version="1.1"
   inkscape:version="0.91 r13725"
   xml:space="preserve"
   width="720"
   height="540"
   viewBox="0 0 720 540"
   sodipodi:docname="path2.svg"><metadata
     id="metadata8"><rdf:RDF><cc:Work
         rdf:about=""><dc:format>image/svg+xml</dc:format><dc:type
           rdf:resource="http://purl.org/dc/dcmitype/StillImage" /><dc:title></dc:title></cc:Work></rdf:RDF></metadata><defs
     id="defs6"><clipPath
       clipPathUnits="userSpaceOnUse"
       id="clipPath20"><path
         d="m 72,43.2 446.4,0 0,345.6 -446.4,0 0,-345.6 z"
         id="path22"
         inkscape:connector-curvature="0" /></clipPath><clipPath
       clipPathUnits="userSpaceOnUse"
       id="clipPath44"><path
         d="m -184,-236 1472,0 0,1165 -1472,0 0,-1165 z"
         id="path46"
         inkscape:connector-curvature="0" /></clipPath><clipPath
       clipPathUnits="userSpaceOnUse"
       id="clipPath66"><path
         d="m -184,-236 1472,0 0,1165 -1472,0 0,-1165 z"
         id="path68"
         inkscape:connector-curvature="0" /></clipPath><clipPath
       clipPathUnits="userSpaceOnUse"
       id="clipPath112"><path
         d="m -184,-236 1472,0 0,1165 -1472,0 0,-1165 z"
         id="path114"
         inkscape:connector-curvature="0" /></clipPath><clipPath
       clipPathUnits="userSpaceOnUse"
       id="clipPath134"><path
         d="m -184,-236 1472,0 0,1165 -1472,0 0,-1165 z"
         id="path136"
         inkscape:connector-curvature="0" /></clipPath></defs><sodipodi:namedview
     pagecolor="#ffffff"
     bordercolor="#666666"
     borderopacity="1"
     objecttolerance="10"
     gridtolerance="10"
     guidetolerance="10"
     inkscape:pageopacity="0"
     inkscape:pageshadow="2"
     inkscape:window-width="640"
     inkscape:window-height="480"
     id="namedview4"
     showgrid="false"
     inkscape:zoom="0.43055556"
     inkscape:cx="360"
     inkscape:cy="270"
     inkscape:window-x="127"
     inkscape:window-y="22"
     inkscape:window-maximized="0"
     inkscape:current-layer="g10" /><g
     id="g10"
     inkscape:groupmode="layer"
     inkscape:label="path2"
     transform="matrix(1.25,0,0,-1.25,0,540)"><path
       d="M 0,0 576,0 576,432 0,432 0,0 Z"
       style="fill:#ffffff;fill-opacity:1;fill-rule:nonzero;stroke:none"
       id="path12"
       inkscape:connector-curvature="0" /><path
       d="m 72,43.2 446.4,0 0,345.6 -446.4,0 0,-345.6 z"
       style="fill:#ffffff;fill-opacity:1;fill-rule:nonzero;stroke:none"
       id="path14"
       inkscape:connector-curvature="0" /><g
       id="g16"><g
         id="g18"
         clip-path="url(#clipPath20)"><path
           d="m 295.2,216 -21.11021,21.76584 -20.92095,21.41912 -20.54413,20.73122 -19.98311,19.71308 -19.24293,18.38092 -18.33025,16.75598 -17.25321,14.86411 -16.02149,12.73548 -14.64615,10.40398 -13.13948,7.90675 -11.51501,5.28358 -9.787318,2.57623 -7.971866,-0.17215 -6.084946,-2.91779 -4.143471,-5.61694 -2.164849,-8.22663 -0.166817,-10.70527 1.832709,-13.01339 3.815804,-15.1142 5.764691,-16.97426 7.661892,-18.56394 9.490401,-19.8579 11.23383,-20.83554 12.87653,-21.48129 14.40381,-21.78485 15.80192,-21.7414 17.05839,-21.35162 18.16191,-20.62173 19.1026,-19.56334 19.87203,-18.19333 20.46329,-16.533513 20.8711,-14.610324 21.09179,-12.454405 21.12338,-10.100097 20.96558,-7.584901 20.61984,-4.948882 20.0892,-2.234033 19.37848,0.516403 18.49401,3.258615 17.44374,5.948917 16.23707,8.544459 14.88484,11.003893 13.39915,13.288043 11.79333,15.360525 10.08179,17.18832 8.27985,18.74233 6.40369,19.99777 4.4701,20.93467 2.49645,21.5381 0.50041,21.79844 -1.50011,21.71154 -3.48719,21.27879 -5.443,20.5071 -7.35001,19.40873 -9.19112,18.00121 -10.94984,16.30692 -12.61038,14.35289 -14.15787,12.17023 -15.57842,9.79369 -16.85931,7.26116 -17.98905,4.61296 -18.9575,1.89128 -19.756,-0.86053 -20.37736,-3.59863 -20.81605,-6.27941 -21.06811,-8.86015 -21.13128,-11.29978 -21.00499,-13.55939 -20.6904,-15.60301 -20.1903,-17.3981 -19.50919,-18.91604 -18.65317,-20.13266 -17.62992,-21.02859 -16.4486,-21.58954 L 131.86843,207.81913 118.21295,186.14286 106.14424,164.94219 95.770488,144.55483 87.184714,125.30555 80.463886,107.50096 75.668261,91.424682 72.840834,77.332801 72.006953,65.44979 l 1.167142,-9.484855 3.157701,-6.935611 5.11995,-4.275888 7.036295,-1.548053 8.889558,1.204442 10.663121,3.93775 12.34109,6.608332 13.9084,9.17365 15.35104,11.592837 16.65603,13.827358 17.8117,15.841618 18.80768,17.60354 19.63504,19.08504 20.28636,20.26253 20.75581,21.11726 83.96807,86.19778 20.28636,20.26253 19.63504,19.08504 18.80768,17.60354 17.8117,15.84162 16.65603,13.82736 15.35104,11.59283 13.9084,9.17365 12.34109,6.60834 10.66312,3.93775 8.88956,1.20444 7.03629,-1.54806 5.11995,-4.27588 3.1577,-6.93561 1.16715,-9.48486 -0.83388,-11.88301 -2.82743,-14.09188 -4.79563,-16.07628 -6.72082,-17.80459 -8.58578,-19.24928 -10.37375,-20.38736 -12.06871,-21.20067 -13.65548,-21.67627 -15.11982,-21.80659 -16.4486,-21.58954 -17.62992,-21.02859 -18.65317,-20.13266 -19.50919,-18.91604 -20.1903,-17.3981 -20.6904,-15.603013 -21.00499,-13.559391 -21.13128,-11.299773 -21.06811,-8.860158 -20.81605,-6.279407 -20.37736,-3.598631 -19.756,-0.86053 -18.9575,1.891279 -17.98905,4.61296 -16.85931,7.261161 -15.57842,9.793696 -14.15787,12.170225 -12.61038,14.352891 -10.949839,16.306921 -9.191126,18.00121 -7.350009,19.40873 -5.442998,20.5071 -3.487188,21.27879 -1.500112,21.71154 0.500411,21.79844 2.496449,21.5381 4.470105,20.93467 6.403685,19.99777 8.279852,18.74233 10.08179,17.18832 11.79333,15.36053 13.39915,13.28804 14.88484,11.00389 16.23707,8.54446 17.44374,5.94892 18.49401,3.25861 19.37848,0.51641 20.0892,-2.23404 20.61984,-4.94888 20.96558,-7.5849 21.12338,-10.1001 21.09179,-12.4544 20.8711,-14.61033 20.46329,-16.53351 19.87203,-18.19333 19.1026,-19.56334 18.16191,-20.62173 17.05839,-21.35162 15.80192,-21.7414 14.40381,-21.78485 12.87653,-21.48129 11.23383,-20.83554 9.4904,-19.8579 7.66189,-18.56394 5.76469,-16.974259 3.81581,-15.114204 1.83271,-13.013383 -0.16682,-10.705271 -2.16485,-8.22663 -4.14347,-5.616944 -6.08495,-2.917786 -7.97186,-0.172149 -9.78732,2.57623 -11.51501,5.283573 -13.13948,7.90675 -14.64615,10.40398 -16.02149,12.735481 -17.25321,14.864116 -18.33025,16.755976 -19.24293,18.38092 -19.98311,19.71308 -20.54413,20.73122 L 295.2,216 l 0,0"
           style="fill:none;stroke:#0000ff;stroke-width:1;stroke-linecap:square;stroke-linejoin:round;stroke-miterlimit:10;stroke-dasharray:none;stroke-opacity:1"
           id="path24"
           inkscape:connector-curvature="0" /></g></g><g
       id="g26"><path
         d="m 72,43.2 0,4"
         style="fill:#000000;fill-opacity:1;fill-rule:nonzero;stroke:#000000;stroke-width:0.5;stroke-linecap:butt;stroke-linejoin:round;stroke-miterlimit:10;stroke-dasharray:none;stroke-opacity:1"
         id="path28"
         inkscape:connector-curvature="0" /><path
         d="m 72,388.8 0,-4"
         style="fill:#000000;fill-opacity:1;fill-rule:nonzero;stroke:#000000;stroke-width:0.5;stroke-linecap:butt;stroke-linejoin:round;stroke-miterlimit:10;stroke-dasharray:none;stroke-opacity:1"
         id="path30"
         inkscape:connector-curvature="0" /><g
         id="g32"
         transform="translate(58.453125,30.075)"><text
           transform="matrix(1,0,0,-1,10.054688,0)"
           style="font-variant:normal;font-weight:normal;font-size:12px;font-family:'Bitstream Vera Sans';-inkscape-font-specification:BitstreamVeraSans-Roman;writing-mode:lr-tb;fill:#000000;fill-opacity:1;fill-rule:nonzero;stroke:none"
           id="text34"><tspan
             x="0 7.632 11.448"
             y="0"
             sodipodi:role="line"
             id="tspan36">1.0</tspan></text>
<g
           id="g38"
           transform="scale(0.012,0.012)"><g
             id="g40"><g
               id="g42"
               clip-path="url(#clipPath44)"><path
                 d="m 106,355 626,0 0,-83 -626,0 0,83"
                 style="fill:#000000;fill-opacity:1;fill-rule:nonzero;stroke:none"
                 id="path48"
                 inkscape:connector-curvature="0" /></g></g></g></g><path
         d="m 183.6,43.2 0,4"
         style="fill:#000000;fill-opacity:1;fill-rule:nonzero;stroke:#000000;stroke-width:0.5;stroke-linecap:butt;stroke-linejoin:round;stroke-miterlimit:10;stroke-dasharray:none;stroke-opacity:1"
         id="path50"
         inkscape:connector-curvature="0" /><path
         d="m 183.6,388.8 0,-4"
         style="fill:#000000;fill-opacity:1;fill-rule:nonzero;stroke:#000000;stroke-width:0.5;stroke-linecap:butt;stroke-linejoin:round;stroke-miterlimit:10;stroke-dasharray:none;stroke-opacity:1"
         id="path52"
         inkscape:connector-curvature="0" /><g
         id="g54"
         transform="translate(170.17812,30.075)"><text
           transform="matrix(1,0,0,-1,10.054688,0)"
           style="font-variant:normal;font-weight:normal;font-size:12px;font-family:'Bitstream Vera Sans';-inkscape-font-specification:BitstreamVeraSans-Roman;writing-mode:lr-tb;fill:#000000;fill-opacity:1;fill-rule:nonzero;stroke:none"
           id="text56"><tspan
             x="0 7.632 11.448"
             y="0"
             sodipodi:role="line"
             id="tspan58">0.5</tspan></text>
<g
           id="g60"
           transform="scale(0.012,0.012)"><g
             id="g62"><g
               id="g64"
               clip-path="url(#clipPath66)"><path
                 d="m 106,355 626,0 0,-83 -626,0 0,83"
                 style="fill:#000000;fill-opacity:1;fill-rule:nonzero;stroke:none"
                 id="path70"
                 inkscape:connector-curvature="0" /></g></g></g></g><path
         d="m 295.2,43.2 0,4"
         style="fill:#000000;fill-opacity:1;fill-rule:nonzero;stroke:#000000;stroke-width:0.5;stroke-linecap:butt;stroke-linejoin:round;stroke-miterlimit:10;stroke-dasharray:none;stroke-opacity:1"
         id="path72"
         inkscape:connector-curvature="0" /><path
         d="m 295.2,388.8 0,-4"
         style="fill:#000000;fill-opacity:1;fill-rule:nonzero;stroke:#000000;stroke-width:0.5;stroke-linecap:butt;stroke-linejoin:round;stroke-miterlimit:10;stroke-dasharray:none;stroke-opacity:1"
         id="path74"
         inkscape:connector-curvature="0" /><text
         transform="matrix(1,0,0,-1,286.45,30.075)"
         style="font-variant:normal;font-weight:normal;font-size:12px;font-family:'Bitstream Vera Sans';-inkscape-font-specification:BitstreamVeraSans-Roman;writing-mode:lr-tb;fill:#000000;fill-opacity:1;fill-rule:nonzero;stroke:none"
         id="text76"><tspan
           x="0 7.632 11.448"
           y="0"
           sodipodi:role="line"
           id="tspan78">0.0</tspan></text>
<path
         d="m 406.8,43.2 0,4"
         style="fill:#000000;fill-opacity:1;fill-rule:nonzero;stroke:#000000;stroke-width:0.5;stroke-linecap:butt;stroke-linejoin:round;stroke-miterlimit:10;stroke-dasharray:none;stroke-opacity:1"
         id="path80"
         inkscape:connector-curvature="0" /><path
         d="m 406.8,388.8 0,-4"
         style="fill:#000000;fill-opacity:1;fill-rule:nonzero;stroke:#000000;stroke-width:0.5;stroke-linecap:butt;stroke-linejoin:round;stroke-miterlimit:10;stroke-dasharray:none;stroke-opacity:1"
         id="path82"
         inkscape:connector-curvature="0" /><text
         transform="matrix(1,0,0,-1,398.175,30.075)"
         style="font-variant:normal;font-weight:normal;font-size:12px;font-family:'Bitstream Vera Sans';-inkscape-font-specification:BitstreamVeraSans-Roman;writing-mode:lr-tb;fill:#000000;fill-opacity:1;fill-rule:nonzero;stroke:none"
         id="text84"><tspan
           x="0 7.632 11.448"
           y="0"
           sodipodi:role="line"
           id="tspan86">0.5</tspan></text>
<path
         d="m 518.4,43.2 0,4"
         style="fill:#000000;fill-opacity:1;fill-rule:nonzero;stroke:#000000;stroke-width:0.5;stroke-linecap:butt;stroke-linejoin:round;stroke-miterlimit:10;stroke-dasharray:none;stroke-opacity:1"
         id="path88"
         inkscape:connector-curvature="0" /><path
         d="m 518.4,388.8 0,-4"
         style="fill:#000000;fill-opacity:1;fill-rule:nonzero;stroke:#000000;stroke-width:0.5;stroke-linecap:butt;stroke-linejoin:round;stroke-miterlimit:10;stroke-dasharray:none;stroke-opacity:1"
         id="path90"
         inkscape:connector-curvature="0" /><text
         transform="matrix(1,0,0,-1,509.90781,30.075)"
         style="font-variant:normal;font-weight:normal;font-size:12px;font-family:'Bitstream Vera Sans';-inkscape-font-specification:BitstreamVeraSans-Roman;writing-mode:lr-tb;fill:#000000;fill-opacity:1;fill-rule:nonzero;stroke:none"
         id="text92"><tspan
           x="0 7.632 11.448"
           y="0"
           sodipodi:role="line"
           id="tspan94">1.0</tspan></text>
<path
         d="m 72,43.2 4,0"
         style="fill:#000000;fill-opacity:1;fill-rule:nonzero;stroke:#000000;stroke-width:0.5;stroke-linecap:butt;stroke-linejoin:round;stroke-miterlimit:10;stroke-dasharray:none;stroke-opacity:1"
         id="path96"
         inkscape:connector-curvature="0" /><path
         d="m 518.4,43.2 -4,0"
         style="fill:#000000;fill-opacity:1;fill-rule:nonzero;stroke:#000000;stroke-width:0.5;stroke-linecap:butt;stroke-linejoin:round;stroke-miterlimit:10;stroke-dasharray:none;stroke-opacity:1"
         id="path98"
         inkscape:connector-curvature="0" /><g
         id="g100"
         transform="translate(40.90625,39.8875)"><text
           transform="matrix(1,0,0,-1,10.054688,0)"
           style="font-variant:normal;font-weight:normal;font-size:12px;font-family:'Bitstream Vera Sans';-inkscape-font-specification:BitstreamVeraSans-Roman;writing-mode:lr-tb;fill:#000000;fill-opacity:1;fill-rule:nonzero;stroke:none"
           id="text102"><tspan
             x="0 7.632 11.448"
             y="0"
             sodipodi:role="line"
             id="tspan104">1.0</tspan></text>
<g
           id="g106"
           transform="scale(0.012,0.012)"><g
             id="g108"><g
               id="g110"
               clip-path="url(#clipPath112)"><path
                 d="m 106,355 626,0 0,-83 -626,0 0,83"
                 style="fill:#000000;fill-opacity:1;fill-rule:nonzero;stroke:none"
                 id="path116"
                 inkscape:connector-curvature="0" /></g></g></g></g><path
         d="m 72,129.6 4,0"
         style="fill:#000000;fill-opacity:1;fill-rule:nonzero;stroke:#000000;stroke-width:0.5;stroke-linecap:butt;stroke-linejoin:round;stroke-miterlimit:10;stroke-dasharray:none;stroke-opacity:1"
         id="path118"
         inkscape:connector-curvature="0" /><path
         d="m 518.4,129.6 -4,0"
         style="fill:#000000;fill-opacity:1;fill-rule:nonzero;stroke:#000000;stroke-width:0.5;stroke-linecap:butt;stroke-linejoin:round;stroke-miterlimit:10;stroke-dasharray:none;stroke-opacity:1"
         id="path120"
         inkscape:connector-curvature="0" /><g
         id="g122"
         transform="translate(41.15625,126.2875)"><text
           transform="matrix(1,0,0,-1,10.054688,0)"
           style="font-variant:normal;font-weight:normal;font-size:12px;font-family:'Bitstream Vera Sans';-inkscape-font-specification:BitstreamVeraSans-Roman;writing-mode:lr-tb;fill:#000000;fill-opacity:1;fill-rule:nonzero;stroke:none"
           id="text124"><tspan
             x="0 7.632 11.448"
             y="0"
             sodipodi:role="line"
             id="tspan126">0.5</tspan></text>
<g
           id="g128"
           transform="scale(0.012,0.012)"><g
             id="g130"><g
               id="g132"
               clip-path="url(#clipPath134)"><path
                 d="m 106,355 626,0 0,-83 -626,0 0,83"
                 style="fill:#000000;fill-opacity:1;fill-rule:nonzero;stroke:none"
                 id="path138"
                 inkscape:connector-curvature="0" /></g></g></g></g><path
         d="m 72,216 4,0"
         style="fill:#000000;fill-opacity:1;fill-rule:nonzero;stroke:#000000;stroke-width:0.5;stroke-linecap:butt;stroke-linejoin:round;stroke-miterlimit:10;stroke-dasharray:none;stroke-opacity:1"
         id="path140"
         inkscape:connector-curvature="0" /><path
         d="m 518.4,216 -4,0"
         style="fill:#000000;fill-opacity:1;fill-rule:nonzero;stroke:#000000;stroke-width:0.5;stroke-linecap:butt;stroke-linejoin:round;stroke-miterlimit:10;stroke-dasharray:none;stroke-opacity:1"
         id="path142"
         inkscape:connector-curvature="0" /><text
         transform="matrix(1,0,0,-1,50.5,212.6875)"
         style="font-variant:normal;font-weight:normal;font-size:12px;font-family:'Bitstream Vera Sans';-inkscape-font-specification:BitstreamVeraSans-Roman;writing-mode:lr-tb;fill:#000000;fill-opacity:1;fill-rule:nonzero;stroke:none"
         id="text144"><tspan
           x="0 7.632 11.448"
           y="0"
           sodipodi:role="line"
           id="tspan146">0.0</tspan></text>
<path
         d="m 72,302.4 4,0"
         style="fill:#000000;fill-opacity:1;fill-rule:nonzero;stroke:#000000;stroke-width:0.5;stroke-linecap:butt;stroke-linejoin:round;stroke-miterlimit:10;stroke-dasharray:none;stroke-opacity:1"
         id="path148"
         inkscape:connector-curvature="0" /><path
         d="m 518.4,302.4 -4,0"
         style="fill:#000000;fill-opacity:1;fill-rule:nonzero;stroke:#000000;stroke-width:0.5;stroke-linecap:butt;stroke-linejoin:round;stroke-miterlimit:10;stroke-dasharray:none;stroke-opacity:1"
         id="path150"
         inkscape:connector-curvature="0" /><text
         transform="matrix(1,0,0,-1,50.75,299.0875)"
         style="font-variant:normal;font-weight:normal;font-size:12px;font-family:'Bitstream Vera Sans';-inkscape-font-specification:BitstreamVeraSans-Roman;writing-mode:lr-tb;fill:#000000;fill-opacity:1;fill-rule:nonzero;stroke:none"
         id="text152"><tspan
           x="0 7.632 11.448"
           y="0"
           sodipodi:role="line"
           id="tspan154">0.5</tspan></text>
<path
         d="m 72,388.8 4,0"
         style="fill:#000000;fill-opacity:1;fill-rule:nonzero;stroke:#000000;stroke-width:0.5;stroke-linecap:butt;stroke-linejoin:round;stroke-miterlimit:10;stroke-dasharray:none;stroke-opacity:1"
         id="path156"
         inkscape:connector-curvature="0" /><path
         d="m 518.4,388.8 -4,0"
         style="fill:#000000;fill-opacity:1;fill-rule:nonzero;stroke:#000000;stroke-width:0.5;stroke-linecap:butt;stroke-linejoin:round;stroke-miterlimit:10;stroke-dasharray:none;stroke-opacity:1"
         id="path158"
         inkscape:connector-curvature="0" /><text
         transform="matrix(1,0,0,-1,51.015625,385.4875)"
         style="font-variant:normal;font-weight:normal;font-size:12px;font-family:'Bitstream Vera Sans';-inkscape-font-specification:BitstreamVeraSans-Roman;writing-mode:lr-tb;fill:#000000;fill-opacity:1;fill-rule:nonzero;stroke:none"
         id="text160"><tspan
           x="0 7.632 11.448"
           y="0"
           sodipodi:role="line"
           id="tspan162">1.0</tspan></text>
<path
         d="m 72,388.8 446.4,0"
         style="fill:none;stroke:#000000;stroke-width:1;stroke-linecap:butt;stroke-linejoin:round;stroke-miterlimit:10;stroke-dasharray:none;stroke-opacity:1"
         id="path164"
         inkscape:connector-curvature="0" /><path
         d="m 518.4,43.2 0,345.6"
         style="fill:none;stroke:#000000;stroke-width:1;stroke-linecap:butt;stroke-linejoin:round;stroke-miterlimit:10;stroke-dasharray:none;stroke-opacity:1"
         id="path166"
         inkscape:connector-curvature="0" /><path
         d="m 72,43.2 446.4,0"
         style="fill:none;stroke:#000000;stroke-width:1;stroke-linecap:butt;stroke-linejoin:round;stroke-miterlimit:10;stroke-dasharray:none;stroke-opacity:1"
         id="path168"
         inkscape:connector-curvature="0" /><path
         d="m 72,43.2 0,345.6"
         style="fill:none;stroke:#000000;stroke-width:1;stroke-linecap:butt;stroke-linejoin:round;stroke-miterlimit:10;stroke-dasharray:none;stroke-opacity:1"
         id="path170"
         inkscape:connector-curvature="0" /></g></g></svg>