<?xml version="1.0" encoding="UTF-8" standalone="no"?>
<!DOCTYPE svg PUBLIC "-//W3C//DTD SVG 1.0//EN" "http://www.w3.org/TR/2001/PR-SVG-20010719/DTD/svg10.dtd">
<svg width="21cm" height="15cm" viewBox="279 68 411 294" xmlns="http://www.w3.org/2000/svg" xmlns:xlink="http://www.w3.org/1999/xlink">
  <path style="fill: none; fill-opacity:0; stroke-width: 2; stroke: #000000" d="M 286 334 C 387,325 327,181 395,170 C 463,159 520,191 542,117 C 564,43 646,75 683,85"/>
  <g>
    <ellipse style="fill: #000000" cx="286" cy="334" rx="5.5" ry="5.5"/>
    <ellipse style="fill: none; fill-opacity:0; stroke-width: 2; stroke: #000000" cx="286" cy="334" rx="5.5" ry="5.5"/>
  </g>
  <g>
    <ellipse style="fill: #000000" cx="683" cy="87" rx="5.5" ry="5.5"/>
    <ellipse style="fill: none; fill-opacity:0; stroke-width: 2; stroke: #000000" cx="683" cy="87" rx="5.5" ry="5.5"/>
  </g>
  <g>
    <ellipse style="fill: #000000" cx="340" cy="300" rx="5.5" ry="5.5"/>
    <ellipse style="fill: none; fill-opacity:0; stroke-width: 2; stroke: #000000" cx="340" cy="300" rx="5.5" ry="5.5"/>
  </g>
  <g>
    <ellipse style="fill: #000000" cx="373" cy="181" rx="5.5" ry="5.5"/>
    <ellipse style="fill: none; fill-opacity:0; stroke-width: 2; stroke: #000000" cx="373" cy="181" rx="5.5" ry="5.5"/>
  </g>
  <g>
    <ellipse style="fill: #000000" cx="519" cy="156" rx="5.5" ry="5.5"/>
    <ellipse style="fill: none; fill-opacity:0; stroke-width: 2; stroke: #000000" cx="519" cy="156" rx="5.5" ry="5.5"/>
  </g>
  <g>
    <ellipse style="fill: #000000" cx="577" cy="75" rx="5.5" ry="5.5"/>
    <ellipse style="fill: none; fill-opacity:0; stroke-width: 2; stroke: #000000" cx="577" cy="75" rx="5.5" ry="5.5"/>
  </g>
  <text font-size="14.1111" style="fill: #000000;text-anchor:start;font-family:Symbol;font-style:normal;font-weight:normal" x="470" y="191">
    <tspan x="470" y="191">t[i]:  (x[i], y[i])</tspan>
  </text>
  <text font-size="14.1111" style="fill: #000000;text-anchor:start;font-family:Symbol;font-style:normal;font-weight:normal" x="347" y="322">
    <tspan x="347" y="322">(x[1],y[1])</tspan>
  </text>
  <text font-size="14.1111" style="fill: #000000;text-anchor:start;font-family:Symbol;font-style:normal;font-weight:normal" x="299.2" y="357.5">
    <tspan x="299.2" y="357.5">(x[0],y[0])</tspan>
  </text>
</svg>
