<?xml version="1.0" encoding="UTF-8" standalone="no"?>
<!DOCTYPE svg PUBLIC "-//W3C//DTD SVG 1.0//EN" "http://www.w3.org/TR/2001/PR-SVG-20010719/DTD/svg10.dtd">
<svg width="13cm" height="10cm" viewBox="336 63 251 181" xmlns="http://www.w3.org/2000/svg" xmlns:xlink="http://www.w3.org/1999/xlink">
  <g>
    <rect style="fill: #ff0000" x="381" y="65" width="143" height="11.9999"/>
    <rect style="fill: none; fill-opacity:0; stroke-width: 2; stroke: #000000" x="381" y="65" width="143" height="11.9999"/>
  </g>
  <g>
    <line style="fill: none; fill-opacity:0; stroke-width: 6; stroke: #0000ff" x1="377.564" y1="82.2249" x2="347.26" y2="131.125"/>
    <path style="fill: #ffffff" d="M 382.832 73.7248 C 384.957,75.0417 385.765,78.4837 384.448,80.6087 C 383.131,82.7337 379.689,83.5418 377.564,82.2249 C 375.439,80.908 374.631,77.4661 375.948,75.341 C 377.265,73.216 380.707,72.4079 382.832,73.7248z"/>
    <path style="fill: none; fill-opacity:0; stroke-width: 6; stroke: #0000ff" d="M 382.832 73.7248 C 384.957,75.0417 385.765,78.4837 384.448,80.6087 C 383.131,82.7337 379.689,83.5418 377.564,82.2249 C 375.439,80.908 374.631,77.4661 375.948,75.341 C 377.265,73.216 380.707,72.4079 382.832,73.7248"/>
    <path style="fill: #ffffff" d="M 341.992 139.625 C 339.867,138.308 339.059,134.866 340.376,132.741 C 341.693,130.616 345.135,129.808 347.26,131.125 C 349.385,132.442 350.193,135.884 348.876,138.009 C 347.559,140.134 344.117,140.942 341.992,139.625z"/>
    <path style="fill: none; fill-opacity:0; stroke-width: 6; stroke: #0000ff" d="M 341.992 139.625 C 339.867,138.308 339.059,134.866 340.376,132.741 C 341.693,130.616 345.135,129.808 347.26,131.125 C 349.385,132.442 350.193,135.884 348.876,138.009 C 347.559,140.134 344.117,140.942 341.992,139.625"/>
  </g>
  <g>
    <line style="fill: none; fill-opacity:0; stroke-width: 6; stroke: #0000ff" x1="530.611" y1="79.5104" x2="571.801" y2="108.664"/>
    <path style="fill: #ffffff" d="M 522.449 73.7332 C 523.893,71.6926 527.378,71.0963 529.418,72.5406 C 531.459,73.9849 532.055,77.4698 530.611,79.5104 C 529.167,81.551 525.682,82.1473 523.641,80.703 C 521.601,79.2586 521.004,75.7738 522.449,73.7332z"/>
    <path style="fill: none; fill-opacity:0; stroke-width: 6; stroke: #0000ff" d="M 522.449 73.7332 C 523.893,71.6926 527.378,71.0963 529.418,72.5406 C 531.459,73.9849 532.055,77.4698 530.611,79.5104 C 529.167,81.551 525.682,82.1473 523.641,80.703 C 521.601,79.2586 521.004,75.7738 522.449,73.7332"/>
    <path style="fill: #ffffff" d="M 579.963 114.442 C 578.519,116.482 575.034,117.078 572.994,115.634 C 570.953,114.19 570.357,110.705 571.801,108.664 C 573.245,106.624 576.73,106.028 578.771,107.472 C 580.811,108.916 581.408,112.401 579.963,114.442z"/>
    <path style="fill: none; fill-opacity:0; stroke-width: 6; stroke: #0000ff" d="M 579.963 114.442 C 578.519,116.482 575.034,117.078 572.994,115.634 C 570.953,114.19 570.357,110.705 571.801,108.664 C 573.245,106.624 576.73,106.028 578.771,107.472 C 580.811,108.916 581.408,112.401 579.963,114.442"/>
  </g>
  <g>
    <line style="fill: none; fill-opacity:0; stroke-width: 6; stroke: #1e90ff" x1="464.412" y1="221.174" x2="574" y2="114"/>
    <path style="fill: #1e90ff" d="M 574 114 C 574.699,114.715 574.683,116.129 573.969,116.828 C 573.254,117.527 571.839,117.512 571.14,116.797 C 570.441,116.082 570.457,114.668 571.172,113.969 C 571.887,113.269 573.301,113.285 574,114z"/>
    <path style="fill: none; fill-opacity:0; stroke-width: 6; stroke: #1e90ff" d="M 574 114 C 574.699,114.715 574.683,116.129 573.969,116.828 C 573.254,117.527 571.839,117.512 571.14,116.797 C 570.441,116.082 570.457,114.668 571.172,113.969 C 571.887,113.269 573.301,113.285 574,114"/>
  </g>
  <g>
    <line style="fill: none; fill-opacity:0; stroke-width: 6; stroke: #1e90ff" x1="457.648" y1="215.885" x2="347.208" y2="141.1"/>
    <path style="fill: #ffffff" d="M 465.928 221.492 C 464.526,223.562 461.054,224.23 458.984,222.828 C 456.914,221.427 456.246,217.955 457.648,215.885 C 459.05,213.815 462.521,213.147 464.591,214.548 C 466.661,215.95 467.33,219.422 465.928,221.492z"/>
    <path style="fill: none; fill-opacity:0; stroke-width: 6; stroke: #1e90ff" d="M 465.928 221.492 C 464.526,223.562 461.054,224.23 458.984,222.828 C 456.914,221.427 456.246,217.955 457.648,215.885 C 459.05,213.815 462.521,213.147 464.591,214.548 C 466.661,215.95 467.33,219.422 465.928,221.492"/>
    <path style="fill: #ffffff" d="M 343.896 138.857 C 344.457,138.029 345.845,137.762 346.673,138.322 C 347.502,138.883 347.769,140.272 347.208,141.1 C 346.647,141.928 345.259,142.195 344.431,141.634 C 343.603,141.074 343.335,139.685 343.896,138.857z"/>
    <path style="fill: none; fill-opacity:0; stroke-width: 6; stroke: #1e90ff" d="M 343.896 138.857 C 344.457,138.029 345.845,137.762 346.673,138.322 C 347.502,138.883 347.769,140.272 347.208,141.1 C 346.647,141.928 345.259,142.195 344.431,141.634 C 343.603,141.074 343.335,139.685 343.896,138.857"/>
  </g>
  <text font-size="14.1111" style="fill: #000000;text-anchor:start;font-family:Symbol;font-style:normal;font-weight:normal" x="434.412" y="-31.8252">
    <tspan x="434.412" y="-31.8252"></tspan>
  </text>
  <g>
    <ellipse style="fill: #000000" cx="456" cy="71" rx="4" ry="4"/>
    <ellipse style="fill: none; fill-opacity:0; stroke-width: 2; stroke: #000000" cx="456" cy="71" rx="4" ry="4"/>
  </g>
  <g>
    <ellipse style="fill: #00ff00" cx="382" cy="77" rx="9.5" ry="9.5"/>
    <ellipse style="fill: none; fill-opacity:0; stroke-width: 2; stroke: #00ff00" cx="382" cy="77" rx="9.5" ry="9.5"/>
  </g>
  <g>
    <ellipse style="fill: #00ff00" cx="527" cy="76" rx="9.5" ry="9.5"/>
    <ellipse style="fill: none; fill-opacity:0; stroke-width: 2; stroke: #00ff00" cx="527" cy="76" rx="9.5" ry="9.5"/>
  </g>
  <g>
    <line style="fill: none; fill-opacity:0; stroke-width: 2; stroke: #000000" x1="462" y1="220" x2="462" y2="233.764"/>
    <polygon style="fill: #000000" points="462,239.764 458,231.764 462,233.764 466,231.764 "/>
    <polygon style="fill: none; fill-opacity:0; stroke-width: 2; stroke: #000000" points="462,239.764 458,231.764 462,233.764 466,231.764 "/>
  </g>
</svg>
