<?xml version="1.0" encoding="UTF-8" standalone="no"?>
<!-- Created by diasvg.py -->
<svg width="34.183cm" height="12.359cm" viewBox="9.600 2.591 43.783 14.950"
 xmlns="http://www.w3.org/2000/svg"
 xmlns:xlink="http://www.w3.org/1999/xlink">
<line x1="12.600" y1="3.187" x2="12.600" y2="14.413" stroke="#000000" stroke-width="0.100" />
<polygon fill="#000000" stroke="none" stroke-width="0.100" points="12.600,2.812 12.850,3.312 12.600,3.187 12.350,3.312 "/>
<polygon fill="none" stroke="#000000" stroke-width="0.100"  points="12.600,2.812 12.850,3.312 12.600,3.187 12.350,3.312 "/>
<polygon fill="#000000" stroke="none" stroke-width="0.100" points="12.600,14.788 12.350,14.288 12.600,14.413 12.850,14.288 "/>
<polygon fill="none" stroke="#000000" stroke-width="0.100"  points="12.600,14.788 12.350,14.288 12.600,14.413 12.850,14.288 "/>
<line x1="10.137" y1="12.300" x2="24.413" y2="12.300" stroke="#000000" stroke-width="0.100" />
<polygon fill="#000000" stroke="none" stroke-width="0.100" points="9.762,12.300 10.262,12.050 10.137,12.300 10.262,12.550 "/>
<polygon fill="none" stroke="#000000" stroke-width="0.100"  points="9.762,12.300 10.262,12.050 10.137,12.300 10.262,12.550 "/>
<polygon fill="#000000" stroke="none" stroke-width="0.100" points="24.788,12.300 24.288,12.550 24.413,12.300 24.288,12.050 "/>
<polygon fill="none" stroke="#000000" stroke-width="0.100"  points="24.788,12.300 24.288,12.550 24.413,12.300 24.288,12.050 "/>
<rect x="13.900" y="6.900" width="4.150" height="4.150" fill="#0000FF" stroke="none" stroke-width="0"/>
<rect x="13.900" y="6.900" width="4.150" height="4.150" fill="none" stroke="#000000" stroke-width="0.100" />
<text x="19.050" y="13.250"  fill="#000000" text-anchor="start" font-size="1.06" font-family="sans" font-style="normal" font-weight="400">
2</text>
<text x="19.600" y="13.250"  fill="#000000" text-anchor="start" font-size="1.20" font-family="Standard Symbols PS" font-style="normal" font-weight="400">
p</text>
<text x="11.365" y="5.565"  fill="#000000" text-anchor="start" font-size="1.06" font-family="sans" font-style="normal" font-weight="400">
2</text>
<text x="11.915" y="5.565"  fill="#000000" text-anchor="start" font-size="1.20" font-family="Standard Symbols PS" font-style="normal" font-weight="400">
p</text>
<text x="24.600" y="11.850"  fill="#000000" text-anchor="start" font-size="0.78" font-family="sans" font-style="normal" font-weight="400">
1</text>
<text x="13.900" y="3.550"  fill="#000000" text-anchor="start" font-size="0.78" font-family="sans" font-style="normal" font-weight="400">
2</text>
<text x="13.250" y="3.250"  fill="#000000" text-anchor="start" font-size="1.06" font-family="Standard Symbols PS" font-style="normal" font-weight="400">
Q</text>
<text x="23.915" y="11.650"  fill="#000000" text-anchor="start" font-size="1.06" font-family="Standard Symbols PS" font-style="normal" font-weight="400">
Q</text>
<text x="13.615" y="13.250"  fill="#000000" text-anchor="start" font-size="1.06" font-family="Standard Symbols PS" font-style="normal" font-weight="400">
Q</text>
<text x="17.580" y="13.245"  fill="#000000" text-anchor="start" font-size="1.06" font-family="Standard Symbols PS" font-style="normal" font-weight="400">
Q</text>
<text x="14.100" y="13.550"  fill="#000000" text-anchor="start" font-size="0.88" font-family="Symbol" font-style="normal" font-weight="400">
m</text>
<text x="18.100" y="13.650"  fill="#000000" text-anchor="start" font-size="0.88" font-family="Symbol" font-style="normal" font-weight="400">
M</text>
<text x="11.315" y="11.250"  fill="#000000" text-anchor="start" font-size="1.06" font-family="Standard Symbols PS" font-style="normal" font-weight="400">
Q</text>
<text x="11.800" y="11.550"  fill="#000000" text-anchor="start" font-size="0.88" font-family="Symbol" font-style="normal" font-weight="400">
m</text>
<text x="11.265" y="7.300"  fill="#000000" text-anchor="start" font-size="1.06" font-family="Standard Symbols PS" font-style="normal" font-weight="400">
Q</text>
<text x="11.785" y="7.705"  fill="#000000" text-anchor="start" font-size="0.88" font-family="Symbol" font-style="normal" font-weight="400">
M</text>
<rect x="30.995" y="3.920" width="7.150" height="0.600" fill="#FF0000" stroke="none" stroke-width="0"/>
<rect x="30.995" y="3.920" width="7.150" height="0.600" fill="none" stroke="#000000" stroke-width="0.100" />
<line x1="31.021" y1="4.896" x2="30.369" y2="7.244" stroke="#0000FF" stroke-width="0.300" />
<path stroke="none" fill="#FFFFFF" stroke-width="0.300" d="M 31.154,4.415 C 31.275,4.448 31.362,4.602 31.328,4.722 C 31.295,4.843 31.141,4.930 31.021,4.896 C 30.900,4.863 30.813,4.709 30.847,4.588 C 30.880,4.468 31.034,4.381 31.154,4.415 "/>
<path stroke="#0000FF" fill="none" stroke-width="0.300"  d="M 31.154,4.415 C 31.275,4.448 31.362,4.602 31.328,4.722 C 31.295,4.843 31.141,4.930 31.021,4.896 C 30.900,4.863 30.813,4.709 30.847,4.588 C 30.880,4.468 31.034,4.381 31.154,4.415 "/>
<path stroke="none" fill="#FFFFFF" stroke-width="0.300" d="M 30.235,7.725 C 30.114,7.692 30.027,7.538 30.061,7.418 C 30.094,7.297 30.248,7.210 30.369,7.244 C 30.489,7.277 30.576,7.431 30.543,7.552 C 30.509,7.672 30.355,7.759 30.235,7.725 "/>
<path stroke="#0000FF" fill="none" stroke-width="0.300"  d="M 30.235,7.725 C 30.114,7.692 30.027,7.538 30.061,7.418 C 30.094,7.297 30.248,7.210 30.369,7.244 C 30.489,7.277 30.576,7.431 30.543,7.552 C 30.509,7.672 30.355,7.759 30.235,7.725 "/>
<line x1="38.475" y1="4.646" x2="40.535" y2="6.103" stroke="#0000FF" stroke-width="0.300" />
<path stroke="none" fill="#FFFFFF" stroke-width="0.300" d="M 38.067,4.357 C 38.139,4.255 38.313,4.225 38.416,4.297 C 38.518,4.369 38.547,4.543 38.475,4.646 C 38.403,4.748 38.229,4.777 38.127,4.705 C 38.025,4.633 37.995,4.459 38.067,4.357 "/>
<path stroke="#0000FF" fill="none" stroke-width="0.300"  d="M 38.067,4.357 C 38.139,4.255 38.313,4.225 38.416,4.297 C 38.518,4.369 38.547,4.543 38.475,4.646 C 38.403,4.748 38.229,4.777 38.127,4.705 C 38.025,4.633 37.995,4.459 38.067,4.357 "/>
<path stroke="none" fill="#FFFFFF" stroke-width="0.300" d="M 40.943,6.392 C 40.871,6.494 40.696,6.524 40.594,6.452 C 40.492,6.379 40.462,6.205 40.535,6.103 C 40.607,6.001 40.781,5.971 40.883,6.044 C 40.985,6.116 41.015,6.290 40.943,6.392 "/>
<path stroke="#0000FF" fill="none" stroke-width="0.300"  d="M 40.943,6.392 C 40.871,6.494 40.696,6.524 40.594,6.452 C 40.492,6.379 40.462,6.205 40.535,6.103 C 40.607,6.001 40.781,5.971 40.883,6.044 C 40.985,6.116 41.015,6.290 40.943,6.392 "/>
<line x1="36.445" y1="11.720" x2="40.645" y2="6.370" stroke="#1E90FF" stroke-width="0.300" />
<path stroke="none" fill="#1E90FF" stroke-width="0.300" d="M 40.645,6.370 C 40.684,6.401 40.692,6.471 40.662,6.510 C 40.631,6.550 40.560,6.558 40.521,6.527 C 40.482,6.496 40.473,6.426 40.504,6.387 C 40.535,6.348 40.605,6.339 40.645,6.370 "/>
<path stroke="#1E90FF" fill="none" stroke-width="0.300"  d="M 40.645,6.370 C 40.684,6.401 40.692,6.471 40.662,6.510 C 40.631,6.550 40.560,6.558 40.521,6.527 C 40.482,6.496 40.473,6.426 40.504,6.387 C 40.535,6.348 40.605,6.339 40.645,6.370 "/>
<line x1="36.147" y1="11.470" x2="30.490" y2="7.858" stroke="#1E90FF" stroke-width="0.300" />
<path stroke="none" fill="#FFFFFF" stroke-width="0.300" d="M 36.568,11.739 C 36.501,11.845 36.328,11.883 36.223,11.815 C 36.118,11.748 36.079,11.576 36.147,11.470 C 36.214,11.365 36.387,11.327 36.492,11.394 C 36.597,11.461 36.635,11.634 36.568,11.739 "/>
<path stroke="#1E90FF" fill="none" stroke-width="0.300"  d="M 36.568,11.739 C 36.501,11.845 36.328,11.883 36.223,11.815 C 36.118,11.748 36.079,11.576 36.147,11.470 C 36.214,11.365 36.387,11.327 36.492,11.394 C 36.597,11.461 36.635,11.634 36.568,11.739 "/>
<path stroke="none" fill="#FFFFFF" stroke-width="0.300" d="M 30.321,7.751 C 30.348,7.709 30.417,7.693 30.459,7.720 C 30.501,7.747 30.517,7.816 30.490,7.858 C 30.463,7.900 30.394,7.916 30.352,7.889 C 30.309,7.862 30.294,7.793 30.321,7.751 "/>
<path stroke="#1E90FF" fill="none" stroke-width="0.300"  d="M 30.321,7.751 C 30.348,7.709 30.417,7.693 30.459,7.720 C 30.501,7.747 30.517,7.816 30.490,7.858 C 30.463,7.900 30.394,7.916 30.352,7.889 C 30.309,7.862 30.294,7.793 30.321,7.751 "/>
<text x="38.965" y="5.979"  fill="#000000" text-anchor="start" font-size="0.88" font-family="sans" font-style="normal" font-weight="400">
L</text>
<text x="39.365" y="6.229"  fill="#000000" text-anchor="start" font-size="0.88" font-family="Symbol" font-style="normal" font-weight="400">
1</text>
<text x="31.195" y="6.270"  fill="#000000" text-anchor="start" font-size="0.88" font-family="sans" font-style="normal" font-weight="400">
L</text>
<text x="31.495" y="6.620"  fill="#000000" text-anchor="start" font-size="0.88" font-family="Symbol" font-style="normal" font-weight="400">
1</text>
<text x="32.515" y="8.579"  fill="#000000" text-anchor="start" font-size="0.88" font-family="sans" font-style="normal" font-weight="400">
L</text>
<text x="32.815" y="8.929"  fill="#000000" text-anchor="start" font-size="0.88" font-family="Symbol" font-style="normal" font-weight="400">
2</text>
<text x="37.355" y="8.659"  fill="#000000" text-anchor="start" font-size="0.88" font-family="sans" font-style="normal" font-weight="400">
L</text>
<text x="37.705" y="8.959"  fill="#000000" text-anchor="start" font-size="0.88" font-family="Symbol" font-style="normal" font-weight="400">
2</text>
<line x1="27.215" y1="4.529" x2="42.528" y2="4.480" stroke="#000000" stroke-width="0.100" stroke-dasharray="0.10,0.10"/>
<polygon fill="#000000" stroke="none" stroke-width="0.100" points="42.903,4.479 42.404,4.731 42.528,4.480 42.403,4.231 "/>
<polygon fill="none" stroke="#000000" stroke-width="0.100"  points="42.903,4.479 42.404,4.731 42.528,4.480 42.403,4.231 "/>
<path stroke="#000000" fill="none" stroke-width="0.100" stroke-dasharray="0.10,0.10" d ="M 29.565,4.629 A 1.757,1.757 0 0,0 30.024,6.176 "/>
<polygon fill="#000000" stroke="none" stroke-width="0.100" points="30.298,6.413 29.741,6.373 29.976,6.222 29.996,5.943 "/>
<polygon fill="none" stroke="#000000" stroke-width="0.100"  points="30.298,6.413 29.741,6.373 29.976,6.222 29.996,5.943 "/>
<line x1="40.615" y1="4.579" x2="40.408" y2="5.161" stroke="#000000" stroke-width="0.100" stroke-dasharray="0.10,0.10"/>
<polygon fill="#000000" stroke="none" stroke-width="0.100" points="40.282,5.515 40.214,4.960 40.408,5.161 40.685,5.127 "/>
<polygon fill="none" stroke="#000000" stroke-width="0.100"  points="40.282,5.515 40.214,4.960 40.408,5.161 40.685,5.127 "/>
<text x="28.515" y="5.429"  fill="#000000" text-anchor="start" font-size="0.88" font-family="Standard Symbols PS" font-style="normal" font-weight="400">
Q</text>
<text x="28.965" y="5.679"  fill="#000000" text-anchor="start" font-size="0.88" font-family="Symbol" font-style="normal" font-weight="400">
1</text>
<text x="41.215" y="5.479"  fill="#000000" text-anchor="start" font-size="0.88" font-family="Standard Symbols PS" font-style="normal" font-weight="400">
Q</text>
<text x="41.665" y="5.879"  fill="#000000" text-anchor="start" font-size="0.88" font-family="Symbol" font-style="normal" font-weight="400">
2</text>
<text x="35.995" y="12.670"  fill="#000000" text-anchor="start" font-size="0.88" font-family="sans" font-style="normal" font-weight="400">
(x,y)</text>
<text x="43.365" y="4.679"  fill="#000000" text-anchor="start" font-size="0.88" font-family="sans" font-style="normal" font-weight="400">
x</text>
<line x1="34.545" y1="4.220" x2="34.686" y2="12.033" stroke="#000000" stroke-width="0.100" stroke-dasharray="0.10,0.10"/>
<polygon fill="#000000" stroke="none" stroke-width="0.100" points="34.693,12.408 34.434,11.913 34.686,12.033 34.934,11.904 "/>
<polygon fill="none" stroke="#000000" stroke-width="0.100"  points="34.693,12.408 34.434,11.913 34.686,12.033 34.934,11.904 "/>
<text x="34.545" y="13.120"  fill="#000000" text-anchor="start" font-size="0.88" font-family="sans" font-style="normal" font-weight="400">
y</text>
<ellipse cx="34.745" cy="4.220" rx="0.200" ry="0.200" fill="#000000" stroke="none"  /><ellipse cx="34.745" cy="4.220" rx="0.200" ry="0.200" fill="none" stroke="#000000"  stroke-width="0.100" /><text x="35.945" y="5.320"  fill="#000000" text-anchor="start" font-size="0.88" font-family="sans" font-style="normal" font-weight="400">
L</text>
<text x="36.295" y="5.470"  fill="#000000" text-anchor="start" font-size="0.88" font-family="Symbol" font-style="normal" font-weight="400">
0</text>
<ellipse cx="31.045" cy="4.520" rx="0.475" ry="0.475" fill="#00FF00" stroke="none"  /><ellipse cx="31.045" cy="4.520" rx="0.475" ry="0.475" fill="none" stroke="#00FF00"  stroke-width="0.100" /><ellipse cx="38.295" cy="4.470" rx="0.475" ry="0.475" fill="#00FF00" stroke="none"  /><ellipse cx="38.295" cy="4.470" rx="0.475" ry="0.475" fill="none" stroke="#00FF00"  stroke-width="0.100" /><text x="28.095" y="7.770"  fill="#000000" text-anchor="start" font-size="0.88" font-family="sans" font-style="normal" font-weight="400">
(a,b)</text>
<text x="41.195" y="6.820"  fill="#000000" text-anchor="start" font-size="0.88" font-family="sans" font-style="normal" font-weight="400">
(c,d)</text>
</svg>