<?xml version="1.0" encoding="UTF-8" standalone="no"?>
<!-- Created by diasvg.py -->
<svg width="23.225cm" height="11.093cm" viewBox="4.934 4.222 28.159 15.315"
 xmlns="http://www.w3.org/2000/svg"
 xmlns:xlink="http://www.w3.org/1999/xlink">
<polygon fill="#FF0000" stroke="none" stroke-width="0.100" points="5.050,15.000 5.950,14.050 6.950,14.050 7.750,15.000 "/>
<polygon fill="none" stroke="#000000" stroke-width="0.100"  points="5.050,15.000 5.950,14.050 6.950,14.050 7.750,15.000 "/>
<polygon fill="#1E90FF" stroke="none" stroke-width="0.100" points="6.450,14.300 16.750,11.700 17.000,12.250 6.650,14.800 "/>
<polygon fill="none" stroke="#000000" stroke-width="0.100"  points="6.450,14.300 16.750,11.700 17.000,12.250 6.650,14.800 "/>
<polygon fill="#1E90FF" stroke="none" stroke-width="0.100" points="16.550,11.800 21.650,6.150 22.100,6.450 16.900,12.250 "/>
<polygon fill="none" stroke="#000000" stroke-width="0.100"  points="16.550,11.800 21.650,6.150 22.100,6.450 16.900,12.250 "/>
<line x1="7.750" y1="15.000" x2="17.663" y2="14.952" stroke="#000000" stroke-width="0.100" stroke-dasharray="0.10,0.10"/>
<polygon fill="#000000" stroke="none" stroke-width="0.100" points="18.038,14.951 17.539,15.203 17.663,14.952 17.537,14.703 "/>
<polygon fill="none" stroke="#000000" stroke-width="0.100"  points="18.038,14.951 17.539,15.203 17.663,14.952 17.537,14.703 "/>
<line x1="17.000" y1="12.250" x2="27.577" y2="9.666" stroke="#000000" stroke-width="0.100" stroke-dasharray="0.10,0.10"/>
<polygon fill="#000000" stroke="none" stroke-width="0.100" points="27.941,9.577 27.515,9.938 27.577,9.666 27.396,9.452 "/>
<polygon fill="none" stroke="#000000" stroke-width="0.100"  points="27.941,9.577 27.515,9.938 27.577,9.666 27.396,9.452 "/>
<path stroke="#000000" fill="none" stroke-width="0.100"  d ="M 14.600,14.900 A 1.201,1.201 0 0,0 14.790,13.507 "/>
<polygon fill="#000000" stroke="none" stroke-width="0.100" points="14.586,13.222 15.130,13.350 14.874,13.462 14.810,13.734 "/>
<polygon fill="none" stroke="#000000" stroke-width="0.100"  points="14.586,13.222 15.130,13.350 14.874,13.462 14.810,13.734 "/>
<path stroke="#000000" fill="none" stroke-width="0.100"  d ="M 20.400,11.300 A 1.717,1.717 0 0,0 19.890,9.617 "/>
<polygon fill="#000000" stroke="none" stroke-width="0.100" points="19.600,9.400 20.159,9.399 19.936,9.567 19.936,9.847 "/>
<polygon fill="none" stroke="#000000" stroke-width="0.100"  points="19.600,9.400 20.159,9.399 19.936,9.567 19.936,9.847 "/>
<text x="9.750" y="12.450"  fill="#000000" text-anchor="start" font-size="1.06" font-family="sans" font-style="normal" font-weight="400">
a</text>
<text x="18.450" y="8.150"  fill="#000000" text-anchor="start" font-size="1.06" font-family="sans" font-style="normal" font-weight="400">
a</text>
<text x="10.250" y="12.700"  fill="#000000" text-anchor="start" font-size="0.80" font-family="sans" font-style="normal" font-weight="400">
1</text>
<text x="18.950" y="8.450"  fill="#000000" text-anchor="start" font-size="0.80" font-family="sans" font-style="normal" font-weight="400">
2</text>
<text x="13.350" y="14.500"  fill="#000000" text-anchor="start" font-size="0.80" font-family="sans" font-style="normal" font-weight="400">
1</text>
<text x="19.400" y="11.250"  fill="#000000" text-anchor="start" font-size="0.80" font-family="sans" font-style="normal" font-weight="400">
2</text>
<text x="12.750" y="14.300"  fill="#000000" text-anchor="start" font-size="1.06" font-family="Standard Symbols PS" font-style="normal" font-weight="400">
Q</text>
<text x="18.865" y="10.950"  fill="#000000" text-anchor="start" font-size="1.06" font-family="Standard Symbols PS" font-style="normal" font-weight="400">
Q</text>
<text x="22.900" y="6.250"  fill="#000000" text-anchor="start" font-size="1.06" font-family="sans" font-style="normal" font-weight="400">
End Effector</text>
<polygon fill="#00FF00" stroke="none" stroke-width="0.100" points="21.617,6.161 22.050,5.894 22.983,4.911 22.183,6.011 22.100,6.477 "/>
<polygon fill="none" stroke="#000000" stroke-width="0.100"  points="21.617,6.161 22.050,5.894 22.983,4.911 22.183,6.011 22.100,6.477 "/>
</svg>