<?xml version="1.0" encoding="UTF-8" standalone="no"?>
<!-- Created by diasvg.py -->
<svg width="13.765cm" height="12.355cm" viewBox="7.962 -0.255 21.727 12.100"
 xmlns="http://www.w3.org/2000/svg"
 xmlns:xlink="http://www.w3.org/1999/xlink">
<line x1="8.964" y1="1.274" x2="9.011" y2="11.826" stroke="#000000" stroke-width="0.100" />
<polyline fill="none" stroke="#000000" stroke-width="0.100"  points="9.215,1.661 8.963,1.162 8.715,1.663 "/>
<polyline fill="none" stroke="#000000" stroke-width="0.100"  points="8.760,11.439 9.012,11.938 9.260,11.437 "/>
<line x1="8.236" y1="11.000" x2="20.489" y2="11.000" stroke="#000000" stroke-width="0.100" />
<polyline fill="none" stroke="#000000" stroke-width="0.100"  points="8.624,10.750 8.124,11.000 8.624,11.250 "/>
<polyline fill="none" stroke="#000000" stroke-width="0.100"  points="20.101,11.250 20.601,11.000 20.101,10.750 "/>
<line x1="8.963" y1="10.950" x2="17.012" y2="7.800" stroke="#0000FF" stroke-width="0.100" />
<line x1="17.062" y1="7.800" x2="18.913" y2="1.900" stroke="#0000FF" stroke-width="0.100" />
<line x1="8.963" y1="10.950" x2="18.812" y2="2.050" stroke="#FF0000" stroke-width="0.100" />
<text x="14.963" y="7.850"  fill="#000000" text-anchor="start" font-size="0.80" font-family="sans" font-style="normal" font-weight="400">
a</text>
<text x="17.012" y="5.350"  fill="#000000" text-anchor="start" font-size="0.80" font-family="sans" font-style="normal" font-weight="400">
a</text>
<text x="15.363" y="8.100"  fill="#000000" text-anchor="start" font-size="0.80" font-family="sans" font-style="normal" font-weight="400">
1</text>
<text x="17.312" y="5.700"  fill="#000000" text-anchor="start" font-size="0.80" font-family="sans" font-style="normal" font-weight="400">
2</text>
<path stroke="#00FF00" fill="none" stroke-width="0.100"  d ="M 16.663,11.000 A 2.668,2.668 0 0,0 16.118,8.359 "/>
<polyline fill="none" stroke="#00FF00" stroke-width="0.100"  points="16.580,8.437 16.044,8.277 16.237,8.801 "/>
<path stroke="#00FF00" fill="none" stroke-width="0.100"  d ="M 11.912,10.900 A 1.411,1.411 0 0,0 11.404,9.211 "/>
<polyline fill="none" stroke="#00FF00" stroke-width="0.100"  points="11.872,9.139 11.313,9.148 11.656,9.590 "/>
<path stroke="#00FF00" fill="none" stroke-width="0.100"  d ="M 13.812,9.100 A 2.180,2.180 0 0,0 12.901,7.569 "/>
<polyline fill="none" stroke="#00FF00" stroke-width="0.100"  points="13.368,7.531 12.810,7.505 13.124,7.967 "/>
<text x="19.113" y="5.100"  fill="#000000" text-anchor="start" font-size="1.06" font-family="Standard Symbols PS" font-style="normal" font-weight="400">
Q</text>
<text x="12.213" y="10.400"  fill="#000000" text-anchor="start" font-size="1.06" font-family="Standard Symbols PS" font-style="normal" font-weight="400">
f</text>
<text x="16.872" y="9.488"  fill="#000000" text-anchor="start" font-size="1.06" font-family="Standard Symbols PS" font-style="normal" font-weight="400">
Q</text>
<line x1="17.062" y1="7.800" x2="21.663" y2="6.050" stroke="#0000FF" stroke-width="0.100" stroke-dasharray="0.10,0.10"/>
<path stroke="#00FF00" fill="none" stroke-width="0.100"  d ="M 19.712,6.750 A 2.206,2.206 0 0,0 18.323,4.772 "/>
<polyline fill="none" stroke="#00FF00" stroke-width="0.100"  points="18.769,4.627 18.220,4.731 18.632,5.108 "/>
<text x="19.512" y="5.600"  fill="#000000" text-anchor="start" font-size="0.80" font-family="sans" font-style="normal" font-weight="400">
2</text>
<text x="19.462" y="2.000"  fill="#000000" text-anchor="start" font-size="0.80" font-family="sans" font-style="normal" font-weight="400">
(x,y)</text>
<line x1="19.012" y1="2.100" x2="20.812" y2="6.500" stroke="#0000FF" stroke-width="0.100" stroke-dasharray="0.10,0.10"/>
<text x="13.775" y="8.125"  fill="#000000" text-anchor="start" font-size="1.06" font-family="Standard Symbols PS" font-style="normal" font-weight="400">
g</text>
<text x="21.050" y="11.050"  fill="#000000" text-anchor="start" font-size="0.88" font-family="Utopia" font-style="normal" font-weight="400">
x</text>
<text x="8.900" y="0.400"  fill="#000000" text-anchor="start" font-size="0.88" font-family="Utopia" font-style="normal" font-weight="400">
y</text>
<text x="17.462" y="9.800"  fill="#000000" text-anchor="start" font-size="0.80" font-family="sans" font-style="normal" font-weight="400">
1</text>
</svg>