<?xml version="1.0" encoding="UTF-8" standalone="no"?>
<!-- Created by diasvg.py -->
<svg width="33.051cm" height="12.470cm" viewBox="4.000 -0.320 37.051 12.150"
 xmlns="http://www.w3.org/2000/svg"
 xmlns:xlink="http://www.w3.org/1999/xlink">
<line x1="5.001" y1="1.324" x2="5.049" y2="11.876" stroke="#000000" stroke-width="0.100" />
<polyline fill="none" stroke="#000000" stroke-width="0.100"  points="5.253,1.711 5.001,1.212 4.753,1.713 "/>
<polyline fill="none" stroke="#000000" stroke-width="0.100"  points="4.797,11.489 5.049,11.988 5.297,11.487 "/>
<line x1="4.274" y1="11.050" x2="16.526" y2="11.050" stroke="#000000" stroke-width="0.100" />
<polyline fill="none" stroke="#000000" stroke-width="0.100"  points="4.662,10.800 4.162,11.050 4.662,11.300 "/>
<polyline fill="none" stroke="#000000" stroke-width="0.100"  points="16.138,11.300 16.638,11.050 16.138,10.800 "/>
<line x1="5.000" y1="11.000" x2="13.050" y2="7.850" stroke="#0000FF" stroke-width="0.100" />
<line x1="13.100" y1="7.850" x2="14.950" y2="1.950" stroke="#0000FF" stroke-width="0.100" />
<line x1="5.000" y1="11.000" x2="14.850" y2="2.100" stroke="#FF0000" stroke-width="0.100" />
<text x="11.000" y="7.900"  fill="#000000" text-anchor="start" font-size="0.80" font-family="sans" font-style="normal" font-weight="400">
a</text>
<text x="13.050" y="5.400"  fill="#000000" text-anchor="start" font-size="0.80" font-family="sans" font-style="normal" font-weight="400">
a</text>
<text x="11.400" y="8.150"  fill="#000000" text-anchor="start" font-size="0.80" font-family="sans" font-style="normal" font-weight="400">
1</text>
<text x="13.350" y="5.750"  fill="#000000" text-anchor="start" font-size="0.80" font-family="sans" font-style="normal" font-weight="400">
2</text>
<path stroke="#00FF00" fill="none" stroke-width="0.100"  d ="M 12.700,11.050 A 2.668,2.668 0 0,0 12.156,8.409 "/>
<polyline fill="none" stroke="#00FF00" stroke-width="0.100"  points="12.617,8.487 12.081,8.327 12.275,8.851 "/>
<text x="15.150" y="5.150"  fill="#000000" text-anchor="start" font-size="1.06" font-family="Standard Symbols PS" font-style="normal" font-weight="400">
Q</text>
<text x="12.910" y="9.537"  fill="#000000" text-anchor="start" font-size="1.06" font-family="Standard Symbols PS" font-style="normal" font-weight="400">
Q</text>
<text x="13.500" y="9.850"  fill="#000000" text-anchor="start" font-size="0.80" font-family="sans" font-style="normal" font-weight="400">
1</text>
<line x1="13.100" y1="7.850" x2="17.700" y2="6.100" stroke="#0000FF" stroke-width="0.100" stroke-dasharray="0.10,0.10"/>
<path stroke="#00FF00" fill="none" stroke-width="0.100"  d ="M 15.750,6.800 A 2.206,2.206 0 0,0 14.361,4.822 "/>
<polyline fill="none" stroke="#00FF00" stroke-width="0.100"  points="14.807,4.677 14.258,4.781 14.670,5.158 "/>
<text x="15.550" y="5.650"  fill="#000000" text-anchor="start" font-size="0.80" font-family="sans" font-style="normal" font-weight="400">
2</text>
<text x="15.500" y="2.050"  fill="#000000" text-anchor="start" font-size="0.80" font-family="sans" font-style="normal" font-weight="400">
(x,y)</text>
<text x="17.087" y="11.100"  fill="#000000" text-anchor="start" font-size="0.88" font-family="Utopia" font-style="normal" font-weight="400">
x</text>
<text x="4.938" y="0.450"  fill="#000000" text-anchor="start" font-size="0.88" font-family="Utopia" font-style="normal" font-weight="400">
y</text>
<line x1="23.641" y1="1.209" x2="23.689" y2="11.761" stroke="#000000" stroke-width="0.100" />
<polyline fill="none" stroke="#000000" stroke-width="0.100"  points="23.893,1.596 23.641,1.097 23.393,1.598 "/>
<polyline fill="none" stroke="#000000" stroke-width="0.100"  points="23.437,11.374 23.689,11.873 23.937,11.372 "/>
<line x1="22.914" y1="10.935" x2="35.166" y2="10.935" stroke="#000000" stroke-width="0.100" />
<polyline fill="none" stroke="#000000" stroke-width="0.100"  points="23.302,10.685 22.802,10.935 23.302,11.185 "/>
<polyline fill="none" stroke="#000000" stroke-width="0.100"  points="34.778,11.185 35.278,10.935 34.778,10.685 "/>
<line x1="23.640" y1="10.885" x2="31.690" y2="7.735" stroke="#0000FF" stroke-width="0.100" />
<line x1="31.740" y1="7.735" x2="33.590" y2="1.835" stroke="#0000FF" stroke-width="0.100" />
<line x1="23.640" y1="10.885" x2="33.490" y2="1.985" stroke="#FF0000" stroke-width="0.100" />
<text x="29.640" y="7.785"  fill="#000000" text-anchor="start" font-size="0.80" font-family="sans" font-style="normal" font-weight="400">
a</text>
<text x="31.690" y="5.285"  fill="#000000" text-anchor="start" font-size="0.80" font-family="sans" font-style="normal" font-weight="400">
a</text>
<text x="30.040" y="8.035"  fill="#000000" text-anchor="start" font-size="0.80" font-family="sans" font-style="normal" font-weight="400">
1</text>
<text x="31.990" y="5.635"  fill="#000000" text-anchor="start" font-size="0.80" font-family="sans" font-style="normal" font-weight="400">
2</text>
<path stroke="#00FF00" fill="none" stroke-width="0.100"  d ="M 31.340,10.935 A 2.668,2.668 0 0,0 30.796,8.294 "/>
<polyline fill="none" stroke="#00FF00" stroke-width="0.100"  points="31.257,8.372 30.721,8.212 30.915,8.736 "/>
<text x="34.840" y="4.185"  fill="#000000" text-anchor="start" font-size="1.06" font-family="Standard Symbols PS" font-style="normal" font-weight="400">
Q</text>
<text x="31.550" y="9.422"  fill="#000000" text-anchor="start" font-size="1.06" font-family="Standard Symbols PS" font-style="normal" font-weight="400">
Q</text>
<text x="32.140" y="9.735"  fill="#000000" text-anchor="start" font-size="0.80" font-family="sans" font-style="normal" font-weight="400">
1</text>
<line x1="31.740" y1="7.735" x2="36.340" y2="5.985" stroke="#0000FF" stroke-width="0.100" stroke-dasharray="0.10,0.10"/>
<path stroke="#00FF00" fill="none" stroke-width="0.100"  d ="M 35.050,6.250 A 3.941,3.941 0 0,0 33.578,3.235 "/>
<polyline fill="none" stroke="#00FF00" stroke-width="0.100"  points="34.043,3.252 33.491,3.165 33.753,3.659 "/>
<text x="35.250" y="4.700"  fill="#000000" text-anchor="start" font-size="0.80" font-family="sans" font-style="normal" font-weight="400">
2</text>
<text x="34.140" y="1.935"  fill="#000000" text-anchor="start" font-size="0.80" font-family="sans" font-style="normal" font-weight="400">
(x,y)</text>
<line x1="33.690" y1="2.035" x2="33.700" y2="7.850" stroke="#0000FF" stroke-width="0.100" stroke-dasharray="0.10,0.10"/>
<text x="34.153" y="9.700"  fill="#000000" text-anchor="start" font-size="0.80" font-family="SymbolPi" font-style="normal" font-weight="400">
(x&apos;,y&apos;)</text>
<line x1="34.078" y1="9.285" x2="32.338" y2="7.991" stroke="#000000" stroke-width="0.100" />
<polygon fill="#000000" stroke="none" stroke-width="0.100" points="32.217,7.902 32.437,7.941 32.338,7.991 32.318,8.101 "/>
<polygon fill="none" stroke="#000000" stroke-width="0.100"  points="32.217,7.902 32.437,7.941 32.338,7.991 32.318,8.101 "/>
<text x="35.727" y="10.985"  fill="#000000" text-anchor="start" font-size="0.88" font-family="Utopia" font-style="normal" font-weight="400">
x</text>
<text x="23.578" y="0.335"  fill="#000000" text-anchor="start" font-size="0.88" font-family="Utopia" font-style="normal" font-weight="400">
y</text>
<line x1="31.845" y1="7.665" x2="37.000" y2="7.725" stroke="#0000FF" stroke-width="0.100" stroke-dasharray="0.10,0.10"/>
<path stroke="#00FF00" fill="none" stroke-width="0.100"  d ="M 35.450,7.700 A 1.142,1.142 0 0,0 35.295,6.666 "/>
<polyline fill="none" stroke="#00FF00" stroke-width="0.100"  points="35.446,6.640 35.232,6.577 35.309,6.786 "/>
<text x="35.800" y="7.000"  fill="#000000" text-anchor="start" font-size="1.06" font-family="Standard Symbols PS" font-style="normal" font-weight="400">
Q</text>
<text x="36.191" y="7.411"  fill="#000000" text-anchor="start" font-size="0.80" font-family="sans" font-style="normal" font-weight="400">
1</text>
</svg>