<?xml version="1.0" encoding="UTF-8" standalone="no"?>
<!-- Created by diasvg.py -->
<svg width="34.568cm" height="12.359cm" viewBox="9.600 2.591 44.168 14.950"
 xmlns="http://www.w3.org/2000/svg"
 xmlns:xlink="http://www.w3.org/1999/xlink">
<line x1="12.600" y1="3.187" x2="12.600" y2="14.413" stroke="#000000" stroke-width="0.100" />
<polygon fill="#000000" stroke="none" stroke-width="0.100" points="12.600,2.812 12.850,3.312 12.600,3.187 12.350,3.312 "/>
<polygon fill="none" stroke="#000000" stroke-width="0.100"  points="12.600,2.812 12.850,3.312 12.600,3.187 12.350,3.312 "/>
<polygon fill="#000000" stroke="none" stroke-width="0.100" points="12.600,14.788 12.350,14.288 12.600,14.413 12.850,14.288 "/>
<polygon fill="none" stroke="#000000" stroke-width="0.100"  points="12.600,14.788 12.350,14.288 12.600,14.413 12.850,14.288 "/>
<line x1="10.137" y1="12.300" x2="24.413" y2="12.300" stroke="#000000" stroke-width="0.100" />
<polygon fill="#000000" stroke="none" stroke-width="0.100" points="9.762,12.300 10.262,12.050 10.137,12.300 10.262,12.550 "/>
<polygon fill="none" stroke="#000000" stroke-width="0.100"  points="9.762,12.300 10.262,12.050 10.137,12.300 10.262,12.550 "/>
<polygon fill="#000000" stroke="none" stroke-width="0.100" points="24.788,12.300 24.288,12.550 24.413,12.300 24.288,12.050 "/>
<polygon fill="none" stroke="#000000" stroke-width="0.100"  points="24.788,12.300 24.288,12.550 24.413,12.300 24.288,12.050 "/>
<rect x="12.700" y="5.200" width="7.050" height="7.050" fill="#0000FF" stroke="none" stroke-width="0"/>
<rect x="12.700" y="5.200" width="7.050" height="7.050" fill="none" stroke="#000000" stroke-width="0.100" />
<text x="19.050" y="13.250"  fill="#000000" text-anchor="start" font-size="1.06" font-family="sans" font-style="normal" font-weight="400">
2</text>
<text x="19.600" y="13.250"  fill="#000000" text-anchor="start" font-size="1.20" font-family="Standard Symbols PS" font-style="normal" font-weight="400">
p</text>
<text x="11.365" y="5.565"  fill="#000000" text-anchor="start" font-size="1.06" font-family="sans" font-style="normal" font-weight="400">
2</text>
<text x="11.915" y="5.565"  fill="#000000" text-anchor="start" font-size="1.20" font-family="Standard Symbols PS" font-style="normal" font-weight="400">
p</text>
<text x="24.600" y="11.850"  fill="#000000" text-anchor="start" font-size="0.78" font-family="sans" font-style="normal" font-weight="400">
1</text>
<text x="13.900" y="3.550"  fill="#000000" text-anchor="start" font-size="0.78" font-family="sans" font-style="normal" font-weight="400">
2</text>
<text x="13.250" y="3.250"  fill="#000000" text-anchor="start" font-size="1.06" font-family="Standard Symbols PS" font-style="normal" font-weight="400">
Q</text>
<text x="23.915" y="11.650"  fill="#000000" text-anchor="start" font-size="1.06" font-family="Standard Symbols PS" font-style="normal" font-weight="400">
Q</text>
<ellipse cx="37.290" cy="8.645" rx="6.825" ry="3.675" fill="#FFFFFF" stroke="none"  /><ellipse cx="37.290" cy="8.645" rx="6.825" ry="3.675" fill="none" stroke="#000000"  stroke-width="0.100" /><ellipse cx="37.240" cy="8.395" rx="3.525" ry="1.225" fill="#FFFFFF" stroke="none"  /><ellipse cx="37.240" cy="8.395" rx="3.525" ry="1.225" fill="none" stroke="#000000"  stroke-width="0.100" /><path stroke="#000000" fill="none" stroke-width="0.100"  d ="M 40.865,11.870 A 1.447,1.447 0 0,0 39.733,9.261 "/>
<path stroke="#000000" fill="none" stroke-width="0.100" stroke-dasharray="0.10,0.10" d ="M 39.733,9.261 A 1.530,1.530 0 0,0 40.815,11.920 "/>
<path stroke="#000000" fill="none" stroke-width="0.100"  d ="M 30.715,9.420 A 10.443,10.443 0 0,0 44.115,8.645 "/>
<text x="40.665" y="9.720"  fill="#000000" text-anchor="start" font-size="1.06" font-family="Standard Symbols PS" font-style="normal" font-weight="400">
q</text>
<text x="42.080" y="9.620"  fill="#000000" text-anchor="start" font-size="1.06" font-family="Standard Symbols PS" font-style="normal" font-weight="400">
q</text>
<text x="42.500" y="9.750"  fill="#000000" text-anchor="start" font-size="0.78" font-family="sans" font-style="normal" font-weight="400">
1</text>
<text x="41.065" y="9.870"  fill="#000000" text-anchor="start" font-size="0.78" font-family="sans" font-style="normal" font-weight="400">
2</text>
</svg>