<?xml version="1.0" encoding="UTF-8" standalone="no"?>
<!-- Created with Inkscape (http://www.inkscape.org/) -->

<svg
   xmlns:dc="http://purl.org/dc/elements/1.1/"
   xmlns:cc="http://creativecommons.org/ns#"
   xmlns:rdf="http://www.w3.org/1999/02/22-rdf-syntax-ns#"
   xmlns:svg="http://www.w3.org/2000/svg"
   xmlns="http://www.w3.org/2000/svg"
   xmlns:sodipodi="http://sodipodi.sourceforge.net/DTD/sodipodi-0.dtd"
   xmlns:inkscape="http://www.inkscape.org/namespaces/inkscape"
   id="svg2"
   version="1.1"
   inkscape:version="0.91 r13725"
   xml:space="preserve"
   width="410"
   height="366.25"
   viewBox="0 0 410 366.25"
   sodipodi:docname="curvature2.svg"><metadata
     id="metadata8"><rdf:RDF><cc:Work
         rdf:about=""><dc:format>image/svg+xml</dc:format><dc:type
           rdf:resource="http://purl.org/dc/dcmitype/StillImage" /><dc:title></dc:title></cc:Work></rdf:RDF></metadata><defs
     id="defs6" /><sodipodi:namedview
     pagecolor="#ffffff"
     bordercolor="#666666"
     borderopacity="1"
     objecttolerance="10"
     gridtolerance="10"
     guidetolerance="10"
     inkscape:pageopacity="0"
     inkscape:pageshadow="2"
     inkscape:window-width="640"
     inkscape:window-height="480"
     id="namedview4"
     showgrid="false"
     inkscape:zoom="0.6443686"
     inkscape:cx="205"
     inkscape:cy="183.125"
     inkscape:window-x="124"
     inkscape:window-y="48"
     inkscape:window-maximized="0"
     inkscape:current-layer="g10" /><g
     id="g10"
     inkscape:groupmode="layer"
     inkscape:label="curvature2"
     transform="matrix(1.25,0,0,-1.25,0,366.25)"><g
       id="g12"
       transform="scale(0.1,0.1)"><path
         d="m 1463.48,315.406 836.207,0 0,719.281 -836.207,0 0,-719.281 z"
         style="fill:#ffffff;fill-opacity:1;fill-rule:nonzero;stroke:none"
         id="path14"
         inkscape:connector-curvature="0" /><path
         d="m 1463.48,315.406 836.207,0 0,719.281 -836.207,0 0,-719.281 z"
         style="fill:none;stroke:#000000;stroke-width:28.34600067;stroke-linecap:butt;stroke-linejoin:miter;stroke-miterlimit:10;stroke-dasharray:none;stroke-opacity:1"
         id="path16"
         inkscape:connector-curvature="0" /><path
         d="m 60.3516,311.863 3203.0984,0"
         style="fill:none;stroke:#000000;stroke-width:28.34600067;stroke-linecap:butt;stroke-linejoin:miter;stroke-miterlimit:10;stroke-dasharray:none;stroke-opacity:1"
         id="path18"
         inkscape:connector-curvature="0" /><path
         d="M 46.1797,311.863 1463.48,1034.69"
         style="fill:none;stroke:#000000;stroke-width:28.34600067;stroke-linecap:butt;stroke-linejoin:miter;stroke-miterlimit:10;stroke-dasharray:none;stroke-opacity:1"
         id="path20"
         inkscape:connector-curvature="0" /><path
         d="M 17.832,297.691 2682.81,1155.16"
         style="fill:none;stroke:#000000;stroke-width:28.34600067;stroke-linecap:butt;stroke-linejoin:miter;stroke-miterlimit:10;stroke-dasharray:none;stroke-opacity:1"
         id="path22"
         inkscape:connector-curvature="0" /><path
         d="M 1009.94,977.992 1151.67,708.707"
         style="fill:none;stroke:#000000;stroke-width:85.03800201;stroke-linecap:butt;stroke-linejoin:miter;stroke-miterlimit:10;stroke-dasharray:none;stroke-opacity:1"
         id="path24"
         inkscape:connector-curvature="0" /><path
         d="m 2639.84,1332.32 99.21,-283.46"
         style="fill:none;stroke:#000000;stroke-width:85.03800201;stroke-linecap:butt;stroke-linejoin:miter;stroke-miterlimit:10;stroke-dasharray:none;stroke-opacity:1"
         id="path26"
         inkscape:connector-curvature="0" /><path
         d="m 60.3516,1417.36 c 16.7695,0.75 33.5586,1.14 50.3434,1.14 606.524,0 1101.185,-486.035 1111.845,-1092.465"
         style="fill:none;stroke:#000000;stroke-width:28.34600067;stroke-linecap:butt;stroke-linejoin:miter;stroke-miterlimit:10;stroke-dasharray:none;stroke-opacity:1"
         id="path28"
         inkscape:connector-curvature="0" /><path
         d="m 85.6055,2909.07 c 43.3675,2.11 86.7815,3.18 130.1995,3.18 1452.245,0 2637.245,-1162.57 2664.975,-2614.559"
         style="fill:none;stroke:#000000;stroke-width:28.34600067;stroke-linecap:butt;stroke-linejoin:miter;stroke-miterlimit:10;stroke-dasharray:none;stroke-opacity:1"
         id="path30"
         inkscape:connector-curvature="0" /><path
         d="m 1229.09,1114.9 c 0,11.07 0.58,11.48 18.73,12.65 l 0,5.68 -55.11,0 0,-5.68 c 17.2,-1.17 17.6,-1.58 17.6,-12.65 l 0,-99.88 c 0,-10.71 -0.4,-11.07 -17.6,-12.21 l 0,-5.681 100.84,0 2.34,34.871 -5.86,0 c -3.93,-25.52 -14.67,-28.05 -35.17,-28.05 -9.75,0 -16.79,0 -20.9,1.57 -4.1,1.8 -4.87,5.14 -4.87,14.82 l 0,94.56"
         style="fill:#000000;fill-opacity:1;fill-rule:nonzero;stroke:none"
         id="path32"
         inkscape:connector-curvature="0" /><path
         d="m 716.66,135.031 c 0,7.434 -0.547,14.141 -1.648,20.133 -1.074,6.012 -2.824,11.375 -5.242,16.094 -2.422,4.597 -5.098,8.594 -8.032,11.992 -2.91,3.395 -5.926,6.184 -9.054,8.359 -3.129,2.176 -6.258,3.789 -9.387,4.84 -3.106,1.051 -6.004,1.574 -8.692,1.574 -3.445,0 -6.855,-0.644 -10.23,-1.941 -3.371,-1.297 -6.586,-3.129 -9.645,-5.5 -3.054,-2.348 -5.89,-5.109 -8.503,-8.285 -2.618,-3.156 -4.879,-6.652 -6.786,-10.488 -2.418,-4.692 -4.238,-9.899 -5.461,-15.621 -1.199,-5.696 -1.796,-12.747 -1.796,-21.157 0,-10.047 0.695,-18.761 2.089,-26.14 1.418,-7.36 3.457,-13.641 6.122,-18.848 3.839,-7.4297 8.839,-13.1992 14.996,-17.3086 6.187,-4.0821 12.589,-6.1211 19.214,-6.1211 3.692,0 7.223,0.6484 10.598,1.9414 3.399,1.2969 6.586,3.0312 9.57,5.207 3.004,2.1758 5.684,4.6836 8.028,7.5195 2.371,2.8594 4.316,5.8399 5.832,8.9454 2.418,4.6914 4.363,10.7934 5.828,18.2964 1.469,7.504 2.199,16.34 2.199,26.508 m -18.773,-0.367 -46.93,0 1.172,18.774 c 0.121,1.566 0.379,3.449 0.769,5.648 0.391,2.223 0.868,4.473 1.43,6.746 0.586,2.297 1.274,4.547 2.055,6.746 0.781,2.227 1.625,4.254 2.531,6.086 1.809,3.52 4.289,6.453 7.441,8.801 3.18,2.347 5.805,3.519 7.883,3.519 2.715,0 5.621,-1.269 8.727,-3.812 3.105,-2.543 5.621,-5.77 7.555,-9.68 0.781,-1.441 1.492,-3.203 2.125,-5.281 0.66,-2.078 1.273,-4.227 1.835,-6.453 0.586,-2.223 1.075,-4.449 1.465,-6.672 0.391,-2.199 0.649,-4.145 0.77,-5.832 l 1.172,-18.59 m -0.293,-7.039 -1.172,-19.211 c -0.27,-4.035 -1.051,-8.129 -2.348,-12.2851 -1.293,-4.1289 -2.922,-7.8477 -4.875,-11.1445 -1.929,-3.2774 -4.203,-5.9922 -6.82,-8.1406 -2.59,-2.129 -5.242,-3.1915 -7.957,-3.1915 -2.738,0 -5.402,0.9766 -7.992,2.9336 -2.594,1.9571 -4.903,4.5469 -6.93,7.7735 -2.004,3.2265 -3.691,6.9414 -5.062,11.1484 -1.368,4.2031 -2.176,8.5662 -2.418,13.0902 l -1.172,19.027 46.746,0"
         style="fill:#000000;fill-opacity:1;fill-rule:nonzero;stroke:none"
         id="path34"
         inkscape:connector-curvature="0" /><path
         d="m 803.648,66.6133 0,3.5195 c -1.566,0 -3.386,0.1602 -5.464,0.4766 -2.079,0.3164 -4.059,0.9648 -5.938,1.9453 -1.883,0.9765 -3.473,2.4062 -4.769,4.2891 -1.293,1.9062 -1.942,4.4218 -1.942,7.5507 l 0,113.6285 -3.519,0 -31.571,-17.378 0,-3.52 c 3.375,1.297 6.282,2.395 8.727,3.301 2.469,0.929 4.363,1.394 5.683,1.394 1.418,0 2.481,-0.394 3.192,-1.175 0.707,-0.782 1.062,-2.149 1.062,-4.106 l 0,-92.3632 c 0,-2.9805 -0.648,-5.4258 -1.945,-7.332 -1.293,-1.8829 -2.859,-3.3126 -4.691,-4.2891 -1.809,-0.9805 -3.789,-1.6289 -5.942,-1.9453 -2.125,-0.3164 -3.972,-0.4766 -5.535,-0.4766 l 0,-3.5195 52.652,0"
         style="fill:#000000;fill-opacity:1;fill-rule:nonzero;stroke:none"
         id="path36"
         inkscape:connector-curvature="0" /><path
         d="m 1010.04,127.238 c 0,7.43 -0.55,14.141 -1.65,20.129 -1.07,6.012 -2.82,11.379 -5.24,16.098 -2.42,4.594 -5.095,8.59 -8.029,11.988 -2.91,3.399 -5.93,6.184 -9.059,8.359 -3.128,2.176 -6.257,3.79 -9.386,4.84 -3.106,1.051 -6,1.578 -8.688,1.578 -3.449,0 -6.859,-0.648 -10.23,-1.945 -3.375,-1.293 -6.59,-3.129 -9.645,-5.5 -3.054,-2.344 -5.89,-5.105 -8.508,-8.285 -2.613,-3.152 -4.875,-6.648 -6.781,-10.488 -2.422,-4.692 -4.242,-9.899 -5.465,-15.617 -1.195,-5.696 -1.797,-12.75 -1.797,-21.157 0,-10.047 0.7,-18.761 2.09,-26.144 1.418,-7.3557 3.461,-13.6409 6.125,-18.8479 3.836,-7.4297 8.836,-13.1992 14.996,-17.3047 6.184,-4.082 12.59,-6.125 19.215,-6.125 3.688,0 7.223,0.6484 10.594,1.9453 3.398,1.2969 6.59,3.0313 9.57,5.2071 3.008,2.1757 5.684,4.6796 8.032,7.5156 2.371,2.8594 4.316,5.8437 5.826,8.9453 2.42,4.6953 4.37,10.793 5.83,18.2973 1.47,7.503 2.2,16.343 2.2,26.511 m -18.77,-0.367 -46.934,0 1.176,18.774 c 0.121,1.562 0.379,3.445 0.769,5.644 0.391,2.227 0.867,4.473 1.43,6.746 0.586,2.301 1.269,4.547 2.051,6.75 0.785,2.223 1.629,4.25 2.531,6.086 1.809,3.52 4.289,6.453 7.445,8.801 3.176,2.344 5.805,3.519 7.883,3.519 2.711,0 5.621,-1.273 8.727,-3.816 3.101,-2.539 5.621,-5.766 7.55,-9.68 0.786,-1.441 1.493,-3.199 2.129,-5.277 0.661,-2.078 1.27,-4.23 1.832,-6.453 0.586,-2.227 1.075,-4.449 1.469,-6.676 0.391,-2.199 0.645,-4.141 0.77,-5.828 l 1.172,-18.59 m -0.293,-7.039 -1.172,-19.215 c -0.27,-4.0311 -1.055,-8.1287 -2.348,-12.2811 -1.297,-4.1328 -2.922,-7.8476 -4.879,-11.1484 -1.93,-3.2734 -4.203,-5.9883 -6.816,-8.1406 -2.594,-2.125 -5.246,-3.1875 -7.957,-3.1875 -2.739,0 -5.403,0.9765 -7.996,2.9336 -2.59,1.9531 -4.899,4.5429 -6.93,7.7695 -2.004,3.2266 -3.691,6.9453 -5.059,11.1484 -1.367,4.2032 -2.175,8.5664 -2.422,13.0901 l -1.171,19.031 46.75,0"
         style="fill:#000000;fill-opacity:1;fill-rule:nonzero;stroke:none"
         id="path38"
         inkscape:connector-curvature="0" /><path
         d="m 1112.69,87.4922 -4.07,0 c -1.18,-1.543 -2.23,-3.0586 -3.16,-4.5469 -0.9,-1.4922 -1.98,-2.8242 -3.23,-3.9961 -1.24,-1.1758 -2.85,-2.0898 -4.84,-2.75 -1.95,-0.6367 -4.53,-0.9531 -7.73,-0.9531 l -44.4,0 30.76,31.3129 c 3.37,3.519 6.67,7.269 9.9,11.253 3.22,4.012 6.04,8.083 8.43,12.211 2.4,4.133 4.33,8.25 5.79,12.356 1.5,4.133 2.24,8.019 2.24,11.66 0,1.859 -0.12,3.914 -0.36,6.16 -0.25,2.274 -0.68,4.598 -1.29,6.969 -0.61,2.371 -1.48,4.617 -2.6,6.746 -1.1,2.125 -2.46,4.07 -4.07,5.828 -3.94,3.985 -8.15,6.723 -12.65,8.215 -4.5,1.516 -8.7,2.273 -12.61,2.273 -5.31,0 -10.33,-0.964 -15.07,-2.898 -4.75,-1.906 -9.45,-5.316 -14.12,-10.23 -3.01,-3.102 -5.68,-7.028 -8.03,-11.77 -2.32,-4.742 -3.74,-10.168 -4.25,-16.277 l 4.1,0 c 2.32,8.308 5.86,14.507 10.6,18.59 4.74,4.105 10.42,6.16 17.05,6.16 8.95,0 15.65,-2.664 20.13,-7.996 4.5,-5.305 6.75,-12.258 6.75,-20.864 0,-3.273 -0.65,-6.941 -1.95,-11 -1.29,-4.031 -3.05,-8.136 -5.28,-12.316 -2.2,-4.18 -4.79,-8.301 -7.77,-12.359 -2.98,-4.032 -6.16,-7.821 -9.53,-11.3677 l -35.09,-36.2226 -0.37,-2.8633 75.31,0 11.41,28.6758"
         style="fill:#000000;fill-opacity:1;fill-rule:nonzero;stroke:none"
         id="path40"
         inkscape:connector-curvature="0" /><path
         d="m 692.215,438.078 c 22.75,-26.32 35.273,-59.957 35.273,-94.754 0,-24.648 -6.289,-48.898 -18.269,-70.437"
         style="fill:none;stroke:#000000;stroke-width:28.34600067;stroke-linecap:butt;stroke-linejoin:miter;stroke-miterlimit:10;stroke-dasharray:none;stroke-opacity:1"
         id="path42"
         inkscape:connector-curvature="0" /><path
         d="m 666.344,465.738 63.187,5 -23.773,-20.957 2.496,-31.59"
         style="fill:#000000;fill-opacity:1;fill-rule:evenodd;stroke:none"
         id="path44"
         inkscape:connector-curvature="0" /><path
         d="m 666.344,465.738 63.187,5 -23.773,-20.957 2.496,-31.59 -41.91,47.547 z"
         style="fill:none;stroke:#000000;stroke-width:28.34600067;stroke-linecap:butt;stroke-linejoin:miter;stroke-miterlimit:10;stroke-dasharray:none;stroke-opacity:1"
         id="path46"
         inkscape:connector-curvature="0" /><path
         d="M 886.684,682.828 C 957.664,549.371 998.234,401.852 1005.47,250.863"
         style="fill:none;stroke:#000000;stroke-width:28.34600067;stroke-linecap:butt;stroke-linejoin:miter;stroke-miterlimit:10;stroke-dasharray:none;stroke-opacity:1"
         id="path48"
         inkscape:connector-curvature="0" /><path
         d="m 866.43,720.09 54.168,-32.914 -31.543,-3.086 -16.457,-27.086"
         style="fill:#000000;fill-opacity:1;fill-rule:evenodd;stroke:none"
         id="path50"
         inkscape:connector-curvature="0" /><path
         d="m 866.43,720.09 54.168,-32.914 -31.543,-3.086 -16.457,-27.086 -6.168,63.086 z"
         style="fill:none;stroke:#000000;stroke-width:28.34600067;stroke-linecap:butt;stroke-linejoin:miter;stroke-miterlimit:10;stroke-dasharray:none;stroke-opacity:1"
         id="path52"
         inkscape:connector-curvature="0" /><path
         d="m 515.707,798.055 -30.066,-5.282 0,-5.242 7.406,-0.953 c 5.098,-0.808 6.269,-1.762 6.269,-8.766 l 0,-62.148 c 0,-10.082 -0.988,-10.488 -14.664,-10.488 l 0,-5.68 51.993,0 0,5.68 c -17.383,0 -18.555,0.406 -18.555,10.488 l 0,46.238 c 0,14.739 6.637,19.727 11.148,19.727 3.114,0 6.453,-1.027 12.098,-3.817 1.394,-0.695 2.934,-0.878 3.926,-0.878 4.691,0 8.98,4.839 8.98,10.816 0,4.621 -2.75,10.305 -10.375,10.305 -7.039,0 -12.871,-4.621 -25.777,-16.758 l -2.383,16.758"
         style="fill:#000000;fill-opacity:1;fill-rule:nonzero;stroke:none"
         id="path54"
         inkscape:connector-curvature="0" /><path
         d="m 642.277,699.496 0,5.719 -16.39,1.394 c -4.106,0.364 -6.453,1.942 -6.453,9.606 l 0,115.863 -0.989,1.176 -40.629,-6.895 0,-4.914 18.153,-2.16 c 3.336,-0.406 4.691,-1.98 4.691,-7.664 l 0,-95.406 c 0,-3.742 -0.586,-6.086 -1.758,-7.481 -0.992,-1.355 -2.531,-1.945 -4.695,-2.125 l -16.391,-1.394 0,-5.719 64.461,0"
         style="fill:#000000;fill-opacity:1;fill-rule:nonzero;stroke:none"
         id="path56"
         inkscape:connector-curvature="0" /><path
         d="m 1692.07,783.879 -30.07,-5.277 0,-5.247 7.41,-0.953 c 5.1,-0.804 6.27,-1.757 6.27,-8.761 l 0,-62.149 c 0,-10.086 -0.99,-10.488 -14.67,-10.488 l 0,-5.684 51.99,0 0,5.684 c -17.38,0 -18.55,0.402 -18.55,10.488 l 0,46.235 c 0,14.742 6.64,19.726 11.15,19.726 3.11,0 6.45,-1.027 12.1,-3.812 1.39,-0.696 2.93,-0.879 3.92,-0.879 4.7,0 8.99,4.84 8.99,10.816 0,4.617 -2.75,10.301 -10.38,10.301 -7.04,0 -12.87,-4.617 -25.78,-16.754 l -2.38,16.754"
         style="fill:#000000;fill-opacity:1;fill-rule:nonzero;stroke:none"
         id="path58"
         inkscape:connector-curvature="0" /><path
         d="m 1826.89,710.949 -5.46,0.957 c -4.22,-10.379 -8.25,-11.734 -16.32,-11.734 l -50.13,0 c 3.16,10.008 14.78,23.687 33.12,36.555 18.92,13.492 33.51,22.148 33.51,43.707 0,28.562 -18.26,38.425 -39.09,38.425 -26.76,0 -40.63,-16.976 -40.63,-27.609 0,-7.078 7.41,-10.414 10.75,-10.414 3.52,0 4.88,2.09 5.68,5.609 3.12,14.157 10.75,25.594 22.84,25.594 15.04,0 19.33,-13.527 19.33,-28.707 0,-20.68 -10.56,-32.27 -27.54,-47.156 -24.05,-20.68 -32.45,-33.84 -36.15,-48.91 l 1.94,-1.946 81.47,0 6.68,25.629"
         style="fill:#000000;fill-opacity:1;fill-rule:nonzero;stroke:none"
         id="path60"
         inkscape:connector-curvature="0" /><path
         d="m 1814.71,1205.3 0,-5.68 c 8.22,0 10.82,-0.58 13.2,-8.1 8.44,-26.03 17.24,-52.65 25.63,-82.43 l 14.89,0 22.95,75.1 0.59,0 c 8.18,-25.05 16.17,-50.05 23.94,-75.1 l 14.78,0 c 7.99,29.04 19.25,64.24 24.02,79.68 3.26,10.05 5.35,10.85 14.88,10.85 l 0,5.68 -37.54,0 0,-5.68 11.14,-0.99 c 3.3,-0.4 3.52,-2.93 2.72,-6.49 -2.53,-11.58 -11.52,-43.44 -17.57,-65.67 l -0.36,0 c -8.36,25.56 -16.36,50.93 -24.35,76.49 l -14.77,0 -22.56,-76.49 -0.4,0 c -7.11,22.63 -13.24,45.43 -19.58,66.66 -1.17,3.75 0.04,5.5 3.63,5.91 l 7,0.58 0,5.68 -42.24,0"
         style="fill:#000000;fill-opacity:1;fill-rule:nonzero;stroke:none"
         id="path62"
         inkscape:connector-curvature="0" /><path
         d="m 2452.34,627.211 0,5.684 c -13.89,0 -14.66,0.402 -14.66,10.449 l 0,128.187 -1.4,1.172 -30.47,-4.914 0,-4.91 7.12,-0.77 c 4.84,-0.625 5.97,-1.578 5.97,-9.058 l 0,-32.192 c -5.28,2.934 -12.21,4.692 -20.86,4.692 -15.99,0 -27.9,-5.024 -36.08,-13.348 -8.4,-8.726 -13.46,-21.484 -13.46,-38.316 0,-29.367 15.11,-49.02 41.03,-49.02 10.23,0 19.14,5.094 29.37,14.445 l 0,-10.742 1.39,-1.359 32.05,0 m -33.44,34.137 c 0,-4.254 0,-7.551 -1.13,-10.817 -3.78,-10.082 -12.14,-13.933 -22,-13.933 -17.42,0 -26.15,17.382 -26.15,39.601 0,25.117 8.91,42.531 28.24,42.531 8.91,0 16.13,-4.253 19.54,-12.171 1.5,-3.266 1.5,-5.977 1.5,-11.219 l 0,-33.992"
         style="fill:#000000;fill-opacity:1;fill-rule:nonzero;stroke:none"
         id="path64"
         inkscape:connector-curvature="0" /><path
         d="m 2490.48,624.867 41.03,140.797 -13.09,0 -41.03,-140.797 13.09,0"
         style="fill:#000000;fill-opacity:1;fill-rule:nonzero;stroke:none"
         id="path66"
         inkscape:connector-curvature="0" /><path
         d="m 2645.25,652.844 -5.46,0.953 c -4.22,-10.379 -8.25,-11.735 -16.32,-11.735 l -50.12,0 c 3.15,10.008 14.78,23.688 33.11,36.555 18.92,13.496 33.51,22.149 33.51,43.707 0,28.563 -18.26,38.426 -39.08,38.426 -26.77,0 -40.63,-16.977 -40.63,-27.609 0,-7.075 7.41,-10.414 10.74,-10.414 3.52,0 4.88,2.089 5.69,5.609 3.11,14.156 10.74,25.594 22.84,25.594 15.04,0 19.33,-13.528 19.33,-28.707 0,-20.68 -10.57,-32.27 -27.54,-47.153 -24.05,-20.683 -32.45,-33.843 -36.16,-48.914 l 1.95,-1.945 81.47,0 6.67,25.633"
         style="fill:#000000;fill-opacity:1;fill-rule:nonzero;stroke:none"
         id="path68"
         inkscape:connector-curvature="0" /><path
         d="m 2426.96,1237.5 c 0,11.07 0.59,11.47 18.74,12.64 l 0,5.69 -55.11,0 0,-5.69 c 17.2,-1.17 17.6,-1.57 17.6,-12.64 l 0,-99.88 c 0,-10.71 -0.4,-11.08 -17.6,-12.21 l 0,-5.69 100.83,0 2.35,34.87 -5.87,0 c -3.92,-25.52 -14.66,-28.05 -35.16,-28.05 -9.75,0 -16.79,0 -20.9,1.58 -4.11,1.8 -4.88,5.13 -4.88,14.81 l 0,94.57"
         style="fill:#000000;fill-opacity:1;fill-rule:nonzero;stroke:none"
         id="path70"
         inkscape:connector-curvature="0" /></g></g></svg>