<?xml version="1.0" encoding="UTF-8" standalone="no"?>
<!DOCTYPE svg PUBLIC "-//W3C//DTD SVG 1.0//EN" "http://www.w3.org/TR/2001/PR-SVG-20010719/DTD/svg10.dtd">
<svg width="35cm" height="13cm" viewBox="192 49 692 250" xmlns="http://www.w3.org/2000/svg" xmlns:xlink="http://www.w3.org/1999/xlink">
  <g>
    <line style="fill: none; fill-opacity:0; stroke-width: 2; stroke: #000000" x1="252" y1="63.7361" x2="252" y2="288.264"/>
    <polygon style="fill: #000000" points="252,56.2361 257,66.2361 252,63.7361 247,66.2361 "/>
    <polygon style="fill: none; fill-opacity:0; stroke-width: 2; stroke: #000000" points="252,56.2361 257,66.2361 252,63.7361 247,66.2361 "/>
    <polygon style="fill: #000000" points="252,295.764 247,285.764 252,288.264 257,285.764 "/>
    <polygon style="fill: none; fill-opacity:0; stroke-width: 2; stroke: #000000" points="252,295.764 247,285.764 252,288.264 257,285.764 "/>
  </g>
  <g>
    <line style="fill: none; fill-opacity:0; stroke-width: 2; stroke: #000000" x1="202.736" y1="246" x2="488.264" y2="246"/>
    <polygon style="fill: #000000" points="195.236,246 205.236,241 202.736,246 205.236,251 "/>
    <polygon style="fill: none; fill-opacity:0; stroke-width: 2; stroke: #000000" points="195.236,246 205.236,241 202.736,246 205.236,251 "/>
    <polygon style="fill: #000000" points="495.764,246 485.764,251 488.264,246 485.764,241 "/>
    <polygon style="fill: none; fill-opacity:0; stroke-width: 2; stroke: #000000" points="495.764,246 485.764,251 488.264,246 485.764,241 "/>
  </g>
  <g>
    <rect style="fill: #0000ff" x="254" y="104" width="141" height="141"/>
    <rect style="fill: none; fill-opacity:0; stroke-width: 2; stroke: #000000" x="254" y="104" width="141" height="141"/>
  </g>
  <text font-size="16.9333" style="fill: #000000;text-anchor:start;font-family:sans-serif;font-style:normal;font-weight:normal" x="381" y="265">
    <tspan x="381" y="265">2</tspan>
  </text>
  <text font-size="16.9333" style="fill: #000000;text-anchor:start;font-family:sans-serif;font-style:normal;font-weight:normal" x="766" y="145">
    <tspan x="766" y="145"></tspan>
  </text>
  <text font-size="19.1911" style="fill: #000000;text-anchor:start;font-family:SymbolPi;font-style:normal;font-weight:normal" x="392" y="265">
    <tspan x="392" y="265">p</tspan>
  </text>
  <text font-size="16.9333" style="fill: #000000;text-anchor:start;font-family:sans-serif;font-style:normal;font-weight:normal" x="227.3" y="111.3">
    <tspan x="227.3" y="111.3">2</tspan>
  </text>
  <text font-size="19.1911" style="fill: #000000;text-anchor:start;font-family:SymbolPi;font-style:normal;font-weight:normal" x="238.3" y="111.3">
    <tspan x="238.3" y="111.3">p</tspan>
  </text>
  <text font-size="12.4178" style="fill: #000000;text-anchor:start;font-family:sans-serif;font-style:normal;font-weight:normal" x="492" y="237">
    <tspan x="492" y="237">1</tspan>
  </text>
  <text font-size="12.4178" style="fill: #000000;text-anchor:start;font-family:sans-serif;font-style:normal;font-weight:normal" x="278" y="71">
    <tspan x="278" y="71">2</tspan>
  </text>
  <text font-size="16.9333" style="fill: #000000;text-anchor:start;font-family:SymbolPi;font-style:normal;font-weight:normal" x="265" y="65">
    <tspan x="265" y="65">Q</tspan>
  </text>
  <text font-size="16.9333" style="fill: #000000;text-anchor:start;font-family:SymbolPi;font-style:normal;font-weight:normal" x="478.3" y="233">
    <tspan x="478.3" y="233">Q</tspan>
  </text>
  <g>
    <ellipse style="fill: #ffffff" cx="745.8" cy="172.9" rx="136.5" ry="73.5"/>
    <ellipse style="fill: none; fill-opacity:0; stroke-width: 2; stroke: #000000" cx="745.8" cy="172.9" rx="136.5" ry="73.5"/>
  </g>
  <g>
    <ellipse style="fill: #ffffff" cx="744.8" cy="167.9" rx="70.5" ry="24.5"/>
    <ellipse style="fill: none; fill-opacity:0; stroke-width: 2; stroke: #000000" cx="744.8" cy="167.9" rx="70.5" ry="24.5"/>
  </g>
  <path style="fill: none; fill-opacity:0; stroke-width: 2; stroke: #000000" d="M 817.3,237.4 A 28.9371,28.9371 0 1 0 794.651,185.224"/>
  <path style="fill: none; fill-opacity:0; stroke-width: 2; stroke-dasharray: 4; stroke: #000000" d="M 794.651,185.224 A 30.6022,30.6022 0 0 0 816.3,238.4"/>
  <path style="fill: none; fill-opacity:0; stroke-width: 2; stroke: #000000" d="M 614.3,188.4 A 208.853,208.853 0 0 0 882.3,172.9"/>
  <text font-size="16.9333" style="fill: #000000;text-anchor:start;font-family:SymbolPi;font-style:normal;font-weight:normal" x="813.3" y="194.4">
    <tspan x="813.3" y="194.4">q</tspan>
  </text>
  <text font-size="16.9333" style="fill: #000000;text-anchor:start;font-family:SymbolPi;font-style:normal;font-weight:normal" x="841.6" y="192.4">
    <tspan x="841.6" y="192.4">q</tspan>
  </text>
  <text font-size="12.4178" style="fill: #000000;text-anchor:start;font-family:sans-serif;font-style:normal;font-weight:normal" x="850" y="195">
    <tspan x="850" y="195">1</tspan>
  </text>
  <text font-size="12.4178" style="fill: #000000;text-anchor:start;font-family:sans-serif;font-style:normal;font-weight:normal" x="821.3" y="197.4">
    <tspan x="821.3" y="197.4">2</tspan>
  </text>
</svg>
