<?xml version="1.0" encoding="UTF-8" standalone="no"?>
<!-- Created with Inkscape (http://www.inkscape.org/) -->

<svg
   xmlns:dc="http://purl.org/dc/elements/1.1/"
   xmlns:cc="http://creativecommons.org/ns#"
   xmlns:rdf="http://www.w3.org/1999/02/22-rdf-syntax-ns#"
   xmlns:svg="http://www.w3.org/2000/svg"
   xmlns="http://www.w3.org/2000/svg"
   xmlns:sodipodi="http://sodipodi.sourceforge.net/DTD/sodipodi-0.dtd"
   xmlns:inkscape="http://www.inkscape.org/namespaces/inkscape"
   id="svg2"
   version="1.1"
   inkscape:version="0.91 r13725"
   xml:space="preserve"
   width="507.5"
   height="280"
   viewBox="0 0 507.5 280"
   sodipodi:docname="motion.svg"><metadata
     id="metadata8"><rdf:RDF><cc:Work
         rdf:about=""><dc:format>image/svg+xml</dc:format><dc:type
           rdf:resource="http://purl.org/dc/dcmitype/StillImage" /><dc:title></dc:title></cc:Work></rdf:RDF></metadata><defs
     id="defs6" /><sodipodi:namedview
     pagecolor="#ffffff"
     bordercolor="#666666"
     borderopacity="1"
     objecttolerance="10"
     gridtolerance="10"
     guidetolerance="10"
     inkscape:pageopacity="0"
     inkscape:pageshadow="2"
     inkscape:window-width="640"
     inkscape:window-height="480"
     id="namedview4"
     showgrid="false"
     inkscape:zoom="0.61871921"
     inkscape:cx="253.75"
     inkscape:cy="140"
     inkscape:window-x="187"
     inkscape:window-y="62"
     inkscape:window-maximized="0"
     inkscape:current-layer="g10" /><g
     id="g10"
     inkscape:groupmode="layer"
     inkscape:label="motion"
     transform="matrix(1.25,0,0,-1.25,0,280)"><g
       id="g12"
       transform="scale(0.1,0.1)"><path
         d="m 326.441,14.1719 680.305,0 0,949.594 -680.305,0 0,-949.594 z"
         style="fill:#ffffff;fill-opacity:1;fill-rule:nonzero;stroke:none"
         id="path14"
         inkscape:connector-curvature="0" /><path
         d="m 326.441,14.1719 680.305,0 0,949.594 -680.305,0 0,-949.594 z"
         style="fill:none;stroke:#000000;stroke-width:28.34600067;stroke-linecap:butt;stroke-linejoin:miter;stroke-miterlimit:10;stroke-dasharray:none;stroke-opacity:1"
         id="path16"
         inkscape:connector-curvature="0" /><path
         d="m 666.594,963.766 0,1024.194"
         style="fill:none;stroke:#000000;stroke-width:28.34600067;stroke-linecap:butt;stroke-linejoin:miter;stroke-miterlimit:10;stroke-dasharray:none;stroke-opacity:1"
         id="path18"
         inkscape:connector-curvature="0" /><path
         d="m 666.594,2094.26 70.867,-141.73 -70.867,35.43 -70.864,-35.43"
         style="fill:#000000;fill-opacity:1;fill-rule:evenodd;stroke:none"
         id="path20"
         inkscape:connector-curvature="0" /><path
         d="m 666.594,2094.26 70.867,-141.73 -70.867,35.43 -70.864,-35.43 70.864,141.73 z"
         style="fill:none;stroke:#000000;stroke-width:28.34600067;stroke-linecap:butt;stroke-linejoin:miter;stroke-miterlimit:10;stroke-dasharray:none;stroke-opacity:1"
         id="path22"
         inkscape:connector-curvature="0" /><path
         d="m 666.594,963.766 c -3.16,29.422 -4.746,59.004 -4.746,88.594 0,330.25 196.043,629.01 499.012,760.45"
         style="fill:none;stroke:#000000;stroke-width:28.34600067;stroke-linecap:butt;stroke-linejoin:miter;stroke-miterlimit:10;stroke-dasharray:none;stroke-opacity:1"
         id="path24"
         inkscape:connector-curvature="0" /><path
         d="m 1259.46,1849 -120.37,-103.06 17.23,77.33 -51.53,60.19"
         style="fill:#000000;fill-opacity:1;fill-rule:evenodd;stroke:none"
         id="path26"
         inkscape:connector-curvature="0" /><path
         d="m 1259.46,1849 -120.37,-103.06 17.23,77.33 -51.53,60.19 154.67,-34.46 z"
         style="fill:none;stroke:#000000;stroke-width:28.34600067;stroke-linecap:butt;stroke-linejoin:miter;stroke-miterlimit:10;stroke-dasharray:none;stroke-opacity:1"
         id="path28"
         inkscape:connector-curvature="0" /><path
         d="m 155.062,1803.79 c 313.836,-159.36 511.555,-481.51 511.555,-833.489 0,-2.176 -0.012,-4.36 -0.023,-6.535"
         style="fill:none;stroke:#000000;stroke-width:28.34600067;stroke-linecap:butt;stroke-linejoin:miter;stroke-miterlimit:10;stroke-dasharray:none;stroke-opacity:1"
         id="path30"
         inkscape:connector-curvature="0" /><path
         d="m 58.8594,1846.59 156.9026,22.17 -56.114,-55.94 11.086,-78.44"
         style="fill:#000000;fill-opacity:1;fill-rule:evenodd;stroke:none"
         id="path32"
         inkscape:connector-curvature="0" /><path
         d="m 58.8594,1846.59 156.9026,22.17 -56.114,-55.94 11.086,-78.44 -111.8746,112.21 z"
         style="fill:none;stroke:#000000;stroke-width:28.34600067;stroke-linecap:butt;stroke-linejoin:miter;stroke-miterlimit:10;stroke-dasharray:none;stroke-opacity:1"
         id="path34"
         inkscape:connector-curvature="0" /><path
         d="m 2765.55,63.2695 680.305,0 0,949.594 -680.305,0 0,-949.594 z"
         style="fill:#ffffff;fill-opacity:1;fill-rule:nonzero;stroke:none"
         id="path36"
         inkscape:connector-curvature="0" /><path
         d="m 2765.55,63.2695 680.305,0 0,949.594 -680.305,0 0,-949.594 z"
         style="fill:none;stroke:#000000;stroke-width:28.34600067;stroke-linecap:butt;stroke-linejoin:miter;stroke-miterlimit:10;stroke-dasharray:none;stroke-opacity:1"
         id="path38"
         inkscape:connector-curvature="0" /><path
         d="m 3105.68,1012.86 -13.65,1017.63"
         style="fill:none;stroke:#000000;stroke-width:28.34600067;stroke-linecap:butt;stroke-linejoin:miter;stroke-miterlimit:10;stroke-dasharray:none;stroke-opacity:1"
         id="path40"
         inkscape:connector-curvature="0" /><path
         d="m 3090.61,2136.78 72.75,-140.76 -71.33,34.47 -70.38,-36.38"
         style="fill:#000000;fill-opacity:1;fill-rule:evenodd;stroke:none"
         id="path42"
         inkscape:connector-curvature="0" /><path
         d="m 3090.61,2136.78 72.75,-140.76 -71.33,34.47 -70.38,-36.38 68.96,142.67 z"
         style="fill:none;stroke:#000000;stroke-width:28.34600067;stroke-linecap:butt;stroke-linejoin:miter;stroke-miterlimit:10;stroke-dasharray:none;stroke-opacity:1"
         id="path44"
         inkscape:connector-curvature="0" /><path
         d="m 3105.68,1012.86 c 117.97,234.9 358.35,383.17 621.21,383.17 62.87,0 125.45,-8.53 186.03,-25.36"
         style="fill:none;stroke:#000000;stroke-width:28.34600067;stroke-linecap:butt;stroke-linejoin:miter;stroke-miterlimit:10;stroke-dasharray:none;stroke-opacity:1"
         id="path46"
         inkscape:connector-curvature="0" /><path
         d="m 4011.47,1335.9 -158.46,0.51 63.54,47.33 0.25,79.23"
         style="fill:#000000;fill-opacity:1;fill-rule:evenodd;stroke:none"
         id="path48"
         inkscape:connector-curvature="0" /><path
         d="m 4011.47,1335.9 -158.46,0.51 63.54,47.33 0.25,79.23 94.67,-127.07 z"
         style="fill:none;stroke:#000000;stroke-width:28.34600067;stroke-linecap:butt;stroke-linejoin:miter;stroke-miterlimit:10;stroke-dasharray:none;stroke-opacity:1"
         id="path50"
         inkscape:connector-curvature="0" /><path
         d="m 2303.3,1385.64 c 29.9,3.14 59.94,4.72 90,4.72 285.34,0 552.15,-141.39 712.38,-377.5"
         style="fill:none;stroke:#000000;stroke-width:28.34600067;stroke-linecap:butt;stroke-linejoin:miter;stroke-miterlimit:10;stroke-dasharray:none;stroke-opacity:1"
         id="path52"
         inkscape:connector-curvature="0" /><path
         d="m 2199.53,1368.87 118.36,105.35 -15.73,-77.65 52.67,-59.18"
         style="fill:#000000;fill-opacity:1;fill-rule:evenodd;stroke:none"
         id="path54"
         inkscape:connector-curvature="0" /><path
         d="m 2199.53,1368.87 118.36,105.35 -15.73,-77.65 52.67,-59.18 -155.3,31.48 z"
         style="fill:none;stroke:#000000;stroke-width:28.34600067;stroke-linecap:butt;stroke-linejoin:miter;stroke-miterlimit:10;stroke-dasharray:none;stroke-opacity:1"
         id="path56"
         inkscape:connector-curvature="0" /><path
         d="m 3105.68,1012.86 433,865.66"
         style="fill:none;stroke:#000000;stroke-width:28.34600067;stroke-linecap:butt;stroke-linejoin:miter;stroke-miterlimit:10;stroke-dasharray:none;stroke-opacity:1"
         id="path58"
         inkscape:connector-curvature="0" /><path
         d="m 3586.23,1973.59 -0.02,-158.46 -47.53,63.39 -79.23,0.02"
         style="fill:#000000;fill-opacity:1;fill-rule:evenodd;stroke:none"
         id="path60"
         inkscape:connector-curvature="0" /><path
         d="m 3586.23,1973.59 -0.02,-158.46 -47.53,63.39 -79.23,0.02 126.78,95.05 z"
         style="fill:none;stroke:#000000;stroke-width:28.34600067;stroke-linecap:butt;stroke-linejoin:miter;stroke-miterlimit:10;stroke-dasharray:none;stroke-opacity:1"
         id="path62"
         inkscape:connector-curvature="0" /><path
         d="m 3105.68,1012.86 -486.63,868.69"
         style="fill:none;stroke:#000000;stroke-width:28.34600067;stroke-linecap:butt;stroke-linejoin:miter;stroke-miterlimit:10;stroke-dasharray:none;stroke-opacity:1"
         id="path64"
         inkscape:connector-curvature="0" /><path
         d="m 2567.09,1974.29 131.1,-89.02 -79.14,-3.72 -44.51,-65.55"
         style="fill:#000000;fill-opacity:1;fill-rule:evenodd;stroke:none"
         id="path66"
         inkscape:connector-curvature="0" /><path
         d="m 2567.09,1974.29 131.1,-89.02 -79.14,-3.72 -44.51,-65.55 -7.45,158.29 z"
         style="fill:none;stroke:#000000;stroke-width:28.34600067;stroke-linecap:butt;stroke-linejoin:miter;stroke-miterlimit:10;stroke-dasharray:none;stroke-opacity:1"
         id="path68"
         inkscape:connector-curvature="0" /><path
         d="m 14.6367,1885.01 c 155.6253,180.64 382.2343,284.52 620.6723,284.52 257.57,0 500.151,-121.14 654.901,-327.04"
         style="fill:none;stroke:#000000;stroke-width:28.34600067;stroke-linecap:butt;stroke-linejoin:miter;stroke-miterlimit:10;stroke-dasharray:56.692;stroke-dashoffset:0;stroke-opacity:1"
         id="path70"
         inkscape:connector-curvature="0" /><path
         d="m 2183.11,1403.13 c 55.19,465.9 450.19,816.85 919.35,816.85 484.16,0 886.56,-373.05 923.14,-855.83"
         style="fill:none;stroke:#000000;stroke-width:28.34600067;stroke-linecap:butt;stroke-linejoin:miter;stroke-miterlimit:10;stroke-dasharray:56.692;stroke-dashoffset:0;stroke-opacity:1"
         id="path72"
         inkscape:connector-curvature="0" /></g></g></svg>