<?xml version="1.0" encoding="UTF-8" standalone="no"?>
<!DOCTYPE svg PUBLIC "-//W3C//DTD SVG 1.0//EN" "http://www.w3.org/TR/2001/PR-SVG-20010719/DTD/svg10.dtd">
<svg width="19cm" height="24cm" viewBox="16 25 372 466" xmlns="http://www.w3.org/2000/svg" xmlns:xlink="http://www.w3.org/1999/xlink">
  <g>
    <line style="fill: none; fill-opacity:0; stroke-width: 2; stroke: #000000" x1="40" y1="161" x2="40" y2="66.4721"/>
    <polyline style="fill: none; fill-opacity:0; stroke-width: 2; stroke: #000000" points="45,74.2361 40,64.2361 35,74.2361 "/>
  </g>
  <g>
    <line style="fill: none; fill-opacity:0; stroke-width: 2; stroke: #000000" x1="19" y1="140" x2="381.528" y2="140"/>
    <polyline style="fill: none; fill-opacity:0; stroke-width: 2; stroke: #000000" points="373.764,145 383.764,140 373.764,135 "/>
  </g>
  <polyline style="fill: none; fill-opacity:0; stroke-width: 2; stroke: #000000" points="40,89 91.3,89.738 92,141 "/>
  <polyline style="fill: none; fill-opacity:0; stroke-width: 2; stroke: #000000" points="257,140 257,90 307.5,89.738 307,140 "/>
  <g>
    <line style="fill: none; fill-opacity:0; stroke-width: 2; stroke: #000000" x1="46.7361" y1="52.0074" x2="83.0639" y2="52.0472"/>
    <polygon style="fill: #000000" points="42.2361,52.0025 48.2394,49.009 46.7361,52.0074 48.2328,55.009 "/>
    <polygon style="fill: none; fill-opacity:0; stroke-width: 2; stroke: #000000" points="42.2361,52.0025 48.2394,49.009 46.7361,52.0074 48.2328,55.009 "/>
    <polygon style="fill: #000000" points="87.5639,52.0521 81.5606,55.0456 83.0639,52.0472 81.5672,49.0456 "/>
    <polygon style="fill: none; fill-opacity:0; stroke-width: 2; stroke: #000000" points="87.5639,52.0521 81.5606,55.0456 83.0639,52.0472 81.5672,49.0456 "/>
  </g>
  <text font-size="14.1111" style="fill: #000000;text-anchor:start;font-family:Utopia;font-style:normal;font-weight:normal" x="57" y="39">
    <tspan x="57" y="39">On</tspan>
  </text>
  <g>
    <line style="fill: none; fill-opacity:0; stroke-width: 2; stroke: #000000" x1="100.536" y1="52.5546" x2="246.564" y2="52.5546"/>
    <polygon style="fill: #000000" points="96.0361,52.5546 102.036,49.5546 100.536,52.5546 102.036,55.5546 "/>
    <polygon style="fill: none; fill-opacity:0; stroke-width: 2; stroke: #000000" points="96.0361,52.5546 102.036,49.5546 100.536,52.5546 102.036,55.5546 "/>
    <polygon style="fill: #000000" points="251.064,52.5546 245.064,55.5546 246.564,52.5546 245.064,49.5546 "/>
    <polygon style="fill: none; fill-opacity:0; stroke-width: 2; stroke: #000000" points="251.064,52.5546 245.064,55.5546 246.564,52.5546 245.064,49.5546 "/>
  </g>
  <text font-size="14.1111" style="fill: #000000;text-anchor:start;font-family:Utopia;font-style:normal;font-weight:normal" x="146" y="40">
    <tspan x="146" y="40">Off</tspan>
  </text>
  <text font-size="14.1111" style="fill: #000000;text-anchor:start;font-family:Utopia;font-style:normal;font-weight:normal" x="120" y="158">
    <tspan x="120" y="158">25% Duty Cycle</tspan>
  </text>
  <text font-size="14.1111" style="fill: #000000;text-anchor:start;font-family:Utopia;font-style:normal;font-weight:normal" x="129" y="212">
    <tspan x="129" y="212"></tspan>
  </text>
  <g>
    <line style="fill: none; fill-opacity:0; stroke-width: 2; stroke: #000000" x1="38.8" y1="327.6" x2="38.8" y2="233.072"/>
    <polyline style="fill: none; fill-opacity:0; stroke-width: 2; stroke: #000000" points="43.8,240.836 38.8,230.836 33.8,240.836 "/>
  </g>
  <g>
    <line style="fill: none; fill-opacity:0; stroke-width: 2; stroke: #000000" x1="17.8" y1="306.6" x2="380.328" y2="306.6"/>
    <polyline style="fill: none; fill-opacity:0; stroke-width: 2; stroke: #000000" points="372.564,311.6 382.564,306.6 372.564,301.6 "/>
  </g>
  <polyline style="fill: none; fill-opacity:0; stroke-width: 2; stroke: #000000" points="37.8,258.6 143,258 143,305 "/>
  <polyline style="fill: none; fill-opacity:0; stroke-width: 2; stroke: #000000" points="247.8,306.6 248.238,257.736 353,258 353,306 "/>
  <g>
    <line style="fill: none; fill-opacity:0; stroke-width: 2; stroke: #000000" x1="45.536" y1="219.068" x2="139.064" y2="218.628"/>
    <polygon style="fill: #000000" points="41.036,219.089 47.0218,216.061 45.536,219.068 47.0501,222.061 "/>
    <polygon style="fill: none; fill-opacity:0; stroke-width: 2; stroke: #000000" points="41.036,219.089 47.0218,216.061 45.536,219.068 47.0501,222.061 "/>
    <polygon style="fill: #000000" points="143.564,218.607 137.578,221.635 139.064,218.628 137.55,215.635 "/>
    <polygon style="fill: none; fill-opacity:0; stroke-width: 2; stroke: #000000" points="143.564,218.607 137.578,221.635 139.064,218.628 137.55,215.635 "/>
  </g>
  <text font-size="14.1111" style="fill: #000000;text-anchor:start;font-family:Utopia;font-style:normal;font-weight:normal" x="79.8" y="209.6">
    <tspan x="79.8" y="209.6">On</tspan>
  </text>
  <g>
    <line style="fill: none; fill-opacity:0; stroke-width: 2; stroke: #000000" x1="154.536" y1="219.071" x2="237.064" y2="218.761"/>
    <polygon style="fill: #000000" points="150.036,219.088 156.025,216.065 154.536,219.071 156.047,222.065 "/>
    <polygon style="fill: none; fill-opacity:0; stroke-width: 2; stroke: #000000" points="150.036,219.088 156.025,216.065 154.536,219.071 156.047,222.065 "/>
    <polygon style="fill: #000000" points="241.564,218.744 235.575,221.767 237.064,218.761 235.553,215.767 "/>
    <polygon style="fill: none; fill-opacity:0; stroke-width: 2; stroke: #000000" points="241.564,218.744 235.575,221.767 237.064,218.761 235.553,215.767 "/>
  </g>
  <text font-size="14.1111" style="fill: #000000;text-anchor:start;font-family:Utopia;font-style:normal;font-weight:normal" x="182.8" y="208.6">
    <tspan x="182.8" y="208.6">Off</tspan>
  </text>
  <text font-size="14.1111" style="fill: #000000;text-anchor:start;font-family:Utopia;font-style:normal;font-weight:normal" x="118.8" y="324.6">
    <tspan x="118.8" y="324.6">50% Duty Cycle</tspan>
  </text>
  <text font-size="14.1111" style="fill: #000000;text-anchor:start;font-family:Utopia;font-style:normal;font-weight:normal" x="130" y="375">
    <tspan x="130" y="375"></tspan>
  </text>
  <g>
    <line style="fill: none; fill-opacity:0; stroke-width: 2; stroke: #000000" x1="39.8" y1="490.6" x2="39.8" y2="396.072"/>
    <polyline style="fill: none; fill-opacity:0; stroke-width: 2; stroke: #000000" points="44.8,403.836 39.8,393.836 34.8,403.836 "/>
  </g>
  <g>
    <line style="fill: none; fill-opacity:0; stroke-width: 2; stroke: #000000" x1="18.8" y1="469.6" x2="381.328" y2="469.6"/>
    <polyline style="fill: none; fill-opacity:0; stroke-width: 2; stroke: #000000" points="373.564,474.6 383.564,469.6 373.564,464.6 "/>
  </g>
  <polyline style="fill: none; fill-opacity:0; stroke-width: 2; stroke: #000000" points="38.8,421.6 192.8,421.238 193,470 "/>
  <polyline style="fill: none; fill-opacity:0; stroke-width: 2; stroke: #000000" points="248.8,469.6 248.8,419.6 385,419 "/>
  <g>
    <line style="fill: none; fill-opacity:0; stroke-width: 2; stroke: #000000" x1="46.536" y1="381.618" x2="184.264" y2="381.982"/>
    <polygon style="fill: #000000" points="42.0361,381.606 48.044,378.622 46.536,381.618 48.0281,384.622 "/>
    <polygon style="fill: none; fill-opacity:0; stroke-width: 2; stroke: #000000" points="42.0361,381.606 48.044,378.622 46.536,381.618 48.0281,384.622 "/>
    <polygon style="fill: #000000" points="188.764,381.994 182.756,384.978 184.264,381.982 182.772,378.978 "/>
    <polygon style="fill: none; fill-opacity:0; stroke-width: 2; stroke: #000000" points="188.764,381.994 182.756,384.978 184.264,381.982 182.772,378.978 "/>
  </g>
  <text font-size="14.1111" style="fill: #000000;text-anchor:start;font-family:Utopia;font-style:normal;font-weight:normal" x="107.8" y="371.6">
    <tspan x="107.8" y="371.6">On</tspan>
  </text>
  <g>
    <line style="fill: none; fill-opacity:0; stroke-width: 2; stroke: #000000" x1="207.736" y1="382" x2="238.264" y2="382"/>
    <polygon style="fill: #000000" points="203.236,382 209.236,379 207.736,382 209.236,385 "/>
    <polygon style="fill: none; fill-opacity:0; stroke-width: 2; stroke: #000000" points="203.236,382 209.236,379 207.736,382 209.236,385 "/>
    <polygon style="fill: #000000" points="242.764,382 236.764,385 238.264,382 236.764,379 "/>
    <polygon style="fill: none; fill-opacity:0; stroke-width: 2; stroke: #000000" points="242.764,382 236.764,385 238.264,382 236.764,379 "/>
  </g>
  <text font-size="14.1111" style="fill: #000000;text-anchor:start;font-family:Utopia;font-style:normal;font-weight:normal" x="212.8" y="371.6">
    <tspan x="212.8" y="371.6">Off</tspan>
  </text>
  <text font-size="14.1111" style="fill: #000000;text-anchor:start;font-family:Utopia;font-style:normal;font-weight:normal" x="119.8" y="487.6">
    <tspan x="119.8" y="487.6">75% Duty Cycle</tspan>
  </text>
</svg>
