<?xml version="1.0" encoding="UTF-8" standalone="no"?>
<!DOCTYPE svg PUBLIC "-//W3C//DTD SVG 1.0//EN" "http://www.w3.org/TR/2001/PR-SVG-20010719/DTD/svg10.dtd">
<svg width="79cm" height="28cm" viewBox="-41 23 1566 549" xmlns="http://www.w3.org/2000/svg" xmlns:xlink="http://www.w3.org/1999/xlink">
  <g>
    <rect style="fill: #d8e5e5" x="132" y="78.9062" width="136" height="443"/>
    <rect style="fill: none; fill-opacity:0; stroke-width: 2; stroke: #000000" x="132" y="78.9062" width="136" height="443"/>
  </g>
  <g>
    <rect style="fill: #7f7f7f" x="23" y="61" width="94" height="199"/>
    <rect style="fill: none; fill-opacity:0; stroke-width: 2; stroke: #000000" x="23" y="61" width="94" height="199"/>
  </g>
  <g>
    <path style="fill: #0000ff" d="M 106 40 C 141,38 79,94 37,96 C -5,98 71,42 106,40z"/>
    <path style="fill: none; fill-opacity:0; stroke-width: 2; stroke: #000000" d="M 106 40 C 141,38 79,94 37,96 C -5,98 71,42 106,40"/>
  </g>
  <g>
    <rect style="fill: #7f7f7f" x="282.7" y="60.4" width="94" height="199"/>
    <rect style="fill: none; fill-opacity:0; stroke-width: 2; stroke: #000000" x="282.7" y="60.4" width="94" height="199"/>
  </g>
  <g>
    <path style="fill: #0000ff" d="M 293.7 86.4 C 327.7,86.4 402.7,141.4 366.7,141.4 C 330.7,141.4 259.7,86.4 293.7,86.4z"/>
    <path style="fill: none; fill-opacity:0; stroke-width: 2; stroke: #000000" d="M 293.7 86.4 C 327.7,86.4 402.7,141.4 366.7,141.4 C 330.7,141.4 259.7,86.4 293.7,86.4"/>
  </g>
  <g>
    <path style="fill: #0000ff" d="M 293.876 130.1 C 327.876,130.1 402.876,185.1 366.876,185.1 C 330.876,185.1 259.876,130.1 293.876,130.1z"/>
    <path style="fill: none; fill-opacity:0; stroke-width: 2; stroke: #000000" d="M 293.876 130.1 C 327.876,130.1 402.876,185.1 366.876,185.1 C 330.876,185.1 259.876,130.1 293.876,130.1"/>
  </g>
  <g>
    <path style="fill: #0000ff" d="M 293.076 172.8 C 327.076,172.8 402.076,227.8 366.076,227.8 C 330.076,227.8 259.076,172.8 293.076,172.8z"/>
    <path style="fill: none; fill-opacity:0; stroke-width: 2; stroke: #000000" d="M 293.076 172.8 C 327.076,172.8 402.076,227.8 366.076,227.8 C 330.076,227.8 259.076,172.8 293.076,172.8"/>
  </g>
  <g>
    <path style="fill: #0000ff" d="M 294.276 43.5 C 328.276,43.5 403.276,98.5 367.276,98.5 C 331.276,98.5 260.276,43.5 294.276,43.5z"/>
    <path style="fill: none; fill-opacity:0; stroke-width: 2; stroke: #000000" d="M 294.276 43.5 C 328.276,43.5 403.276,98.5 367.276,98.5 C 331.276,98.5 260.276,43.5 294.276,43.5"/>
  </g>
  <g>
    <path style="fill: #0000ff" d="M 293.476 216.2 C 327.476,216.2 402.476,271.2 366.476,271.2 C 330.476,271.2 259.476,216.2 293.476,216.2z"/>
    <path style="fill: none; fill-opacity:0; stroke-width: 2; stroke: #000000" d="M 293.476 216.2 C 327.476,216.2 402.476,271.2 366.476,271.2 C 330.476,271.2 259.476,216.2 293.476,216.2"/>
  </g>
  <g>
    <path style="fill: #0000ff" d="M 104.923 82.5 C 138.845,79 77.9228,136.5 35.9228,138.5 C -6.07728,140.5 71,86 104.923,82.5z"/>
    <path style="fill: none; fill-opacity:0; stroke-width: 2; stroke: #000000" d="M 104.923 82.5 C 138.845,79 77.9228,136.5 35.9228,138.5 C -6.07728,140.5 71,86 104.923,82.5"/>
  </g>
  <g>
    <path style="fill: #0000ff" d="M 103.623 127 C 137.245,126 76.6228,181 34.6228,183 C -7.37728,185 70,128 103.623,127z"/>
    <path style="fill: none; fill-opacity:0; stroke-width: 2; stroke: #000000" d="M 103.623 127 C 137.245,126 76.6228,181 34.6228,183 C -7.37728,185 70,128 103.623,127"/>
  </g>
  <g>
    <path style="fill: #0000ff" d="M 104.323 170.5 C 139.645,167 77.3228,224.5 35.3228,226.5 C -6.67728,228.5 69,174 104.323,170.5z"/>
    <path style="fill: none; fill-opacity:0; stroke-width: 2; stroke: #000000" d="M 104.323 170.5 C 139.645,167 77.3228,224.5 35.3228,226.5 C -6.67728,228.5 69,174 104.323,170.5"/>
  </g>
  <g>
    <path style="fill: #0000ff" d="M 109.023 214 C 143.045,212 82.0228,268 40.0228,270 C -1.97727,272 75,216 109.023,214z"/>
    <path style="fill: none; fill-opacity:0; stroke-width: 2; stroke: #000000" d="M 109.023 214 C 143.045,212 82.0228,268 40.0228,270 C -1.97727,272 75,216 109.023,214"/>
  </g>
  <g>
    <line style="fill: none; fill-opacity:0; stroke-width: 4; stroke: #00ff00" x1="330.232" y1="155.326" x2="330.022" y2="41.1247"/>
    <path style="fill: #00ff00" d="M 330.232 155.326 C 327.732,155.331 325.227,152.836 325.223,150.336 C 325.218,147.836 327.714,145.331 330.214,145.326 C 332.714,145.322 335.218,147.817 335.223,150.317 C 335.227,152.817 332.732,155.322 330.232,155.326z"/>
    <path style="fill: none; fill-opacity:0; stroke-width: 4; stroke: #00ff00" d="M 330.232 155.326 C 327.732,155.331 325.227,152.836 325.223,150.336 C 325.218,147.836 327.714,145.331 330.214,145.326 C 332.714,145.322 335.218,147.817 335.223,150.317 C 335.227,152.817 332.732,155.322 330.232,155.326"/>
    <polygon style="fill: #00ff00" points="330.008,33.6247 335.027,43.6155 330.022,41.1247 325.027,43.6339 "/>
    <polygon style="fill: none; fill-opacity:0; stroke-width: 4; stroke: #00ff00" points="330.008,33.6247 335.027,43.6155 330.022,41.1247 325.027,43.6339 "/>
  </g>
  <g>
    <line style="fill: none; fill-opacity:0; stroke-width: 4; stroke: #ff0000" x1="326.824" y1="151" x2="233.621" y2="102.524"/>
    <polygon style="fill: #ff0000" points="226.968,99.0636 238.146,99.242 233.621,102.524 233.532,108.114 "/>
    <polygon style="fill: none; fill-opacity:0; stroke-width: 4; stroke: #ff0000" points="226.968,99.0636 238.146,99.242 233.621,102.524 233.532,108.114 "/>
  </g>
  <g>
    <line style="fill: none; fill-opacity:0; stroke-width: 4; stroke: #00ff00" x1="68.8686" y1="156.298" x2="69.8943" y2="40.1243"/>
    <path style="fill: #00ff00" d="M 68.8686 156.298 C 66.3687,156.276 63.8909,153.754 63.9129,151.254 C 63.935,148.755 66.457,146.277 68.9569,146.299 C 71.4568,146.321 73.9346,148.843 73.9125,151.343 C 73.8905,153.843 71.3685,156.32 68.8686,156.298z"/>
    <path style="fill: none; fill-opacity:0; stroke-width: 4; stroke: #00ff00" d="M 68.8686 156.298 C 66.3687,156.276 63.8909,153.754 63.9129,151.254 C 63.935,148.755 66.457,146.277 68.9569,146.299 C 71.4568,146.321 73.9346,148.843 73.9125,151.343 C 73.8905,153.843 71.3685,156.32 68.8686,156.298"/>
    <polygon style="fill: #00ff00" points="69.9605,32.6246 74.872,42.6683 69.8943,40.1243 64.8724,42.58 "/>
    <polygon style="fill: none; fill-opacity:0; stroke-width: 4; stroke: #00ff00" points="69.9605,32.6246 74.872,42.6683 69.8943,40.1243 64.8724,42.58 "/>
  </g>
  <g>
    <line style="fill: none; fill-opacity:0; stroke-width: 4; stroke: #ff0000" x1="71.6898" y1="151.579" x2="164.284" y2="101.68"/>
    <polygon style="fill: #ff0000" points="170.887,98.1216 164.456,107.267 164.284,101.68 159.712,98.4641 "/>
    <polygon style="fill: none; fill-opacity:0; stroke-width: 4; stroke: #ff0000" points="170.887,98.1216 164.456,107.267 164.284,101.68 159.712,98.4641 "/>
  </g>
  <g>
    <rect style="fill: #7f7f7f" x="280.7" y="343.1" width="94" height="199"/>
    <rect style="fill: none; fill-opacity:0; stroke-width: 2; stroke: #000000" x="280.7" y="343.1" width="94" height="199"/>
  </g>
  <g>
    <path style="fill: #0000ff" d="M 363.7 322.1 C 398.7,320.1 336.7,376.1 294.7,378.1 C 252.7,380.1 328.7,324.1 363.7,322.1z"/>
    <path style="fill: none; fill-opacity:0; stroke-width: 2; stroke: #000000" d="M 363.7 322.1 C 398.7,320.1 336.7,376.1 294.7,378.1 C 252.7,380.1 328.7,324.1 363.7,322.1"/>
  </g>
  <g>
    <rect style="fill: #7f7f7f" x="23.4" y="339.5" width="94" height="199"/>
    <rect style="fill: none; fill-opacity:0; stroke-width: 2; stroke: #000000" x="23.4" y="339.5" width="94" height="199"/>
  </g>
  <g>
    <path style="fill: #0000ff" d="M 34.4 365.5 C 68.4,365.5 143.4,420.5 107.4,420.5 C 71.4,420.5 0.4,365.5 34.4,365.5z"/>
    <path style="fill: none; fill-opacity:0; stroke-width: 2; stroke: #000000" d="M 34.4 365.5 C 68.4,365.5 143.4,420.5 107.4,420.5 C 71.4,420.5 0.4,365.5 34.4,365.5"/>
  </g>
  <g>
    <path style="fill: #0000ff" d="M 34.576 409.2 C 68.576,409.2 143.576,464.2 107.576,464.2 C 71.576,464.2 0.576,409.2 34.576,409.2z"/>
    <path style="fill: none; fill-opacity:0; stroke-width: 2; stroke: #000000" d="M 34.576 409.2 C 68.576,409.2 143.576,464.2 107.576,464.2 C 71.576,464.2 0.576,409.2 34.576,409.2"/>
  </g>
  <g>
    <path style="fill: #0000ff" d="M 33.776 451.9 C 67.776,451.9 142.776,506.9 106.776,506.9 C 70.776,506.9 -0.224,451.9 33.776,451.9z"/>
    <path style="fill: none; fill-opacity:0; stroke-width: 2; stroke: #000000" d="M 33.776 451.9 C 67.776,451.9 142.776,506.9 106.776,506.9 C 70.776,506.9 -0.224,451.9 33.776,451.9"/>
  </g>
  <g>
    <path style="fill: #0000ff" d="M 34.976 322.6 C 68.976,322.6 143.976,377.6 107.976,377.6 C 71.976,377.6 0.976,322.6 34.976,322.6z"/>
    <path style="fill: none; fill-opacity:0; stroke-width: 2; stroke: #000000" d="M 34.976 322.6 C 68.976,322.6 143.976,377.6 107.976,377.6 C 71.976,377.6 0.976,322.6 34.976,322.6"/>
  </g>
  <g>
    <path style="fill: #0000ff" d="M 34.176 495.3 C 68.176,495.3 143.176,550.3 107.176,550.3 C 71.176,550.3 0.176,495.3 34.176,495.3z"/>
    <path style="fill: none; fill-opacity:0; stroke-width: 2; stroke: #000000" d="M 34.176 495.3 C 68.176,495.3 143.176,550.3 107.176,550.3 C 71.176,550.3 0.176,495.3 34.176,495.3"/>
  </g>
  <g>
    <path style="fill: #0000ff" d="M 362.622 364.6 C 396.546,361.1 335.622,418.6 293.622,420.6 C 251.622,422.6 328.7,368.1 362.622,364.6z"/>
    <path style="fill: none; fill-opacity:0; stroke-width: 2; stroke: #000000" d="M 362.622 364.6 C 396.546,361.1 335.622,418.6 293.622,420.6 C 251.622,422.6 328.7,368.1 362.622,364.6"/>
  </g>
  <g>
    <path style="fill: #0000ff" d="M 361.322 409.1 C 394.946,408.1 334.322,463.1 292.322,465.1 C 250.322,467.1 327.7,410.1 361.322,409.1z"/>
    <path style="fill: none; fill-opacity:0; stroke-width: 2; stroke: #000000" d="M 361.322 409.1 C 394.946,408.1 334.322,463.1 292.322,465.1 C 250.322,467.1 327.7,410.1 361.322,409.1"/>
  </g>
  <g>
    <path style="fill: #0000ff" d="M 362.022 452.6 C 397.346,449.1 335.022,506.6 293.022,508.6 C 251.022,510.6 326.7,456.1 362.022,452.6z"/>
    <path style="fill: none; fill-opacity:0; stroke-width: 2; stroke: #000000" d="M 362.022 452.6 C 397.346,449.1 335.022,506.6 293.022,508.6 C 251.022,510.6 326.7,456.1 362.022,452.6"/>
  </g>
  <g>
    <path style="fill: #0000ff" d="M 366.722 496.1 C 400.746,494.1 339.722,550.1 297.722,552.1 C 255.722,554.1 332.7,498.1 366.722,496.1z"/>
    <path style="fill: none; fill-opacity:0; stroke-width: 2; stroke: #000000" d="M 366.722 496.1 C 400.746,494.1 339.722,550.1 297.722,552.1 C 255.722,554.1 332.7,498.1 366.722,496.1"/>
  </g>
  <g>
    <line style="fill: none; fill-opacity:0; stroke-width: 4; stroke: #ff0000" x1="329.39" y1="433.68" x2="421.985" y2="383.78"/>
    <polygon style="fill: #ff0000" points="428.587,380.222 422.156,389.367 421.985,383.78 417.412,380.564 "/>
    <polygon style="fill: none; fill-opacity:0; stroke-width: 4; stroke: #ff0000" points="428.587,380.222 422.156,389.367 421.985,383.78 417.412,380.564 "/>
  </g>
  <g>
    <line style="fill: none; fill-opacity:0; stroke-width: 4; stroke: #ffa500" x1="334" y1="437" x2="418.028" y2="437"/>
    <polygon style="fill: #ffa500" points="425.528,437 415.528,442 418.028,437 415.528,432 "/>
    <polygon style="fill: none; fill-opacity:0; stroke-width: 4; stroke: #ffa500" points="425.528,437 415.528,442 418.028,437 415.528,432 "/>
  </g>
  <g>
    <line style="fill: none; fill-opacity:0; stroke-width: 4; stroke: #7474fd" x1="430" y1="439" x2="430.034" y2="395.758"/>
    <polygon style="fill: #7474fd" points="430.04,388.258 435.032,398.262 430.034,395.758 425.032,398.254 "/>
    <polygon style="fill: none; fill-opacity:0; stroke-width: 4; stroke: #7474fd" points="430.04,388.258 435.032,398.262 430.034,395.758 425.032,398.254 "/>
  </g>
  <g>
    <line style="fill: none; fill-opacity:0; stroke-width: 4; stroke: #7474fd" x1="-31.46" y1="437.186" x2="-31.4255" y2="393.944"/>
    <polygon style="fill: #7474fd" points="-31.4196,386.444 -26.4275,396.448 -31.4255,393.944 -36.4275,396.44 "/>
    <polygon style="fill: none; fill-opacity:0; stroke-width: 4; stroke: #7474fd" points="-31.4196,386.444 -26.4275,396.448 -31.4255,393.944 -36.4275,396.44 "/>
  </g>
  <g>
    <line style="fill: none; fill-opacity:0; stroke-width: 4; stroke: #ffa500" x1="-18.9279" y1="437.972" x2="65.1" y2="437.972"/>
    <polygon style="fill: #ffa500" points="-26.4279,437.972 -16.4279,432.972 -18.9279,437.972 -16.4279,442.972 "/>
    <polygon style="fill: none; fill-opacity:0; stroke-width: 4; stroke: #ffa500" points="-26.4279,437.972 -16.4279,432.972 -18.9279,437.972 -16.4279,442.972 "/>
  </g>
  <g>
    <line style="fill: none; fill-opacity:0; stroke-width: 4; stroke: #00ff00" x1="72" y1="439.906" x2="72.9084" y2="321.124"/>
    <path style="fill: #00ff00" d="M 72 439.906 C 69.5001,439.887 67.0193,437.368 67.0384,434.868 C 67.0575,432.368 69.5766,429.887 72.0765,429.906 C 74.5764,429.925 77.0572,432.444 77.0381,434.944 C 77.019,437.444 74.4999,439.925 72,439.906z"/>
    <path style="fill: none; fill-opacity:0; stroke-width: 4; stroke: #00ff00" d="M 72 439.906 C 69.5001,439.887 67.0193,437.368 67.0384,434.868 C 67.0575,432.368 69.5766,429.887 72.0765,429.906 C 74.5764,429.925 77.0572,432.444 77.0381,434.944 C 77.019,437.444 74.4999,439.925 72,439.906"/>
    <polygon style="fill: #00ff00" points="72.9658,313.624 77.8892,323.662 72.9084,321.124 67.8895,323.585 "/>
    <polygon style="fill: none; fill-opacity:0; stroke-width: 4; stroke: #00ff00" points="72.9658,313.624 77.8892,323.662 72.9084,321.124 67.8895,323.585 "/>
  </g>
  <g>
    <line style="fill: none; fill-opacity:0; stroke-width: 4; stroke: #ffa500" x1="76.9" y1="155.092" x2="160.928" y2="155.092"/>
    <polygon style="fill: #ffa500" points="168.428,155.092 158.428,160.092 160.928,155.092 158.428,150.092 "/>
    <polygon style="fill: none; fill-opacity:0; stroke-width: 4; stroke: #ffa500" points="168.428,155.092 158.428,160.092 160.928,155.092 158.428,150.092 "/>
  </g>
  <g>
    <line style="fill: none; fill-opacity:0; stroke-width: 4; stroke: #7474fd" x1="172.9" y1="157.092" x2="172.934" y2="113.851"/>
    <polygon style="fill: #7474fd" points="172.94,106.351 177.932,116.355 172.934,113.851 167.932,116.347 "/>
    <polygon style="fill: none; fill-opacity:0; stroke-width: 4; stroke: #7474fd" points="172.94,106.351 177.932,116.355 172.934,113.851 167.932,116.347 "/>
  </g>
  <g>
    <line style="fill: none; fill-opacity:0; stroke-width: 4; stroke: #7474fd" x1="227.34" y1="156.092" x2="227.374" y2="112.851"/>
    <polygon style="fill: #7474fd" points="227.38,105.351 232.372,115.355 227.374,112.851 222.372,115.347 "/>
    <polygon style="fill: none; fill-opacity:0; stroke-width: 4; stroke: #7474fd" points="227.38,105.351 232.372,115.355 227.374,112.851 222.372,115.347 "/>
  </g>
  <g>
    <line style="fill: none; fill-opacity:0; stroke-width: 4; stroke: #ffa500" x1="239.872" y1="156.878" x2="323.9" y2="156.878"/>
    <polygon style="fill: #ffa500" points="232.372,156.878 242.372,151.878 239.872,156.878 242.372,161.878 "/>
    <polygon style="fill: none; fill-opacity:0; stroke-width: 4; stroke: #ffa500" points="232.372,156.878 242.372,151.878 239.872,156.878 242.372,161.878 "/>
  </g>
  <g>
    <line style="fill: none; fill-opacity:0; stroke-width: 4; stroke: #ff0000" x1="67.524" y1="430.1" x2="-25.6786" y2="381.624"/>
    <polygon style="fill: #ff0000" points="-32.3324,378.164 -21.1535,378.342 -25.6786,381.624 -25.7678,387.214 "/>
    <polygon style="fill: none; fill-opacity:0; stroke-width: 4; stroke: #ff0000" points="-32.3324,378.164 -21.1535,378.342 -25.6786,381.624 -25.7678,387.214 "/>
  </g>
  <g>
    <line style="fill: none; fill-opacity:0; stroke-width: 4; stroke: #00ff00" x1="327" y1="440.906" x2="327" y2="323.124"/>
    <path style="fill: #00ff00" d="M 327 440.906 C 324.5,440.906 322,438.406 322,435.906 C 322,433.406 324.5,430.906 327,430.906 C 329.5,430.906 332,433.406 332,435.906 C 332,438.406 329.5,440.906 327,440.906z"/>
    <path style="fill: none; fill-opacity:0; stroke-width: 4; stroke: #00ff00" d="M 327 440.906 C 324.5,440.906 322,438.406 322,435.906 C 322,433.406 324.5,430.906 327,430.906 C 329.5,430.906 332,433.406 332,435.906 C 332,438.406 329.5,440.906 327,440.906"/>
    <polygon style="fill: #00ff00" points="327,315.624 332,325.624 327,323.124 322,325.624 "/>
    <polygon style="fill: none; fill-opacity:0; stroke-width: 4; stroke: #00ff00" points="327,315.624 332,325.624 327,323.124 322,325.624 "/>
  </g>
  <g>
    <line style="fill: none; fill-opacity:0; stroke-width: 4; stroke: #000099" x1="201" y1="305.906" x2="201.831" y2="246.877"/>
    <path style="fill: #000099" d="M 201 305.906 C 198.5,305.871 196.036,303.336 196.071,300.836 C 196.106,298.336 198.641,295.872 201.141,295.907 C 203.641,295.942 206.105,298.477 206.07,300.977 C 206.035,303.477 203.5,305.941 201,305.906z"/>
    <path style="fill: none; fill-opacity:0; stroke-width: 4; stroke: #000099" d="M 201 305.906 C 198.5,305.871 196.036,303.336 196.071,300.836 C 196.106,298.336 198.641,295.872 201.141,295.907 C 203.641,295.942 206.105,298.477 206.07,300.977 C 206.035,303.477 203.5,305.941 201,305.906"/>
    <polygon style="fill: #000099" points="201.937,239.378 206.796,249.447 201.831,246.877 196.797,249.306 "/>
    <polygon style="fill: none; fill-opacity:0; stroke-width: 4; stroke: #000099" points="201.937,239.378 206.796,249.447 201.831,246.877 196.797,249.306 "/>
  </g>
  <g>
    <rect style="fill: #d8e5e5" x="671.9" y="79.2308" width="136" height="443"/>
    <rect style="fill: none; fill-opacity:0; stroke-width: 2; stroke: #000000" x="671.9" y="79.2308" width="136" height="443"/>
  </g>
  <g>
    <rect style="fill: #7f7f7f" x="562.9" y="61.3244" width="94" height="199"/>
    <rect style="fill: none; fill-opacity:0; stroke-width: 2; stroke: #000000" x="562.9" y="61.3244" width="94" height="199"/>
  </g>
  <g>
    <path style="fill: #0000ff" d="M 645.9 40.3244 C 680.9,38.3244 618.9,94.3244 576.9,96.3244 C 534.9,98.3244 610.9,42.3244 645.9,40.3244z"/>
    <path style="fill: none; fill-opacity:0; stroke-width: 2; stroke: #000000" d="M 645.9 40.3244 C 680.9,38.3244 618.9,94.3244 576.9,96.3244 C 534.9,98.3244 610.9,42.3244 645.9,40.3244"/>
  </g>
  <g>
    <rect style="fill: #7f7f7f" x="822.6" y="60.7244" width="94" height="199"/>
    <rect style="fill: none; fill-opacity:0; stroke-width: 2; stroke: #000000" x="822.6" y="60.7244" width="94" height="199"/>
  </g>
  <g>
    <path style="fill: #0000ff" d="M 833.6 86.7244 C 867.6,86.7244 942.6,141.724 906.6,141.724 C 870.6,141.724 799.6,86.7244 833.6,86.7244z"/>
    <path style="fill: none; fill-opacity:0; stroke-width: 2; stroke: #000000" d="M 833.6 86.7244 C 867.6,86.7244 942.6,141.724 906.6,141.724 C 870.6,141.724 799.6,86.7244 833.6,86.7244"/>
  </g>
  <g>
    <path style="fill: #0000ff" d="M 833.776 130.424 C 867.776,130.424 942.776,185.424 906.776,185.424 C 870.776,185.424 799.776,130.424 833.776,130.424z"/>
    <path style="fill: none; fill-opacity:0; stroke-width: 2; stroke: #000000" d="M 833.776 130.424 C 867.776,130.424 942.776,185.424 906.776,185.424 C 870.776,185.424 799.776,130.424 833.776,130.424"/>
  </g>
  <g>
    <path style="fill: #0000ff" d="M 832.976 173.124 C 866.976,173.124 941.976,228.124 905.976,228.124 C 869.976,228.124 798.976,173.124 832.976,173.124z"/>
    <path style="fill: none; fill-opacity:0; stroke-width: 2; stroke: #000000" d="M 832.976 173.124 C 866.976,173.124 941.976,228.124 905.976,228.124 C 869.976,228.124 798.976,173.124 832.976,173.124"/>
  </g>
  <g>
    <path style="fill: #0000ff" d="M 834.176 43.8244 C 868.176,43.8244 943.176,98.8244 907.176,98.8244 C 871.176,98.8244 800.176,43.8244 834.176,43.8244z"/>
    <path style="fill: none; fill-opacity:0; stroke-width: 2; stroke: #000000" d="M 834.176 43.8244 C 868.176,43.8244 943.176,98.8244 907.176,98.8244 C 871.176,98.8244 800.176,43.8244 834.176,43.8244"/>
  </g>
  <g>
    <path style="fill: #0000ff" d="M 833.376 216.524 C 867.376,216.524 942.376,271.524 906.376,271.524 C 870.376,271.524 799.376,216.524 833.376,216.524z"/>
    <path style="fill: none; fill-opacity:0; stroke-width: 2; stroke: #000000" d="M 833.376 216.524 C 867.376,216.524 942.376,271.524 906.376,271.524 C 870.376,271.524 799.376,216.524 833.376,216.524"/>
  </g>
  <g>
    <path style="fill: #0000ff" d="M 644.822 82.8244 C 678.746,79.3244 617.822,136.824 575.822,138.824 C 533.822,140.824 610.9,86.3244 644.822,82.8244z"/>
    <path style="fill: none; fill-opacity:0; stroke-width: 2; stroke: #000000" d="M 644.822 82.8244 C 678.746,79.3244 617.822,136.824 575.822,138.824 C 533.822,140.824 610.9,86.3244 644.822,82.8244"/>
  </g>
  <g>
    <path style="fill: #0000ff" d="M 643.522 127.324 C 677.146,126.324 616.522,181.324 574.522,183.324 C 532.522,185.324 609.9,128.324 643.522,127.324z"/>
    <path style="fill: none; fill-opacity:0; stroke-width: 2; stroke: #000000" d="M 643.522 127.324 C 677.146,126.324 616.522,181.324 574.522,183.324 C 532.522,185.324 609.9,128.324 643.522,127.324"/>
  </g>
  <g>
    <path style="fill: #0000ff" d="M 644.222 170.824 C 679.546,167.324 617.222,224.824 575.222,226.824 C 533.222,228.824 608.9,174.324 644.222,170.824z"/>
    <path style="fill: none; fill-opacity:0; stroke-width: 2; stroke: #000000" d="M 644.222 170.824 C 679.546,167.324 617.222,224.824 575.222,226.824 C 533.222,228.824 608.9,174.324 644.222,170.824"/>
  </g>
  <g>
    <path style="fill: #0000ff" d="M 648.922 214.324 C 682.946,212.324 621.922,268.324 579.922,270.324 C 537.922,272.324 614.9,216.324 648.922,214.324z"/>
    <path style="fill: none; fill-opacity:0; stroke-width: 2; stroke: #000000" d="M 648.922 214.324 C 682.946,212.324 621.922,268.324 579.922,270.324 C 537.922,272.324 614.9,216.324 648.922,214.324"/>
  </g>
  <g>
    <line style="fill: none; fill-opacity:0; stroke-width: 4; stroke: #ff0000" x1="611.59" y1="151.904" x2="704.185" y2="102.004"/>
    <polygon style="fill: #ff0000" points="710.787,98.446 704.356,107.592 704.185,102.004 699.612,98.7885 "/>
    <polygon style="fill: none; fill-opacity:0; stroke-width: 4; stroke: #ff0000" points="710.787,98.446 704.356,107.592 704.185,102.004 699.612,98.7885 "/>
  </g>
  <g>
    <rect style="fill: #7f7f7f" x="820.6" y="343.424" width="94" height="199"/>
    <rect style="fill: none; fill-opacity:0; stroke-width: 2; stroke: #000000" x="820.6" y="343.424" width="94" height="199"/>
  </g>
  <g>
    <path style="fill: #0000ff" d="M 903.6 322.424 C 938.6,320.424 876.6,376.424 834.6,378.424 C 792.6,380.424 868.6,324.424 903.6,322.424z"/>
    <path style="fill: none; fill-opacity:0; stroke-width: 2; stroke: #000000" d="M 903.6 322.424 C 938.6,320.424 876.6,376.424 834.6,378.424 C 792.6,380.424 868.6,324.424 903.6,322.424"/>
  </g>
  <g>
    <rect style="fill: #7f7f7f" x="563.3" y="339.824" width="94" height="199"/>
    <rect style="fill: none; fill-opacity:0; stroke-width: 2; stroke: #000000" x="563.3" y="339.824" width="94" height="199"/>
  </g>
  <g>
    <path style="fill: #0000ff" d="M 574.3 365.824 C 608.3,365.824 683.3,420.824 647.3,420.824 C 611.3,420.824 540.3,365.824 574.3,365.824z"/>
    <path style="fill: none; fill-opacity:0; stroke-width: 2; stroke: #000000" d="M 574.3 365.824 C 608.3,365.824 683.3,420.824 647.3,420.824 C 611.3,420.824 540.3,365.824 574.3,365.824"/>
  </g>
  <g>
    <path style="fill: #0000ff" d="M 574.476 409.524 C 608.476,409.524 683.476,464.524 647.476,464.524 C 611.476,464.524 540.476,409.524 574.476,409.524z"/>
    <path style="fill: none; fill-opacity:0; stroke-width: 2; stroke: #000000" d="M 574.476 409.524 C 608.476,409.524 683.476,464.524 647.476,464.524 C 611.476,464.524 540.476,409.524 574.476,409.524"/>
  </g>
  <g>
    <path style="fill: #0000ff" d="M 573.676 452.224 C 607.676,452.224 682.676,507.224 646.676,507.224 C 610.676,507.224 539.676,452.224 573.676,452.224z"/>
    <path style="fill: none; fill-opacity:0; stroke-width: 2; stroke: #000000" d="M 573.676 452.224 C 607.676,452.224 682.676,507.224 646.676,507.224 C 610.676,507.224 539.676,452.224 573.676,452.224"/>
  </g>
  <g>
    <path style="fill: #0000ff" d="M 574.876 322.924 C 608.876,322.924 683.876,377.924 647.876,377.924 C 611.876,377.924 540.876,322.924 574.876,322.924z"/>
    <path style="fill: none; fill-opacity:0; stroke-width: 2; stroke: #000000" d="M 574.876 322.924 C 608.876,322.924 683.876,377.924 647.876,377.924 C 611.876,377.924 540.876,322.924 574.876,322.924"/>
  </g>
  <g>
    <path style="fill: #0000ff" d="M 574.076 495.624 C 608.076,495.624 683.076,550.624 647.076,550.624 C 611.076,550.624 540.076,495.624 574.076,495.624z"/>
    <path style="fill: none; fill-opacity:0; stroke-width: 2; stroke: #000000" d="M 574.076 495.624 C 608.076,495.624 683.076,550.624 647.076,550.624 C 611.076,550.624 540.076,495.624 574.076,495.624"/>
  </g>
  <g>
    <path style="fill: #0000ff" d="M 902.522 364.924 C 936.446,361.424 875.522,418.924 833.522,420.924 C 791.522,422.924 868.6,368.424 902.522,364.924z"/>
    <path style="fill: none; fill-opacity:0; stroke-width: 2; stroke: #000000" d="M 902.522 364.924 C 936.446,361.424 875.522,418.924 833.522,420.924 C 791.522,422.924 868.6,368.424 902.522,364.924"/>
  </g>
  <g>
    <path style="fill: #0000ff" d="M 901.222 409.424 C 934.846,408.424 874.222,463.424 832.222,465.424 C 790.222,467.424 867.6,410.424 901.222,409.424z"/>
    <path style="fill: none; fill-opacity:0; stroke-width: 2; stroke: #000000" d="M 901.222 409.424 C 934.846,408.424 874.222,463.424 832.222,465.424 C 790.222,467.424 867.6,410.424 901.222,409.424"/>
  </g>
  <g>
    <path style="fill: #0000ff" d="M 901.922 452.924 C 937.246,449.424 874.922,506.924 832.922,508.924 C 790.922,510.924 866.6,456.424 901.922,452.924z"/>
    <path style="fill: none; fill-opacity:0; stroke-width: 2; stroke: #000000" d="M 901.922 452.924 C 937.246,449.424 874.922,506.924 832.922,508.924 C 790.922,510.924 866.6,456.424 901.922,452.924"/>
  </g>
  <g>
    <path style="fill: #0000ff" d="M 906.622 496.424 C 940.646,494.424 879.622,550.424 837.622,552.424 C 795.622,554.424 872.6,498.424 906.622,496.424z"/>
    <path style="fill: none; fill-opacity:0; stroke-width: 2; stroke: #000000" d="M 906.622 496.424 C 940.646,494.424 879.622,550.424 837.622,552.424 C 795.622,554.424 872.6,498.424 906.622,496.424"/>
  </g>
  <g>
    <line style="fill: none; fill-opacity:0; stroke-width: 4; stroke: #ff0000" x1="869.29" y1="434.004" x2="961.885" y2="384.104"/>
    <polygon style="fill: #ff0000" points="968.487,380.546 962.056,389.691 961.885,384.104 957.312,380.888 "/>
    <polygon style="fill: none; fill-opacity:0; stroke-width: 4; stroke: #ff0000" points="968.487,380.546 962.056,389.691 961.885,384.104 957.312,380.888 "/>
  </g>
  <g>
    <line style="fill: none; fill-opacity:0; stroke-width: 4; stroke: #7474fd" x1="873.9" y1="437.324" x2="957.928" y2="437.324"/>
    <polygon style="fill: #7474fd" points="965.428,437.324 955.428,442.324 957.928,437.324 955.428,432.324 "/>
    <polygon style="fill: none; fill-opacity:0; stroke-width: 4; stroke: #7474fd" points="965.428,437.324 955.428,442.324 957.928,437.324 955.428,432.324 "/>
  </g>
  <g>
    <line style="fill: none; fill-opacity:0; stroke-width: 4; stroke: #ffa500" x1="970.9" y1="440.324" x2="970.934" y2="397.082"/>
    <polygon style="fill: #ffa500" points="970.94,389.582 975.932,399.586 970.934,397.082 965.932,399.578 "/>
    <polygon style="fill: none; fill-opacity:0; stroke-width: 4; stroke: #ffa500" points="970.94,389.582 975.932,399.586 970.934,397.082 965.932,399.578 "/>
  </g>
  <g>
    <line style="fill: none; fill-opacity:0; stroke-width: 4; stroke: #ffa500" x1="718.45" y1="479.538" x2="718.484" y2="436.296"/>
    <polygon style="fill: #ffa500" points="718.444,487.038 713.452,477.034 718.45,479.538 723.452,477.042 "/>
    <polygon style="fill: none; fill-opacity:0; stroke-width: 4; stroke: #ffa500" points="718.444,487.038 713.452,477.034 718.45,479.538 723.452,477.042 "/>
  </g>
  <g>
    <line style="fill: none; fill-opacity:0; stroke-width: 4; stroke: #7474fd" x1="619" y1="438.296" x2="703.028" y2="438.296"/>
    <polygon style="fill: #7474fd" points="710.528,438.296 700.528,443.296 703.028,438.296 700.528,433.296 "/>
    <polygon style="fill: none; fill-opacity:0; stroke-width: 4; stroke: #7474fd" points="710.528,438.296 700.528,443.296 703.028,438.296 700.528,433.296 "/>
  </g>
  <g>
    <line style="fill: none; fill-opacity:0; stroke-width: 4; stroke: #00ff00" x1="611.904" y1="555.18" x2="610.9" y2="430.23"/>
    <polygon style="fill: #00ff00" points="611.964,562.68 606.884,552.72 611.904,555.18 616.884,552.64 "/>
    <polygon style="fill: none; fill-opacity:0; stroke-width: 4; stroke: #00ff00" points="611.964,562.68 606.884,552.72 611.904,555.18 616.884,552.64 "/>
    <path style="fill: #00ff00" d="M 610.9 430.23 C 613.4,430.21 615.92,432.69 615.94,435.19 C 615.96,437.69 613.48,440.21 610.98,440.23 C 608.48,440.25 605.96,437.77 605.94,435.27 C 605.92,432.77 608.4,430.25 610.9,430.23z"/>
    <path style="fill: none; fill-opacity:0; stroke-width: 4; stroke: #00ff00" d="M 610.9 430.23 C 613.4,430.21 615.92,432.69 615.94,435.19 C 615.96,437.69 613.48,440.21 610.98,440.23 C 608.48,440.25 605.96,437.77 605.94,435.27 C 605.92,432.77 608.4,430.25 610.9,430.23"/>
  </g>
  <g>
    <line style="fill: none; fill-opacity:0; stroke-width: 4; stroke: #7474fd" x1="616.8" y1="155.416" x2="700.828" y2="155.416"/>
    <polygon style="fill: #7474fd" points="708.328,155.416 698.328,160.416 700.828,155.416 698.328,150.416 "/>
    <polygon style="fill: none; fill-opacity:0; stroke-width: 4; stroke: #7474fd" points="708.328,155.416 698.328,160.416 700.828,155.416 698.328,150.416 "/>
  </g>
  <g>
    <line style="fill: none; fill-opacity:0; stroke-width: 4; stroke: #ffa500" x1="712.8" y1="157.416" x2="712.834" y2="114.175"/>
    <polygon style="fill: #ffa500" points="712.84,106.675 717.832,116.679 712.834,114.175 707.832,116.671 "/>
    <polygon style="fill: none; fill-opacity:0; stroke-width: 4; stroke: #ffa500" points="712.84,106.675 717.832,116.679 712.834,114.175 707.832,116.671 "/>
  </g>
  <g>
    <line style="fill: none; fill-opacity:0; stroke-width: 4; stroke: #ff0000" x1="707.803" y1="486.9" x2="614.6" y2="438.424"/>
    <polygon style="fill: #ff0000" points="714.456,490.36 703.278,490.182 707.803,486.9 707.892,481.31 "/>
    <polygon style="fill: none; fill-opacity:0; stroke-width: 4; stroke: #ff0000" points="714.456,490.36 703.278,490.182 707.803,486.9 707.892,481.31 "/>
  </g>
  <g>
    <line style="fill: none; fill-opacity:0; stroke-width: 4; stroke: #00ff00" x1="866" y1="448.152" x2="866" y2="322.124"/>
    <path style="fill: #00ff00" d="M 866 448.152 C 863.5,448.152 861,445.652 861,443.152 C 861,440.652 863.5,438.152 866,438.152 C 868.5,438.152 871,440.652 871,443.152 C 871,445.652 868.5,448.152 866,448.152z"/>
    <path style="fill: none; fill-opacity:0; stroke-width: 4; stroke: #00ff00" d="M 866 448.152 C 863.5,448.152 861,445.652 861,443.152 C 861,440.652 863.5,438.152 866,438.152 C 868.5,438.152 871,440.652 871,443.152 C 871,445.652 868.5,448.152 866,448.152"/>
    <polygon style="fill: #00ff00" points="866,314.624 871,324.624 866,322.124 861,324.624 "/>
    <polygon style="fill: none; fill-opacity:0; stroke-width: 4; stroke: #00ff00" points="866,314.624 871,324.624 866,322.124 861,324.624 "/>
  </g>
  <g>
    <line style="fill: none; fill-opacity:0; stroke-width: 4; stroke: #000099" x1="735.9" y1="297.23" x2="793.029" y2="297.992"/>
    <path style="fill: #000099" d="M 735.9 297.23 C 735.933,294.73 738.466,292.264 740.966,292.297 C 743.466,292.331 745.932,294.864 745.899,297.363 C 745.866,299.863 743.333,302.33 740.833,302.296 C 738.333,302.263 735.867,299.73 735.9,297.23z"/>
    <path style="fill: none; fill-opacity:0; stroke-width: 4; stroke: #000099" d="M 735.9 297.23 C 735.933,294.73 738.466,292.264 740.966,292.297 C 743.466,292.331 745.932,294.864 745.899,297.363 C 745.866,299.863 743.333,302.33 740.833,302.296 C 738.333,302.263 735.867,299.73 735.9,297.23"/>
    <polygon style="fill: #000099" points="800.528,298.092 790.462,302.958 793.029,297.992 790.596,292.959 "/>
    <polygon style="fill: none; fill-opacity:0; stroke-width: 4; stroke: #000099" points="800.528,298.092 790.462,302.958 793.029,297.992 790.596,292.959 "/>
  </g>
  <g>
    <line style="fill: none; fill-opacity:0; stroke-width: 4; stroke: #00ff00" x1="867.528" y1="277.818" x2="866.524" y2="152.869"/>
    <polygon style="fill: #00ff00" points="867.588,285.318 862.508,275.358 867.528,277.818 872.508,275.278 "/>
    <polygon style="fill: none; fill-opacity:0; stroke-width: 4; stroke: #00ff00" points="867.588,285.318 862.508,275.358 867.528,277.818 872.508,275.278 "/>
    <path style="fill: #00ff00" d="M 866.524 152.869 C 869.024,152.849 871.544,155.328 871.564,157.828 C 871.584,160.328 869.104,162.848 866.604,162.868 C 864.104,162.888 861.584,160.409 861.564,157.909 C 861.544,155.409 864.024,152.889 866.524,152.869z"/>
    <path style="fill: none; fill-opacity:0; stroke-width: 4; stroke: #00ff00" d="M 866.524 152.869 C 869.024,152.849 871.544,155.328 871.564,157.828 C 871.584,160.328 869.104,162.848 866.604,162.868 C 864.104,162.888 861.584,160.409 861.564,157.909 C 861.544,155.409 864.024,152.889 866.524,152.869"/>
  </g>
  <g>
    <line style="fill: none; fill-opacity:0; stroke-width: 4; stroke: #ff0000" x1="967.901" y1="210.026" x2="874.698" y2="161.55"/>
    <polygon style="fill: #ff0000" points="974.554,213.486 963.376,213.308 967.901,210.026 967.99,204.436 "/>
    <polygon style="fill: none; fill-opacity:0; stroke-width: 4; stroke: #ff0000" points="974.554,213.486 963.376,213.308 967.901,210.026 967.99,204.436 "/>
  </g>
  <g>
    <line style="fill: none; fill-opacity:0; stroke-width: 4; stroke: #7474fd" x1="878" y1="158.325" x2="962.028" y2="158.325"/>
    <polygon style="fill: #7474fd" points="969.528,158.325 959.528,163.325 962.028,158.325 959.528,153.325 "/>
    <polygon style="fill: none; fill-opacity:0; stroke-width: 4; stroke: #7474fd" points="969.528,158.325 959.528,163.325 962.028,158.325 959.528,153.325 "/>
  </g>
  <g>
    <line style="fill: none; fill-opacity:0; stroke-width: 4; stroke: #ffa500" x1="976.468" y1="199.096" x2="976.502" y2="155.854"/>
    <polygon style="fill: #ffa500" points="976.462,206.596 971.47,196.592 976.468,199.096 981.47,196.6 "/>
    <polygon style="fill: none; fill-opacity:0; stroke-width: 4; stroke: #ffa500" points="976.462,206.596 971.47,196.592 976.468,199.096 981.47,196.6 "/>
  </g>
  <g>
    <rect style="fill: #d8e5e5" x="1209.9" y="80.0782" width="136" height="443"/>
    <rect style="fill: none; fill-opacity:0; stroke-width: 2; stroke: #000000" x="1209.9" y="80.0782" width="136" height="443"/>
  </g>
  <g>
    <rect style="fill: #7f7f7f" x="1100.9" y="62.172" width="94" height="199"/>
    <rect style="fill: none; fill-opacity:0; stroke-width: 2; stroke: #000000" x="1100.9" y="62.172" width="94" height="199"/>
  </g>
  <g>
    <path style="fill: #0000ff" d="M 1183.9 41.172 C 1218.9,39.172 1156.9,95.172 1114.9,97.172 C 1072.9,99.172 1148.9,43.172 1183.9,41.172z"/>
    <path style="fill: none; fill-opacity:0; stroke-width: 2; stroke: #000000" d="M 1183.9 41.172 C 1218.9,39.172 1156.9,95.172 1114.9,97.172 C 1072.9,99.172 1148.9,43.172 1183.9,41.172"/>
  </g>
  <g>
    <rect style="fill: #7f7f7f" x="1360.6" y="61.572" width="94" height="199"/>
    <rect style="fill: none; fill-opacity:0; stroke-width: 2; stroke: #000000" x="1360.6" y="61.572" width="94" height="199"/>
  </g>
  <g>
    <path style="fill: #0000ff" d="M 1371.6 87.572 C 1405.6,87.572 1480.6,142.572 1444.6,142.572 C 1408.6,142.572 1337.6,87.572 1371.6,87.572z"/>
    <path style="fill: none; fill-opacity:0; stroke-width: 2; stroke: #000000" d="M 1371.6 87.572 C 1405.6,87.572 1480.6,142.572 1444.6,142.572 C 1408.6,142.572 1337.6,87.572 1371.6,87.572"/>
  </g>
  <g>
    <path style="fill: #0000ff" d="M 1371.78 131.272 C 1405.78,131.272 1480.78,186.272 1444.78,186.272 C 1408.78,186.272 1337.78,131.272 1371.78,131.272z"/>
    <path style="fill: none; fill-opacity:0; stroke-width: 2; stroke: #000000" d="M 1371.78 131.272 C 1405.78,131.272 1480.78,186.272 1444.78,186.272 C 1408.78,186.272 1337.78,131.272 1371.78,131.272"/>
  </g>
  <g>
    <path style="fill: #0000ff" d="M 1370.98 173.972 C 1404.98,173.972 1479.98,228.972 1443.98,228.972 C 1407.98,228.972 1336.98,173.972 1370.98,173.972z"/>
    <path style="fill: none; fill-opacity:0; stroke-width: 2; stroke: #000000" d="M 1370.98 173.972 C 1404.98,173.972 1479.98,228.972 1443.98,228.972 C 1407.98,228.972 1336.98,173.972 1370.98,173.972"/>
  </g>
  <g>
    <path style="fill: #0000ff" d="M 1372.18 44.672 C 1406.18,44.672 1481.18,99.672 1445.18,99.672 C 1409.18,99.672 1338.18,44.672 1372.18,44.672z"/>
    <path style="fill: none; fill-opacity:0; stroke-width: 2; stroke: #000000" d="M 1372.18 44.672 C 1406.18,44.672 1481.18,99.672 1445.18,99.672 C 1409.18,99.672 1338.18,44.672 1372.18,44.672"/>
  </g>
  <g>
    <path style="fill: #0000ff" d="M 1371.38 217.372 C 1405.38,217.372 1480.38,272.372 1444.38,272.372 C 1408.38,272.372 1337.38,217.372 1371.38,217.372z"/>
    <path style="fill: none; fill-opacity:0; stroke-width: 2; stroke: #000000" d="M 1371.38 217.372 C 1405.38,217.372 1480.38,272.372 1444.38,272.372 C 1408.38,272.372 1337.38,217.372 1371.38,217.372"/>
  </g>
  <g>
    <path style="fill: #0000ff" d="M 1182.82 83.672 C 1216.75,80.172 1155.82,137.672 1113.82,139.672 C 1071.82,141.672 1148.9,87.172 1182.82,83.672z"/>
    <path style="fill: none; fill-opacity:0; stroke-width: 2; stroke: #000000" d="M 1182.82 83.672 C 1216.75,80.172 1155.82,137.672 1113.82,139.672 C 1071.82,141.672 1148.9,87.172 1182.82,83.672"/>
  </g>
  <g>
    <path style="fill: #0000ff" d="M 1181.52 128.172 C 1215.15,127.172 1154.52,182.172 1112.52,184.172 C 1070.52,186.172 1147.9,129.172 1181.52,128.172z"/>
    <path style="fill: none; fill-opacity:0; stroke-width: 2; stroke: #000000" d="M 1181.52 128.172 C 1215.15,127.172 1154.52,182.172 1112.52,184.172 C 1070.52,186.172 1147.9,129.172 1181.52,128.172"/>
  </g>
  <g>
    <path style="fill: #0000ff" d="M 1182.22 171.672 C 1217.55,168.172 1155.22,225.672 1113.22,227.672 C 1071.22,229.672 1146.9,175.172 1182.22,171.672z"/>
    <path style="fill: none; fill-opacity:0; stroke-width: 2; stroke: #000000" d="M 1182.22 171.672 C 1217.55,168.172 1155.22,225.672 1113.22,227.672 C 1071.22,229.672 1146.9,175.172 1182.22,171.672"/>
  </g>
  <g>
    <path style="fill: #0000ff" d="M 1186.92 215.172 C 1220.95,213.172 1159.92,269.172 1117.92,271.172 C 1075.92,273.172 1152.9,217.172 1186.92,215.172z"/>
    <path style="fill: none; fill-opacity:0; stroke-width: 2; stroke: #000000" d="M 1186.92 215.172 C 1220.95,213.172 1159.92,269.172 1117.92,271.172 C 1075.92,273.172 1152.9,217.172 1186.92,215.172"/>
  </g>
  <g>
    <line style="fill: none; fill-opacity:0; stroke-width: 4; stroke: #ff0000" x1="1149.59" y1="152.751" x2="1242.18" y2="102.852"/>
    <polygon style="fill: #ff0000" points="1248.79,99.2936 1242.36,108.439 1242.18,102.852 1237.61,99.6361 "/>
    <polygon style="fill: none; fill-opacity:0; stroke-width: 4; stroke: #ff0000" points="1248.79,99.2936 1242.36,108.439 1242.18,102.852 1237.61,99.6361 "/>
  </g>
  <g>
    <rect style="fill: #7f7f7f" x="1358.6" y="344.272" width="94" height="199"/>
    <rect style="fill: none; fill-opacity:0; stroke-width: 2; stroke: #000000" x="1358.6" y="344.272" width="94" height="199"/>
  </g>
  <g>
    <path style="fill: #0000ff" d="M 1441.6 323.272 C 1476.6,321.272 1414.6,377.272 1372.6,379.272 C 1330.6,381.272 1406.6,325.272 1441.6,323.272z"/>
    <path style="fill: none; fill-opacity:0; stroke-width: 2; stroke: #000000" d="M 1441.6 323.272 C 1476.6,321.272 1414.6,377.272 1372.6,379.272 C 1330.6,381.272 1406.6,325.272 1441.6,323.272"/>
  </g>
  <g>
    <rect style="fill: #7f7f7f" x="1101.3" y="340.672" width="94" height="199"/>
    <rect style="fill: none; fill-opacity:0; stroke-width: 2; stroke: #000000" x="1101.3" y="340.672" width="94" height="199"/>
  </g>
  <g>
    <path style="fill: #0000ff" d="M 1112.3 366.672 C 1146.3,366.672 1221.3,421.672 1185.3,421.672 C 1149.3,421.672 1078.3,366.672 1112.3,366.672z"/>
    <path style="fill: none; fill-opacity:0; stroke-width: 2; stroke: #000000" d="M 1112.3 366.672 C 1146.3,366.672 1221.3,421.672 1185.3,421.672 C 1149.3,421.672 1078.3,366.672 1112.3,366.672"/>
  </g>
  <g>
    <path style="fill: #0000ff" d="M 1112.48 410.372 C 1146.48,410.372 1221.48,465.372 1185.48,465.372 C 1149.48,465.372 1078.48,410.372 1112.48,410.372z"/>
    <path style="fill: none; fill-opacity:0; stroke-width: 2; stroke: #000000" d="M 1112.48 410.372 C 1146.48,410.372 1221.48,465.372 1185.48,465.372 C 1149.48,465.372 1078.48,410.372 1112.48,410.372"/>
  </g>
  <g>
    <path style="fill: #0000ff" d="M 1111.68 453.072 C 1145.68,453.072 1220.68,508.072 1184.68,508.072 C 1148.68,508.072 1077.68,453.072 1111.68,453.072z"/>
    <path style="fill: none; fill-opacity:0; stroke-width: 2; stroke: #000000" d="M 1111.68 453.072 C 1145.68,453.072 1220.68,508.072 1184.68,508.072 C 1148.68,508.072 1077.68,453.072 1111.68,453.072"/>
  </g>
  <g>
    <path style="fill: #0000ff" d="M 1112.88 323.772 C 1146.88,323.772 1221.88,378.772 1185.88,378.772 C 1149.88,378.772 1078.88,323.772 1112.88,323.772z"/>
    <path style="fill: none; fill-opacity:0; stroke-width: 2; stroke: #000000" d="M 1112.88 323.772 C 1146.88,323.772 1221.88,378.772 1185.88,378.772 C 1149.88,378.772 1078.88,323.772 1112.88,323.772"/>
  </g>
  <g>
    <path style="fill: #0000ff" d="M 1112.08 496.472 C 1146.08,496.472 1221.08,551.472 1185.08,551.472 C 1149.08,551.472 1078.08,496.472 1112.08,496.472z"/>
    <path style="fill: none; fill-opacity:0; stroke-width: 2; stroke: #000000" d="M 1112.08 496.472 C 1146.08,496.472 1221.08,551.472 1185.08,551.472 C 1149.08,551.472 1078.08,496.472 1112.08,496.472"/>
  </g>
  <g>
    <path style="fill: #0000ff" d="M 1440.52 365.772 C 1474.45,362.272 1413.52,419.772 1371.52,421.772 C 1329.52,423.772 1406.6,369.272 1440.52,365.772z"/>
    <path style="fill: none; fill-opacity:0; stroke-width: 2; stroke: #000000" d="M 1440.52 365.772 C 1474.45,362.272 1413.52,419.772 1371.52,421.772 C 1329.52,423.772 1406.6,369.272 1440.52,365.772"/>
  </g>
  <g>
    <path style="fill: #0000ff" d="M 1439.22 410.272 C 1472.85,409.272 1412.22,464.272 1370.22,466.272 C 1328.22,468.272 1405.6,411.272 1439.22,410.272z"/>
    <path style="fill: none; fill-opacity:0; stroke-width: 2; stroke: #000000" d="M 1439.22 410.272 C 1472.85,409.272 1412.22,464.272 1370.22,466.272 C 1328.22,468.272 1405.6,411.272 1439.22,410.272"/>
  </g>
  <g>
    <path style="fill: #0000ff" d="M 1439.92 453.772 C 1475.25,450.272 1412.92,507.772 1370.92,509.772 C 1328.92,511.772 1404.6,457.272 1439.92,453.772z"/>
    <path style="fill: none; fill-opacity:0; stroke-width: 2; stroke: #000000" d="M 1439.92 453.772 C 1475.25,450.272 1412.92,507.772 1370.92,509.772 C 1328.92,511.772 1404.6,457.272 1439.92,453.772"/>
  </g>
  <g>
    <path style="fill: #0000ff" d="M 1444.62 497.272 C 1478.65,495.272 1417.62,551.272 1375.62,553.272 C 1333.62,555.272 1410.6,499.272 1444.62,497.272z"/>
    <path style="fill: none; fill-opacity:0; stroke-width: 2; stroke: #000000" d="M 1444.62 497.272 C 1478.65,495.272 1417.62,551.272 1375.62,553.272 C 1333.62,555.272 1410.6,499.272 1444.62,497.272"/>
  </g>
  <g>
    <line style="fill: none; fill-opacity:0; stroke-width: 4; stroke: #7474fd" x1="1046.44" y1="438.358" x2="1046.47" y2="395.116"/>
    <polygon style="fill: #7474fd" points="1046.48,387.616 1051.47,397.62 1046.47,395.116 1041.47,397.612 "/>
    <polygon style="fill: none; fill-opacity:0; stroke-width: 4; stroke: #7474fd" points="1046.48,387.616 1051.47,397.62 1046.47,395.116 1041.47,397.612 "/>
  </g>
  <g>
    <line style="fill: none; fill-opacity:0; stroke-width: 4; stroke: #7474fd" x1="1058.97" y1="439.144" x2="1143" y2="439.144"/>
    <polygon style="fill: #7474fd" points="1051.47,439.144 1061.47,434.144 1058.97,439.144 1061.47,444.144 "/>
    <polygon style="fill: none; fill-opacity:0; stroke-width: 4; stroke: #7474fd" points="1051.47,439.144 1061.47,434.144 1058.97,439.144 1061.47,444.144 "/>
  </g>
  <g>
    <line style="fill: none; fill-opacity:0; stroke-width: 4; stroke: #7474fd" x1="1154.8" y1="156.264" x2="1238.83" y2="156.264"/>
    <polygon style="fill: #7474fd" points="1246.33,156.264 1236.33,161.264 1238.83,156.264 1236.33,151.264 "/>
    <polygon style="fill: none; fill-opacity:0; stroke-width: 4; stroke: #7474fd" points="1246.33,156.264 1236.33,161.264 1238.83,156.264 1236.33,151.264 "/>
  </g>
  <g>
    <line style="fill: none; fill-opacity:0; stroke-width: 4; stroke: #7474fd" x1="1250.8" y1="158.264" x2="1250.83" y2="115.023"/>
    <polygon style="fill: #7474fd" points="1250.84,107.523 1255.83,117.527 1250.83,115.023 1245.83,117.519 "/>
    <polygon style="fill: none; fill-opacity:0; stroke-width: 4; stroke: #7474fd" points="1250.84,107.523 1255.83,117.527 1250.83,115.023 1245.83,117.519 "/>
  </g>
  <g>
    <line style="fill: none; fill-opacity:0; stroke-width: 4; stroke: #ff0000" x1="1145.42" y1="431.272" x2="1052.22" y2="382.796"/>
    <polygon style="fill: #ff0000" points="1045.57,379.336 1056.75,379.514 1052.22,382.796 1052.13,388.386 "/>
    <polygon style="fill: none; fill-opacity:0; stroke-width: 4; stroke: #ff0000" points="1045.57,379.336 1056.75,379.514 1052.22,382.796 1052.13,388.386 "/>
  </g>
  <g>
    <line style="fill: none; fill-opacity:0; stroke-width: 4; stroke: #00ff00" x1="1144.24" y1="160.496" x2="1143.11" y2="43.1242"/>
    <path style="fill: #00ff00" d="M 1144.24 160.496 C 1141.74,160.521 1139.22,158.045 1139.19,155.545 C 1139.17,153.045 1141.65,150.521 1144.15,150.497 C 1146.65,150.473 1149.17,152.949 1149.19,155.448 C 1149.22,157.948 1146.74,160.472 1144.24,160.496z"/>
    <path style="fill: none; fill-opacity:0; stroke-width: 4; stroke: #00ff00" d="M 1144.24 160.496 C 1141.74,160.521 1139.22,158.045 1139.19,155.545 C 1139.17,153.045 1141.65,150.521 1144.15,150.497 C 1146.65,150.473 1149.17,152.949 1149.19,155.448 C 1149.22,157.948 1146.74,160.472 1144.24,160.496"/>
    <polygon style="fill: #00ff00" points="1143.04,35.6245 1148.13,45.5758 1143.11,43.1242 1138.13,45.6723 "/>
    <polygon style="fill: none; fill-opacity:0; stroke-width: 4; stroke: #00ff00" points="1143.04,35.6245 1148.13,45.5758 1143.11,43.1242 1138.13,45.6723 "/>
  </g>
  <g>
    <line style="fill: none; fill-opacity:0; stroke-width: 4; stroke: #00ff00" x1="605.564" y1="159.325" x2="606.868" y2="41.124"/>
    <path style="fill: #00ff00" d="M 605.564 159.325 C 603.064,159.297 600.592,156.77 600.619,154.27 C 600.647,151.77 603.174,149.298 605.674,149.325 C 608.174,149.353 610.646,151.88 610.619,154.38 C 610.591,156.88 608.064,159.352 605.564,159.325z"/>
    <path style="fill: none; fill-opacity:0; stroke-width: 4; stroke: #00ff00" d="M 605.564 159.325 C 603.064,159.297 600.592,156.77 600.619,154.27 C 600.647,151.77 603.174,149.298 605.674,149.325 C 608.174,149.353 610.646,151.88 610.619,154.38 C 610.591,156.88 608.064,159.352 605.564,159.325"/>
    <polygon style="fill: #00ff00" points="606.951,33.6245 611.84,43.679 606.868,41.124 601.841,43.5687 "/>
    <polygon style="fill: none; fill-opacity:0; stroke-width: 4; stroke: #00ff00" points="606.951,33.6245 611.84,43.679 606.868,41.124 601.841,43.5687 "/>
  </g>
  <g>
    <line style="fill: none; fill-opacity:0; stroke-width: 4; stroke: #00ff00" x1="1151.05" y1="441.152" x2="1150.71" y2="322.296"/>
    <path style="fill: #00ff00" d="M 1151.05 441.152 C 1148.55,441.159 1146.04,438.666 1146.03,436.166 C 1146.03,433.666 1148.52,431.159 1151.02,431.152 C 1153.52,431.145 1156.03,433.638 1156.03,436.138 C 1156.04,438.638 1153.55,441.145 1151.05,441.152z"/>
    <path style="fill: none; fill-opacity:0; stroke-width: 4; stroke: #00ff00" d="M 1151.05 441.152 C 1148.55,441.159 1146.04,438.666 1146.03,436.166 C 1146.03,433.666 1148.52,431.159 1151.02,431.152 C 1153.52,431.145 1156.03,433.638 1156.03,436.138 C 1156.04,438.638 1153.55,441.145 1151.05,441.152"/>
    <polygon style="fill: #00ff00" points="1150.69,314.796 1155.72,324.782 1150.71,322.296 1145.72,324.81 "/>
    <polygon style="fill: none; fill-opacity:0; stroke-width: 4; stroke: #00ff00" points="1150.69,314.796 1155.72,324.782 1150.71,322.296 1145.72,324.81 "/>
  </g>
  <g>
    <line style="fill: none; fill-opacity:0; stroke-width: 4; stroke: #00ff00" x1="1411.58" y1="557.818" x2="1410.57" y2="432.868"/>
    <polygon style="fill: #00ff00" points="1411.64,565.318 1406.56,555.358 1411.58,557.818 1416.56,555.278 "/>
    <polygon style="fill: none; fill-opacity:0; stroke-width: 4; stroke: #00ff00" points="1411.64,565.318 1406.56,555.358 1411.58,557.818 1416.56,555.278 "/>
    <path style="fill: #00ff00" d="M 1410.57 432.868 C 1413.07,432.848 1415.59,435.328 1415.61,437.828 C 1415.63,440.328 1413.15,442.848 1410.65,442.868 C 1408.15,442.888 1405.63,440.408 1405.61,437.908 C 1405.59,435.408 1408.07,432.888 1410.57,432.868z"/>
    <path style="fill: none; fill-opacity:0; stroke-width: 4; stroke: #00ff00" d="M 1410.57 432.868 C 1413.07,432.848 1415.59,435.328 1415.61,437.828 C 1415.63,440.328 1413.15,442.848 1410.65,442.868 C 1408.15,442.888 1405.63,440.408 1405.61,437.908 C 1405.59,435.408 1408.07,432.888 1410.57,432.868"/>
  </g>
  <g>
    <line style="fill: none; fill-opacity:0; stroke-width: 4; stroke: #00ff00" x1="1406.58" y1="277.518" x2="1405.57" y2="152.569"/>
    <polygon style="fill: #00ff00" points="1406.64,285.018 1401.56,275.058 1406.58,277.518 1411.56,274.978 "/>
    <polygon style="fill: none; fill-opacity:0; stroke-width: 4; stroke: #00ff00" points="1406.64,285.018 1401.56,275.058 1406.58,277.518 1411.56,274.978 "/>
    <path style="fill: #00ff00" d="M 1405.57 152.569 C 1408.07,152.549 1410.59,155.028 1410.61,157.528 C 1410.63,160.028 1408.15,162.548 1405.65,162.568 C 1403.15,162.588 1400.63,160.109 1400.61,157.609 C 1400.59,155.109 1403.07,152.589 1405.57,152.569z"/>
    <path style="fill: none; fill-opacity:0; stroke-width: 4; stroke: #00ff00" d="M 1405.57 152.569 C 1408.07,152.549 1410.59,155.028 1410.61,157.528 C 1410.63,160.028 1408.15,162.548 1405.65,162.568 C 1403.15,162.588 1400.63,160.109 1400.61,157.609 C 1400.59,155.109 1403.07,152.589 1405.57,152.569"/>
  </g>
  <g>
    <line style="fill: none; fill-opacity:0; stroke-width: 4; stroke: #ff0000" x1="1506.95" y1="211.026" x2="1413.75" y2="162.55"/>
    <polygon style="fill: #ff0000" points="1513.6,214.486 1502.42,214.308 1506.95,211.026 1507.04,205.436 "/>
    <polygon style="fill: none; fill-opacity:0; stroke-width: 4; stroke: #ff0000" points="1513.6,214.486 1502.42,214.308 1506.95,211.026 1507.04,205.436 "/>
  </g>
  <g>
    <line style="fill: none; fill-opacity:0; stroke-width: 4; stroke: #7474fd" x1="1417.05" y1="159.325" x2="1501.08" y2="159.325"/>
    <polygon style="fill: #7474fd" points="1508.58,159.325 1498.58,164.325 1501.08,159.325 1498.58,154.325 "/>
    <polygon style="fill: none; fill-opacity:0; stroke-width: 4; stroke: #7474fd" points="1508.58,159.325 1498.58,164.325 1501.08,159.325 1498.58,154.325 "/>
  </g>
  <g>
    <line style="fill: none; fill-opacity:0; stroke-width: 4; stroke: #7474fd" x1="1515.51" y1="200.096" x2="1515.55" y2="156.854"/>
    <polygon style="fill: #7474fd" points="1515.51,207.596 1510.52,197.592 1515.51,200.096 1520.52,197.6 "/>
    <polygon style="fill: none; fill-opacity:0; stroke-width: 4; stroke: #7474fd" points="1515.51,207.596 1510.52,197.592 1515.51,200.096 1520.52,197.6 "/>
  </g>
  <g>
    <line style="fill: none; fill-opacity:0; stroke-width: 4; stroke: #ff0000" x1="1313.24" y1="489.538" x2="1405.84" y2="439.638"/>
    <polygon style="fill: #ff0000" points="1306.64,493.096 1313.07,483.951 1313.24,489.538 1317.82,492.754 "/>
    <polygon style="fill: none; fill-opacity:0; stroke-width: 4; stroke: #ff0000" points="1306.64,493.096 1313.07,483.951 1313.24,489.538 1317.82,492.754 "/>
  </g>
  <g>
    <line style="fill: none; fill-opacity:0; stroke-width: 4; stroke: #7474fd" x1="1317.97" y1="438.324" x2="1401.99" y2="438.324"/>
    <polygon style="fill: #7474fd" points="1310.47,438.324 1320.47,433.324 1317.97,438.324 1320.47,443.324 "/>
    <polygon style="fill: none; fill-opacity:0; stroke-width: 4; stroke: #7474fd" points="1310.47,438.324 1320.47,433.324 1317.97,438.324 1320.47,443.324 "/>
  </g>
  <g>
    <line style="fill: none; fill-opacity:0; stroke-width: 4; stroke: #7474fd" x1="1307.46" y1="480.096" x2="1307.5" y2="436.854"/>
    <polygon style="fill: #7474fd" points="1307.46,487.596 1302.46,477.592 1307.46,480.096 1312.46,477.6 "/>
    <polygon style="fill: none; fill-opacity:0; stroke-width: 4; stroke: #7474fd" points="1307.46,487.596 1302.46,477.592 1307.46,480.096 1312.46,477.6 "/>
  </g>
  <g>
    <line style="fill: none; fill-opacity:0; stroke-width: 4; stroke: #000099" x1="1253.99" y1="297.152" x2="1278.86" y2="312.781"/>
    <polygon style="fill: #000099" points="1285.21,316.772 1274.08,315.684 1278.86,312.781 1279.4,307.217 "/>
    <polygon style="fill: none; fill-opacity:0; stroke-width: 4; stroke: #000099" points="1285.21,316.772 1274.08,315.684 1278.86,312.781 1279.4,307.217 "/>
  </g>
</svg>
