<?xml version="1.0" encoding="UTF-8" standalone="no"?>
<!DOCTYPE svg PUBLIC "-//W3C//DTD SVG 1.0//EN" "http://www.w3.org/TR/2001/PR-SVG-20010719/DTD/svg10.dtd">
<svg width="25cm" height="9cm" viewBox="149 121 494 164" xmlns="http://www.w3.org/2000/svg" xmlns:xlink="http://www.w3.org/1999/xlink">
  <g>
    <rect style="fill: #d8e5e5" x="181" y="123" width="72" height="160"/>
    <rect style="fill: none; fill-opacity:0; stroke-width: 2; stroke: #000000" x="181" y="123" width="72" height="160"/>
  </g>
  <g>
    <rect style="fill: #dcdcff" x="152" y="126" width="21" height="51"/>
    <rect style="fill: none; fill-opacity:0; stroke-width: 2; stroke: #000000" x="152" y="126" width="21" height="51"/>
  </g>
  <g>
    <line style="fill: none; fill-opacity:0; stroke-width: 2; stroke: #000000" x1="163" y1="168" x2="163" y2="141.736"/>
    <polygon style="fill: #000000" points="163,134.236 168,144.236 163,141.736 158,144.236 "/>
    <polygon style="fill: none; fill-opacity:0; stroke-width: 2; stroke: #000000" points="163,134.236 168,144.236 163,141.736 158,144.236 "/>
  </g>
  <g>
    <rect style="fill: #dcdcff" x="261" y="125.7" width="21" height="51"/>
    <rect style="fill: none; fill-opacity:0; stroke-width: 2; stroke: #000000" x="261" y="125.7" width="21" height="51"/>
  </g>
  <g>
    <line style="fill: none; fill-opacity:0; stroke-width: 2; stroke: #000000" x1="272" y1="167.7" x2="272" y2="141.436"/>
    <polygon style="fill: #000000" points="272,133.936 277,143.936 272,141.436 267,143.936 "/>
    <polygon style="fill: none; fill-opacity:0; stroke-width: 2; stroke: #000000" points="272,133.936 277,143.936 272,141.436 267,143.936 "/>
  </g>
  <g>
    <rect style="fill: #dcdcff" x="151" y="227.4" width="21" height="51"/>
    <rect style="fill: none; fill-opacity:0; stroke-width: 2; stroke: #000000" x="151" y="227.4" width="21" height="51"/>
  </g>
  <g>
    <line style="fill: none; fill-opacity:0; stroke-width: 2; stroke: #000000" x1="162" y1="269.4" x2="162" y2="243.136"/>
    <polygon style="fill: #000000" points="162,235.636 167,245.636 162,243.136 157,245.636 "/>
    <polygon style="fill: none; fill-opacity:0; stroke-width: 2; stroke: #000000" points="162,235.636 167,245.636 162,243.136 157,245.636 "/>
  </g>
  <g>
    <rect style="fill: #dcdcff" x="261" y="228.1" width="21" height="51"/>
    <rect style="fill: none; fill-opacity:0; stroke-width: 2; stroke: #000000" x="261" y="228.1" width="21" height="51"/>
  </g>
  <g>
    <line style="fill: none; fill-opacity:0; stroke-width: 2; stroke: #000000" x1="272" y1="270.1" x2="272" y2="243.836"/>
    <polygon style="fill: #000000" points="272,236.336 277,246.336 272,243.836 267,246.336 "/>
    <polygon style="fill: none; fill-opacity:0; stroke-width: 2; stroke: #000000" points="272,236.336 277,246.336 272,243.836 267,246.336 "/>
  </g>
  <g>
    <line style="fill: none; fill-opacity:0; stroke-width: 2; stroke: #000000" x1="217" y1="199" x2="216.165" y2="149.735"/>
    <polygon style="fill: #000000" points="216.038,142.236 221.207,152.15 216.165,149.735 211.208,152.319 "/>
    <polygon style="fill: none; fill-opacity:0; stroke-width: 2; stroke: #000000" points="216.038,142.236 221.207,152.15 216.165,149.735 211.208,152.319 "/>
  </g>
  <g>
    <rect style="fill: #d8e5e5" x="362" y="122.7" width="72" height="160"/>
    <rect style="fill: none; fill-opacity:0; stroke-width: 2; stroke: #000000" x="362" y="122.7" width="72" height="160"/>
  </g>
  <g>
    <rect style="fill: #dcdcff" x="333" y="125.7" width="21" height="51"/>
    <rect style="fill: none; fill-opacity:0; stroke-width: 2; stroke: #000000" x="333" y="125.7" width="21" height="51"/>
  </g>
  <g>
    <line style="fill: none; fill-opacity:0; stroke-width: 2; stroke: #000000" x1="344" y1="167.7" x2="344" y2="141.436"/>
    <polygon style="fill: #000000" points="344,133.936 349,143.936 344,141.436 339,143.936 "/>
    <polygon style="fill: none; fill-opacity:0; stroke-width: 2; stroke: #000000" points="344,133.936 349,143.936 344,141.436 339,143.936 "/>
  </g>
  <g>
    <rect style="fill: #dcdcff" x="442" y="125.4" width="21" height="51"/>
    <rect style="fill: none; fill-opacity:0; stroke-width: 2; stroke: #000000" x="442" y="125.4" width="21" height="51"/>
  </g>
  <g>
    <line style="fill: none; fill-opacity:0; stroke-width: 2; stroke: #000000" x1="453" y1="157.664" x2="453" y2="131.4"/>
    <polygon style="fill: #000000" points="453,165.164 448,155.164 453,157.664 458,155.164 "/>
    <polygon style="fill: none; fill-opacity:0; stroke-width: 2; stroke: #000000" points="453,165.164 448,155.164 453,157.664 458,155.164 "/>
  </g>
  <g>
    <rect style="fill: #dcdcff" x="332" y="227.1" width="21" height="51"/>
    <rect style="fill: none; fill-opacity:0; stroke-width: 2; stroke: #000000" x="332" y="227.1" width="21" height="51"/>
  </g>
  <g>
    <line style="fill: none; fill-opacity:0; stroke-width: 2; stroke: #000000" x1="343" y1="259.364" x2="343" y2="233.1"/>
    <polygon style="fill: #000000" points="343,266.864 338,256.864 343,259.364 348,256.864 "/>
    <polygon style="fill: none; fill-opacity:0; stroke-width: 2; stroke: #000000" points="343,266.864 338,256.864 343,259.364 348,256.864 "/>
  </g>
  <g>
    <rect style="fill: #dcdcff" x="442" y="227.8" width="21" height="51"/>
    <rect style="fill: none; fill-opacity:0; stroke-width: 2; stroke: #000000" x="442" y="227.8" width="21" height="51"/>
  </g>
  <g>
    <line style="fill: none; fill-opacity:0; stroke-width: 2; stroke: #000000" x1="453" y1="269.8" x2="453" y2="243.536"/>
    <polygon style="fill: #000000" points="453,236.036 458,246.036 453,243.536 448,246.036 "/>
    <polygon style="fill: none; fill-opacity:0; stroke-width: 2; stroke: #000000" points="453,236.036 458,246.036 453,243.536 448,246.036 "/>
  </g>
  <g>
    <line style="fill: none; fill-opacity:0; stroke-width: 2; stroke: #000000" x1="397" y1="198.7" x2="447.266" y2="199.789"/>
    <polygon style="fill: #000000" points="454.764,199.952 444.658,204.734 447.266,199.789 444.875,194.736 "/>
    <polygon style="fill: none; fill-opacity:0; stroke-width: 2; stroke: #000000" points="454.764,199.952 444.658,204.734 447.266,199.789 444.875,194.736 "/>
  </g>
  <g>
    <rect style="fill: #d8e5e5" x="541" y="123.7" width="72" height="160"/>
    <rect style="fill: none; fill-opacity:0; stroke-width: 2; stroke: #000000" x="541" y="123.7" width="72" height="160"/>
  </g>
  <g>
    <rect style="fill: #dcdcff" x="512" y="126.7" width="21" height="51"/>
    <rect style="fill: none; fill-opacity:0; stroke-width: 2; stroke: #000000" x="512" y="126.7" width="21" height="51"/>
  </g>
  <g>
    <line style="fill: none; fill-opacity:0; stroke-width: 2; stroke: #000000" x1="523" y1="168.7" x2="523" y2="142.436"/>
    <polygon style="fill: #000000" points="523,134.936 528,144.936 523,142.436 518,144.936 "/>
    <polygon style="fill: none; fill-opacity:0; stroke-width: 2; stroke: #000000" points="523,134.936 528,144.936 523,142.436 518,144.936 "/>
  </g>
  <g>
    <rect style="fill: #dcdcff" x="621" y="126.4" width="21" height="51"/>
    <rect style="fill: none; fill-opacity:0; stroke-width: 2; stroke: #000000" x="621" y="126.4" width="21" height="51"/>
  </g>
  <g>
    <line style="fill: none; fill-opacity:0; stroke-width: 2; stroke: #000000" x1="632" y1="158.664" x2="632" y2="132.4"/>
    <polygon style="fill: #000000" points="632,166.164 627,156.164 632,158.664 637,156.164 "/>
    <polygon style="fill: none; fill-opacity:0; stroke-width: 2; stroke: #000000" points="632,166.164 627,156.164 632,158.664 637,156.164 "/>
  </g>
  <g>
    <rect style="fill: #dcdcff" x="511" y="228.1" width="21" height="51"/>
    <rect style="fill: none; fill-opacity:0; stroke-width: 2; stroke: #000000" x="511" y="228.1" width="21" height="51"/>
  </g>
  <g>
    <line style="fill: none; fill-opacity:0; stroke-width: 2; stroke: #000000" x1="522" y1="270.1" x2="522" y2="243.836"/>
    <polygon style="fill: #000000" points="522,236.336 527,246.336 522,243.836 517,246.336 "/>
    <polygon style="fill: none; fill-opacity:0; stroke-width: 2; stroke: #000000" points="522,236.336 527,246.336 522,243.836 517,246.336 "/>
  </g>
  <g>
    <rect style="fill: #dcdcff" x="621" y="228.8" width="21" height="51"/>
    <rect style="fill: none; fill-opacity:0; stroke-width: 2; stroke: #000000" x="621" y="228.8" width="21" height="51"/>
  </g>
  <g>
    <line style="fill: none; fill-opacity:0; stroke-width: 2; stroke: #000000" x1="632" y1="261.064" x2="632" y2="234.8"/>
    <polygon style="fill: #000000" points="632,268.564 627,258.564 632,261.064 637,258.564 "/>
    <polygon style="fill: none; fill-opacity:0; stroke-width: 2; stroke: #000000" points="632,268.564 627,258.564 632,261.064 637,258.564 "/>
  </g>
  <g>
    <path style="fill: none; fill-opacity:0; stroke-width: 2; stroke: #000000" d="M 596.252,206.894 A 18.0305,18.0305 0 1 0 562,196"/>
    <polygon style="fill: #000000" points="592.729,212.582 597.292,202.375 598.529,207.827 603.632,210.109 "/>
    <polygon style="fill: none; fill-opacity:0; stroke-width: 2; stroke: #000000" points="592.729,212.582 597.292,202.375 598.529,207.827 603.632,210.109 "/>
  </g>
</svg>
