<?xml version="1.0" encoding="UTF-8" standalone="no"?>
<!DOCTYPE svg PUBLIC "-//W3C//DTD SVG 1.0//EN" "http://www.w3.org/TR/2001/PR-SVG-20010719/DTD/svg10.dtd">
<svg width="48cm" height="15cm" viewBox="-21 -16 945 288" xmlns="http://www.w3.org/2000/svg" xmlns:xlink="http://www.w3.org/1999/xlink">
  <g>
    <rect style="fill: #7f7f7f" x="23" y="61" width="94" height="199"/>
    <rect style="fill: none; fill-opacity:0; stroke-width: 2; stroke: #000000" x="23" y="61" width="94" height="199"/>
  </g>
  <g>
    <path style="fill: #0000ff" d="M 106 40 C 141,38 79,94 37,96 C -5,98 71,42 106,40z"/>
    <path style="fill: none; fill-opacity:0; stroke-width: 2; stroke: #000000" d="M 106 40 C 141,38 79,94 37,96 C -5,98 71,42 106,40"/>
  </g>
  <g>
    <rect style="fill: #7f7f7f" x="282.7" y="60.4" width="94" height="199"/>
    <rect style="fill: none; fill-opacity:0; stroke-width: 2; stroke: #000000" x="282.7" y="60.4" width="94" height="199"/>
  </g>
  <g>
    <path style="fill: #0000ff" d="M 293.7 86.4 C 327.7,86.4 402.7,141.4 366.7,141.4 C 330.7,141.4 259.7,86.4 293.7,86.4z"/>
    <path style="fill: none; fill-opacity:0; stroke-width: 2; stroke: #000000" d="M 293.7 86.4 C 327.7,86.4 402.7,141.4 366.7,141.4 C 330.7,141.4 259.7,86.4 293.7,86.4"/>
  </g>
  <g>
    <path style="fill: #0000ff" d="M 293.876 130.1 C 327.876,130.1 402.876,185.1 366.876,185.1 C 330.876,185.1 259.876,130.1 293.876,130.1z"/>
    <path style="fill: none; fill-opacity:0; stroke-width: 2; stroke: #000000" d="M 293.876 130.1 C 327.876,130.1 402.876,185.1 366.876,185.1 C 330.876,185.1 259.876,130.1 293.876,130.1"/>
  </g>
  <g>
    <path style="fill: #0000ff" d="M 293.076 172.8 C 327.076,172.8 402.076,227.8 366.076,227.8 C 330.076,227.8 259.076,172.8 293.076,172.8z"/>
    <path style="fill: none; fill-opacity:0; stroke-width: 2; stroke: #000000" d="M 293.076 172.8 C 327.076,172.8 402.076,227.8 366.076,227.8 C 330.076,227.8 259.076,172.8 293.076,172.8"/>
  </g>
  <g>
    <path style="fill: #0000ff" d="M 294.276 43.5 C 328.276,43.5 403.276,98.5 367.276,98.5 C 331.276,98.5 260.276,43.5 294.276,43.5z"/>
    <path style="fill: none; fill-opacity:0; stroke-width: 2; stroke: #000000" d="M 294.276 43.5 C 328.276,43.5 403.276,98.5 367.276,98.5 C 331.276,98.5 260.276,43.5 294.276,43.5"/>
  </g>
  <g>
    <path style="fill: #0000ff" d="M 293.476 216.2 C 327.476,216.2 402.476,271.2 366.476,271.2 C 330.476,271.2 259.476,216.2 293.476,216.2z"/>
    <path style="fill: none; fill-opacity:0; stroke-width: 2; stroke: #000000" d="M 293.476 216.2 C 327.476,216.2 402.476,271.2 366.476,271.2 C 330.476,271.2 259.476,216.2 293.476,216.2"/>
  </g>
  <g>
    <path style="fill: #0000ff" d="M 104.923 82.5 C 138.845,79 77.9228,136.5 35.9228,138.5 C -6.07728,140.5 71,86 104.923,82.5z"/>
    <path style="fill: none; fill-opacity:0; stroke-width: 2; stroke: #000000" d="M 104.923 82.5 C 138.845,79 77.9228,136.5 35.9228,138.5 C -6.07728,140.5 71,86 104.923,82.5"/>
  </g>
  <g>
    <path style="fill: #0000ff" d="M 103.623 127 C 137.245,126 76.6228,181 34.6228,183 C -7.37728,185 70,128 103.623,127z"/>
    <path style="fill: none; fill-opacity:0; stroke-width: 2; stroke: #000000" d="M 103.623 127 C 137.245,126 76.6228,181 34.6228,183 C -7.37728,185 70,128 103.623,127"/>
  </g>
  <g>
    <path style="fill: #0000ff" d="M 104.323 170.5 C 139.645,167 77.3228,224.5 35.3228,226.5 C -6.67728,228.5 69,174 104.323,170.5z"/>
    <path style="fill: none; fill-opacity:0; stroke-width: 2; stroke: #000000" d="M 104.323 170.5 C 139.645,167 77.3228,224.5 35.3228,226.5 C -6.67728,228.5 69,174 104.323,170.5"/>
  </g>
  <g>
    <path style="fill: #0000ff" d="M 109.023 214 C 143.045,212 82.0228,268 40.0228,270 C -1.97727,272 75,216 109.023,214z"/>
    <path style="fill: none; fill-opacity:0; stroke-width: 2; stroke: #000000" d="M 109.023 214 C 143.045,212 82.0228,268 40.0228,270 C -1.97727,272 75,216 109.023,214"/>
  </g>
  <g>
    <line style="fill: none; fill-opacity:0; stroke-width: 4; stroke: #00ff00" x1="330.232" y1="155.326" x2="328.933" y2="12.9716"/>
    <path style="fill: #00ff00" d="M 330.232 155.326 C 327.732,155.349 325.209,152.872 325.187,150.372 C 325.164,147.872 327.641,145.35 330.141,145.327 C 332.641,145.304 335.163,147.781 335.186,150.281 C 335.209,152.781 332.732,155.304 330.232,155.326z"/>
    <path style="fill: none; fill-opacity:0; stroke-width: 4; stroke: #00ff00" d="M 330.232 155.326 C 327.732,155.349 325.209,152.872 325.187,150.372 C 325.164,147.872 327.641,145.35 330.141,145.327 C 332.641,145.304 335.163,147.781 335.186,150.281 C 335.209,152.781 332.732,155.304 330.232,155.326"/>
    <polygon style="fill: #00ff00" points="328.865,5.47195 333.956,15.4259 328.933,12.9716 323.956,15.5171 "/>
    <polygon style="fill: none; fill-opacity:0; stroke-width: 4; stroke: #00ff00" points="328.865,5.47195 333.956,15.4259 328.933,12.9716 323.956,15.5171 "/>
  </g>
  <g>
    <line style="fill: none; fill-opacity:0; stroke-width: 4; stroke: #ff0000" x1="333.054" y1="153.607" x2="391.733" y2="54.307"/>
    <polygon style="fill: #ff0000" points="395.549,47.8501 394.766,59.0031 391.733,54.307 386.157,53.9156 "/>
    <polygon style="fill: none; fill-opacity:0; stroke-width: 4; stroke: #ff0000" points="395.549,47.8501 394.766,59.0031 391.733,54.307 386.157,53.9156 "/>
  </g>
  <g>
    <line style="fill: none; fill-opacity:0; stroke-width: 4; stroke: #ff0000" x1="326.824" y1="151" x2="233.621" y2="102.524"/>
    <polygon style="fill: #ff0000" points="226.968,99.0636 238.146,99.242 233.621,102.524 233.532,108.114 "/>
    <polygon style="fill: none; fill-opacity:0; stroke-width: 4; stroke: #ff0000" points="226.968,99.0636 238.146,99.242 233.621,102.524 233.532,108.114 "/>
  </g>
  <g>
    <line style="fill: none; fill-opacity:0; stroke-width: 4; stroke: #00ff00" x1="68.8686" y1="156.298" x2="67.5693" y2="13.9436"/>
    <path style="fill: #00ff00" d="M 68.8686 156.298 C 66.3687,156.321 63.846,153.844 63.8232,151.344 C 63.8004,148.844 66.2774,146.322 68.7773,146.299 C 71.2772,146.276 73.7999,148.753 73.8228,151.253 C 73.8456,153.753 71.3685,156.276 68.8686,156.298z"/>
    <path style="fill: none; fill-opacity:0; stroke-width: 4; stroke: #00ff00" d="M 68.8686 156.298 C 66.3687,156.321 63.846,153.844 63.8232,151.344 C 63.8004,148.844 66.2774,146.322 68.7773,146.299 C 71.2772,146.276 73.7999,148.753 73.8228,151.253 C 73.8456,153.753 71.3685,156.276 68.8686,156.298"/>
    <polygon style="fill: #00ff00" points="67.5008,6.4439 72.5919,16.3978 67.5693,13.9436 62.5923,16.4891 "/>
    <polygon style="fill: none; fill-opacity:0; stroke-width: 4; stroke: #00ff00" points="67.5008,6.4439 72.5919,16.3978 67.5693,13.9436 62.5923,16.4891 "/>
  </g>
  <g>
    <line style="fill: none; fill-opacity:0; stroke-width: 4; stroke: #ff0000" x1="71.6898" y1="151.579" x2="164.284" y2="101.68"/>
    <polygon style="fill: #ff0000" points="170.887,98.1216 164.456,107.267 164.284,101.68 159.712,98.4641 "/>
    <polygon style="fill: none; fill-opacity:0; stroke-width: 4; stroke: #ff0000" points="170.887,98.1216 164.456,107.267 164.284,101.68 159.712,98.4641 "/>
  </g>
  <g>
    <line style="fill: none; fill-opacity:0; stroke-width: 4; stroke: #ff0000" x1="65.46" y1="151.972" x2="5.95939" y2="52.2803"/>
    <polygon style="fill: #ff0000" points="2.11562,45.8402 11.5341,51.8645 5.95939,52.2803 2.94722,56.9895 "/>
    <polygon style="fill: none; fill-opacity:0; stroke-width: 4; stroke: #ff0000" points="2.11562,45.8402 11.5341,51.8645 5.95939,52.2803 2.94722,56.9895 "/>
  </g>
  <text font-size="14.1111" style="fill: #000000;text-anchor:start;font-family:Symbol;font-style:normal;font-weight:normal" x="23" y="-2">
    <tspan x="23" y="-2">Wheel Direction</tspan>
  </text>
  <text font-size="14.1111" style="fill: #000000;text-anchor:start;font-family:Symbol;font-style:normal;font-weight:normal" x="283.7" y="-0.9">
    <tspan x="283.7" y="-0.9">Wheel Direction</tspan>
  </text>
  <text font-size="14.1111" style="fill: #000000;text-anchor:start;font-family:Symbol;font-style:normal;font-weight:normal" x="-21" y="41">
    <tspan x="-21" y="41">Free</tspan>
  </text>
  <text font-size="14.1111" style="fill: #000000;text-anchor:start;font-family:Symbol;font-style:normal;font-weight:normal" x="384.7" y="44.1">
    <tspan x="384.7" y="44.1">Free</tspan>
  </text>
  <text font-size="14.1111" style="fill: #000000;text-anchor:start;font-family:Symbol;font-style:normal;font-weight:normal" x="160" y="88">
    <tspan x="160" y="88">Constrained</tspan>
  </text>
  <g>
    <rect style="fill: #7f7f7f" x="568.7" y="61.1" width="94" height="199"/>
    <rect style="fill: none; fill-opacity:0; stroke-width: 2; stroke: #000000" x="568.7" y="61.1" width="94" height="199"/>
  </g>
  <g>
    <path style="fill: #0000ff" d="M 651.7 40.1 C 686.7,38.1 624.7,94.1 582.7,96.1 C 540.7,98.1 616.7,42.1 651.7,40.1z"/>
    <path style="fill: none; fill-opacity:0; stroke-width: 2; stroke: #000000" d="M 651.7 40.1 C 686.7,38.1 624.7,94.1 582.7,96.1 C 540.7,98.1 616.7,42.1 651.7,40.1"/>
  </g>
  <g>
    <rect style="fill: #7f7f7f" x="828.4" y="60.5" width="94" height="199"/>
    <rect style="fill: none; fill-opacity:0; stroke-width: 2; stroke: #000000" x="828.4" y="60.5" width="94" height="199"/>
  </g>
  <g>
    <path style="fill: #0000ff" d="M 839.4 86.5 C 873.4,86.5 948.4,141.5 912.4,141.5 C 876.4,141.5 805.4,86.5 839.4,86.5z"/>
    <path style="fill: none; fill-opacity:0; stroke-width: 2; stroke: #000000" d="M 839.4 86.5 C 873.4,86.5 948.4,141.5 912.4,141.5 C 876.4,141.5 805.4,86.5 839.4,86.5"/>
  </g>
  <g>
    <path style="fill: #0000ff" d="M 839.576 130.2 C 873.576,130.2 948.576,185.2 912.576,185.2 C 876.576,185.2 805.576,130.2 839.576,130.2z"/>
    <path style="fill: none; fill-opacity:0; stroke-width: 2; stroke: #000000" d="M 839.576 130.2 C 873.576,130.2 948.576,185.2 912.576,185.2 C 876.576,185.2 805.576,130.2 839.576,130.2"/>
  </g>
  <g>
    <path style="fill: #0000ff" d="M 838.776 172.9 C 872.776,172.9 947.776,227.9 911.776,227.9 C 875.776,227.9 804.776,172.9 838.776,172.9z"/>
    <path style="fill: none; fill-opacity:0; stroke-width: 2; stroke: #000000" d="M 838.776 172.9 C 872.776,172.9 947.776,227.9 911.776,227.9 C 875.776,227.9 804.776,172.9 838.776,172.9"/>
  </g>
  <g>
    <path style="fill: #0000ff" d="M 839.976 43.6 C 873.976,43.6 948.976,98.6 912.976,98.6 C 876.976,98.6 805.976,43.6 839.976,43.6z"/>
    <path style="fill: none; fill-opacity:0; stroke-width: 2; stroke: #000000" d="M 839.976 43.6 C 873.976,43.6 948.976,98.6 912.976,98.6 C 876.976,98.6 805.976,43.6 839.976,43.6"/>
  </g>
  <g>
    <path style="fill: #0000ff" d="M 839.176 216.3 C 873.176,216.3 948.176,271.3 912.176,271.3 C 876.176,271.3 805.176,216.3 839.176,216.3z"/>
    <path style="fill: none; fill-opacity:0; stroke-width: 2; stroke: #000000" d="M 839.176 216.3 C 873.176,216.3 948.176,271.3 912.176,271.3 C 876.176,271.3 805.176,216.3 839.176,216.3"/>
  </g>
  <g>
    <path style="fill: #0000ff" d="M 650.622 82.6 C 684.546,79.1 623.622,136.6 581.622,138.6 C 539.622,140.6 616.7,86.1 650.622,82.6z"/>
    <path style="fill: none; fill-opacity:0; stroke-width: 2; stroke: #000000" d="M 650.622 82.6 C 684.546,79.1 623.622,136.6 581.622,138.6 C 539.622,140.6 616.7,86.1 650.622,82.6"/>
  </g>
  <g>
    <path style="fill: #0000ff" d="M 649.322 127.1 C 682.946,126.1 622.322,181.1 580.322,183.1 C 538.322,185.1 615.7,128.1 649.322,127.1z"/>
    <path style="fill: none; fill-opacity:0; stroke-width: 2; stroke: #000000" d="M 649.322 127.1 C 682.946,126.1 622.322,181.1 580.322,183.1 C 538.322,185.1 615.7,128.1 649.322,127.1"/>
  </g>
  <g>
    <path style="fill: #0000ff" d="M 650.022 170.6 C 685.346,167.1 623.022,224.6 581.022,226.6 C 539.022,228.6 614.7,174.1 650.022,170.6z"/>
    <path style="fill: none; fill-opacity:0; stroke-width: 2; stroke: #000000" d="M 650.022 170.6 C 685.346,167.1 623.022,224.6 581.022,226.6 C 539.022,228.6 614.7,174.1 650.022,170.6"/>
  </g>
  <g>
    <path style="fill: #0000ff" d="M 654.722 214.1 C 688.746,212.1 627.722,268.1 585.722,270.1 C 543.722,272.1 620.7,216.1 654.722,214.1z"/>
    <path style="fill: none; fill-opacity:0; stroke-width: 2; stroke: #000000" d="M 654.722 214.1 C 688.746,212.1 627.722,268.1 585.722,270.1 C 543.722,272.1 620.7,216.1 654.722,214.1"/>
  </g>
  <g>
    <line style="fill: none; fill-opacity:0; stroke-width: 4; stroke: #ff0000" x1="872.524" y1="151.1" x2="779.321" y2="102.624"/>
    <polygon style="fill: #ff0000" points="772.668,99.1636 783.846,99.342 779.321,102.624 779.232,108.214 "/>
    <polygon style="fill: none; fill-opacity:0; stroke-width: 4; stroke: #ff0000" points="772.668,99.1636 783.846,99.342 779.321,102.624 779.232,108.214 "/>
  </g>
  <g>
    <line style="fill: none; fill-opacity:0; stroke-width: 4; stroke: #ff0000" x1="617.39" y1="151.679" x2="709.985" y2="101.78"/>
    <polygon style="fill: #ff0000" points="716.587,98.2216 710.156,107.367 709.985,101.78 705.412,98.5641 "/>
    <polygon style="fill: none; fill-opacity:0; stroke-width: 4; stroke: #ff0000" points="716.587,98.2216 710.156,107.367 709.985,101.78 705.412,98.5641 "/>
  </g>
  <g>
    <line style="fill: none; fill-opacity:0; stroke-width: 4; stroke: #00ff00" x1="622" y1="155" x2="706.028" y2="155"/>
    <polygon style="fill: #00ff00" points="713.528,155 703.528,160 706.028,155 703.528,150 "/>
    <polygon style="fill: none; fill-opacity:0; stroke-width: 4; stroke: #00ff00" points="713.528,155 703.528,160 706.028,155 703.528,150 "/>
  </g>
  <g>
    <line style="fill: none; fill-opacity:0; stroke-width: 4; stroke: #00ff00" x1="719" y1="158" x2="719.034" y2="114.759"/>
    <polygon style="fill: #00ff00" points="719.04,107.259 724.032,117.263 719.034,114.759 714.032,117.255 "/>
    <polygon style="fill: none; fill-opacity:0; stroke-width: 4; stroke: #00ff00" points="719.04,107.259 724.032,117.263 719.034,114.759 714.032,117.255 "/>
  </g>
  <g>
    <line style="fill: none; fill-opacity:0; stroke-width: 4; stroke: #00ff00" x1="771.54" y1="158.186" x2="771.574" y2="114.944"/>
    <polygon style="fill: #00ff00" points="771.58,107.444 776.572,117.448 771.574,114.944 766.572,117.44 "/>
    <polygon style="fill: none; fill-opacity:0; stroke-width: 4; stroke: #00ff00" points="771.58,107.444 776.572,117.448 771.574,114.944 766.572,117.44 "/>
  </g>
  <g>
    <line style="fill: none; fill-opacity:0; stroke-width: 4; stroke: #00ff00" x1="784.072" y1="158.972" x2="868.1" y2="158.972"/>
    <polygon style="fill: #00ff00" points="776.572,158.972 786.572,153.972 784.072,158.972 786.572,163.972 "/>
    <polygon style="fill: none; fill-opacity:0; stroke-width: 4; stroke: #00ff00" points="776.572,158.972 786.572,153.972 784.072,158.972 786.572,163.972 "/>
  </g>
  <text font-size="14.1111" style="fill: #000000;text-anchor:middle;font-family:Symbol;font-style:normal;font-weight:normal" x="745" y="135">
    <tspan x="745" y="135">These</tspan>
    <tspan x="745" y="152.639">Sum</tspan>
  </text>
  <g>
    <line style="fill: none; fill-opacity:0; stroke-width: 2; stroke-dasharray: 4; stroke: #000000" x1="703.966" y1="182.694" x2="736" y2="224"/>
    <polygon style="fill: #000000" points="699.37,176.767 709.45,181.605 703.966,182.694 701.547,187.733 "/>
    <polygon style="fill: none; fill-opacity:0; stroke-width: 2; stroke: #000000" points="699.37,176.767 709.45,181.605 703.966,182.694 701.547,187.733 "/>
  </g>
  <g>
    <line style="fill: none; fill-opacity:0; stroke-width: 2; stroke-dasharray: 4; stroke: #000000" x1="782.827" y1="181.529" x2="748" y2="224"/>
    <polygon style="fill: #000000" points="787.582,175.729 785.108,186.632 782.827,181.529 777.375,180.291 "/>
    <polygon style="fill: none; fill-opacity:0; stroke-width: 2; stroke: #000000" points="787.582,175.729 785.108,186.632 782.827,181.529 777.375,180.291 "/>
  </g>
  <text font-size="14.1111" style="fill: #000000;text-anchor:start;font-family:Symbol;font-style:normal;font-weight:normal" x="721" y="239">
    <tspan x="721" y="239">These</tspan>
    <tspan x="721" y="256.639">Cancel</tspan>
  </text>
</svg>
