<?xml version="1.0" encoding="UTF-8" standalone="no"?>
<!DOCTYPE svg PUBLIC "-//W3C//DTD SVG 1.0//EN" "http://www.w3.org/TR/2001/PR-SVG-20010719/DTD/svg10.dtd">
<svg width="6cm" height="8cm" viewBox="142 83 114 157" xmlns="http://www.w3.org/2000/svg" xmlns:xlink="http://www.w3.org/1999/xlink">
  <polyline style="fill: none; fill-opacity:0; stroke-width: 2; stroke: #000000" points="169,102 169,120 162,122 176,126 162,130 176,134 162,138 176,142 169,144 169,162 "/>
  <polyline style="fill: none; fill-opacity:0; stroke-width: 2; stroke: #000000" points="169.24,162.3 169.24,180.3 162.24,182.3 176.24,186.3 162.24,190.3 176.24,194.3 162.24,198.3 176.24,202.3 169.24,204.3 169.24,222.3 "/>
  <g>
    <line style="fill: none; fill-opacity:0; stroke-width: 2; stroke: #000000" x1="222" y1="162" x2="222" y2="177"/>
    <rect style="fill: #ffffff" x="212" y="177" width="20" height="30"/>
    <rect style="fill: none; fill-opacity:0; stroke-width: 2; stroke: #000000" x="212" y="177" width="20" height="30"/>
    <line style="fill: none; fill-opacity:0; stroke-width: 2; stroke: #000000" x1="222" y1="207" x2="222" y2="222"/>
  </g>
  <line style="fill: none; fill-opacity:0; stroke-width: 2; stroke: #000000" x1="169.24" y1="162.3" x2="222" y2="162"/>
  <g>
    <line style="fill: none; fill-opacity:0; stroke-width: 2; stroke: #000000" x1="222" y1="218" x2="222" y2="228"/>
    <line style="fill: none; fill-opacity:0; stroke-width: 2; stroke: #000000" x1="214" y1="228" x2="230" y2="228"/>
    <line style="fill: none; fill-opacity:0; stroke-width: 2; stroke: #000000" x1="216.68" y1="233" x2="227.32" y2="233"/>
    <line style="fill: none; fill-opacity:0; stroke-width: 2; stroke: #000000" x1="219.36" y1="238" x2="224.64" y2="238"/>
  </g>
  <g>
    <line style="fill: none; fill-opacity:0; stroke-width: 2; stroke: #000000" x1="168.6" y1="219.3" x2="168.6" y2="229.3"/>
    <line style="fill: none; fill-opacity:0; stroke-width: 2; stroke: #000000" x1="160.6" y1="229.3" x2="176.6" y2="229.3"/>
    <line style="fill: none; fill-opacity:0; stroke-width: 2; stroke: #000000" x1="163.28" y1="234.3" x2="173.92" y2="234.3"/>
    <line style="fill: none; fill-opacity:0; stroke-width: 2; stroke: #000000" x1="165.96" y1="239.3" x2="171.24" y2="239.3"/>
  </g>
  <g>
    <line style="fill: none; fill-opacity:0; stroke-width: 2; stroke: #000000" x1="168" y1="102" x2="168.579" y2="92.1592"/>
    <polygon style="fill: #000000" points="169,85 173.698,90.285 168.413,94.9827 163.715,89.6978 "/>
    <polygon style="fill: none; fill-opacity:0; stroke-width: 2; stroke: #000000" points="169,85 173.698,90.285 168.413,94.9827 163.715,89.6978 "/>
  </g>
  <text font-size="12.8" style="fill: #000000;text-anchor:start;font-family:sans-serif;font-style:normal;font-weight:normal" x="142" y="131">
    <tspan x="142" y="131">R</tspan>
  </text>
  <text font-size="12.8" style="fill: #000000;text-anchor:start;font-family:sans-serif;font-style:normal;font-weight:normal" x="142" y="191">
    <tspan x="142" y="191">R</tspan>
  </text>
  <text font-size="12.8" style="fill: #000000;text-anchor:start;font-family:sans-serif;font-style:normal;font-weight:normal" x="150" y="138">
    <tspan x="150" y="138">1</tspan>
  </text>
  <text font-size="12.8" style="fill: #000000;text-anchor:start;font-family:sans-serif;font-style:normal;font-weight:normal" x="149" y="197">
    <tspan x="149" y="197">2</tspan>
  </text>
  <text font-size="12.8" style="fill: #000000;text-anchor:start;font-family:sans-serif;font-style:normal;font-weight:normal" x="238" y="195">
    <tspan x="238" y="195">R</tspan>
  </text>
  <text font-size="12.8" style="fill: #000000;text-anchor:start;font-family:sans-serif;font-style:normal;font-weight:normal" x="248" y="201">
    <tspan x="248" y="201">L</tspan>
  </text>
</svg>
