<?xml version='1.0' encoding='UTF-8'?><svg id="qoppa_document" width="328pt" height="293pt" version="1.1" xmlns="http://www.w3.org/2000/svg" xmlns:xlink="http://www.w3.org/1999/xlink"><!-- jPDFWeb v2021R1.00, Build #105 --><g id="qoppa_viewxform_p0" transform="matrix(1 0 0 1 0 0)"><svg id="qoppa_page_p0" class="qoppa_page" y="0pt" width="328pt" height="293pt"><rect class="qoppa_pageborder" x="0.5pt" y="0.5pt" width="327pt" height="292pt" fill="none" /><svg class="qoppa_pagecontents" x="0pt" y="0pt" width="328pt" height="293pt" viewBox="0 0 328 293" style="isolation: isolate;" ><g class="qoppa_contentstream" transform="matrix(1 0 0 -1 0 293)" fill="black" stroke="black" stroke-width="1" stroke-linecap="butt" stroke-linejoin="miter" stroke-miterlimit="10"><clipPath id="clip0-1"><path d="M 0 0 L 328 0 L 328 293 L 0 293 L 0 0 z "/></clipPath><path clip-path="url(#clip0-1)" fill="#fff" stroke="none" d="M 146.348 31.5406 L 229.9687 31.5406 L 229.9687 103.4687 L 146.348 103.4687 z "/><path clip-path="url(#clip0-1)" fill="none" stroke="#000" stroke-width="2.8346" d="M 146.348 31.5406 L 229.9687 31.5406 L 229.9687 103.4687 L 146.348 103.4687 z "/><path clip-path="url(#clip0-1)" fill="none" stroke="#000" stroke-width="2.8346" d="M 6.0352 31.1863 L 326.345 31.1863 "/><path clip-path="url(#clip0-1)" fill="none" stroke="#000" stroke-width="2.8346" d="M 4.618 31.1863 L 146.348 103.469 "/><path clip-path="url(#clip0-1)" fill="none" stroke="#000" stroke-width="2.8346" d="M 1.7832 29.7691 L 268.281 115.516 "/><path clip-path="url(#clip0-1)" fill="none" stroke="#000" stroke-width="8.5038" d="M 100.994 97.7992 L 115.167 70.8707 "/><path clip-path="url(#clip0-1)" fill="none" stroke="#000" stroke-width="8.5038" d="M 263.984 133.232 L 273.905 104.886 "/><path clip-path="url(#clip0-1)" fill="none" stroke="#000" stroke-width="2.8346" d="M 6.0352 141.736 C 7.7121 141.811 9.391 141.85 11.0695 141.85 C 71.7219 141.85 121.188 93.2465 122.254 32.6035 "/><path clip-path="url(#clip0-1)" fill="none" stroke="#000" stroke-width="2.8346" d="M 8.5605 290.907 C 12.8973 291.118 17.2387 291.225 21.5805 291.225 C 166.805 291.225 285.305 174.968 288.078 29.7691 "/><path clip-path="url(#clip0-1)" fill="#000" stroke="none" d="M 122.909 111.49 C 122.909 112.597 122.967 112.638 124.782 112.755 L 124.782 113.323 L 119.271 113.323 L 119.271 112.755 C 120.991 112.638 121.031 112.597 121.031 111.49 L 121.031 101.502 C 121.031 100.431 120.991 100.395 119.271 100.281 L 119.271 99.7129 L 129.355 99.7129 L 129.589 103.2 L 129.003 103.2 C 128.61 100.648 127.536 100.395 125.486 100.395 C 124.511 100.395 123.807 100.395 123.396 100.552 C 122.986 100.732 122.909 101.066 122.909 102.034 L 122.909 111.49 z "/><path clip-path="url(#clip0-1)" fill="#000" stroke="none" d="M 71.666 13.5031 C 71.666 14.2465 71.6113 14.9172 71.5012 15.5164 C 71.3938 16.1176 71.2188 16.6539 70.977 17.1258 C 70.7348 17.5855 70.4672 17.9852 70.1738 18.325 C 69.8828 18.6645 69.5812 18.9434 69.2684 19.1609 C 68.9555 19.3785 68.6426 19.5398 68.3297 19.6449 C 68.0191 19.75 67.7293 19.8023 67.4605 19.8023 C 67.116 19.8023 66.775 19.7379 66.4375 19.6082 C 66.1004 19.4785 65.7789 19.2953 65.473 19.0582 C 65.1676 18.8234 64.884 18.5473 64.6227 18.2297 C 64.3609 17.9141 64.1348 17.5645 63.9441 17.1809 C 63.7023 16.7117 63.5203 16.191 63.398 15.6188 C 63.2781 15.0492 63.2184 14.3441 63.2184 13.5031 C 63.2184 12.4984 63.2879 11.627 63.4273 10.8891 C 63.5691 10.1531 63.773 9.525 64.0395 9.0043 C 64.4234 8.2613 64.9234 7.6844 65.5391 7.2734 C 66.1578 6.8652 66.798 6.6613 67.4605 6.6613 C 67.8297 6.6613 68.1828 6.7262 68.5203 6.8555 C 68.8602 6.9852 69.1789 7.1586 69.4773 7.3762 C 69.7777 7.5938 70.0457 7.8445 70.2801 8.1281 C 70.5172 8.4141 70.7117 8.7121 70.8633 9.0227 C 71.1051 9.4918 71.2996 10.102 71.4461 10.8523 C 71.593 11.6027 71.666 12.4863 71.666 13.5031 M 69.7887 13.4664 L 65.0957 13.4664 L 65.2129 15.3438 C 65.225 15.5004 65.2508 15.6887 65.2898 15.9086 C 65.3289 16.1309 65.3766 16.3559 65.4328 16.5832 C 65.4914 16.8129 65.5602 17.0379 65.6383 17.2578 C 65.7164 17.4805 65.8008 17.6832 65.8914 17.8664 C 66.0723 18.2184 66.3203 18.5117 66.6355 18.7465 C 66.9535 18.9812 67.216 19.0984 67.4238 19.0984 C 67.6953 19.0984 67.9859 18.9715 68.2965 18.7172 C 68.607 18.4629 68.8586 18.1402 69.052 17.7492 C 69.1301 17.6051 69.2012 17.4289 69.2645 17.2211 C 69.3305 17.0133 69.3918 16.7984 69.448 16.5758 C 69.5066 16.3535 69.5555 16.1309 69.5945 15.9086 C 69.6336 15.6887 69.6594 15.4941 69.6715 15.3254 L 69.7887 13.4664 M 69.7594 12.7625 L 69.6422 10.8414 C 69.6152 10.4379 69.5371 10.0285 69.4074 9.6129 C 69.2781 9.2 69.1152 8.8281 68.9199 8.4984 C 68.727 8.1707 68.4996 7.8992 68.2379 7.6844 C 67.9789 7.4715 67.7137 7.3652 67.4422 7.3652 C 67.1684 7.3652 66.902 7.4629 66.643 7.6586 C 66.3836 7.8543 66.1527 8.1133 65.95 8.4359 C 65.7496 8.7586 65.5809 9.1301 65.4438 9.5508 C 65.307 9.9711 65.2262 10.4074 65.202 10.8598 L 65.0848 12.7625 L 69.7594 12.7625 z "/><path clip-path="url(#clip0-1)" fill="#000" stroke="none" d="M 80.3648 6.6613 L 80.3648 7.0133 C 80.2082 7.0133 80.0262 7.0293 79.8184 7.0609 C 79.6105 7.0926 79.4125 7.1574 79.2246 7.2555 C 79.0363 7.3531 78.8773 7.4961 78.7477 7.6844 C 78.6184 7.875 78.5535 8.1266 78.5535 8.4395 L 78.5535 19.8023 L 78.2016 19.8023 L 75.0445 18.0645 L 75.0445 17.7125 C 75.382 17.8422 75.6727 17.952 75.9172 18.0426 C 76.1641 18.1355 76.3535 18.182 76.4855 18.182 C 76.6273 18.182 76.7336 18.1426 76.8047 18.0645 C 76.8754 17.9863 76.9109 17.8496 76.9109 17.6539 L 76.9109 8.4176 C 76.9109 8.1195 76.8461 7.875 76.7164 7.6844 C 76.5871 7.4961 76.4305 7.3531 76.2473 7.2555 C 76.0664 7.1574 75.8684 7.0926 75.6531 7.0609 C 75.4406 7.0293 75.2559 7.0133 75.0996 7.0133 L 75.0996 6.6613 L 80.3648 6.6613 z "/><path clip-path="url(#clip0-1)" fill="#000" stroke="none" d="M 101.004 12.7238 C 101.004 13.4668 100.949 14.1379 100.839 14.7367 C 100.732 15.3379 100.557 15.8746 100.315 16.3465 C 100.073 16.8059 99.8055 17.2055 99.5121 17.5453 C 99.2211 17.8852 98.9191 18.1637 98.6062 18.3812 C 98.2934 18.5988 97.9805 18.7602 97.6676 18.8652 C 97.357 18.9703 97.0676 19.023 96.7988 19.023 C 96.4539 19.023 96.1129 18.9582 95.7758 18.8285 C 95.4383 18.6992 95.1168 18.5156 94.8113 18.2785 C 94.5059 18.0441 94.2223 17.768 93.9605 17.45 C 93.6992 17.1348 93.473 16.7852 93.2824 16.4012 C 93.0402 15.932 92.8582 15.4113 92.7359 14.8395 C 92.6164 14.2699 92.5562 13.5645 92.5562 12.7238 C 92.5562 11.7191 92.6262 10.8477 92.7652 10.1094 C 92.907 9.3738 93.1113 8.7453 93.3777 8.2246 C 93.7613 7.4816 94.2613 6.9047 94.8773 6.4941 C 95.4957 6.0859 96.1363 5.8816 96.7988 5.8816 C 97.1676 5.8816 97.5211 5.9465 97.8582 6.0762 C 98.198 6.2059 98.5172 6.3793 98.8152 6.5969 C 99.116 6.8145 99.3836 7.0648 99.6184 7.3484 C 99.8555 7.6344 100.05 7.9328 100.201 8.243 C 100.443 8.7125 100.638 9.3223 100.784 10.0727 C 100.931 10.823 101.004 11.707 101.004 12.7238 M 99.127 12.6871 L 94.4336 12.6871 L 94.5512 14.5645 C 94.5633 14.7207 94.5891 14.909 94.6281 15.1289 C 94.6672 15.3516 94.7148 15.5762 94.7711 15.8035 C 94.8297 16.0336 94.898 16.2582 94.9762 16.4785 C 95.0547 16.7008 95.1391 16.9035 95.2293 17.0871 C 95.4102 17.4391 95.6582 17.7324 95.9738 17.9672 C 96.2914 18.2016 96.5543 18.3191 96.7621 18.3191 C 97.0332 18.3191 97.3242 18.1918 97.6348 17.9375 C 97.9449 17.6836 98.1969 17.3609 98.3898 16.9695 C 98.4684 16.8254 98.5391 16.6496 98.6027 16.4418 C 98.6688 16.234 98.7297 16.0188 98.7859 15.7965 C 98.8445 15.5738 98.8934 15.3516 98.9328 15.1289 C 98.9719 14.909 98.9973 14.7148 99.0098 14.5461 L 99.127 12.6871 M 99.0977 11.9832 L 98.9805 10.0617 C 98.9535 9.6586 98.875 9.2488 98.7457 8.8336 C 98.616 8.4203 98.4535 8.0488 98.2578 7.7188 C 98.0648 7.3914 97.8375 7.1199 97.5762 6.9047 C 97.3168 6.6922 97.0516 6.5859 96.7805 6.5859 C 96.5066 6.5859 96.2402 6.6836 95.9809 6.8793 C 95.7219 7.0746 95.491 7.3336 95.2879 7.6562 C 95.0875 7.9789 94.9188 8.3508 94.782 8.7711 C 94.6453 9.1914 94.5645 9.6277 94.5398 10.0801 L 94.4227 11.9832 L 99.0977 11.9832 z "/><path clip-path="url(#clip0-1)" fill="#000" stroke="none" d="M 111.269 8.7492 L 110.862 8.7492 C 110.744 8.5949 110.639 8.4434 110.546 8.2945 C 110.456 8.1453 110.348 8.0121 110.223 7.8949 C 110.099 7.7773 109.938 7.6859 109.739 7.6199 C 109.544 7.5563 109.286 7.5246 108.966 7.5246 L 104.526 7.5246 L 107.602 10.6559 C 107.939 11.0078 108.269 11.3828 108.592 11.7812 C 108.914 12.1824 109.196 12.5895 109.435 13.0023 C 109.675 13.4156 109.868 13.8273 110.014 14.2379 C 110.164 14.6512 110.238 15.0398 110.238 15.4039 C 110.238 15.5898 110.226 15.7953 110.202 16.0199 C 110.177 16.2473 110.134 16.4797 110.073 16.7168 C 110.012 16.9539 109.925 17.1785 109.813 17.3914 C 109.703 17.6039 109.567 17.7984 109.406 17.9742 C 109.012 18.3727 108.591 18.6465 108.141 18.7957 C 107.691 18.9473 107.271 19.023 106.88 19.023 C 106.349 19.023 105.847 18.9266 105.373 18.7332 C 104.898 18.5426 104.428 18.2016 103.961 17.7102 C 103.66 17.4 103.393 17.0074 103.158 16.5332 C 102.926 16.059 102.784 15.5164 102.733 14.9055 L 103.143 14.9055 C 103.375 15.7363 103.729 16.3562 104.203 16.7645 C 104.677 17.175 105.245 17.3805 105.908 17.3805 C 106.803 17.3805 107.473 17.1141 107.921 16.5809 C 108.371 16.0504 108.596 15.3551 108.596 14.4945 C 108.596 14.1672 108.531 13.8004 108.401 13.3945 C 108.272 12.9914 108.096 12.5809 107.873 12.1629 C 107.653 11.7449 107.394 11.3328 107.096 10.927 C 106.798 10.5238 106.48 10.1449 106.143 9.7902 L 102.634 6.168 L 102.597 5.8816 L 110.128 5.8816 L 111.269 8.7492 z "/><path clip-path="url(#clip0-1)" fill="none" stroke="#000" stroke-width="2.8346" d="M 69.2215 43.8078 C 71.4965 41.1758 72.7488 37.8121 72.7488 34.3324 C 72.7488 31.8676 72.1199 29.4426 70.9219 27.2887 "/><path clip-path="url(#clip0-1)" fill-rule="evenodd" fill="#000" stroke="none" d="M 66.6344 46.5738 L 72.9531 47.0738 L 70.5758 44.9781 L 70.8254 41.8191 z "/><path clip-path="url(#clip0-1)" fill="none" stroke="#000" stroke-width="2.8346" d="M 66.6344 46.5738 L 72.9531 47.0738 L 70.5758 44.9781 L 70.8254 41.8191 z "/><path clip-path="url(#clip0-1)" fill="none" stroke="#000" stroke-width="2.8346" d="M 88.6684 68.2828 C 95.7664 54.9371 99.8234 40.1852 100.547 25.0863 "/><path clip-path="url(#clip0-1)" fill-rule="evenodd" fill="#000" stroke="none" d="M 86.643 72.009 L 92.0598 68.7176 L 88.9055 68.409 L 87.2598 65.7004 z "/><path clip-path="url(#clip0-1)" fill="none" stroke="#000" stroke-width="2.8346" d="M 86.643 72.009 L 92.0598 68.7176 L 88.9055 68.409 L 87.2598 65.7004 z "/><path clip-path="url(#clip0-1)" fill="#000" stroke="none" d="M 51.5707 79.8055 L 48.5641 79.2773 L 48.5641 78.7531 L 49.3047 78.6578 C 49.8145 78.577 49.9316 78.4816 49.9316 77.7812 L 49.9316 71.5664 C 49.9316 70.5582 49.8328 70.5176 48.4652 70.5176 L 48.4652 69.9496 L 53.6645 69.9496 L 53.6645 70.5176 C 51.9262 70.5176 51.809 70.5582 51.809 71.5664 L 51.809 76.1902 C 51.809 77.6641 52.4727 78.1629 52.9238 78.1629 C 53.2352 78.1629 53.5691 78.0602 54.1336 77.7812 C 54.273 77.7117 54.427 77.6934 54.5262 77.6934 C 54.9953 77.6934 55.4242 78.1773 55.4242 78.775 C 55.4242 79.2371 55.1492 79.8055 54.3867 79.8055 C 53.6828 79.8055 53.0996 79.3434 51.809 78.1297 L 51.5707 79.8055 z "/><path clip-path="url(#clip0-1)" fill="#000" stroke="none" d="M 64.2277 69.9496 L 64.2277 70.5215 L 62.5887 70.6609 C 62.1781 70.6973 61.9434 70.8551 61.9434 71.6215 L 61.9434 83.2078 L 61.8445 83.3254 L 57.7816 82.6359 L 57.7816 82.1445 L 59.5969 81.9285 C 59.9305 81.8879 60.066 81.7305 60.066 81.1621 L 60.066 71.6215 C 60.066 71.2473 60.0074 71.0129 59.8902 70.8734 C 59.791 70.7379 59.6371 70.6789 59.4207 70.6609 L 57.7816 70.5215 L 57.7816 69.9496 L 64.2277 69.9496 z "/><path clip-path="url(#clip0-1)" fill="#000" stroke="none" d="M 169.207 78.3879 L 166.2 77.8602 L 166.2 77.3355 L 166.941 77.2402 C 167.451 77.1598 167.568 77.0645 167.568 76.3641 L 167.568 70.1492 C 167.568 69.1406 167.469 69.1004 166.101 69.1004 L 166.101 68.532 L 171.3 68.532 L 171.3 69.1004 C 169.562 69.1004 169.445 69.1406 169.445 70.1492 L 169.445 74.7727 C 169.445 76.2469 170.109 76.7453 170.56 76.7453 C 170.871 76.7453 171.205 76.6426 171.77 76.3641 C 171.909 76.2945 172.063 76.2762 172.162 76.2762 C 172.632 76.2762 173.061 76.7602 173.061 77.3578 C 173.061 77.8195 172.786 78.3879 172.023 78.3879 C 171.319 78.3879 170.736 77.9262 169.445 76.7125 L 169.207 78.3879 z "/><path clip-path="url(#clip0-1)" fill="#000" stroke="none" d="M 182.689 71.0949 L 182.143 71.1906 C 181.721 70.1527 181.318 70.0172 180.511 70.0172 L 175.498 70.0172 C 175.814 71.018 176.976 72.3859 178.81 73.6727 C 180.702 75.0219 182.161 75.8875 182.161 78.0434 C 182.161 80.8996 180.335 81.8859 178.252 81.8859 C 175.576 81.8859 174.189 80.1883 174.189 79.125 C 174.189 78.4172 174.93 78.0836 175.264 78.0836 C 175.616 78.0836 175.752 78.2926 175.832 78.6445 C 176.144 80.0602 176.907 81.2039 178.116 81.2039 C 179.62 81.2039 180.049 79.8512 180.049 78.3332 C 180.049 76.2652 178.993 75.1062 177.295 73.6176 C 174.89 71.5496 174.05 70.2336 173.68 68.7266 L 173.874 68.532 L 182.021 68.532 L 182.689 71.0949 z "/><path clip-path="url(#clip0-1)" fill="#000" stroke="none" d="M 181.471 120.53 L 181.471 119.962 C 182.293 119.962 182.553 119.904 182.791 119.152 C 183.635 116.549 184.515 113.887 185.354 110.909 L 186.843 110.909 L 189.138 118.419 L 189.197 118.419 C 190.015 115.914 190.814 113.414 191.591 110.909 L 193.069 110.909 C 193.868 113.813 194.994 117.333 195.471 118.877 C 195.797 119.882 196.006 119.962 196.959 119.962 L 196.959 120.53 L 193.205 120.53 L 193.205 119.962 L 194.319 119.863 C 194.649 119.823 194.671 119.57 194.591 119.214 C 194.338 118.056 193.439 114.87 192.834 112.647 L 192.798 112.647 C 191.962 115.203 191.162 117.74 190.363 120.296 L 188.886 120.296 L 186.63 112.647 L 186.59 112.647 C 185.879 114.91 185.266 117.19 184.632 119.313 C 184.515 119.688 184.636 119.863 184.995 119.904 L 185.695 119.962 L 185.695 120.53 L 181.471 120.53 z "/><path clip-path="url(#clip0-1)" fill="#000" stroke="none" d="M 245.234 62.7211 L 245.234 63.2895 C 243.845 63.2895 243.768 63.3297 243.768 64.3344 L 243.768 77.1531 L 243.628 77.2703 L 240.581 76.7789 L 240.581 76.2879 L 241.293 76.2109 C 241.777 76.1484 241.89 76.0531 241.89 75.3051 L 241.89 72.0859 C 241.362 72.3793 240.669 72.5551 239.804 72.5551 C 238.205 72.5551 237.014 72.0527 236.196 71.2203 C 235.356 70.3477 234.85 69.0719 234.85 67.3887 C 234.85 64.452 236.361 62.4867 238.953 62.4867 C 239.976 62.4867 240.867 62.9961 241.89 63.9312 L 241.89 62.857 L 242.029 62.7211 L 245.234 62.7211 M 241.89 66.1348 C 241.89 65.7094 241.89 65.3797 241.777 65.0531 C 241.399 64.0449 240.563 63.6598 239.577 63.6598 C 237.835 63.6598 236.962 65.398 236.962 67.6199 C 236.962 70.1316 237.853 71.873 239.786 71.873 C 240.677 71.873 241.399 71.4477 241.74 70.6559 C 241.89 70.3293 241.89 70.0582 241.89 69.534 L 241.89 66.1348 z "/><path clip-path="url(#clip0-1)" fill="#000" stroke="none" d="M 249.048 62.4867 L 253.151 76.5664 L 251.842 76.5664 L 247.739 62.4867 L 249.048 62.4867 z "/><path clip-path="url(#clip0-1)" fill="#000" stroke="none" d="M 264.525 65.2844 L 263.979 65.3797 C 263.557 64.3418 263.154 64.2062 262.347 64.2062 L 257.335 64.2062 C 257.65 65.207 258.813 66.575 260.646 67.8617 C 262.538 69.2113 263.997 70.0766 263.997 72.2324 C 263.997 75.0887 262.171 76.075 260.089 76.075 C 257.412 76.075 256.026 74.3773 256.026 73.3141 C 256.026 72.6066 256.767 72.2727 257.1 72.2727 C 257.452 72.2727 257.588 72.4816 257.669 72.8336 C 257.98 74.2492 258.743 75.393 259.953 75.393 C 261.457 75.393 261.886 74.0402 261.886 72.5223 C 261.886 70.4543 260.829 69.2953 259.132 67.807 C 256.727 65.7387 255.887 64.4227 255.516 62.9156 L 255.711 62.7211 L 263.858 62.7211 L 264.525 65.2844 z "/><path clip-path="url(#clip0-1)" fill="#000" stroke="none" d="M 242.696 123.75 C 242.696 124.857 242.755 124.897 244.57 125.014 L 244.57 125.583 L 239.059 125.583 L 239.059 125.014 C 240.779 124.897 240.819 124.857 240.819 123.75 L 240.819 113.762 C 240.819 112.691 240.779 112.654 239.059 112.541 L 239.059 111.972 L 249.142 111.972 L 249.377 115.459 L 248.79 115.459 C 248.398 112.907 247.324 112.654 245.274 112.654 C 244.299 112.654 243.595 112.654 243.184 112.812 C 242.773 112.992 242.696 113.325 242.696 114.293 L 242.696 123.75 z "/></g></svg></svg></g></svg>