<?xml version='1.0' encoding='UTF-8'?><svg id="qoppa_document" width="182pt" height="174pt" version="1.1" xmlns="http://www.w3.org/2000/svg" xmlns:xlink="http://www.w3.org/1999/xlink"><!-- jPDFWeb v2021R1.00, Build #105 --><g id="qoppa_viewxform_p0" transform="matrix(1 0 0 1 0 0)"><svg id="qoppa_page_p0" class="qoppa_page" y="0pt" width="182pt" height="174pt"><rect class="qoppa_pageborder" x="0.5pt" y="0.5pt" width="181pt" height="173pt" fill="none" /><svg class="qoppa_pagecontents" x="0pt" y="0pt" width="182pt" height="174pt" viewBox="0 0 182 174" style="isolation: isolate;" ><g class="qoppa_contentstream" transform="matrix(1 0 0 -1 0 174)" fill="black" stroke="black" stroke-width="1" stroke-linecap="butt" stroke-linejoin="miter" stroke-miterlimit="10"><clipPath id="clip0-1"><path d="M 0 0 L 182 0 L 182 174 L 0 174 L 0 0 z "/></clipPath><path clip-path="url(#clip0-1)" fill="none" stroke="#000" stroke-width="2.8346" d="M 1.4285 27.1414 L 180.008 28.5586 "/><path clip-path="url(#clip0-1)" fill="none" stroke="#000" stroke-width="2.8346" d="M 4.2633 28.5586 L 120.482 116.431 "/><path clip-path="url(#clip0-1)" fill="none" stroke="#000" stroke-width="2.8346" d="M 120.482 113.596 L 120.482 25.7238 "/><path clip-path="url(#clip0-1)" fill="none" stroke="#000" stroke-width="2.8346" d="M 5.6805 171.706 C 5.8105 171.706 5.9418 171.706 6.0719 171.706 C 84.9141 171.706 148.828 107.792 148.828 28.95 C 148.828 28.8199 148.828 28.6887 148.828 28.5586 "/><path clip-path="url(#clip0-1)" fill="#000" stroke="none" d="M 46.2812 76.6816 L 43.2746 76.1535 L 43.2746 75.6293 L 44.0152 75.534 C 44.525 75.4531 44.6422 75.3578 44.6422 74.6578 L 44.6422 68.4426 C 44.6422 67.4344 44.5434 67.3941 43.1754 67.3941 L 43.1754 66.8258 L 48.375 66.8258 L 48.375 67.3941 C 46.6367 67.3941 46.5195 67.4344 46.5195 68.4426 L 46.5195 73.0664 C 46.5195 74.5402 47.1832 75.0391 47.634 75.0391 C 47.9457 75.0391 48.2793 74.9363 48.8441 74.6578 C 48.9836 74.5879 49.1375 74.5695 49.2363 74.5695 C 49.7059 74.5695 50.1348 75.0535 50.1348 75.6512 C 50.1348 76.1133 49.8598 76.6816 49.0973 76.6816 C 48.393 76.6816 47.8102 76.2195 46.5195 75.0059 L 46.2812 76.6816 z "/><path clip-path="url(#clip0-1)" fill="#000" stroke="none" d="M 96.3719 51.2355 L 96.3719 51.8039 C 94.982 51.8039 94.9051 51.8441 94.9051 52.8488 L 94.9051 65.6672 L 94.7656 65.7848 L 91.7188 65.2934 L 91.7188 64.802 L 92.4301 64.725 C 92.9141 64.6625 93.0277 64.5672 93.0277 63.8191 L 93.0277 60.6 C 92.4996 60.8934 91.8066 61.0691 90.9414 61.0691 C 89.343 61.0691 88.1512 60.5668 87.3336 59.7348 C 86.4938 58.8621 85.9879 57.5859 85.9879 55.9031 C 85.9879 52.966 87.4984 51.0008 90.091 51.0008 C 91.1137 51.0008 92.0047 51.5105 93.0277 52.4453 L 93.0277 51.3711 L 93.1672 51.2355 L 96.3719 51.2355 M 93.0277 54.6492 C 93.0277 54.2238 93.0277 53.8938 92.9141 53.5672 C 92.5363 52.559 91.7004 52.1742 90.7141 52.1742 C 88.9727 52.1742 88.1 53.9121 88.1 56.134 C 88.1 58.6457 88.991 60.3871 90.923 60.3871 C 91.8141 60.3871 92.5363 59.9621 92.8773 59.1699 C 93.0277 58.8438 93.0277 58.5723 93.0277 58.048 L 93.0277 54.6492 z "/><path clip-path="url(#clip0-1)" fill="#000" stroke="none" d="M 100.186 51.0008 L 104.289 65.0805 L 102.98 65.0805 L 98.8766 51.0008 L 100.186 51.0008 z "/><path clip-path="url(#clip0-1)" fill="#000" stroke="none" d="M 115.663 53.7984 L 115.117 53.8938 C 114.695 52.8559 114.292 52.7203 113.485 52.7203 L 108.473 52.7203 C 108.788 53.7215 109.95 55.0891 111.784 56.3762 C 113.676 57.7254 115.135 58.5906 115.135 60.7465 C 115.135 63.6031 113.309 64.5895 111.227 64.5895 C 108.55 64.5895 107.164 62.8918 107.164 61.8281 C 107.164 61.1207 107.905 60.7871 108.238 60.7871 C 108.59 60.7871 108.726 60.9961 108.807 61.348 C 109.118 62.7633 109.881 63.9074 111.091 63.9074 C 112.594 63.9074 113.023 62.5543 113.023 61.0363 C 113.023 58.9684 111.967 57.8098 110.27 56.3211 C 107.864 54.2531 107.025 52.9367 106.654 51.4297 L 106.848 51.2355 L 114.996 51.2355 L 115.663 53.7984 z "/><path clip-path="url(#clip0-1)" fill="#000" stroke="none" d="M 47.6648 12.7238 C 47.6648 13.4668 47.6098 14.1379 47.5 14.7367 C 47.3922 15.3379 47.2176 15.8746 46.9754 16.3465 C 46.7336 16.8059 46.466 17.2055 46.1727 17.5453 C 45.8816 17.8852 45.5797 18.1637 45.2668 18.3812 C 44.9539 18.5988 44.641 18.7602 44.3281 18.8652 C 44.018 18.9703 43.7281 19.023 43.4594 19.023 C 43.1145 19.023 42.7734 18.9582 42.4363 18.8285 C 42.0988 18.6992 41.7773 18.5156 41.4719 18.2785 C 41.1664 18.0441 40.8828 17.768 40.6211 17.45 C 40.3598 17.1348 40.1336 16.7852 39.943 16.4012 C 39.7008 15.932 39.5188 15.4113 39.3965 14.8395 C 39.277 14.2699 39.2168 13.5645 39.2168 12.7238 C 39.2168 11.7191 39.2867 10.8477 39.4258 10.1094 C 39.5676 9.3738 39.7719 8.7453 40.0383 8.2246 C 40.4219 7.4816 40.9219 6.9047 41.5379 6.4941 C 42.1562 6.0859 42.7969 5.8816 43.4594 5.8816 C 43.8285 5.8816 44.1816 5.9465 44.5188 6.0762 C 44.8586 6.2059 45.1777 6.3793 45.4758 6.5969 C 45.7766 6.8145 46.0441 7.0648 46.2789 7.3484 C 46.516 7.6344 46.7102 7.9328 46.8617 8.243 C 47.1039 8.7125 47.298 9.3223 47.4449 10.0727 C 47.5914 10.823 47.6648 11.707 47.6648 12.7238 M 45.7875 12.6871 L 41.0941 12.6871 L 41.2117 14.5645 C 41.2238 14.7207 41.2496 14.909 41.2887 15.1289 C 41.3277 15.3516 41.3754 15.5762 41.4316 15.8035 C 41.4902 16.0336 41.5586 16.2582 41.6371 16.4785 C 41.7152 16.7008 41.7996 16.9035 41.8898 17.0871 C 42.0707 17.4391 42.3188 17.7324 42.6344 17.9672 C 42.952 18.2016 43.2148 18.3191 43.4227 18.3191 C 43.6938 18.3191 43.9848 18.1918 44.2953 17.9375 C 44.6059 17.6836 44.8574 17.3609 45.0504 16.9695 C 45.1289 16.8254 45.1996 16.6496 45.2633 16.4418 C 45.3293 16.234 45.3902 16.0188 45.4465 15.7965 C 45.5051 15.5738 45.5543 15.3516 45.5934 15.1289 C 45.6324 14.909 45.6578 14.7148 45.6703 14.5461 L 45.7875 12.6871 M 45.7582 11.9832 L 45.641 10.0617 C 45.6141 9.6586 45.5359 9.2488 45.4062 8.8336 C 45.2766 8.4203 45.1141 8.0488 44.9188 7.7188 C 44.7254 7.3914 44.498 7.1199 44.2367 6.9047 C 43.9773 6.6922 43.7121 6.5859 43.441 6.5859 C 43.1672 6.5859 42.9008 6.6836 42.6414 6.8793 C 42.3824 7.0746 42.1516 7.3336 41.9484 7.6562 C 41.748 7.9789 41.5793 8.3508 41.4426 8.7711 C 41.3059 9.1914 41.225 9.6277 41.2008 10.0801 L 41.0832 11.9832 L 45.7582 11.9832 z "/><path clip-path="url(#clip0-1)" fill="none" stroke="#000" stroke-width="2.8346" d="M 39.3984 47.5637 C 41.7207 44.7168 42.9891 41.1551 42.9891 37.4812 C 42.9891 34.8637 42.3445 32.2855 41.1129 29.9758 "/><path clip-path="url(#clip0-1)" fill-rule="evenodd" fill="#000" stroke="none" d="M 36.8441 50.4551 L 43.182 50.5344 L 40.6707 48.6012 L 40.7105 45.4324 z "/><path clip-path="url(#clip0-1)" fill="none" stroke="#000" stroke-width="2.8346" d="M 36.8441 50.4551 L 43.182 50.5344 L 40.6707 48.6012 L 40.7105 45.4324 z "/></g></svg></svg></g></svg>