<?xml version="1.0" encoding="UTF-8" standalone="no"?>
<!-- Created with Inkscape (http://www.inkscape.org/) -->

<svg
   xmlns:dc="http://purl.org/dc/elements/1.1/"
   xmlns:cc="http://creativecommons.org/ns#"
   xmlns:rdf="http://www.w3.org/1999/02/22-rdf-syntax-ns#"
   xmlns:svg="http://www.w3.org/2000/svg"
   xmlns="http://www.w3.org/2000/svg"
   xmlns:sodipodi="http://sodipodi.sourceforge.net/DTD/sodipodi-0.dtd"
   xmlns:inkscape="http://www.inkscape.org/namespaces/inkscape"
   id="svg2"
   version="1.1"
   inkscape:version="0.91 r13725"
   xml:space="preserve"
   width="865"
   height="368.75"
   viewBox="0 0 865 368.75"
   sodipodi:docname="single_axle.svg"><metadata
     id="metadata8"><rdf:RDF><cc:Work
         rdf:about=""><dc:format>image/svg+xml</dc:format><dc:type
           rdf:resource="http://purl.org/dc/dcmitype/StillImage" /><dc:title></dc:title></cc:Work></rdf:RDF></metadata><defs
     id="defs6" /><sodipodi:namedview
     pagecolor="#ffffff"
     bordercolor="#666666"
     borderopacity="1"
     objecttolerance="10"
     gridtolerance="10"
     guidetolerance="10"
     inkscape:pageopacity="0"
     inkscape:pageshadow="2"
     inkscape:window-width="640"
     inkscape:window-height="480"
     id="namedview4"
     showgrid="false"
     inkscape:zoom="0.38959538"
     inkscape:cx="432.5"
     inkscape:cy="184.375"
     inkscape:window-x="57"
     inkscape:window-y="35"
     inkscape:window-maximized="0"
     inkscape:current-layer="g10" /><g
     id="g10"
     inkscape:groupmode="layer"
     inkscape:label="single_axle"
     transform="matrix(1.25,0,0,-1.25,0,368.75)"><g
       id="g12"
       transform="scale(0.1,0.1)"><path
         d="m 539.863,2448.74 1686.587,0"
         style="fill:none;stroke:#000000;stroke-width:28.34600067;stroke-linecap:butt;stroke-linejoin:miter;stroke-miterlimit:10;stroke-dasharray:none;stroke-opacity:1"
         id="path14"
         inkscape:connector-curvature="0" /><path
         d="m 2240.62,2165.28 212.594,0 0,552.75 -212.594,0 0,-552.75 z"
         style="fill:#a52a2a;fill-opacity:1;fill-rule:nonzero;stroke:none"
         id="path16"
         inkscape:connector-curvature="0" /><path
         d="m 2240.62,2165.28 212.594,0 0,552.75 -212.594,0 0,-552.75 z"
         style="fill:none;stroke:#000000;stroke-width:28.34600067;stroke-linecap:butt;stroke-linejoin:miter;stroke-miterlimit:10;stroke-dasharray:none;stroke-opacity:1"
         id="path18"
         inkscape:connector-curvature="0" /><path
         d="m 342.859,2200.71 212.594,0 0,552.746 -212.594,0 0,-552.746 z"
         style="fill:#a52a2a;fill-opacity:1;fill-rule:nonzero;stroke:none"
         id="path20"
         inkscape:connector-curvature="0" /><path
         d="m 342.859,2200.71 212.594,0 0,552.746 -212.594,0 0,-552.746 z"
         style="fill:none;stroke:#000000;stroke-width:28.34600067;stroke-linecap:butt;stroke-linejoin:miter;stroke-miterlimit:10;stroke-dasharray:none;stroke-opacity:1"
         id="path22"
         inkscape:connector-curvature="0" /><path
         d="m 1454.02,2462.91 c 0,-58.7 -41.24,-106.29 -92.12,-106.29 -50.88,0 -92.13,47.59 -92.13,106.29 0,58.71 41.25,106.3 92.13,106.3 50.88,0 92.12,-47.59 92.12,-106.3"
         style="fill:#0000ff;fill-opacity:1;fill-rule:nonzero;stroke:none"
         id="path24"
         inkscape:connector-curvature="0" /><path
         d="m 1454.02,2462.91 c 0,-58.7 -41.24,-106.29 -92.12,-106.29 -50.88,0 -92.13,47.59 -92.13,106.29 0,58.71 41.25,106.3 92.13,106.3 50.88,0 92.12,-47.59 92.12,-106.3 z"
         style="fill:none;stroke:#0000ff;stroke-width:28.34600067;stroke-linecap:butt;stroke-linejoin:miter;stroke-miterlimit:10;stroke-dasharray:none;stroke-opacity:1"
         id="path26"
         inkscape:connector-curvature="0" /><path
         d="M 555.453,691.289 2240.62,670.031"
         style="fill:none;stroke:#000000;stroke-width:28.34600067;stroke-linecap:butt;stroke-linejoin:miter;stroke-miterlimit:10;stroke-dasharray:none;stroke-opacity:1"
         id="path28"
         inkscape:connector-curvature="0" /><path
         d="m 2240.62,393.656 212.594,0 0,552.75 -212.594,0 0,-552.75 z"
         style="fill:#a52a2a;fill-opacity:1;fill-rule:nonzero;stroke:none"
         id="path30"
         inkscape:connector-curvature="0" /><path
         d="m 2240.62,393.656 212.594,0 0,552.75 -212.594,0 0,-552.75 z"
         style="fill:none;stroke:#000000;stroke-width:28.34600067;stroke-linecap:butt;stroke-linejoin:miter;stroke-miterlimit:10;stroke-dasharray:none;stroke-opacity:1"
         id="path32"
         inkscape:connector-curvature="0" /><path
         d="m 342.859,414.918 212.594,0 0,552.746 -212.594,0 0,-552.746 z"
         style="fill:#a52a2a;fill-opacity:1;fill-rule:nonzero;stroke:none"
         id="path34"
         inkscape:connector-curvature="0" /><path
         d="m 342.859,414.918 212.594,0 0,552.746 -212.594,0 0,-552.746 z"
         style="fill:none;stroke:#000000;stroke-width:28.34600067;stroke-linecap:butt;stroke-linejoin:miter;stroke-miterlimit:10;stroke-dasharray:none;stroke-opacity:1"
         id="path36"
         inkscape:connector-curvature="0" /><path
         d="m 1454.02,677.117 c 0,-58.703 -41.24,-106.297 -92.12,-106.297 -50.88,0 -92.13,47.594 -92.13,106.297 0,58.703 41.25,106.297 92.13,106.297 50.88,0 92.12,-47.594 92.12,-106.297"
         style="fill:#0000ff;fill-opacity:1;fill-rule:nonzero;stroke:none"
         id="path38"
         inkscape:connector-curvature="0" /><path
         d="m 1454.02,677.117 c 0,-58.703 -41.24,-106.297 -92.12,-106.297 -50.88,0 -92.13,47.594 -92.13,106.297 0,58.703 41.25,106.297 92.13,106.297 50.88,0 92.12,-47.594 92.12,-106.297 z"
         style="fill:none;stroke:#0000ff;stroke-width:28.34600067;stroke-linecap:butt;stroke-linejoin:miter;stroke-miterlimit:10;stroke-dasharray:none;stroke-opacity:1"
         id="path40"
         inkscape:connector-curvature="0" /><path
         d="m 1361.9,2342.78 0,-1559.366"
         style="fill:none;stroke:#000000;stroke-width:28.34600067;stroke-linecap:butt;stroke-linejoin:miter;stroke-miterlimit:10;stroke-dasharray:none;stroke-opacity:1"
         id="path42"
         inkscape:connector-curvature="0" /><path
         d="m 2609.12,2221.98 10,329.78"
         style="fill:none;stroke:#000000;stroke-width:28.34600067;stroke-linecap:butt;stroke-linejoin:miter;stroke-miterlimit:10;stroke-dasharray:none;stroke-opacity:1"
         id="path44"
         inkscape:connector-curvature="0" /><path
         d="m 2622.34,2658.01 66.54,-143.81 -69.76,37.56 -71.91,-33.27"
         style="fill:#000000;fill-opacity:1;fill-rule:evenodd;stroke:none"
         id="path46"
         inkscape:connector-curvature="0" /><path
         d="m 2622.34,2658.01 66.54,-143.81 -69.76,37.56 -71.91,-33.27 75.13,139.52 z"
         style="fill:none;stroke:#000000;stroke-width:28.34600067;stroke-linecap:butt;stroke-linejoin:miter;stroke-miterlimit:10;stroke-dasharray:none;stroke-opacity:1"
         id="path48"
         inkscape:connector-curvature="0" /><path
         d="m 138.816,496.609 9.993,329.786"
         style="fill:none;stroke:#000000;stroke-width:28.34600067;stroke-linecap:butt;stroke-linejoin:miter;stroke-miterlimit:10;stroke-dasharray:none;stroke-opacity:1"
         id="path50"
         inkscape:connector-curvature="0" /><path
         d="M 152.031,932.641 218.57,788.832 148.809,826.395 76.9023,793.125"
         style="fill:#000000;fill-opacity:1;fill-rule:evenodd;stroke:none"
         id="path52"
         inkscape:connector-curvature="0" /><path
         d="M 152.031,932.641 218.57,788.832 148.809,826.395 76.9023,793.125 152.031,932.641 Z"
         style="fill:none;stroke:#000000;stroke-width:28.34600067;stroke-linecap:butt;stroke-linejoin:miter;stroke-miterlimit:10;stroke-dasharray:none;stroke-opacity:1"
         id="path54"
         inkscape:connector-curvature="0" /><path
         d="m 100.477,2392 9.992,329.79"
         style="fill:none;stroke:#000000;stroke-width:28.34600067;stroke-linecap:butt;stroke-linejoin:miter;stroke-miterlimit:10;stroke-dasharray:none;stroke-opacity:1"
         id="path56"
         inkscape:connector-curvature="0" /><path
         d="m 97.2578,2285.75 -66.539,143.82 69.7582,-37.57 71.906,33.27"
         style="fill:#000000;fill-opacity:1;fill-rule:evenodd;stroke:none"
         id="path58"
         inkscape:connector-curvature="0" /><path
         d="m 97.2578,2285.75 -66.539,143.82 69.7582,-37.57 71.906,33.27 -75.1252,-139.52 z"
         style="fill:none;stroke:#000000;stroke-width:28.34600067;stroke-linecap:butt;stroke-linejoin:miter;stroke-miterlimit:10;stroke-dasharray:none;stroke-opacity:1"
         id="path60"
         inkscape:connector-curvature="0" /><path
         d="m 2597.62,580.766 10,329.781"
         style="fill:none;stroke:#000000;stroke-width:28.34600067;stroke-linecap:butt;stroke-linejoin:miter;stroke-miterlimit:10;stroke-dasharray:none;stroke-opacity:1"
         id="path62"
         inkscape:connector-curvature="0" /><path
         d="m 2594.41,474.516 -66.54,143.812 69.75,-37.562 71.91,33.269"
         style="fill:#000000;fill-opacity:1;fill-rule:evenodd;stroke:none"
         id="path64"
         inkscape:connector-curvature="0" /><path
         d="m 2594.41,474.516 -66.54,143.812 69.75,-37.562 71.91,33.269 -75.12,-139.519 z"
         style="fill:none;stroke:#000000;stroke-width:28.34600067;stroke-linecap:butt;stroke-linejoin:miter;stroke-miterlimit:10;stroke-dasharray:none;stroke-opacity:1"
         id="path66"
         inkscape:connector-curvature="0" /><path
         d="m 1191.54,2731.83 11.62,0 c 9.25,0 18.27,0.77 25.67,2.53 15.47,3.93 33.11,14.48 33.11,38.94 0,14.85 -6.6,25 -15.62,30.5 -9.61,5.87 -22.44,7.82 -36.44,7.82 l -54.71,0 0,-5.69 c 17.2,-1.13 17.6,-1.54 17.6,-12.5 l 0,-99.51 c 0,-11.15 -0.4,-11.52 -17.6,-12.72 l 0,-5.69 57.97,0 0,5.69 c -20.98,1.2 -21.6,1.57 -21.6,12.72 l 0,37.91 m 0,65.74 c 0,5.47 2.24,7.23 15.48,7.23 20.97,0 33.8,-11.55 33.8,-32.89 0,-24.46 -16.68,-33.26 -34.21,-33.26 -12.02,0 -15.07,0.4 -15.07,7.63 l 0,51.29"
         style="fill:#000000;fill-opacity:1;fill-rule:nonzero;stroke:none"
         id="path68"
         inkscape:connector-curvature="0" /><path
         d="m 1276.98,2767.8 0,-4.88 7.11,-0.99 c 4.84,-0.77 5.98,-1.76 5.98,-8.8 l 0,-61.56 c 0,-9.97 -0.55,-10.37 -14.08,-10.37 l 0,-5.69 47.3,0 0,5.69 c -13.68,0 -14.45,0.4 -14.45,10.37 l 0,79.97 -1.39,1.17 -30.47,-4.91 m 22.29,46.16 c -6.82,0 -11.54,-4.98 -11.54,-11.91 0,-6.75 4.72,-11.55 11.54,-11.55 7.34,0 11.92,4.8 11.92,11.55 0,6.93 -4.69,11.91 -11.92,11.91"
         style="fill:#000000;fill-opacity:1;fill-rule:nonzero;stroke:none"
         id="path70"
         inkscape:connector-curvature="0" /><path
         d="m 1392.71,2771.72 0,-6.23 9.86,-0.99 c 3.23,-0.37 3.82,-2.53 3.01,-5.24 -1.58,-6.27 -5.31,-17.56 -9.86,-30.07 l -13.27,-36.08 -0.37,0 -11.81,32.78 c -3.85,11.11 -7.73,22.44 -11.4,32.96 -1.36,3.71 -0.59,5.28 3.08,5.65 l 8.73,0.99 0,6.23 -43.68,0 0,-6.23 c 9.17,-0.77 10.93,-1.58 13.83,-8.8 5.28,-12.87 9.75,-25.56 14.63,-39.01 l 15,-42.17 13.93,0 17.52,47.45 c 5.73,15.29 11.41,28.23 14.16,34.5 2.97,6.86 5.13,8.03 14.19,8.03 l 0,6.23 -37.55,0"
         style="fill:#000000;fill-opacity:1;fill-rule:nonzero;stroke:none"
         id="path72"
         inkscape:connector-curvature="0" /><path
         d="m 1483.75,2773.85 c -31.35,0 -46.82,-18.63 -46.82,-50.34 0,-31.72 15.47,-50.35 46.82,-50.35 31.75,0 47.04,18.63 47.04,50.35 0,31.71 -15.29,50.34 -47.04,50.34 m -25.7,-50.34 c 0,27.06 8.36,43.52 25.7,43.52 17.71,0 25.92,-16.46 25.92,-43.52 0,-27.06 -8.21,-43.53 -25.92,-43.53 -17.34,0 -25.7,16.47 -25.7,43.53"
         style="fill:#000000;fill-opacity:1;fill-rule:nonzero;stroke:none"
         id="path74"
         inkscape:connector-curvature="0" /><path
         d="m 1608.02,2763.91 0,7.81 -25.18,0 0,24.61 -5.8,0 -12.17,-24.61 -14.89,0 0,-7.81 14.08,0 0,-69.04 c 0,-19.43 15.14,-21.71 22.11,-21.71 9.97,0 19.32,4.7 25.01,7.96 l -1.58,4 c -4.69,-1.98 -8.98,-2.57 -13.86,-2.57 -6.63,0 -12.9,4.77 -12.9,19.84 l 0,61.52 25.18,0"
         style="fill:#000000;fill-opacity:1;fill-rule:nonzero;stroke:none"
         id="path76"
         inkscape:connector-curvature="0" /><path
         d="m 1164.61,292.656 11.63,0 c 9.24,0 18.26,0.77 25.66,2.532 15.48,3.921 33.11,14.48 33.11,38.937 0,14.852 -6.6,25.008 -15.62,30.508 -9.6,5.867 -22.44,7.808 -36.44,7.808 l -54.71,0 0,-5.683 c 17.2,-1.137 17.6,-1.539 17.6,-12.5 l 0,-99.516 c 0,-11.144 -0.4,-11.512 -17.6,-12.722 l 0,-5.684 57.97,0 0,5.684 c -20.97,1.21 -21.6,1.578 -21.6,12.722 l 0,37.914 m 0,65.742 c 0,5.465 2.24,7.223 15.48,7.223 20.97,0 33.8,-11.547 33.8,-32.887 0,-24.457 -16.68,-33.257 -34.21,-33.257 -12.02,0 -15.07,0.402 -15.07,7.625 l 0,51.296"
         style="fill:#000000;fill-opacity:1;fill-rule:nonzero;stroke:none"
         id="path78"
         inkscape:connector-curvature="0" /><path
         d="m 1250.05,328.625 0,-4.875 7.12,-0.992 c 4.84,-0.77 5.97,-1.758 5.97,-8.797 l 0,-61.563 c 0,-9.976 -0.55,-10.378 -14.08,-10.378 l 0,-5.684 47.3,0 0,5.684 c -13.67,0 -14.45,0.402 -14.45,10.378 l 0,79.969 -1.39,1.172 -30.47,-4.914 m 22.3,46.164 c -6.82,0 -11.55,-4.988 -11.55,-11.918 0,-6.746 4.73,-11.547 11.55,-11.547 7.33,0 11.91,4.801 11.91,11.547 0,6.93 -4.69,11.918 -11.91,11.918"
         style="fill:#000000;fill-opacity:1;fill-rule:nonzero;stroke:none"
         id="path80"
         inkscape:connector-curvature="0" /><path
         d="m 1365.78,332.551 0,-6.235 9.86,-0.988 c 3.23,-0.367 3.82,-2.531 3.01,-5.246 -1.58,-6.27 -5.31,-17.562 -9.86,-30.066 l -13.27,-36.078 -0.37,0 -11.81,32.777 c -3.85,11.113 -7.73,22.441 -11.4,32.965 -1.36,3.703 -0.59,5.281 3.08,5.648 l 8.73,0.988 0,6.235 -43.67,0 0,-6.235 c 9.16,-0.769 10.92,-1.578 13.82,-8.8 5.28,-12.868 9.75,-25.555 14.63,-39.012 l 15,-42.168 13.93,0 17.52,47.449 c 5.73,15.289 11.41,28.231 14.16,34.5 2.97,6.86 5.13,8.031 14.19,8.031 l 0,6.235 -37.55,0"
         style="fill:#000000;fill-opacity:1;fill-rule:nonzero;stroke:none"
         id="path82"
         inkscape:connector-curvature="0" /><path
         d="m 1456.82,334.676 c -31.35,0 -46.82,-18.625 -46.82,-50.344 0,-31.715 15.47,-50.34 46.82,-50.34 31.75,0 47.04,18.625 47.04,50.34 0,31.719 -15.29,50.344 -47.04,50.344 m -25.7,-50.344 c 0,27.063 8.36,43.523 25.7,43.523 17.71,0 25.92,-16.46 25.92,-43.523 0,-27.059 -8.21,-43.523 -25.92,-43.523 -17.34,0 -25.7,16.464 -25.7,43.523"
         style="fill:#000000;fill-opacity:1;fill-rule:nonzero;stroke:none"
         id="path84"
         inkscape:connector-curvature="0" /><path
         d="m 1581.09,324.738 0,7.813 -25.18,0 0,24.601 -5.8,0 -12.17,-24.601 -14.89,0 0,-7.813 14.08,0 0,-69.043 c 0,-19.429 15.14,-21.703 22.11,-21.703 9.97,0 19.33,4.692 25.01,7.953 l -1.58,4 c -4.69,-1.98 -8.98,-2.566 -13.86,-2.566 -6.63,0 -12.9,4.766 -12.9,19.836 l 0,61.523 25.18,0"
         style="fill:#000000;fill-opacity:1;fill-rule:nonzero;stroke:none"
         id="path86"
         inkscape:connector-curvature="0" /><path
         d="m 4985.59,2187.96 1599.06,437.95"
         style="fill:none;stroke:#000000;stroke-width:28.34600067;stroke-linecap:butt;stroke-linejoin:miter;stroke-miterlimit:10;stroke-dasharray:none;stroke-opacity:1"
         id="path88"
         inkscape:connector-curvature="0" /><path
         d="m 5864.55,2404.8 c 0,-58.7 -41.25,-106.29 -92.13,-106.29 -50.88,0 -92.12,47.59 -92.12,106.29 0,58.71 41.24,106.31 92.12,106.31 50.88,0 92.13,-47.6 92.13,-106.31"
         style="fill:#0000ff;fill-opacity:1;fill-rule:nonzero;stroke:none"
         id="path90"
         inkscape:connector-curvature="0" /><path
         d="m 5864.55,2404.8 c 0,-58.7 -41.25,-106.29 -92.13,-106.29 -50.88,0 -92.12,47.59 -92.12,106.29 0,58.71 41.24,106.31 92.12,106.31 50.88,0 92.13,-47.6 92.13,-106.31 z"
         style="fill:none;stroke:#0000ff;stroke-width:28.34600067;stroke-linecap:butt;stroke-linejoin:miter;stroke-miterlimit:10;stroke-dasharray:none;stroke-opacity:1"
         id="path92"
         inkscape:connector-curvature="0" /><path
         d="M 4965.98,916.641 6651.15,328.461"
         style="fill:none;stroke:#000000;stroke-width:28.34600067;stroke-linecap:butt;stroke-linejoin:miter;stroke-miterlimit:10;stroke-dasharray:none;stroke-opacity:1"
         id="path94"
         inkscape:connector-curvature="0" /><path
         d="m 5864.55,619.008 c 0,-58.703 -41.25,-106.297 -92.13,-106.297 -50.88,0 -92.12,47.594 -92.12,106.297 0,58.703 41.24,106.297 92.12,106.297 50.88,0 92.13,-47.594 92.13,-106.297"
         style="fill:#0000ff;fill-opacity:1;fill-rule:nonzero;stroke:none"
         id="path96"
         inkscape:connector-curvature="0" /><path
         d="m 5864.55,619.008 c 0,-58.703 -41.25,-106.297 -92.13,-106.297 -50.88,0 -92.12,47.594 -92.12,106.297 0,58.703 41.24,106.297 92.12,106.297 50.88,0 92.13,-47.594 92.13,-106.297 z"
         style="fill:none;stroke:#0000ff;stroke-width:28.34600067;stroke-linecap:butt;stroke-linejoin:miter;stroke-miterlimit:10;stroke-dasharray:none;stroke-opacity:1"
         id="path98"
         inkscape:connector-curvature="0" /><path
         d="m 5772.42,2284.67 0,-1559.365"
         style="fill:none;stroke:#000000;stroke-width:28.34600067;stroke-linecap:butt;stroke-linejoin:miter;stroke-miterlimit:10;stroke-dasharray:none;stroke-opacity:1"
         id="path100"
         inkscape:connector-curvature="0" /><path
         d="m 6520.87,2859.76 198.42,70.86 113.39,-481.88 -184.25,-56.69"
         style="fill:#a52a2a;fill-opacity:1;fill-rule:evenodd;stroke:none"
         id="path102"
         inkscape:connector-curvature="0" /><path
         d="m 6520.87,2859.76 198.42,70.86 113.39,-481.88 -184.25,-56.69 -127.56,467.71 z"
         style="fill:none;stroke:#000000;stroke-width:28.34600067;stroke-linecap:butt;stroke-linejoin:miter;stroke-miterlimit:10;stroke-dasharray:none;stroke-opacity:1"
         id="path104"
         inkscape:connector-curvature="0" /><path
         d="m 4725.86,2366.53 198.42,70.86 122.6,-498.87 -198.42,-70.87"
         style="fill:#a52a2a;fill-opacity:1;fill-rule:evenodd;stroke:none"
         id="path106"
         inkscape:connector-curvature="0" /><path
         d="m 4725.86,2366.53 198.42,70.86 122.6,-498.87 -198.42,-70.87 -122.6,498.88 z"
         style="fill:none;stroke:#000000;stroke-width:28.34600067;stroke-linecap:butt;stroke-linejoin:miter;stroke-miterlimit:10;stroke-dasharray:none;stroke-opacity:1"
         id="path108"
         inkscape:connector-curvature="0" /><path
         d="m 4883.18,1268.13 192.05,-80.78 -184.25,-510.233 -212.6,70.867"
         style="fill:#a52a2a;fill-opacity:1;fill-rule:evenodd;stroke:none"
         id="path110"
         inkscape:connector-curvature="0" /><path
         d="m 4883.18,1268.13 192.05,-80.78 -184.25,-510.233 -212.6,70.867 204.8,520.146 z"
         style="fill:none;stroke:#000000;stroke-width:28.34600067;stroke-linecap:butt;stroke-linejoin:miter;stroke-miterlimit:10;stroke-dasharray:none;stroke-opacity:1"
         id="path112"
         inkscape:connector-curvature="0" /><path
         d="M 6703.25,608.832 6895.27,528.047 6711.02,17.8164 6498.42,88.6836"
         style="fill:#a52a2a;fill-opacity:1;fill-rule:evenodd;stroke:none"
         id="path114"
         inkscape:connector-curvature="0" /><path
         d="M 6703.25,608.832 6895.27,528.047 6711.02,17.8164 6498.42,88.6836 6703.25,608.832 Z"
         style="fill:none;stroke:#000000;stroke-width:28.34600067;stroke-linecap:butt;stroke-linejoin:miter;stroke-miterlimit:10;stroke-dasharray:none;stroke-opacity:1"
         id="path116"
         inkscape:connector-curvature="0" /><path
         d="m 5553.96,2604.64 c 30.18,0 49.61,10.9 49.61,38.43 0,23.39 -16.28,33.7 -35.09,36.27 l 0,0.4 c 19.18,3.7 30.4,15.03 30.4,30.1 0,10.63 -4.43,18.55 -12.54,23.76 -7.88,5.02 -20.02,7.15 -35.79,7.15 l -58.44,0 0,-5.68 c 17.19,-1.14 17.6,-1.51 17.6,-12.28 l 0,-99.81 c 0,-11.11 -0.41,-11.52 -17.6,-12.65 l 0,-5.69 61.85,0 m -25.48,70.41 15.18,0 c 25.04,0 38.79,-12.32 38.79,-33.37 0,-23.87 -16.5,-30.22 -33.77,-30.22 -16.82,0 -20.2,2.97 -20.2,15.29 l 0,48.3 m 0,49.27 c 0,8.44 0.63,9.61 17.05,9.61 15.18,0 32.23,-5.39 32.23,-25.26 0,-19.18 -13.27,-26.81 -35.16,-26.81 l -14.12,0 0,42.46"
         style="fill:#000000;fill-opacity:1;fill-rule:nonzero;stroke:none"
         id="path118"
         inkscape:connector-curvature="0" /><path
         d="m 5652.61,2703.2 -30.07,-5.27 0,-5.25 7.41,-0.95 c 5.09,-0.81 6.26,-1.76 6.26,-8.77 l 0,-62.14 c 0,-10.09 -0.99,-10.49 -14.66,-10.49 l 0,-5.69 51.99,0 0,5.69 c -17.38,0 -18.55,0.4 -18.55,10.49 l 0,46.23 c 0,14.74 6.63,19.73 11.14,19.73 3.12,0 6.46,-1.03 12.1,-3.82 1.4,-0.69 2.94,-0.87 3.93,-0.87 4.69,0 8.98,4.84 8.98,10.81 0,4.62 -2.75,10.3 -10.37,10.3 -7.05,0 -12.88,-4.61 -25.78,-16.75 l -2.38,16.75"
         style="fill:#000000;fill-opacity:1;fill-rule:nonzero;stroke:none"
         id="path120"
         inkscape:connector-curvature="0" /><path
         d="m 5761.02,2631.89 c 0,-16.06 -12.79,-20.2 -20.86,-20.2 -12.83,0 -19.03,8.65 -19.03,20.27 0,9.35 4.55,14.12 16.14,18.3 8.25,2.97 19.21,6.74 23.75,9.53 l 0,-27.9 m 18.78,44.99 c 0,11.37 -2.72,26.1 -34.07,26.1 -22.4,0 -40.03,-11.66 -40.03,-22.51 0,-6.38 6.89,-9.35 10.41,-9.35 4.25,0 5.46,2.2 6.49,5.58 4.44,14.7 12.76,19.46 20.86,19.46 8.07,0 17.56,-3.96 17.56,-19.87 l 0,-8.36 c -4.98,-5.17 -24.34,-10.12 -40.11,-15.11 -14.37,-4.36 -18.55,-14.3 -18.55,-23.64 0,-14.2 9.6,-26.88 27.64,-26.88 12.84,0 24.2,6.75 30.8,10.59 2.94,-6.52 6.27,-10.59 13.57,-10.59 7.33,0 15.88,2.05 23.39,5.61 l -1.17,3.78 c -2.75,0 -7.04,0 -9.97,0.77 -3.49,0.8 -6.82,4.54 -6.82,16.9 l 0,47.52"
         style="fill:#000000;fill-opacity:1;fill-rule:nonzero;stroke:none"
         id="path122"
         inkscape:connector-curvature="0" /><path
         d="m 5816.52,2620.82 c 0,-10.09 -0.58,-10.49 -14.66,-10.49 l 0,-5.69 48.1,0 0,5.69 c -13.89,0 -14.66,0.4 -14.66,10.49 l 0,33.11 0.4,0 c 8,-12.62 21.89,-29.48 32.05,-39.79 7.22,-7.18 14.85,-9.5 21.08,-9.5 l 14.63,0 0,4.52 c -5.83,1.57 -10.71,4.5 -16.76,10.59 -12.13,11.96 -27.35,30.62 -34.79,41.21 -0.96,1.36 -1.36,2.35 0.58,4.52 9.39,10.77 15.62,16.46 22.3,21.37 6.63,4.92 11.51,7.26 22.84,8.44 l 0,5.57 -20.13,0 c -6.64,0 -8.39,-0.99 -12.28,-5.79 -5.68,-6.97 -25.01,-31.65 -29.52,-38.43 l -0.4,0 0,92.32 -1.4,1.18 -31.05,-4.88 0,-4.91 7.4,-0.77 c 5.1,-0.59 6.27,-1.58 6.27,-8.99 l 0,-109.77"
         style="fill:#000000;fill-opacity:1;fill-rule:nonzero;stroke:none"
         id="path124"
         inkscape:connector-curvature="0" /><path
         d="m 5988.29,2656.27 c 4.26,0 8.11,0.88 8.11,6.82 0,11.7 -3.74,39.89 -39.68,39.89 -30.39,0 -44.8,-21.7 -44.8,-51.07 0,-30.73 13.24,-49.61 44.99,-49.61 21.78,0 32.96,11.91 38.28,27.32 l -6.09,3.15 c -5.5,-11.55 -12.94,-21.08 -28.42,-21.08 -22.98,0 -27.64,23.86 -27.64,44.58 l 55.25,0 m -55.25,6.82 c 0,8.18 2.86,33.07 22.55,33.07 17.6,0 19.69,-18.91 19.69,-26.69 0,-3.77 -1.14,-6.38 -6.46,-6.38 l -35.78,0"
         style="fill:#000000;fill-opacity:1;fill-rule:nonzero;stroke:none"
         id="path126"
         inkscape:connector-curvature="0" /><path
         d="m 5541.21,264.684 c 30.17,0 49.61,10.89 49.61,38.425 0,23.395 -16.28,33.696 -35.09,36.262 l 0,0.406 c 19.18,3.703 30.39,15.032 30.39,30.102 0,10.633 -4.43,18.555 -12.53,23.762 -7.89,5.019 -20.02,7.148 -35.79,7.148 l -58.45,0 0,-5.684 c 17.2,-1.136 17.6,-1.503 17.6,-12.285 l 0,-99.804 c 0,-11.11 -0.4,-11.512 -17.6,-12.649 l 0,-5.683 61.86,0 m -25.48,70.398 15.18,0 c 25.04,0 38.79,-12.32 38.79,-33.367 0,-23.867 -16.5,-30.211 -33.77,-30.211 -16.83,0 -20.2,2.969 -20.2,15.289 l 0,48.289 m 0,49.281 c 0,8.434 0.62,9.606 17.04,9.606 15.18,0 32.23,-5.391 32.23,-25.262 0,-19.18 -13.27,-26.805 -35.16,-26.805 l -14.11,0 0,42.461"
         style="fill:#000000;fill-opacity:1;fill-rule:nonzero;stroke:none"
         id="path128"
         inkscape:connector-curvature="0" /><path
         d="m 5639.85,363.242 -30.07,-5.281 0,-5.242 7.41,-0.953 c 5.1,-0.805 6.27,-1.758 6.27,-8.762 l 0,-62.152 c 0,-10.082 -0.99,-10.485 -14.67,-10.485 l 0,-5.683 52,0 0,5.683 c -17.38,0 -18.56,0.403 -18.56,10.485 l 0,46.238 c 0,14.738 6.64,19.726 11.15,19.726 3.12,0 6.45,-1.027 12.1,-3.812 1.39,-0.699 2.93,-0.883 3.92,-0.883 4.69,0 8.98,4.84 8.98,10.817 0,4.621 -2.75,10.304 -10.37,10.304 -7.04,0 -12.87,-4.621 -25.78,-16.758 l -2.38,16.758"
         style="fill:#000000;fill-opacity:1;fill-rule:nonzero;stroke:none"
         id="path130"
         inkscape:connector-curvature="0" /><path
         d="m 5748.27,291.926 c 0,-16.059 -12.8,-20.203 -20.86,-20.203 -12.84,0 -19.03,8.652 -19.03,20.277 0,9.352 4.54,14.117 16.13,18.297 8.25,2.969 19.21,6.746 23.76,9.531 l 0,-27.902 m 18.77,44.988 c 0,11.367 -2.71,26.109 -34.06,26.109 -22.41,0 -40.04,-11.66 -40.04,-22.515 0,-6.379 6.89,-9.348 10.41,-9.348 4.26,0 5.47,2.199 6.49,5.574 4.44,14.704 12.76,19.469 20.86,19.469 8.07,0 17.57,-3.961 17.57,-19.875 l 0,-8.359 c -4.99,-5.168 -24.35,-10.121 -40.11,-15.106 -14.38,-4.363 -18.56,-14.301 -18.56,-23.648 0,-14.192 9.61,-26.879 27.65,-26.879 12.83,0 24.2,6.746 30.8,10.598 2.93,-6.528 6.27,-10.598 13.56,-10.598 7.34,0 15.88,2.055 23.4,5.609 l -1.17,3.778 c -2.75,0 -7.05,0 -9.98,0.769 -3.48,0.809 -6.82,4.547 -6.82,16.903 l 0,47.519"
         style="fill:#000000;fill-opacity:1;fill-rule:nonzero;stroke:none"
         id="path132"
         inkscape:connector-curvature="0" /><path
         d="m 5803.77,280.852 c 0,-10.082 -0.59,-10.485 -14.67,-10.485 l 0,-5.683 48.11,0 0,5.683 c -13.9,0 -14.67,0.403 -14.67,10.485 l 0,33.109 0.41,0 c 7.99,-12.609 21.89,-29.477 32.04,-39.781 7.22,-7.188 14.85,-9.496 21.08,-9.496 l 14.63,0 0,4.507 c -5.82,1.579 -10.7,4.512 -16.75,10.598 -12.14,11.953 -27.36,30.617 -34.8,41.215 -0.95,1.355 -1.36,2.344 0.59,4.508 9.38,10.781 15.62,16.465 22.29,21.379 6.64,4.91 11.51,7.257 22.85,8.433 l 0,5.571 -20.13,0 c -6.64,0 -8.4,-0.989 -12.29,-5.793 -5.68,-6.965 -25.01,-31.641 -29.51,-38.426 l -0.41,0 0,92.328 -1.39,1.172 -31.06,-4.879 0,-4.91 7.41,-0.77 c 5.09,-0.59 6.27,-1.578 6.27,-8.984 l 0,-109.781"
         style="fill:#000000;fill-opacity:1;fill-rule:nonzero;stroke:none"
         id="path134"
         inkscape:connector-curvature="0" /><path
         d="m 5975.54,316.309 c 4.25,0 8.1,0.882 8.1,6.82 0,11.695 -3.74,39.894 -39.67,39.894 -30.4,0 -44.81,-21.707 -44.81,-51.078 0,-30.726 13.24,-49.609 44.99,-49.609 21.78,0 32.97,11.918 38.28,27.316 l -6.09,3.153 c -5.5,-11.547 -12.94,-21.082 -28.41,-21.082 -22.99,0 -27.65,23.871 -27.65,44.586 l 55.26,0 m -55.26,6.82 c 0,8.176 2.86,33.074 22.55,33.074 17.6,0 19.69,-18.922 19.69,-26.695 0,-3.774 -1.13,-6.379 -6.45,-6.379 l -35.79,0"
         style="fill:#000000;fill-opacity:1;fill-rule:nonzero;stroke:none"
         id="path136"
         inkscape:connector-curvature="0" /></g></g></svg>