<?xml version="1.0" encoding="UTF-8" standalone="no"?>
<!-- Created with Inkscape (http://www.inkscape.org/) -->

<svg
   xmlns:dc="http://purl.org/dc/elements/1.1/"
   xmlns:cc="http://creativecommons.org/ns#"
   xmlns:rdf="http://www.w3.org/1999/02/22-rdf-syntax-ns#"
   xmlns:svg="http://www.w3.org/2000/svg"
   xmlns="http://www.w3.org/2000/svg"
   xmlns:sodipodi="http://sodipodi.sourceforge.net/DTD/sodipodi-0.dtd"
   xmlns:inkscape="http://www.inkscape.org/namespaces/inkscape"
   id="svg2"
   version="1.1"
   inkscape:version="0.91 r13725"
   xml:space="preserve"
   width="855"
   height="401.25"
   viewBox="0 0 855 401.25"
   sodipodi:docname="split_axle.svg"><metadata
     id="metadata8"><rdf:RDF><cc:Work
         rdf:about=""><dc:format>image/svg+xml</dc:format><dc:type
           rdf:resource="http://purl.org/dc/dcmitype/StillImage" /><dc:title></dc:title></cc:Work></rdf:RDF></metadata><defs
     id="defs6" /><sodipodi:namedview
     pagecolor="#ffffff"
     bordercolor="#666666"
     borderopacity="1"
     objecttolerance="10"
     gridtolerance="10"
     guidetolerance="10"
     inkscape:pageopacity="0"
     inkscape:pageshadow="2"
     inkscape:window-width="640"
     inkscape:window-height="480"
     id="namedview4"
     showgrid="false"
     inkscape:zoom="0.38362573"
     inkscape:cx="427.5"
     inkscape:cy="200.625"
     inkscape:window-x="80"
     inkscape:window-y="57"
     inkscape:window-maximized="0"
     inkscape:current-layer="g10" /><g
     id="g10"
     inkscape:groupmode="layer"
     inkscape:label="split_axle"
     transform="matrix(1.25,0,0,-1.25,0,401.25)"><g
       id="g12"
       transform="scale(0.1,0.1)"><path
         d="m 480.465,2559.3 1686.585,0"
         style="fill:none;stroke:#000000;stroke-width:28.34600067;stroke-linecap:butt;stroke-linejoin:miter;stroke-miterlimit:10;stroke-dasharray:none;stroke-opacity:1"
         id="path14"
         inkscape:connector-curvature="0" /><path
         d="m 2181.23,2275.84 212.594,0 0,552.746 -212.594,0 0,-552.746 z"
         style="fill:#a52a2a;fill-opacity:1;fill-rule:nonzero;stroke:none"
         id="path16"
         inkscape:connector-curvature="0" /><path
         d="m 2181.23,2275.84 212.594,0 0,552.746 -212.594,0 0,-552.746 z"
         style="fill:none;stroke:#000000;stroke-width:28.34600067;stroke-linecap:butt;stroke-linejoin:miter;stroke-miterlimit:10;stroke-dasharray:none;stroke-opacity:1"
         id="path18"
         inkscape:connector-curvature="0" /><path
         d="m 283.461,2311.27 212.594,0 0,552.746 -212.594,0 0,-552.746 z"
         style="fill:#a52a2a;fill-opacity:1;fill-rule:nonzero;stroke:none"
         id="path20"
         inkscape:connector-curvature="0" /><path
         d="m 283.461,2311.27 212.594,0 0,552.746 -212.594,0 0,-552.746 z"
         style="fill:none;stroke:#000000;stroke-width:28.34600067;stroke-linecap:butt;stroke-linejoin:miter;stroke-miterlimit:10;stroke-dasharray:none;stroke-opacity:1"
         id="path22"
         inkscape:connector-curvature="0" /><path
         d="m 1394.62,2573.47 c 0,-58.7 -41.24,-106.29 -92.12,-106.29 -50.88,0 -92.12,47.59 -92.12,106.29 0,58.71 41.24,106.3 92.12,106.3 50.88,0 92.12,-47.59 92.12,-106.3"
         style="fill:#0000ff;fill-opacity:1;fill-rule:nonzero;stroke:none"
         id="path24"
         inkscape:connector-curvature="0" /><path
         d="m 1394.62,2573.47 c 0,-58.7 -41.24,-106.29 -92.12,-106.29 -50.88,0 -92.12,47.59 -92.12,106.29 0,58.71 41.24,106.3 92.12,106.3 50.88,0 92.12,-47.59 92.12,-106.3 z"
         style="fill:none;stroke:#0000ff;stroke-width:28.34600067;stroke-linecap:butt;stroke-linejoin:miter;stroke-miterlimit:10;stroke-dasharray:none;stroke-opacity:1"
         id="path26"
         inkscape:connector-curvature="0" /><path
         d="M 496.055,801.848 2181.23,780.59"
         style="fill:none;stroke:#000000;stroke-width:28.34600067;stroke-linecap:butt;stroke-linejoin:miter;stroke-miterlimit:10;stroke-dasharray:none;stroke-opacity:1"
         id="path28"
         inkscape:connector-curvature="0" /><path
         d="m 2181.23,504.215 212.594,0 0,552.746 -212.594,0 0,-552.746 z"
         style="fill:#a52a2a;fill-opacity:1;fill-rule:nonzero;stroke:none"
         id="path30"
         inkscape:connector-curvature="0" /><path
         d="m 2181.23,504.215 212.594,0 0,552.746 -212.594,0 0,-552.746 z"
         style="fill:none;stroke:#000000;stroke-width:28.34600067;stroke-linecap:butt;stroke-linejoin:miter;stroke-miterlimit:10;stroke-dasharray:none;stroke-opacity:1"
         id="path32"
         inkscape:connector-curvature="0" /><path
         d="m 283.461,525.477 212.594,0 0,552.746 -212.594,0 0,-552.746 z"
         style="fill:#a52a2a;fill-opacity:1;fill-rule:nonzero;stroke:none"
         id="path34"
         inkscape:connector-curvature="0" /><path
         d="m 283.461,525.477 212.594,0 0,552.746 -212.594,0 0,-552.746 z"
         style="fill:none;stroke:#000000;stroke-width:28.34600067;stroke-linecap:butt;stroke-linejoin:miter;stroke-miterlimit:10;stroke-dasharray:none;stroke-opacity:1"
         id="path36"
         inkscape:connector-curvature="0" /><path
         d="m 1394.62,787.676 c 0,-58.703 -41.24,-106.297 -92.12,-106.297 -50.88,0 -92.12,47.594 -92.12,106.297 0,58.703 41.24,106.297 92.12,106.297 50.88,0 92.12,-47.594 92.12,-106.297"
         style="fill:#0000ff;fill-opacity:1;fill-rule:nonzero;stroke:none"
         id="path38"
         inkscape:connector-curvature="0" /><path
         d="m 1394.62,787.676 c 0,-58.703 -41.24,-106.297 -92.12,-106.297 -50.88,0 -92.12,47.594 -92.12,106.297 0,58.703 41.24,106.297 92.12,106.297 50.88,0 92.12,-47.594 92.12,-106.297 z"
         style="fill:none;stroke:#0000ff;stroke-width:28.34600067;stroke-linecap:butt;stroke-linejoin:miter;stroke-miterlimit:10;stroke-dasharray:none;stroke-opacity:1"
         id="path40"
         inkscape:connector-curvature="0" /><path
         d="m 1302.5,2453.33 0,-1559.357"
         style="fill:none;stroke:#000000;stroke-width:28.34600067;stroke-linecap:butt;stroke-linejoin:miter;stroke-miterlimit:10;stroke-dasharray:none;stroke-opacity:1"
         id="path42"
         inkscape:connector-curvature="0" /><path
         d="m 2549.72,2332.53 9.99,329.79"
         style="fill:none;stroke:#000000;stroke-width:28.34600067;stroke-linecap:butt;stroke-linejoin:miter;stroke-miterlimit:10;stroke-dasharray:none;stroke-opacity:1"
         id="path44"
         inkscape:connector-curvature="0" /><path
         d="m 2562.94,2768.56 66.54,-143.81 -69.77,37.57 -71.9,-33.27"
         style="fill:#000000;fill-opacity:1;fill-rule:evenodd;stroke:none"
         id="path46"
         inkscape:connector-curvature="0" /><path
         d="m 2562.94,2768.56 66.54,-143.81 -69.77,37.57 -71.9,-33.27 75.13,139.51 z"
         style="fill:none;stroke:#000000;stroke-width:28.34600067;stroke-linecap:butt;stroke-linejoin:miter;stroke-miterlimit:10;stroke-dasharray:none;stroke-opacity:1"
         id="path48"
         inkscape:connector-curvature="0" /><path
         d="m 93.5898,2378.79 9.9922,329.79"
         style="fill:none;stroke:#000000;stroke-width:28.34600067;stroke-linecap:butt;stroke-linejoin:miter;stroke-miterlimit:10;stroke-dasharray:none;stroke-opacity:1"
         id="path50"
         inkscape:connector-curvature="0" /><path
         d="m 106.801,2814.82 66.543,-143.81 -69.762,37.57 -71.9062,-33.28"
         style="fill:#000000;fill-opacity:1;fill-rule:evenodd;stroke:none"
         id="path52"
         inkscape:connector-curvature="0" /><path
         d="m 106.801,2814.82 66.543,-143.81 -69.762,37.57 -71.9062,-33.28 75.1252,139.52 z"
         style="fill:none;stroke:#000000;stroke-width:28.34600067;stroke-linecap:butt;stroke-linejoin:miter;stroke-miterlimit:10;stroke-dasharray:none;stroke-opacity:1"
         id="path54"
         inkscape:connector-curvature="0" /><path
         d="m 126.113,702.59 9.996,329.78"
         style="fill:none;stroke:#000000;stroke-width:28.34600067;stroke-linecap:butt;stroke-linejoin:miter;stroke-miterlimit:10;stroke-dasharray:none;stroke-opacity:1"
         id="path56"
         inkscape:connector-curvature="0" /><path
         d="M 122.895,596.34 56.3555,740.152 126.113,702.59 198.02,735.859"
         style="fill:#000000;fill-opacity:1;fill-rule:evenodd;stroke:none"
         id="path58"
         inkscape:connector-curvature="0" /><path
         d="M 122.895,596.34 56.3555,740.152 126.113,702.59 198.02,735.859 122.895,596.34 Z"
         style="fill:none;stroke:#000000;stroke-width:28.34600067;stroke-linecap:butt;stroke-linejoin:miter;stroke-miterlimit:10;stroke-dasharray:none;stroke-opacity:1"
         id="path60"
         inkscape:connector-curvature="0" /><path
         d="m 1132.14,2842.39 11.63,0 c 9.24,0 18.26,0.77 25.66,2.53 15.48,3.92 33.11,14.48 33.11,38.94 0,14.85 -6.6,25 -15.62,30.5 -9.6,5.87 -22.44,7.82 -36.44,7.82 l -54.71,0 0,-5.69 c 17.19,-1.13 17.6,-1.54 17.6,-12.5 l 0,-99.51 c 0,-11.15 -0.41,-11.52 -17.6,-12.73 l 0,-5.68 57.97,0 0,5.68 c -20.97,1.21 -21.6,1.58 -21.6,12.73 l 0,37.91 m 0,65.74 c 0,5.46 2.24,7.23 15.48,7.23 20.97,0 33.8,-11.56 33.8,-32.9 0,-24.45 -16.68,-33.25 -34.21,-33.25 -12.02,0 -15.07,0.4 -15.07,7.63 l 0,51.29"
         style="fill:#000000;fill-opacity:1;fill-rule:nonzero;stroke:none"
         id="path62"
         inkscape:connector-curvature="0" /><path
         d="m 1217.58,2878.36 0,-4.88 7.12,-0.99 c 4.84,-0.77 5.97,-1.76 5.97,-8.8 l 0,-61.56 c 0,-9.97 -0.55,-10.38 -14.08,-10.38 l 0,-5.68 47.3,0 0,5.68 c -13.68,0 -14.44,0.41 -14.44,10.38 l 0,79.97 -1.4,1.17 -30.47,-4.91 m 22.3,46.16 c -6.83,0 -11.56,-4.98 -11.56,-11.91 0,-6.75 4.73,-11.56 11.56,-11.56 7.33,0 11.91,4.81 11.91,11.56 0,6.93 -4.69,11.91 -11.91,11.91"
         style="fill:#000000;fill-opacity:1;fill-rule:nonzero;stroke:none"
         id="path64"
         inkscape:connector-curvature="0" /><path
         d="m 1333.31,2882.28 0,-6.23 9.87,-0.99 c 3.22,-0.37 3.81,-2.53 3,-5.25 -1.57,-6.27 -5.32,-17.56 -9.86,-30.06 l -13.27,-36.08 -0.37,0 -11.81,32.78 c -3.85,11.11 -7.73,22.44 -11.4,32.96 -1.36,3.7 -0.59,5.28 3.08,5.65 l 8.73,0.99 0,6.23 -43.67,0 0,-6.23 c 9.16,-0.77 10.92,-1.58 13.82,-8.8 5.28,-12.87 9.75,-25.56 14.63,-39.02 l 14.99,-42.16 13.94,0 17.53,47.45 c 5.71,15.28 11.4,28.23 14.15,34.5 2.97,6.86 5.13,8.03 14.19,8.03 l 0,6.23 -37.55,0"
         style="fill:#000000;fill-opacity:1;fill-rule:nonzero;stroke:none"
         id="path66"
         inkscape:connector-curvature="0" /><path
         d="m 1424.35,2884.41 c -31.35,0 -46.82,-18.63 -46.82,-50.34 0,-31.72 15.47,-50.35 46.82,-50.35 31.75,0 47.04,18.63 47.04,50.35 0,31.71 -15.29,50.34 -47.04,50.34 m -25.71,-50.34 c 0,27.05 8.37,43.52 25.71,43.52 17.71,0 25.92,-16.47 25.92,-43.52 0,-27.07 -8.21,-43.53 -25.92,-43.53 -17.34,0 -25.71,16.46 -25.71,43.53"
         style="fill:#000000;fill-opacity:1;fill-rule:nonzero;stroke:none"
         id="path68"
         inkscape:connector-curvature="0" /><path
         d="m 1548.62,2874.47 0,7.81 -25.19,0 0,24.6 -5.79,0 -12.17,-24.6 -14.89,0 0,-7.81 14.08,0 0,-69.04 c 0,-19.43 15.14,-21.71 22.11,-21.71 9.98,0 19.32,4.69 25.01,7.96 l -1.58,4 c -4.69,-1.98 -8.98,-2.57 -13.86,-2.57 -6.64,0 -12.91,4.77 -12.91,19.84 l 0,61.52 25.19,0"
         style="fill:#000000;fill-opacity:1;fill-rule:nonzero;stroke:none"
         id="path70"
         inkscape:connector-curvature="0" /><path
         d="m 1105.21,403.215 11.63,0 c 9.24,0 18.26,0.769 25.66,2.531 15.48,3.922 33.11,14.481 33.11,38.938 0,14.851 -6.6,25.007 -15.62,30.507 -9.6,5.868 -22.44,7.809 -36.44,7.809 l -54.71,0 0,-5.684 c 17.2,-1.136 17.6,-1.539 17.6,-12.504 l 0,-99.511 c 0,-11.145 -0.4,-11.512 -17.6,-12.723 l 0,-5.683 57.97,0 0,5.683 c -20.97,1.211 -21.6,1.578 -21.6,12.723 l 0,37.914 m 0,65.742 c 0,5.465 2.24,7.223 15.48,7.223 20.97,0 33.8,-11.551 33.8,-32.891 0,-24.453 -16.68,-33.254 -34.2,-33.254 -12.03,0 -15.08,0.403 -15.08,7.625 l 0,51.297"
         style="fill:#000000;fill-opacity:1;fill-rule:nonzero;stroke:none"
         id="path72"
         inkscape:connector-curvature="0" /><path
         d="m 1190.65,439.184 0,-4.875 7.12,-0.993 c 4.84,-0.769 5.97,-1.757 5.97,-8.8 l 0,-61.563 c 0,-9.973 -0.55,-10.375 -14.08,-10.375 l 0,-5.683 47.3,0 0,5.683 c -13.67,0 -14.44,0.402 -14.44,10.375 l 0,79.973 -1.4,1.172 -30.47,-4.914 m 22.3,46.164 c -6.83,0 -11.56,-4.989 -11.56,-11.918 0,-6.746 4.73,-11.551 11.56,-11.551 7.33,0 11.91,4.805 11.91,11.551 0,6.929 -4.69,11.918 -11.91,11.918"
         style="fill:#000000;fill-opacity:1;fill-rule:nonzero;stroke:none"
         id="path74"
         inkscape:connector-curvature="0" /><path
         d="m 1306.38,443.105 0,-6.23 9.87,-0.992 c 3.22,-0.367 3.81,-2.528 3,-5.242 -1.57,-6.27 -5.31,-17.563 -9.86,-30.067 l -13.27,-36.078 -0.37,0 -11.8,32.777 c -3.86,11.11 -7.74,22.442 -11.41,32.965 -1.36,3.703 -0.59,5.278 3.08,5.645 l 8.73,0.992 0,6.23 -43.67,0 0,-6.23 c 9.16,-0.77 10.93,-1.578 13.82,-8.801 5.28,-12.871 9.75,-25.554 14.63,-39.012 l 14.99,-42.167 13.94,0 17.53,47.445 c 5.71,15.289 11.4,28.234 14.15,34.504 2.97,6.855 5.13,8.031 14.19,8.031 l 0,6.23 -37.55,0"
         style="fill:#000000;fill-opacity:1;fill-rule:nonzero;stroke:none"
         id="path76"
         inkscape:connector-curvature="0" /><path
         d="m 1397.42,445.234 c -31.35,0 -46.82,-18.629 -46.82,-50.343 0,-31.715 15.47,-50.344 46.82,-50.344 31.75,0 47.04,18.629 47.04,50.344 0,31.714 -15.29,50.343 -47.04,50.343 m -25.7,-50.343 c 0,27.058 8.36,43.523 25.7,43.523 17.71,0 25.92,-16.465 25.92,-43.523 0,-27.059 -8.21,-43.524 -25.92,-43.524 -17.34,0 -25.7,16.465 -25.7,43.524"
         style="fill:#000000;fill-opacity:1;fill-rule:nonzero;stroke:none"
         id="path78"
         inkscape:connector-curvature="0" /><path
         d="m 1521.7,435.297 0,7.808 -25.2,0 0,24.606 -5.79,0 -12.17,-24.606 -14.89,0 0,-7.808 14.08,0 0,-69.043 c 0,-19.434 15.15,-21.707 22.11,-21.707 9.98,0 19.32,4.695 25.01,7.957 l -1.58,3.996 c -4.69,-1.98 -8.98,-2.566 -13.86,-2.566 -6.64,0 -12.91,4.769 -12.91,19.836 l 0,61.527 25.2,0"
         style="fill:#000000;fill-opacity:1;fill-rule:nonzero;stroke:none"
         id="path80"
         inkscape:connector-curvature="0" /><path
         d="M 6709.5,2977.4 5811.43,2560.99"
         style="fill:none;stroke:#000000;stroke-width:28.34600067;stroke-linecap:butt;stroke-linejoin:miter;stroke-miterlimit:10;stroke-dasharray:none;stroke-opacity:1"
         id="path82"
         inkscape:connector-curvature="0" /><path
         d="m 5805.15,2515.36 c 0,-58.7 -41.25,-106.29 -92.13,-106.29 -50.88,0 -92.12,47.59 -92.12,106.29 0,58.71 41.24,106.3 92.12,106.3 50.88,0 92.13,-47.59 92.13,-106.3"
         style="fill:#0000ff;fill-opacity:1;fill-rule:nonzero;stroke:none"
         id="path84"
         inkscape:connector-curvature="0" /><path
         d="m 5805.15,2515.36 c 0,-58.7 -41.25,-106.29 -92.13,-106.29 -50.88,0 -92.12,47.59 -92.12,106.29 0,58.71 41.24,106.3 92.12,106.3 50.88,0 92.13,-47.59 92.13,-106.3 z"
         style="fill:none;stroke:#0000ff;stroke-width:28.34600067;stroke-linecap:butt;stroke-linejoin:miter;stroke-miterlimit:10;stroke-dasharray:none;stroke-opacity:1"
         id="path86"
         inkscape:connector-curvature="0" /><path
         d="m 4864.02,366.852 752.83,321.625"
         style="fill:none;stroke:#000000;stroke-width:28.34600067;stroke-linecap:butt;stroke-linejoin:miter;stroke-miterlimit:10;stroke-dasharray:none;stroke-opacity:1"
         id="path88"
         inkscape:connector-curvature="0" /><path
         d="m 5805.15,729.566 c 0,-58.703 -41.25,-106.296 -92.13,-106.296 -50.88,0 -92.12,47.593 -92.12,106.296 0,58.704 41.24,106.297 92.12,106.297 50.88,0 92.13,-47.593 92.13,-106.297"
         style="fill:#0000ff;fill-opacity:1;fill-rule:nonzero;stroke:none"
         id="path90"
         inkscape:connector-curvature="0" /><path
         d="m 5805.15,729.566 c 0,-58.703 -41.25,-106.296 -92.13,-106.296 -50.88,0 -92.12,47.593 -92.12,106.296 0,58.704 41.24,106.297 92.12,106.297 50.88,0 92.13,-47.593 92.13,-106.297 z"
         style="fill:none;stroke:#0000ff;stroke-width:28.34600067;stroke-linecap:butt;stroke-linejoin:miter;stroke-miterlimit:10;stroke-dasharray:none;stroke-opacity:1"
         id="path92"
         inkscape:connector-curvature="0" /><path
         d="m 5713.02,2395.22 0,-1559.357"
         style="fill:none;stroke:#000000;stroke-width:28.34600067;stroke-linecap:butt;stroke-linejoin:miter;stroke-miterlimit:10;stroke-dasharray:none;stroke-opacity:1"
         id="path94"
         inkscape:connector-curvature="0" /><path
         d="m 6433.12,3083.7 170.08,99.21 212.6,-411.02 -155.91,-113.38"
         style="fill:#a52a2a;fill-opacity:1;fill-rule:evenodd;stroke:none"
         id="path96"
         inkscape:connector-curvature="0" /><path
         d="m 6433.12,3083.7 170.08,99.21 212.6,-411.02 -155.91,-113.38 -226.77,425.19 z"
         style="fill:none;stroke:#000000;stroke-width:28.34600067;stroke-linecap:butt;stroke-linejoin:miter;stroke-miterlimit:10;stroke-dasharray:none;stroke-opacity:1"
         id="path98"
         inkscape:connector-curvature="0" /><path
         d="m 5494.56,2715.2 c 30.18,0 49.61,10.89 49.61,38.43 0,23.39 -16.28,33.69 -35.08,36.26 l 0,0.41 c 19.17,3.7 30.39,15.03 30.39,30.1 0,10.63 -4.44,18.55 -12.54,23.76 -7.88,5.02 -20.02,7.15 -35.79,7.15 l -58.44,0 0,-5.69 c 17.2,-1.13 17.6,-1.5 17.6,-12.28 l 0,-99.8 c 0,-11.11 -0.4,-11.52 -17.6,-12.65 l 0,-5.69 61.85,0 m -25.48,70.4 15.18,0 c 25.04,0 38.79,-12.32 38.79,-33.37 0,-23.86 -16.5,-30.21 -33.76,-30.21 -16.84,0 -20.21,2.97 -20.21,15.29 l 0,48.29 m 0,49.28 c 0,8.44 0.62,9.61 17.05,9.61 15.18,0 32.23,-5.39 32.23,-25.26 0,-19.18 -13.27,-26.81 -35.16,-26.81 l -14.12,0 0,42.46"
         style="fill:#000000;fill-opacity:1;fill-rule:nonzero;stroke:none"
         id="path100"
         inkscape:connector-curvature="0" /><path
         d="m 5593.2,2813.76 -30.06,-5.28 0,-5.24 7.4,-0.95 c 5.1,-0.81 6.27,-1.76 6.27,-8.77 l 0,-62.14 c 0,-10.09 -0.99,-10.49 -14.66,-10.49 l 0,-5.69 51.99,0 0,5.69 c -17.38,0 -18.55,0.4 -18.55,10.49 l 0,46.23 c 0,14.74 6.63,19.73 11.14,19.73 3.12,0 6.46,-1.03 12.1,-3.82 1.4,-0.7 2.94,-0.88 3.93,-0.88 4.69,0 8.98,4.84 8.98,10.82 0,4.62 -2.75,10.3 -10.38,10.3 -7.04,0 -12.87,-4.62 -25.77,-16.76 l -2.39,16.76"
         style="fill:#000000;fill-opacity:1;fill-rule:nonzero;stroke:none"
         id="path102"
         inkscape:connector-curvature="0" /><path
         d="m 5701.62,2742.45 c 0,-16.06 -12.79,-20.21 -20.86,-20.21 -12.83,0 -19.03,8.65 -19.03,20.28 0,9.35 4.55,14.12 16.13,18.3 8.25,2.97 19.22,6.74 23.76,9.53 l 0,-27.9 m 18.78,44.99 c 0,11.36 -2.72,26.1 -34.07,26.1 -22.4,0 -40.04,-11.66 -40.04,-22.51 0,-6.38 6.9,-9.35 10.42,-9.35 4.25,0 5.46,2.2 6.49,5.57 4.43,14.71 12.76,19.47 20.86,19.47 8.07,0 17.56,-3.96 17.56,-19.87 l 0,-8.36 c -4.98,-5.17 -24.34,-10.12 -40.11,-15.11 -14.37,-4.36 -18.55,-14.3 -18.55,-23.65 0,-14.19 9.6,-26.87 27.65,-26.87 12.83,0 24.19,6.74 30.79,10.59 2.94,-6.52 6.27,-10.59 13.57,-10.59 7.33,0 15.88,2.05 23.39,5.6 l -1.17,3.78 c -2.75,0 -7.04,0 -9.97,0.77 -3.49,0.81 -6.82,4.55 -6.82,16.91 l 0,47.52"
         style="fill:#000000;fill-opacity:1;fill-rule:nonzero;stroke:none"
         id="path104"
         inkscape:connector-curvature="0" /><path
         d="m 5757.12,2731.38 c 0,-10.09 -0.58,-10.49 -14.66,-10.49 l 0,-5.69 48.1,0 0,5.69 c -13.89,0 -14.66,0.4 -14.66,10.49 l 0,33.1 0.4,0 c 7.99,-12.61 21.89,-29.48 32.05,-39.78 7.22,-7.19 14.85,-9.5 21.08,-9.5 l 14.63,0 0,4.51 c -5.83,1.58 -10.7,4.51 -16.76,10.6 -12.13,11.95 -27.35,30.62 -34.79,41.21 -0.96,1.36 -1.36,2.35 0.58,4.51 9.39,10.78 15.62,16.47 22.3,21.38 6.63,4.91 11.51,7.26 22.84,8.43 l 0,5.57 -20.13,0 c -6.64,0 -8.4,-0.98 -12.28,-5.79 -5.69,-6.96 -25.01,-31.64 -29.52,-38.42 l -0.4,0 0,92.32 -1.4,1.18 -31.05,-4.88 0,-4.91 7.41,-0.77 c 5.09,-0.59 6.26,-1.58 6.26,-8.99 l 0,-109.77"
         style="fill:#000000;fill-opacity:1;fill-rule:nonzero;stroke:none"
         id="path106"
         inkscape:connector-curvature="0" /><path
         d="m 5928.89,2766.83 c 4.26,0 8.11,0.88 8.11,6.82 0,11.7 -3.74,39.89 -39.68,39.89 -30.39,0 -44.8,-21.7 -44.8,-51.08 0,-30.72 13.23,-49.6 44.99,-49.6 21.78,0 32.96,11.91 38.28,27.31 l -6.09,3.16 c -5.5,-11.55 -12.94,-21.09 -28.41,-21.09 -23,0 -27.65,23.87 -27.65,44.59 l 55.25,0 m -55.25,6.82 c 0,8.17 2.86,33.07 22.55,33.07 17.6,0 19.69,-18.92 19.69,-26.69 0,-3.78 -1.14,-6.38 -6.45,-6.38 l -35.79,0"
         style="fill:#000000;fill-opacity:1;fill-rule:nonzero;stroke:none"
         id="path108"
         inkscape:connector-curvature="0" /><path
         d="m 5481.81,375.242 c 30.17,0 49.61,10.891 49.61,38.426 0,23.391 -16.28,33.695 -35.09,36.262 l 0,0.402 c 19.17,3.703 30.39,15.035 30.39,30.106 0,10.632 -4.43,18.55 -12.54,23.757 -7.88,5.024 -20.02,7.153 -35.78,7.153 l -58.45,0 0,-5.684 c 17.2,-1.137 17.6,-1.504 17.6,-12.285 l 0,-99.805 c 0,-11.109 -0.4,-11.512 -17.6,-12.648 l 0,-5.684 61.86,0 m -25.49,70.399 15.18,0 c 25.05,0 38.8,-12.321 38.8,-33.368 0,-23.871 -16.5,-30.211 -33.77,-30.211 -16.83,0 -20.21,2.969 -20.21,15.29 l 0,48.289 m 0,49.277 c 0,8.434 0.63,9.609 17.06,9.609 15.17,0 32.23,-5.39 32.23,-25.265 0,-19.176 -13.28,-26.801 -35.17,-26.801 l -14.12,0 0,42.457"
         style="fill:#000000;fill-opacity:1;fill-rule:nonzero;stroke:none"
         id="path110"
         inkscape:connector-curvature="0" /><path
         d="m 5580.45,473.801 -30.07,-5.281 0,-5.243 7.41,-0.953 c 5.1,-0.808 6.27,-1.762 6.27,-8.765 l 0,-62.149 c 0,-10.082 -0.99,-10.484 -14.67,-10.484 l 0,-5.684 52,0 0,5.684 c -17.39,0 -18.56,0.402 -18.56,10.484 l 0,46.238 c 0,14.739 6.64,19.727 11.15,19.727 3.11,0 6.45,-1.027 12.1,-3.816 1.39,-0.696 2.93,-0.879 3.92,-0.879 4.7,0 8.98,4.84 8.98,10.816 0,4.621 -2.75,10.305 -10.37,10.305 -7.04,0 -12.87,-4.621 -25.78,-16.758 l -2.38,16.758"
         style="fill:#000000;fill-opacity:1;fill-rule:nonzero;stroke:none"
         id="path112"
         inkscape:connector-curvature="0" /><path
         d="m 5688.87,402.484 c 0,-16.058 -12.8,-20.203 -20.87,-20.203 -12.83,0 -19.02,8.653 -19.02,20.278 0,9.347 4.54,14.117 16.13,18.296 8.25,2.969 19.21,6.747 23.76,9.532 l 0,-27.903 m 18.77,44.989 c 0,11.367 -2.71,26.105 -34.06,26.105 -22.4,0 -40.04,-11.656 -40.04,-22.512 0,-6.378 6.89,-9.347 10.41,-9.347 4.25,0 5.46,2.199 6.49,5.57 4.44,14.703 12.76,19.473 20.86,19.473 8.07,0 17.57,-3.961 17.57,-19.875 l 0,-8.36 c -4.99,-5.172 -24.35,-10.121 -40.12,-15.105 -14.37,-4.363 -18.55,-14.301 -18.55,-23.652 0,-14.188 9.61,-26.875 27.65,-26.875 12.83,0 24.2,6.746 30.8,10.597 2.93,-6.527 6.27,-10.597 13.56,-10.597 7.34,0 15.88,2.054 23.4,5.609 l -1.18,3.777 c -2.75,0 -7.04,0 -9.97,0.77 -3.48,0.808 -6.82,4.547 -6.82,16.902 l 0,47.52"
         style="fill:#000000;fill-opacity:1;fill-rule:nonzero;stroke:none"
         id="path114"
         inkscape:connector-curvature="0" /><path
         d="m 5744.37,391.41 c 0,-10.082 -0.59,-10.484 -14.67,-10.484 l 0,-5.684 48.11,0 0,5.684 c -13.9,0 -14.67,0.402 -14.67,10.484 l 0,33.11 0.41,0 c 7.99,-12.614 21.88,-29.481 32.04,-39.782 7.23,-7.187 14.85,-9.496 21.09,-9.496 l 14.62,0 0,4.508 c -5.83,1.578 -10.7,4.512 -16.75,10.598 -12.14,11.953 -27.35,30.617 -34.8,41.211 -0.95,1.359 -1.36,2.347 0.59,4.511 9.39,10.782 15.62,16.465 22.29,21.375 6.64,4.914 11.51,7.262 22.84,8.434 l 0,5.574 -20.13,0 c -6.63,0 -8.39,-0.988 -12.28,-5.793 -5.68,-6.965 -25.01,-31.644 -29.51,-38.426 l -0.41,0 0,92.325 -1.39,1.175 -31.06,-4.879 0,-4.914 7.41,-0.769 c 5.1,-0.586 6.27,-1.574 6.27,-8.981 l 0,-109.781"
         style="fill:#000000;fill-opacity:1;fill-rule:nonzero;stroke:none"
         id="path116"
         inkscape:connector-curvature="0" /><path
         d="m 5916.14,426.867 c 4.25,0 8.1,0.879 8.1,6.821 0,11.695 -3.74,39.89 -39.67,39.89 -30.4,0 -44.81,-21.703 -44.81,-51.074 0,-30.727 13.24,-49.609 44.99,-49.609 21.78,0 32.96,11.917 38.28,27.316 l -6.08,3.152 c -5.5,-11.551 -12.95,-21.082 -28.42,-21.082 -22.99,0 -27.65,23.871 -27.65,44.586 l 55.26,0 m -55.26,6.821 c 0,8.175 2.86,33.074 22.55,33.074 17.6,0 19.69,-18.922 19.69,-26.696 0,-3.777 -1.14,-6.378 -6.45,-6.378 l -35.79,0"
         style="fill:#000000;fill-opacity:1;fill-rule:nonzero;stroke:none"
         id="path118"
         inkscape:connector-curvature="0" /><path
         d="m 4831.7,2847.59 780.52,-294.23"
         style="fill:none;stroke:#000000;stroke-width:28.34600067;stroke-linecap:butt;stroke-linejoin:miter;stroke-miterlimit:10;stroke-dasharray:none;stroke-opacity:1"
         id="path120"
         inkscape:connector-curvature="0" /><path
         d="M 6595.64,608.832 6787.69,528.047 6603.44,17.8164 6390.84,88.6836"
         style="fill:#a52a2a;fill-opacity:1;fill-rule:evenodd;stroke:none"
         id="path122"
         inkscape:connector-curvature="0" /><path
         d="m 6595.64,608.832 192.05,-80.785 -184.25,-510.2306 -212.6,70.8672 204.8,520.1484 z"
         style="fill:none;stroke:#000000;stroke-width:28.34600067;stroke-linecap:butt;stroke-linejoin:miter;stroke-miterlimit:10;stroke-dasharray:none;stroke-opacity:1"
         id="path124"
         inkscape:connector-curvature="0" /><path
         d="m 5810.64,681.918 682.61,-333.16"
         style="fill:none;stroke:#000000;stroke-width:28.34600067;stroke-linecap:butt;stroke-linejoin:miter;stroke-miterlimit:10;stroke-dasharray:none;stroke-opacity:1"
         id="path126"
         inkscape:connector-curvature="0" /><path
         d="m 4760.71,3168.74 184.25,-70.86 -226.53,-500.58 -184.49,75.38"
         style="fill:#a52a2a;fill-opacity:1;fill-rule:evenodd;stroke:none"
         id="path128"
         inkscape:connector-curvature="0" /><path
         d="m 4760.71,3168.74 184.25,-70.86 -226.53,-500.58 -184.49,75.38 226.77,496.06 z"
         style="fill:none;stroke:#000000;stroke-width:28.34600067;stroke-linecap:butt;stroke-linejoin:miter;stroke-miterlimit:10;stroke-dasharray:none;stroke-opacity:1"
         id="path130"
         inkscape:connector-curvature="0" /><path
         d="m 4590.13,538.34 198.42,70.867 150.94,-484.711 -184.24,-70.8632"
         style="fill:#a52a2a;fill-opacity:1;fill-rule:evenodd;stroke:none"
         id="path132"
         inkscape:connector-curvature="0" /><path
         d="M 4590.13,538.34 4788.55,609.207 4939.49,124.496 4755.25,53.6328 4590.13,538.34 Z"
         style="fill:none;stroke:#000000;stroke-width:28.34600067;stroke-linecap:butt;stroke-linejoin:miter;stroke-miterlimit:10;stroke-dasharray:none;stroke-opacity:1"
         id="path134"
         inkscape:connector-curvature="0" /><path
         d="m 2532.56,694.16 9.99,329.78"
         style="fill:none;stroke:#000000;stroke-width:28.34600067;stroke-linecap:butt;stroke-linejoin:miter;stroke-miterlimit:10;stroke-dasharray:none;stroke-opacity:1"
         id="path136"
         inkscape:connector-curvature="0" /><path
         d="m 2529.34,587.91 -66.54,143.813 69.76,-37.563 71.91,33.27"
         style="fill:#000000;fill-opacity:1;fill-rule:evenodd;stroke:none"
         id="path138"
         inkscape:connector-curvature="0" /><path
         d="m 2529.34,587.91 -66.54,143.813 69.76,-37.563 71.91,33.27 -75.13,-139.52 z"
         style="fill:none;stroke:#000000;stroke-width:28.34600067;stroke-linecap:butt;stroke-linejoin:miter;stroke-miterlimit:10;stroke-dasharray:none;stroke-opacity:1"
         id="path140"
         inkscape:connector-curvature="0" /></g></g></svg>