<?xml version='1.0' encoding='UTF-8'?><svg id="qoppa_document" width="1339pt" height="408pt" version="1.1" xmlns="http://www.w3.org/2000/svg" xmlns:xlink="http://www.w3.org/1999/xlink"><!-- jPDFWeb v2021R1.00, Build #105 --><g id="qoppa_viewxform_p0" transform="matrix(1 0 0 1 0 0)"><svg id="qoppa_page_p0" class="qoppa_page" y="0pt" width="1339pt" height="408pt"><rect class="qoppa_pageborder" x="0.5pt" y="0.5pt" width="1338pt" height="407pt" fill="none" /><svg class="qoppa_pagecontents" x="0pt" y="0pt" width="1339pt" height="408pt" viewBox="0 0 1339 408" style="isolation: isolate;" ><g class="qoppa_contentstream" transform="matrix(1 0 0 -1 0 408)" fill="black" stroke="black" stroke-width="1" stroke-linecap="butt" stroke-linejoin="miter" stroke-miterlimit="10"><clipPath id="clip0-1"><path d="M 0 0 L 1339 0 L 1339 408 L 0 408 L 0 0 z "/></clipPath><path clip-path="url(#clip0-1)" fill="#7f7f7f" stroke="none" d="M 62.3613 17.4328 L 195.5873 17.4328 L 195.5873 299.4758 L 62.3613 299.4758 z "/><path clip-path="url(#clip0-1)" fill="none" stroke="#000" stroke-width="2.8346" d="M 62.3613 17.4328 L 195.5873 17.4328 L 195.5873 299.4758 L 62.3613 299.4758 z "/><path clip-path="url(#clip0-1)" fill-rule="evenodd" fill="#00f" stroke="none" d="M 179.997 329.239 C 229.603 332.073 141.73 252.705 82.2035 249.87 C 22.677 247.036 130.392 326.404 179.997 329.239 z "/><path clip-path="url(#clip0-1)" fill="none" stroke="#000" stroke-width="2.8346" d="M 179.997 329.239 C 229.603 332.073 141.73 252.705 82.2035 249.87 C 22.677 247.036 130.392 326.404 179.997 329.239 "/><path clip-path="url(#clip0-1)" fill="#7f7f7f" stroke="none" d="M 430.434 18.2832 L 563.66 18.2832 L 563.66 300.3262 L 430.434 300.3262 z "/><path clip-path="url(#clip0-1)" fill="none" stroke="#000" stroke-width="2.8346" d="M 430.434 18.2832 L 563.66 18.2832 L 563.66 300.3262 L 430.434 300.3262 z "/><path clip-path="url(#clip0-1)" fill-rule="evenodd" fill="#00f" stroke="none" d="M 446.024 263.476 C 494.213 263.476 600.51 185.525 549.487 185.525 C 498.464 185.525 397.836 263.476 446.024 263.476 z "/><path clip-path="url(#clip0-1)" fill="none" stroke="#000" stroke-width="2.8346" d="M 446.024 263.476 C 494.213 263.476 600.51 185.525 549.487 185.525 C 498.464 185.525 397.836 263.476 446.024 263.476 "/><path clip-path="url(#clip0-1)" fill-rule="evenodd" fill="#00f" stroke="none" d="M 446.274 201.54 C 494.462 201.54 600.759 123.589 549.737 123.589 C 498.714 123.589 398.086 201.54 446.274 201.54 z "/><path clip-path="url(#clip0-1)" fill="none" stroke="#000" stroke-width="2.8346" d="M 446.274 201.54 C 494.462 201.54 600.759 123.589 549.737 123.589 C 498.714 123.589 398.086 201.54 446.274 201.54 "/><path clip-path="url(#clip0-1)" fill-rule="evenodd" fill="#00f" stroke="none" d="M 445.14 141.021 C 493.328 141.021 599.626 63.0699 548.603 63.0699 C 497.58 63.0699 396.952 141.021 445.14 141.021 z "/><path clip-path="url(#clip0-1)" fill="none" stroke="#000" stroke-width="2.8346" d="M 445.14 141.021 C 493.328 141.021 599.626 63.0699 548.603 63.0699 C 497.58 63.0699 396.952 141.021 445.14 141.021 "/><path clip-path="url(#clip0-1)" fill-rule="evenodd" fill="#00f" stroke="none" d="M 446.841 324.278 C 495.029 324.278 601.327 246.327 550.304 246.327 C 499.281 246.327 398.652 324.278 446.841 324.278 z "/><path clip-path="url(#clip0-1)" fill="none" stroke="#000" stroke-width="2.8346" d="M 446.841 324.278 C 495.029 324.278 601.327 246.327 550.304 246.327 C 499.281 246.327 398.652 324.278 446.841 324.278 "/><path clip-path="url(#clip0-1)" fill-rule="evenodd" fill="#00f" stroke="none" d="M 445.707 79.5105 C 493.895 79.5105 600.193 1.559 549.17 1.559 C 498.147 1.559 397.519 79.5105 445.707 79.5105 z "/><path clip-path="url(#clip0-1)" fill="none" stroke="#000" stroke-width="2.8346" d="M 445.707 79.5105 C 493.895 79.5105 600.193 1.559 549.17 1.559 C 498.147 1.559 397.519 79.5105 445.707 79.5105 "/><path clip-path="url(#clip0-1)" fill-rule="evenodd" fill="#00f" stroke="none" d="M 178.47 269.004 C 226.549 273.964 140.203 192.47 80.6766 189.635 C 21.15 186.8 130.392 264.043 178.47 269.004 z "/><path clip-path="url(#clip0-1)" fill="none" stroke="#000" stroke-width="2.8346" d="M 178.47 269.004 C 226.549 273.964 140.203 192.47 80.6766 189.635 C 21.15 186.8 130.392 264.043 178.47 269.004 "/><path clip-path="url(#clip0-1)" fill-rule="evenodd" fill="#00f" stroke="none" d="M 176.628 205.934 C 224.281 207.351 138.361 129.4 78.8344 126.565 C 19.3074 123.73 128.974 204.516 176.628 205.934 z "/><path clip-path="url(#clip0-1)" fill="none" stroke="#000" stroke-width="2.8346" d="M 176.628 205.934 C 224.281 207.351 138.361 129.4 78.8344 126.565 C 19.3074 123.73 128.974 204.516 176.628 205.934 "/><path clip-path="url(#clip0-1)" fill-rule="evenodd" fill="#00f" stroke="none" d="M 177.62 144.281 C 227.683 149.242 139.353 67.7469 79.8262 64.9125 C 20.2996 62.0777 127.557 139.321 177.62 144.281 z "/><path clip-path="url(#clip0-1)" fill="none" stroke="#000" stroke-width="2.8346" d="M 177.62 144.281 C 227.683 149.242 139.353 67.7469 79.8262 64.9125 C 20.2996 62.0777 127.557 139.321 177.62 144.281 "/><path clip-path="url(#clip0-1)" fill-rule="evenodd" fill="#00f" stroke="none" d="M 184.281 82.6285 C 232.502 85.4633 146.014 6.0945 86.4875 3.2598 C 26.9609 0.425 136.061 79.7941 184.281 82.6285 z "/><path clip-path="url(#clip0-1)" fill="none" stroke="#000" stroke-width="2.8346" d="M 184.281 82.6285 C 232.502 85.4633 146.014 6.0945 86.4875 3.2598 C 26.9609 0.425 136.061 79.7941 184.281 82.6285 "/><path clip-path="url(#clip0-1)" fill="none" stroke="#0f0" stroke-width="5.6692" d="M 497.801 165.787 L 495.961 367.546 "/><path clip-path="url(#clip0-1)" fill-rule="evenodd" fill="#0f0" stroke="none" d="M 497.801 165.787 C 494.258 165.754 490.682 169.265 490.65 172.808 C 490.618 176.351 494.129 179.927 497.672 179.959 C 501.215 179.991 504.79 176.48 504.823 172.938 C 504.855 169.395 501.344 165.819 497.801 165.787 z "/><path clip-path="url(#clip0-1)" fill="none" stroke="#0f0" stroke-width="5.6692" d="M 497.801 165.787 C 494.258 165.754 490.682 169.265 490.65 172.808 C 490.618 176.351 494.129 179.927 497.672 179.959 C 501.215 179.991 504.79 176.48 504.823 172.938 C 504.855 169.395 501.344 165.819 497.801 165.787 "/><path clip-path="url(#clip0-1)" fill-rule="evenodd" fill="#0f0" stroke="none" d="M 495.863 378.175 L 503.079 364.068 L 495.961 367.546 L 488.907 363.938 z "/><path clip-path="url(#clip0-1)" fill="none" stroke="#0f0" stroke-width="5.6692" d="M 495.863 378.175 L 503.079 364.068 L 495.961 367.546 L 488.907 363.938 z "/><path clip-path="url(#clip0-1)" fill="none" stroke="#f00" stroke-width="5.6692" d="M 501.801 168.223 L 584.967 308.961 "/><path clip-path="url(#clip0-1)" fill-rule="evenodd" fill="#f00" stroke="none" d="M 590.375 318.113 L 589.265 302.306 L 584.967 308.961 L 577.063 309.516 z "/><path clip-path="url(#clip0-1)" fill="none" stroke="#f00" stroke-width="5.6692" d="M 590.375 318.113 L 589.265 302.306 L 584.967 308.961 L 577.063 309.516 z "/><path clip-path="url(#clip0-1)" fill="none" stroke="#f00" stroke-width="5.6692" d="M 492.971 171.918 L 360.875 240.623 "/><path clip-path="url(#clip0-1)" fill-rule="evenodd" fill="#f00" stroke="none" d="M 351.445 245.528 L 367.288 245.275 L 360.875 240.623 L 360.748 232.701 z "/><path clip-path="url(#clip0-1)" fill="none" stroke="#f00" stroke-width="5.6692" d="M 351.445 245.528 L 367.288 245.275 L 360.875 240.623 L 360.748 232.701 z "/><path clip-path="url(#clip0-1)" fill="none" stroke="#0f0" stroke-width="5.6692" d="M 127.371 164.409 L 125.529 366.169 "/><path clip-path="url(#clip0-1)" fill-rule="evenodd" fill="#0f0" stroke="none" d="M 127.371 164.409 C 123.828 164.377 120.252 167.888 120.22 171.43 C 120.188 174.974 123.698 178.549 127.241 178.582 C 130.784 178.614 134.36 175.103 134.392 171.56 C 134.425 168.017 130.914 164.441 127.371 164.409 z "/><path clip-path="url(#clip0-1)" fill="none" stroke="#0f0" stroke-width="5.6692" d="M 127.371 164.409 C 123.828 164.377 120.252 167.888 120.22 171.43 C 120.188 174.974 123.698 178.549 127.241 178.582 C 130.784 178.614 134.36 175.103 134.392 171.56 C 134.425 168.017 130.914 164.441 127.371 164.409 "/><path clip-path="url(#clip0-1)" fill-rule="evenodd" fill="#0f0" stroke="none" d="M 125.432 376.798 L 132.648 362.69 L 125.529 366.169 L 118.475 362.561 z "/><path clip-path="url(#clip0-1)" fill="none" stroke="#0f0" stroke-width="5.6692" d="M 125.432 376.798 L 132.648 362.69 L 125.529 366.169 L 118.475 362.561 z "/><path clip-path="url(#clip0-1)" fill="none" stroke="#f00" stroke-width="5.6692" d="M 131.369 171.097 L 262.604 241.82 "/><path clip-path="url(#clip0-1)" fill-rule="evenodd" fill="#f00" stroke="none" d="M 271.961 246.863 L 262.846 233.901 L 262.604 241.82 L 256.123 246.378 z "/><path clip-path="url(#clip0-1)" fill="none" stroke="#f00" stroke-width="5.6692" d="M 271.961 246.863 L 262.846 233.901 L 262.604 241.82 L 256.123 246.378 z "/><path clip-path="url(#clip0-1)" fill="none" stroke="#f00" stroke-width="5.6692" d="M 122.54 170.541 L 38.2094 311.834 "/><path clip-path="url(#clip0-1)" fill-rule="evenodd" fill="#f00" stroke="none" d="M 32.7617 320.962 L 46.1105 312.423 L 38.2094 311.834 L 33.9402 305.159 z "/><path clip-path="url(#clip0-1)" fill="none" stroke="#f00" stroke-width="5.6692" d="M 32.7617 320.962 L 46.1105 312.423 L 38.2094 311.834 L 33.9402 305.159 z "/><path clip-path="url(#clip0-1)" fill="#000" stroke="none" d="M 63.0652 403.08 L 65.016 403.08 L 68.0188 390.98 L 71.0109 403.08 L 73.1813 403.08 L 76.1809 390.98 L 79.1727 403.08 L 81.1344 403.08 L 77.5484 388.765 L 75.1211 388.765 L 72.1109 401.192 L 69.0676 388.765 L 66.6402 388.765 L 63.0652 403.08 z "/><path clip-path="url(#clip0-1)" fill="#000" stroke="none" d="M 92.9086 395.138 L 92.9086 388.765 L 91.266 388.765 L 91.266 395.079 C 91.266 396.106 91.0605 396.875 90.65 397.386 C 90.2418 397.896 89.6293 398.152 88.8129 398.152 C 87.8277 398.152 87.0516 397.845 86.4848 397.232 C 85.9176 396.621 85.634 395.787 85.634 394.731 L 85.634 388.765 L 83.9914 388.765 L 83.9914 403.549 L 85.634 403.549 L 85.634 397.683 C 86.0594 398.311 86.5605 398.78 87.1371 399.091 C 87.7141 399.404 88.3789 399.56 89.132 399.56 C 90.3738 399.56 91.3137 399.186 91.9516 398.438 C 92.5895 397.69 92.9086 396.59 92.9086 395.138 z "/><path clip-path="url(#clip0-1)" fill="#000" stroke="none" d="M 105.816 394.339 L 105.816 393.459 L 97.8375 393.459 C 97.9133 392.312 98.2703 391.438 98.9082 390.837 C 99.5461 390.238 100.436 389.939 101.577 389.939 C 102.24 389.939 102.88 390.017 103.499 390.173 C 104.12 390.33 104.736 390.564 105.347 390.877 L 105.347 389.235 C 104.723 389.005 104.084 388.83 103.429 388.711 C 102.777 388.591 102.114 388.531 101.442 388.531 C 99.7551 388.531 98.4195 389.018 97.4344 389.994 C 96.4516 390.969 95.9602 392.288 95.9602 393.95 C 95.9602 395.671 96.4297 397.036 97.3684 398.046 C 98.3094 399.055 99.5781 399.56 101.174 399.56 C 102.604 399.56 103.735 399.092 104.566 398.155 C 105.399 397.22 105.816 395.947 105.816 394.339 M 104.173 394.867 C 104.161 395.866 103.891 396.663 103.363 397.257 C 102.838 397.854 102.141 398.152 101.273 398.152 C 100.291 398.152 99.5047 397.864 98.9156 397.287 C 98.3266 396.712 97.9867 395.902 97.8961 394.856 L 104.173 394.867 z "/><path clip-path="url(#clip0-1)" fill="#000" stroke="none" d="M 118.135 394.339 L 118.135 393.459 L 110.156 393.459 C 110.232 392.312 110.589 391.438 111.227 390.837 C 111.865 390.238 112.755 389.939 113.896 389.939 C 114.559 389.939 115.199 390.017 115.818 390.173 C 116.439 390.33 117.055 390.564 117.666 390.877 L 117.666 389.235 C 117.042 389.005 116.403 388.83 115.748 388.711 C 115.095 388.591 114.433 388.531 113.761 388.531 C 112.074 388.531 110.738 389.018 109.753 389.994 C 108.77 390.969 108.279 392.288 108.279 393.95 C 108.279 395.671 108.748 397.036 109.687 398.046 C 110.628 399.055 111.897 399.56 113.493 399.56 C 114.923 399.56 116.054 399.092 116.885 398.155 C 117.718 397.22 118.135 395.947 118.135 394.339 M 116.492 394.867 C 116.48 395.866 116.21 396.663 115.682 397.257 C 115.156 397.854 114.46 398.152 113.592 398.152 C 112.609 398.152 111.823 397.864 111.234 397.287 C 110.645 396.712 110.305 395.902 110.215 394.856 L 116.492 394.867 z "/><path clip-path="url(#clip0-1)" fill="#000" stroke="none" d="M 121.302 388.765 L 122.9446 388.765 L 122.9446 403.549 L 121.302 403.549 z "/><path clip-path="url(#clip0-1)" fill="#000" stroke="none" d="M 135.073 401.437 L 135.073 390.408 L 137.391 390.408 C 139.346 390.408 140.779 390.85 141.688 391.736 C 142.597 392.623 143.052 394.023 143.052 395.938 C 143.052 397.837 142.597 399.228 141.688 400.11 C 140.779 400.995 139.346 401.437 137.391 401.437 L 135.073 401.437 M 133.196 403.08 L 137.097 403.08 C 139.877 403.08 141.915 402.503 143.213 401.349 C 144.514 400.196 145.164 398.391 145.164 395.938 C 145.164 393.471 144.51 391.658 143.202 390.5 C 141.897 389.343 139.862 388.765 137.097 388.765 L 133.196 388.765 L 133.196 403.08 z "/><path clip-path="url(#clip0-1)" fill="#000" stroke="none" d="M 148.559 399.325 L 150.202 399.325 L 150.202 388.765 L 148.559 388.765 L 148.559 399.325 M 148.559 403.549 L 150.202 403.549 L 150.202 401.437 L 148.559 401.437 L 148.559 403.549 z "/><path clip-path="url(#clip0-1)" fill="#000" stroke="none" d="M 160.418 397.683 C 160.212 397.844 159.987 397.963 159.743 398.038 C 159.501 398.114 159.234 398.152 158.943 398.152 C 157.907 398.152 157.111 397.822 156.557 397.162 C 156.002 396.504 155.724 395.56 155.724 394.328 L 155.724 388.765 L 154.082 388.765 L 154.082 399.325 L 155.724 399.325 L 155.724 397.683 C 156.11 398.318 156.611 398.79 157.227 399.098 C 157.846 399.406 158.598 399.56 159.482 399.56 C 159.607 399.56 159.745 399.56 159.897 399.56 C 160.051 399.56 160.221 399.56 160.406 399.56 L 160.418 397.683 z "/><path clip-path="url(#clip0-1)" fill="#000" stroke="none" d="M 171.021 394.339 L 171.021 393.459 L 163.043 393.459 C 163.118 392.312 163.475 391.438 164.113 390.837 C 164.751 390.238 165.641 389.939 166.782 389.939 C 167.445 389.939 168.085 390.017 168.704 390.173 C 169.325 390.33 169.941 390.564 170.552 390.877 L 170.552 389.235 C 169.929 389.005 169.289 388.83 168.634 388.711 C 167.981 388.591 167.319 388.531 166.647 388.531 C 164.96 388.531 163.624 389.018 162.639 389.994 C 161.657 390.969 161.165 392.288 161.165 393.95 C 161.165 395.671 161.634 397.036 162.573 398.046 C 163.514 399.055 164.783 399.56 166.379 399.56 C 167.809 399.56 168.939 399.092 169.771 398.155 C 170.604 397.22 171.021 395.947 171.021 394.339 M 169.379 394.867 C 169.366 395.866 169.096 396.663 168.568 397.257 C 168.043 397.854 167.346 398.152 166.478 398.152 C 165.495 398.152 164.709 397.864 164.12 397.287 C 163.531 396.712 163.191 395.902 163.101 394.856 L 169.379 394.867 z "/><path clip-path="url(#clip0-1)" fill="#000" stroke="none" d="M 181.932 399.091 L 181.932 397.448 C 181.438 397.683 180.942 397.859 180.443 397.976 C 179.947 398.093 179.446 398.152 178.94 398.152 C 177.808 398.152 176.928 397.791 176.3 397.07 C 175.674 396.352 175.361 395.343 175.361 394.045 C 175.361 392.747 175.674 391.738 176.3 391.017 C 176.928 390.298 177.808 389.939 178.94 389.939 C 179.446 389.939 179.947 389.997 180.443 390.115 C 180.942 390.232 181.438 390.408 181.932 390.643 L 181.932 389 C 181.443 388.844 180.936 388.726 180.41 388.648 C 179.887 388.57 179.33 388.531 178.738 388.531 C 177.13 388.531 175.852 389.027 174.903 390.02 C 173.957 391.014 173.484 392.356 173.484 394.045 C 173.484 395.759 173.962 397.106 174.918 398.086 C 175.876 399.069 177.187 399.56 178.852 399.56 C 179.392 399.56 179.919 399.521 180.432 399.443 C 180.948 399.364 181.448 399.247 181.932 399.091 z "/><path clip-path="url(#clip0-1)" fill="#000" stroke="none" d="M 186.804 402.376 L 186.804 399.325 L 190.324 399.325 L 190.324 397.917 L 186.804 397.917 L 186.804 392.197 C 186.804 391.337 186.92 390.784 187.153 390.54 C 187.385 390.296 187.857 390.173 188.568 390.173 L 190.324 390.173 L 190.324 388.765 L 188.568 388.765 C 187.277 388.765 186.386 389.011 185.895 389.502 C 185.406 389.996 185.162 390.895 185.162 392.197 L 185.162 397.917 L 183.988 397.917 L 183.988 399.325 L 185.162 399.325 L 185.162 402.376 L 186.804 402.376 z "/><path clip-path="url(#clip0-1)" fill="#000" stroke="none" d="M 193.02 399.325 L 194.663 399.325 L 194.663 388.765 L 193.02 388.765 L 193.02 399.325 M 193.02 403.549 L 194.663 403.549 L 194.663 401.437 L 193.02 401.437 L 193.02 403.549 z "/><path clip-path="url(#clip0-1)" fill="#000" stroke="none" d="M 202.77 398.152 C 201.829 398.152 201.085 397.785 200.537 397.052 C 199.989 396.321 199.716 395.319 199.716 394.045 C 199.716 392.772 199.987 391.768 200.53 391.035 C 201.075 390.304 201.821 389.939 202.77 389.939 C 203.706 389.939 204.448 390.305 204.996 391.039 C 205.543 391.775 205.817 392.777 205.817 394.045 C 205.817 395.307 205.543 396.307 204.996 397.045 C 204.448 397.783 203.706 398.152 202.77 398.152 M 202.766 399.56 C 204.302 399.56 205.507 399.072 206.382 398.097 C 207.257 397.121 207.694 395.771 207.694 394.045 C 207.694 392.327 207.257 390.978 206.382 389.997 C 205.507 389.02 204.302 388.531 202.766 388.531 C 201.226 388.531 200.02 389.02 199.147 389.997 C 198.275 390.978 197.838 392.327 197.838 394.045 C 197.838 395.771 198.275 397.121 199.147 398.097 C 200.02 399.072 201.226 399.56 202.766 399.56 z "/><path clip-path="url(#clip0-1)" fill="#000" stroke="none" d="M 219.708 395.138 L 219.708 388.765 L 218.065 388.765 L 218.065 395.079 C 218.065 396.106 217.86 396.875 217.449 397.386 C 217.041 397.896 216.429 398.152 215.612 398.152 C 214.627 398.152 213.851 397.845 213.284 397.232 C 212.716 396.621 212.433 395.787 212.433 394.731 L 212.433 388.765 L 210.79 388.765 L 210.79 399.325 L 212.433 399.325 L 212.433 397.683 C 212.858 398.311 213.359 398.78 213.936 399.091 C 214.513 399.404 215.178 399.56 215.931 399.56 C 217.173 399.56 218.113 399.186 218.751 398.438 C 219.389 397.69 219.708 396.59 219.708 395.138 z "/><path clip-path="url(#clip0-1)" fill="#000" stroke="none" d="M 432.555 401.521 L 434.506 401.521 L 437.509 389.421 L 440.501 401.521 L 442.671 401.521 L 445.671 389.421 L 448.663 401.521 L 450.625 401.521 L 447.039 387.206 L 444.611 387.206 L 441.601 399.632 L 438.558 387.206 L 436.13 387.206 L 432.555 401.521 z "/><path clip-path="url(#clip0-1)" fill="#000" stroke="none" d="M 462.399 393.579 L 462.399 387.206 L 460.756 387.206 L 460.756 393.52 C 460.756 394.547 460.551 395.316 460.14 395.827 C 459.732 396.338 459.12 396.593 458.303 396.593 C 457.318 396.593 456.542 396.286 455.975 395.673 C 455.408 395.062 455.124 394.228 455.124 393.172 L 455.124 387.206 L 453.482 387.206 L 453.482 401.99 L 455.124 401.99 L 455.124 396.123 C 455.55 396.752 456.05 397.221 456.627 397.532 C 457.204 397.845 457.869 398.001 458.622 398.001 C 459.864 398.001 460.804 397.627 461.442 396.879 C 462.08 396.131 462.399 395.031 462.399 393.579 z "/><path clip-path="url(#clip0-1)" fill="#000" stroke="none" d="M 475.306 392.78 L 475.306 391.9 L 467.328 391.9 C 467.404 390.753 467.761 389.879 468.398 389.278 C 469.036 388.679 469.926 388.38 471.068 388.38 C 471.73 388.38 472.371 388.458 472.989 388.614 C 473.61 388.771 474.226 389.005 474.837 389.318 L 474.837 387.676 C 474.214 387.446 473.575 387.271 472.919 387.152 C 472.267 387.032 471.604 386.972 470.932 386.972 C 469.245 386.972 467.909 387.459 466.924 388.435 C 465.942 389.41 465.45 390.729 465.45 392.391 C 465.45 394.112 465.92 395.477 466.858 396.487 C 467.8 397.496 469.068 398.001 470.664 398.001 C 472.094 398.001 473.225 397.533 474.056 396.596 C 474.889 395.661 475.306 394.388 475.306 392.78 M 473.664 393.308 C 473.652 394.307 473.381 395.104 472.854 395.698 C 472.328 396.295 471.631 396.593 470.763 396.593 C 469.781 396.593 468.995 396.305 468.406 395.728 C 467.816 395.153 467.477 394.343 467.386 393.296 L 473.664 393.308 z "/><path clip-path="url(#clip0-1)" fill="#000" stroke="none" d="M 487.625 392.78 L 487.625 391.9 L 479.646 391.9 C 479.722 390.753 480.079 389.879 480.717 389.278 C 481.355 388.679 482.245 388.38 483.386 388.38 C 484.049 388.38 484.689 388.458 485.308 388.614 C 485.929 388.771 486.545 389.005 487.156 389.318 L 487.156 387.676 C 486.532 387.446 485.893 387.271 485.238 387.152 C 484.586 387.032 483.923 386.972 483.251 386.972 C 481.564 386.972 480.228 387.459 479.243 388.435 C 478.261 389.41 477.769 390.729 477.769 392.391 C 477.769 394.112 478.238 395.477 479.177 396.487 C 480.118 397.496 481.387 398.001 482.983 398.001 C 484.413 398.001 485.544 397.533 486.375 396.596 C 487.208 395.661 487.625 394.388 487.625 392.78 M 485.982 393.308 C 485.97 394.307 485.7 395.104 485.172 395.698 C 484.646 396.295 483.95 396.593 483.082 396.593 C 482.1 396.593 481.314 396.305 480.725 395.728 C 480.135 395.153 479.796 394.343 479.705 393.296 L 485.982 393.308 z "/><path clip-path="url(#clip0-1)" fill="#000" stroke="none" d="M 490.792 387.206 L 492.435 387.206 L 492.435 401.99 L 490.792 401.99 z "/><path clip-path="url(#clip0-1)" fill="#000" stroke="none" d="M 504.563 399.878 L 504.563 388.849 L 506.88 388.849 C 508.836 388.849 510.269 389.291 511.178 390.176 C 512.087 391.064 512.542 392.464 512.542 394.378 C 512.542 396.278 512.087 397.668 511.178 398.551 C 510.269 399.436 508.836 399.878 506.88 399.878 L 504.563 399.878 M 502.686 401.521 L 506.588 401.521 C 509.367 401.521 511.405 400.944 512.703 399.79 C 514.004 398.636 514.654 396.832 514.654 394.378 C 514.654 391.912 514 390.099 512.692 388.941 C 511.387 387.784 509.352 387.206 506.588 387.206 L 502.686 387.206 L 502.686 401.521 z "/><path clip-path="url(#clip0-1)" fill="#000" stroke="none" d="M 518.049 397.766 L 519.692 397.766 L 519.692 387.206 L 518.049 387.206 L 518.049 397.766 M 518.049 401.99 L 519.692 401.99 L 519.692 399.878 L 518.049 399.878 L 518.049 401.99 z "/><path clip-path="url(#clip0-1)" fill="#000" stroke="none" d="M 529.907 396.123 C 529.702 396.285 529.477 396.404 529.233 396.479 C 528.991 396.555 528.725 396.593 528.434 396.593 C 527.397 396.593 526.602 396.263 526.046 395.603 C 525.492 394.945 525.214 394.001 525.214 392.769 L 525.214 387.206 L 523.571 387.206 L 523.571 397.766 L 525.214 397.766 L 525.214 396.123 C 525.6 396.759 526.102 397.231 526.718 397.539 C 527.336 397.847 528.088 398.001 528.973 398.001 C 529.097 398.001 529.235 398.001 529.387 398.001 C 529.541 398.001 529.711 398.001 529.896 398.001 L 529.907 396.123 z "/><path clip-path="url(#clip0-1)" fill="#000" stroke="none" d="M 540.511 392.78 L 540.511 391.9 L 532.533 391.9 C 532.609 390.753 532.965 389.879 533.603 389.278 C 534.241 388.679 535.131 388.38 536.273 388.38 C 536.935 388.38 537.575 388.458 538.194 388.614 C 538.815 388.771 539.431 389.005 540.042 389.318 L 540.042 387.676 C 539.419 387.446 538.779 387.271 538.124 387.152 C 537.471 387.032 536.809 386.972 536.137 386.972 C 534.45 386.972 533.114 387.459 532.129 388.435 C 531.146 389.41 530.655 390.729 530.655 392.391 C 530.655 394.112 531.125 395.477 532.063 396.487 C 533.004 397.496 534.273 398.001 535.869 398.001 C 537.299 398.001 538.43 397.533 539.261 396.596 C 540.095 395.661 540.511 394.388 540.511 392.78 M 538.869 393.308 C 538.856 394.307 538.586 395.104 538.058 395.698 C 537.533 396.295 536.836 396.593 535.968 396.593 C 534.986 396.593 534.2 396.305 533.611 395.728 C 533.021 395.153 532.682 394.343 532.591 393.296 L 538.869 393.308 z "/><path clip-path="url(#clip0-1)" fill="#000" stroke="none" d="M 551.422 397.532 L 551.422 395.889 C 550.928 396.124 550.432 396.3 549.933 396.417 C 549.437 396.534 548.936 396.593 548.43 396.593 C 547.298 396.593 546.418 396.232 545.79 395.511 C 545.164 394.793 544.852 393.784 544.852 392.486 C 544.852 391.188 545.164 390.179 545.79 389.458 C 546.418 388.739 547.298 388.38 548.43 388.38 C 548.936 388.38 549.437 388.438 549.933 388.556 C 550.432 388.673 550.928 388.849 551.422 389.084 L 551.422 387.441 C 550.933 387.285 550.426 387.167 549.9 387.089 C 549.377 387.011 548.82 386.972 548.229 386.972 C 546.62 386.972 545.341 387.468 544.393 388.461 C 543.447 389.455 542.974 390.797 542.974 392.486 C 542.974 394.2 543.452 395.547 544.408 396.527 C 545.366 397.51 546.677 398.001 548.342 398.001 C 548.882 398.001 549.409 397.962 549.922 397.884 C 550.438 397.805 550.938 397.688 551.422 397.532 z "/><path clip-path="url(#clip0-1)" fill="#000" stroke="none" d="M 556.295 400.817 L 556.295 397.766 L 559.814 397.766 L 559.814 396.358 L 556.295 396.358 L 556.295 390.638 C 556.295 389.778 556.411 389.225 556.643 388.981 C 556.875 388.737 557.347 388.614 558.058 388.614 L 559.814 388.614 L 559.814 387.206 L 558.058 387.206 C 556.768 387.206 555.877 387.452 555.385 387.943 C 554.896 388.437 554.652 389.336 554.652 390.638 L 554.652 396.358 L 553.479 396.358 L 553.479 397.766 L 554.652 397.766 L 554.652 400.817 L 556.295 400.817 z "/><path clip-path="url(#clip0-1)" fill="#000" stroke="none" d="M 562.51 397.766 L 564.153 397.766 L 564.153 387.206 L 562.51 387.206 L 562.51 397.766 M 562.51 401.99 L 564.153 401.99 L 564.153 399.878 L 562.51 399.878 L 562.51 401.99 z "/><path clip-path="url(#clip0-1)" fill="#000" stroke="none" d="M 572.26 396.593 C 571.319 396.593 570.575 396.226 570.027 395.493 C 569.48 394.762 569.206 393.76 569.206 392.486 C 569.206 391.213 569.477 390.209 570.02 389.476 C 570.565 388.745 571.312 388.38 572.26 388.38 C 573.196 388.38 573.938 388.746 574.486 389.48 C 575.033 390.216 575.307 391.218 575.307 392.486 C 575.307 393.748 575.033 394.747 574.486 395.486 C 573.938 396.224 573.196 396.593 572.26 396.593 M 572.257 398.001 C 573.791 398.001 574.996 397.513 575.872 396.538 C 576.747 395.563 577.184 394.212 577.184 392.486 C 577.184 390.768 576.747 389.419 575.872 388.438 C 574.996 387.461 573.791 386.972 572.257 386.972 C 570.716 386.972 569.51 387.461 568.638 388.438 C 567.765 389.419 567.329 390.768 567.329 392.486 C 567.329 394.212 567.765 395.563 568.638 396.538 C 569.51 397.513 570.716 398.001 572.257 398.001 z "/><path clip-path="url(#clip0-1)" fill="#000" stroke="none" d="M 589.198 393.579 L 589.198 387.206 L 587.555 387.206 L 587.555 393.52 C 587.555 394.547 587.35 395.316 586.939 395.827 C 586.531 396.338 585.919 396.593 585.102 396.593 C 584.117 396.593 583.341 396.286 582.774 395.673 C 582.207 395.062 581.923 394.228 581.923 393.172 L 581.923 387.206 L 580.28 387.206 L 580.28 397.766 L 581.923 397.766 L 581.923 396.123 C 582.348 396.752 582.85 397.221 583.427 397.532 C 584.004 397.845 584.668 398.001 585.421 398.001 C 586.663 398.001 587.603 397.627 588.241 396.879 C 588.879 396.131 589.198 395.031 589.198 393.579 z "/><path clip-path="url(#clip0-1)" fill="#000" stroke="none" d="M 1.8773 342.136 L 10.0906 342.136 L 10.0906 340.493 L 3.7547 340.493 L 3.7547 336.27 L 9.3867 336.27 L 9.3867 334.627 L 3.7547 334.627 L 3.7547 327.821 L 1.8773 327.821 L 1.8773 342.136 z "/><path clip-path="url(#clip0-1)" fill="#000" stroke="none" d="M 18.1957 336.739 C 17.9906 336.9 17.7656 337.019 17.5211 337.095 C 17.2793 337.17 17.0129 337.208 16.7219 337.208 C 15.6855 337.208 14.8898 336.878 14.3348 336.218 C 13.7801 335.561 13.5027 334.616 13.5027 333.384 L 13.5027 327.821 L 11.8598 327.821 L 11.8598 338.381 L 13.5027 338.381 L 13.5027 336.739 C 13.8887 337.374 14.3898 337.846 15.0059 338.154 C 15.6242 338.462 16.3758 338.616 17.2609 338.616 C 17.3855 338.616 17.5234 338.616 17.675 338.616 C 17.8293 338.616 17.9992 338.616 18.1848 338.616 L 18.1957 336.739 z "/><path clip-path="url(#clip0-1)" fill="#000" stroke="none" d="M 28.7996 333.395 L 28.7996 332.515 L 20.8207 332.515 C 20.8965 331.368 21.2535 330.495 21.8914 329.893 C 22.5297 329.294 23.4191 328.995 24.5609 328.995 C 25.2234 328.995 25.8637 329.073 26.482 329.23 C 27.1031 329.386 27.7191 329.621 28.3301 329.934 L 28.3301 328.291 C 27.7066 328.061 27.0676 327.886 26.4125 327.766 C 25.7598 327.647 25.0973 327.587 24.425 327.587 C 22.7387 327.587 21.4027 328.075 20.4176 329.05 C 19.4348 330.025 18.9438 331.344 18.9438 333.006 C 18.9438 334.727 19.4129 336.092 20.3516 337.102 C 21.2926 338.111 22.5613 338.616 24.1574 338.616 C 25.5875 338.616 26.718 338.148 27.5492 337.212 C 28.3828 336.275 28.7996 335.003 28.7996 333.395 M 27.1566 333.923 C 27.1445 334.923 26.8746 335.72 26.3465 336.313 C 25.8211 336.91 25.1242 337.208 24.2566 337.208 C 23.2738 337.208 22.4879 336.92 21.8988 336.343 C 21.3098 335.768 20.9699 334.958 20.8797 333.912 L 27.1566 333.923 z "/><path clip-path="url(#clip0-1)" fill="#000" stroke="none" d="M 41.1184 333.395 L 41.1184 332.515 L 33.1398 332.515 C 33.2156 331.368 33.5723 330.495 34.2102 329.893 C 34.8484 329.294 35.7383 328.995 36.8797 328.995 C 37.5422 328.995 38.1824 329.073 38.8008 329.23 C 39.4219 329.386 40.0379 329.621 40.6488 329.934 L 40.6488 328.291 C 40.0258 328.061 39.3863 327.886 38.7313 327.766 C 38.0785 327.647 37.416 327.587 36.7441 327.587 C 35.0574 327.587 33.7215 328.075 32.7363 329.05 C 31.7535 330.025 31.2625 331.344 31.2625 333.006 C 31.2625 334.727 31.7316 336.092 32.6703 337.102 C 33.6113 338.111 34.8801 338.616 36.4762 338.616 C 37.9063 338.616 39.0367 338.148 39.868 337.212 C 40.7016 336.275 41.1184 335.003 41.1184 333.395 M 39.4758 333.923 C 39.4633 334.923 39.1934 335.72 38.6652 336.313 C 38.1398 336.91 37.443 337.208 36.5754 337.208 C 35.5926 337.208 34.8066 336.92 34.2176 336.343 C 33.6285 335.768 33.2887 334.958 33.1984 333.912 L 39.4758 333.923 z "/><path clip-path="url(#clip0-1)" fill="#000" stroke="none" d="M 576.876 337.743 L 585.089 337.743 L 585.089 336.1 L 578.753 336.1 L 578.753 331.876 L 584.385 331.876 L 584.385 330.233 L 578.753 330.233 L 578.753 323.428 L 576.876 323.428 L 576.876 337.743 z "/><path clip-path="url(#clip0-1)" fill="#000" stroke="none" d="M 593.195 332.345 C 592.989 332.507 592.764 332.625 592.52 332.701 C 592.278 332.777 592.011 332.814 591.721 332.814 C 590.684 332.814 589.888 332.484 589.334 331.825 C 588.779 331.167 588.501 330.222 588.501 328.99 L 588.501 323.428 L 586.859 323.428 L 586.859 333.988 L 588.501 333.988 L 588.501 332.345 C 588.888 332.981 589.389 333.452 590.005 333.761 C 590.623 334.068 591.375 334.222 592.259 334.222 C 592.384 334.222 592.522 334.222 592.674 334.222 C 592.828 334.222 592.998 334.222 593.184 334.222 L 593.195 332.345 z "/><path clip-path="url(#clip0-1)" fill="#000" stroke="none" d="M 603.798 329.001 L 603.798 328.121 L 595.82 328.121 C 595.895 326.975 596.252 326.101 596.89 325.5 C 597.528 324.901 598.418 324.601 599.559 324.601 C 600.222 324.601 600.863 324.679 601.481 324.836 C 602.102 324.992 602.718 325.227 603.329 325.54 L 603.329 323.897 C 602.705 323.668 602.066 323.493 601.411 323.373 C 600.759 323.253 600.096 323.193 599.424 323.193 C 597.737 323.193 596.401 323.681 595.416 324.656 C 594.434 325.632 593.942 326.95 593.942 328.613 C 593.942 330.333 594.411 331.698 595.35 332.708 C 596.291 333.718 597.56 334.222 599.156 334.222 C 600.586 334.222 601.717 333.754 602.548 332.818 C 603.381 331.882 603.798 330.61 603.798 329.001 M 602.155 329.529 C 602.143 330.529 601.873 331.326 601.345 331.92 C 600.82 332.516 600.123 332.814 599.255 332.814 C 598.273 332.814 597.487 332.526 596.898 331.949 C 596.308 331.375 595.969 330.564 595.878 329.518 L 602.155 329.529 z "/><path clip-path="url(#clip0-1)" fill="#000" stroke="none" d="M 616.117 329.001 L 616.117 328.121 L 608.138 328.121 C 608.214 326.975 608.571 326.101 609.209 325.5 C 609.847 324.901 610.737 324.601 611.879 324.601 C 612.541 324.601 613.181 324.679 613.8 324.836 C 614.421 324.992 615.036 325.227 615.648 325.54 L 615.648 323.897 C 615.024 323.668 614.385 323.493 613.73 323.373 C 613.077 323.253 612.415 323.193 611.743 323.193 C 610.056 323.193 608.72 323.681 607.735 324.656 C 606.752 325.632 606.261 326.95 606.261 328.613 C 606.261 330.333 606.73 331.698 607.669 332.708 C 608.61 333.718 609.879 334.222 611.475 334.222 C 612.905 334.222 614.036 333.754 614.867 332.818 C 615.7 331.882 616.117 330.61 616.117 329.001 M 614.474 329.529 C 614.462 330.529 614.192 331.326 613.664 331.92 C 613.138 332.516 612.442 332.814 611.574 332.814 C 610.591 332.814 609.805 332.526 609.216 331.949 C 608.627 331.375 608.288 330.564 608.197 329.518 L 614.474 329.529 z "/><path clip-path="url(#clip0-1)" fill="#000" stroke="none" d="M 269.203 274.35 L 269.203 272.238 C 268.56 272.866 267.873 273.335 267.143 273.646 C 266.414 273.959 265.639 274.115 264.818 274.115 C 263.202 274.115 261.964 273.621 261.104 272.634 C 260.246 271.648 259.817 270.225 259.817 268.362 C 259.817 266.504 260.246 265.082 261.104 264.094 C 261.964 263.109 263.202 262.616 264.818 262.616 C 265.639 262.616 266.414 262.771 267.143 263.082 C 267.873 263.395 268.56 263.866 269.203 264.494 L 269.203 262.382 C 268.529 261.913 267.814 261.561 267.058 261.326 C 266.305 261.091 265.509 260.974 264.668 260.974 C 262.509 260.974 260.809 261.634 259.567 262.954 C 258.325 264.274 257.705 266.077 257.705 268.362 C 257.705 270.652 258.325 272.458 259.567 273.778 C 260.809 275.098 262.509 275.757 264.668 275.757 C 265.521 275.757 266.324 275.64 267.077 275.405 C 267.832 275.171 268.541 274.819 269.203 274.35 z "/><path clip-path="url(#clip0-1)" fill="#000" stroke="none" d="M 276.584 270.595 C 275.642 270.595 274.898 270.229 274.35 269.495 C 273.803 268.764 273.529 267.762 273.529 266.488 C 273.529 265.215 273.8 264.211 274.343 263.478 C 274.888 262.747 275.635 262.382 276.584 262.382 C 277.52 262.382 278.262 262.748 278.809 263.482 C 279.357 264.218 279.63 265.22 279.63 266.488 C 279.63 267.75 279.357 268.75 278.809 269.488 C 278.262 270.226 277.52 270.595 276.584 270.595 M 276.58 272.003 C 278.115 272.003 279.32 271.515 280.195 270.54 C 281.07 269.565 281.508 268.214 281.508 266.488 C 281.508 264.77 281.07 263.421 280.195 262.44 C 279.32 261.463 278.115 260.974 276.58 260.974 C 275.04 260.974 273.834 261.463 272.961 262.44 C 272.088 263.421 271.652 264.77 271.652 266.488 C 271.652 268.214 272.088 269.565 272.961 270.54 C 273.834 271.515 275.04 272.003 276.58 272.003 z "/><path clip-path="url(#clip0-1)" fill="#000" stroke="none" d="M 293.521 267.581 L 293.521 261.209 L 291.879 261.209 L 291.879 267.522 C 291.879 268.549 291.673 269.318 291.263 269.829 C 290.854 270.339 290.242 270.595 289.425 270.595 C 288.44 270.595 287.664 270.288 287.097 269.675 C 286.53 269.064 286.246 268.23 286.246 267.174 L 286.246 261.209 L 284.604 261.209 L 284.604 271.768 L 286.246 271.768 L 286.246 270.126 C 286.672 270.754 287.173 271.223 287.75 271.534 C 288.327 271.846 288.991 272.003 289.745 272.003 C 290.986 272.003 291.926 271.629 292.564 270.881 C 293.202 270.133 293.521 269.033 293.521 267.581 z "/><path clip-path="url(#clip0-1)" fill="#000" stroke="none" d="M 304.082 271.534 L 304.082 269.891 C 303.581 270.126 303.061 270.302 302.524 270.419 C 301.986 270.536 301.429 270.595 300.852 270.595 C 299.972 270.595 299.312 270.463 298.872 270.199 C 298.434 269.935 298.216 269.539 298.216 269.011 C 298.216 268.608 298.374 268.291 298.692 268.061 C 299.013 267.832 299.654 267.613 300.617 267.405 L 301.229 267.27 C 302.432 267.005 303.286 266.634 303.793 266.155 C 304.298 265.676 304.552 265.007 304.552 264.149 C 304.552 263.171 304.168 262.398 303.4 261.828 C 302.632 261.259 301.578 260.974 300.236 260.974 C 299.676 260.974 299.093 261.013 298.487 261.091 C 297.883 261.169 297.245 261.287 296.573 261.443 L 296.573 263.32 C 297.218 263.007 297.854 262.773 298.479 262.616 C 299.108 262.46 299.73 262.382 300.346 262.382 C 301.167 262.382 301.799 262.521 302.241 262.8 C 302.686 263.079 302.909 263.472 302.909 263.98 C 302.909 264.452 302.744 264.813 302.414 265.062 C 302.086 265.314 301.366 265.556 300.254 265.788 L 299.631 265.931 C 298.55 266.156 297.771 266.502 297.291 266.969 C 296.813 267.438 296.573 268.081 296.573 268.897 C 296.573 269.888 296.929 270.652 297.64 271.193 C 298.351 271.733 299.362 272.003 300.672 272.003 C 301.32 272.003 301.929 271.964 302.498 271.886 C 303.07 271.807 303.598 271.69 304.082 271.534 z "/><path clip-path="url(#clip0-1)" fill="#000" stroke="none" d="M 309.327 274.819 L 309.327 271.768 L 312.846 271.768 L 312.846 270.36 L 309.327 270.36 L 309.327 264.64 C 309.327 263.78 309.443 263.227 309.675 262.983 C 309.907 262.739 310.379 262.616 311.09 262.616 L 312.846 262.616 L 312.846 261.209 L 311.09 261.209 C 309.8 261.209 308.909 261.454 308.417 261.945 C 307.929 262.439 307.684 263.338 307.684 264.64 L 307.684 270.36 L 306.511 270.36 L 306.511 271.768 L 307.684 271.768 L 307.684 274.819 L 309.327 274.819 z "/><path clip-path="url(#clip0-1)" fill="#000" stroke="none" d="M 321.879 270.126 C 321.673 270.287 321.448 270.405 321.204 270.481 C 320.962 270.557 320.695 270.595 320.404 270.595 C 319.368 270.595 318.572 270.265 318.018 269.605 C 317.463 268.947 317.185 268.003 317.185 266.771 L 317.185 261.209 L 315.543 261.209 L 315.543 271.768 L 317.185 271.768 L 317.185 270.126 C 317.571 270.761 318.073 271.233 318.689 271.541 C 319.307 271.849 320.059 272.003 320.943 272.003 C 321.068 272.003 321.206 272.003 321.358 272.003 C 321.512 272.003 321.682 272.003 321.868 272.003 L 321.879 270.126 z "/><path clip-path="url(#clip0-1)" fill="#000" stroke="none" d="M 328.544 266.606 C 327.094 266.606 326.089 266.442 325.53 266.114 C 324.972 265.787 324.694 265.227 324.694 264.435 C 324.694 263.804 324.903 263.305 325.321 262.936 C 325.741 262.566 326.312 262.382 327.033 262.382 C 328.025 262.382 328.822 262.73 329.424 263.427 C 330.025 264.126 330.326 265.055 330.326 266.213 L 330.326 266.606 L 328.544 266.606 M 331.968 267.35 L 331.968 261.209 L 330.326 261.209 L 330.326 262.851 C 329.925 262.211 329.425 261.738 328.826 261.432 C 328.227 261.127 327.495 260.974 326.63 260.974 C 325.537 260.974 324.667 261.28 324.019 261.894 C 323.374 262.51 323.051 263.335 323.051 264.369 C 323.051 265.574 323.45 266.482 324.246 267.093 C 325.043 267.707 326.231 268.014 327.811 268.014 L 330.326 268.014 L 330.326 268.168 C 330.326 268.94 330.057 269.538 329.519 269.961 C 328.981 270.384 328.226 270.595 327.253 270.595 C 326.635 270.595 326.032 270.517 325.445 270.36 C 324.859 270.204 324.295 269.969 323.755 269.656 L 323.755 271.299 C 324.396 271.534 325.016 271.71 325.618 271.827 C 326.219 271.944 326.806 272.003 327.378 272.003 C 328.918 272.003 330.068 271.618 330.828 270.848 C 331.588 270.078 331.968 268.912 331.968 267.35 z "/><path clip-path="url(#clip0-1)" fill="#000" stroke="none" d="M 336.003 271.768 L 337.646 271.768 L 337.646 261.209 L 336.003 261.209 L 336.003 271.768 M 336.003 275.992 L 337.646 275.992 L 337.646 273.88 L 336.003 273.88 L 336.003 275.992 z "/><path clip-path="url(#clip0-1)" fill="#000" stroke="none" d="M 350.443 267.581 L 350.443 261.209 L 348.8 261.209 L 348.8 267.522 C 348.8 268.549 348.595 269.318 348.184 269.829 C 347.776 270.339 347.163 270.595 346.347 270.595 C 345.362 270.595 344.586 270.288 344.019 269.675 C 343.452 269.064 343.168 268.23 343.168 267.174 L 343.168 261.209 L 341.525 261.209 L 341.525 271.768 L 343.168 271.768 L 343.168 270.126 C 343.593 270.754 344.095 271.223 344.671 271.534 C 345.248 271.846 345.913 272.003 346.666 272.003 C 347.908 272.003 348.848 271.629 349.486 270.881 C 350.123 270.133 350.443 269.033 350.443 267.581 z "/><path clip-path="url(#clip0-1)" fill="#000" stroke="none" d="M 363.35 266.782 L 363.35 265.902 L 355.371 265.902 C 355.447 264.755 355.804 263.881 356.442 263.28 C 357.08 262.681 357.97 262.382 359.112 262.382 C 359.774 262.382 360.414 262.46 361.033 262.616 C 361.654 262.773 362.27 263.007 362.881 263.32 L 362.881 261.678 C 362.257 261.448 361.618 261.273 360.963 261.154 C 360.311 261.034 359.648 260.974 358.976 260.974 C 357.289 260.974 355.954 261.461 354.968 262.437 C 353.986 263.412 353.494 264.731 353.494 266.393 C 353.494 268.114 353.964 269.479 354.902 270.489 C 355.843 271.498 357.112 272.003 358.708 272.003 C 360.138 272.003 361.269 271.535 362.1 270.599 C 362.934 269.663 363.35 268.39 363.35 266.782 M 361.707 267.31 C 361.695 268.309 361.425 269.106 360.897 269.7 C 360.372 270.297 359.675 270.595 358.807 270.595 C 357.825 270.595 357.039 270.307 356.45 269.73 C 355.861 269.155 355.521 268.345 355.43 267.299 L 361.707 267.31 z "/><path clip-path="url(#clip0-1)" fill="#000" stroke="none" d="M 373.792 270.126 L 373.792 275.992 L 375.434 275.992 L 375.434 261.209 L 373.792 261.209 L 373.792 262.851 C 373.415 262.216 372.939 261.744 372.362 261.436 C 371.785 261.128 371.093 260.974 370.286 260.974 C 368.964 260.974 367.887 261.48 367.056 262.492 C 366.227 263.506 365.813 264.838 365.813 266.488 C 365.813 268.138 366.227 269.469 367.056 270.481 C 367.887 271.496 368.964 272.003 370.286 272.003 C 371.093 272.003 371.785 271.849 372.362 271.541 C 372.939 271.233 373.415 270.761 373.792 270.126 M 367.69 266.488 C 367.69 265.207 367.961 264.203 368.501 263.474 C 369.043 262.746 369.789 262.382 370.738 262.382 C 371.683 262.382 372.429 262.746 372.974 263.474 C 373.519 264.203 373.792 265.207 373.792 266.488 C 373.792 267.769 373.519 268.774 372.974 269.502 C 372.429 270.231 371.683 270.595 370.738 270.595 C 369.789 270.595 369.043 270.231 368.501 269.502 C 367.961 268.774 367.69 267.769 367.69 266.488 z "/><path clip-path="url(#clip0-1)" fill="#7f7f7f" stroke="none" d="M 835.782 17.291 L 969.008 17.291 L 969.008 299.334 L 835.782 299.334 z "/><path clip-path="url(#clip0-1)" fill="none" stroke="#000" stroke-width="2.8346" d="M 835.782 17.291 L 969.008 17.291 L 969.008 299.334 L 835.782 299.334 z "/><path clip-path="url(#clip0-1)" fill-rule="evenodd" fill="#00f" stroke="none" d="M 953.418 329.097 C 1003.02 331.932 915.151 252.563 855.624 249.728 C 796.098 246.894 903.812 326.263 953.418 329.097 z "/><path clip-path="url(#clip0-1)" fill="none" stroke="#000" stroke-width="2.8346" d="M 953.418 329.097 C 1003.02 331.932 915.151 252.563 855.624 249.728 C 796.098 246.894 903.812 326.263 953.418 329.097 "/><path clip-path="url(#clip0-1)" fill="#7f7f7f" stroke="none" d="M 1203.85 18.1414 L 1337.076 18.1414 L 1337.076 300.1844 L 1203.85 300.1844 z "/><path clip-path="url(#clip0-1)" fill="none" stroke="#000" stroke-width="2.8346" d="M 1203.85 18.1414 L 1337.076 18.1414 L 1337.076 300.1844 L 1203.85 300.1844 z "/><path clip-path="url(#clip0-1)" fill-rule="evenodd" fill="#00f" stroke="none" d="M 1219.44 263.334 C 1267.63 263.334 1373.93 185.383 1322.91 185.383 C 1271.89 185.383 1171.26 263.334 1219.44 263.334 z "/><path clip-path="url(#clip0-1)" fill="none" stroke="#000" stroke-width="2.8346" d="M 1219.44 263.334 C 1267.63 263.334 1373.93 185.383 1322.91 185.383 C 1271.89 185.383 1171.26 263.334 1219.44 263.334 "/><path clip-path="url(#clip0-1)" fill-rule="evenodd" fill="#00f" stroke="none" d="M 1219.69 201.398 C 1267.88 201.398 1374.18 123.447 1323.16 123.447 C 1272.13 123.447 1171.51 201.398 1219.69 201.398 z "/><path clip-path="url(#clip0-1)" fill="none" stroke="#000" stroke-width="2.8346" d="M 1219.69 201.398 C 1267.88 201.398 1374.18 123.447 1323.16 123.447 C 1272.13 123.447 1171.51 201.398 1219.69 201.398 "/><path clip-path="url(#clip0-1)" fill-rule="evenodd" fill="#00f" stroke="none" d="M 1218.56 140.88 C 1266.75 140.88 1373.05 62.9281 1322.02 62.9281 C 1271 62.9281 1170.37 140.88 1218.56 140.88 z "/><path clip-path="url(#clip0-1)" fill="none" stroke="#000" stroke-width="2.8346" d="M 1218.56 140.88 C 1266.75 140.88 1373.05 62.9281 1322.02 62.9281 C 1271 62.9281 1170.37 140.88 1218.56 140.88 "/><path clip-path="url(#clip0-1)" fill-rule="evenodd" fill="#00f" stroke="none" d="M 1220.26 324.137 C 1268.45 324.137 1374.75 246.185 1323.72 246.185 C 1272.7 246.185 1172.07 324.137 1220.26 324.137 z "/><path clip-path="url(#clip0-1)" fill="none" stroke="#000" stroke-width="2.8346" d="M 1220.26 324.137 C 1268.45 324.137 1374.75 246.185 1323.72 246.185 C 1272.7 246.185 1172.07 324.137 1220.26 324.137 "/><path clip-path="url(#clip0-1)" fill-rule="evenodd" fill="#00f" stroke="none" d="M 1219.13 79.3688 C 1267.32 79.3688 1373.61 1.4172 1322.59 1.4172 C 1271.57 1.4172 1170.94 79.3688 1219.13 79.3688 z "/><path clip-path="url(#clip0-1)" fill="none" stroke="#000" stroke-width="2.8346" d="M 1219.13 79.3688 C 1267.32 79.3688 1373.61 1.4172 1322.59 1.4172 C 1271.57 1.4172 1170.94 79.3688 1219.13 79.3688 "/><path clip-path="url(#clip0-1)" fill-rule="evenodd" fill="#00f" stroke="none" d="M 951.89 268.862 C 999.97 273.822 913.623 192.328 854.096 189.493 C 794.57 186.659 903.812 263.901 951.89 268.862 z "/><path clip-path="url(#clip0-1)" fill="none" stroke="#000" stroke-width="2.8346" d="M 951.89 268.862 C 999.97 273.822 913.623 192.328 854.096 189.493 C 794.57 186.659 903.812 263.901 951.89 268.862 "/><path clip-path="url(#clip0-1)" fill-rule="evenodd" fill="#00f" stroke="none" d="M 950.047 205.792 C 997.703 207.209 911.78 129.258 852.254 126.423 C 792.727 123.589 902.395 204.375 950.047 205.792 z "/><path clip-path="url(#clip0-1)" fill="none" stroke="#000" stroke-width="2.8346" d="M 950.047 205.792 C 997.703 207.209 911.78 129.258 852.254 126.423 C 792.727 123.589 902.395 204.375 950.047 205.792 "/><path clip-path="url(#clip0-1)" fill-rule="evenodd" fill="#00f" stroke="none" d="M 951.039 144.139 C 1001.1 149.1 912.773 67.6051 853.246 64.7707 C 793.719 61.9359 900.978 139.179 951.039 144.139 z "/><path clip-path="url(#clip0-1)" fill="none" stroke="#000" stroke-width="2.8346" d="M 951.039 144.139 C 1001.1 149.1 912.773 67.6051 853.246 64.7707 C 793.719 61.9359 900.978 139.179 951.039 144.139 "/><path clip-path="url(#clip0-1)" fill-rule="evenodd" fill="#00f" stroke="none" d="M 957.701 82.4867 C 1005.92 85.3215 919.434 5.9527 859.907 3.118 C 800.38 0.2836 909.482 79.6523 957.701 82.4867 z "/><path clip-path="url(#clip0-1)" fill="none" stroke="#000" stroke-width="2.8346" d="M 957.701 82.4867 C 1005.92 85.3215 919.434 5.9527 859.907 3.118 C 800.38 0.2836 909.482 79.6523 957.701 82.4867 "/><path clip-path="url(#clip0-1)" fill="none" stroke="#f00" stroke-width="5.6692" d="M 1266.39 171.777 L 1134.3 240.481 "/><path clip-path="url(#clip0-1)" fill-rule="evenodd" fill="#f00" stroke="none" d="M 1124.87 245.386 L 1140.71 245.133 L 1134.3 240.481 L 1134.17 232.559 z "/><path clip-path="url(#clip0-1)" fill="none" stroke="#f00" stroke-width="5.6692" d="M 1124.87 245.386 L 1140.71 245.133 L 1134.3 240.481 L 1134.17 232.559 z "/><path clip-path="url(#clip0-1)" fill="none" stroke="#f00" stroke-width="5.6692" d="M 904.79 170.955 L 1036.03 241.679 "/><path clip-path="url(#clip0-1)" fill-rule="evenodd" fill="#f00" stroke="none" d="M 1045.38 246.721 L 1036.27 233.759 L 1036.03 241.679 L 1029.54 246.236 z "/><path clip-path="url(#clip0-1)" fill="none" stroke="#f00" stroke-width="5.6692" d="M 1045.38 246.721 L 1036.27 233.759 L 1036.03 241.679 L 1029.54 246.236 z "/><path clip-path="url(#clip0-1)" fill="none" stroke="#0f0" stroke-width="5.6692" d="M 911.324 166.249 L 1030.42 166.249 "/><path clip-path="url(#clip0-1)" fill-rule="evenodd" fill="#0f0" stroke="none" d="M 1041.05 166.249 L 1026.87 159.163 L 1030.42 166.249 L 1026.87 173.336 z "/><path clip-path="url(#clip0-1)" fill="none" stroke="#0f0" stroke-width="5.6692" d="M 1041.05 166.249 L 1026.87 159.163 L 1030.42 166.249 L 1026.87 173.336 z "/><path clip-path="url(#clip0-1)" fill="none" stroke="#0f0" stroke-width="5.6692" d="M 1048.8 161.997 L 1048.85 223.284 "/><path clip-path="url(#clip0-1)" fill-rule="evenodd" fill="#0f0" stroke="none" d="M 1048.86 233.913 L 1055.93 219.735 L 1048.85 223.284 L 1041.76 219.746 z "/><path clip-path="url(#clip0-1)" fill="none" stroke="#0f0" stroke-width="5.6692" d="M 1048.86 233.913 L 1055.93 219.735 L 1048.85 223.284 L 1041.76 219.746 z "/><path clip-path="url(#clip0-1)" fill="none" stroke="#0f0" stroke-width="5.6692" d="M 1123.27 161.734 L 1123.32 223.02 "/><path clip-path="url(#clip0-1)" fill-rule="evenodd" fill="#0f0" stroke="none" d="M 1123.32 233.65 L 1130.4 219.471 L 1123.32 223.02 L 1116.23 219.483 z "/><path clip-path="url(#clip0-1)" fill="none" stroke="#0f0" stroke-width="5.6692" d="M 1123.32 233.65 L 1130.4 219.471 L 1123.32 223.02 L 1116.23 219.483 z "/><path clip-path="url(#clip0-1)" fill="none" stroke="#0f0" stroke-width="5.6692" d="M 1141.03 160.62 L 1260.12 160.62 "/><path clip-path="url(#clip0-1)" fill-rule="evenodd" fill="#0f0" stroke="none" d="M 1130.4 160.62 L 1144.57 167.706 L 1141.03 160.62 L 1144.57 153.533 z "/><path clip-path="url(#clip0-1)" fill="none" stroke="#0f0" stroke-width="5.6692" d="M 1130.4 160.62 L 1144.57 167.706 L 1141.03 160.62 L 1144.57 153.533 z "/><path clip-path="url(#clip0-1)" fill="#000" stroke="none" d="M 1055.68 208.91 L 1067.41 208.91 L 1067.41 207.267 L 1062.48 207.267 L 1062.48 194.595 L 1060.6 194.595 L 1060.6 207.267 L 1055.68 207.267 L 1055.68 208.91 z "/><path clip-path="url(#clip0-1)" fill="#000" stroke="none" d="M 1078.65 200.968 L 1078.65 194.595 L 1077.01 194.595 L 1077.01 200.909 C 1077.01 201.936 1076.8 202.705 1076.39 203.216 C 1075.98 203.727 1075.37 203.982 1074.55 203.982 C 1073.57 203.982 1072.79 203.675 1072.22 203.062 C 1071.66 202.45 1071.37 201.617 1071.37 200.561 L 1071.37 194.595 L 1069.73 194.595 L 1069.73 209.379 L 1071.37 209.379 L 1071.37 203.513 C 1071.8 204.141 1072.3 204.61 1072.88 204.921 C 1073.45 205.234 1074.12 205.39 1074.87 205.39 C 1076.11 205.39 1077.05 205.016 1077.69 204.268 C 1078.33 203.52 1078.65 202.42 1078.65 200.968 z "/><path clip-path="url(#clip0-1)" fill="#000" stroke="none" d="M 1091.56 200.169 L 1091.56 199.289 L 1083.58 199.289 C 1083.65 198.142 1084.01 197.268 1084.65 196.667 C 1085.29 196.068 1086.18 195.769 1087.32 195.769 C 1087.98 195.769 1088.62 195.847 1089.24 196.003 C 1089.86 196.16 1090.48 196.395 1091.09 196.707 L 1091.09 195.064 C 1090.46 194.835 1089.82 194.66 1089.17 194.54 C 1088.52 194.421 1087.85 194.361 1087.18 194.361 C 1085.49 194.361 1084.16 194.848 1083.17 195.823 C 1082.19 196.799 1081.7 198.118 1081.7 199.78 C 1081.7 201.501 1082.17 202.866 1083.11 203.875 C 1084.05 204.885 1085.32 205.39 1086.91 205.39 C 1088.34 205.39 1089.47 204.922 1090.31 203.986 C 1091.14 203.049 1091.56 201.777 1091.56 200.169 M 1089.91 200.696 C 1089.9 201.696 1089.63 202.493 1089.1 203.087 C 1088.58 203.684 1087.88 203.982 1087.01 203.982 C 1086.03 203.982 1085.24 203.693 1084.65 203.116 C 1084.07 202.542 1083.73 201.732 1083.64 200.686 L 1089.91 200.696 z "/><path clip-path="url(#clip0-1)" fill="#000" stroke="none" d="M 1101.53 204.921 L 1101.53 203.278 C 1101.03 203.513 1100.51 203.689 1099.97 203.806 C 1099.43 203.923 1098.87 203.982 1098.3 203.982 C 1097.42 203.982 1096.76 203.85 1096.32 203.586 C 1095.88 203.322 1095.66 202.926 1095.66 202.398 C 1095.66 201.995 1095.82 201.678 1096.14 201.448 C 1096.46 201.218 1097.1 201 1098.06 200.792 L 1098.68 200.656 C 1099.88 200.392 1100.73 200.021 1101.24 199.541 C 1101.74 199.063 1102 198.394 1102 197.536 C 1102 196.558 1101.61 195.784 1100.85 195.215 C 1100.08 194.645 1099.02 194.361 1097.68 194.361 C 1097.12 194.361 1096.54 194.4 1095.93 194.478 C 1095.33 194.556 1094.69 194.673 1094.02 194.83 L 1094.02 196.707 C 1094.66 196.395 1095.3 196.16 1095.93 196.003 C 1096.55 195.847 1097.18 195.769 1097.79 195.769 C 1098.61 195.769 1099.24 195.908 1099.69 196.187 C 1100.13 196.465 1100.35 196.859 1100.35 197.367 C 1100.35 197.839 1100.19 198.2 1099.86 198.449 C 1099.53 198.701 1098.81 198.943 1097.7 199.175 L 1097.08 199.318 C 1096 199.543 1095.22 199.889 1094.74 200.355 C 1094.26 200.825 1094.02 201.468 1094.02 202.284 C 1094.02 203.274 1094.37 204.039 1095.09 204.58 C 1095.8 205.12 1096.81 205.39 1098.12 205.39 C 1098.77 205.39 1099.37 205.351 1099.94 205.273 C 1100.52 205.194 1101.04 205.077 1101.53 204.921 z "/><path clip-path="url(#clip0-1)" fill="#000" stroke="none" d="M 1114.28 200.169 L 1114.28 199.289 L 1106.3 199.289 C 1106.38 198.142 1106.74 197.268 1107.37 196.667 C 1108.01 196.068 1108.9 195.769 1110.04 195.769 C 1110.71 195.769 1111.35 195.847 1111.96 196.003 C 1112.59 196.16 1113.2 196.395 1113.81 196.707 L 1113.81 195.064 C 1113.19 194.835 1112.55 194.66 1111.89 194.54 C 1111.24 194.421 1110.58 194.361 1109.91 194.361 C 1108.22 194.361 1106.88 194.848 1105.9 195.823 C 1104.92 196.799 1104.43 198.118 1104.43 199.78 C 1104.43 201.501 1104.89 202.866 1105.83 203.875 C 1106.77 204.885 1108.04 205.39 1109.64 205.39 C 1111.07 205.39 1112.2 204.922 1113.03 203.986 C 1113.86 203.049 1114.28 201.777 1114.28 200.169 M 1112.64 200.696 C 1112.63 201.696 1112.36 202.493 1111.83 203.087 C 1111.3 203.684 1110.61 203.982 1109.74 203.982 C 1108.76 203.982 1107.97 203.693 1107.38 203.116 C 1106.79 202.542 1106.45 201.732 1106.36 200.686 L 1112.64 200.696 z "/><path clip-path="url(#clip0-1)" fill="#000" stroke="none" d="M 1073.55 183.441 L 1073.55 181.564 C 1072.84 181.879 1072.16 182.114 1071.53 182.268 C 1070.9 182.424 1070.29 182.502 1069.7 182.502 C 1068.68 182.502 1067.89 182.305 1067.34 181.912 C 1066.78 181.518 1066.51 180.959 1066.51 180.232 C 1066.51 179.624 1066.69 179.164 1067.05 178.854 C 1067.42 178.543 1068.11 178.293 1069.13 178.102 L 1070.26 177.868 C 1071.7 177.591 1072.77 177.105 1073.45 176.408 C 1074.14 175.712 1074.49 174.779 1074.49 173.611 C 1074.49 172.217 1074.02 171.16 1073.08 170.439 C 1072.15 169.72 1070.77 169.361 1068.97 169.361 C 1068.28 169.361 1067.55 169.439 1066.78 169.596 C 1066.02 169.755 1065.22 169.989 1064.4 170.3 L 1064.4 172.412 C 1065.18 171.945 1065.95 171.593 1066.7 171.356 C 1067.46 171.121 1068.2 171.004 1068.92 171.004 C 1070.02 171.004 1070.87 171.221 1071.47 171.656 C 1072.07 172.091 1072.38 172.713 1072.38 173.519 C 1072.38 174.221 1072.17 174.769 1071.75 175.165 C 1071.34 175.564 1070.66 175.862 1069.71 176.06 L 1068.58 176.288 C 1067.11 176.571 1066.04 177.013 1065.38 177.614 C 1064.73 178.218 1064.4 179.057 1064.4 180.13 C 1064.4 181.374 1064.84 182.354 1065.72 183.071 C 1066.61 183.787 1067.83 184.145 1069.39 184.145 C 1070.05 184.145 1070.73 184.086 1071.43 183.969 C 1072.12 183.852 1072.83 183.675 1073.55 183.441 z "/><path clip-path="url(#clip0-1)" fill="#000" stroke="none" d="M 1077.77 173.779 L 1077.77 180.155 L 1079.42 180.155 L 1079.42 173.845 C 1079.42 172.821 1079.62 172.052 1080.03 171.539 C 1080.44 171.026 1081.05 170.769 1081.87 170.769 C 1082.85 170.769 1083.62 171.075 1084.19 171.686 C 1084.76 172.297 1085.05 173.129 1085.05 174.183 L 1085.05 180.155 L 1086.69 180.155 L 1086.69 169.596 L 1085.05 169.596 L 1085.05 171.238 C 1084.62 170.603 1084.12 170.131 1083.55 169.823 C 1082.98 169.515 1082.32 169.361 1081.56 169.361 C 1080.32 169.361 1079.38 169.736 1078.74 170.487 C 1078.09 171.237 1077.77 172.335 1077.77 173.779 z "/><path clip-path="url(#clip0-1)" fill="#000" stroke="none" d="M 1098.85 178.128 C 1099.3 178.9 1099.83 179.47 1100.45 179.837 C 1101.07 180.206 1101.8 180.39 1102.64 180.39 C 1103.77 180.39 1104.64 180.007 1105.25 179.239 C 1105.86 178.474 1106.17 177.384 1106.17 175.968 L 1106.17 169.596 L 1104.53 169.596 L 1104.53 175.91 C 1104.53 176.951 1104.34 177.723 1103.95 178.227 C 1103.58 178.73 1103 178.982 1102.22 178.982 C 1101.27 178.982 1100.51 178.675 1099.96 178.062 C 1099.41 177.451 1099.13 176.617 1099.13 175.561 L 1099.13 169.596 L 1097.49 169.596 L 1097.49 175.91 C 1097.49 176.956 1097.3 177.73 1096.91 178.23 C 1096.54 178.732 1095.95 178.982 1095.16 178.982 C 1094.22 178.982 1093.47 178.674 1092.92 178.058 C 1092.37 177.445 1092.09 176.613 1092.09 175.561 L 1092.09 169.596 L 1090.45 169.596 L 1090.45 180.155 L 1092.09 180.155 L 1092.09 178.513 C 1092.5 179.154 1092.99 179.627 1093.56 179.932 C 1094.13 180.238 1094.81 180.39 1095.6 180.39 C 1096.39 180.39 1097.06 180.197 1097.62 179.811 C 1098.18 179.425 1098.59 178.864 1098.85 178.128 z "/><path clip-path="url(#clip0-1)" fill="none" stroke="#000" stroke-width="2.8346" stroke-dasharray="56.692" d="M 1027.5 126.999 L 1072.9 68.4555 "/><path clip-path="url(#clip0-1)" fill-rule="evenodd" fill="#000" stroke="none" d="M 1020.98 135.399 L 1035.27 128.542 L 1027.5 126.999 L 1024.07 119.856 z "/><path clip-path="url(#clip0-1)" fill="none" stroke="#000" stroke-width="2.8346" d="M 1020.98 135.399 L 1035.27 128.542 L 1027.5 126.999 L 1024.07 119.856 z "/><path clip-path="url(#clip0-1)" fill="none" stroke="#000" stroke-width="2.8346" stroke-dasharray="56.692" d="M 1139.26 128.65 L 1089.9 68.4555 "/><path clip-path="url(#clip0-1)" fill-rule="evenodd" fill="#000" stroke="none" d="M 1146 136.87 L 1142.5 121.417 L 1139.26 128.65 L 1131.54 130.404 z "/><path clip-path="url(#clip0-1)" fill="none" stroke="#000" stroke-width="2.8346" d="M 1146 136.87 L 1142.5 121.417 L 1139.26 128.65 L 1131.54 130.404 z "/><path clip-path="url(#clip0-1)" fill="#000" stroke="none" d="M 1051.64 61.5105 L 1063.37 61.5105 L 1063.37 59.868 L 1058.44 59.868 L 1058.44 47.1961 L 1056.56 47.1961 L 1056.56 59.868 L 1051.64 59.868 L 1051.64 61.5105 z "/><path clip-path="url(#clip0-1)" fill="#000" stroke="none" d="M 1074.61 53.5688 L 1074.61 47.1961 L 1072.97 47.1961 L 1072.97 53.5102 C 1072.97 54.5367 1072.76 55.3055 1072.35 55.8164 C 1071.94 56.3273 1071.33 56.5828 1070.51 56.5828 C 1069.53 56.5828 1068.75 56.2758 1068.18 55.6625 C 1067.62 55.0512 1067.33 54.2176 1067.33 53.1617 L 1067.33 47.1961 L 1065.69 47.1961 L 1065.69 61.9801 L 1067.33 61.9801 L 1067.33 56.1133 C 1067.76 56.7414 1068.26 57.2109 1068.84 57.5215 C 1069.41 57.8344 1070.08 57.9906 1070.83 57.9906 C 1072.07 57.9906 1073.01 57.6168 1073.65 56.8688 C 1074.29 56.1207 1074.61 55.0207 1074.61 53.5688 z "/><path clip-path="url(#clip0-1)" fill="#000" stroke="none" d="M 1087.52 52.7695 L 1087.52 51.8895 L 1079.54 51.8895 C 1079.61 50.743 1079.97 49.8691 1080.61 49.2676 C 1081.25 48.6688 1082.14 48.3695 1083.28 48.3695 C 1083.94 48.3695 1084.58 48.4477 1085.2 48.6039 C 1085.82 48.7605 1086.44 48.9953 1087.05 49.3082 L 1087.05 47.6652 C 1086.42 47.4355 1085.78 47.2609 1085.13 47.141 C 1084.48 47.0215 1083.81 46.9613 1083.14 46.9613 C 1081.46 46.9613 1080.12 47.4492 1079.13 48.4246 C 1078.15 49.3996 1077.66 50.7184 1077.66 52.3809 C 1077.66 54.1016 1078.13 55.4668 1079.07 56.4762 C 1080.01 57.4859 1081.28 57.9906 1082.87 57.9906 C 1084.3 57.9906 1085.43 57.5227 1086.27 56.5863 C 1087.1 55.65 1087.52 54.3777 1087.52 52.7695 M 1085.87 53.2973 C 1085.86 54.2973 1085.59 55.0941 1085.06 55.6879 C 1084.54 56.2844 1083.84 56.5828 1082.97 56.5828 C 1081.99 56.5828 1081.2 56.2941 1080.62 55.7172 C 1080.03 55.143 1079.69 54.3324 1079.6 53.2863 L 1085.87 53.2973 z "/><path clip-path="url(#clip0-1)" fill="#000" stroke="none" d="M 1097.49 57.5215 L 1097.49 55.8785 C 1096.99 56.1133 1096.47 56.2895 1095.93 56.4066 C 1095.39 56.5238 1094.83 56.5828 1094.26 56.5828 C 1093.38 56.5828 1092.72 56.4508 1092.28 56.1867 C 1091.84 55.9227 1091.62 55.5266 1091.62 54.9988 C 1091.62 54.5953 1091.78 54.2789 1092.1 54.0492 C 1092.42 53.8191 1093.06 53.6004 1094.02 53.3926 L 1094.64 53.257 C 1095.84 52.993 1096.69 52.6215 1097.2 52.1422 C 1097.7 51.6633 1097.96 50.9945 1097.96 50.1367 C 1097.96 49.159 1097.57 48.3852 1096.81 47.8156 C 1096.04 47.2461 1094.98 46.9613 1093.64 46.9613 C 1093.08 46.9613 1092.5 47.0004 1091.89 47.0789 C 1091.29 47.157 1090.65 47.2742 1089.98 47.4309 L 1089.98 49.3082 C 1090.62 48.9953 1091.26 48.7605 1091.89 48.6039 C 1092.51 48.4477 1093.14 48.3695 1093.75 48.3695 C 1094.57 48.3695 1095.21 48.5086 1095.65 48.7875 C 1096.09 49.066 1096.31 49.4598 1096.31 49.968 C 1096.31 50.4398 1096.15 50.8004 1095.82 51.0496 C 1095.49 51.3016 1094.77 51.5434 1093.66 51.7758 L 1093.04 51.9188 C 1091.96 52.1438 1091.18 52.4895 1090.7 52.9563 C 1090.22 53.4258 1089.98 54.0688 1089.98 54.8852 C 1089.98 55.875 1090.33 56.6402 1091.05 57.1805 C 1091.76 57.7207 1092.77 57.9906 1094.08 57.9906 C 1094.73 57.9906 1095.33 57.9516 1095.9 57.8734 C 1096.48 57.7949 1097 57.6777 1097.49 57.5215 z "/><path clip-path="url(#clip0-1)" fill="#000" stroke="none" d="M 1110.24 52.7695 L 1110.24 51.8895 L 1102.26 51.8895 C 1102.34 50.743 1102.7 49.8691 1103.33 49.2676 C 1103.97 48.6688 1104.86 48.3695 1106 48.3695 C 1106.67 48.3695 1107.31 48.4477 1107.92 48.6039 C 1108.55 48.7605 1109.16 48.9953 1109.77 49.3082 L 1109.77 47.6652 C 1109.15 47.4355 1108.51 47.2609 1107.86 47.141 C 1107.2 47.0215 1106.54 46.9613 1105.87 46.9613 C 1104.18 46.9613 1102.85 47.4492 1101.86 48.4246 C 1100.88 49.3996 1100.39 50.7184 1100.39 52.3809 C 1100.39 54.1016 1100.86 55.4668 1101.79 56.4762 C 1102.74 57.4859 1104 57.9906 1105.6 57.9906 C 1107.03 57.9906 1108.16 57.5227 1108.99 56.5863 C 1109.83 55.65 1110.24 54.3777 1110.24 52.7695 M 1108.6 53.2973 C 1108.59 54.2973 1108.32 55.0941 1107.79 55.6879 C 1107.26 56.2844 1106.57 56.5828 1105.7 56.5828 C 1104.72 56.5828 1103.93 56.2941 1103.34 55.7172 C 1102.75 55.143 1102.41 54.3324 1102.32 53.2863 L 1108.6 53.2973 z "/><path clip-path="url(#clip0-1)" fill="#000" stroke="none" d="M 1064.31 35.3375 L 1064.31 33.2258 C 1063.67 33.8539 1062.98 34.3234 1062.25 34.6336 C 1061.52 34.9465 1060.74 35.1031 1059.92 35.1031 C 1058.31 35.1031 1057.07 34.6094 1056.21 33.6219 C 1055.35 32.6367 1054.92 31.2129 1054.92 29.35 C 1054.92 27.4922 1055.35 26.0695 1056.21 25.082 C 1057.07 24.0969 1058.31 23.6043 1059.92 23.6043 C 1060.74 23.6043 1061.52 23.7598 1062.25 24.0703 C 1062.98 24.3832 1063.67 24.8535 1064.31 25.4816 L 1064.31 23.3699 C 1063.63 22.9004 1062.92 22.5484 1062.16 22.3137 C 1061.41 22.0793 1060.61 21.9617 1059.77 21.9617 C 1057.61 21.9617 1055.91 22.6219 1054.67 23.9418 C 1053.43 25.2617 1052.81 27.0645 1052.81 29.35 C 1052.81 31.6406 1053.43 33.4457 1054.67 34.7656 C 1055.91 36.0855 1057.61 36.7457 1059.77 36.7457 C 1060.63 36.7457 1061.43 36.6285 1062.18 36.3938 C 1062.94 36.159 1063.65 35.807 1064.31 35.3375 z "/><path clip-path="url(#clip0-1)" fill="#000" stroke="none" d="M 1072.25 27.5938 C 1070.8 27.5938 1069.8 27.4301 1069.24 27.1023 C 1068.68 26.775 1068.4 26.2152 1068.4 25.423 C 1068.4 24.7926 1068.61 24.2926 1069.03 23.9234 C 1069.45 23.5543 1070.02 23.3699 1070.74 23.3699 C 1071.73 23.3699 1072.53 23.718 1073.13 24.4148 C 1073.73 25.1141 1074.03 26.043 1074.03 27.2016 L 1074.03 27.5938 L 1072.25 27.5938 M 1075.67 28.3383 L 1075.67 22.1965 L 1074.03 22.1965 L 1074.03 23.8391 C 1073.63 23.1988 1073.13 22.7258 1072.53 22.4203 C 1071.93 22.1145 1071.2 21.9617 1070.34 21.9617 C 1069.24 21.9617 1068.37 22.2688 1067.73 22.882 C 1067.08 23.498 1066.76 24.323 1066.76 25.357 C 1066.76 26.5621 1067.16 27.4703 1067.95 28.0813 C 1068.75 28.6949 1069.94 29.0016 1071.52 29.0016 L 1074.03 29.0016 L 1074.03 29.1559 C 1074.03 29.9281 1073.76 30.5258 1073.23 30.9488 C 1072.69 31.3715 1071.93 31.5832 1070.96 31.5832 C 1070.34 31.5832 1069.74 31.5047 1069.15 31.3484 C 1068.56 31.1918 1068 30.9574 1067.46 30.6445 L 1067.46 32.2871 C 1068.1 32.5219 1068.72 32.6977 1069.32 32.8152 C 1069.93 32.9324 1070.51 32.991 1071.08 32.991 C 1072.62 32.991 1073.77 32.6059 1074.53 31.8359 C 1075.29 31.066 1075.67 29.9 1075.67 28.3383 z "/><path clip-path="url(#clip0-1)" fill="#000" stroke="none" d="M 1088.63 28.5691 L 1088.63 22.1965 L 1086.98 22.1965 L 1086.98 28.5105 C 1086.98 29.5371 1086.78 30.3059 1086.37 30.8168 C 1085.96 31.3277 1085.35 31.5832 1084.53 31.5832 C 1083.55 31.5832 1082.77 31.2762 1082.2 30.6629 C 1081.64 30.0516 1081.35 29.218 1081.35 28.1621 L 1081.35 22.1965 L 1079.71 22.1965 L 1079.71 32.7563 L 1081.35 32.7563 L 1081.35 31.1137 C 1081.78 31.7418 1082.28 32.2113 1082.86 32.5219 C 1083.43 32.8348 1084.1 32.991 1084.85 32.991 C 1086.09 32.991 1087.03 32.6172 1087.67 31.8691 C 1088.31 31.1211 1088.63 30.0211 1088.63 28.5691 z "/><path clip-path="url(#clip0-1)" fill="#000" stroke="none" d="M 1100.13 32.5219 L 1100.13 30.8789 C 1099.63 31.1137 1099.14 31.2898 1098.64 31.407 C 1098.14 31.5242 1097.64 31.5832 1097.13 31.5832 C 1096 31.5832 1095.12 31.2227 1094.49 30.5016 C 1093.87 29.7828 1093.56 28.7746 1093.56 27.4766 C 1093.56 26.1785 1093.87 25.1688 1094.49 24.4477 C 1095.12 23.7293 1096 23.3699 1097.13 23.3699 C 1097.64 23.3699 1098.14 23.4285 1098.64 23.5457 C 1099.14 23.6633 1099.63 23.8391 1100.13 24.0738 L 1100.13 22.4313 C 1099.64 22.2746 1099.13 22.1574 1098.6 22.0793 C 1098.08 22.0008 1097.52 21.9617 1096.93 21.9617 C 1095.32 21.9617 1094.05 22.4582 1093.1 23.4504 C 1092.15 24.4453 1091.68 25.7875 1091.68 27.4766 C 1091.68 29.1898 1092.16 30.5367 1093.11 31.5172 C 1094.07 32.4996 1095.38 32.991 1097.05 32.991 C 1097.59 32.991 1098.11 32.952 1098.63 32.8738 C 1099.14 32.7953 1099.64 32.6781 1100.13 32.5219 z "/><path clip-path="url(#clip0-1)" fill="#000" stroke="none" d="M 1112.51 27.7699 L 1112.51 26.8898 L 1104.53 26.8898 C 1104.61 25.7434 1104.96 24.8695 1105.6 24.268 C 1106.24 23.6691 1107.13 23.3699 1108.27 23.3699 C 1108.93 23.3699 1109.57 23.448 1110.19 23.6043 C 1110.81 23.7609 1111.43 23.9957 1112.04 24.3086 L 1112.04 22.6656 C 1111.42 22.4359 1110.78 22.2613 1110.12 22.1414 C 1109.47 22.0219 1108.81 21.9617 1108.13 21.9617 C 1106.45 21.9617 1105.11 22.4496 1104.13 23.425 C 1103.14 24.4 1102.65 25.7188 1102.65 27.3813 C 1102.65 29.102 1103.12 30.4672 1104.06 31.4766 C 1105 32.4863 1106.27 32.991 1107.87 32.991 C 1109.3 32.991 1110.43 32.523 1111.26 31.5867 C 1112.09 30.6504 1112.51 29.3781 1112.51 27.7699 M 1110.87 28.2977 C 1110.85 29.2977 1110.58 30.0945 1110.05 30.6883 C 1109.53 31.2848 1108.83 31.5832 1107.96 31.5832 C 1106.98 31.5832 1106.2 31.2945 1105.61 30.7176 C 1105.02 30.1434 1104.68 29.3328 1104.59 28.2867 L 1110.87 28.2977 z "/><path clip-path="url(#clip0-1)" fill="#000" stroke="none" d="M 1115.67 22.1965 L 1117.3126 22.1965 L 1117.3126 36.9805 L 1115.67 36.9805 z "/></g></svg></svg></g></svg>