<?xml version="1.0" encoding="utf-8"?>
<svg xmlns="http://www.w3.org/2000/svg" xmlns:xlink="http://www.w3.org/1999/xlink" width="600" height="400" viewBox="0 0 2400 1600">
<defs>
  <clipPath id="clip260">
    <rect x="0" y="0" width="2400" height="1600"/>
  </clipPath>
</defs>
<path clip-path="url(#clip260)" d="
M0 1600 L2400 1600 L2400 0 L0 0  Z
  " fill="#ffffff" fill-rule="evenodd" fill-opacity="1"/>
<defs>
  <clipPath id="clip261">
    <rect x="480" y="0" width="1681" height="1600"/>
  </clipPath>
</defs>
<path clip-path="url(#clip260)" d="
M194.422 1486.45 L2352.76 1486.45 L2352.76 47.2441 L194.422 47.2441  Z
  " fill="#ffffff" fill-rule="evenodd" fill-opacity="1"/>
<defs>
  <clipPath id="clip262">
    <rect x="194" y="47" width="2159" height="1440"/>
  </clipPath>
</defs>
<polyline clip-path="url(#clip262)" style="stroke:#000000; stroke-linecap:butt; stroke-linejoin:round; stroke-width:2; stroke-opacity:0.1; fill:none" points="
  535.614,1486.45 535.614,47.2441 
  "/>
<polyline clip-path="url(#clip262)" style="stroke:#000000; stroke-linecap:butt; stroke-linejoin:round; stroke-width:2; stroke-opacity:0.1; fill:none" points="
  884.346,1486.45 884.346,47.2441 
  "/>
<polyline clip-path="url(#clip262)" style="stroke:#000000; stroke-linecap:butt; stroke-linejoin:round; stroke-width:2; stroke-opacity:0.1; fill:none" points="
  1233.08,1486.45 1233.08,47.2441 
  "/>
<polyline clip-path="url(#clip262)" style="stroke:#000000; stroke-linecap:butt; stroke-linejoin:round; stroke-width:2; stroke-opacity:0.1; fill:none" points="
  1581.81,1486.45 1581.81,47.2441 
  "/>
<polyline clip-path="url(#clip262)" style="stroke:#000000; stroke-linecap:butt; stroke-linejoin:round; stroke-width:2; stroke-opacity:0.1; fill:none" points="
  1930.54,1486.45 1930.54,47.2441 
  "/>
<polyline clip-path="url(#clip262)" style="stroke:#000000; stroke-linecap:butt; stroke-linejoin:round; stroke-width:2; stroke-opacity:0.1; fill:none" points="
  2279.27,1486.45 2279.27,47.2441 
  "/>
<polyline clip-path="url(#clip260)" style="stroke:#000000; stroke-linecap:butt; stroke-linejoin:round; stroke-width:4; stroke-opacity:1; fill:none" points="
  194.422,1486.45 2352.76,1486.45 
  "/>
<polyline clip-path="url(#clip260)" style="stroke:#000000; stroke-linecap:butt; stroke-linejoin:round; stroke-width:4; stroke-opacity:1; fill:none" points="
  535.614,1486.45 535.614,1469.18 
  "/>
<polyline clip-path="url(#clip260)" style="stroke:#000000; stroke-linecap:butt; stroke-linejoin:round; stroke-width:4; stroke-opacity:1; fill:none" points="
  884.346,1486.45 884.346,1469.18 
  "/>
<polyline clip-path="url(#clip260)" style="stroke:#000000; stroke-linecap:butt; stroke-linejoin:round; stroke-width:4; stroke-opacity:1; fill:none" points="
  1233.08,1486.45 1233.08,1469.18 
  "/>
<polyline clip-path="url(#clip260)" style="stroke:#000000; stroke-linecap:butt; stroke-linejoin:round; stroke-width:4; stroke-opacity:1; fill:none" points="
  1581.81,1486.45 1581.81,1469.18 
  "/>
<polyline clip-path="url(#clip260)" style="stroke:#000000; stroke-linecap:butt; stroke-linejoin:round; stroke-width:4; stroke-opacity:1; fill:none" points="
  1930.54,1486.45 1930.54,1469.18 
  "/>
<polyline clip-path="url(#clip260)" style="stroke:#000000; stroke-linecap:butt; stroke-linejoin:round; stroke-width:4; stroke-opacity:1; fill:none" points="
  2279.27,1486.45 2279.27,1469.18 
  "/>
<path clip-path="url(#clip260)" d="M491.772 1543.18 L508.091 1543.18 L508.091 1547.12 L486.147 1547.12 L486.147 1543.18 Q488.809 1540.43 493.392 1535.8 Q497.999 1531.15 499.179 1529.81 Q501.425 1527.28 502.304 1525.55 Q503.207 1523.79 503.207 1522.1 Q503.207 1519.34 501.263 1517.61 Q499.341 1515.87 496.239 1515.87 Q494.04 1515.87 491.587 1516.63 Q489.156 1517.4 486.378 1518.95 L486.378 1514.23 Q489.202 1513.09 491.656 1512.51 Q494.11 1511.93 496.147 1511.93 Q501.517 1511.93 504.712 1514.62 Q507.906 1517.31 507.906 1521.8 Q507.906 1523.93 507.096 1525.85 Q506.309 1527.74 504.202 1530.34 Q503.624 1531.01 500.522 1534.23 Q497.42 1537.42 491.772 1543.18 Z" fill="#000000" fill-rule="evenodd" fill-opacity="1" /><path clip-path="url(#clip260)" d="M517.906 1541.24 L522.79 1541.24 L522.79 1547.12 L517.906 1547.12 L517.906 1541.24 Z" fill="#000000" fill-rule="evenodd" fill-opacity="1" /><path clip-path="url(#clip260)" d="M542.975 1515.64 Q539.364 1515.64 537.536 1519.2 Q535.73 1522.75 535.73 1529.87 Q535.73 1536.98 537.536 1540.55 Q539.364 1544.09 542.975 1544.09 Q546.61 1544.09 548.415 1540.55 Q550.244 1536.98 550.244 1529.87 Q550.244 1522.75 548.415 1519.2 Q546.61 1515.64 542.975 1515.64 M542.975 1511.93 Q548.785 1511.93 551.841 1516.54 Q554.92 1521.12 554.92 1529.87 Q554.92 1538.6 551.841 1543.21 Q548.785 1547.79 542.975 1547.79 Q537.165 1547.79 534.086 1543.21 Q531.031 1538.6 531.031 1529.87 Q531.031 1521.12 534.086 1516.54 Q537.165 1511.93 542.975 1511.93 Z" fill="#000000" fill-rule="evenodd" fill-opacity="1" /><path clip-path="url(#clip260)" d="M573.137 1515.64 Q569.526 1515.64 567.697 1519.2 Q565.892 1522.75 565.892 1529.87 Q565.892 1536.98 567.697 1540.55 Q569.526 1544.09 573.137 1544.09 Q576.771 1544.09 578.577 1540.55 Q580.406 1536.98 580.406 1529.87 Q580.406 1522.75 578.577 1519.2 Q576.771 1515.64 573.137 1515.64 M573.137 1511.93 Q578.947 1511.93 582.003 1516.54 Q585.082 1521.12 585.082 1529.87 Q585.082 1538.6 582.003 1543.21 Q578.947 1547.79 573.137 1547.79 Q567.327 1547.79 564.248 1543.21 Q561.193 1538.6 561.193 1529.87 Q561.193 1521.12 564.248 1516.54 Q567.327 1511.93 573.137 1511.93 Z" fill="#000000" fill-rule="evenodd" fill-opacity="1" /><path clip-path="url(#clip260)" d="M841.001 1543.18 L857.321 1543.18 L857.321 1547.12 L835.376 1547.12 L835.376 1543.18 Q838.038 1540.43 842.622 1535.8 Q847.228 1531.15 848.409 1529.81 Q850.654 1527.28 851.534 1525.55 Q852.436 1523.79 852.436 1522.1 Q852.436 1519.34 850.492 1517.61 Q848.571 1515.87 845.469 1515.87 Q843.27 1515.87 840.816 1516.63 Q838.385 1517.4 835.608 1518.95 L835.608 1514.23 Q838.432 1513.09 840.885 1512.51 Q843.339 1511.93 845.376 1511.93 Q850.747 1511.93 853.941 1514.62 Q857.135 1517.31 857.135 1521.8 Q857.135 1523.93 856.325 1525.85 Q855.538 1527.74 853.432 1530.34 Q852.853 1531.01 849.751 1534.23 Q846.649 1537.42 841.001 1543.18 Z" fill="#000000" fill-rule="evenodd" fill-opacity="1" /><path clip-path="url(#clip260)" d="M867.135 1541.24 L872.02 1541.24 L872.02 1547.12 L867.135 1547.12 L867.135 1541.24 Z" fill="#000000" fill-rule="evenodd" fill-opacity="1" /><path clip-path="url(#clip260)" d="M892.205 1515.64 Q888.594 1515.64 886.765 1519.2 Q884.959 1522.75 884.959 1529.87 Q884.959 1536.98 886.765 1540.55 Q888.594 1544.09 892.205 1544.09 Q895.839 1544.09 897.644 1540.55 Q899.473 1536.98 899.473 1529.87 Q899.473 1522.75 897.644 1519.2 Q895.839 1515.64 892.205 1515.64 M892.205 1511.93 Q898.015 1511.93 901.07 1516.54 Q904.149 1521.12 904.149 1529.87 Q904.149 1538.6 901.07 1543.21 Q898.015 1547.79 892.205 1547.79 Q886.394 1547.79 883.316 1543.21 Q880.26 1538.6 880.26 1529.87 Q880.26 1521.12 883.316 1516.54 Q886.394 1511.93 892.205 1511.93 Z" fill="#000000" fill-rule="evenodd" fill-opacity="1" /><path clip-path="url(#clip260)" d="M912.413 1512.56 L930.769 1512.56 L930.769 1516.5 L916.695 1516.5 L916.695 1524.97 Q917.714 1524.62 918.732 1524.46 Q919.751 1524.27 920.769 1524.27 Q926.556 1524.27 929.936 1527.44 Q933.316 1530.62 933.316 1536.03 Q933.316 1541.61 929.843 1544.71 Q926.371 1547.79 920.052 1547.79 Q917.876 1547.79 915.607 1547.42 Q913.362 1547.05 910.955 1546.31 L910.955 1541.61 Q913.038 1542.74 915.26 1543.3 Q917.482 1543.86 919.959 1543.86 Q923.964 1543.86 926.302 1541.75 Q928.64 1539.64 928.64 1536.03 Q928.64 1532.42 926.302 1530.31 Q923.964 1528.21 919.959 1528.21 Q918.084 1528.21 916.209 1528.62 Q914.357 1529.04 912.413 1529.92 L912.413 1512.56 Z" fill="#000000" fill-rule="evenodd" fill-opacity="1" /><path clip-path="url(#clip260)" d="M1189.24 1543.18 L1205.55 1543.18 L1205.55 1547.12 L1183.61 1547.12 L1183.61 1543.18 Q1186.27 1540.43 1190.86 1535.8 Q1195.46 1531.15 1196.64 1529.81 Q1198.89 1527.28 1199.77 1525.55 Q1200.67 1523.79 1200.67 1522.1 Q1200.67 1519.34 1198.73 1517.61 Q1196.8 1515.87 1193.7 1515.87 Q1191.5 1515.87 1189.05 1516.63 Q1186.62 1517.4 1183.84 1518.95 L1183.84 1514.23 Q1186.67 1513.09 1189.12 1512.51 Q1191.57 1511.93 1193.61 1511.93 Q1198.98 1511.93 1202.17 1514.62 Q1205.37 1517.31 1205.37 1521.8 Q1205.37 1523.93 1204.56 1525.85 Q1203.77 1527.74 1201.67 1530.34 Q1201.09 1531.01 1197.99 1534.23 Q1194.88 1537.42 1189.24 1543.18 Z" fill="#000000" fill-rule="evenodd" fill-opacity="1" /><path clip-path="url(#clip260)" d="M1215.37 1541.24 L1220.25 1541.24 L1220.25 1547.12 L1215.37 1547.12 L1215.37 1541.24 Z" fill="#000000" fill-rule="evenodd" fill-opacity="1" /><path clip-path="url(#clip260)" d="M1231.25 1543.18 L1238.89 1543.18 L1238.89 1516.82 L1230.58 1518.49 L1230.58 1514.23 L1238.84 1512.56 L1243.52 1512.56 L1243.52 1543.18 L1251.16 1543.18 L1251.16 1547.12 L1231.25 1547.12 L1231.25 1543.18 Z" fill="#000000" fill-rule="evenodd" fill-opacity="1" /><path clip-path="url(#clip260)" d="M1270.6 1515.64 Q1266.99 1515.64 1265.16 1519.2 Q1263.36 1522.75 1263.36 1529.87 Q1263.36 1536.98 1265.16 1540.55 Q1266.99 1544.09 1270.6 1544.09 Q1274.23 1544.09 1276.04 1540.55 Q1277.87 1536.98 1277.87 1529.87 Q1277.87 1522.75 1276.04 1519.2 Q1274.23 1515.64 1270.6 1515.64 M1270.6 1511.93 Q1276.41 1511.93 1279.47 1516.54 Q1282.54 1521.12 1282.54 1529.87 Q1282.54 1538.6 1279.47 1543.21 Q1276.41 1547.79 1270.6 1547.79 Q1264.79 1547.79 1261.71 1543.21 Q1258.66 1538.6 1258.66 1529.87 Q1258.66 1521.12 1261.71 1516.54 Q1264.79 1511.93 1270.6 1511.93 Z" fill="#000000" fill-rule="evenodd" fill-opacity="1" /><path clip-path="url(#clip260)" d="M1538.46 1543.18 L1554.78 1543.18 L1554.78 1547.12 L1532.84 1547.12 L1532.84 1543.18 Q1535.5 1540.43 1540.08 1535.8 Q1544.69 1531.15 1545.87 1529.81 Q1548.12 1527.28 1549 1525.55 Q1549.9 1523.79 1549.9 1522.1 Q1549.9 1519.34 1547.96 1517.61 Q1546.03 1515.87 1542.93 1515.87 Q1540.73 1515.87 1538.28 1516.63 Q1535.85 1517.4 1533.07 1518.95 L1533.07 1514.23 Q1535.9 1513.09 1538.35 1512.51 Q1540.8 1511.93 1542.84 1511.93 Q1548.21 1511.93 1551.4 1514.62 Q1554.6 1517.31 1554.6 1521.8 Q1554.6 1523.93 1553.79 1525.85 Q1553 1527.74 1550.89 1530.34 Q1550.32 1531.01 1547.21 1534.23 Q1544.11 1537.42 1538.46 1543.18 Z" fill="#000000" fill-rule="evenodd" fill-opacity="1" /><path clip-path="url(#clip260)" d="M1564.6 1541.24 L1569.48 1541.24 L1569.48 1547.12 L1564.6 1547.12 L1564.6 1541.24 Z" fill="#000000" fill-rule="evenodd" fill-opacity="1" /><path clip-path="url(#clip260)" d="M1580.48 1543.18 L1588.12 1543.18 L1588.12 1516.82 L1579.81 1518.49 L1579.81 1514.23 L1588.07 1512.56 L1592.75 1512.56 L1592.75 1543.18 L1600.39 1543.18 L1600.39 1547.12 L1580.48 1547.12 L1580.48 1543.18 Z" fill="#000000" fill-rule="evenodd" fill-opacity="1" /><path clip-path="url(#clip260)" d="M1609.88 1512.56 L1628.23 1512.56 L1628.23 1516.5 L1614.16 1516.5 L1614.16 1524.97 Q1615.18 1524.62 1616.2 1524.46 Q1617.21 1524.27 1618.23 1524.27 Q1624.02 1524.27 1627.4 1527.44 Q1630.78 1530.62 1630.78 1536.03 Q1630.78 1541.61 1627.31 1544.71 Q1623.83 1547.79 1617.51 1547.79 Q1615.34 1547.79 1613.07 1547.42 Q1610.83 1547.05 1608.42 1546.31 L1608.42 1541.61 Q1610.5 1542.74 1612.72 1543.3 Q1614.95 1543.86 1617.42 1543.86 Q1621.43 1543.86 1623.76 1541.75 Q1626.1 1539.64 1626.1 1536.03 Q1626.1 1532.42 1623.76 1530.31 Q1621.43 1528.21 1617.42 1528.21 Q1615.55 1528.21 1613.67 1528.62 Q1611.82 1529.04 1609.88 1529.92 L1609.88 1512.56 Z" fill="#000000" fill-rule="evenodd" fill-opacity="1" /><path clip-path="url(#clip260)" d="M1886.7 1543.18 L1903.02 1543.18 L1903.02 1547.12 L1881.07 1547.12 L1881.07 1543.18 Q1883.74 1540.43 1888.32 1535.8 Q1892.93 1531.15 1894.11 1529.81 Q1896.35 1527.28 1897.23 1525.55 Q1898.13 1523.79 1898.13 1522.1 Q1898.13 1519.34 1896.19 1517.61 Q1894.27 1515.87 1891.17 1515.87 Q1888.97 1515.87 1886.51 1516.63 Q1884.08 1517.4 1881.3 1518.95 L1881.3 1514.23 Q1884.13 1513.09 1886.58 1512.51 Q1889.04 1511.93 1891.07 1511.93 Q1896.44 1511.93 1899.64 1514.62 Q1902.83 1517.31 1902.83 1521.8 Q1902.83 1523.93 1902.02 1525.85 Q1901.24 1527.74 1899.13 1530.34 Q1898.55 1531.01 1895.45 1534.23 Q1892.35 1537.42 1886.7 1543.18 Z" fill="#000000" fill-rule="evenodd" fill-opacity="1" /><path clip-path="url(#clip260)" d="M1912.83 1541.24 L1917.72 1541.24 L1917.72 1547.12 L1912.83 1547.12 L1912.83 1541.24 Z" fill="#000000" fill-rule="evenodd" fill-opacity="1" /><path clip-path="url(#clip260)" d="M1931.93 1543.18 L1948.25 1543.18 L1948.25 1547.12 L1926.3 1547.12 L1926.3 1543.18 Q1928.97 1540.43 1933.55 1535.8 Q1938.16 1531.15 1939.34 1529.81 Q1941.58 1527.28 1942.46 1525.55 Q1943.36 1523.79 1943.36 1522.1 Q1943.36 1519.34 1941.42 1517.61 Q1939.5 1515.87 1936.4 1515.87 Q1934.2 1515.87 1931.74 1516.63 Q1929.31 1517.4 1926.54 1518.95 L1926.54 1514.23 Q1929.36 1513.09 1931.81 1512.51 Q1934.27 1511.93 1936.3 1511.93 Q1941.67 1511.93 1944.87 1514.62 Q1948.06 1517.31 1948.06 1521.8 Q1948.06 1523.93 1947.25 1525.85 Q1946.47 1527.74 1944.36 1530.34 Q1943.78 1531.01 1940.68 1534.23 Q1937.58 1537.42 1931.93 1543.18 Z" fill="#000000" fill-rule="evenodd" fill-opacity="1" /><path clip-path="url(#clip260)" d="M1968.06 1515.64 Q1964.45 1515.64 1962.62 1519.2 Q1960.82 1522.75 1960.82 1529.87 Q1960.82 1536.98 1962.62 1540.55 Q1964.45 1544.09 1968.06 1544.09 Q1971.7 1544.09 1973.5 1540.55 Q1975.33 1536.98 1975.33 1529.87 Q1975.33 1522.75 1973.5 1519.2 Q1971.7 1515.64 1968.06 1515.64 M1968.06 1511.93 Q1973.87 1511.93 1976.93 1516.54 Q1980.01 1521.12 1980.01 1529.87 Q1980.01 1538.6 1976.93 1543.21 Q1973.87 1547.79 1968.06 1547.79 Q1962.25 1547.79 1959.17 1543.21 Q1956.12 1538.6 1956.12 1529.87 Q1956.12 1521.12 1959.17 1516.54 Q1962.25 1511.93 1968.06 1511.93 Z" fill="#000000" fill-rule="evenodd" fill-opacity="1" /><path clip-path="url(#clip260)" d="M2235.93 1543.18 L2252.25 1543.18 L2252.25 1547.12 L2230.3 1547.12 L2230.3 1543.18 Q2232.96 1540.43 2237.55 1535.8 Q2242.15 1531.15 2243.34 1529.81 Q2245.58 1527.28 2246.46 1525.55 Q2247.36 1523.79 2247.36 1522.1 Q2247.36 1519.34 2245.42 1517.61 Q2243.5 1515.87 2240.4 1515.87 Q2238.2 1515.87 2235.74 1516.63 Q2233.31 1517.4 2230.53 1518.95 L2230.53 1514.23 Q2233.36 1513.09 2235.81 1512.51 Q2238.27 1511.93 2240.3 1511.93 Q2245.67 1511.93 2248.87 1514.62 Q2252.06 1517.31 2252.06 1521.8 Q2252.06 1523.93 2251.25 1525.85 Q2250.46 1527.74 2248.36 1530.34 Q2247.78 1531.01 2244.68 1534.23 Q2241.58 1537.42 2235.93 1543.18 Z" fill="#000000" fill-rule="evenodd" fill-opacity="1" /><path clip-path="url(#clip260)" d="M2262.06 1541.24 L2266.95 1541.24 L2266.95 1547.12 L2262.06 1547.12 L2262.06 1541.24 Z" fill="#000000" fill-rule="evenodd" fill-opacity="1" /><path clip-path="url(#clip260)" d="M2281.16 1543.18 L2297.48 1543.18 L2297.48 1547.12 L2275.53 1547.12 L2275.53 1543.18 Q2278.2 1540.43 2282.78 1535.8 Q2287.39 1531.15 2288.57 1529.81 Q2290.81 1527.28 2291.69 1525.55 Q2292.59 1523.79 2292.59 1522.1 Q2292.59 1519.34 2290.65 1517.61 Q2288.73 1515.87 2285.63 1515.87 Q2283.43 1515.87 2280.97 1516.63 Q2278.54 1517.4 2275.77 1518.95 L2275.77 1514.23 Q2278.59 1513.09 2281.04 1512.51 Q2283.5 1511.93 2285.53 1511.93 Q2290.9 1511.93 2294.1 1514.62 Q2297.29 1517.31 2297.29 1521.8 Q2297.29 1523.93 2296.48 1525.85 Q2295.7 1527.74 2293.59 1530.34 Q2293.01 1531.01 2289.91 1534.23 Q2286.81 1537.42 2281.16 1543.18 Z" fill="#000000" fill-rule="evenodd" fill-opacity="1" /><path clip-path="url(#clip260)" d="M2307.34 1512.56 L2325.7 1512.56 L2325.7 1516.5 L2311.62 1516.5 L2311.62 1524.97 Q2312.64 1524.62 2313.66 1524.46 Q2314.68 1524.27 2315.7 1524.27 Q2321.48 1524.27 2324.86 1527.44 Q2328.24 1530.62 2328.24 1536.03 Q2328.24 1541.61 2324.77 1544.71 Q2321.3 1547.79 2314.98 1547.79 Q2312.8 1547.79 2310.53 1547.42 Q2308.29 1547.05 2305.88 1546.31 L2305.88 1541.61 Q2307.96 1542.74 2310.19 1543.3 Q2312.41 1543.86 2314.89 1543.86 Q2318.89 1543.86 2321.23 1541.75 Q2323.57 1539.64 2323.57 1536.03 Q2323.57 1532.42 2321.23 1530.31 Q2318.89 1528.21 2314.89 1528.21 Q2313.01 1528.21 2311.14 1528.62 Q2309.28 1529.04 2307.34 1529.92 L2307.34 1512.56 Z" fill="#000000" fill-rule="evenodd" fill-opacity="1" /><polyline clip-path="url(#clip262)" style="stroke:#000000; stroke-linecap:butt; stroke-linejoin:round; stroke-width:2; stroke-opacity:0.1; fill:none" points="
  194.422,1463.29 2352.76,1463.29 
  "/>
<polyline clip-path="url(#clip262)" style="stroke:#000000; stroke-linecap:butt; stroke-linejoin:round; stroke-width:2; stroke-opacity:0.1; fill:none" points="
  194.422,1232.58 2352.76,1232.58 
  "/>
<polyline clip-path="url(#clip262)" style="stroke:#000000; stroke-linecap:butt; stroke-linejoin:round; stroke-width:2; stroke-opacity:0.1; fill:none" points="
  194.422,1001.88 2352.76,1001.88 
  "/>
<polyline clip-path="url(#clip262)" style="stroke:#000000; stroke-linecap:butt; stroke-linejoin:round; stroke-width:2; stroke-opacity:0.1; fill:none" points="
  194.422,771.172 2352.76,771.172 
  "/>
<polyline clip-path="url(#clip262)" style="stroke:#000000; stroke-linecap:butt; stroke-linejoin:round; stroke-width:2; stroke-opacity:0.1; fill:none" points="
  194.422,540.467 2352.76,540.467 
  "/>
<polyline clip-path="url(#clip262)" style="stroke:#000000; stroke-linecap:butt; stroke-linejoin:round; stroke-width:2; stroke-opacity:0.1; fill:none" points="
  194.422,309.761 2352.76,309.761 
  "/>
<polyline clip-path="url(#clip262)" style="stroke:#000000; stroke-linecap:butt; stroke-linejoin:round; stroke-width:2; stroke-opacity:0.1; fill:none" points="
  194.422,79.0556 2352.76,79.0556 
  "/>
<polyline clip-path="url(#clip260)" style="stroke:#000000; stroke-linecap:butt; stroke-linejoin:round; stroke-width:4; stroke-opacity:1; fill:none" points="
  194.422,1486.45 194.422,47.2441 
  "/>
<polyline clip-path="url(#clip260)" style="stroke:#000000; stroke-linecap:butt; stroke-linejoin:round; stroke-width:4; stroke-opacity:1; fill:none" points="
  194.422,1463.29 220.322,1463.29 
  "/>
<polyline clip-path="url(#clip260)" style="stroke:#000000; stroke-linecap:butt; stroke-linejoin:round; stroke-width:4; stroke-opacity:1; fill:none" points="
  194.422,1232.58 220.322,1232.58 
  "/>
<polyline clip-path="url(#clip260)" style="stroke:#000000; stroke-linecap:butt; stroke-linejoin:round; stroke-width:4; stroke-opacity:1; fill:none" points="
  194.422,1001.88 220.322,1001.88 
  "/>
<polyline clip-path="url(#clip260)" style="stroke:#000000; stroke-linecap:butt; stroke-linejoin:round; stroke-width:4; stroke-opacity:1; fill:none" points="
  194.422,771.172 220.322,771.172 
  "/>
<polyline clip-path="url(#clip260)" style="stroke:#000000; stroke-linecap:butt; stroke-linejoin:round; stroke-width:4; stroke-opacity:1; fill:none" points="
  194.422,540.467 220.322,540.467 
  "/>
<polyline clip-path="url(#clip260)" style="stroke:#000000; stroke-linecap:butt; stroke-linejoin:round; stroke-width:4; stroke-opacity:1; fill:none" points="
  194.422,309.761 220.322,309.761 
  "/>
<polyline clip-path="url(#clip260)" style="stroke:#000000; stroke-linecap:butt; stroke-linejoin:round; stroke-width:4; stroke-opacity:1; fill:none" points="
  194.422,79.0556 220.322,79.0556 
  "/>
<path clip-path="url(#clip260)" d="M51.4782 1463.74 L81.154 1463.74 L81.154 1467.67 L51.4782 1467.67 L51.4782 1463.74 Z" fill="#000000" fill-rule="evenodd" fill-opacity="1" /><path clip-path="url(#clip260)" d="M105.413 1461.93 Q108.77 1462.65 110.645 1464.92 Q112.543 1467.19 112.543 1470.52 Q112.543 1475.64 109.024 1478.44 Q105.506 1481.24 99.0243 1481.24 Q96.8484 1481.24 94.5336 1480.8 Q92.2419 1480.38 89.7882 1479.53 L89.7882 1475.01 Q91.7326 1476.15 94.0475 1476.73 Q96.3623 1477.3 98.8854 1477.3 Q103.284 1477.3 105.575 1475.57 Q107.89 1473.83 107.89 1470.52 Q107.89 1467.47 105.737 1465.75 Q103.608 1464.02 99.7882 1464.02 L95.7604 1464.02 L95.7604 1460.17 L99.9733 1460.17 Q103.422 1460.17 105.251 1458.81 Q107.08 1457.42 107.08 1454.83 Q107.08 1452.17 105.182 1450.75 Q103.307 1449.32 99.7882 1449.32 Q97.8669 1449.32 95.6678 1449.74 Q93.4688 1450.15 90.8299 1451.03 L90.8299 1446.86 Q93.4919 1446.12 95.8067 1445.75 Q98.1447 1445.38 100.205 1445.38 Q105.529 1445.38 108.631 1447.81 Q111.733 1450.22 111.733 1454.34 Q111.733 1457.21 110.089 1459.2 Q108.446 1461.17 105.413 1461.93 Z" fill="#000000" fill-rule="evenodd" fill-opacity="1" /><path clip-path="url(#clip260)" d="M121.408 1474.69 L126.293 1474.69 L126.293 1480.57 L121.408 1480.57 L121.408 1474.69 Z" fill="#000000" fill-rule="evenodd" fill-opacity="1" /><path clip-path="url(#clip260)" d="M146.478 1449.09 Q142.867 1449.09 141.038 1452.65 Q139.232 1456.19 139.232 1463.32 Q139.232 1470.43 141.038 1473.99 Q142.867 1477.54 146.478 1477.54 Q150.112 1477.54 151.918 1473.99 Q153.746 1470.43 153.746 1463.32 Q153.746 1456.19 151.918 1452.65 Q150.112 1449.09 146.478 1449.09 M146.478 1445.38 Q152.288 1445.38 155.343 1449.99 Q158.422 1454.57 158.422 1463.32 Q158.422 1472.05 155.343 1476.66 Q152.288 1481.24 146.478 1481.24 Q140.668 1481.24 137.589 1476.66 Q134.533 1472.05 134.533 1463.32 Q134.533 1454.57 137.589 1449.99 Q140.668 1445.38 146.478 1445.38 Z" fill="#000000" fill-rule="evenodd" fill-opacity="1" /><path clip-path="url(#clip260)" d="M51.6634 1233.03 L81.3392 1233.03 L81.3392 1236.97 L51.6634 1236.97 L51.6634 1233.03 Z" fill="#000000" fill-rule="evenodd" fill-opacity="1" /><path clip-path="url(#clip260)" d="M95.4595 1245.93 L111.779 1245.93 L111.779 1249.86 L89.8345 1249.86 L89.8345 1245.93 Q92.4965 1243.17 97.0798 1238.54 Q101.686 1233.89 102.867 1232.55 Q105.112 1230.03 105.992 1228.29 Q106.895 1226.53 106.895 1224.84 Q106.895 1222.09 104.95 1220.35 Q103.029 1218.61 99.927 1218.61 Q97.728 1218.61 95.2743 1219.38 Q92.8438 1220.14 90.066 1221.69 L90.066 1216.97 Q92.89 1215.84 95.3437 1215.26 Q97.7974 1214.68 99.8345 1214.68 Q105.205 1214.68 108.399 1217.36 Q111.594 1220.05 111.594 1224.54 Q111.594 1226.67 110.783 1228.59 Q109.996 1230.49 107.89 1233.08 Q107.311 1233.75 104.209 1236.97 Q101.108 1240.16 95.4595 1245.93 Z" fill="#000000" fill-rule="evenodd" fill-opacity="1" /><path clip-path="url(#clip260)" d="M121.594 1243.98 L126.478 1243.98 L126.478 1249.86 L121.594 1249.86 L121.594 1243.98 Z" fill="#000000" fill-rule="evenodd" fill-opacity="1" /><path clip-path="url(#clip260)" d="M136.802 1249.15 L136.802 1244.89 Q138.561 1245.72 140.367 1246.16 Q142.172 1246.6 143.908 1246.6 Q148.538 1246.6 150.968 1243.5 Q153.422 1240.37 153.769 1234.03 Q152.427 1236.02 150.367 1237.09 Q148.306 1238.15 145.806 1238.15 Q140.621 1238.15 137.589 1235.03 Q134.58 1231.88 134.58 1226.44 Q134.58 1221.11 137.728 1217.9 Q140.876 1214.68 146.107 1214.68 Q152.103 1214.68 155.251 1219.28 Q158.422 1223.87 158.422 1232.62 Q158.422 1240.79 154.533 1245.67 Q150.668 1250.53 144.117 1250.53 Q142.357 1250.53 140.552 1250.19 Q138.746 1249.84 136.802 1249.15 M146.107 1234.49 Q149.255 1234.49 151.084 1232.34 Q152.936 1230.19 152.936 1226.44 Q152.936 1222.71 151.084 1220.56 Q149.255 1218.38 146.107 1218.38 Q142.959 1218.38 141.107 1220.56 Q139.279 1222.71 139.279 1226.44 Q139.279 1230.19 141.107 1232.34 Q142.959 1234.49 146.107 1234.49 Z" fill="#000000" fill-rule="evenodd" fill-opacity="1" /><path clip-path="url(#clip260)" d="M51.5708 1002.33 L81.2466 1002.33 L81.2466 1006.26 L51.5708 1006.26 L51.5708 1002.33 Z" fill="#000000" fill-rule="evenodd" fill-opacity="1" /><path clip-path="url(#clip260)" d="M95.3669 1015.22 L111.686 1015.22 L111.686 1019.16 L89.7419 1019.16 L89.7419 1015.22 Q92.4039 1012.47 96.9872 1007.84 Q101.594 1003.19 102.774 1001.84 Q105.02 999.32 105.899 997.583 Q106.802 995.824 106.802 994.134 Q106.802 991.38 104.858 989.644 Q102.936 987.908 99.8345 987.908 Q97.6354 987.908 95.1817 988.671 Q92.7512 989.435 89.9734 990.986 L89.9734 986.264 Q92.7975 985.13 95.2511 984.551 Q97.7048 983.972 99.7419 983.972 Q105.112 983.972 108.307 986.658 Q111.501 989.343 111.501 993.833 Q111.501 995.963 110.691 997.884 Q109.904 999.783 107.797 1002.38 Q107.219 1003.05 104.117 1006.26 Q101.015 1009.46 95.3669 1015.22 Z" fill="#000000" fill-rule="evenodd" fill-opacity="1" /><path clip-path="url(#clip260)" d="M121.501 1013.28 L126.385 1013.28 L126.385 1019.16 L121.501 1019.16 L121.501 1013.28 Z" fill="#000000" fill-rule="evenodd" fill-opacity="1" /><path clip-path="url(#clip260)" d="M146.57 1002.75 Q143.237 1002.75 141.316 1004.53 Q139.418 1006.31 139.418 1009.44 Q139.418 1012.56 141.316 1014.34 Q143.237 1016.13 146.57 1016.13 Q149.904 1016.13 151.825 1014.34 Q153.746 1012.54 153.746 1009.44 Q153.746 1006.31 151.825 1004.53 Q149.927 1002.75 146.57 1002.75 M141.894 1000.75 Q138.885 1000.01 137.195 997.954 Q135.529 995.894 135.529 992.931 Q135.529 988.787 138.469 986.38 Q141.431 983.972 146.57 983.972 Q151.732 983.972 154.672 986.38 Q157.612 988.787 157.612 992.931 Q157.612 995.894 155.922 997.954 Q154.255 1000.01 151.269 1000.75 Q154.649 1001.54 156.524 1003.83 Q158.422 1006.13 158.422 1009.44 Q158.422 1014.46 155.343 1017.14 Q152.288 1019.83 146.57 1019.83 Q140.853 1019.83 137.774 1017.14 Q134.719 1014.46 134.719 1009.44 Q134.719 1006.13 136.617 1003.83 Q138.515 1001.54 141.894 1000.75 M140.181 993.371 Q140.181 996.056 141.848 997.56 Q143.538 999.065 146.57 999.065 Q149.58 999.065 151.269 997.56 Q152.982 996.056 152.982 993.371 Q152.982 990.685 151.269 989.181 Q149.58 987.676 146.57 987.676 Q143.538 987.676 141.848 989.181 Q140.181 990.685 140.181 993.371 Z" fill="#000000" fill-rule="evenodd" fill-opacity="1" /><path clip-path="url(#clip260)" d="M52.381 771.623 L82.0568 771.623 L82.0568 775.559 L52.381 775.559 L52.381 771.623 Z" fill="#000000" fill-rule="evenodd" fill-opacity="1" /><path clip-path="url(#clip260)" d="M96.1771 784.517 L112.496 784.517 L112.496 788.452 L90.5521 788.452 L90.5521 784.517 Q93.2141 781.762 97.7974 777.133 Q102.404 772.48 103.584 771.137 Q105.83 768.614 106.709 766.878 Q107.612 765.119 107.612 763.429 Q107.612 760.674 105.668 758.938 Q103.746 757.202 100.645 757.202 Q98.4456 757.202 95.9919 757.966 Q93.5613 758.73 90.7836 760.281 L90.7836 755.559 Q93.6076 754.424 96.0613 753.846 Q98.515 753.267 100.552 753.267 Q105.922 753.267 109.117 755.952 Q112.311 758.637 112.311 763.128 Q112.311 765.258 111.501 767.179 Q110.714 769.077 108.608 771.67 Q108.029 772.341 104.927 775.559 Q101.825 778.753 96.1771 784.517 Z" fill="#000000" fill-rule="evenodd" fill-opacity="1" /><path clip-path="url(#clip260)" d="M122.311 782.572 L127.195 782.572 L127.195 788.452 L122.311 788.452 L122.311 782.572 Z" fill="#000000" fill-rule="evenodd" fill-opacity="1" /><path clip-path="url(#clip260)" d="M136.2 753.892 L158.422 753.892 L158.422 755.883 L145.876 788.452 L140.992 788.452 L152.797 757.827 L136.2 757.827 L136.2 753.892 Z" fill="#000000" fill-rule="evenodd" fill-opacity="1" /><path clip-path="url(#clip260)" d="M51.3162 540.918 L80.992 540.918 L80.992 544.853 L51.3162 544.853 L51.3162 540.918 Z" fill="#000000" fill-rule="evenodd" fill-opacity="1" /><path clip-path="url(#clip260)" d="M95.1123 553.811 L111.432 553.811 L111.432 557.747 L89.4873 557.747 L89.4873 553.811 Q92.1493 551.057 96.7326 546.427 Q101.339 541.774 102.52 540.432 Q104.765 537.909 105.645 536.173 Q106.547 534.413 106.547 532.724 Q106.547 529.969 104.603 528.233 Q102.682 526.497 99.5798 526.497 Q97.3808 526.497 94.9271 527.261 Q92.4965 528.024 89.7188 529.575 L89.7188 524.853 Q92.5428 523.719 94.9965 523.14 Q97.4502 522.562 99.4872 522.562 Q104.858 522.562 108.052 525.247 Q111.246 527.932 111.246 532.423 Q111.246 534.552 110.436 536.473 Q109.649 538.372 107.543 540.964 Q106.964 541.636 103.862 544.853 Q100.76 548.048 95.1123 553.811 Z" fill="#000000" fill-rule="evenodd" fill-opacity="1" /><path clip-path="url(#clip260)" d="M121.246 551.867 L126.131 551.867 L126.131 557.747 L121.246 557.747 L121.246 551.867 Z" fill="#000000" fill-rule="evenodd" fill-opacity="1" /><path clip-path="url(#clip260)" d="M146.894 538.603 Q143.746 538.603 141.894 540.756 Q140.066 542.909 140.066 546.659 Q140.066 550.385 141.894 552.561 Q143.746 554.714 146.894 554.714 Q150.043 554.714 151.871 552.561 Q153.723 550.385 153.723 546.659 Q153.723 542.909 151.871 540.756 Q150.043 538.603 146.894 538.603 M156.177 523.95 L156.177 528.21 Q154.417 527.376 152.612 526.937 Q150.83 526.497 149.07 526.497 Q144.441 526.497 141.987 529.622 Q139.556 532.747 139.209 539.066 Q140.575 537.052 142.635 535.987 Q144.695 534.899 147.172 534.899 Q152.38 534.899 155.39 538.071 Q158.422 541.219 158.422 546.659 Q158.422 551.983 155.274 555.2 Q152.126 558.418 146.894 558.418 Q140.899 558.418 137.728 553.835 Q134.556 549.228 134.556 540.501 Q134.556 532.307 138.445 527.446 Q142.334 522.562 148.885 522.562 Q150.644 522.562 152.427 522.909 Q154.232 523.256 156.177 523.95 Z" fill="#000000" fill-rule="evenodd" fill-opacity="1" /><path clip-path="url(#clip260)" d="M52.4736 310.212 L82.1494 310.212 L82.1494 314.148 L52.4736 314.148 L52.4736 310.212 Z" fill="#000000" fill-rule="evenodd" fill-opacity="1" /><path clip-path="url(#clip260)" d="M96.2697 323.106 L112.589 323.106 L112.589 327.041 L90.6447 327.041 L90.6447 323.106 Q93.3067 320.351 97.89 315.722 Q102.496 311.069 103.677 309.726 Q105.922 307.203 106.802 305.467 Q107.705 303.708 107.705 302.018 Q107.705 299.263 105.76 297.527 Q103.839 295.791 100.737 295.791 Q98.5382 295.791 96.0845 296.555 Q93.6539 297.319 90.8762 298.87 L90.8762 294.148 Q93.7002 293.013 96.1539 292.435 Q98.6076 291.856 100.645 291.856 Q106.015 291.856 109.209 294.541 Q112.404 297.226 112.404 301.717 Q112.404 303.847 111.594 305.768 Q110.807 307.666 108.7 310.259 Q108.121 310.93 105.02 314.148 Q101.918 317.342 96.2697 323.106 Z" fill="#000000" fill-rule="evenodd" fill-opacity="1" /><path clip-path="url(#clip260)" d="M122.404 321.161 L127.288 321.161 L127.288 327.041 L122.404 327.041 L122.404 321.161 Z" fill="#000000" fill-rule="evenodd" fill-opacity="1" /><path clip-path="url(#clip260)" d="M137.519 292.481 L155.876 292.481 L155.876 296.416 L141.802 296.416 L141.802 304.888 Q142.82 304.541 143.839 304.379 Q144.857 304.194 145.876 304.194 Q151.663 304.194 155.042 307.365 Q158.422 310.537 158.422 315.953 Q158.422 321.532 154.95 324.634 Q151.478 327.712 145.158 327.712 Q142.982 327.712 140.714 327.342 Q138.469 326.972 136.061 326.231 L136.061 321.532 Q138.144 322.666 140.367 323.222 Q142.589 323.777 145.066 323.777 Q149.07 323.777 151.408 321.671 Q153.746 319.564 153.746 315.953 Q153.746 312.342 151.408 310.236 Q149.07 308.129 145.066 308.129 Q143.191 308.129 141.316 308.546 Q139.464 308.962 137.519 309.842 L137.519 292.481 Z" fill="#000000" fill-rule="evenodd" fill-opacity="1" /><path clip-path="url(#clip260)" d="M50.9921 79.507 L80.6679 79.507 L80.6679 83.4422 L50.9921 83.4422 L50.9921 79.507 Z" fill="#000000" fill-rule="evenodd" fill-opacity="1" /><path clip-path="url(#clip260)" d="M94.7882 92.4005 L111.108 92.4005 L111.108 96.3356 L89.1632 96.3356 L89.1632 92.4005 Q91.8252 89.6458 96.4085 85.0162 Q101.015 80.3635 102.196 79.0209 Q104.441 76.4978 105.321 74.7617 Q106.223 73.0024 106.223 71.3126 Q106.223 68.558 104.279 66.8219 Q102.358 65.0858 99.2558 65.0858 Q97.0567 65.0858 94.603 65.8497 Q92.1725 66.6136 89.3947 68.1645 L89.3947 63.4423 Q92.2188 62.308 94.6724 61.7293 Q97.1261 61.1506 99.1632 61.1506 Q104.534 61.1506 107.728 63.8358 Q110.922 66.521 110.922 71.0117 Q110.922 73.1413 110.112 75.0626 Q109.325 76.9607 107.219 79.5533 Q106.64 80.2246 103.538 83.4422 Q100.436 86.6366 94.7882 92.4005 Z" fill="#000000" fill-rule="evenodd" fill-opacity="1" /><path clip-path="url(#clip260)" d="M120.922 90.456 L125.807 90.456 L125.807 96.3356 L120.922 96.3356 L120.922 90.456 Z" fill="#000000" fill-rule="evenodd" fill-opacity="1" /><path clip-path="url(#clip260)" d="M148.839 65.8497 L137.033 84.2987 L148.839 84.2987 L148.839 65.8497 M147.612 61.7756 L153.492 61.7756 L153.492 84.2987 L158.422 84.2987 L158.422 88.1875 L153.492 88.1875 L153.492 96.3356 L148.839 96.3356 L148.839 88.1875 L133.237 88.1875 L133.237 83.6737 L147.612 61.7756 Z" fill="#000000" fill-rule="evenodd" fill-opacity="1" /><polyline clip-path="url(#clip262)" style="stroke:#009af9; stroke-linecap:butt; stroke-linejoin:round; stroke-width:4; stroke-opacity:1; fill:none" points="
  255.507,1445.72 402.264,1434.47 538.636,1423.04 665.416,1411.43 783.342,1399.67 893.087,1387.77 995.274,1375.74 1090.47,1363.59 1179.2,1351.33 1261.93,1338.97 
  1339.11,1326.52 1411.13,1313.98 1478.36,1301.35 1541.13,1288.65 1599.75,1275.89 1654.5,1263.05 1705.64,1250.16 1753.41,1237.21 1798.01,1224.2 1839.67,1211.15 
  1878.55,1198.04 1914.83,1184.89 1948.66,1171.7 1980.2,1158.47 2009.57,1145.2 2036.91,1131.89 2062.32,1118.55 2085.91,1105.17 2107.79,1091.77 2128.04,1078.33 
  2146.76,1064.86 2164.02,1051.36 2179.89,1037.84 2194.45,1024.29 2207.76,1010.71 2219.89,997.114 2230.89,983.49 2240.81,969.842 2249.71,956.172 2257.63,942.48 
  2264.62,928.766 2270.72,915.031 2275.96,901.276 2280.39,887.5 2284.04,873.705 2286.94,859.89 2289.13,846.057 2290.63,832.204 2291.46,818.333 2291.67,804.443 
  2291.27,790.536 2290.28,776.61 2288.73,762.667 2286.64,748.706 2284.03,734.728 2280.92,720.733 2277.32,706.72 2273.26,692.691 2268.74,678.645 2263.79,664.581 
  2258.42,650.501 2252.64,636.404 2246.48,622.291 2239.93,608.161 2233.01,594.014 2225.74,579.85 2218.12,565.67 2210.17,551.473 2201.89,537.26 2193.3,523.029 
  2184.4,508.782 2175.21,494.519 2165.73,480.238 2155.97,465.941 2145.93,451.626 2135.64,437.295 2125.08,422.946 2114.27,408.581 2103.23,394.198 2091.94,379.797 
  2080.42,365.38 2068.67,350.945 2056.71,336.492 2044.53,322.021 2032.14,307.533 2019.54,293.027 2006.75,278.502 1993.75,263.96 1980.57,249.399 1967.2,234.819 
  1953.65,220.221 1939.91,205.604 1926.01,190.969 1911.93,176.314 1897.68,161.64 1883.26,146.947 1868.69,132.234 1853.95,117.501 1839.06,102.749 1824.02,87.9763 
  
  "/>
<path clip-path="url(#clip260)" d="
M1988.57 216.178 L2280.81 216.178 L2280.81 95.2176 L1988.57 95.2176  Z
  " fill="#ffffff" fill-rule="evenodd" fill-opacity="1"/>
<polyline clip-path="url(#clip260)" style="stroke:#000000; stroke-linecap:butt; stroke-linejoin:round; stroke-width:4; stroke-opacity:1; fill:none" points="
  1988.57,216.178 2280.81,216.178 2280.81,95.2176 1988.57,95.2176 1988.57,216.178 
  "/>
<polyline clip-path="url(#clip260)" style="stroke:#009af9; stroke-linecap:butt; stroke-linejoin:round; stroke-width:4; stroke-opacity:1; fill:none" points="
  2012.55,155.698 2156.44,155.698 
  "/>
<path clip-path="url(#clip260)" d="M2194.26 175.385 Q2192.46 180.015 2190.74 181.427 Q2189.03 182.839 2186.16 182.839 L2182.76 182.839 L2182.76 179.274 L2185.26 179.274 Q2187.02 179.274 2187.99 178.44 Q2188.96 177.607 2190.14 174.505 L2190.9 172.561 L2180.42 147.052 L2184.93 147.052 L2193.03 167.329 L2201.14 147.052 L2205.65 147.052 L2194.26 175.385 Z" fill="#000000" fill-rule="evenodd" fill-opacity="1" /><path clip-path="url(#clip260)" d="M2212.94 169.042 L2220.58 169.042 L2220.58 142.677 L2212.27 144.343 L2212.27 140.084 L2220.53 138.418 L2225.21 138.418 L2225.21 169.042 L2232.85 169.042 L2232.85 172.978 L2212.94 172.978 L2212.94 169.042 Z" fill="#000000" fill-rule="evenodd" fill-opacity="1" /></svg>
