<?xml version="1.0" encoding="utf-8"?>
<svg xmlns="http://www.w3.org/2000/svg" xmlns:xlink="http://www.w3.org/1999/xlink" width="600" height="400" viewBox="0 0 2400 1600">
<defs>
  <clipPath id="clip020">
    <rect x="0" y="0" width="2400" height="1600"/>
  </clipPath>
</defs>
<path clip-path="url(#clip020)" d="
M0 1600 L2400 1600 L2400 0 L0 0  Z
  " fill="#ffffff" fill-rule="evenodd" fill-opacity="1"/>
<defs>
  <clipPath id="clip021">
    <rect x="480" y="0" width="1681" height="1600"/>
  </clipPath>
</defs>
<path clip-path="url(#clip020)" d="
M194.422 1486.45 L2352.76 1486.45 L2352.76 47.2441 L194.422 47.2441  Z
  " fill="#ffffff" fill-rule="evenodd" fill-opacity="1"/>
<defs>
  <clipPath id="clip022">
    <rect x="194" y="47" width="2159" height="1440"/>
  </clipPath>
</defs>
<polyline clip-path="url(#clip022)" style="stroke:#000000; stroke-linecap:butt; stroke-linejoin:round; stroke-width:2; stroke-opacity:0.1; fill:none" points="
  269.086,1486.45 269.086,47.2441 
  "/>
<polyline clip-path="url(#clip022)" style="stroke:#000000; stroke-linecap:butt; stroke-linejoin:round; stroke-width:2; stroke-opacity:0.1; fill:none" points="
  731.866,1486.45 731.866,47.2441 
  "/>
<polyline clip-path="url(#clip022)" style="stroke:#000000; stroke-linecap:butt; stroke-linejoin:round; stroke-width:2; stroke-opacity:0.1; fill:none" points="
  1194.65,1486.45 1194.65,47.2441 
  "/>
<polyline clip-path="url(#clip022)" style="stroke:#000000; stroke-linecap:butt; stroke-linejoin:round; stroke-width:2; stroke-opacity:0.1; fill:none" points="
  1657.43,1486.45 1657.43,47.2441 
  "/>
<polyline clip-path="url(#clip022)" style="stroke:#000000; stroke-linecap:butt; stroke-linejoin:round; stroke-width:2; stroke-opacity:0.1; fill:none" points="
  2120.2,1486.45 2120.2,47.2441 
  "/>
<polyline clip-path="url(#clip020)" style="stroke:#000000; stroke-linecap:butt; stroke-linejoin:round; stroke-width:4; stroke-opacity:1; fill:none" points="
  194.422,1486.45 2352.76,1486.45 
  "/>
<polyline clip-path="url(#clip020)" style="stroke:#000000; stroke-linecap:butt; stroke-linejoin:round; stroke-width:4; stroke-opacity:1; fill:none" points="
  269.086,1486.45 269.086,1469.18 
  "/>
<polyline clip-path="url(#clip020)" style="stroke:#000000; stroke-linecap:butt; stroke-linejoin:round; stroke-width:4; stroke-opacity:1; fill:none" points="
  731.866,1486.45 731.866,1469.18 
  "/>
<polyline clip-path="url(#clip020)" style="stroke:#000000; stroke-linecap:butt; stroke-linejoin:round; stroke-width:4; stroke-opacity:1; fill:none" points="
  1194.65,1486.45 1194.65,1469.18 
  "/>
<polyline clip-path="url(#clip020)" style="stroke:#000000; stroke-linecap:butt; stroke-linejoin:round; stroke-width:4; stroke-opacity:1; fill:none" points="
  1657.43,1486.45 1657.43,1469.18 
  "/>
<polyline clip-path="url(#clip020)" style="stroke:#000000; stroke-linecap:butt; stroke-linejoin:round; stroke-width:4; stroke-opacity:1; fill:none" points="
  2120.2,1486.45 2120.2,1469.18 
  "/>
<path clip-path="url(#clip020)" d="M235.996 1543.18 L243.635 1543.18 L243.635 1516.82 L235.325 1518.49 L235.325 1514.23 L243.589 1512.56 L248.264 1512.56 L248.264 1543.18 L255.903 1543.18 L255.903 1547.12 L235.996 1547.12 L235.996 1543.18 Z" fill="#000000" fill-rule="evenodd" fill-opacity="1" /><path clip-path="url(#clip020)" d="M265.348 1541.24 L270.232 1541.24 L270.232 1547.12 L265.348 1547.12 L265.348 1541.24 Z" fill="#000000" fill-rule="evenodd" fill-opacity="1" /><path clip-path="url(#clip020)" d="M293.264 1516.63 L281.459 1535.08 L293.264 1535.08 L293.264 1516.63 M292.037 1512.56 L297.917 1512.56 L297.917 1535.08 L302.848 1535.08 L302.848 1538.97 L297.917 1538.97 L297.917 1547.12 L293.264 1547.12 L293.264 1538.97 L277.662 1538.97 L277.662 1534.46 L292.037 1512.56 Z" fill="#000000" fill-rule="evenodd" fill-opacity="1" /><path clip-path="url(#clip020)" d="M698.938 1543.18 L706.577 1543.18 L706.577 1516.82 L698.266 1518.49 L698.266 1514.23 L706.53 1512.56 L711.206 1512.56 L711.206 1543.18 L718.845 1543.18 L718.845 1547.12 L698.938 1547.12 L698.938 1543.18 Z" fill="#000000" fill-rule="evenodd" fill-opacity="1" /><path clip-path="url(#clip020)" d="M728.289 1541.24 L733.174 1541.24 L733.174 1547.12 L728.289 1547.12 L728.289 1541.24 Z" fill="#000000" fill-rule="evenodd" fill-opacity="1" /><path clip-path="url(#clip020)" d="M753.937 1527.98 Q750.789 1527.98 748.937 1530.13 Q747.109 1532.28 747.109 1536.03 Q747.109 1539.76 748.937 1541.93 Q750.789 1544.09 753.937 1544.09 Q757.086 1544.09 758.914 1541.93 Q760.766 1539.76 760.766 1536.03 Q760.766 1532.28 758.914 1530.13 Q757.086 1527.98 753.937 1527.98 M763.22 1513.32 L763.22 1517.58 Q761.461 1516.75 759.655 1516.31 Q757.873 1515.87 756.113 1515.87 Q751.484 1515.87 749.03 1519 Q746.6 1522.12 746.252 1528.44 Q747.618 1526.43 749.678 1525.36 Q751.738 1524.27 754.215 1524.27 Q759.424 1524.27 762.433 1527.44 Q765.465 1530.59 765.465 1536.03 Q765.465 1541.36 762.317 1544.57 Q759.169 1547.79 753.937 1547.79 Q747.942 1547.79 744.771 1543.21 Q741.6 1538.6 741.6 1529.87 Q741.6 1521.68 745.488 1516.82 Q749.377 1511.93 755.928 1511.93 Q757.687 1511.93 759.47 1512.28 Q761.275 1512.63 763.22 1513.32 Z" fill="#000000" fill-rule="evenodd" fill-opacity="1" /><path clip-path="url(#clip020)" d="M1161.84 1543.18 L1169.48 1543.18 L1169.48 1516.82 L1161.17 1518.49 L1161.17 1514.23 L1169.44 1512.56 L1174.11 1512.56 L1174.11 1543.18 L1181.75 1543.18 L1181.75 1547.12 L1161.84 1547.12 L1161.84 1543.18 Z" fill="#000000" fill-rule="evenodd" fill-opacity="1" /><path clip-path="url(#clip020)" d="M1191.2 1541.24 L1196.08 1541.24 L1196.08 1547.12 L1191.2 1547.12 L1191.2 1541.24 Z" fill="#000000" fill-rule="evenodd" fill-opacity="1" /><path clip-path="url(#clip020)" d="M1216.27 1530.71 Q1212.93 1530.71 1211.01 1532.49 Q1209.11 1534.27 1209.11 1537.4 Q1209.11 1540.52 1211.01 1542.31 Q1212.93 1544.09 1216.27 1544.09 Q1219.6 1544.09 1221.52 1542.31 Q1223.44 1540.5 1223.44 1537.4 Q1223.44 1534.27 1221.52 1532.49 Q1219.62 1530.71 1216.27 1530.71 M1211.59 1528.72 Q1208.58 1527.98 1206.89 1525.92 Q1205.22 1523.86 1205.22 1520.89 Q1205.22 1516.75 1208.16 1514.34 Q1211.13 1511.93 1216.27 1511.93 Q1221.43 1511.93 1224.37 1514.34 Q1227.31 1516.75 1227.31 1520.89 Q1227.31 1523.86 1225.62 1525.92 Q1223.95 1527.98 1220.96 1528.72 Q1224.34 1529.5 1226.22 1531.8 Q1228.12 1534.09 1228.12 1537.4 Q1228.12 1542.42 1225.04 1545.11 Q1221.98 1547.79 1216.27 1547.79 Q1210.55 1547.79 1207.47 1545.11 Q1204.41 1542.42 1204.41 1537.4 Q1204.41 1534.09 1206.31 1531.8 Q1208.21 1529.5 1211.59 1528.72 M1209.88 1521.33 Q1209.88 1524.02 1211.54 1525.52 Q1213.23 1527.03 1216.27 1527.03 Q1219.27 1527.03 1220.96 1525.52 Q1222.68 1524.02 1222.68 1521.33 Q1222.68 1518.65 1220.96 1517.14 Q1219.27 1515.64 1216.27 1515.64 Q1213.23 1515.64 1211.54 1517.14 Q1209.88 1518.65 1209.88 1521.33 Z" fill="#000000" fill-rule="evenodd" fill-opacity="1" /><path clip-path="url(#clip020)" d="M1628.66 1543.18 L1644.98 1543.18 L1644.98 1547.12 L1623.04 1547.12 L1623.04 1543.18 Q1625.7 1540.43 1630.28 1535.8 Q1634.89 1531.15 1636.07 1529.81 Q1638.32 1527.28 1639.2 1525.55 Q1640.1 1523.79 1640.1 1522.1 Q1640.1 1519.34 1638.15 1517.61 Q1636.23 1515.87 1633.13 1515.87 Q1630.93 1515.87 1628.48 1516.63 Q1626.05 1517.4 1623.27 1518.95 L1623.27 1514.23 Q1626.09 1513.09 1628.55 1512.51 Q1631 1511.93 1633.04 1511.93 Q1638.41 1511.93 1641.6 1514.62 Q1644.8 1517.31 1644.8 1521.8 Q1644.8 1523.93 1643.99 1525.85 Q1643.2 1527.74 1641.09 1530.34 Q1640.52 1531.01 1637.41 1534.23 Q1634.31 1537.42 1628.66 1543.18 Z" fill="#000000" fill-rule="evenodd" fill-opacity="1" /><path clip-path="url(#clip020)" d="M1654.8 1541.24 L1659.68 1541.24 L1659.68 1547.12 L1654.8 1547.12 L1654.8 1541.24 Z" fill="#000000" fill-rule="evenodd" fill-opacity="1" /><path clip-path="url(#clip020)" d="M1679.87 1515.64 Q1676.26 1515.64 1674.43 1519.2 Q1672.62 1522.75 1672.62 1529.87 Q1672.62 1536.98 1674.43 1540.55 Q1676.26 1544.09 1679.87 1544.09 Q1683.5 1544.09 1685.31 1540.55 Q1687.14 1536.98 1687.14 1529.87 Q1687.14 1522.75 1685.31 1519.2 Q1683.5 1515.64 1679.87 1515.64 M1679.87 1511.93 Q1685.68 1511.93 1688.73 1516.54 Q1691.81 1521.12 1691.81 1529.87 Q1691.81 1538.6 1688.73 1543.21 Q1685.68 1547.79 1679.87 1547.79 Q1674.06 1547.79 1670.98 1543.21 Q1667.92 1538.6 1667.92 1529.87 Q1667.92 1521.12 1670.98 1516.54 Q1674.06 1511.93 1679.87 1511.93 Z" fill="#000000" fill-rule="evenodd" fill-opacity="1" /><path clip-path="url(#clip020)" d="M2092.24 1543.18 L2108.56 1543.18 L2108.56 1547.12 L2086.62 1547.12 L2086.62 1543.18 Q2089.28 1540.43 2093.86 1535.8 Q2098.47 1531.15 2099.65 1529.81 Q2101.89 1527.28 2102.77 1525.55 Q2103.68 1523.79 2103.68 1522.1 Q2103.68 1519.34 2101.73 1517.61 Q2099.81 1515.87 2096.71 1515.87 Q2094.51 1515.87 2092.06 1516.63 Q2089.63 1517.4 2086.85 1518.95 L2086.85 1514.23 Q2089.67 1513.09 2092.13 1512.51 Q2094.58 1511.93 2096.62 1511.93 Q2101.99 1511.93 2105.18 1514.62 Q2108.38 1517.31 2108.38 1521.8 Q2108.38 1523.93 2107.57 1525.85 Q2106.78 1527.74 2104.67 1530.34 Q2104.09 1531.01 2100.99 1534.23 Q2097.89 1537.42 2092.24 1543.18 Z" fill="#000000" fill-rule="evenodd" fill-opacity="1" /><path clip-path="url(#clip020)" d="M2118.38 1541.24 L2123.26 1541.24 L2123.26 1547.12 L2118.38 1547.12 L2118.38 1541.24 Z" fill="#000000" fill-rule="evenodd" fill-opacity="1" /><path clip-path="url(#clip020)" d="M2137.47 1543.18 L2153.79 1543.18 L2153.79 1547.12 L2131.85 1547.12 L2131.85 1543.18 Q2134.51 1540.43 2139.09 1535.8 Q2143.7 1531.15 2144.88 1529.81 Q2147.13 1527.28 2148.01 1525.55 Q2148.91 1523.79 2148.91 1522.1 Q2148.91 1519.34 2146.96 1517.61 Q2145.04 1515.87 2141.94 1515.87 Q2139.74 1515.87 2137.29 1516.63 Q2134.86 1517.4 2132.08 1518.95 L2132.08 1514.23 Q2134.9 1513.09 2137.36 1512.51 Q2139.81 1511.93 2141.85 1511.93 Q2147.22 1511.93 2150.41 1514.62 Q2153.61 1517.31 2153.61 1521.8 Q2153.61 1523.93 2152.8 1525.85 Q2152.01 1527.74 2149.9 1530.34 Q2149.33 1531.01 2146.22 1534.23 Q2143.12 1537.42 2137.47 1543.18 Z" fill="#000000" fill-rule="evenodd" fill-opacity="1" /><polyline clip-path="url(#clip022)" style="stroke:#000000; stroke-linecap:butt; stroke-linejoin:round; stroke-width:2; stroke-opacity:0.1; fill:none" points="
  194.422,1418.18 2352.76,1418.18 
  "/>
<polyline clip-path="url(#clip022)" style="stroke:#000000; stroke-linecap:butt; stroke-linejoin:round; stroke-width:2; stroke-opacity:0.1; fill:none" points="
  194.422,1053.35 2352.76,1053.35 
  "/>
<polyline clip-path="url(#clip022)" style="stroke:#000000; stroke-linecap:butt; stroke-linejoin:round; stroke-width:2; stroke-opacity:0.1; fill:none" points="
  194.422,688.531 2352.76,688.531 
  "/>
<polyline clip-path="url(#clip022)" style="stroke:#000000; stroke-linecap:butt; stroke-linejoin:round; stroke-width:2; stroke-opacity:0.1; fill:none" points="
  194.422,323.708 2352.76,323.708 
  "/>
<polyline clip-path="url(#clip020)" style="stroke:#000000; stroke-linecap:butt; stroke-linejoin:round; stroke-width:4; stroke-opacity:1; fill:none" points="
  194.422,1486.45 194.422,47.2441 
  "/>
<polyline clip-path="url(#clip020)" style="stroke:#000000; stroke-linecap:butt; stroke-linejoin:round; stroke-width:4; stroke-opacity:1; fill:none" points="
  194.422,1418.18 220.322,1418.18 
  "/>
<polyline clip-path="url(#clip020)" style="stroke:#000000; stroke-linecap:butt; stroke-linejoin:round; stroke-width:4; stroke-opacity:1; fill:none" points="
  194.422,1053.35 220.322,1053.35 
  "/>
<polyline clip-path="url(#clip020)" style="stroke:#000000; stroke-linecap:butt; stroke-linejoin:round; stroke-width:4; stroke-opacity:1; fill:none" points="
  194.422,688.531 220.322,688.531 
  "/>
<polyline clip-path="url(#clip020)" style="stroke:#000000; stroke-linecap:butt; stroke-linejoin:round; stroke-width:4; stroke-opacity:1; fill:none" points="
  194.422,323.708 220.322,323.708 
  "/>
<path clip-path="url(#clip020)" d="M51.3162 1418.63 L80.992 1418.63 L80.992 1422.56 L51.3162 1422.56 L51.3162 1418.63 Z" fill="#000000" fill-rule="evenodd" fill-opacity="1" /><path clip-path="url(#clip020)" d="M95.1123 1431.52 L111.432 1431.52 L111.432 1435.46 L89.4873 1435.46 L89.4873 1431.52 Q92.1493 1428.77 96.7326 1424.14 Q101.339 1419.48 102.52 1418.14 Q104.765 1415.62 105.645 1413.88 Q106.547 1412.12 106.547 1410.43 Q106.547 1407.68 104.603 1405.94 Q102.682 1404.21 99.5798 1404.21 Q97.3808 1404.21 94.9271 1404.97 Q92.4965 1405.73 89.7188 1407.29 L89.7188 1402.56 Q92.5428 1401.43 94.9965 1400.85 Q97.4502 1400.27 99.4872 1400.27 Q104.858 1400.27 108.052 1402.96 Q111.246 1405.64 111.246 1410.13 Q111.246 1412.26 110.436 1414.18 Q109.649 1416.08 107.543 1418.67 Q106.964 1419.35 103.862 1422.56 Q100.76 1425.76 95.1123 1431.52 Z" fill="#000000" fill-rule="evenodd" fill-opacity="1" /><path clip-path="url(#clip020)" d="M121.246 1429.58 L126.131 1429.58 L126.131 1435.46 L121.246 1435.46 L121.246 1429.58 Z" fill="#000000" fill-rule="evenodd" fill-opacity="1" /><path clip-path="url(#clip020)" d="M146.894 1416.31 Q143.746 1416.31 141.894 1418.47 Q140.066 1420.62 140.066 1424.37 Q140.066 1428.1 141.894 1430.27 Q143.746 1432.42 146.894 1432.42 Q150.043 1432.42 151.871 1430.27 Q153.723 1428.1 153.723 1424.37 Q153.723 1420.62 151.871 1418.47 Q150.043 1416.31 146.894 1416.31 M156.177 1401.66 L156.177 1405.92 Q154.417 1405.09 152.612 1404.65 Q150.83 1404.21 149.07 1404.21 Q144.441 1404.21 141.987 1407.33 Q139.556 1410.46 139.209 1416.78 Q140.575 1414.76 142.635 1413.7 Q144.695 1412.61 147.172 1412.61 Q152.38 1412.61 155.39 1415.78 Q158.422 1418.93 158.422 1424.37 Q158.422 1429.69 155.274 1432.91 Q152.126 1436.13 146.894 1436.13 Q140.899 1436.13 137.728 1431.54 Q134.556 1426.94 134.556 1418.21 Q134.556 1410.02 138.445 1405.16 Q142.334 1400.27 148.885 1400.27 Q150.644 1400.27 152.427 1400.62 Q154.232 1400.97 156.177 1401.66 Z" fill="#000000" fill-rule="evenodd" fill-opacity="1" /><path clip-path="url(#clip020)" d="M50.9921 1053.81 L80.6679 1053.81 L80.6679 1057.74 L50.9921 1057.74 L50.9921 1053.81 Z" fill="#000000" fill-rule="evenodd" fill-opacity="1" /><path clip-path="url(#clip020)" d="M94.7882 1066.7 L111.108 1066.7 L111.108 1070.63 L89.1632 1070.63 L89.1632 1066.7 Q91.8252 1063.94 96.4085 1059.31 Q101.015 1054.66 102.196 1053.32 Q104.441 1050.8 105.321 1049.06 Q106.223 1047.3 106.223 1045.61 Q106.223 1042.86 104.279 1041.12 Q102.358 1039.38 99.2558 1039.38 Q97.0567 1039.38 94.603 1040.15 Q92.1725 1040.91 89.3947 1042.46 L89.3947 1037.74 Q92.2188 1036.61 94.6724 1036.03 Q97.1261 1035.45 99.1632 1035.45 Q104.534 1035.45 107.728 1038.13 Q110.922 1040.82 110.922 1045.31 Q110.922 1047.44 110.112 1049.36 Q109.325 1051.26 107.219 1053.85 Q106.64 1054.52 103.538 1057.74 Q100.436 1060.93 94.7882 1066.7 Z" fill="#000000" fill-rule="evenodd" fill-opacity="1" /><path clip-path="url(#clip020)" d="M120.922 1064.75 L125.807 1064.75 L125.807 1070.63 L120.922 1070.63 L120.922 1064.75 Z" fill="#000000" fill-rule="evenodd" fill-opacity="1" /><path clip-path="url(#clip020)" d="M148.839 1040.15 L137.033 1058.6 L148.839 1058.6 L148.839 1040.15 M147.612 1036.07 L153.492 1036.07 L153.492 1058.6 L158.422 1058.6 L158.422 1062.49 L153.492 1062.49 L153.492 1070.63 L148.839 1070.63 L148.839 1062.49 L133.237 1062.49 L133.237 1057.97 L147.612 1036.07 Z" fill="#000000" fill-rule="evenodd" fill-opacity="1" /><path clip-path="url(#clip020)" d="M53.0754 688.982 L82.7512 688.982 L82.7512 692.917 L53.0754 692.917 L53.0754 688.982 Z" fill="#000000" fill-rule="evenodd" fill-opacity="1" /><path clip-path="url(#clip020)" d="M96.8715 701.876 L113.191 701.876 L113.191 705.811 L91.2465 705.811 L91.2465 701.876 Q93.9086 699.121 98.4919 694.491 Q103.098 689.839 104.279 688.496 Q106.524 685.973 107.404 684.237 Q108.307 682.477 108.307 680.788 Q108.307 678.033 106.362 676.297 Q104.441 674.561 101.339 674.561 Q99.14 674.561 96.6863 675.325 Q94.2558 676.089 91.478 677.64 L91.478 672.917 Q94.3021 671.783 96.7558 671.204 Q99.2095 670.626 101.246 670.626 Q106.617 670.626 109.811 673.311 Q113.006 675.996 113.006 680.487 Q113.006 682.616 112.196 684.538 Q111.408 686.436 109.302 689.028 Q108.723 689.7 105.621 692.917 Q102.52 696.112 96.8715 701.876 Z" fill="#000000" fill-rule="evenodd" fill-opacity="1" /><path clip-path="url(#clip020)" d="M123.006 699.931 L127.89 699.931 L127.89 705.811 L123.006 705.811 L123.006 699.931 Z" fill="#000000" fill-rule="evenodd" fill-opacity="1" /><path clip-path="url(#clip020)" d="M142.103 701.876 L158.422 701.876 L158.422 705.811 L136.478 705.811 L136.478 701.876 Q139.14 699.121 143.723 694.491 Q148.33 689.839 149.51 688.496 Q151.755 685.973 152.635 684.237 Q153.538 682.477 153.538 680.788 Q153.538 678.033 151.593 676.297 Q149.672 674.561 146.57 674.561 Q144.371 674.561 141.918 675.325 Q139.487 676.089 136.709 677.64 L136.709 672.917 Q139.533 671.783 141.987 671.204 Q144.441 670.626 146.478 670.626 Q151.848 670.626 155.042 673.311 Q158.237 675.996 158.237 680.487 Q158.237 682.616 157.427 684.538 Q156.64 686.436 154.533 689.028 Q153.955 689.7 150.853 692.917 Q147.751 696.112 142.103 701.876 Z" fill="#000000" fill-rule="evenodd" fill-opacity="1" /><path clip-path="url(#clip020)" d="M51.4782 324.159 L81.154 324.159 L81.154 328.094 L51.4782 328.094 L51.4782 324.159 Z" fill="#000000" fill-rule="evenodd" fill-opacity="1" /><path clip-path="url(#clip020)" d="M95.2743 337.052 L111.594 337.052 L111.594 340.988 L89.6493 340.988 L89.6493 337.052 Q92.3113 334.298 96.8947 329.668 Q101.501 325.016 102.682 323.673 Q104.927 321.15 105.807 319.414 Q106.709 317.654 106.709 315.965 Q106.709 313.21 104.765 311.474 Q102.844 309.738 99.7419 309.738 Q97.5428 309.738 95.0891 310.502 Q92.6586 311.266 89.8808 312.817 L89.8808 308.094 Q92.7049 306.96 95.1586 306.381 Q97.6122 305.803 99.6493 305.803 Q105.02 305.803 108.214 308.488 Q111.408 311.173 111.408 315.664 Q111.408 317.793 110.598 319.715 Q109.811 321.613 107.705 324.205 Q107.126 324.877 104.024 328.094 Q100.922 331.289 95.2743 337.052 Z" fill="#000000" fill-rule="evenodd" fill-opacity="1" /><path clip-path="url(#clip020)" d="M121.408 335.108 L126.293 335.108 L126.293 340.988 L121.408 340.988 L121.408 335.108 Z" fill="#000000" fill-rule="evenodd" fill-opacity="1" /><path clip-path="url(#clip020)" d="M146.478 309.506 Q142.867 309.506 141.038 313.071 Q139.232 316.613 139.232 323.742 Q139.232 330.849 141.038 334.414 Q142.867 337.955 146.478 337.955 Q150.112 337.955 151.918 334.414 Q153.746 330.849 153.746 323.742 Q153.746 316.613 151.918 313.071 Q150.112 309.506 146.478 309.506 M146.478 305.803 Q152.288 305.803 155.343 310.409 Q158.422 314.992 158.422 323.742 Q158.422 332.469 155.343 337.076 Q152.288 341.659 146.478 341.659 Q140.668 341.659 137.589 337.076 Q134.533 332.469 134.533 323.742 Q134.533 314.992 137.589 310.409 Q140.668 305.803 146.478 305.803 Z" fill="#000000" fill-rule="evenodd" fill-opacity="1" /><polyline clip-path="url(#clip022)" style="stroke:#009af9; stroke-linecap:butt; stroke-linejoin:round; stroke-width:4; stroke-opacity:1; fill:none" points="
  403.984,208.211 429.008,187.106 455.793,167.908 484.308,150.672 514.519,135.444 546.394,122.267 579.898,111.18 614.995,102.213 651.646,95.3926 689.81,90.7385 
  729.441,88.2639 770.493,87.9763 812.913,89.8763 856.646,93.9585 901.63,100.211 947.8,108.616 995.088,119.149 1043.42,131.779 1092.71,146.472 1142.87,163.185 
  1193.82,181.872 1245.45,202.481 1297.66,224.956 1350.35,249.235 1403.39,275.255 1456.65,302.945 1510.01,332.234 1563.33,363.044 1616.45,395.296 1669.22,428.908 
  1721.46,463.791 1773.01,499.858 1823.65,537.015 1873.19,575.166 1921.4,614.21 1968.06,654.043 2012.89,694.557 2055.64,735.639 2096,777.168 2133.66,819.021 
  2168.28,861.065 2199.49,903.161 2226.9,945.159 2250.1,986.902 2268.65,1028.22 2282.08,1068.93 2289.92,1108.84 2291.67,1147.74 2286.84,1185.4 2274.95,1221.59 
  2255.54,1256.06 2228.24,1288.52 2192.71,1318.71 2148.78,1346.34 2096.41,1371.12 2035.73,1392.76 1967.12,1411.01 1891.18,1425.61 1808.74,1436.36 1720.87,1443.09 
  1628.81,1445.72 1533.93,1444.18 1437.65,1438.52 1341.36,1428.81 1246.36,1415.21 1153.79,1397.9 1064.63,1377.12 979.629,1353.14 899.344,1326.24 824.147,1296.69 
  754.246,1264.8 689.717,1230.83 630.529,1195.07 576.571,1157.77 527.678,1119.17 483.648,1079.51 444.258,1038.99 409.275,997.813 378.466,956.165 351.604,914.218 
  328.471,872.133 308.861,830.061 292.583,788.145 279.461,746.518 269.333,705.307 262.051,664.633 257.483,624.61 255.507,585.348 256.016,546.953 258.913,509.525 
  264.111,473.162 271.533,437.959 281.11,404.004 292.779,371.387 306.485,340.189 322.179,310.493 339.815,282.376 359.353,255.91 380.755,231.166 403.984,208.211 
  
  "/>
<path clip-path="url(#clip020)" d="
M1988.57 216.178 L2280.81 216.178 L2280.81 95.2176 L1988.57 95.2176  Z
  " fill="#ffffff" fill-rule="evenodd" fill-opacity="1"/>
<polyline clip-path="url(#clip020)" style="stroke:#000000; stroke-linecap:butt; stroke-linejoin:round; stroke-width:4; stroke-opacity:1; fill:none" points="
  1988.57,216.178 2280.81,216.178 2280.81,95.2176 1988.57,95.2176 1988.57,216.178 
  "/>
<polyline clip-path="url(#clip020)" style="stroke:#009af9; stroke-linecap:butt; stroke-linejoin:round; stroke-width:4; stroke-opacity:1; fill:none" points="
  2012.55,155.698 2156.44,155.698 
  "/>
<path clip-path="url(#clip020)" d="M2194.26 175.385 Q2192.46 180.015 2190.74 181.427 Q2189.03 182.839 2186.16 182.839 L2182.76 182.839 L2182.76 179.274 L2185.26 179.274 Q2187.02 179.274 2187.99 178.44 Q2188.96 177.607 2190.14 174.505 L2190.9 172.561 L2180.42 147.052 L2184.93 147.052 L2193.03 167.329 L2201.14 147.052 L2205.65 147.052 L2194.26 175.385 Z" fill="#000000" fill-rule="evenodd" fill-opacity="1" /><path clip-path="url(#clip020)" d="M2212.94 169.042 L2220.58 169.042 L2220.58 142.677 L2212.27 144.343 L2212.27 140.084 L2220.53 138.418 L2225.21 138.418 L2225.21 169.042 L2232.85 169.042 L2232.85 172.978 L2212.94 172.978 L2212.94 169.042 Z" fill="#000000" fill-rule="evenodd" fill-opacity="1" /></svg>
