<?xml version="1.0" encoding="UTF-8" standalone="no"?>
<!DOCTYPE svg PUBLIC "-//W3C//DTD SVG 1.0//EN" "http://www.w3.org/TR/2001/PR-SVG-20010719/DTD/svg10.dtd">
<svg width="27cm" height="24cm" viewBox="-139 -45 535 467" xmlns="http://www.w3.org/2000/svg" xmlns:xlink="http://www.w3.org/1999/xlink">
  <g>
    <rect style="fill: #ffffff" x="-137.667" y="-43.0168" width="532" height="464"/>
    <line style="fill: none; fill-opacity:0; stroke-width: 2; stroke: #d8e5e5" x1="-137.667" y1="-19.8168" x2="394.333" y2="-19.8168"/>
    <line style="fill: none; fill-opacity:0; stroke-width: 2; stroke: #d8e5e5" x1="-137.667" y1="3.3832" x2="394.333" y2="3.3832"/>
    <line style="fill: none; fill-opacity:0; stroke-width: 2; stroke: #d8e5e5" x1="-137.667" y1="26.5832" x2="394.333" y2="26.5832"/>
    <line style="fill: none; fill-opacity:0; stroke-width: 2; stroke: #d8e5e5" x1="-137.667" y1="49.7832" x2="394.333" y2="49.7832"/>
    <line style="fill: none; fill-opacity:0; stroke-width: 2; stroke: #d8e5e5" x1="-137.667" y1="72.9832" x2="394.333" y2="72.9832"/>
    <line style="fill: none; fill-opacity:0; stroke-width: 2; stroke: #d8e5e5" x1="-137.667" y1="96.1832" x2="394.333" y2="96.1832"/>
    <line style="fill: none; fill-opacity:0; stroke-width: 2; stroke: #d8e5e5" x1="-137.667" y1="119.383" x2="394.333" y2="119.383"/>
    <line style="fill: none; fill-opacity:0; stroke-width: 2; stroke: #d8e5e5" x1="-137.667" y1="142.583" x2="394.333" y2="142.583"/>
    <line style="fill: none; fill-opacity:0; stroke-width: 2; stroke: #d8e5e5" x1="-137.667" y1="165.783" x2="394.333" y2="165.783"/>
    <line style="fill: none; fill-opacity:0; stroke-width: 2; stroke: #d8e5e5" x1="-137.667" y1="188.983" x2="394.333" y2="188.983"/>
    <line style="fill: none; fill-opacity:0; stroke-width: 2; stroke: #d8e5e5" x1="-137.667" y1="212.183" x2="394.333" y2="212.183"/>
    <line style="fill: none; fill-opacity:0; stroke-width: 2; stroke: #d8e5e5" x1="-137.667" y1="235.383" x2="394.333" y2="235.383"/>
    <line style="fill: none; fill-opacity:0; stroke-width: 2; stroke: #d8e5e5" x1="-137.667" y1="258.583" x2="394.333" y2="258.583"/>
    <line style="fill: none; fill-opacity:0; stroke-width: 2; stroke: #d8e5e5" x1="-137.667" y1="281.783" x2="394.333" y2="281.783"/>
    <line style="fill: none; fill-opacity:0; stroke-width: 2; stroke: #d8e5e5" x1="-137.667" y1="304.983" x2="394.333" y2="304.983"/>
    <line style="fill: none; fill-opacity:0; stroke-width: 2; stroke: #d8e5e5" x1="-137.667" y1="328.183" x2="394.333" y2="328.183"/>
    <line style="fill: none; fill-opacity:0; stroke-width: 2; stroke: #d8e5e5" x1="-137.667" y1="351.383" x2="394.333" y2="351.383"/>
    <line style="fill: none; fill-opacity:0; stroke-width: 2; stroke: #d8e5e5" x1="-137.667" y1="374.583" x2="394.333" y2="374.583"/>
    <line style="fill: none; fill-opacity:0; stroke-width: 2; stroke: #d8e5e5" x1="-137.667" y1="397.783" x2="394.333" y2="397.783"/>
    <line style="fill: none; fill-opacity:0; stroke-width: 2; stroke: #d8e5e5" x1="-111.067" y1="-43.0168" x2="-111.067" y2="420.983"/>
    <line style="fill: none; fill-opacity:0; stroke-width: 2; stroke: #d8e5e5" x1="-84.4666" y1="-43.0168" x2="-84.4666" y2="420.983"/>
    <line style="fill: none; fill-opacity:0; stroke-width: 2; stroke: #d8e5e5" x1="-57.8666" y1="-43.0168" x2="-57.8666" y2="420.983"/>
    <line style="fill: none; fill-opacity:0; stroke-width: 2; stroke: #d8e5e5" x1="-31.2666" y1="-43.0168" x2="-31.2666" y2="420.983"/>
    <line style="fill: none; fill-opacity:0; stroke-width: 2; stroke: #d8e5e5" x1="-4.6666" y1="-43.0168" x2="-4.6666" y2="420.983"/>
    <line style="fill: none; fill-opacity:0; stroke-width: 2; stroke: #d8e5e5" x1="21.9334" y1="-43.0168" x2="21.9334" y2="420.983"/>
    <line style="fill: none; fill-opacity:0; stroke-width: 2; stroke: #d8e5e5" x1="48.5334" y1="-43.0168" x2="48.5334" y2="420.983"/>
    <line style="fill: none; fill-opacity:0; stroke-width: 2; stroke: #d8e5e5" x1="75.1334" y1="-43.0168" x2="75.1334" y2="420.983"/>
    <line style="fill: none; fill-opacity:0; stroke-width: 2; stroke: #d8e5e5" x1="101.733" y1="-43.0168" x2="101.733" y2="420.983"/>
    <line style="fill: none; fill-opacity:0; stroke-width: 2; stroke: #d8e5e5" x1="128.333" y1="-43.0168" x2="128.333" y2="420.983"/>
    <line style="fill: none; fill-opacity:0; stroke-width: 2; stroke: #d8e5e5" x1="154.933" y1="-43.0168" x2="154.933" y2="420.983"/>
    <line style="fill: none; fill-opacity:0; stroke-width: 2; stroke: #d8e5e5" x1="181.533" y1="-43.0168" x2="181.533" y2="420.983"/>
    <line style="fill: none; fill-opacity:0; stroke-width: 2; stroke: #d8e5e5" x1="208.133" y1="-43.0168" x2="208.133" y2="420.983"/>
    <line style="fill: none; fill-opacity:0; stroke-width: 2; stroke: #d8e5e5" x1="234.733" y1="-43.0168" x2="234.733" y2="420.983"/>
    <line style="fill: none; fill-opacity:0; stroke-width: 2; stroke: #d8e5e5" x1="261.333" y1="-43.0168" x2="261.333" y2="420.983"/>
    <line style="fill: none; fill-opacity:0; stroke-width: 2; stroke: #d8e5e5" x1="287.933" y1="-43.0168" x2="287.933" y2="420.983"/>
    <line style="fill: none; fill-opacity:0; stroke-width: 2; stroke: #d8e5e5" x1="314.533" y1="-43.0168" x2="314.533" y2="420.983"/>
    <line style="fill: none; fill-opacity:0; stroke-width: 2; stroke: #d8e5e5" x1="341.133" y1="-43.0168" x2="341.133" y2="420.983"/>
    <line style="fill: none; fill-opacity:0; stroke-width: 2; stroke: #d8e5e5" x1="367.733" y1="-43.0168" x2="367.733" y2="420.983"/>
    <rect style="fill: none; fill-opacity:0; stroke-width: 2; stroke: #d8e5e5" x="-137.667" y="-43.0168" width="532" height="464"/>
  </g>
  <g>
    <line style="fill: none; fill-opacity:0; stroke-width: 2; stroke: #000000" x1="57.3492" y1="266.036" x2="141.333" y2="293.984"/>
    <path style="fill: #000000" d="M 57.3492 266.036 C 57.8228,264.613 59.7197,263.663 61.143,264.137 C 62.5662,264.61 63.5159,266.507 63.0422,267.931 C 62.5686,269.354 60.6717,270.303 59.2485,269.83 C 57.8252,269.356 56.8756,267.459 57.3492,266.036z"/>
    <path style="fill: none; fill-opacity:0; stroke-width: 2; stroke: #000000" d="M 57.3492 266.036 C 57.8228,264.613 59.7197,263.663 61.143,264.137 C 62.5662,264.61 63.5159,266.507 63.0422,267.931 C 62.5686,269.354 60.6717,270.303 59.2485,269.83 C 57.8252,269.356 56.8756,267.459 57.3492,266.036"/>
  </g>
  <g>
    <rect style="fill: #1e90ff" x="-60.6666" y="118.983" width="82" height="47"/>
    <rect style="fill: none; fill-opacity:0; stroke-width: 2; stroke: #0000ff" x="-60.6666" y="118.983" width="82" height="47"/>
  </g>
  <g>
    <rect style="fill: #ff0000" x="23.3334" y="210.984" width="132" height="96"/>
    <rect style="fill: none; fill-opacity:0; stroke-width: 2; stroke: #ff0000" x="23.3334" y="210.984" width="132" height="96"/>
  </g>
  <g>
    <rect style="fill: #ff0000" x="-60.6666" y="234.984" width="83" height="72"/>
    <rect style="fill: none; fill-opacity:0; stroke-width: 2; stroke: #ff0000" x="-60.6666" y="234.984" width="83" height="72"/>
  </g>
  <g>
    <rect style="fill: #ff0000" x="-84.6666" y="257.984" width="26" height="48"/>
    <rect style="fill: none; fill-opacity:0; stroke-width: 2; stroke: #ff0000" x="-84.6666" y="257.984" width="26" height="48"/>
  </g>
  <g>
    <rect style="fill: #ff0000" x="102.333" y="-19.0168" width="79" height="138"/>
    <rect style="fill: none; fill-opacity:0; stroke-width: 2; stroke: #ff0000" x="102.333" y="-19.0168" width="79" height="138"/>
  </g>
  <g>
    <rect style="fill: #ff0000" x="-3.66666" y="-20.0168" width="107" height="46"/>
    <rect style="fill: none; fill-opacity:0; stroke-width: 2; stroke: #ff0000" x="-3.66666" y="-20.0168" width="107" height="46"/>
  </g>
  <g>
    <rect style="fill: #ff0000" x="22.3334" y="23.9832" width="81" height="25"/>
    <rect style="fill: none; fill-opacity:0; stroke-width: 2; stroke: #ff0000" x="22.3334" y="23.9832" width="81" height="25"/>
  </g>
  <g>
    <rect style="fill: #ff0000" x="75.3334" y="46.9832" width="27" height="48"/>
    <rect style="fill: none; fill-opacity:0; stroke-width: 2; stroke: #ff0000" x="75.3334" y="46.9832" width="27" height="48"/>
  </g>
  <g>
    <rect style="fill: #ff0000" x="48.3334" y="49.9832" width="28" height="23"/>
    <rect style="fill: none; fill-opacity:0; stroke-width: 2; stroke: #ff0000" x="48.3334" y="49.9832" width="28" height="23"/>
  </g>
  <g>
    <rect style="fill: #ff0000" x="314" y="96.4832" width="53" height="255"/>
    <rect style="fill: none; fill-opacity:0; stroke-width: 2; stroke: #ff0000" x="314" y="96.4832" width="53" height="255"/>
  </g>
  <g>
    <rect style="fill: #ff0000" x="288" y="259.484" width="24" height="47"/>
    <rect style="fill: none; fill-opacity:0; stroke-width: 2; stroke: #ff0000" x="288" y="259.484" width="24" height="47"/>
  </g>
</svg>
