<?xml version="1.0" encoding="utf-8"?>
<svg xmlns="http://www.w3.org/2000/svg" xmlns:xlink="http://www.w3.org/1999/xlink" width="600" height="400" viewBox="0 0 2400 1600">
<defs>
  <clipPath id="clip550">
    <rect x="0" y="0" width="2400" height="1600"/>
  </clipPath>
</defs>
<path clip-path="url(#clip550)" d="
M0 1600 L2400 1600 L2400 0 L0 0  Z
  " fill="#ffffff" fill-rule="evenodd" fill-opacity="1"/>
<defs>
  <clipPath id="clip551">
    <rect x="480" y="0" width="1681" height="1600"/>
  </clipPath>
</defs>
<path clip-path="url(#clip550)" d="
M141.853 1486.45 L2352.76 1486.45 L2352.76 47.2441 L141.853 47.2441  Z
  " fill="#ffffff" fill-rule="evenodd" fill-opacity="1"/>
<defs>
  <clipPath id="clip552">
    <rect x="141" y="47" width="2212" height="1440"/>
  </clipPath>
</defs>
<polyline clip-path="url(#clip552)" style="stroke:#000000; stroke-linecap:butt; stroke-linejoin:round; stroke-width:2; stroke-opacity:0.1; fill:none" points="
  204.426,1486.45 204.426,47.2441 
  "/>
<polyline clip-path="url(#clip552)" style="stroke:#000000; stroke-linecap:butt; stroke-linejoin:round; stroke-width:2; stroke-opacity:0.1; fill:none" points="
  725.316,1486.45 725.316,47.2441 
  "/>
<polyline clip-path="url(#clip552)" style="stroke:#000000; stroke-linecap:butt; stroke-linejoin:round; stroke-width:2; stroke-opacity:0.1; fill:none" points="
  1246.21,1486.45 1246.21,47.2441 
  "/>
<polyline clip-path="url(#clip552)" style="stroke:#000000; stroke-linecap:butt; stroke-linejoin:round; stroke-width:2; stroke-opacity:0.1; fill:none" points="
  1767.1,1486.45 1767.1,47.2441 
  "/>
<polyline clip-path="url(#clip552)" style="stroke:#000000; stroke-linecap:butt; stroke-linejoin:round; stroke-width:2; stroke-opacity:0.1; fill:none" points="
  2287.99,1486.45 2287.99,47.2441 
  "/>
<polyline clip-path="url(#clip550)" style="stroke:#000000; stroke-linecap:butt; stroke-linejoin:round; stroke-width:4; stroke-opacity:1; fill:none" points="
  141.853,1486.45 2352.76,1486.45 
  "/>
<polyline clip-path="url(#clip550)" style="stroke:#000000; stroke-linecap:butt; stroke-linejoin:round; stroke-width:4; stroke-opacity:1; fill:none" points="
  204.426,1486.45 204.426,1469.18 
  "/>
<polyline clip-path="url(#clip550)" style="stroke:#000000; stroke-linecap:butt; stroke-linejoin:round; stroke-width:4; stroke-opacity:1; fill:none" points="
  725.316,1486.45 725.316,1469.18 
  "/>
<polyline clip-path="url(#clip550)" style="stroke:#000000; stroke-linecap:butt; stroke-linejoin:round; stroke-width:4; stroke-opacity:1; fill:none" points="
  1246.21,1486.45 1246.21,1469.18 
  "/>
<polyline clip-path="url(#clip550)" style="stroke:#000000; stroke-linecap:butt; stroke-linejoin:round; stroke-width:4; stroke-opacity:1; fill:none" points="
  1767.1,1486.45 1767.1,1469.18 
  "/>
<polyline clip-path="url(#clip550)" style="stroke:#000000; stroke-linecap:butt; stroke-linejoin:round; stroke-width:4; stroke-opacity:1; fill:none" points="
  2287.99,1486.45 2287.99,1469.18 
  "/>
<path clip-path="url(#clip550)" d="M204.426 1515.64 Q200.815 1515.64 198.986 1519.2 Q197.18 1522.75 197.18 1529.87 Q197.18 1536.98 198.986 1540.55 Q200.815 1544.09 204.426 1544.09 Q208.06 1544.09 209.865 1540.55 Q211.694 1536.98 211.694 1529.87 Q211.694 1522.75 209.865 1519.2 Q208.06 1515.64 204.426 1515.64 M204.426 1511.93 Q210.236 1511.93 213.291 1516.54 Q216.37 1521.12 216.37 1529.87 Q216.37 1538.6 213.291 1543.21 Q210.236 1547.79 204.426 1547.79 Q198.616 1547.79 195.537 1543.21 Q192.481 1538.6 192.481 1529.87 Q192.481 1521.12 195.537 1516.54 Q198.616 1511.93 204.426 1511.93 Z" fill="#000000" fill-rule="evenodd" fill-opacity="1" /><path clip-path="url(#clip550)" d="M704.587 1543.18 L720.906 1543.18 L720.906 1547.12 L698.962 1547.12 L698.962 1543.18 Q701.624 1540.43 706.207 1535.8 Q710.814 1531.15 711.994 1529.81 Q714.24 1527.28 715.119 1525.55 Q716.022 1523.79 716.022 1522.1 Q716.022 1519.34 714.078 1517.61 Q712.156 1515.87 709.054 1515.87 Q706.855 1515.87 704.402 1516.63 Q701.971 1517.4 699.193 1518.95 L699.193 1514.23 Q702.017 1513.09 704.471 1512.51 Q706.925 1511.93 708.962 1511.93 Q714.332 1511.93 717.527 1514.62 Q720.721 1517.31 720.721 1521.8 Q720.721 1523.93 719.911 1525.85 Q719.124 1527.74 717.017 1530.34 Q716.439 1531.01 713.337 1534.23 Q710.235 1537.42 704.587 1543.18 Z" fill="#000000" fill-rule="evenodd" fill-opacity="1" /><path clip-path="url(#clip550)" d="M730.767 1512.56 L749.124 1512.56 L749.124 1516.5 L735.05 1516.5 L735.05 1524.97 Q736.068 1524.62 737.087 1524.46 Q738.105 1524.27 739.124 1524.27 Q744.911 1524.27 748.29 1527.44 Q751.67 1530.62 751.67 1536.03 Q751.67 1541.61 748.198 1544.71 Q744.726 1547.79 738.406 1547.79 Q736.23 1547.79 733.962 1547.42 Q731.716 1547.05 729.309 1546.31 L729.309 1541.61 Q731.392 1542.74 733.615 1543.3 Q735.837 1543.86 738.314 1543.86 Q742.318 1543.86 744.656 1541.75 Q746.994 1539.64 746.994 1536.03 Q746.994 1532.42 744.656 1530.31 Q742.318 1528.21 738.314 1528.21 Q736.439 1528.21 734.564 1528.62 Q732.712 1529.04 730.767 1529.92 L730.767 1512.56 Z" fill="#000000" fill-rule="evenodd" fill-opacity="1" /><path clip-path="url(#clip550)" d="M1220.91 1512.56 L1239.26 1512.56 L1239.26 1516.5 L1225.19 1516.5 L1225.19 1524.97 Q1226.21 1524.62 1227.22 1524.46 Q1228.24 1524.27 1229.26 1524.27 Q1235.05 1524.27 1238.43 1527.44 Q1241.81 1530.62 1241.81 1536.03 Q1241.81 1541.61 1238.34 1544.71 Q1234.86 1547.79 1228.54 1547.79 Q1226.37 1547.79 1224.1 1547.42 Q1221.85 1547.05 1219.45 1546.31 L1219.45 1541.61 Q1221.53 1542.74 1223.75 1543.3 Q1225.97 1543.86 1228.45 1543.86 Q1232.46 1543.86 1234.79 1541.75 Q1237.13 1539.64 1237.13 1536.03 Q1237.13 1532.42 1234.79 1530.31 Q1232.46 1528.21 1228.45 1528.21 Q1226.58 1528.21 1224.7 1528.62 Q1222.85 1529.04 1220.91 1529.92 L1220.91 1512.56 Z" fill="#000000" fill-rule="evenodd" fill-opacity="1" /><path clip-path="url(#clip550)" d="M1261.02 1515.64 Q1257.41 1515.64 1255.58 1519.2 Q1253.78 1522.75 1253.78 1529.87 Q1253.78 1536.98 1255.58 1540.55 Q1257.41 1544.09 1261.02 1544.09 Q1264.66 1544.09 1266.46 1540.55 Q1268.29 1536.98 1268.29 1529.87 Q1268.29 1522.75 1266.46 1519.2 Q1264.66 1515.64 1261.02 1515.64 M1261.02 1511.93 Q1266.83 1511.93 1269.89 1516.54 Q1272.97 1521.12 1272.97 1529.87 Q1272.97 1538.6 1269.89 1543.21 Q1266.83 1547.79 1261.02 1547.79 Q1255.21 1547.79 1252.13 1543.21 Q1249.08 1538.6 1249.08 1529.87 Q1249.08 1521.12 1252.13 1516.54 Q1255.21 1511.93 1261.02 1511.93 Z" fill="#000000" fill-rule="evenodd" fill-opacity="1" /><path clip-path="url(#clip550)" d="M1740.95 1512.56 L1763.17 1512.56 L1763.17 1514.55 L1750.63 1547.12 L1745.74 1547.12 L1757.55 1516.5 L1740.95 1516.5 L1740.95 1512.56 Z" fill="#000000" fill-rule="evenodd" fill-opacity="1" /><path clip-path="url(#clip550)" d="M1772.34 1512.56 L1790.7 1512.56 L1790.7 1516.5 L1776.62 1516.5 L1776.62 1524.97 Q1777.64 1524.62 1778.66 1524.46 Q1779.68 1524.27 1780.7 1524.27 Q1786.48 1524.27 1789.86 1527.44 Q1793.24 1530.62 1793.24 1536.03 Q1793.24 1541.61 1789.77 1544.71 Q1786.3 1547.79 1779.98 1547.79 Q1777.8 1547.79 1775.53 1547.42 Q1773.29 1547.05 1770.88 1546.31 L1770.88 1541.61 Q1772.96 1542.74 1775.19 1543.3 Q1777.41 1543.86 1779.89 1543.86 Q1783.89 1543.86 1786.23 1541.75 Q1788.57 1539.64 1788.57 1536.03 Q1788.57 1532.42 1786.23 1530.31 Q1783.89 1528.21 1779.89 1528.21 Q1778.01 1528.21 1776.14 1528.62 Q1774.28 1529.04 1772.34 1529.92 L1772.34 1512.56 Z" fill="#000000" fill-rule="evenodd" fill-opacity="1" /><path clip-path="url(#clip550)" d="M2247.59 1543.18 L2255.23 1543.18 L2255.23 1516.82 L2246.92 1518.49 L2246.92 1514.23 L2255.19 1512.56 L2259.86 1512.56 L2259.86 1543.18 L2267.5 1543.18 L2267.5 1547.12 L2247.59 1547.12 L2247.59 1543.18 Z" fill="#000000" fill-rule="evenodd" fill-opacity="1" /><path clip-path="url(#clip550)" d="M2286.95 1515.64 Q2283.33 1515.64 2281.51 1519.2 Q2279.7 1522.75 2279.7 1529.87 Q2279.7 1536.98 2281.51 1540.55 Q2283.33 1544.09 2286.95 1544.09 Q2290.58 1544.09 2292.38 1540.55 Q2294.21 1536.98 2294.21 1529.87 Q2294.21 1522.75 2292.38 1519.2 Q2290.58 1515.64 2286.95 1515.64 M2286.95 1511.93 Q2292.76 1511.93 2295.81 1516.54 Q2298.89 1521.12 2298.89 1529.87 Q2298.89 1538.6 2295.81 1543.21 Q2292.76 1547.79 2286.95 1547.79 Q2281.14 1547.79 2278.06 1543.21 Q2275 1538.6 2275 1529.87 Q2275 1521.12 2278.06 1516.54 Q2281.14 1511.93 2286.95 1511.93 Z" fill="#000000" fill-rule="evenodd" fill-opacity="1" /><path clip-path="url(#clip550)" d="M2317.11 1515.64 Q2313.5 1515.64 2311.67 1519.2 Q2309.86 1522.75 2309.86 1529.87 Q2309.86 1536.98 2311.67 1540.55 Q2313.5 1544.09 2317.11 1544.09 Q2320.74 1544.09 2322.55 1540.55 Q2324.38 1536.98 2324.38 1529.87 Q2324.38 1522.75 2322.55 1519.2 Q2320.74 1515.64 2317.11 1515.64 M2317.11 1511.93 Q2322.92 1511.93 2325.97 1516.54 Q2329.05 1521.12 2329.05 1529.87 Q2329.05 1538.6 2325.97 1543.21 Q2322.92 1547.79 2317.11 1547.79 Q2311.3 1547.79 2308.22 1543.21 Q2305.16 1538.6 2305.16 1529.87 Q2305.16 1521.12 2308.22 1516.54 Q2311.3 1511.93 2317.11 1511.93 Z" fill="#000000" fill-rule="evenodd" fill-opacity="1" /><polyline clip-path="url(#clip552)" style="stroke:#000000; stroke-linecap:butt; stroke-linejoin:round; stroke-width:2; stroke-opacity:0.1; fill:none" points="
  141.853,1445.72 2352.76,1445.72 
  "/>
<polyline clip-path="url(#clip552)" style="stroke:#000000; stroke-linecap:butt; stroke-linejoin:round; stroke-width:2; stroke-opacity:0.1; fill:none" points="
  141.853,1120.03 2352.76,1120.03 
  "/>
<polyline clip-path="url(#clip552)" style="stroke:#000000; stroke-linecap:butt; stroke-linejoin:round; stroke-width:2; stroke-opacity:0.1; fill:none" points="
  141.853,794.337 2352.76,794.337 
  "/>
<polyline clip-path="url(#clip552)" style="stroke:#000000; stroke-linecap:butt; stroke-linejoin:round; stroke-width:2; stroke-opacity:0.1; fill:none" points="
  141.853,468.647 2352.76,468.647 
  "/>
<polyline clip-path="url(#clip552)" style="stroke:#000000; stroke-linecap:butt; stroke-linejoin:round; stroke-width:2; stroke-opacity:0.1; fill:none" points="
  141.853,142.957 2352.76,142.957 
  "/>
<polyline clip-path="url(#clip550)" style="stroke:#000000; stroke-linecap:butt; stroke-linejoin:round; stroke-width:4; stroke-opacity:1; fill:none" points="
  141.853,1486.45 141.853,47.2441 
  "/>
<polyline clip-path="url(#clip550)" style="stroke:#000000; stroke-linecap:butt; stroke-linejoin:round; stroke-width:4; stroke-opacity:1; fill:none" points="
  141.853,1445.72 168.384,1445.72 
  "/>
<polyline clip-path="url(#clip550)" style="stroke:#000000; stroke-linecap:butt; stroke-linejoin:round; stroke-width:4; stroke-opacity:1; fill:none" points="
  141.853,1120.03 168.384,1120.03 
  "/>
<polyline clip-path="url(#clip550)" style="stroke:#000000; stroke-linecap:butt; stroke-linejoin:round; stroke-width:4; stroke-opacity:1; fill:none" points="
  141.853,794.337 168.384,794.337 
  "/>
<polyline clip-path="url(#clip550)" style="stroke:#000000; stroke-linecap:butt; stroke-linejoin:round; stroke-width:4; stroke-opacity:1; fill:none" points="
  141.853,468.647 168.384,468.647 
  "/>
<polyline clip-path="url(#clip550)" style="stroke:#000000; stroke-linecap:butt; stroke-linejoin:round; stroke-width:4; stroke-opacity:1; fill:none" points="
  141.853,142.957 168.384,142.957 
  "/>
<path clip-path="url(#clip550)" d="M93.9086 1431.51 Q90.2975 1431.51 88.4688 1435.08 Q86.6632 1438.62 86.6632 1445.75 Q86.6632 1452.86 88.4688 1456.42 Q90.2975 1459.96 93.9086 1459.96 Q97.5428 1459.96 99.3483 1456.42 Q101.177 1452.86 101.177 1445.75 Q101.177 1438.62 99.3483 1435.08 Q97.5428 1431.51 93.9086 1431.51 M93.9086 1427.81 Q99.7187 1427.81 102.774 1432.42 Q105.853 1437 105.853 1445.75 Q105.853 1454.48 102.774 1459.08 Q99.7187 1463.67 93.9086 1463.67 Q88.0984 1463.67 85.0197 1459.08 Q81.9642 1454.48 81.9642 1445.75 Q81.9642 1437 85.0197 1432.42 Q88.0984 1427.81 93.9086 1427.81 Z" fill="#000000" fill-rule="evenodd" fill-opacity="1" /><path clip-path="url(#clip550)" d="M57.7745 1133.37 L74.0939 1133.37 L74.0939 1137.31 L52.1495 1137.31 L52.1495 1133.37 Q54.8115 1130.62 59.3949 1125.99 Q64.0013 1121.33 65.1819 1119.99 Q67.4272 1117.47 68.3068 1115.73 Q69.2096 1113.97 69.2096 1112.28 Q69.2096 1109.53 67.2652 1107.79 Q65.3439 1106.06 62.2421 1106.06 Q60.043 1106.06 57.5893 1106.82 Q55.1588 1107.58 52.381 1109.13 L52.381 1104.41 Q55.2051 1103.28 57.6588 1102.7 Q60.1124 1102.12 62.1495 1102.12 Q67.5198 1102.12 70.7142 1104.81 Q73.9087 1107.49 73.9087 1111.98 Q73.9087 1114.11 73.0985 1116.03 Q72.3115 1117.93 70.205 1120.52 Q69.6263 1121.2 66.5245 1124.41 Q63.4226 1127.61 57.7745 1133.37 Z" fill="#000000" fill-rule="evenodd" fill-opacity="1" /><path clip-path="url(#clip550)" d="M93.9086 1105.82 Q90.2975 1105.82 88.4688 1109.39 Q86.6632 1112.93 86.6632 1120.06 Q86.6632 1127.17 88.4688 1130.73 Q90.2975 1134.27 93.9086 1134.27 Q97.5428 1134.27 99.3483 1130.73 Q101.177 1127.17 101.177 1120.06 Q101.177 1112.93 99.3483 1109.39 Q97.5428 1105.82 93.9086 1105.82 M93.9086 1102.12 Q99.7187 1102.12 102.774 1106.73 Q105.853 1111.31 105.853 1120.06 Q105.853 1128.79 102.774 1133.39 Q99.7187 1137.98 93.9086 1137.98 Q88.0984 1137.98 85.0197 1133.39 Q81.9642 1128.79 81.9642 1120.06 Q81.9642 1111.31 85.0197 1106.73 Q88.0984 1102.12 93.9086 1102.12 Z" fill="#000000" fill-rule="evenodd" fill-opacity="1" /><path clip-path="url(#clip550)" d="M66.5939 781.131 L54.7884 799.58 L66.5939 799.58 L66.5939 781.131 M65.367 777.057 L71.2466 777.057 L71.2466 799.58 L76.1772 799.58 L76.1772 803.468 L71.2466 803.468 L71.2466 811.617 L66.5939 811.617 L66.5939 803.468 L50.9921 803.468 L50.9921 798.955 L65.367 777.057 Z" fill="#000000" fill-rule="evenodd" fill-opacity="1" /><path clip-path="url(#clip550)" d="M93.9086 780.135 Q90.2975 780.135 88.4688 783.7 Q86.6632 787.242 86.6632 794.371 Q86.6632 801.478 88.4688 805.043 Q90.2975 808.584 93.9086 808.584 Q97.5428 808.584 99.3483 805.043 Q101.177 801.478 101.177 794.371 Q101.177 787.242 99.3483 783.7 Q97.5428 780.135 93.9086 780.135 M93.9086 776.432 Q99.7187 776.432 102.774 781.038 Q105.853 785.621 105.853 794.371 Q105.853 803.098 102.774 807.705 Q99.7187 812.288 93.9086 812.288 Q88.0984 812.288 85.0197 807.705 Q81.9642 803.098 81.9642 794.371 Q81.9642 785.621 85.0197 781.038 Q88.0984 776.432 93.9086 776.432 Z" fill="#000000" fill-rule="evenodd" fill-opacity="1" /><path clip-path="url(#clip550)" d="M64.3254 466.784 Q61.1773 466.784 59.3254 468.936 Q57.4967 471.089 57.4967 474.839 Q57.4967 478.566 59.3254 480.742 Q61.1773 482.895 64.3254 482.895 Q67.4735 482.895 69.3022 480.742 Q71.1541 478.566 71.1541 474.839 Q71.1541 471.089 69.3022 468.936 Q67.4735 466.784 64.3254 466.784 M73.6077 452.131 L73.6077 456.39 Q71.8485 455.557 70.0429 455.117 Q68.2606 454.677 66.5013 454.677 Q61.8717 454.677 59.418 457.802 Q56.9875 460.927 56.6402 467.247 Q58.006 465.233 60.0662 464.168 Q62.1263 463.08 64.6032 463.08 Q69.8115 463.08 72.8207 466.251 Q75.8531 469.399 75.8531 474.839 Q75.8531 480.163 72.705 483.381 Q69.5568 486.598 64.3254 486.598 Q58.33 486.598 55.1588 482.015 Q51.9875 477.408 51.9875 468.682 Q51.9875 460.487 55.8764 455.626 Q59.7652 450.742 66.3161 450.742 Q68.0754 450.742 69.8578 451.089 Q71.6633 451.436 73.6077 452.131 Z" fill="#000000" fill-rule="evenodd" fill-opacity="1" /><path clip-path="url(#clip550)" d="M93.9086 454.446 Q90.2975 454.446 88.4688 458.01 Q86.6632 461.552 86.6632 468.682 Q86.6632 475.788 88.4688 479.353 Q90.2975 482.895 93.9086 482.895 Q97.5428 482.895 99.3483 479.353 Q101.177 475.788 101.177 468.682 Q101.177 461.552 99.3483 458.01 Q97.5428 454.446 93.9086 454.446 M93.9086 450.742 Q99.7187 450.742 102.774 455.348 Q105.853 459.932 105.853 468.682 Q105.853 477.408 102.774 482.015 Q99.7187 486.598 93.9086 486.598 Q88.0984 486.598 85.0197 482.015 Q81.9642 477.408 81.9642 468.682 Q81.9642 459.932 85.0197 455.348 Q88.0984 450.742 93.9086 450.742 Z" fill="#000000" fill-rule="evenodd" fill-opacity="1" /><path clip-path="url(#clip550)" d="M63.7467 143.825 Q60.4134 143.825 58.4921 145.608 Q56.5939 147.39 56.5939 150.515 Q56.5939 153.64 58.4921 155.423 Q60.4134 157.205 63.7467 157.205 Q67.08 157.205 69.0013 155.423 Q70.9226 153.617 70.9226 150.515 Q70.9226 147.39 69.0013 145.608 Q67.1032 143.825 63.7467 143.825 M59.0708 141.835 Q56.0615 141.094 54.3717 139.034 Q52.7051 136.974 52.7051 134.011 Q52.7051 129.867 55.6449 127.46 Q58.6078 125.052 63.7467 125.052 Q68.9087 125.052 71.8485 127.46 Q74.7883 129.867 74.7883 134.011 Q74.7883 136.974 73.0985 139.034 Q71.4318 141.094 68.4457 141.835 Q71.8253 142.622 73.7003 144.913 Q75.5985 147.205 75.5985 150.515 Q75.5985 155.538 72.5198 158.224 Q69.4642 160.909 63.7467 160.909 Q58.0291 160.909 54.9504 158.224 Q51.8949 155.538 51.8949 150.515 Q51.8949 147.205 53.793 144.913 Q55.6912 142.622 59.0708 141.835 M57.3578 134.45 Q57.3578 137.136 59.0245 138.64 Q60.7143 140.145 63.7467 140.145 Q66.7559 140.145 68.4457 138.64 Q70.1587 137.136 70.1587 134.45 Q70.1587 131.765 68.4457 130.261 Q66.7559 128.756 63.7467 128.756 Q60.7143 128.756 59.0245 130.261 Q57.3578 131.765 57.3578 134.45 Z" fill="#000000" fill-rule="evenodd" fill-opacity="1" /><path clip-path="url(#clip550)" d="M93.9086 128.756 Q90.2975 128.756 88.4688 132.321 Q86.6632 135.863 86.6632 142.992 Q86.6632 150.099 88.4688 153.663 Q90.2975 157.205 93.9086 157.205 Q97.5428 157.205 99.3483 153.663 Q101.177 150.099 101.177 142.992 Q101.177 135.863 99.3483 132.321 Q97.5428 128.756 93.9086 128.756 M93.9086 125.052 Q99.7187 125.052 102.774 129.659 Q105.853 134.242 105.853 142.992 Q105.853 151.719 102.774 156.325 Q99.7187 160.909 93.9086 160.909 Q88.0984 160.909 85.0197 156.325 Q81.9642 151.719 81.9642 142.992 Q81.9642 134.242 85.0197 129.659 Q88.0984 125.052 93.9086 125.052 Z" fill="#000000" fill-rule="evenodd" fill-opacity="1" /><path clip-path="url(#clip552)" d="
M1707.67 521.124 L1676.4 502.119 L1645.58 482.86 L1615.34 463.424 L1585.79 443.891 L1557.06 424.338 L1529.25 404.844 L1502.49 385.488 L1476.88 366.348 L1452.52 347.501 
  L1429.52 329.022 L1407.96 310.987 L1387.93 293.467 L1369.51 276.534 L1352.78 260.255 L1337.8 244.696 L1324.63 229.92 L1313.34 215.985 L1303.95 202.95 L1296.51 190.864 
  L1291.05 179.779 L1287.6 169.737 L1286.16 160.78 L1286.74 152.943 L1289.34 146.259 L1293.95 140.754 L1300.55 136.449 L1309.12 133.364 L1319.61 131.509 L1331.99 130.893 
  L1346.2 131.517 L1362.2 133.38 L1379.91 136.474 L1399.27 140.787 L1420.19 146.3 L1442.59 152.992 L1466.39 160.837 L1491.48 169.801 L1517.76 179.85 L1545.14 190.942 
  L1573.49 203.034 L1602.71 216.076 L1632.67 230.016 L1663.26 244.798 L1694.36 260.362 L1725.83 276.646 L1757.55 293.583 L1789.4 311.107 L1821.24 329.145 L1852.95 347.627 
  L1884.39 366.476 L1915.45 385.618 L1946 404.975 L1975.91 424.469 L2005.07 444.022 L2033.35 463.555 L2060.65 482.99 L2086.85 502.248 L2111.84 521.251 L2135.53 539.923 
  L2157.83 558.189 L2178.63 575.976 L2197.87 593.211 L2215.45 609.826 L2231.32 625.753 L2245.39 640.928 L2257.63 655.29 L2267.98 668.782 L2276.4 681.349 L2282.85 692.94 
  L2287.31 703.509 L2289.75 713.013 L2290.18 721.414 L2288.59 728.679 L2284.98 734.777 L2279.38 739.684 L2271.79 743.381 L2262.26 745.852 L2250.82 747.088 L2237.51 747.084 
  L2222.4 745.84 L2205.54 743.36 L2186.99 739.655 L2166.84 734.739 L2145.17 728.634 L2122.06 721.362 L2097.61 712.953 L2071.9 703.442 L2045.06 692.866 L2017.18 681.268 
  L1988.38 668.694 L1958.78 655.197 L1928.49 640.828 L1897.63 625.648 L1866.33 609.716 L1834.72 593.097 L1802.92 575.858 L1771.06 558.068 L1739.27 539.799 L1707.67 521.124 
  L1707.67 521.124  Z
  " fill="#009af9" fill-rule="evenodd" fill-opacity="0.3"/>
<polyline clip-path="url(#clip552)" style="stroke:#000000; stroke-linecap:butt; stroke-linejoin:round; stroke-width:4; stroke-opacity:0.3; fill:none" points="
  1707.67,521.124 1676.4,502.119 1645.58,482.86 1615.34,463.424 1585.79,443.891 1557.06,424.338 1529.25,404.844 1502.49,385.488 1476.88,366.348 1452.52,347.501 
  1429.52,329.022 1407.96,310.987 1387.93,293.467 1369.51,276.534 1352.78,260.255 1337.8,244.696 1324.63,229.92 1313.34,215.985 1303.95,202.95 1296.51,190.864 
  1291.05,179.779 1287.6,169.737 1286.16,160.78 1286.74,152.943 1289.34,146.259 1293.95,140.754 1300.55,136.449 1309.12,133.364 1319.61,131.509 1331.99,130.893 
  1346.2,131.517 1362.2,133.38 1379.91,136.474 1399.27,140.787 1420.19,146.3 1442.59,152.992 1466.39,160.837 1491.48,169.801 1517.76,179.85 1545.14,190.942 
  1573.49,203.034 1602.71,216.076 1632.67,230.016 1663.26,244.798 1694.36,260.362 1725.83,276.646 1757.55,293.583 1789.4,311.107 1821.24,329.145 1852.95,347.627 
  1884.39,366.476 1915.45,385.618 1946,404.975 1975.91,424.469 2005.07,444.022 2033.35,463.555 2060.65,482.99 2086.85,502.248 2111.84,521.251 2135.53,539.923 
  2157.83,558.189 2178.63,575.976 2197.87,593.211 2215.45,609.826 2231.32,625.753 2245.39,640.928 2257.63,655.29 2267.98,668.782 2276.4,681.349 2282.85,692.94 
  2287.31,703.509 2289.75,713.013 2290.18,721.414 2288.59,728.679 2284.98,734.777 2279.38,739.684 2271.79,743.381 2262.26,745.852 2250.82,747.088 2237.51,747.084 
  2222.4,745.84 2205.54,743.36 2186.99,739.655 2166.84,734.739 2145.17,728.634 2122.06,721.362 2097.61,712.953 2071.9,703.442 2045.06,692.866 2017.18,681.268 
  1988.38,668.694 1958.78,655.197 1928.49,640.828 1897.63,625.648 1866.33,609.716 1834.72,593.097 1802.92,575.858 1771.06,558.068 1739.27,539.799 1707.67,521.124 
  
  "/>
<polyline clip-path="url(#clip552)" style="stroke:#e26f46; stroke-linecap:butt; stroke-linejoin:round; stroke-width:4; stroke-opacity:1; fill:none" points="
  204.426,1445.72 208.593,1445.72 212.76,1445.72 216.927,1445.72 221.094,1445.72 225.261,1445.72 229.428,1445.72 233.596,1445.72 237.763,1445.72 241.93,1445.72 
  246.097,1445.72 250.264,1445.72 254.431,1445.72 258.598,1445.72 262.765,1445.72 266.933,1445.72 271.1,1445.72 275.267,1445.72 279.434,1445.72 283.601,1445.72 
  287.768,1445.72 291.935,1445.72 296.102,1445.72 300.269,1445.72 304.437,1445.72 308.604,1445.72 312.771,1445.72 316.938,1445.72 321.105,1445.72 325.272,1445.72 
  329.439,1445.72 333.606,1445.72 337.774,1445.72 341.941,1445.72 346.108,1445.72 350.275,1445.72 354.442,1445.72 358.609,1445.72 362.776,1445.72 366.943,1445.72 
  371.111,1445.72 375.278,1445.72 379.445,1445.72 383.612,1445.72 387.779,1445.72 391.946,1445.72 396.113,1445.72 400.28,1445.72 404.448,1445.72 408.615,1445.72 
  412.782,1445.72 416.949,1445.72 421.116,1445.72 425.283,1445.72 429.45,1445.72 433.617,1445.72 437.785,1445.72 441.952,1445.72 446.119,1445.72 450.286,1445.72 
  454.453,1445.72 458.62,1445.72 462.787,1445.72 466.954,1445.72 471.121,1445.72 475.289,1445.72 479.456,1445.72 483.623,1445.72 487.79,1445.72 491.957,1445.72 
  496.124,1445.72 500.291,1445.72 504.458,1445.72 508.626,1445.72 512.793,1445.72 516.96,1445.72 521.127,1445.72 525.294,1445.72 529.461,1445.72 533.628,1445.72 
  537.795,1445.72 541.963,1445.72 546.13,1445.72 550.297,1445.72 554.464,1445.72 558.631,1445.72 562.798,1445.72 566.965,1445.72 571.132,1445.72 575.3,1445.72 
  579.467,1445.72 583.634,1445.72 587.801,1445.72 591.968,1445.72 596.135,1445.72 600.302,1445.72 604.469,1445.72 608.637,1445.72 612.804,1445.72 616.971,1445.72 
  621.138,1445.72 625.305,1445.72 629.472,1445.72 633.639,1445.72 637.806,1445.72 641.974,1445.72 646.141,1445.72 650.308,1445.72 654.475,1445.72 658.642,1445.72 
  662.809,1445.72 666.976,1445.72 671.143,1445.72 675.31,1445.72 679.478,1445.72 683.645,1445.72 687.812,1445.72 691.979,1445.72 696.146,1445.72 700.313,1445.72 
  704.48,1445.72 708.647,1445.72 712.815,1445.72 716.982,1445.72 721.149,1445.72 725.316,1445.72 729.483,1445.72 733.65,1445.72 737.817,1445.72 741.984,1445.72 
  746.152,1445.72 750.319,1445.72 754.486,1445.72 758.653,1445.72 762.82,1445.72 766.987,1445.72 771.154,1445.72 775.321,1445.72 779.489,1445.72 783.656,1445.72 
  787.823,1445.72 791.99,1445.72 796.157,1445.72 800.324,1445.72 804.491,1445.72 808.658,1445.72 812.826,1445.72 816.993,1445.72 821.16,1445.72 825.327,1445.72 
  831.578,1445.72 837.828,1445.67 844.078,1445.59 850.327,1445.47 856.574,1445.31 862.819,1445.11 869.062,1444.86 875.302,1444.58 881.539,1444.25 887.772,1443.88 
  894.001,1443.48 900.225,1443.03 906.445,1442.54 912.659,1442.01 918.867,1441.45 925.069,1440.84 931.264,1440.19 937.452,1439.5 943.633,1438.77 949.805,1438 
  955.969,1437.19 962.124,1436.34 968.27,1435.45 974.407,1434.52 980.533,1433.54 986.648,1432.53 992.753,1431.48 998.846,1430.39 1004.93,1429.26 1011,1428.1 
  1017.05,1426.89 1023.1,1425.64 1029.13,1424.35 1035.14,1423.02 1041.14,1421.66 1047.13,1420.25 1053.1,1418.81 1059.06,1417.33 1065,1415.81 1070.92,1414.25 
  1076.83,1412.65 1082.72,1411.01 1088.59,1409.34 1094.44,1407.62 1100.28,1405.87 1106.09,1404.08 1111.89,1402.25 1117.67,1400.39 1123.42,1398.49 1129.16,1396.55 
  1134.88,1394.57 1140.57,1392.56 1146.25,1390.5 1151.9,1388.42 1157.52,1386.29 1163.13,1384.13 1168.71,1381.93 1174.27,1379.7 1179.81,1377.43 1185.32,1375.12 
  1190.8,1372.78 1196.26,1370.4 1201.7,1367.99 1207.11,1365.54 1212.49,1363.06 1217.84,1360.54 1223.17,1357.98 1228.47,1355.4 1233.75,1352.77 1238.99,1350.12 
  1244.21,1347.42 1249.4,1344.7 1254.56,1341.94 1259.69,1339.15 1264.79,1336.32 1269.86,1333.47 1274.89,1330.57 1279.9,1327.65 1284.88,1324.69 1289.82,1321.71 
  1294.73,1318.68 1299.61,1315.63 1304.46,1312.55 1309.28,1309.43 1314.06,1306.28 1318.8,1303.11 1323.52,1299.9 1328.19,1296.66 1332.84,1293.39 1337.45,1290.09 
  1342.02,1286.76 1346.56,1283.4 1351.06,1280.01 1355.53,1276.59 1359.96,1273.14 1364.35,1269.67 1368.7,1266.16 1373.02,1262.63 1377.3,1259.07 1381.54,1255.48 
  1385.74,1251.86 1389.91,1248.22 1394.03,1244.55 1398.12,1240.85 1402.17,1237.13 1406.17,1233.38 1410.14,1229.6 1414.07,1225.8 1417.95,1221.98 1421.8,1218.12 
  1425.6,1214.25 1429.36,1210.35 1433.08,1206.42 1436.76,1202.47 1440.4,1198.5 1443.99,1194.5 1447.54,1190.48 1451.05,1186.43 1454.51,1182.37 1457.93,1178.28 
  1461.31,1174.17 1464.64,1170.04 1467.93,1165.88 1471.18,1161.71 1474.38,1157.51 1477.53,1153.29 1480.64,1149.05 1483.71,1144.8 1486.73,1140.52 1489.7,1136.22 
  1492.63,1131.91 1495.51,1127.57 1498.34,1123.22 1501.13,1118.84 1503.88,1114.45 1506.57,1110.05 1509.22,1105.62 1511.82,1101.18 1514.37,1096.72 1516.88,1092.24 
  1519.34,1087.75 1521.75,1083.24 1524.11,1078.72 1526.42,1074.18 1528.69,1069.63 1530.9,1065.06 1533.07,1060.48 1535.19,1055.88 1537.26,1051.27 1539.28,1046.65 
  1540.59,1043.56 1541.91,1040.47 1543.22,1037.38 1544.53,1034.29 1545.85,1031.2 1547.16,1028.11 1548.48,1025.01 1549.79,1021.92 1551.1,1018.83 1552.42,1015.74 
  1553.73,1012.65 1555.05,1009.56 1556.36,1006.47 1557.67,1003.38 1558.99,1000.29 1560.3,997.198 1561.62,994.107 1562.93,991.016 1564.24,987.926 1565.56,984.835 
  1566.87,981.744 1568.19,978.653 1569.5,975.563 1570.81,972.472 1572.13,969.381 1573.44,966.29 1574.76,963.2 1576.07,960.109 1577.38,957.018 1578.7,953.927 
  1580.01,950.837 1581.33,947.746 1582.64,944.655 1583.95,941.565 1585.27,938.474 1586.58,935.383 1587.9,932.292 1589.21,929.202 1590.52,926.111 1591.84,923.02 
  1593.15,919.929 1594.47,916.839 1595.78,913.748 1597.09,910.657 1598.41,907.566 1599.72,904.476 1601.04,901.385 1602.35,898.294 1603.66,895.203 1604.98,892.113 
  1606.29,889.022 1607.61,885.931 1608.92,882.84 1610.23,879.75 1611.55,876.659 1612.86,873.568 1614.18,870.477 1615.49,867.387 1616.8,864.296 1618.12,861.205 
  1619.43,858.114 1620.75,855.024 1622.06,851.933 1623.37,848.842 1624.69,845.751 1626,842.661 1627.32,839.57 1628.63,836.479 1629.94,833.388 1631.26,830.298 
  1632.57,827.207 1633.89,824.116 1635.2,821.025 1636.51,817.935 1637.83,814.844 1639.14,811.753 1640.46,808.663 1641.77,805.572 1643.08,802.481 1644.4,799.39 
  1645.71,796.3 1647.03,793.209 1648.34,790.118 1649.65,787.027 1650.97,783.937 1652.28,780.846 1653.6,777.755 1654.91,774.664 1656.22,771.574 1657.54,768.483 
  1658.85,765.392 1660.17,762.301 1661.48,759.211 1662.79,756.12 1664.11,753.029 1665.42,749.938 1666.74,746.848 1668.05,743.757 1669.36,740.666 1670.68,737.575 
  1671.99,734.485 1673.31,731.394 1674.62,728.303 1675.93,725.212 1677.25,722.122 1678.56,719.031 1679.88,715.94 1681.19,712.849 1682.5,709.759 1683.82,706.668 
  1685.13,703.577 1686.45,700.486 1687.76,697.396 1689.07,694.305 1690.39,691.214 1691.7,688.124 1693.02,685.033 1694.33,681.942 1695.64,678.851 1696.96,675.761 
  1698.27,672.67 1699.59,669.579 1700.9,666.488 1702.21,663.398 1703.53,660.307 1704.84,657.216 1706.16,654.125 1707.47,651.035 1708.78,647.944 1710.1,644.853 
  1711.41,641.762 1712.73,638.672 1714.04,635.581 1715.35,632.49 1716.67,629.399 1717.98,626.309 1719.3,623.218 1720.61,620.127 1721.92,617.036 1723.24,613.946 
  1724.55,610.855 1725.87,607.764 1727.18,604.673 1728.49,601.583 1729.81,598.492 1731.12,595.401 1732.43,592.31 1733.75,589.22 1735.06,586.129 1736.38,583.038 
  1737.69,579.947 1739,576.857 1740.32,573.766 1741.63,570.675 1742.95,567.584 1744.26,564.494 1745.57,561.403 1746.89,558.312 1748.2,555.222 1749.52,552.131 
  1750.83,549.04 1752.14,545.949 1753.46,542.859 1754.77,539.768 1756.09,536.677 1757.4,533.586 1758.71,530.496 1760.03,527.405 1761.34,524.314 1762.66,521.223 
  1763.97,518.133 1765.28,515.042 1766.6,511.951 1767.91,508.86 1769.23,505.77 1770.54,502.679 1771.85,499.588 1773.17,496.497 1774.48,493.407 1775.8,490.316 
  1777.11,487.225 1778.42,484.134 1779.74,481.044 1781.05,477.953 1782.37,474.862 1783.68,471.771 1784.99,468.681 1786.31,465.59 1787.62,462.499 1788.94,459.408 
  1790.25,456.318 1791.56,453.227 1792.88,450.136 1794.19,447.045 1795.51,443.955 1796.82,440.864 1798.13,437.773 1799.45,434.683 1800.76,431.592 1802.08,428.501 
  
  "/>
<circle clip-path="url(#clip552)" cx="2006.85" cy="523.829" r="14" fill="#3da44d" fill-rule="evenodd" fill-opacity="1" stroke="#000000" stroke-opacity="1" stroke-width="3.2"/>
<circle clip-path="url(#clip552)" cx="1912.69" cy="424.755" r="14" fill="#3da44d" fill-rule="evenodd" fill-opacity="1" stroke="#000000" stroke-opacity="1" stroke-width="3.2"/>
<circle clip-path="url(#clip552)" cx="1698.23" cy="301.486" r="14" fill="#3da44d" fill-rule="evenodd" fill-opacity="1" stroke="#000000" stroke-opacity="1" stroke-width="3.2"/>
<circle clip-path="url(#clip552)" cx="1683.96" cy="367.815" r="14" fill="#3da44d" fill-rule="evenodd" fill-opacity="1" stroke="#000000" stroke-opacity="1" stroke-width="3.2"/>
<circle clip-path="url(#clip552)" cx="1612.7" cy="371.297" r="14" fill="#3da44d" fill-rule="evenodd" fill-opacity="1" stroke="#000000" stroke-opacity="1" stroke-width="3.2"/>
<circle clip-path="url(#clip552)" cx="2121.11" cy="590.222" r="14" fill="#3da44d" fill-rule="evenodd" fill-opacity="1" stroke="#000000" stroke-opacity="1" stroke-width="3.2"/>
<circle clip-path="url(#clip552)" cx="1977.49" cy="502.626" r="14" fill="#3da44d" fill-rule="evenodd" fill-opacity="1" stroke="#000000" stroke-opacity="1" stroke-width="3.2"/>
<circle clip-path="url(#clip552)" cx="2018.13" cy="620.987" r="14" fill="#3da44d" fill-rule="evenodd" fill-opacity="1" stroke="#000000" stroke-opacity="1" stroke-width="3.2"/>
<circle clip-path="url(#clip552)" cx="1759.65" cy="319.733" r="14" fill="#3da44d" fill-rule="evenodd" fill-opacity="1" stroke="#000000" stroke-opacity="1" stroke-width="3.2"/>
<circle clip-path="url(#clip552)" cx="1925.15" cy="510.13" r="14" fill="#3da44d" fill-rule="evenodd" fill-opacity="1" stroke="#000000" stroke-opacity="1" stroke-width="3.2"/>
<circle clip-path="url(#clip552)" cx="1826.55" cy="402.439" r="14" fill="#3da44d" fill-rule="evenodd" fill-opacity="1" stroke="#000000" stroke-opacity="1" stroke-width="3.2"/>
<circle clip-path="url(#clip552)" cx="1397.4" cy="203.862" r="14" fill="#3da44d" fill-rule="evenodd" fill-opacity="1" stroke="#000000" stroke-opacity="1" stroke-width="3.2"/>
<circle clip-path="url(#clip552)" cx="1685.34" cy="421.234" r="14" fill="#3da44d" fill-rule="evenodd" fill-opacity="1" stroke="#000000" stroke-opacity="1" stroke-width="3.2"/>
<circle clip-path="url(#clip552)" cx="1447.39" cy="150.84" r="14" fill="#3da44d" fill-rule="evenodd" fill-opacity="1" stroke="#000000" stroke-opacity="1" stroke-width="3.2"/>
<circle clip-path="url(#clip552)" cx="2143.14" cy="790.021" r="14" fill="#3da44d" fill-rule="evenodd" fill-opacity="1" stroke="#000000" stroke-opacity="1" stroke-width="3.2"/>
<circle clip-path="url(#clip552)" cx="2028.46" cy="506.072" r="14" fill="#3da44d" fill-rule="evenodd" fill-opacity="1" stroke="#000000" stroke-opacity="1" stroke-width="3.2"/>
<circle clip-path="url(#clip552)" cx="1863.56" cy="415.018" r="14" fill="#3da44d" fill-rule="evenodd" fill-opacity="1" stroke="#000000" stroke-opacity="1" stroke-width="3.2"/>
<circle clip-path="url(#clip552)" cx="1843.38" cy="450.352" r="14" fill="#3da44d" fill-rule="evenodd" fill-opacity="1" stroke="#000000" stroke-opacity="1" stroke-width="3.2"/>
<circle clip-path="url(#clip552)" cx="1743.94" cy="397.886" r="14" fill="#3da44d" fill-rule="evenodd" fill-opacity="1" stroke="#000000" stroke-opacity="1" stroke-width="3.2"/>
<circle clip-path="url(#clip552)" cx="2002.96" cy="530.276" r="14" fill="#3da44d" fill-rule="evenodd" fill-opacity="1" stroke="#000000" stroke-opacity="1" stroke-width="3.2"/>
<circle clip-path="url(#clip552)" cx="1672.73" cy="297.729" r="14" fill="#3da44d" fill-rule="evenodd" fill-opacity="1" stroke="#000000" stroke-opacity="1" stroke-width="3.2"/>
<circle clip-path="url(#clip552)" cx="2075.43" cy="638.947" r="14" fill="#3da44d" fill-rule="evenodd" fill-opacity="1" stroke="#000000" stroke-opacity="1" stroke-width="3.2"/>
<circle clip-path="url(#clip552)" cx="1495.32" cy="370.662" r="14" fill="#3da44d" fill-rule="evenodd" fill-opacity="1" stroke="#000000" stroke-opacity="1" stroke-width="3.2"/>
<circle clip-path="url(#clip552)" cx="1183.71" cy="164.67" r="14" fill="#3da44d" fill-rule="evenodd" fill-opacity="1" stroke="#000000" stroke-opacity="1" stroke-width="3.2"/>
<circle clip-path="url(#clip552)" cx="2032.71" cy="518.577" r="14" fill="#3da44d" fill-rule="evenodd" fill-opacity="1" stroke="#000000" stroke-opacity="1" stroke-width="3.2"/>
<circle clip-path="url(#clip552)" cx="1847.08" cy="375.447" r="14" fill="#3da44d" fill-rule="evenodd" fill-opacity="1" stroke="#000000" stroke-opacity="1" stroke-width="3.2"/>
<circle clip-path="url(#clip552)" cx="1845.18" cy="530.024" r="14" fill="#3da44d" fill-rule="evenodd" fill-opacity="1" stroke="#000000" stroke-opacity="1" stroke-width="3.2"/>
<circle clip-path="url(#clip552)" cx="1402.21" cy="318.246" r="14" fill="#3da44d" fill-rule="evenodd" fill-opacity="1" stroke="#000000" stroke-opacity="1" stroke-width="3.2"/>
<circle clip-path="url(#clip552)" cx="1708.69" cy="450.279" r="14" fill="#3da44d" fill-rule="evenodd" fill-opacity="1" stroke="#000000" stroke-opacity="1" stroke-width="3.2"/>
<circle clip-path="url(#clip552)" cx="2073.9" cy="637.071" r="14" fill="#3da44d" fill-rule="evenodd" fill-opacity="1" stroke="#000000" stroke-opacity="1" stroke-width="3.2"/>
<circle clip-path="url(#clip552)" cx="1537.54" cy="363.609" r="14" fill="#3da44d" fill-rule="evenodd" fill-opacity="1" stroke="#000000" stroke-opacity="1" stroke-width="3.2"/>
<circle clip-path="url(#clip552)" cx="1575.68" cy="308.033" r="14" fill="#3da44d" fill-rule="evenodd" fill-opacity="1" stroke="#000000" stroke-opacity="1" stroke-width="3.2"/>
<circle clip-path="url(#clip552)" cx="1537.74" cy="313.745" r="14" fill="#3da44d" fill-rule="evenodd" fill-opacity="1" stroke="#000000" stroke-opacity="1" stroke-width="3.2"/>
<circle clip-path="url(#clip552)" cx="1885.07" cy="523.168" r="14" fill="#3da44d" fill-rule="evenodd" fill-opacity="1" stroke="#000000" stroke-opacity="1" stroke-width="3.2"/>
<circle clip-path="url(#clip552)" cx="1764.62" cy="455.395" r="14" fill="#3da44d" fill-rule="evenodd" fill-opacity="1" stroke="#000000" stroke-opacity="1" stroke-width="3.2"/>
<circle clip-path="url(#clip552)" cx="1996.67" cy="556.801" r="14" fill="#3da44d" fill-rule="evenodd" fill-opacity="1" stroke="#000000" stroke-opacity="1" stroke-width="3.2"/>
<circle clip-path="url(#clip552)" cx="1532.31" cy="293.016" r="14" fill="#3da44d" fill-rule="evenodd" fill-opacity="1" stroke="#000000" stroke-opacity="1" stroke-width="3.2"/>
<circle clip-path="url(#clip552)" cx="1072.43" cy="178.359" r="14" fill="#3da44d" fill-rule="evenodd" fill-opacity="1" stroke="#000000" stroke-opacity="1" stroke-width="3.2"/>
<circle clip-path="url(#clip552)" cx="2111.96" cy="689.986" r="14" fill="#3da44d" fill-rule="evenodd" fill-opacity="1" stroke="#000000" stroke-opacity="1" stroke-width="3.2"/>
<circle clip-path="url(#clip552)" cx="1680.5" cy="312.921" r="14" fill="#3da44d" fill-rule="evenodd" fill-opacity="1" stroke="#000000" stroke-opacity="1" stroke-width="3.2"/>
<circle clip-path="url(#clip552)" cx="1496.85" cy="284.997" r="14" fill="#3da44d" fill-rule="evenodd" fill-opacity="1" stroke="#000000" stroke-opacity="1" stroke-width="3.2"/>
<circle clip-path="url(#clip552)" cx="1595.66" cy="382.993" r="14" fill="#3da44d" fill-rule="evenodd" fill-opacity="1" stroke="#000000" stroke-opacity="1" stroke-width="3.2"/>
<circle clip-path="url(#clip552)" cx="1507.85" cy="346.884" r="14" fill="#3da44d" fill-rule="evenodd" fill-opacity="1" stroke="#000000" stroke-opacity="1" stroke-width="3.2"/>
<circle clip-path="url(#clip552)" cx="2104.22" cy="691.213" r="14" fill="#3da44d" fill-rule="evenodd" fill-opacity="1" stroke="#000000" stroke-opacity="1" stroke-width="3.2"/>
<circle clip-path="url(#clip552)" cx="1722.83" cy="368.475" r="14" fill="#3da44d" fill-rule="evenodd" fill-opacity="1" stroke="#000000" stroke-opacity="1" stroke-width="3.2"/>
<circle clip-path="url(#clip552)" cx="1816.29" cy="439.862" r="14" fill="#3da44d" fill-rule="evenodd" fill-opacity="1" stroke="#000000" stroke-opacity="1" stroke-width="3.2"/>
<circle clip-path="url(#clip552)" cx="1761.13" cy="522.827" r="14" fill="#3da44d" fill-rule="evenodd" fill-opacity="1" stroke="#000000" stroke-opacity="1" stroke-width="3.2"/>
<circle clip-path="url(#clip552)" cx="1943.69" cy="575.493" r="14" fill="#3da44d" fill-rule="evenodd" fill-opacity="1" stroke="#000000" stroke-opacity="1" stroke-width="3.2"/>
<circle clip-path="url(#clip552)" cx="1381.27" cy="204.572" r="14" fill="#3da44d" fill-rule="evenodd" fill-opacity="1" stroke="#000000" stroke-opacity="1" stroke-width="3.2"/>
<circle clip-path="url(#clip552)" cx="1458.1" cy="213.006" r="14" fill="#3da44d" fill-rule="evenodd" fill-opacity="1" stroke="#000000" stroke-opacity="1" stroke-width="3.2"/>
<circle clip-path="url(#clip552)" cx="1808.82" cy="473.455" r="14" fill="#3da44d" fill-rule="evenodd" fill-opacity="1" stroke="#000000" stroke-opacity="1" stroke-width="3.2"/>
<circle clip-path="url(#clip552)" cx="1977.74" cy="528.556" r="14" fill="#3da44d" fill-rule="evenodd" fill-opacity="1" stroke="#000000" stroke-opacity="1" stroke-width="3.2"/>
<circle clip-path="url(#clip552)" cx="1873.7" cy="577.844" r="14" fill="#3da44d" fill-rule="evenodd" fill-opacity="1" stroke="#000000" stroke-opacity="1" stroke-width="3.2"/>
<circle clip-path="url(#clip552)" cx="2109.47" cy="641.498" r="14" fill="#3da44d" fill-rule="evenodd" fill-opacity="1" stroke="#000000" stroke-opacity="1" stroke-width="3.2"/>
<circle clip-path="url(#clip552)" cx="1980.59" cy="508.259" r="14" fill="#3da44d" fill-rule="evenodd" fill-opacity="1" stroke="#000000" stroke-opacity="1" stroke-width="3.2"/>
<circle clip-path="url(#clip552)" cx="1540.36" cy="238.373" r="14" fill="#3da44d" fill-rule="evenodd" fill-opacity="1" stroke="#000000" stroke-opacity="1" stroke-width="3.2"/>
<circle clip-path="url(#clip552)" cx="1819.5" cy="395.087" r="14" fill="#3da44d" fill-rule="evenodd" fill-opacity="1" stroke="#000000" stroke-opacity="1" stroke-width="3.2"/>
<circle clip-path="url(#clip552)" cx="1852.5" cy="373.77" r="14" fill="#3da44d" fill-rule="evenodd" fill-opacity="1" stroke="#000000" stroke-opacity="1" stroke-width="3.2"/>
<circle clip-path="url(#clip552)" cx="1780.62" cy="366.9" r="14" fill="#3da44d" fill-rule="evenodd" fill-opacity="1" stroke="#000000" stroke-opacity="1" stroke-width="3.2"/>
<circle clip-path="url(#clip552)" cx="2046.66" cy="559.181" r="14" fill="#3da44d" fill-rule="evenodd" fill-opacity="1" stroke="#000000" stroke-opacity="1" stroke-width="3.2"/>
<circle clip-path="url(#clip552)" cx="1822.38" cy="458.805" r="14" fill="#3da44d" fill-rule="evenodd" fill-opacity="1" stroke="#000000" stroke-opacity="1" stroke-width="3.2"/>
<circle clip-path="url(#clip552)" cx="1169.46" cy="87.9763" r="14" fill="#3da44d" fill-rule="evenodd" fill-opacity="1" stroke="#000000" stroke-opacity="1" stroke-width="3.2"/>
<circle clip-path="url(#clip552)" cx="2251.94" cy="755.507" r="14" fill="#3da44d" fill-rule="evenodd" fill-opacity="1" stroke="#000000" stroke-opacity="1" stroke-width="3.2"/>
<circle clip-path="url(#clip552)" cx="1921.53" cy="432.406" r="14" fill="#3da44d" fill-rule="evenodd" fill-opacity="1" stroke="#000000" stroke-opacity="1" stroke-width="3.2"/>
<circle clip-path="url(#clip552)" cx="1669.04" cy="405.401" r="14" fill="#3da44d" fill-rule="evenodd" fill-opacity="1" stroke="#000000" stroke-opacity="1" stroke-width="3.2"/>
<circle clip-path="url(#clip552)" cx="1616.35" cy="321.095" r="14" fill="#3da44d" fill-rule="evenodd" fill-opacity="1" stroke="#000000" stroke-opacity="1" stroke-width="3.2"/>
<circle clip-path="url(#clip552)" cx="1995.59" cy="544.12" r="14" fill="#3da44d" fill-rule="evenodd" fill-opacity="1" stroke="#000000" stroke-opacity="1" stroke-width="3.2"/>
<circle clip-path="url(#clip552)" cx="1665.24" cy="259.688" r="14" fill="#3da44d" fill-rule="evenodd" fill-opacity="1" stroke="#000000" stroke-opacity="1" stroke-width="3.2"/>
<circle clip-path="url(#clip552)" cx="1198.7" cy="176.272" r="14" fill="#3da44d" fill-rule="evenodd" fill-opacity="1" stroke="#000000" stroke-opacity="1" stroke-width="3.2"/>
<circle clip-path="url(#clip552)" cx="1649.02" cy="398.371" r="14" fill="#3da44d" fill-rule="evenodd" fill-opacity="1" stroke="#000000" stroke-opacity="1" stroke-width="3.2"/>
<circle clip-path="url(#clip552)" cx="1461.02" cy="200.292" r="14" fill="#3da44d" fill-rule="evenodd" fill-opacity="1" stroke="#000000" stroke-opacity="1" stroke-width="3.2"/>
<circle clip-path="url(#clip552)" cx="1849.45" cy="424.064" r="14" fill="#3da44d" fill-rule="evenodd" fill-opacity="1" stroke="#000000" stroke-opacity="1" stroke-width="3.2"/>
<circle clip-path="url(#clip552)" cx="1386.49" cy="333.113" r="14" fill="#3da44d" fill-rule="evenodd" fill-opacity="1" stroke="#000000" stroke-opacity="1" stroke-width="3.2"/>
<circle clip-path="url(#clip552)" cx="1860.39" cy="455.648" r="14" fill="#3da44d" fill-rule="evenodd" fill-opacity="1" stroke="#000000" stroke-opacity="1" stroke-width="3.2"/>
<circle clip-path="url(#clip552)" cx="1784.45" cy="340.177" r="14" fill="#3da44d" fill-rule="evenodd" fill-opacity="1" stroke="#000000" stroke-opacity="1" stroke-width="3.2"/>
<circle clip-path="url(#clip552)" cx="1395.53" cy="209.494" r="14" fill="#3da44d" fill-rule="evenodd" fill-opacity="1" stroke="#000000" stroke-opacity="1" stroke-width="3.2"/>
<circle clip-path="url(#clip552)" cx="1972.22" cy="571.598" r="14" fill="#3da44d" fill-rule="evenodd" fill-opacity="1" stroke="#000000" stroke-opacity="1" stroke-width="3.2"/>
<circle clip-path="url(#clip552)" cx="1975.3" cy="504.234" r="14" fill="#3da44d" fill-rule="evenodd" fill-opacity="1" stroke="#000000" stroke-opacity="1" stroke-width="3.2"/>
<circle clip-path="url(#clip552)" cx="1898.83" cy="423.749" r="14" fill="#3da44d" fill-rule="evenodd" fill-opacity="1" stroke="#000000" stroke-opacity="1" stroke-width="3.2"/>
<circle clip-path="url(#clip552)" cx="1625.36" cy="344.337" r="14" fill="#3da44d" fill-rule="evenodd" fill-opacity="1" stroke="#000000" stroke-opacity="1" stroke-width="3.2"/>
<circle clip-path="url(#clip552)" cx="1582.59" cy="221.43" r="14" fill="#3da44d" fill-rule="evenodd" fill-opacity="1" stroke="#000000" stroke-opacity="1" stroke-width="3.2"/>
<circle clip-path="url(#clip552)" cx="1787.34" cy="504.185" r="14" fill="#3da44d" fill-rule="evenodd" fill-opacity="1" stroke="#000000" stroke-opacity="1" stroke-width="3.2"/>
<circle clip-path="url(#clip552)" cx="1764.07" cy="387.414" r="14" fill="#3da44d" fill-rule="evenodd" fill-opacity="1" stroke="#000000" stroke-opacity="1" stroke-width="3.2"/>
<circle clip-path="url(#clip552)" cx="1987.5" cy="550.451" r="14" fill="#3da44d" fill-rule="evenodd" fill-opacity="1" stroke="#000000" stroke-opacity="1" stroke-width="3.2"/>
<circle clip-path="url(#clip552)" cx="1982.33" cy="626.434" r="14" fill="#3da44d" fill-rule="evenodd" fill-opacity="1" stroke="#000000" stroke-opacity="1" stroke-width="3.2"/>
<circle clip-path="url(#clip552)" cx="2040.99" cy="676.457" r="14" fill="#3da44d" fill-rule="evenodd" fill-opacity="1" stroke="#000000" stroke-opacity="1" stroke-width="3.2"/>
<circle clip-path="url(#clip552)" cx="2060.13" cy="466.05" r="14" fill="#3da44d" fill-rule="evenodd" fill-opacity="1" stroke="#000000" stroke-opacity="1" stroke-width="3.2"/>
<circle clip-path="url(#clip552)" cx="1713.38" cy="400.511" r="14" fill="#3da44d" fill-rule="evenodd" fill-opacity="1" stroke="#000000" stroke-opacity="1" stroke-width="3.2"/>
<circle clip-path="url(#clip552)" cx="2034.56" cy="578.573" r="14" fill="#3da44d" fill-rule="evenodd" fill-opacity="1" stroke="#000000" stroke-opacity="1" stroke-width="3.2"/>
<circle clip-path="url(#clip552)" cx="1684.7" cy="380.105" r="14" fill="#3da44d" fill-rule="evenodd" fill-opacity="1" stroke="#000000" stroke-opacity="1" stroke-width="3.2"/>
<circle clip-path="url(#clip552)" cx="2222.28" cy="716.844" r="14" fill="#3da44d" fill-rule="evenodd" fill-opacity="1" stroke="#000000" stroke-opacity="1" stroke-width="3.2"/>
<circle clip-path="url(#clip552)" cx="1932.92" cy="411.365" r="14" fill="#3da44d" fill-rule="evenodd" fill-opacity="1" stroke="#000000" stroke-opacity="1" stroke-width="3.2"/>
<circle clip-path="url(#clip552)" cx="1707.79" cy="388.167" r="14" fill="#3da44d" fill-rule="evenodd" fill-opacity="1" stroke="#000000" stroke-opacity="1" stroke-width="3.2"/>
<circle clip-path="url(#clip552)" cx="2159.6" cy="730.486" r="14" fill="#3da44d" fill-rule="evenodd" fill-opacity="1" stroke="#000000" stroke-opacity="1" stroke-width="3.2"/>
<circle clip-path="url(#clip552)" cx="1651.81" cy="386.999" r="14" fill="#3da44d" fill-rule="evenodd" fill-opacity="1" stroke="#000000" stroke-opacity="1" stroke-width="3.2"/>
<circle clip-path="url(#clip552)" cx="2005.72" cy="522.486" r="14" fill="#3da44d" fill-rule="evenodd" fill-opacity="1" stroke="#000000" stroke-opacity="1" stroke-width="3.2"/>
<circle clip-path="url(#clip552)" cx="2287.88" cy="895.957" r="14" fill="#3da44d" fill-rule="evenodd" fill-opacity="1" stroke="#000000" stroke-opacity="1" stroke-width="3.2"/>
<circle clip-path="url(#clip552)" cx="1882.21" cy="482.226" r="14" fill="#3da44d" fill-rule="evenodd" fill-opacity="1" stroke="#000000" stroke-opacity="1" stroke-width="3.2"/>
<circle clip-path="url(#clip552)" cx="1834.76" cy="468.781" r="14" fill="#3da44d" fill-rule="evenodd" fill-opacity="1" stroke="#000000" stroke-opacity="1" stroke-width="3.2"/>
<circle clip-path="url(#clip552)" cx="2020.76" cy="674.621" r="14" fill="#3da44d" fill-rule="evenodd" fill-opacity="1" stroke="#000000" stroke-opacity="1" stroke-width="3.2"/>
</svg>
