<?xml version="1.0" encoding="utf-8"?>
<svg xmlns="http://www.w3.org/2000/svg" xmlns:xlink="http://www.w3.org/1999/xlink" width="600" height="400" viewBox="0 0 2400 1600">
<defs>
  <clipPath id="clip230">
    <rect x="0" y="0" width="2400" height="1600"/>
  </clipPath>
</defs>
<path clip-path="url(#clip230)" d="
M0 1600 L2400 1600 L2400 0 L0 0  Z
  " fill="#ffffff" fill-rule="evenodd" fill-opacity="1"/>
<defs>
  <clipPath id="clip231">
    <rect x="480" y="0" width="1681" height="1600"/>
  </clipPath>
</defs>
<path clip-path="url(#clip230)" d="
M194.422 1486.45 L1180.49 1486.45 L1180.49 47.2441 L194.422 47.2441  Z
  " fill="#ffffff" fill-rule="evenodd" fill-opacity="1"/>
<defs>
  <clipPath id="clip232">
    <rect x="194" y="47" width="987" height="1440"/>
  </clipPath>
</defs>
<polyline clip-path="url(#clip232)" style="stroke:#000000; stroke-linecap:butt; stroke-linejoin:round; stroke-width:2; stroke-opacity:0.1; fill:none" points="
  228.533,1486.45 228.533,47.2441 
  "/>
<polyline clip-path="url(#clip232)" style="stroke:#000000; stroke-linecap:butt; stroke-linejoin:round; stroke-width:2; stroke-opacity:0.1; fill:none" points="
  439.961,1486.45 439.961,47.2441 
  "/>
<polyline clip-path="url(#clip232)" style="stroke:#000000; stroke-linecap:butt; stroke-linejoin:round; stroke-width:2; stroke-opacity:0.1; fill:none" points="
  651.388,1486.45 651.388,47.2441 
  "/>
<polyline clip-path="url(#clip232)" style="stroke:#000000; stroke-linecap:butt; stroke-linejoin:round; stroke-width:2; stroke-opacity:0.1; fill:none" points="
  862.816,1486.45 862.816,47.2441 
  "/>
<polyline clip-path="url(#clip232)" style="stroke:#000000; stroke-linecap:butt; stroke-linejoin:round; stroke-width:2; stroke-opacity:0.1; fill:none" points="
  1074.24,1486.45 1074.24,47.2441 
  "/>
<polyline clip-path="url(#clip230)" style="stroke:#000000; stroke-linecap:butt; stroke-linejoin:round; stroke-width:4; stroke-opacity:1; fill:none" points="
  194.422,1486.45 1180.49,1486.45 
  "/>
<polyline clip-path="url(#clip230)" style="stroke:#000000; stroke-linecap:butt; stroke-linejoin:round; stroke-width:4; stroke-opacity:1; fill:none" points="
  228.533,1486.45 228.533,1469.18 
  "/>
<polyline clip-path="url(#clip230)" style="stroke:#000000; stroke-linecap:butt; stroke-linejoin:round; stroke-width:4; stroke-opacity:1; fill:none" points="
  439.961,1486.45 439.961,1469.18 
  "/>
<polyline clip-path="url(#clip230)" style="stroke:#000000; stroke-linecap:butt; stroke-linejoin:round; stroke-width:4; stroke-opacity:1; fill:none" points="
  651.388,1486.45 651.388,1469.18 
  "/>
<polyline clip-path="url(#clip230)" style="stroke:#000000; stroke-linecap:butt; stroke-linejoin:round; stroke-width:4; stroke-opacity:1; fill:none" points="
  862.816,1486.45 862.816,1469.18 
  "/>
<polyline clip-path="url(#clip230)" style="stroke:#000000; stroke-linecap:butt; stroke-linejoin:round; stroke-width:4; stroke-opacity:1; fill:none" points="
  1074.24,1486.45 1074.24,1469.18 
  "/>
<path clip-path="url(#clip230)" d="M195.443 1543.18 L203.082 1543.18 L203.082 1516.82 L194.772 1518.49 L194.772 1514.23 L203.036 1512.56 L207.712 1512.56 L207.712 1543.18 L215.351 1543.18 L215.351 1547.12 L195.443 1547.12 L195.443 1543.18 Z" fill="#000000" fill-rule="evenodd" fill-opacity="1" /><path clip-path="url(#clip230)" d="M224.795 1541.24 L229.679 1541.24 L229.679 1547.12 L224.795 1547.12 L224.795 1541.24 Z" fill="#000000" fill-rule="evenodd" fill-opacity="1" /><path clip-path="url(#clip230)" d="M252.712 1516.63 L240.906 1535.08 L252.712 1535.08 L252.712 1516.63 M251.485 1512.56 L257.364 1512.56 L257.364 1535.08 L262.295 1535.08 L262.295 1538.97 L257.364 1538.97 L257.364 1547.12 L252.712 1547.12 L252.712 1538.97 L237.11 1538.97 L237.11 1534.46 L251.485 1512.56 Z" fill="#000000" fill-rule="evenodd" fill-opacity="1" /><path clip-path="url(#clip230)" d="M407.033 1543.18 L414.672 1543.18 L414.672 1516.82 L406.361 1518.49 L406.361 1514.23 L414.625 1512.56 L419.301 1512.56 L419.301 1543.18 L426.94 1543.18 L426.94 1547.12 L407.033 1547.12 L407.033 1543.18 Z" fill="#000000" fill-rule="evenodd" fill-opacity="1" /><path clip-path="url(#clip230)" d="M436.384 1541.24 L441.269 1541.24 L441.269 1547.12 L436.384 1547.12 L436.384 1541.24 Z" fill="#000000" fill-rule="evenodd" fill-opacity="1" /><path clip-path="url(#clip230)" d="M462.032 1527.98 Q458.884 1527.98 457.032 1530.13 Q455.204 1532.28 455.204 1536.03 Q455.204 1539.76 457.032 1541.93 Q458.884 1544.09 462.032 1544.09 Q465.181 1544.09 467.009 1541.93 Q468.861 1539.76 468.861 1536.03 Q468.861 1532.28 467.009 1530.13 Q465.181 1527.98 462.032 1527.98 M471.315 1513.32 L471.315 1517.58 Q469.556 1516.75 467.75 1516.31 Q465.968 1515.87 464.208 1515.87 Q459.579 1515.87 457.125 1519 Q454.695 1522.12 454.347 1528.44 Q455.713 1526.43 457.773 1525.36 Q459.833 1524.27 462.31 1524.27 Q467.519 1524.27 470.528 1527.44 Q473.56 1530.59 473.56 1536.03 Q473.56 1541.36 470.412 1544.57 Q467.264 1547.79 462.032 1547.79 Q456.037 1547.79 452.866 1543.21 Q449.695 1538.6 449.695 1529.87 Q449.695 1521.68 453.583 1516.82 Q457.472 1511.93 464.023 1511.93 Q465.782 1511.93 467.565 1512.28 Q469.37 1512.63 471.315 1513.32 Z" fill="#000000" fill-rule="evenodd" fill-opacity="1" /><path clip-path="url(#clip230)" d="M618.587 1543.18 L626.226 1543.18 L626.226 1516.82 L617.916 1518.49 L617.916 1514.23 L626.18 1512.56 L630.856 1512.56 L630.856 1543.18 L638.495 1543.18 L638.495 1547.12 L618.587 1547.12 L618.587 1543.18 Z" fill="#000000" fill-rule="evenodd" fill-opacity="1" /><path clip-path="url(#clip230)" d="M647.939 1541.24 L652.823 1541.24 L652.823 1547.12 L647.939 1547.12 L647.939 1541.24 Z" fill="#000000" fill-rule="evenodd" fill-opacity="1" /><path clip-path="url(#clip230)" d="M673.008 1530.71 Q669.675 1530.71 667.754 1532.49 Q665.856 1534.27 665.856 1537.4 Q665.856 1540.52 667.754 1542.31 Q669.675 1544.09 673.008 1544.09 Q676.342 1544.09 678.263 1542.31 Q680.184 1540.5 680.184 1537.4 Q680.184 1534.27 678.263 1532.49 Q676.365 1530.71 673.008 1530.71 M668.333 1528.72 Q665.323 1527.98 663.634 1525.92 Q661.967 1523.86 661.967 1520.89 Q661.967 1516.75 664.907 1514.34 Q667.87 1511.93 673.008 1511.93 Q678.17 1511.93 681.11 1514.34 Q684.05 1516.75 684.05 1520.89 Q684.05 1523.86 682.36 1525.92 Q680.694 1527.98 677.708 1528.72 Q681.087 1529.5 682.962 1531.8 Q684.86 1534.09 684.86 1537.4 Q684.86 1542.42 681.782 1545.11 Q678.726 1547.79 673.008 1547.79 Q667.291 1547.79 664.212 1545.11 Q661.157 1542.42 661.157 1537.4 Q661.157 1534.09 663.055 1531.8 Q664.953 1529.5 668.333 1528.72 M666.62 1521.33 Q666.62 1524.02 668.286 1525.52 Q669.976 1527.03 673.008 1527.03 Q676.018 1527.03 677.708 1525.52 Q679.42 1524.02 679.42 1521.33 Q679.42 1518.65 677.708 1517.14 Q676.018 1515.64 673.008 1515.64 Q669.976 1515.64 668.286 1517.14 Q666.62 1518.65 666.62 1521.33 Z" fill="#000000" fill-rule="evenodd" fill-opacity="1" /><path clip-path="url(#clip230)" d="M834.054 1543.18 L850.374 1543.18 L850.374 1547.12 L828.429 1547.12 L828.429 1543.18 Q831.091 1540.43 835.675 1535.8 Q840.281 1531.15 841.462 1529.81 Q843.707 1527.28 844.587 1525.55 Q845.489 1523.79 845.489 1522.1 Q845.489 1519.34 843.545 1517.61 Q841.624 1515.87 838.522 1515.87 Q836.323 1515.87 833.869 1516.63 Q831.438 1517.4 828.661 1518.95 L828.661 1514.23 Q831.485 1513.09 833.938 1512.51 Q836.392 1511.93 838.429 1511.93 Q843.799 1511.93 846.994 1514.62 Q850.188 1517.31 850.188 1521.8 Q850.188 1523.93 849.378 1525.85 Q848.591 1527.74 846.485 1530.34 Q845.906 1531.01 842.804 1534.23 Q839.702 1537.42 834.054 1543.18 Z" fill="#000000" fill-rule="evenodd" fill-opacity="1" /><path clip-path="url(#clip230)" d="M860.188 1541.24 L865.073 1541.24 L865.073 1547.12 L860.188 1547.12 L860.188 1541.24 Z" fill="#000000" fill-rule="evenodd" fill-opacity="1" /><path clip-path="url(#clip230)" d="M885.258 1515.64 Q881.647 1515.64 879.818 1519.2 Q878.012 1522.75 878.012 1529.87 Q878.012 1536.98 879.818 1540.55 Q881.647 1544.09 885.258 1544.09 Q888.892 1544.09 890.697 1540.55 Q892.526 1536.98 892.526 1529.87 Q892.526 1522.75 890.697 1519.2 Q888.892 1515.64 885.258 1515.64 M885.258 1511.93 Q891.068 1511.93 894.123 1516.54 Q897.202 1521.12 897.202 1529.87 Q897.202 1538.6 894.123 1543.21 Q891.068 1547.79 885.258 1547.79 Q879.447 1547.79 876.369 1543.21 Q873.313 1538.6 873.313 1529.87 Q873.313 1521.12 876.369 1516.54 Q879.447 1511.93 885.258 1511.93 Z" fill="#000000" fill-rule="evenodd" fill-opacity="1" /><path clip-path="url(#clip230)" d="M1046.28 1543.18 L1062.6 1543.18 L1062.6 1547.12 L1040.66 1547.12 L1040.66 1543.18 Q1043.32 1540.43 1047.9 1535.8 Q1052.51 1531.15 1053.69 1529.81 Q1055.93 1527.28 1056.81 1525.55 Q1057.72 1523.79 1057.72 1522.1 Q1057.72 1519.34 1055.77 1517.61 Q1053.85 1515.87 1050.75 1515.87 Q1048.55 1515.87 1046.09 1516.63 Q1043.66 1517.4 1040.89 1518.95 L1040.89 1514.23 Q1043.71 1513.09 1046.16 1512.51 Q1048.62 1511.93 1050.66 1511.93 Q1056.03 1511.93 1059.22 1514.62 Q1062.41 1517.31 1062.41 1521.8 Q1062.41 1523.93 1061.6 1525.85 Q1060.82 1527.74 1058.71 1530.34 Q1058.13 1531.01 1055.03 1534.23 Q1051.93 1537.42 1046.28 1543.18 Z" fill="#000000" fill-rule="evenodd" fill-opacity="1" /><path clip-path="url(#clip230)" d="M1072.41 1541.24 L1077.3 1541.24 L1077.3 1547.12 L1072.41 1547.12 L1072.41 1541.24 Z" fill="#000000" fill-rule="evenodd" fill-opacity="1" /><path clip-path="url(#clip230)" d="M1091.51 1543.18 L1107.83 1543.18 L1107.83 1547.12 L1085.89 1547.12 L1085.89 1543.18 Q1088.55 1540.43 1093.13 1535.8 Q1097.74 1531.15 1098.92 1529.81 Q1101.16 1527.28 1102.04 1525.55 Q1102.95 1523.79 1102.95 1522.1 Q1102.95 1519.34 1101 1517.61 Q1099.08 1515.87 1095.98 1515.87 Q1093.78 1515.87 1091.33 1516.63 Q1088.9 1517.4 1086.12 1518.95 L1086.12 1514.23 Q1088.94 1513.09 1091.4 1512.51 Q1093.85 1511.93 1095.89 1511.93 Q1101.26 1511.93 1104.45 1514.62 Q1107.65 1517.31 1107.65 1521.8 Q1107.65 1523.93 1106.84 1525.85 Q1106.05 1527.74 1103.94 1530.34 Q1103.36 1531.01 1100.26 1534.23 Q1097.16 1537.42 1091.51 1543.18 Z" fill="#000000" fill-rule="evenodd" fill-opacity="1" /><polyline clip-path="url(#clip232)" style="stroke:#000000; stroke-linecap:butt; stroke-linejoin:round; stroke-width:2; stroke-opacity:0.1; fill:none" points="
  194.422,1302.88 1180.49,1302.88 
  "/>
<polyline clip-path="url(#clip232)" style="stroke:#000000; stroke-linecap:butt; stroke-linejoin:round; stroke-width:2; stroke-opacity:0.1; fill:none" points="
  194.422,1038.6 1180.49,1038.6 
  "/>
<polyline clip-path="url(#clip232)" style="stroke:#000000; stroke-linecap:butt; stroke-linejoin:round; stroke-width:2; stroke-opacity:0.1; fill:none" points="
  194.422,774.316 1180.49,774.316 
  "/>
<polyline clip-path="url(#clip232)" style="stroke:#000000; stroke-linecap:butt; stroke-linejoin:round; stroke-width:2; stroke-opacity:0.1; fill:none" points="
  194.422,510.032 1180.49,510.032 
  "/>
<polyline clip-path="url(#clip232)" style="stroke:#000000; stroke-linecap:butt; stroke-linejoin:round; stroke-width:2; stroke-opacity:0.1; fill:none" points="
  194.422,245.748 1180.49,245.748 
  "/>
<polyline clip-path="url(#clip230)" style="stroke:#000000; stroke-linecap:butt; stroke-linejoin:round; stroke-width:4; stroke-opacity:1; fill:none" points="
  194.422,1486.45 194.422,47.2441 
  "/>
<polyline clip-path="url(#clip230)" style="stroke:#000000; stroke-linecap:butt; stroke-linejoin:round; stroke-width:4; stroke-opacity:1; fill:none" points="
  194.422,1302.88 206.255,1302.88 
  "/>
<polyline clip-path="url(#clip230)" style="stroke:#000000; stroke-linecap:butt; stroke-linejoin:round; stroke-width:4; stroke-opacity:1; fill:none" points="
  194.422,1038.6 206.255,1038.6 
  "/>
<polyline clip-path="url(#clip230)" style="stroke:#000000; stroke-linecap:butt; stroke-linejoin:round; stroke-width:4; stroke-opacity:1; fill:none" points="
  194.422,774.316 206.255,774.316 
  "/>
<polyline clip-path="url(#clip230)" style="stroke:#000000; stroke-linecap:butt; stroke-linejoin:round; stroke-width:4; stroke-opacity:1; fill:none" points="
  194.422,510.032 206.255,510.032 
  "/>
<polyline clip-path="url(#clip230)" style="stroke:#000000; stroke-linecap:butt; stroke-linejoin:round; stroke-width:4; stroke-opacity:1; fill:none" points="
  194.422,245.748 206.255,245.748 
  "/>
<path clip-path="url(#clip230)" d="M22.3117 1303.34 L51.9875 1303.34 L51.9875 1307.27 L22.3117 1307.27 L22.3117 1303.34 Z" fill="#000000" fill-rule="evenodd" fill-opacity="1" /><path clip-path="url(#clip230)" d="M66.1078 1316.23 L82.4271 1316.23 L82.4271 1320.16 L60.4828 1320.16 L60.4828 1316.23 Q63.1448 1313.48 67.7281 1308.85 Q72.3346 1304.19 73.5152 1302.85 Q75.7605 1300.33 76.6401 1298.59 Q77.5429 1296.83 77.5429 1295.14 Q77.5429 1292.39 75.5985 1290.65 Q73.6772 1288.92 70.5754 1288.92 Q68.3763 1288.92 65.9226 1289.68 Q63.4921 1290.44 60.7143 1291.99 L60.7143 1287.27 Q63.5384 1286.14 65.992 1285.56 Q68.4457 1284.98 70.4828 1284.98 Q75.8531 1284.98 79.0475 1287.67 Q82.242 1290.35 82.242 1294.84 Q82.242 1296.97 81.4318 1298.89 Q80.6447 1300.79 78.5383 1303.38 Q77.9596 1304.05 74.8577 1307.27 Q71.7559 1310.47 66.1078 1316.23 Z" fill="#000000" fill-rule="evenodd" fill-opacity="1" /><path clip-path="url(#clip230)" d="M92.2419 1314.29 L97.1261 1314.29 L97.1261 1320.16 L92.2419 1320.16 L92.2419 1314.29 Z" fill="#000000" fill-rule="evenodd" fill-opacity="1" /><path clip-path="url(#clip230)" d="M106.131 1285.6 L128.353 1285.6 L128.353 1287.6 L115.807 1320.16 L110.922 1320.16 L122.728 1289.54 L106.131 1289.54 L106.131 1285.6 Z" fill="#000000" fill-rule="evenodd" fill-opacity="1" /><path clip-path="url(#clip230)" d="M137.519 1285.6 L155.876 1285.6 L155.876 1289.54 L141.802 1289.54 L141.802 1298.01 Q142.82 1297.67 143.839 1297.5 Q144.857 1297.32 145.876 1297.32 Q151.663 1297.32 155.042 1300.49 Q158.422 1303.66 158.422 1309.08 Q158.422 1314.66 154.95 1317.76 Q151.478 1320.84 145.158 1320.84 Q142.982 1320.84 140.714 1320.47 Q138.469 1320.1 136.061 1319.35 L136.061 1314.66 Q138.144 1315.79 140.367 1316.35 Q142.589 1316.9 145.066 1316.9 Q149.07 1316.9 151.408 1314.79 Q153.746 1312.69 153.746 1309.08 Q153.746 1305.47 151.408 1303.36 Q149.07 1301.25 145.066 1301.25 Q143.191 1301.25 141.316 1301.67 Q139.464 1302.09 137.519 1302.97 L137.519 1285.6 Z" fill="#000000" fill-rule="evenodd" fill-opacity="1" /><path clip-path="url(#clip230)" d="M21.3164 1039.05 L50.9921 1039.05 L50.9921 1042.99 L21.3164 1042.99 L21.3164 1039.05 Z" fill="#000000" fill-rule="evenodd" fill-opacity="1" /><path clip-path="url(#clip230)" d="M65.1124 1051.95 L81.4318 1051.95 L81.4318 1055.88 L59.4875 1055.88 L59.4875 1051.95 Q62.1495 1049.19 66.7328 1044.56 Q71.3392 1039.91 72.5198 1038.57 Q74.7651 1036.04 75.6448 1034.31 Q76.5475 1032.55 76.5475 1030.86 Q76.5475 1028.1 74.6031 1026.37 Q72.6818 1024.63 69.58 1024.63 Q67.3809 1024.63 64.9272 1025.39 Q62.4967 1026.16 59.7189 1027.71 L59.7189 1022.99 Q62.543 1021.85 64.9967 1021.27 Q67.4504 1020.7 69.4874 1020.7 Q74.8577 1020.7 78.0522 1023.38 Q81.2466 1026.07 81.2466 1030.56 Q81.2466 1032.69 80.4364 1034.61 Q79.6494 1036.51 77.5429 1039.1 Q76.9642 1039.77 73.8624 1042.99 Q70.7605 1046.18 65.1124 1051.95 Z" fill="#000000" fill-rule="evenodd" fill-opacity="1" /><path clip-path="url(#clip230)" d="M91.2465 1050 L96.1308 1050 L96.1308 1055.88 L91.2465 1055.88 L91.2465 1050 Z" fill="#000000" fill-rule="evenodd" fill-opacity="1" /><path clip-path="url(#clip230)" d="M106.362 1021.32 L124.719 1021.32 L124.719 1025.26 L110.645 1025.26 L110.645 1033.73 Q111.663 1033.38 112.682 1033.22 Q113.7 1033.03 114.719 1033.03 Q120.506 1033.03 123.885 1036.2 Q127.265 1039.38 127.265 1044.79 Q127.265 1050.37 123.793 1053.47 Q120.32 1056.55 114.001 1056.55 Q111.825 1056.55 109.557 1056.18 Q107.311 1055.81 104.904 1055.07 L104.904 1050.37 Q106.987 1051.51 109.209 1052.06 Q111.432 1052.62 113.908 1052.62 Q117.913 1052.62 120.251 1050.51 Q122.589 1048.4 122.589 1044.79 Q122.589 1041.18 120.251 1039.08 Q117.913 1036.97 113.908 1036.97 Q112.033 1036.97 110.158 1037.39 Q108.307 1037.8 106.362 1038.68 L106.362 1021.32 Z" fill="#000000" fill-rule="evenodd" fill-opacity="1" /><path clip-path="url(#clip230)" d="M146.478 1024.4 Q142.867 1024.4 141.038 1027.96 Q139.232 1031.51 139.232 1038.64 Q139.232 1045.74 141.038 1049.31 Q142.867 1052.85 146.478 1052.85 Q150.112 1052.85 151.918 1049.31 Q153.746 1045.74 153.746 1038.64 Q153.746 1031.51 151.918 1027.96 Q150.112 1024.4 146.478 1024.4 M146.478 1020.7 Q152.288 1020.7 155.343 1025.3 Q158.422 1029.89 158.422 1038.64 Q158.422 1047.36 155.343 1051.97 Q152.288 1056.55 146.478 1056.55 Q140.668 1056.55 137.589 1051.97 Q134.533 1047.36 134.533 1038.64 Q134.533 1029.89 137.589 1025.3 Q140.668 1020.7 146.478 1020.7 Z" fill="#000000" fill-rule="evenodd" fill-opacity="1" /><path clip-path="url(#clip230)" d="M22.3117 774.768 L51.9875 774.768 L51.9875 778.703 L22.3117 778.703 L22.3117 774.768 Z" fill="#000000" fill-rule="evenodd" fill-opacity="1" /><path clip-path="url(#clip230)" d="M66.1078 787.661 L82.4271 787.661 L82.4271 791.596 L60.4828 791.596 L60.4828 787.661 Q63.1448 784.907 67.7281 780.277 Q72.3346 775.624 73.5152 774.282 Q75.7605 771.759 76.6401 770.022 Q77.5429 768.263 77.5429 766.573 Q77.5429 763.819 75.5985 762.083 Q73.6772 760.347 70.5754 760.347 Q68.3763 760.347 65.9226 761.111 Q63.4921 761.874 60.7143 763.425 L60.7143 758.703 Q63.5384 757.569 65.992 756.99 Q68.4457 756.411 70.4828 756.411 Q75.8531 756.411 79.0475 759.097 Q82.242 761.782 82.242 766.273 Q82.242 768.402 81.4318 770.323 Q80.6447 772.222 78.5383 774.814 Q77.9596 775.485 74.8577 778.703 Q71.7559 781.897 66.1078 787.661 Z" fill="#000000" fill-rule="evenodd" fill-opacity="1" /><path clip-path="url(#clip230)" d="M92.2419 785.717 L97.1261 785.717 L97.1261 791.596 L92.2419 791.596 L92.2419 785.717 Z" fill="#000000" fill-rule="evenodd" fill-opacity="1" /><path clip-path="url(#clip230)" d="M111.339 787.661 L127.658 787.661 L127.658 791.596 L105.714 791.596 L105.714 787.661 Q108.376 784.907 112.959 780.277 Q117.566 775.624 118.746 774.282 Q120.992 771.759 121.871 770.022 Q122.774 768.263 122.774 766.573 Q122.774 763.819 120.83 762.083 Q118.908 760.347 115.807 760.347 Q113.608 760.347 111.154 761.111 Q108.723 761.874 105.946 763.425 L105.946 758.703 Q108.77 757.569 111.223 756.99 Q113.677 756.411 115.714 756.411 Q121.084 756.411 124.279 759.097 Q127.473 761.782 127.473 766.273 Q127.473 768.402 126.663 770.323 Q125.876 772.222 123.77 774.814 Q123.191 775.485 120.089 778.703 Q116.987 781.897 111.339 787.661 Z" fill="#000000" fill-rule="evenodd" fill-opacity="1" /><path clip-path="url(#clip230)" d="M137.519 757.036 L155.876 757.036 L155.876 760.972 L141.802 760.972 L141.802 769.444 Q142.82 769.097 143.839 768.935 Q144.857 768.749 145.876 768.749 Q151.663 768.749 155.042 771.921 Q158.422 775.092 158.422 780.509 Q158.422 786.087 154.95 789.189 Q151.478 792.268 145.158 792.268 Q142.982 792.268 140.714 791.897 Q138.469 791.527 136.061 790.786 L136.061 786.087 Q138.144 787.221 140.367 787.777 Q142.589 788.333 145.066 788.333 Q149.07 788.333 151.408 786.226 Q153.746 784.12 153.746 780.509 Q153.746 776.897 151.408 774.791 Q149.07 772.685 145.066 772.685 Q143.191 772.685 141.316 773.101 Q139.464 773.518 137.519 774.397 L137.519 757.036 Z" fill="#000000" fill-rule="evenodd" fill-opacity="1" /><path clip-path="url(#clip230)" d="M21.3164 510.484 L50.9921 510.484 L50.9921 514.419 L21.3164 514.419 L21.3164 510.484 Z" fill="#000000" fill-rule="evenodd" fill-opacity="1" /><path clip-path="url(#clip230)" d="M65.1124 523.377 L81.4318 523.377 L81.4318 527.312 L59.4875 527.312 L59.4875 523.377 Q62.1495 520.622 66.7328 515.993 Q71.3392 511.34 72.5198 509.997 Q74.7651 507.474 75.6448 505.738 Q76.5475 503.979 76.5475 502.289 Q76.5475 499.535 74.6031 497.798 Q72.6818 496.062 69.58 496.062 Q67.3809 496.062 64.9272 496.826 Q62.4967 497.59 59.7189 499.141 L59.7189 494.419 Q62.543 493.285 64.9967 492.706 Q67.4504 492.127 69.4874 492.127 Q74.8577 492.127 78.0522 494.812 Q81.2466 497.498 81.2466 501.988 Q81.2466 504.118 80.4364 506.039 Q79.6494 507.937 77.5429 510.53 Q76.9642 511.201 73.8624 514.419 Q70.7605 517.613 65.1124 523.377 Z" fill="#000000" fill-rule="evenodd" fill-opacity="1" /><path clip-path="url(#clip230)" d="M91.2465 521.433 L96.1308 521.433 L96.1308 527.312 L91.2465 527.312 L91.2465 521.433 Z" fill="#000000" fill-rule="evenodd" fill-opacity="1" /><path clip-path="url(#clip230)" d="M116.316 495.831 Q112.705 495.831 110.876 499.396 Q109.071 502.937 109.071 510.067 Q109.071 517.173 110.876 520.738 Q112.705 524.28 116.316 524.28 Q119.95 524.28 121.756 520.738 Q123.584 517.173 123.584 510.067 Q123.584 502.937 121.756 499.396 Q119.95 495.831 116.316 495.831 M116.316 492.127 Q122.126 492.127 125.182 496.734 Q128.26 501.317 128.26 510.067 Q128.26 518.794 125.182 523.4 Q122.126 527.984 116.316 527.984 Q110.506 527.984 107.427 523.4 Q104.371 518.794 104.371 510.067 Q104.371 501.317 107.427 496.734 Q110.506 492.127 116.316 492.127 Z" fill="#000000" fill-rule="evenodd" fill-opacity="1" /><path clip-path="url(#clip230)" d="M146.478 495.831 Q142.867 495.831 141.038 499.396 Q139.232 502.937 139.232 510.067 Q139.232 517.173 141.038 520.738 Q142.867 524.28 146.478 524.28 Q150.112 524.28 151.918 520.738 Q153.746 517.173 153.746 510.067 Q153.746 502.937 151.918 499.396 Q150.112 495.831 146.478 495.831 M146.478 492.127 Q152.288 492.127 155.343 496.734 Q158.422 501.317 158.422 510.067 Q158.422 518.794 155.343 523.4 Q152.288 527.984 146.478 527.984 Q140.668 527.984 137.589 523.4 Q134.533 518.794 134.533 510.067 Q134.533 501.317 137.589 496.734 Q140.668 492.127 146.478 492.127 Z" fill="#000000" fill-rule="evenodd" fill-opacity="1" /><path clip-path="url(#clip230)" d="M22.3117 246.199 L51.9875 246.199 L51.9875 250.135 L22.3117 250.135 L22.3117 246.199 Z" fill="#000000" fill-rule="evenodd" fill-opacity="1" /><path clip-path="url(#clip230)" d="M62.8902 259.093 L70.5291 259.093 L70.5291 232.727 L62.2189 234.394 L62.2189 230.135 L70.4828 228.468 L75.1587 228.468 L75.1587 259.093 L82.7975 259.093 L82.7975 263.028 L62.8902 263.028 L62.8902 259.093 Z" fill="#000000" fill-rule="evenodd" fill-opacity="1" /><path clip-path="url(#clip230)" d="M92.2419 257.148 L97.1261 257.148 L97.1261 263.028 L92.2419 263.028 L92.2419 257.148 Z" fill="#000000" fill-rule="evenodd" fill-opacity="1" /><path clip-path="url(#clip230)" d="M106.131 228.468 L128.353 228.468 L128.353 230.459 L115.807 263.028 L110.922 263.028 L122.728 232.403 L106.131 232.403 L106.131 228.468 Z" fill="#000000" fill-rule="evenodd" fill-opacity="1" /><path clip-path="url(#clip230)" d="M137.519 228.468 L155.876 228.468 L155.876 232.403 L141.802 232.403 L141.802 240.875 Q142.82 240.528 143.839 240.366 Q144.857 240.181 145.876 240.181 Q151.663 240.181 155.042 243.352 Q158.422 246.523 158.422 251.94 Q158.422 257.519 154.95 260.621 Q151.478 263.699 145.158 263.699 Q142.982 263.699 140.714 263.329 Q138.469 262.959 136.061 262.218 L136.061 257.519 Q138.144 258.653 140.367 259.209 Q142.589 259.764 145.066 259.764 Q149.07 259.764 151.408 257.658 Q153.746 255.551 153.746 251.94 Q153.746 248.329 151.408 246.222 Q149.07 244.116 145.066 244.116 Q143.191 244.116 141.316 244.533 Q139.464 244.949 137.519 245.829 L137.519 228.468 Z" fill="#000000" fill-rule="evenodd" fill-opacity="1" /><polyline clip-path="url(#clip232)" style="stroke:#009af9; stroke-linecap:butt; stroke-linejoin:round; stroke-width:4; stroke-opacity:1; fill:none" points="
  290.163,443.098 301.596,430.867 313.833,419.741 326.86,409.752 340.663,400.927 355.225,393.291 370.532,386.865 386.567,381.669 403.311,377.716 420.747,375.019 
  438.853,373.585 457.608,373.418 476.988,374.519 496.968,376.885 517.52,380.508 538.614,385.379 560.217,391.483 582.297,398.803 604.816,407.318 627.734,417.004 
  651.01,427.833 674.599,439.777 698.454,452.802 722.523,466.873 746.754,481.952 771.089,498 795.468,514.973 819.827,532.829 844.096,551.52 868.204,570.999 
  892.073,591.216 915.62,612.118 938.757,633.651 961.39,655.761 983.418,678.388 1004.73,701.473 1025.22,724.952 1044.75,748.76 1063.18,772.828 1080.39,797.083 
  1096.21,821.449 1110.46,845.845 1122.99,870.185 1133.59,894.376 1142.06,918.321 1148.2,941.914 1151.78,965.043 1152.58,987.586 1150.37,1009.41 1144.94,1030.39 
  1136.07,1050.36 1123.6,1069.17 1107.37,1086.67 1087.3,1102.68 1063.37,1117.04 1035.65,1129.59 1004.3,1140.16 969.608,1148.62 931.945,1154.85 891.8,1158.75 
  849.742,1160.27 806.395,1159.39 762.407,1156.1 718.415,1150.48 675.013,1142.59 632.724,1132.56 591.989,1120.52 553.155,1106.62 516.476,1091.03 482.121,1073.91 
  450.186,1055.42 420.705,1035.74 393.664,1015.02 369.012,993.4 346.675,971.032 326.559,948.045 308.563,924.562 292.581,900.699 278.505,876.563 266.233,852.253 
  255.664,827.863 246.705,803.482 239.268,779.19 233.273,755.065 228.646,731.182 225.319,707.61 223.232,684.415 222.33,661.662 222.562,639.41 223.886,617.72 
  226.261,596.646 229.651,576.245 234.026,556.567 239.358,537.664 245.62,519.584 252.79,502.374 260.847,486.079 269.773,470.741 279.551,456.401 290.163,443.098 
  
  "/>
<path clip-path="url(#clip230)" d="
M650.697 216.178 L1147.62 216.178 L1147.62 95.2176 L650.697 95.2176  Z
  " fill="#ffffff" fill-rule="evenodd" fill-opacity="1"/>
<polyline clip-path="url(#clip230)" style="stroke:#000000; stroke-linecap:butt; stroke-linejoin:round; stroke-width:4; stroke-opacity:1; fill:none" points="
  650.697,216.178 1147.62,216.178 1147.62,95.2176 650.697,95.2176 650.697,216.178 
  "/>
<polyline clip-path="url(#clip230)" style="stroke:#009af9; stroke-linecap:butt; stroke-linejoin:round; stroke-width:4; stroke-opacity:1; fill:none" points="
  661.653,155.698 727.391,155.698 
  "/>
<path clip-path="url(#clip230)" d="M743.023 142.26 L743.023 155.246 L748.902 155.246 Q752.166 155.246 753.949 153.556 Q755.731 151.867 755.731 148.742 Q755.731 145.64 753.949 143.95 Q752.166 142.26 748.902 142.26 L743.023 142.26 M738.347 138.418 L748.902 138.418 Q754.712 138.418 757.675 141.056 Q760.662 143.672 760.662 148.742 Q760.662 153.857 757.675 156.473 Q754.712 159.089 748.902 159.089 L743.023 159.089 L743.023 172.978 L738.347 172.978 L738.347 138.418 Z" fill="#000000" fill-rule="evenodd" fill-opacity="1" /><path clip-path="url(#clip230)" d="M776.402 159.945 Q771.24 159.945 769.249 161.126 Q767.259 162.306 767.259 165.154 Q767.259 167.422 768.74 168.765 Q770.245 170.084 772.814 170.084 Q776.356 170.084 778.485 167.584 Q780.638 165.061 780.638 160.894 L780.638 159.945 L776.402 159.945 M784.897 158.186 L784.897 172.978 L780.638 172.978 L780.638 169.042 Q779.18 171.403 777.004 172.538 Q774.828 173.649 771.68 173.649 Q767.699 173.649 765.337 171.427 Q762.999 169.181 762.999 165.431 Q762.999 161.056 765.916 158.834 Q768.856 156.612 774.666 156.612 L780.638 156.612 L780.638 156.195 Q780.638 153.255 778.694 151.658 Q776.773 150.038 773.277 150.038 Q771.055 150.038 768.948 150.57 Q766.842 151.103 764.898 152.167 L764.898 148.232 Q767.236 147.33 769.435 146.89 Q771.634 146.427 773.717 146.427 Q779.342 146.427 782.12 149.343 Q784.897 152.26 784.897 158.186 Z" fill="#000000" fill-rule="evenodd" fill-opacity="1" /><path clip-path="url(#clip230)" d="M808.694 151.033 Q807.976 150.617 807.12 150.431 Q806.286 150.223 805.268 150.223 Q801.657 150.223 799.712 152.584 Q797.791 154.922 797.791 159.32 L797.791 172.978 L793.509 172.978 L793.509 147.052 L797.791 147.052 L797.791 151.08 Q799.134 148.718 801.286 147.584 Q803.439 146.427 806.518 146.427 Q806.958 146.427 807.49 146.496 Q808.022 146.543 808.671 146.658 L808.694 151.033 Z" fill="#000000" fill-rule="evenodd" fill-opacity="1" /><path clip-path="url(#clip230)" d="M824.944 159.945 Q819.782 159.945 817.791 161.126 Q815.8 162.306 815.8 165.154 Q815.8 167.422 817.282 168.765 Q818.786 170.084 821.356 170.084 Q824.897 170.084 827.027 167.584 Q829.18 165.061 829.18 160.894 L829.18 159.945 L824.944 159.945 M833.439 158.186 L833.439 172.978 L829.18 172.978 L829.18 169.042 Q827.721 171.403 825.545 172.538 Q823.369 173.649 820.221 173.649 Q816.24 173.649 813.879 171.427 Q811.541 169.181 811.541 165.431 Q811.541 161.056 814.458 158.834 Q817.397 156.612 823.207 156.612 L829.18 156.612 L829.18 156.195 Q829.18 153.255 827.235 151.658 Q825.314 150.038 821.819 150.038 Q819.596 150.038 817.49 150.57 Q815.383 151.103 813.439 152.167 L813.439 148.232 Q815.777 147.33 817.976 146.89 Q820.175 146.427 822.258 146.427 Q827.883 146.427 830.661 149.343 Q833.439 152.26 833.439 158.186 Z" fill="#000000" fill-rule="evenodd" fill-opacity="1" /><path clip-path="url(#clip230)" d="M862.397 152.029 Q863.994 149.158 866.216 147.793 Q868.439 146.427 871.448 146.427 Q875.499 146.427 877.698 149.274 Q879.897 152.098 879.897 157.329 L879.897 172.978 L875.615 172.978 L875.615 157.468 Q875.615 153.742 874.295 151.936 Q872.976 150.13 870.267 150.13 Q866.957 150.13 865.036 152.33 Q863.115 154.529 863.115 158.325 L863.115 172.978 L858.832 172.978 L858.832 157.468 Q858.832 153.718 857.513 151.936 Q856.193 150.13 853.439 150.13 Q850.175 150.13 848.254 152.353 Q846.332 154.552 846.332 158.325 L846.332 172.978 L842.05 172.978 L842.05 147.052 L846.332 147.052 L846.332 151.08 Q847.791 148.695 849.828 147.561 Q851.865 146.427 854.666 146.427 Q857.49 146.427 859.457 147.862 Q861.448 149.297 862.397 152.029 Z" fill="#000000" fill-rule="evenodd" fill-opacity="1" /><path clip-path="url(#clip230)" d="M910.568 158.95 L910.568 161.033 L890.985 161.033 Q891.263 165.431 893.624 167.746 Q896.008 170.038 900.244 170.038 Q902.698 170.038 904.989 169.436 Q907.304 168.834 909.573 167.63 L909.573 171.658 Q907.281 172.63 904.874 173.14 Q902.466 173.649 899.989 173.649 Q893.786 173.649 890.152 170.038 Q886.54 166.427 886.54 160.269 Q886.54 153.904 889.966 150.177 Q893.415 146.427 899.249 146.427 Q904.48 146.427 907.513 149.806 Q910.568 153.163 910.568 158.95 M906.309 157.7 Q906.263 154.205 904.341 152.121 Q902.443 150.038 899.295 150.038 Q895.73 150.038 893.577 152.052 Q891.448 154.066 891.124 157.723 L906.309 157.7 Z" fill="#000000" fill-rule="evenodd" fill-opacity="1" /><path clip-path="url(#clip230)" d="M921.772 139.691 L921.772 147.052 L930.545 147.052 L930.545 150.362 L921.772 150.362 L921.772 164.436 Q921.772 167.607 922.628 168.51 Q923.508 169.413 926.17 169.413 L930.545 169.413 L930.545 172.978 L926.17 172.978 Q921.239 172.978 919.364 171.149 Q917.489 169.297 917.489 164.436 L917.489 150.362 L914.364 150.362 L914.364 147.052 L917.489 147.052 L917.489 139.691 L921.772 139.691 Z" fill="#000000" fill-rule="evenodd" fill-opacity="1" /><path clip-path="url(#clip230)" d="M958.322 158.95 L958.322 161.033 L938.739 161.033 Q939.017 165.431 941.378 167.746 Q943.762 170.038 947.998 170.038 Q950.452 170.038 952.744 169.436 Q955.059 168.834 957.327 167.63 L957.327 171.658 Q955.035 172.63 952.628 173.14 Q950.221 173.649 947.744 173.649 Q941.54 173.649 937.906 170.038 Q934.295 166.427 934.295 160.269 Q934.295 153.904 937.721 150.177 Q941.17 146.427 947.003 146.427 Q952.235 146.427 955.267 149.806 Q958.322 153.163 958.322 158.95 M954.063 157.7 Q954.017 154.205 952.096 152.121 Q950.198 150.038 947.049 150.038 Q943.485 150.038 941.332 152.052 Q939.202 154.066 938.878 157.723 L954.063 157.7 Z" fill="#000000" fill-rule="evenodd" fill-opacity="1" /><path clip-path="url(#clip230)" d="M980.336 151.033 Q979.619 150.617 978.762 150.431 Q977.929 150.223 976.91 150.223 Q973.299 150.223 971.355 152.584 Q969.434 154.922 969.434 159.32 L969.434 172.978 L965.151 172.978 L965.151 147.052 L969.434 147.052 L969.434 151.08 Q970.776 148.718 972.929 147.584 Q975.082 146.427 978.16 146.427 Q978.6 146.427 979.133 146.496 Q979.665 146.543 980.313 146.658 L980.336 151.033 Z" fill="#000000" fill-rule="evenodd" fill-opacity="1" /><path clip-path="url(#clip230)" d="M1018.53 148.047 L1018.53 152.029 Q1016.72 151.033 1014.9 150.547 Q1013.09 150.038 1011.24 150.038 Q1007.1 150.038 1004.8 152.677 Q1002.51 155.292 1002.51 160.038 Q1002.51 164.783 1004.8 167.422 Q1007.1 170.038 1011.24 170.038 Q1013.09 170.038 1014.9 169.552 Q1016.72 169.042 1018.53 168.047 L1018.53 171.982 Q1016.75 172.816 1014.83 173.232 Q1012.93 173.649 1010.78 173.649 Q1004.92 173.649 1001.47 169.968 Q998.021 166.288 998.021 160.038 Q998.021 153.695 1001.49 150.061 Q1004.99 146.427 1011.05 146.427 Q1013.02 146.427 1014.9 146.843 Q1016.77 147.237 1018.53 148.047 Z" fill="#000000" fill-rule="evenodd" fill-opacity="1" /><path clip-path="url(#clip230)" d="M1025.5 162.746 L1025.5 147.052 L1029.76 147.052 L1029.76 162.584 Q1029.76 166.265 1031.19 168.116 Q1032.63 169.945 1035.5 169.945 Q1038.95 169.945 1040.94 167.746 Q1042.95 165.547 1042.95 161.751 L1042.95 147.052 L1047.21 147.052 L1047.21 172.978 L1042.95 172.978 L1042.95 168.996 Q1041.4 171.357 1039.34 172.515 Q1037.3 173.649 1034.6 173.649 Q1030.13 173.649 1027.81 170.871 Q1025.5 168.093 1025.5 162.746 M1036.22 146.427 L1036.22 146.427 Z" fill="#000000" fill-rule="evenodd" fill-opacity="1" /><path clip-path="url(#clip230)" d="M1071.01 151.033 Q1070.29 150.617 1069.43 150.431 Q1068.6 150.223 1067.58 150.223 Q1063.97 150.223 1062.03 152.584 Q1060.1 154.922 1060.1 159.32 L1060.1 172.978 L1055.82 172.978 L1055.82 147.052 L1060.1 147.052 L1060.1 151.08 Q1061.45 148.718 1063.6 147.584 Q1065.75 146.427 1068.83 146.427 Q1069.27 146.427 1069.8 146.496 Q1070.34 146.543 1070.98 146.658 L1071.01 151.033 Z" fill="#000000" fill-rule="evenodd" fill-opacity="1" /><path clip-path="url(#clip230)" d="M1072.42 147.052 L1076.93 147.052 L1085.03 168.811 L1093.14 147.052 L1097.65 147.052 L1087.93 172.978 L1082.14 172.978 L1072.42 147.052 Z" fill="#000000" fill-rule="evenodd" fill-opacity="1" /><path clip-path="url(#clip230)" d="M1125.71 158.95 L1125.71 161.033 L1106.12 161.033 Q1106.4 165.431 1108.76 167.746 Q1111.15 170.038 1115.38 170.038 Q1117.84 170.038 1120.13 169.436 Q1122.44 168.834 1124.71 167.63 L1124.71 171.658 Q1122.42 172.63 1120.01 173.14 Q1117.6 173.649 1115.13 173.649 Q1108.92 173.649 1105.29 170.038 Q1101.68 166.427 1101.68 160.269 Q1101.68 153.904 1105.1 150.177 Q1108.55 146.427 1114.39 146.427 Q1119.62 146.427 1122.65 149.806 Q1125.71 153.163 1125.71 158.95 M1121.45 157.7 Q1121.4 154.205 1119.48 152.121 Q1117.58 150.038 1114.43 150.038 Q1110.87 150.038 1108.72 152.052 Q1106.59 154.066 1106.26 157.723 L1121.45 157.7 Z" fill="#000000" fill-rule="evenodd" fill-opacity="1" /><path clip-path="url(#clip230)" d="
M1366.69 1486.45 L2352.76 1486.45 L2352.76 47.2441 L1366.69 47.2441  Z
  " fill="#ffffff" fill-rule="evenodd" fill-opacity="1"/>
<defs>
  <clipPath id="clip233">
    <rect x="1366" y="47" width="987" height="1440"/>
  </clipPath>
</defs>
<polyline clip-path="url(#clip233)" style="stroke:#000000; stroke-linecap:butt; stroke-linejoin:round; stroke-width:2; stroke-opacity:0.1; fill:none" points="
  1487.41,1486.45 1487.41,47.2441 
  "/>
<polyline clip-path="url(#clip233)" style="stroke:#000000; stroke-linecap:butt; stroke-linejoin:round; stroke-width:2; stroke-opacity:0.1; fill:none" points="
  1673.51,1486.45 1673.51,47.2441 
  "/>
<polyline clip-path="url(#clip233)" style="stroke:#000000; stroke-linecap:butt; stroke-linejoin:round; stroke-width:2; stroke-opacity:0.1; fill:none" points="
  1859.61,1486.45 1859.61,47.2441 
  "/>
<polyline clip-path="url(#clip233)" style="stroke:#000000; stroke-linecap:butt; stroke-linejoin:round; stroke-width:2; stroke-opacity:0.1; fill:none" points="
  2045.7,1486.45 2045.7,47.2441 
  "/>
<polyline clip-path="url(#clip233)" style="stroke:#000000; stroke-linecap:butt; stroke-linejoin:round; stroke-width:2; stroke-opacity:0.1; fill:none" points="
  2231.8,1486.45 2231.8,47.2441 
  "/>
<polyline clip-path="url(#clip230)" style="stroke:#000000; stroke-linecap:butt; stroke-linejoin:round; stroke-width:4; stroke-opacity:1; fill:none" points="
  1366.69,1486.45 2352.76,1486.45 
  "/>
<polyline clip-path="url(#clip230)" style="stroke:#000000; stroke-linecap:butt; stroke-linejoin:round; stroke-width:4; stroke-opacity:1; fill:none" points="
  1487.41,1486.45 1487.41,1469.18 
  "/>
<polyline clip-path="url(#clip230)" style="stroke:#000000; stroke-linecap:butt; stroke-linejoin:round; stroke-width:4; stroke-opacity:1; fill:none" points="
  1673.51,1486.45 1673.51,1469.18 
  "/>
<polyline clip-path="url(#clip230)" style="stroke:#000000; stroke-linecap:butt; stroke-linejoin:round; stroke-width:4; stroke-opacity:1; fill:none" points="
  1859.61,1486.45 1859.61,1469.18 
  "/>
<polyline clip-path="url(#clip230)" style="stroke:#000000; stroke-linecap:butt; stroke-linejoin:round; stroke-width:4; stroke-opacity:1; fill:none" points="
  2045.7,1486.45 2045.7,1469.18 
  "/>
<polyline clip-path="url(#clip230)" style="stroke:#000000; stroke-linecap:butt; stroke-linejoin:round; stroke-width:4; stroke-opacity:1; fill:none" points="
  2231.8,1486.45 2231.8,1469.18 
  "/>
<path clip-path="url(#clip230)" d="M1487.82 1527.98 Q1484.67 1527.98 1482.82 1530.13 Q1480.99 1532.28 1480.99 1536.03 Q1480.99 1539.76 1482.82 1541.93 Q1484.67 1544.09 1487.82 1544.09 Q1490.97 1544.09 1492.79 1541.93 Q1494.65 1539.76 1494.65 1536.03 Q1494.65 1532.28 1492.79 1530.13 Q1490.97 1527.98 1487.82 1527.98 M1497.1 1513.32 L1497.1 1517.58 Q1495.34 1516.75 1493.54 1516.31 Q1491.75 1515.87 1489.99 1515.87 Q1485.36 1515.87 1482.91 1519 Q1480.48 1522.12 1480.13 1528.44 Q1481.5 1526.43 1483.56 1525.36 Q1485.62 1524.27 1488.1 1524.27 Q1493.3 1524.27 1496.31 1527.44 Q1499.35 1530.59 1499.35 1536.03 Q1499.35 1541.36 1496.2 1544.57 Q1493.05 1547.79 1487.82 1547.79 Q1481.82 1547.79 1478.65 1543.21 Q1475.48 1538.6 1475.48 1529.87 Q1475.48 1521.68 1479.37 1516.82 Q1483.26 1511.93 1489.81 1511.93 Q1491.57 1511.93 1493.35 1512.28 Q1495.16 1512.63 1497.1 1513.32 Z" fill="#000000" fill-rule="evenodd" fill-opacity="1" /><path clip-path="url(#clip230)" d="M1673.51 1530.71 Q1670.18 1530.71 1668.25 1532.49 Q1666.36 1534.27 1666.36 1537.4 Q1666.36 1540.52 1668.25 1542.31 Q1670.18 1544.09 1673.51 1544.09 Q1676.84 1544.09 1678.76 1542.31 Q1680.69 1540.5 1680.69 1537.4 Q1680.69 1534.27 1678.76 1532.49 Q1676.87 1530.71 1673.51 1530.71 M1668.83 1528.72 Q1665.82 1527.98 1664.13 1525.92 Q1662.47 1523.86 1662.47 1520.89 Q1662.47 1516.75 1665.41 1514.34 Q1668.37 1511.93 1673.51 1511.93 Q1678.67 1511.93 1681.61 1514.34 Q1684.55 1516.75 1684.55 1520.89 Q1684.55 1523.86 1682.86 1525.92 Q1681.19 1527.98 1678.21 1528.72 Q1681.59 1529.5 1683.46 1531.8 Q1685.36 1534.09 1685.36 1537.4 Q1685.36 1542.42 1682.28 1545.11 Q1679.23 1547.79 1673.51 1547.79 Q1667.79 1547.79 1664.71 1545.11 Q1661.66 1542.42 1661.66 1537.4 Q1661.66 1534.09 1663.56 1531.8 Q1665.45 1529.5 1668.83 1528.72 M1667.12 1521.33 Q1667.12 1524.02 1668.79 1525.52 Q1670.48 1527.03 1673.51 1527.03 Q1676.52 1527.03 1678.21 1525.52 Q1679.92 1524.02 1679.92 1521.33 Q1679.92 1518.65 1678.21 1517.14 Q1676.52 1515.64 1673.51 1515.64 Q1670.48 1515.64 1668.79 1517.14 Q1667.12 1518.65 1667.12 1521.33 Z" fill="#000000" fill-rule="evenodd" fill-opacity="1" /><path clip-path="url(#clip230)" d="M1834.29 1543.18 L1841.93 1543.18 L1841.93 1516.82 L1833.62 1518.49 L1833.62 1514.23 L1841.89 1512.56 L1846.56 1512.56 L1846.56 1543.18 L1854.2 1543.18 L1854.2 1547.12 L1834.29 1547.12 L1834.29 1543.18 Z" fill="#000000" fill-rule="evenodd" fill-opacity="1" /><path clip-path="url(#clip230)" d="M1873.65 1515.64 Q1870.03 1515.64 1868.21 1519.2 Q1866.4 1522.75 1866.4 1529.87 Q1866.4 1536.98 1868.21 1540.55 Q1870.03 1544.09 1873.65 1544.09 Q1877.28 1544.09 1879.09 1540.55 Q1880.91 1536.98 1880.91 1529.87 Q1880.91 1522.75 1879.09 1519.2 Q1877.28 1515.64 1873.65 1515.64 M1873.65 1511.93 Q1879.46 1511.93 1882.51 1516.54 Q1885.59 1521.12 1885.59 1529.87 Q1885.59 1538.6 1882.51 1543.21 Q1879.46 1547.79 1873.65 1547.79 Q1867.84 1547.79 1864.76 1543.21 Q1861.7 1538.6 1861.7 1529.87 Q1861.7 1521.12 1864.76 1516.54 Q1867.84 1511.93 1873.65 1511.93 Z" fill="#000000" fill-rule="evenodd" fill-opacity="1" /><path clip-path="url(#clip230)" d="M2021.19 1543.18 L2028.83 1543.18 L2028.83 1516.82 L2020.52 1518.49 L2020.52 1514.23 L2028.78 1512.56 L2033.46 1512.56 L2033.46 1543.18 L2041.1 1543.18 L2041.1 1547.12 L2021.19 1547.12 L2021.19 1543.18 Z" fill="#000000" fill-rule="evenodd" fill-opacity="1" /><path clip-path="url(#clip230)" d="M2054.57 1543.18 L2070.89 1543.18 L2070.89 1547.12 L2048.94 1547.12 L2048.94 1543.18 Q2051.61 1540.43 2056.19 1535.8 Q2060.8 1531.15 2061.98 1529.81 Q2064.22 1527.28 2065.1 1525.55 Q2066 1523.79 2066 1522.1 Q2066 1519.34 2064.06 1517.61 Q2062.14 1515.87 2059.04 1515.87 Q2056.84 1515.87 2054.38 1516.63 Q2051.95 1517.4 2049.18 1518.95 L2049.18 1514.23 Q2052 1513.09 2054.45 1512.51 Q2056.91 1511.93 2058.94 1511.93 Q2064.31 1511.93 2067.51 1514.62 Q2070.7 1517.31 2070.7 1521.8 Q2070.7 1523.93 2069.89 1525.85 Q2069.11 1527.74 2067 1530.34 Q2066.42 1531.01 2063.32 1534.23 Q2060.22 1537.42 2054.57 1543.18 Z" fill="#000000" fill-rule="evenodd" fill-opacity="1" /><path clip-path="url(#clip230)" d="M2206.24 1543.18 L2213.88 1543.18 L2213.88 1516.82 L2205.57 1518.49 L2205.57 1514.23 L2213.84 1512.56 L2218.51 1512.56 L2218.51 1543.18 L2226.15 1543.18 L2226.15 1547.12 L2206.24 1547.12 L2206.24 1543.18 Z" fill="#000000" fill-rule="evenodd" fill-opacity="1" /><path clip-path="url(#clip230)" d="M2248.44 1516.63 L2236.64 1535.08 L2248.44 1535.08 L2248.44 1516.63 M2247.22 1512.56 L2253.1 1512.56 L2253.1 1535.08 L2258.03 1535.08 L2258.03 1538.97 L2253.1 1538.97 L2253.1 1547.12 L2248.44 1547.12 L2248.44 1538.97 L2232.84 1538.97 L2232.84 1534.46 L2247.22 1512.56 Z" fill="#000000" fill-rule="evenodd" fill-opacity="1" /><polyline clip-path="url(#clip233)" style="stroke:#000000; stroke-linecap:butt; stroke-linejoin:round; stroke-width:2; stroke-opacity:0.1; fill:none" points="
  1366.69,1325.14 2352.76,1325.14 
  "/>
<polyline clip-path="url(#clip233)" style="stroke:#000000; stroke-linecap:butt; stroke-linejoin:round; stroke-width:2; stroke-opacity:0.1; fill:none" points="
  1366.69,1139.04 2352.76,1139.04 
  "/>
<polyline clip-path="url(#clip233)" style="stroke:#000000; stroke-linecap:butt; stroke-linejoin:round; stroke-width:2; stroke-opacity:0.1; fill:none" points="
  1366.69,952.943 2352.76,952.943 
  "/>
<polyline clip-path="url(#clip233)" style="stroke:#000000; stroke-linecap:butt; stroke-linejoin:round; stroke-width:2; stroke-opacity:0.1; fill:none" points="
  1366.69,766.846 2352.76,766.846 
  "/>
<polyline clip-path="url(#clip233)" style="stroke:#000000; stroke-linecap:butt; stroke-linejoin:round; stroke-width:2; stroke-opacity:0.1; fill:none" points="
  1366.69,580.749 2352.76,580.749 
  "/>
<polyline clip-path="url(#clip233)" style="stroke:#000000; stroke-linecap:butt; stroke-linejoin:round; stroke-width:2; stroke-opacity:0.1; fill:none" points="
  1366.69,394.652 2352.76,394.652 
  "/>
<polyline clip-path="url(#clip233)" style="stroke:#000000; stroke-linecap:butt; stroke-linejoin:round; stroke-width:2; stroke-opacity:0.1; fill:none" points="
  1366.69,208.555 2352.76,208.555 
  "/>
<polyline clip-path="url(#clip230)" style="stroke:#000000; stroke-linecap:butt; stroke-linejoin:round; stroke-width:4; stroke-opacity:1; fill:none" points="
  1366.69,1486.45 1366.69,47.2441 
  "/>
<polyline clip-path="url(#clip230)" style="stroke:#000000; stroke-linecap:butt; stroke-linejoin:round; stroke-width:4; stroke-opacity:1; fill:none" points="
  1366.69,1325.14 1378.52,1325.14 
  "/>
<polyline clip-path="url(#clip230)" style="stroke:#000000; stroke-linecap:butt; stroke-linejoin:round; stroke-width:4; stroke-opacity:1; fill:none" points="
  1366.69,1139.04 1378.52,1139.04 
  "/>
<polyline clip-path="url(#clip230)" style="stroke:#000000; stroke-linecap:butt; stroke-linejoin:round; stroke-width:4; stroke-opacity:1; fill:none" points="
  1366.69,952.943 1378.52,952.943 
  "/>
<polyline clip-path="url(#clip230)" style="stroke:#000000; stroke-linecap:butt; stroke-linejoin:round; stroke-width:4; stroke-opacity:1; fill:none" points="
  1366.69,766.846 1378.52,766.846 
  "/>
<polyline clip-path="url(#clip230)" style="stroke:#000000; stroke-linecap:butt; stroke-linejoin:round; stroke-width:4; stroke-opacity:1; fill:none" points="
  1366.69,580.749 1378.52,580.749 
  "/>
<polyline clip-path="url(#clip230)" style="stroke:#000000; stroke-linecap:butt; stroke-linejoin:round; stroke-width:4; stroke-opacity:1; fill:none" points="
  1366.69,394.652 1378.52,394.652 
  "/>
<polyline clip-path="url(#clip230)" style="stroke:#000000; stroke-linecap:butt; stroke-linejoin:round; stroke-width:4; stroke-opacity:1; fill:none" points="
  1366.69,208.555 1378.52,208.555 
  "/>
<path clip-path="url(#clip230)" d="M1314.37 1338.48 L1330.69 1338.48 L1330.69 1342.42 L1308.75 1342.42 L1308.75 1338.48 Q1311.41 1335.73 1315.99 1331.1 Q1320.6 1326.44 1321.78 1325.1 Q1324.02 1322.58 1324.9 1320.84 Q1325.81 1319.08 1325.81 1317.39 Q1325.81 1314.64 1323.86 1312.9 Q1321.94 1311.17 1318.84 1311.17 Q1316.64 1311.17 1314.19 1311.93 Q1311.76 1312.69 1308.98 1314.25 L1308.98 1309.52 Q1311.8 1308.39 1314.26 1307.81 Q1316.71 1307.23 1318.75 1307.23 Q1324.12 1307.23 1327.31 1309.92 Q1330.51 1312.6 1330.51 1317.09 Q1330.51 1319.22 1329.7 1321.14 Q1328.91 1323.04 1326.8 1325.63 Q1326.22 1326.31 1323.12 1329.52 Q1320.02 1332.72 1314.37 1338.48 Z" fill="#000000" fill-rule="evenodd" fill-opacity="1" /><path clip-path="url(#clip230)" d="M1321.11 1125.83 L1309.3 1144.28 L1321.11 1144.28 L1321.11 1125.83 M1319.88 1121.76 L1325.76 1121.76 L1325.76 1144.28 L1330.69 1144.28 L1330.69 1148.17 L1325.76 1148.17 L1325.76 1156.32 L1321.11 1156.32 L1321.11 1148.17 L1305.51 1148.17 L1305.51 1143.66 L1319.88 1121.76 Z" fill="#000000" fill-rule="evenodd" fill-opacity="1" /><path clip-path="url(#clip230)" d="M1319.16 951.079 Q1316.01 951.079 1314.16 953.232 Q1312.33 955.385 1312.33 959.135 Q1312.33 962.862 1314.16 965.038 Q1316.01 967.19 1319.16 967.19 Q1322.31 967.19 1324.14 965.038 Q1325.99 962.862 1325.99 959.135 Q1325.99 955.385 1324.14 953.232 Q1322.31 951.079 1319.16 951.079 M1328.45 936.427 L1328.45 940.686 Q1326.69 939.853 1324.88 939.413 Q1323.1 938.973 1321.34 938.973 Q1316.71 938.973 1314.26 942.098 Q1311.83 945.223 1311.48 951.542 Q1312.84 949.529 1314.9 948.464 Q1316.96 947.376 1319.44 947.376 Q1324.65 947.376 1327.66 950.547 Q1330.69 953.695 1330.69 959.135 Q1330.69 964.459 1327.54 967.677 Q1324.39 970.894 1319.16 970.894 Q1313.17 970.894 1310 966.311 Q1306.83 961.704 1306.83 952.978 Q1306.83 944.783 1310.71 939.922 Q1314.6 935.038 1321.15 935.038 Q1322.91 935.038 1324.7 935.385 Q1326.5 935.732 1328.45 936.427 Z" fill="#000000" fill-rule="evenodd" fill-opacity="1" /><path clip-path="url(#clip230)" d="M1318.84 767.714 Q1315.51 767.714 1313.58 769.496 Q1311.69 771.279 1311.69 774.404 Q1311.69 777.529 1313.58 779.311 Q1315.51 781.094 1318.84 781.094 Q1322.17 781.094 1324.09 779.311 Q1326.01 777.506 1326.01 774.404 Q1326.01 771.279 1324.09 769.496 Q1322.2 767.714 1318.84 767.714 M1314.16 765.723 Q1311.15 764.983 1309.46 762.922 Q1307.8 760.862 1307.8 757.899 Q1307.8 753.756 1310.74 751.348 Q1313.7 748.941 1318.84 748.941 Q1324 748.941 1326.94 751.348 Q1329.88 753.756 1329.88 757.899 Q1329.88 760.862 1328.19 762.922 Q1326.52 764.983 1323.54 765.723 Q1326.92 766.51 1328.79 768.802 Q1330.69 771.094 1330.69 774.404 Q1330.69 779.427 1327.61 782.112 Q1324.56 784.797 1318.84 784.797 Q1313.12 784.797 1310.04 782.112 Q1306.99 779.427 1306.99 774.404 Q1306.99 771.094 1308.89 768.802 Q1310.78 766.51 1314.16 765.723 M1312.45 758.339 Q1312.45 761.024 1314.12 762.529 Q1315.81 764.033 1318.84 764.033 Q1321.85 764.033 1323.54 762.529 Q1325.25 761.024 1325.25 758.339 Q1325.25 755.654 1323.54 754.149 Q1321.85 752.645 1318.84 752.645 Q1315.81 752.645 1314.12 754.149 Q1312.45 755.654 1312.45 758.339 Z" fill="#000000" fill-rule="evenodd" fill-opacity="1" /><path clip-path="url(#clip230)" d="M1279.39 594.094 L1287.03 594.094 L1287.03 567.728 L1278.72 569.395 L1278.72 565.136 L1286.99 563.469 L1291.66 563.469 L1291.66 594.094 L1299.3 594.094 L1299.3 598.029 L1279.39 598.029 L1279.39 594.094 Z" fill="#000000" fill-rule="evenodd" fill-opacity="1" /><path clip-path="url(#clip230)" d="M1318.75 566.548 Q1315.14 566.548 1313.31 570.113 Q1311.5 573.654 1311.5 580.784 Q1311.5 587.89 1313.31 591.455 Q1315.14 594.997 1318.75 594.997 Q1322.38 594.997 1324.19 591.455 Q1326.01 587.89 1326.01 580.784 Q1326.01 573.654 1324.19 570.113 Q1322.38 566.548 1318.75 566.548 M1318.75 562.844 Q1324.56 562.844 1327.61 567.451 Q1330.69 572.034 1330.69 580.784 Q1330.69 589.511 1327.61 594.117 Q1324.56 598.7 1318.75 598.7 Q1312.94 598.7 1309.86 594.117 Q1306.8 589.511 1306.8 580.784 Q1306.8 572.034 1309.86 567.451 Q1312.94 562.844 1318.75 562.844 Z" fill="#000000" fill-rule="evenodd" fill-opacity="1" /><path clip-path="url(#clip230)" d="M1280.99 407.997 L1288.63 407.997 L1288.63 381.631 L1280.32 383.298 L1280.32 379.039 L1288.58 377.372 L1293.26 377.372 L1293.26 407.997 L1300.9 407.997 L1300.9 411.932 L1280.99 411.932 L1280.99 407.997 Z" fill="#000000" fill-rule="evenodd" fill-opacity="1" /><path clip-path="url(#clip230)" d="M1314.37 407.997 L1330.69 407.997 L1330.69 411.932 L1308.75 411.932 L1308.75 407.997 Q1311.41 405.242 1315.99 400.613 Q1320.6 395.96 1321.78 394.618 Q1324.02 392.094 1324.9 390.358 Q1325.81 388.599 1325.81 386.909 Q1325.81 384.155 1323.86 382.419 Q1321.94 380.682 1318.84 380.682 Q1316.64 380.682 1314.19 381.446 Q1311.76 382.21 1308.98 383.761 L1308.98 379.039 Q1311.8 377.905 1314.26 377.326 Q1316.71 376.747 1318.75 376.747 Q1324.12 376.747 1327.31 379.432 Q1330.51 382.118 1330.51 386.608 Q1330.51 388.738 1329.7 390.659 Q1328.91 392.557 1326.8 395.15 Q1326.22 395.821 1323.12 399.039 Q1320.02 402.233 1314.37 407.997 Z" fill="#000000" fill-rule="evenodd" fill-opacity="1" /><path clip-path="url(#clip230)" d="M1278.91 221.9 L1286.55 221.9 L1286.55 195.535 L1278.24 197.201 L1278.24 192.942 L1286.5 191.275 L1291.18 191.275 L1291.18 221.9 L1298.82 221.9 L1298.82 225.835 L1278.91 225.835 L1278.91 221.9 Z" fill="#000000" fill-rule="evenodd" fill-opacity="1" /><path clip-path="url(#clip230)" d="M1321.11 195.349 L1309.3 213.798 L1321.11 213.798 L1321.11 195.349 M1319.88 191.275 L1325.76 191.275 L1325.76 213.798 L1330.69 213.798 L1330.69 217.687 L1325.76 217.687 L1325.76 225.835 L1321.11 225.835 L1321.11 217.687 L1305.51 217.687 L1305.51 213.173 L1319.88 191.275 Z" fill="#000000" fill-rule="evenodd" fill-opacity="1" /><polyline clip-path="url(#clip233)" style="stroke:#009af9; stroke-linecap:butt; stroke-linejoin:round; stroke-width:4; stroke-opacity:1; fill:none" points="
  2324.85,766.846 2323.91,737.339 2321.11,707.95 2316.44,678.798 2309.94,650.001 2301.62,621.675 2291.52,593.933 2279.69,566.887 2266.16,540.647 2250.99,515.317 
  2234.25,491 2216,467.794 2196.32,445.792 2175.28,425.083 2152.97,405.75 2129.47,387.871 2104.89,371.518 2079.33,356.757 2052.87,343.647 2025.64,332.241 
  1997.75,322.585 1969.29,314.718 1940.39,308.672 1911.17,304.47 1881.74,302.131 1852.22,301.662 1822.74,303.067 1793.4,306.339 1764.32,311.466 1735.63,318.426 
  1707.44,327.192 1679.86,337.728 1653.01,349.992 1626.99,363.934 1601.9,379.499 1577.85,396.624 1554.94,415.239 1533.25,435.271 1512.88,456.637 1493.9,479.252 
  1476.4,503.026 1460.44,527.862 1446.08,553.66 1433.39,580.316 1422.42,607.724 1413.21,635.772 1405.8,664.348 1400.21,693.337 1396.47,722.622 1394.6,752.085 
  1394.6,781.607 1396.47,811.07 1400.21,840.355 1405.8,869.344 1413.21,897.92 1422.42,925.968 1433.39,953.376 1446.08,980.032 1460.44,1005.83 1476.4,1030.67 
  1493.9,1054.44 1512.88,1077.06 1533.25,1098.42 1554.94,1118.45 1577.85,1137.07 1601.9,1154.19 1626.99,1169.76 1653.01,1183.7 1679.86,1195.96 1707.44,1206.5 
  1735.63,1215.27 1764.32,1222.23 1793.4,1227.35 1822.74,1230.62 1852.22,1232.03 1881.74,1231.56 1911.17,1229.22 1940.39,1225.02 1969.29,1218.97 1997.75,1211.11 
  2025.64,1201.45 2052.87,1190.05 2079.33,1176.94 2104.89,1162.17 2129.47,1145.82 2152.97,1127.94 2175.28,1108.61 2196.32,1087.9 2216,1065.9 2234.25,1042.69 
  2250.99,1018.37 2266.16,993.045 2279.69,966.805 2291.52,939.759 2301.62,912.017 2309.94,883.691 2316.44,854.894 2321.11,825.742 2323.91,796.353 2324.85,766.846 
  
  "/>
<path clip-path="url(#clip230)" d="
M1807.41 216.178 L2319.89 216.178 L2319.89 95.2176 L1807.41 95.2176  Z
  " fill="#ffffff" fill-rule="evenodd" fill-opacity="1"/>
<polyline clip-path="url(#clip230)" style="stroke:#000000; stroke-linecap:butt; stroke-linejoin:round; stroke-width:4; stroke-opacity:1; fill:none" points="
  1807.41,216.178 2319.89,216.178 2319.89,95.2176 1807.41,95.2176 1807.41,216.178 
  "/>
<polyline clip-path="url(#clip230)" style="stroke:#009af9; stroke-linecap:butt; stroke-linejoin:round; stroke-width:4; stroke-opacity:1; fill:none" points="
  1818.37,155.698 1884.1,155.698 
  "/>
<path clip-path="url(#clip230)" d="M1895.06 138.418 L1899.78 138.418 L1907.05 167.63 L1914.3 138.418 L1919.55 138.418 L1926.82 167.63 L1934.06 138.418 L1938.81 138.418 L1930.13 172.978 L1924.25 172.978 L1916.96 142.978 L1909.6 172.978 L1903.72 172.978 L1895.06 138.418 Z" fill="#000000" fill-rule="evenodd" fill-opacity="1" /><path clip-path="url(#clip230)" d="M1952.1 150.038 Q1948.67 150.038 1946.68 152.723 Q1944.69 155.385 1944.69 160.038 Q1944.69 164.691 1946.66 167.376 Q1948.65 170.038 1952.1 170.038 Q1955.5 170.038 1957.49 167.353 Q1959.48 164.667 1959.48 160.038 Q1959.48 155.431 1957.49 152.746 Q1955.5 150.038 1952.1 150.038 M1952.1 146.427 Q1957.65 146.427 1960.82 150.038 Q1963.99 153.649 1963.99 160.038 Q1963.99 166.404 1960.82 170.038 Q1957.65 173.649 1952.1 173.649 Q1946.52 173.649 1943.35 170.038 Q1940.2 166.404 1940.2 160.038 Q1940.2 153.649 1943.35 150.038 Q1946.52 146.427 1952.1 146.427 Z" fill="#000000" fill-rule="evenodd" fill-opacity="1" /><path clip-path="url(#clip230)" d="M1986.08 151.033 Q1985.36 150.617 1984.5 150.431 Q1983.67 150.223 1982.65 150.223 Q1979.04 150.223 1977.1 152.584 Q1975.18 154.922 1975.18 159.32 L1975.18 172.978 L1970.89 172.978 L1970.89 147.052 L1975.18 147.052 L1975.18 151.08 Q1976.52 148.718 1978.67 147.584 Q1980.82 146.427 1983.9 146.427 Q1984.34 146.427 1984.87 146.496 Q1985.41 146.543 1986.05 146.658 L1986.08 151.033 Z" fill="#000000" fill-rule="evenodd" fill-opacity="1" /><path clip-path="url(#clip230)" d="M1990.38 136.959 L1994.67 136.959 L1994.67 158.232 L2007.37 147.052 L2012.81 147.052 L1999.06 159.181 L2013.39 172.978 L2007.84 172.978 L1994.67 160.316 L1994.67 172.978 L1990.38 172.978 L1990.38 136.959 Z" fill="#000000" fill-rule="evenodd" fill-opacity="1" /><path clip-path="url(#clip230)" d="M2034.53 147.816 L2034.53 151.843 Q2032.72 150.917 2030.78 150.455 Q2028.83 149.992 2026.75 149.992 Q2023.58 149.992 2021.98 150.964 Q2020.41 151.936 2020.41 153.88 Q2020.41 155.362 2021.54 156.218 Q2022.68 157.052 2026.1 157.816 L2027.56 158.14 Q2032.1 159.112 2033.99 160.894 Q2035.92 162.654 2035.92 165.825 Q2035.92 169.436 2033.05 171.542 Q2030.2 173.649 2025.2 173.649 Q2023.11 173.649 2020.85 173.232 Q2018.6 172.839 2016.1 172.028 L2016.1 167.63 Q2018.46 168.857 2020.75 169.482 Q2023.05 170.084 2025.29 170.084 Q2028.3 170.084 2029.92 169.066 Q2031.54 168.024 2031.54 166.149 Q2031.54 164.413 2030.36 163.487 Q2029.2 162.561 2025.24 161.704 L2023.76 161.357 Q2019.8 160.524 2018.05 158.811 Q2016.29 157.075 2016.29 154.066 Q2016.29 150.408 2018.88 148.418 Q2021.47 146.427 2026.24 146.427 Q2028.6 146.427 2030.68 146.774 Q2032.77 147.121 2034.53 147.816 Z" fill="#000000" fill-rule="evenodd" fill-opacity="1" /><path clip-path="url(#clip230)" d="M2046.82 169.089 L2046.82 182.839 L2042.54 182.839 L2042.54 147.052 L2046.82 147.052 L2046.82 150.987 Q2048.16 148.672 2050.2 147.561 Q2052.26 146.427 2055.11 146.427 Q2059.83 146.427 2062.77 150.177 Q2065.73 153.927 2065.73 160.038 Q2065.73 166.149 2062.77 169.899 Q2059.83 173.649 2055.11 173.649 Q2052.26 173.649 2050.2 172.538 Q2048.16 171.403 2046.82 169.089 M2061.31 160.038 Q2061.31 155.339 2059.36 152.677 Q2057.44 149.992 2054.06 149.992 Q2050.68 149.992 2048.74 152.677 Q2046.82 155.339 2046.82 160.038 Q2046.82 164.737 2048.74 167.422 Q2050.68 170.084 2054.06 170.084 Q2057.44 170.084 2059.36 167.422 Q2061.31 164.737 2061.31 160.038 Z" fill="#000000" fill-rule="evenodd" fill-opacity="1" /><path clip-path="url(#clip230)" d="M2084.57 159.945 Q2079.41 159.945 2077.42 161.126 Q2075.43 162.306 2075.43 165.154 Q2075.43 167.422 2076.91 168.765 Q2078.42 170.084 2080.98 170.084 Q2084.53 170.084 2086.66 167.584 Q2088.81 165.061 2088.81 160.894 L2088.81 159.945 L2084.57 159.945 M2093.07 158.186 L2093.07 172.978 L2088.81 172.978 L2088.81 169.042 Q2087.35 171.403 2085.17 172.538 Q2083 173.649 2079.85 173.649 Q2075.87 173.649 2073.51 171.427 Q2071.17 169.181 2071.17 165.431 Q2071.17 161.056 2074.09 158.834 Q2077.03 156.612 2082.84 156.612 L2088.81 156.612 L2088.81 156.195 Q2088.81 153.255 2086.86 151.658 Q2084.94 150.038 2081.45 150.038 Q2079.23 150.038 2077.12 150.57 Q2075.01 151.103 2073.07 152.167 L2073.07 148.232 Q2075.41 147.33 2077.61 146.89 Q2079.8 146.427 2081.89 146.427 Q2087.51 146.427 2090.29 149.343 Q2093.07 152.26 2093.07 158.186 Z" fill="#000000" fill-rule="evenodd" fill-opacity="1" /><path clip-path="url(#clip230)" d="M2120.5 148.047 L2120.5 152.029 Q2118.69 151.033 2116.86 150.547 Q2115.06 150.038 2113.21 150.038 Q2109.06 150.038 2106.77 152.677 Q2104.48 155.292 2104.48 160.038 Q2104.48 164.783 2106.77 167.422 Q2109.06 170.038 2113.21 170.038 Q2115.06 170.038 2116.86 169.552 Q2118.69 169.042 2120.5 168.047 L2120.5 171.982 Q2118.72 172.816 2116.79 173.232 Q2114.9 173.649 2112.74 173.649 Q2106.89 173.649 2103.44 169.968 Q2099.99 166.288 2099.99 160.038 Q2099.99 153.695 2103.46 150.061 Q2106.96 146.427 2113.02 146.427 Q2114.99 146.427 2116.86 146.843 Q2118.74 147.237 2120.5 148.047 Z" fill="#000000" fill-rule="evenodd" fill-opacity="1" /><path clip-path="url(#clip230)" d="M2150.08 158.95 L2150.08 161.033 L2130.5 161.033 Q2130.78 165.431 2133.14 167.746 Q2135.52 170.038 2139.76 170.038 Q2142.21 170.038 2144.5 169.436 Q2146.82 168.834 2149.09 167.63 L2149.09 171.658 Q2146.79 172.63 2144.39 173.14 Q2141.98 173.649 2139.5 173.649 Q2133.3 173.649 2129.67 170.038 Q2126.05 166.427 2126.05 160.269 Q2126.05 153.904 2129.48 150.177 Q2132.93 146.427 2138.76 146.427 Q2143.99 146.427 2147.03 149.806 Q2150.08 153.163 2150.08 158.95 M2145.82 157.7 Q2145.78 154.205 2143.85 152.121 Q2141.96 150.038 2138.81 150.038 Q2135.24 150.038 2133.09 152.052 Q2130.96 154.066 2130.64 157.723 L2145.82 157.7 Z" fill="#000000" fill-rule="evenodd" fill-opacity="1" /><path clip-path="url(#clip230)" d="M2190.8 148.047 L2190.8 152.029 Q2188.99 151.033 2187.16 150.547 Q2185.36 150.038 2183.51 150.038 Q2179.36 150.038 2177.07 152.677 Q2174.78 155.292 2174.78 160.038 Q2174.78 164.783 2177.07 167.422 Q2179.36 170.038 2183.51 170.038 Q2185.36 170.038 2187.16 169.552 Q2188.99 169.042 2190.8 168.047 L2190.8 171.982 Q2189.02 172.816 2187.1 173.232 Q2185.2 173.649 2183.04 173.649 Q2177.19 173.649 2173.74 169.968 Q2170.29 166.288 2170.29 160.038 Q2170.29 153.695 2173.76 150.061 Q2177.26 146.427 2183.32 146.427 Q2185.29 146.427 2187.16 146.843 Q2189.04 147.237 2190.8 148.047 Z" fill="#000000" fill-rule="evenodd" fill-opacity="1" /><path clip-path="url(#clip230)" d="M2197.77 162.746 L2197.77 147.052 L2202.03 147.052 L2202.03 162.584 Q2202.03 166.265 2203.46 168.116 Q2204.9 169.945 2207.77 169.945 Q2211.22 169.945 2213.21 167.746 Q2215.22 165.547 2215.22 161.751 L2215.22 147.052 L2219.48 147.052 L2219.48 172.978 L2215.22 172.978 L2215.22 168.996 Q2213.67 171.357 2211.61 172.515 Q2209.57 173.649 2206.86 173.649 Q2202.4 173.649 2200.08 170.871 Q2197.77 168.093 2197.77 162.746 M2208.48 146.427 L2208.48 146.427 Z" fill="#000000" fill-rule="evenodd" fill-opacity="1" /><path clip-path="url(#clip230)" d="M2243.28 151.033 Q2242.56 150.617 2241.7 150.431 Q2240.87 150.223 2239.85 150.223 Q2236.24 150.223 2234.29 152.584 Q2232.37 154.922 2232.37 159.32 L2232.37 172.978 L2228.09 172.978 L2228.09 147.052 L2232.37 147.052 L2232.37 151.08 Q2233.72 148.718 2235.87 147.584 Q2238.02 146.427 2241.1 146.427 Q2241.54 146.427 2242.07 146.496 Q2242.6 146.543 2243.25 146.658 L2243.28 151.033 Z" fill="#000000" fill-rule="evenodd" fill-opacity="1" /><path clip-path="url(#clip230)" d="M2244.69 147.052 L2249.2 147.052 L2257.3 168.811 L2265.41 147.052 L2269.92 147.052 L2260.2 172.978 L2254.41 172.978 L2244.69 147.052 Z" fill="#000000" fill-rule="evenodd" fill-opacity="1" /><path clip-path="url(#clip230)" d="M2297.97 158.95 L2297.97 161.033 L2278.39 161.033 Q2278.67 165.431 2281.03 167.746 Q2283.41 170.038 2287.65 170.038 Q2290.1 170.038 2292.4 169.436 Q2294.71 168.834 2296.98 167.63 L2296.98 171.658 Q2294.69 172.63 2292.28 173.14 Q2289.87 173.649 2287.4 173.649 Q2281.19 173.649 2277.56 170.038 Q2273.95 166.427 2273.95 160.269 Q2273.95 153.904 2277.37 150.177 Q2280.82 146.427 2286.66 146.427 Q2291.89 146.427 2294.92 149.806 Q2297.97 153.163 2297.97 158.95 M2293.72 157.7 Q2293.67 154.205 2291.75 152.121 Q2289.85 150.038 2286.7 150.038 Q2283.14 150.038 2280.98 152.052 Q2278.85 154.066 2278.53 157.723 L2293.72 157.7 Z" fill="#000000" fill-rule="evenodd" fill-opacity="1" /></svg>
