<?xml version="1.0" encoding="utf-8"?>
<svg xmlns="http://www.w3.org/2000/svg" xmlns:xlink="http://www.w3.org/1999/xlink" width="600" height="400" viewBox="0 0 2400 1600">
<defs>
  <clipPath id="clip990">
    <rect x="0" y="0" width="2400" height="1600"/>
  </clipPath>
</defs>
<path clip-path="url(#clip990)" d="
M0 1600 L2400 1600 L2400 0 L0 0  Z
  " fill="#ffffff" fill-rule="evenodd" fill-opacity="1"/>
<defs>
  <clipPath id="clip991">
    <rect x="480" y="0" width="1681" height="1600"/>
  </clipPath>
</defs>
<path clip-path="url(#clip990)" d="
M112.177 1486.45 L2352.76 1486.45 L2352.76 47.2441 L112.177 47.2441  Z
  " fill="#ffffff" fill-rule="evenodd" fill-opacity="1"/>
<defs>
  <clipPath id="clip992">
    <rect x="112" y="47" width="2242" height="1440"/>
  </clipPath>
</defs>
<polyline clip-path="url(#clip992)" style="stroke:#000000; stroke-linecap:butt; stroke-linejoin:round; stroke-width:2; stroke-opacity:0.1; fill:none" points="
  175.59,1486.45 175.59,47.2441 
  "/>
<polyline clip-path="url(#clip992)" style="stroke:#000000; stroke-linecap:butt; stroke-linejoin:round; stroke-width:2; stroke-opacity:0.1; fill:none" points="
  598.34,1486.45 598.34,47.2441 
  "/>
<polyline clip-path="url(#clip992)" style="stroke:#000000; stroke-linecap:butt; stroke-linejoin:round; stroke-width:2; stroke-opacity:0.1; fill:none" points="
  1021.09,1486.45 1021.09,47.2441 
  "/>
<polyline clip-path="url(#clip992)" style="stroke:#000000; stroke-linecap:butt; stroke-linejoin:round; stroke-width:2; stroke-opacity:0.1; fill:none" points="
  1443.84,1486.45 1443.84,47.2441 
  "/>
<polyline clip-path="url(#clip992)" style="stroke:#000000; stroke-linecap:butt; stroke-linejoin:round; stroke-width:2; stroke-opacity:0.1; fill:none" points="
  1866.59,1486.45 1866.59,47.2441 
  "/>
<polyline clip-path="url(#clip992)" style="stroke:#000000; stroke-linecap:butt; stroke-linejoin:round; stroke-width:2; stroke-opacity:0.1; fill:none" points="
  2289.34,1486.45 2289.34,47.2441 
  "/>
<polyline clip-path="url(#clip990)" style="stroke:#000000; stroke-linecap:butt; stroke-linejoin:round; stroke-width:4; stroke-opacity:1; fill:none" points="
  112.177,1486.45 2352.76,1486.45 
  "/>
<polyline clip-path="url(#clip990)" style="stroke:#000000; stroke-linecap:butt; stroke-linejoin:round; stroke-width:4; stroke-opacity:1; fill:none" points="
  175.59,1486.45 175.59,1469.18 
  "/>
<polyline clip-path="url(#clip990)" style="stroke:#000000; stroke-linecap:butt; stroke-linejoin:round; stroke-width:4; stroke-opacity:1; fill:none" points="
  598.34,1486.45 598.34,1469.18 
  "/>
<polyline clip-path="url(#clip990)" style="stroke:#000000; stroke-linecap:butt; stroke-linejoin:round; stroke-width:4; stroke-opacity:1; fill:none" points="
  1021.09,1486.45 1021.09,1469.18 
  "/>
<polyline clip-path="url(#clip990)" style="stroke:#000000; stroke-linecap:butt; stroke-linejoin:round; stroke-width:4; stroke-opacity:1; fill:none" points="
  1443.84,1486.45 1443.84,1469.18 
  "/>
<polyline clip-path="url(#clip990)" style="stroke:#000000; stroke-linecap:butt; stroke-linejoin:round; stroke-width:4; stroke-opacity:1; fill:none" points="
  1866.59,1486.45 1866.59,1469.18 
  "/>
<polyline clip-path="url(#clip990)" style="stroke:#000000; stroke-linecap:butt; stroke-linejoin:round; stroke-width:4; stroke-opacity:1; fill:none" points="
  2289.34,1486.45 2289.34,1469.18 
  "/>
<path clip-path="url(#clip990)" d="M165.972 1543.18 L173.611 1543.18 L173.611 1516.82 L165.3 1518.49 L165.3 1514.23 L173.564 1512.56 L178.24 1512.56 L178.24 1543.18 L185.879 1543.18 L185.879 1547.12 L165.972 1547.12 L165.972 1543.18 Z" fill="#000000" fill-rule="evenodd" fill-opacity="1" /><path clip-path="url(#clip990)" d="M592.993 1543.18 L609.313 1543.18 L609.313 1547.12 L587.368 1547.12 L587.368 1543.18 Q590.03 1540.43 594.614 1535.8 Q599.22 1531.15 600.401 1529.81 Q602.646 1527.28 603.526 1525.55 Q604.428 1523.79 604.428 1522.1 Q604.428 1519.34 602.484 1517.61 Q600.563 1515.87 597.461 1515.87 Q595.262 1515.87 592.808 1516.63 Q590.378 1517.4 587.6 1518.95 L587.6 1514.23 Q590.424 1513.09 592.878 1512.51 Q595.331 1511.93 597.368 1511.93 Q602.739 1511.93 605.933 1514.62 Q609.127 1517.31 609.127 1521.8 Q609.127 1523.93 608.317 1525.85 Q607.53 1527.74 605.424 1530.34 Q604.845 1531.01 601.743 1534.23 Q598.641 1537.42 592.993 1543.18 Z" fill="#000000" fill-rule="evenodd" fill-opacity="1" /><path clip-path="url(#clip990)" d="M1025.34 1528.49 Q1028.7 1529.2 1030.57 1531.47 Q1032.47 1533.74 1032.47 1537.07 Q1032.47 1542.19 1028.95 1544.99 Q1025.43 1547.79 1018.95 1547.79 Q1016.77 1547.79 1014.46 1547.35 Q1012.17 1546.93 1009.71 1546.08 L1009.71 1541.56 Q1011.66 1542.7 1013.97 1543.28 Q1016.29 1543.86 1018.81 1543.86 Q1023.21 1543.86 1025.5 1542.12 Q1027.82 1540.38 1027.82 1537.07 Q1027.82 1534.02 1025.66 1532.31 Q1023.53 1530.57 1019.71 1530.57 L1015.69 1530.57 L1015.69 1526.73 L1019.9 1526.73 Q1023.35 1526.73 1025.18 1525.36 Q1027.01 1523.97 1027.01 1521.38 Q1027.01 1518.72 1025.11 1517.31 Q1023.23 1515.87 1019.71 1515.87 Q1017.79 1515.87 1015.59 1516.29 Q1013.39 1516.7 1010.76 1517.58 L1010.76 1513.42 Q1013.42 1512.68 1015.73 1512.31 Q1018.07 1511.93 1020.13 1511.93 Q1025.45 1511.93 1028.56 1514.37 Q1031.66 1516.77 1031.66 1520.89 Q1031.66 1523.76 1030.01 1525.75 Q1028.37 1527.72 1025.34 1528.49 Z" fill="#000000" fill-rule="evenodd" fill-opacity="1" /><path clip-path="url(#clip990)" d="M1446.85 1516.63 L1435.05 1535.08 L1446.85 1535.08 L1446.85 1516.63 M1445.62 1512.56 L1451.5 1512.56 L1451.5 1535.08 L1456.43 1535.08 L1456.43 1538.97 L1451.5 1538.97 L1451.5 1547.12 L1446.85 1547.12 L1446.85 1538.97 L1431.25 1538.97 L1431.25 1534.46 L1445.62 1512.56 Z" fill="#000000" fill-rule="evenodd" fill-opacity="1" /><path clip-path="url(#clip990)" d="M1856.87 1512.56 L1875.23 1512.56 L1875.23 1516.5 L1861.15 1516.5 L1861.15 1524.97 Q1862.17 1524.62 1863.19 1524.46 Q1864.21 1524.27 1865.23 1524.27 Q1871.01 1524.27 1874.39 1527.44 Q1877.77 1530.62 1877.77 1536.03 Q1877.77 1541.61 1874.3 1544.71 Q1870.83 1547.79 1864.51 1547.79 Q1862.33 1547.79 1860.06 1547.42 Q1857.82 1547.05 1855.41 1546.31 L1855.41 1541.61 Q1857.5 1542.74 1859.72 1543.3 Q1861.94 1543.86 1864.42 1543.86 Q1868.42 1543.86 1870.76 1541.75 Q1873.1 1539.64 1873.1 1536.03 Q1873.1 1532.42 1870.76 1530.31 Q1868.42 1528.21 1864.42 1528.21 Q1862.54 1528.21 1860.67 1528.62 Q1858.81 1529.04 1856.87 1529.92 L1856.87 1512.56 Z" fill="#000000" fill-rule="evenodd" fill-opacity="1" /><path clip-path="url(#clip990)" d="M2289.75 1527.98 Q2286.6 1527.98 2284.75 1530.13 Q2282.92 1532.28 2282.92 1536.03 Q2282.92 1539.76 2284.75 1541.93 Q2286.6 1544.09 2289.75 1544.09 Q2292.9 1544.09 2294.73 1541.93 Q2296.58 1539.76 2296.58 1536.03 Q2296.58 1532.28 2294.73 1530.13 Q2292.9 1527.98 2289.75 1527.98 M2299.03 1513.32 L2299.03 1517.58 Q2297.27 1516.75 2295.47 1516.31 Q2293.68 1515.87 2291.92 1515.87 Q2287.29 1515.87 2284.84 1519 Q2282.41 1522.12 2282.06 1528.44 Q2283.43 1526.43 2285.49 1525.36 Q2287.55 1524.27 2290.03 1524.27 Q2295.23 1524.27 2298.24 1527.44 Q2301.28 1530.59 2301.28 1536.03 Q2301.28 1541.36 2298.13 1544.57 Q2294.98 1547.79 2289.75 1547.79 Q2283.75 1547.79 2280.58 1543.21 Q2277.41 1538.6 2277.41 1529.87 Q2277.41 1521.68 2281.3 1516.82 Q2285.19 1511.93 2291.74 1511.93 Q2293.5 1511.93 2295.28 1512.28 Q2297.09 1512.63 2299.03 1513.32 Z" fill="#000000" fill-rule="evenodd" fill-opacity="1" /><polyline clip-path="url(#clip992)" style="stroke:#000000; stroke-linecap:butt; stroke-linejoin:round; stroke-width:2; stroke-opacity:0.1; fill:none" points="
  112.177,1309.94 2352.76,1309.94 
  "/>
<polyline clip-path="url(#clip992)" style="stroke:#000000; stroke-linecap:butt; stroke-linejoin:round; stroke-width:2; stroke-opacity:0.1; fill:none" points="
  112.177,1038.39 2352.76,1038.39 
  "/>
<polyline clip-path="url(#clip992)" style="stroke:#000000; stroke-linecap:butt; stroke-linejoin:round; stroke-width:2; stroke-opacity:0.1; fill:none" points="
  112.177,766.846 2352.76,766.846 
  "/>
<polyline clip-path="url(#clip992)" style="stroke:#000000; stroke-linecap:butt; stroke-linejoin:round; stroke-width:2; stroke-opacity:0.1; fill:none" points="
  112.177,495.298 2352.76,495.298 
  "/>
<polyline clip-path="url(#clip992)" style="stroke:#000000; stroke-linecap:butt; stroke-linejoin:round; stroke-width:2; stroke-opacity:0.1; fill:none" points="
  112.177,223.75 2352.76,223.75 
  "/>
<polyline clip-path="url(#clip990)" style="stroke:#000000; stroke-linecap:butt; stroke-linejoin:round; stroke-width:4; stroke-opacity:1; fill:none" points="
  112.177,1486.45 112.177,47.2441 
  "/>
<polyline clip-path="url(#clip990)" style="stroke:#000000; stroke-linecap:butt; stroke-linejoin:round; stroke-width:4; stroke-opacity:1; fill:none" points="
  112.177,1309.94 139.064,1309.94 
  "/>
<polyline clip-path="url(#clip990)" style="stroke:#000000; stroke-linecap:butt; stroke-linejoin:round; stroke-width:4; stroke-opacity:1; fill:none" points="
  112.177,1038.39 139.064,1038.39 
  "/>
<polyline clip-path="url(#clip990)" style="stroke:#000000; stroke-linecap:butt; stroke-linejoin:round; stroke-width:4; stroke-opacity:1; fill:none" points="
  112.177,766.846 139.064,766.846 
  "/>
<polyline clip-path="url(#clip990)" style="stroke:#000000; stroke-linecap:butt; stroke-linejoin:round; stroke-width:4; stroke-opacity:1; fill:none" points="
  112.177,495.298 139.064,495.298 
  "/>
<polyline clip-path="url(#clip990)" style="stroke:#000000; stroke-linecap:butt; stroke-linejoin:round; stroke-width:4; stroke-opacity:1; fill:none" points="
  112.177,223.75 139.064,223.75 
  "/>
<path clip-path="url(#clip990)" d="M64.2328 1295.74 Q60.6217 1295.74 58.793 1299.31 Q56.9875 1302.85 56.9875 1309.98 Q56.9875 1317.08 58.793 1320.65 Q60.6217 1324.19 64.2328 1324.19 Q67.867 1324.19 69.6726 1320.65 Q71.5013 1317.08 71.5013 1309.98 Q71.5013 1302.85 69.6726 1299.31 Q67.867 1295.74 64.2328 1295.74 M64.2328 1292.04 Q70.0429 1292.04 73.0985 1296.64 Q76.1772 1301.23 76.1772 1309.98 Q76.1772 1318.7 73.0985 1323.31 Q70.0429 1327.89 64.2328 1327.89 Q58.4226 1327.89 55.344 1323.31 Q52.2884 1318.7 52.2884 1309.98 Q52.2884 1301.23 55.344 1296.64 Q58.4226 1292.04 64.2328 1292.04 Z" fill="#000000" fill-rule="evenodd" fill-opacity="1" /><path clip-path="url(#clip990)" d="M59.8578 1051.74 L76.1772 1051.74 L76.1772 1055.67 L54.2328 1055.67 L54.2328 1051.74 Q56.8949 1048.98 61.4782 1044.35 Q66.0846 1039.7 67.2652 1038.36 Q69.5105 1035.84 70.3902 1034.1 Q71.2929 1032.34 71.2929 1030.65 Q71.2929 1027.9 69.3485 1026.16 Q67.4272 1024.42 64.3254 1024.42 Q62.1263 1024.42 59.6726 1025.19 Q57.2421 1025.95 54.4643 1027.5 L54.4643 1022.78 Q57.2884 1021.65 59.7421 1021.07 Q62.1958 1020.49 64.2328 1020.49 Q69.6031 1020.49 72.7976 1023.17 Q75.992 1025.86 75.992 1030.35 Q75.992 1032.48 75.1818 1034.4 Q74.3948 1036.3 72.2883 1038.89 Q71.7096 1039.56 68.6078 1042.78 Q65.5059 1045.97 59.8578 1051.74 Z" fill="#000000" fill-rule="evenodd" fill-opacity="1" /><path clip-path="url(#clip990)" d="M66.5939 753.64 L54.7884 772.089 L66.5939 772.089 L66.5939 753.64 M65.367 749.566 L71.2466 749.566 L71.2466 772.089 L76.1772 772.089 L76.1772 775.978 L71.2466 775.978 L71.2466 784.126 L66.5939 784.126 L66.5939 775.978 L50.9921 775.978 L50.9921 771.464 L65.367 749.566 Z" fill="#000000" fill-rule="evenodd" fill-opacity="1" /><path clip-path="url(#clip990)" d="M64.6495 493.435 Q61.5013 493.435 59.6495 495.587 Q57.8208 497.74 57.8208 501.49 Q57.8208 505.217 59.6495 507.393 Q61.5013 509.546 64.6495 509.546 Q67.7976 509.546 69.6263 507.393 Q71.4781 505.217 71.4781 501.49 Q71.4781 497.74 69.6263 495.587 Q67.7976 493.435 64.6495 493.435 M73.9318 478.782 L73.9318 483.041 Q72.1726 482.208 70.367 481.768 Q68.5846 481.328 66.8254 481.328 Q62.1958 481.328 59.7421 484.453 Q57.3115 487.578 56.9643 493.898 Q58.33 491.884 60.3902 490.819 Q62.4504 489.731 64.9272 489.731 Q70.1355 489.731 73.1448 492.902 Q76.1772 496.05 76.1772 501.49 Q76.1772 506.814 73.029 510.032 Q69.8809 513.249 64.6495 513.249 Q58.6541 513.249 55.4828 508.666 Q52.3116 504.06 52.3116 495.333 Q52.3116 487.138 56.2004 482.277 Q60.0893 477.393 66.6402 477.393 Q68.3994 477.393 70.1818 477.74 Q71.9874 478.088 73.9318 478.782 Z" fill="#000000" fill-rule="evenodd" fill-opacity="1" /><path clip-path="url(#clip990)" d="M64.3254 224.618 Q60.9921 224.618 59.0708 226.401 Q57.1726 228.183 57.1726 231.308 Q57.1726 234.433 59.0708 236.215 Q60.9921 237.998 64.3254 237.998 Q67.6587 237.998 69.58 236.215 Q71.5013 234.41 71.5013 231.308 Q71.5013 228.183 69.58 226.401 Q67.6819 224.618 64.3254 224.618 M59.6495 222.628 Q56.6402 221.887 54.9504 219.827 Q53.2838 217.766 53.2838 214.804 Q53.2838 210.66 56.2236 208.253 Q59.1865 205.845 64.3254 205.845 Q69.4874 205.845 72.4272 208.253 Q75.367 210.66 75.367 214.804 Q75.367 217.766 73.6772 219.827 Q72.0105 221.887 69.0244 222.628 Q72.404 223.415 74.279 225.706 Q76.1772 227.998 76.1772 231.308 Q76.1772 236.331 73.0985 239.016 Q70.0429 241.702 64.3254 241.702 Q58.6078 241.702 55.5291 239.016 Q52.4736 236.331 52.4736 231.308 Q52.4736 227.998 54.3717 225.706 Q56.2699 223.415 59.6495 222.628 M57.9365 215.243 Q57.9365 217.928 59.6032 219.433 Q61.293 220.938 64.3254 220.938 Q67.3346 220.938 69.0244 219.433 Q70.7374 217.928 70.7374 215.243 Q70.7374 212.558 69.0244 211.054 Q67.3346 209.549 64.3254 209.549 Q61.293 209.549 59.6032 211.054 Q57.9365 212.558 57.9365 215.243 Z" fill="#000000" fill-rule="evenodd" fill-opacity="1" /><polyline clip-path="url(#clip992)" style="stroke:#009af9; stroke-linecap:butt; stroke-linejoin:round; stroke-width:4; stroke-opacity:1; fill:none" points="
  175.59,1445.72 196.941,1432 218.292,1418.29 239.643,1404.57 260.994,1390.86 282.345,1377.14 303.696,1363.43 325.047,1349.71 346.398,1336 367.749,1322.28 
  389.1,1308.57 410.451,1294.86 431.802,1281.14 453.153,1267.43 474.504,1253.71 495.855,1240 517.207,1226.28 538.558,1212.57 559.909,1198.85 581.26,1185.14 
  602.611,1171.42 623.962,1157.71 645.313,1144 666.664,1130.28 688.015,1116.57 709.366,1102.85 730.717,1089.14 752.068,1075.42 773.419,1061.71 794.77,1047.99 
  816.121,1034.28 837.472,1020.56 858.823,1006.85 880.174,993.136 901.525,979.421 922.876,965.707 944.227,951.992 965.578,938.278 986.93,924.563 1008.28,910.849 
  1029.63,897.134 1050.98,883.42 1072.33,869.705 1093.68,855.99 1115.04,842.276 1136.39,828.561 1157.74,814.847 1179.09,801.132 1200.44,787.418 1221.79,773.703 
  1243.14,759.989 1264.49,746.274 1285.84,732.56 1307.2,718.845 1328.55,705.131 1349.9,691.416 1371.25,677.701 1392.6,663.987 1413.95,650.272 1435.3,636.558 
  1456.65,622.843 1478,609.129 1499.35,595.414 1520.71,581.7 1542.06,567.985 1563.41,554.271 1584.76,540.556 1606.11,526.842 1627.46,513.127 1648.81,499.412 
  1670.16,485.698 1691.51,471.983 1712.87,458.269 1734.22,444.554 1755.57,430.84 1776.92,417.125 1798.27,403.411 1819.62,389.696 1840.97,375.982 1862.32,362.267 
  1883.67,348.553 1905.02,334.838 1926.38,321.123 1947.73,307.409 1969.08,293.694 1990.43,279.98 2011.78,266.265 2033.13,252.551 2054.48,238.836 2075.83,225.122 
  2097.18,211.407 2118.53,197.693 2139.89,183.978 2161.24,170.264 2182.59,156.549 2203.94,142.834 2225.29,129.12 2246.64,115.405 2267.99,101.691 2289.34,87.9763 
  
  "/>
<path clip-path="url(#clip990)" d="
M1976.69 216.178 L2278.07 216.178 L2278.07 95.2176 L1976.69 95.2176  Z
  " fill="#ffffff" fill-rule="evenodd" fill-opacity="1"/>
<polyline clip-path="url(#clip990)" style="stroke:#000000; stroke-linecap:butt; stroke-linejoin:round; stroke-width:4; stroke-opacity:1; fill:none" points="
  1976.69,216.178 2278.07,216.178 2278.07,95.2176 1976.69,95.2176 1976.69,216.178 
  "/>
<polyline clip-path="url(#clip990)" style="stroke:#009af9; stroke-linecap:butt; stroke-linejoin:round; stroke-width:4; stroke-opacity:1; fill:none" points="
  2001.58,155.698 2150.95,155.698 
  "/>
<path clip-path="url(#clip990)" d="M2189.69 175.385 Q2187.89 180.015 2186.17 181.427 Q2184.46 182.839 2181.59 182.839 L2178.19 182.839 L2178.19 179.274 L2180.69 179.274 Q2182.45 179.274 2183.42 178.44 Q2184.39 177.607 2185.57 174.505 L2186.34 172.561 L2175.85 147.052 L2180.36 147.052 L2188.46 167.329 L2196.57 147.052 L2201.08 147.052 L2189.69 175.385 Z" fill="#000000" fill-rule="evenodd" fill-opacity="1" /><path clip-path="url(#clip990)" d="M2208.37 169.042 L2216.01 169.042 L2216.01 142.677 L2207.7 144.343 L2207.7 140.084 L2215.96 138.418 L2220.64 138.418 L2220.64 169.042 L2228.28 169.042 L2228.28 172.978 L2208.37 172.978 L2208.37 169.042 Z" fill="#000000" fill-rule="evenodd" fill-opacity="1" /></svg>
