<?xml version="1.0" encoding="utf-8"?>
<svg xmlns="http://www.w3.org/2000/svg" xmlns:xlink="http://www.w3.org/1999/xlink" width="600" height="400" viewBox="0 0 2400 1600">
<defs>
  <clipPath id="clip530">
    <rect x="0" y="0" width="2400" height="1600"/>
  </clipPath>
</defs>
<path clip-path="url(#clip530)" d="
M0 1600 L2400 1600 L2400 0 L0 0  Z
  " fill="#ffffff" fill-rule="evenodd" fill-opacity="1"/>
<defs>
  <clipPath id="clip531">
    <rect x="480" y="0" width="1681" height="1600"/>
  </clipPath>
</defs>
<path clip-path="url(#clip530)" d="
M141.853 1486.45 L2352.76 1486.45 L2352.76 123.472 L141.853 123.472  Z
  " fill="#ffffff" fill-rule="evenodd" fill-opacity="1"/>
<defs>
  <clipPath id="clip532">
    <rect x="141" y="123" width="2212" height="1364"/>
  </clipPath>
</defs>
<polyline clip-path="url(#clip532)" style="stroke:#000000; stroke-linecap:butt; stroke-linejoin:round; stroke-width:2; stroke-opacity:0.1; fill:none" points="
  204.426,1486.45 204.426,123.472 
  "/>
<polyline clip-path="url(#clip532)" style="stroke:#000000; stroke-linecap:butt; stroke-linejoin:round; stroke-width:2; stroke-opacity:0.1; fill:none" points="
  722.93,1486.45 722.93,123.472 
  "/>
<polyline clip-path="url(#clip532)" style="stroke:#000000; stroke-linecap:butt; stroke-linejoin:round; stroke-width:2; stroke-opacity:0.1; fill:none" points="
  1241.43,1486.45 1241.43,123.472 
  "/>
<polyline clip-path="url(#clip532)" style="stroke:#000000; stroke-linecap:butt; stroke-linejoin:round; stroke-width:2; stroke-opacity:0.1; fill:none" points="
  1759.94,1486.45 1759.94,123.472 
  "/>
<polyline clip-path="url(#clip532)" style="stroke:#000000; stroke-linecap:butt; stroke-linejoin:round; stroke-width:2; stroke-opacity:0.1; fill:none" points="
  2278.44,1486.45 2278.44,123.472 
  "/>
<polyline clip-path="url(#clip530)" style="stroke:#000000; stroke-linecap:butt; stroke-linejoin:round; stroke-width:4; stroke-opacity:1; fill:none" points="
  141.853,1486.45 2352.76,1486.45 
  "/>
<polyline clip-path="url(#clip530)" style="stroke:#000000; stroke-linecap:butt; stroke-linejoin:round; stroke-width:4; stroke-opacity:1; fill:none" points="
  204.426,1486.45 204.426,1470.09 
  "/>
<polyline clip-path="url(#clip530)" style="stroke:#000000; stroke-linecap:butt; stroke-linejoin:round; stroke-width:4; stroke-opacity:1; fill:none" points="
  722.93,1486.45 722.93,1470.09 
  "/>
<polyline clip-path="url(#clip530)" style="stroke:#000000; stroke-linecap:butt; stroke-linejoin:round; stroke-width:4; stroke-opacity:1; fill:none" points="
  1241.43,1486.45 1241.43,1470.09 
  "/>
<polyline clip-path="url(#clip530)" style="stroke:#000000; stroke-linecap:butt; stroke-linejoin:round; stroke-width:4; stroke-opacity:1; fill:none" points="
  1759.94,1486.45 1759.94,1470.09 
  "/>
<polyline clip-path="url(#clip530)" style="stroke:#000000; stroke-linecap:butt; stroke-linejoin:round; stroke-width:4; stroke-opacity:1; fill:none" points="
  2278.44,1486.45 2278.44,1470.09 
  "/>
<path clip-path="url(#clip530)" d="M204.426 1515.64 Q200.815 1515.64 198.986 1519.2 Q197.18 1522.75 197.18 1529.87 Q197.18 1536.98 198.986 1540.55 Q200.815 1544.09 204.426 1544.09 Q208.06 1544.09 209.865 1540.55 Q211.694 1536.98 211.694 1529.87 Q211.694 1522.75 209.865 1519.2 Q208.06 1515.64 204.426 1515.64 M204.426 1511.93 Q210.236 1511.93 213.291 1516.54 Q216.37 1521.12 216.37 1529.87 Q216.37 1538.6 213.291 1543.21 Q210.236 1547.79 204.426 1547.79 Q198.616 1547.79 195.537 1543.21 Q192.481 1538.6 192.481 1529.87 Q192.481 1521.12 195.537 1516.54 Q198.616 1511.93 204.426 1511.93 Z" fill="#000000" fill-rule="evenodd" fill-opacity="1" /><path clip-path="url(#clip530)" d="M702.201 1543.18 L718.52 1543.18 L718.52 1547.12 L696.576 1547.12 L696.576 1543.18 Q699.238 1540.43 703.821 1535.8 Q708.428 1531.15 709.608 1529.81 Q711.853 1527.28 712.733 1525.55 Q713.636 1523.79 713.636 1522.1 Q713.636 1519.34 711.691 1517.61 Q709.77 1515.87 706.668 1515.87 Q704.469 1515.87 702.016 1516.63 Q699.585 1517.4 696.807 1518.95 L696.807 1514.23 Q699.631 1513.09 702.085 1512.51 Q704.539 1511.93 706.576 1511.93 Q711.946 1511.93 715.14 1514.62 Q718.335 1517.31 718.335 1521.8 Q718.335 1523.93 717.525 1525.85 Q716.738 1527.74 714.631 1530.34 Q714.052 1531.01 710.951 1534.23 Q707.849 1537.42 702.201 1543.18 Z" fill="#000000" fill-rule="evenodd" fill-opacity="1" /><path clip-path="url(#clip530)" d="M728.381 1512.56 L746.737 1512.56 L746.737 1516.5 L732.663 1516.5 L732.663 1524.97 Q733.682 1524.62 734.701 1524.46 Q735.719 1524.27 736.738 1524.27 Q742.525 1524.27 745.904 1527.44 Q749.284 1530.62 749.284 1536.03 Q749.284 1541.61 745.812 1544.71 Q742.339 1547.79 736.02 1547.79 Q733.844 1547.79 731.576 1547.42 Q729.33 1547.05 726.923 1546.31 L726.923 1541.61 Q729.006 1542.74 731.228 1543.3 Q733.451 1543.86 735.927 1543.86 Q739.932 1543.86 742.27 1541.75 Q744.608 1539.64 744.608 1536.03 Q744.608 1532.42 742.27 1530.31 Q739.932 1528.21 735.927 1528.21 Q734.052 1528.21 732.177 1528.62 Q730.326 1529.04 728.381 1529.92 L728.381 1512.56 Z" fill="#000000" fill-rule="evenodd" fill-opacity="1" /><path clip-path="url(#clip530)" d="M1216.13 1512.56 L1234.49 1512.56 L1234.49 1516.5 L1220.42 1516.5 L1220.42 1524.97 Q1221.43 1524.62 1222.45 1524.46 Q1223.47 1524.27 1224.49 1524.27 Q1230.28 1524.27 1233.66 1527.44 Q1237.04 1530.62 1237.04 1536.03 Q1237.04 1541.61 1233.56 1544.71 Q1230.09 1547.79 1223.77 1547.79 Q1221.6 1547.79 1219.33 1547.42 Q1217.08 1547.05 1214.67 1546.31 L1214.67 1541.61 Q1216.76 1542.74 1218.98 1543.3 Q1221.2 1543.86 1223.68 1543.86 Q1227.68 1543.86 1230.02 1541.75 Q1232.36 1539.64 1232.36 1536.03 Q1232.36 1532.42 1230.02 1530.31 Q1227.68 1528.21 1223.68 1528.21 Q1221.8 1528.21 1219.93 1528.62 Q1218.08 1529.04 1216.13 1529.92 L1216.13 1512.56 Z" fill="#000000" fill-rule="evenodd" fill-opacity="1" /><path clip-path="url(#clip530)" d="M1256.25 1515.64 Q1252.64 1515.64 1250.81 1519.2 Q1249 1522.75 1249 1529.87 Q1249 1536.98 1250.81 1540.55 Q1252.64 1544.09 1256.25 1544.09 Q1259.88 1544.09 1261.69 1540.55 Q1263.52 1536.98 1263.52 1529.87 Q1263.52 1522.75 1261.69 1519.2 Q1259.88 1515.64 1256.25 1515.64 M1256.25 1511.93 Q1262.06 1511.93 1265.11 1516.54 Q1268.19 1521.12 1268.19 1529.87 Q1268.19 1538.6 1265.11 1543.21 Q1262.06 1547.79 1256.25 1547.79 Q1250.44 1547.79 1247.36 1543.21 Q1244.3 1538.6 1244.3 1529.87 Q1244.3 1521.12 1247.36 1516.54 Q1250.44 1511.93 1256.25 1511.93 Z" fill="#000000" fill-rule="evenodd" fill-opacity="1" /><path clip-path="url(#clip530)" d="M1733.79 1512.56 L1756.01 1512.56 L1756.01 1514.55 L1743.47 1547.12 L1738.58 1547.12 L1750.39 1516.5 L1733.79 1516.5 L1733.79 1512.56 Z" fill="#000000" fill-rule="evenodd" fill-opacity="1" /><path clip-path="url(#clip530)" d="M1765.18 1512.56 L1783.54 1512.56 L1783.54 1516.5 L1769.46 1516.5 L1769.46 1524.97 Q1770.48 1524.62 1771.5 1524.46 Q1772.52 1524.27 1773.54 1524.27 Q1779.32 1524.27 1782.7 1527.44 Q1786.08 1530.62 1786.08 1536.03 Q1786.08 1541.61 1782.61 1544.71 Q1779.14 1547.79 1772.82 1547.79 Q1770.64 1547.79 1768.38 1547.42 Q1766.13 1547.05 1763.72 1546.31 L1763.72 1541.61 Q1765.81 1542.74 1768.03 1543.3 Q1770.25 1543.86 1772.73 1543.86 Q1776.73 1543.86 1779.07 1541.75 Q1781.41 1539.64 1781.41 1536.03 Q1781.41 1532.42 1779.07 1530.31 Q1776.73 1528.21 1772.73 1528.21 Q1770.85 1528.21 1768.98 1528.62 Q1767.13 1529.04 1765.18 1529.92 L1765.18 1512.56 Z" fill="#000000" fill-rule="evenodd" fill-opacity="1" /><path clip-path="url(#clip530)" d="M2238.05 1543.18 L2245.69 1543.18 L2245.69 1516.82 L2237.38 1518.49 L2237.38 1514.23 L2245.64 1512.56 L2250.32 1512.56 L2250.32 1543.18 L2257.96 1543.18 L2257.96 1547.12 L2238.05 1547.12 L2238.05 1543.18 Z" fill="#000000" fill-rule="evenodd" fill-opacity="1" /><path clip-path="url(#clip530)" d="M2277.4 1515.64 Q2273.79 1515.64 2271.96 1519.2 Q2270.16 1522.75 2270.16 1529.87 Q2270.16 1536.98 2271.96 1540.55 Q2273.79 1544.09 2277.4 1544.09 Q2281.03 1544.09 2282.84 1540.55 Q2284.67 1536.98 2284.67 1529.87 Q2284.67 1522.75 2282.84 1519.2 Q2281.03 1515.64 2277.4 1515.64 M2277.4 1511.93 Q2283.21 1511.93 2286.27 1516.54 Q2289.34 1521.12 2289.34 1529.87 Q2289.34 1538.6 2286.27 1543.21 Q2283.21 1547.79 2277.4 1547.79 Q2271.59 1547.79 2268.51 1543.21 Q2265.46 1538.6 2265.46 1529.87 Q2265.46 1521.12 2268.51 1516.54 Q2271.59 1511.93 2277.4 1511.93 Z" fill="#000000" fill-rule="evenodd" fill-opacity="1" /><path clip-path="url(#clip530)" d="M2307.56 1515.64 Q2303.95 1515.64 2302.12 1519.2 Q2300.32 1522.75 2300.32 1529.87 Q2300.32 1536.98 2302.12 1540.55 Q2303.95 1544.09 2307.56 1544.09 Q2311.2 1544.09 2313 1540.55 Q2314.83 1536.98 2314.83 1529.87 Q2314.83 1522.75 2313 1519.2 Q2311.2 1515.64 2307.56 1515.64 M2307.56 1511.93 Q2313.37 1511.93 2316.43 1516.54 Q2319.51 1521.12 2319.51 1529.87 Q2319.51 1538.6 2316.43 1543.21 Q2313.37 1547.79 2307.56 1547.79 Q2301.75 1547.79 2298.67 1543.21 Q2295.62 1538.6 2295.62 1529.87 Q2295.62 1521.12 2298.67 1516.54 Q2301.75 1511.93 2307.56 1511.93 Z" fill="#000000" fill-rule="evenodd" fill-opacity="1" /><polyline clip-path="url(#clip532)" style="stroke:#000000; stroke-linecap:butt; stroke-linejoin:round; stroke-width:2; stroke-opacity:0.1; fill:none" points="
  141.853,1447.87 2352.76,1447.87 
  "/>
<polyline clip-path="url(#clip532)" style="stroke:#000000; stroke-linecap:butt; stroke-linejoin:round; stroke-width:2; stroke-opacity:0.1; fill:none" points="
  141.853,1109.74 2352.76,1109.74 
  "/>
<polyline clip-path="url(#clip532)" style="stroke:#000000; stroke-linecap:butt; stroke-linejoin:round; stroke-width:2; stroke-opacity:0.1; fill:none" points="
  141.853,771.606 2352.76,771.606 
  "/>
<polyline clip-path="url(#clip532)" style="stroke:#000000; stroke-linecap:butt; stroke-linejoin:round; stroke-width:2; stroke-opacity:0.1; fill:none" points="
  141.853,433.472 2352.76,433.472 
  "/>
<polyline clip-path="url(#clip530)" style="stroke:#000000; stroke-linecap:butt; stroke-linejoin:round; stroke-width:4; stroke-opacity:1; fill:none" points="
  141.853,1486.45 141.853,123.472 
  "/>
<polyline clip-path="url(#clip530)" style="stroke:#000000; stroke-linecap:butt; stroke-linejoin:round; stroke-width:4; stroke-opacity:1; fill:none" points="
  141.853,1447.87 168.384,1447.87 
  "/>
<polyline clip-path="url(#clip530)" style="stroke:#000000; stroke-linecap:butt; stroke-linejoin:round; stroke-width:4; stroke-opacity:1; fill:none" points="
  141.853,1109.74 168.384,1109.74 
  "/>
<polyline clip-path="url(#clip530)" style="stroke:#000000; stroke-linecap:butt; stroke-linejoin:round; stroke-width:4; stroke-opacity:1; fill:none" points="
  141.853,771.606 168.384,771.606 
  "/>
<polyline clip-path="url(#clip530)" style="stroke:#000000; stroke-linecap:butt; stroke-linejoin:round; stroke-width:4; stroke-opacity:1; fill:none" points="
  141.853,433.472 168.384,433.472 
  "/>
<path clip-path="url(#clip530)" d="M93.9086 1433.67 Q90.2975 1433.67 88.4688 1437.24 Q86.6632 1440.78 86.6632 1447.91 Q86.6632 1455.01 88.4688 1458.58 Q90.2975 1462.12 93.9086 1462.12 Q97.5428 1462.12 99.3483 1458.58 Q101.177 1455.01 101.177 1447.91 Q101.177 1440.78 99.3483 1437.24 Q97.5428 1433.67 93.9086 1433.67 M93.9086 1429.97 Q99.7187 1429.97 102.774 1434.57 Q105.853 1439.16 105.853 1447.91 Q105.853 1456.63 102.774 1461.24 Q99.7187 1465.82 93.9086 1465.82 Q88.0984 1465.82 85.0197 1461.24 Q81.9642 1456.63 81.9642 1447.91 Q81.9642 1439.16 85.0197 1434.57 Q88.0984 1429.97 93.9086 1429.97 Z" fill="#000000" fill-rule="evenodd" fill-opacity="1" /><path clip-path="url(#clip530)" d="M57.7745 1123.08 L74.0939 1123.08 L74.0939 1127.02 L52.1495 1127.02 L52.1495 1123.08 Q54.8115 1120.33 59.3949 1115.7 Q64.0013 1111.05 65.1819 1109.7 Q67.4272 1107.18 68.3068 1105.45 Q69.2096 1103.69 69.2096 1102 Q69.2096 1099.24 67.2652 1097.51 Q65.3439 1095.77 62.2421 1095.77 Q60.043 1095.77 57.5893 1096.53 Q55.1588 1097.3 52.381 1098.85 L52.381 1094.13 Q55.2051 1092.99 57.6588 1092.41 Q60.1124 1091.83 62.1495 1091.83 Q67.5198 1091.83 70.7142 1094.52 Q73.9087 1097.2 73.9087 1101.7 Q73.9087 1103.82 73.0985 1105.75 Q72.3115 1107.64 70.205 1110.24 Q69.6263 1110.91 66.5245 1114.13 Q63.4226 1117.32 57.7745 1123.08 Z" fill="#000000" fill-rule="evenodd" fill-opacity="1" /><path clip-path="url(#clip530)" d="M93.9086 1095.54 Q90.2975 1095.54 88.4688 1099.1 Q86.6632 1102.64 86.6632 1109.77 Q86.6632 1116.88 88.4688 1120.45 Q90.2975 1123.99 93.9086 1123.99 Q97.5428 1123.99 99.3483 1120.45 Q101.177 1116.88 101.177 1109.77 Q101.177 1102.64 99.3483 1099.1 Q97.5428 1095.54 93.9086 1095.54 M93.9086 1091.83 Q99.7187 1091.83 102.774 1096.44 Q105.853 1101.02 105.853 1109.77 Q105.853 1118.5 102.774 1123.11 Q99.7187 1127.69 93.9086 1127.69 Q88.0984 1127.69 85.0197 1123.11 Q81.9642 1118.5 81.9642 1109.77 Q81.9642 1101.02 85.0197 1096.44 Q88.0984 1091.83 93.9086 1091.83 Z" fill="#000000" fill-rule="evenodd" fill-opacity="1" /><path clip-path="url(#clip530)" d="M66.5939 758.4 L54.7884 776.849 L66.5939 776.849 L66.5939 758.4 M65.367 754.326 L71.2466 754.326 L71.2466 776.849 L76.1772 776.849 L76.1772 780.737 L71.2466 780.737 L71.2466 788.886 L66.5939 788.886 L66.5939 780.737 L50.9921 780.737 L50.9921 776.224 L65.367 754.326 Z" fill="#000000" fill-rule="evenodd" fill-opacity="1" /><path clip-path="url(#clip530)" d="M93.9086 757.404 Q90.2975 757.404 88.4688 760.969 Q86.6632 764.511 86.6632 771.64 Q86.6632 778.747 88.4688 782.312 Q90.2975 785.853 93.9086 785.853 Q97.5428 785.853 99.3483 782.312 Q101.177 778.747 101.177 771.64 Q101.177 764.511 99.3483 760.969 Q97.5428 757.404 93.9086 757.404 M93.9086 753.701 Q99.7187 753.701 102.774 758.307 Q105.853 762.89 105.853 771.64 Q105.853 780.367 102.774 784.974 Q99.7187 789.557 93.9086 789.557 Q88.0984 789.557 85.0197 784.974 Q81.9642 780.367 81.9642 771.64 Q81.9642 762.89 85.0197 758.307 Q88.0984 753.701 93.9086 753.701 Z" fill="#000000" fill-rule="evenodd" fill-opacity="1" /><path clip-path="url(#clip530)" d="M64.3254 431.608 Q61.1773 431.608 59.3254 433.761 Q57.4967 435.914 57.4967 439.664 Q57.4967 443.391 59.3254 445.567 Q61.1773 447.719 64.3254 447.719 Q67.4735 447.719 69.3022 445.567 Q71.1541 443.391 71.1541 439.664 Q71.1541 435.914 69.3022 433.761 Q67.4735 431.608 64.3254 431.608 M73.6077 416.956 L73.6077 421.215 Q71.8485 420.382 70.0429 419.942 Q68.2606 419.502 66.5013 419.502 Q61.8717 419.502 59.418 422.627 Q56.9875 425.752 56.6402 432.071 Q58.006 430.057 60.0662 428.993 Q62.1263 427.905 64.6032 427.905 Q69.8115 427.905 72.8207 431.076 Q75.8531 434.224 75.8531 439.664 Q75.8531 444.988 72.705 448.205 Q69.5568 451.423 64.3254 451.423 Q58.33 451.423 55.1588 446.84 Q51.9875 442.233 51.9875 433.506 Q51.9875 425.312 55.8764 420.451 Q59.7652 415.567 66.3161 415.567 Q68.0754 415.567 69.8578 415.914 Q71.6633 416.261 73.6077 416.956 Z" fill="#000000" fill-rule="evenodd" fill-opacity="1" /><path clip-path="url(#clip530)" d="M93.9086 419.27 Q90.2975 419.27 88.4688 422.835 Q86.6632 426.377 86.6632 433.506 Q86.6632 440.613 88.4688 444.178 Q90.2975 447.719 93.9086 447.719 Q97.5428 447.719 99.3483 444.178 Q101.177 440.613 101.177 433.506 Q101.177 426.377 99.3483 422.835 Q97.5428 419.27 93.9086 419.27 M93.9086 415.567 Q99.7187 415.567 102.774 420.173 Q105.853 424.757 105.853 433.506 Q105.853 442.233 102.774 446.84 Q99.7187 451.423 93.9086 451.423 Q88.0984 451.423 85.0197 446.84 Q81.9642 442.233 81.9642 433.506 Q81.9642 424.757 85.0197 420.173 Q88.0984 415.567 93.9086 415.567 Z" fill="#000000" fill-rule="evenodd" fill-opacity="1" /><path clip-path="url(#clip530)" d="M958.414 12.096 L993.171 12.096 L993.171 18.9825 L966.597 18.9825 L966.597 36.8065 L990.578 36.8065 L990.578 43.6931 L966.597 43.6931 L966.597 72.576 L958.414 72.576 L958.414 12.096 Z" fill="#000000" fill-rule="evenodd" fill-opacity="1" /><path clip-path="url(#clip530)" d="M999.774 27.2059 L1007.23 27.2059 L1007.23 72.576 L999.774 72.576 L999.774 27.2059 M999.774 9.54393 L1007.23 9.54393 L1007.23 18.9825 L999.774 18.9825 L999.774 9.54393 Z" fill="#000000" fill-rule="evenodd" fill-opacity="1" /><path clip-path="url(#clip530)" d="M1060.54 45.1919 L1060.54 72.576 L1053.08 72.576 L1053.08 45.4349 Q1053.08 38.994 1050.57 35.7938 Q1048.06 32.5936 1043.04 32.5936 Q1037 32.5936 1033.52 36.4419 Q1030.03 40.2903 1030.03 46.9338 L1030.03 72.576 L1022.54 72.576 L1022.54 27.2059 L1030.03 27.2059 L1030.03 34.2544 Q1032.71 30.163 1036.31 28.1376 Q1039.96 26.1121 1044.7 26.1121 Q1052.52 26.1121 1056.53 30.9732 Q1060.54 35.7938 1060.54 45.1919 Z" fill="#000000" fill-rule="evenodd" fill-opacity="1" /><path clip-path="url(#clip530)" d="M1096.02 49.7694 Q1086.99 49.7694 1083.51 51.8354 Q1080.02 53.9013 1080.02 58.8839 Q1080.02 62.8538 1082.61 65.2034 Q1085.25 67.5124 1089.74 67.5124 Q1095.94 67.5124 1099.67 63.1374 Q1103.44 58.7219 1103.44 51.4303 L1103.44 49.7694 L1096.02 49.7694 M1110.89 46.6907 L1110.89 72.576 L1103.44 72.576 L1103.44 65.6895 Q1100.88 69.8214 1097.08 71.8063 Q1093.27 73.7508 1087.76 73.7508 Q1080.79 73.7508 1076.66 69.8619 Q1072.57 65.9325 1072.57 59.3701 Q1072.57 51.7138 1077.67 47.825 Q1082.82 43.9361 1092.99 43.9361 L1103.44 43.9361 L1103.44 43.2069 Q1103.44 38.0623 1100.03 35.2672 Q1096.67 32.4315 1090.55 32.4315 Q1086.67 32.4315 1082.98 33.3632 Q1079.29 34.295 1075.89 36.1584 L1075.89 29.2718 Q1079.98 27.692 1083.83 26.9223 Q1087.68 26.1121 1091.32 26.1121 Q1101.17 26.1121 1106.03 31.2163 Q1110.89 36.3204 1110.89 46.6907 Z" fill="#000000" fill-rule="evenodd" fill-opacity="1" /><path clip-path="url(#clip530)" d="M1126.24 9.54393 L1133.7 9.54393 L1133.7 72.576 L1126.24 72.576 L1126.24 9.54393 Z" fill="#000000" fill-rule="evenodd" fill-opacity="1" /><path clip-path="url(#clip530)" d="M1175.66 9.54393 L1183.12 9.54393 L1183.12 72.576 L1175.66 72.576 L1175.66 9.54393 Z" fill="#000000" fill-rule="evenodd" fill-opacity="1" /><path clip-path="url(#clip530)" d="M1216.29 32.4315 Q1210.3 32.4315 1206.82 37.1306 Q1203.33 41.7891 1203.33 49.9314 Q1203.33 58.0738 1206.78 62.7728 Q1210.26 67.4314 1216.29 67.4314 Q1222.25 67.4314 1225.73 62.7323 Q1229.22 58.0333 1229.22 49.9314 Q1229.22 41.8701 1225.73 37.1711 Q1222.25 32.4315 1216.29 32.4315 M1216.29 26.1121 Q1226.02 26.1121 1231.57 32.4315 Q1237.12 38.7509 1237.12 49.9314 Q1237.12 61.0714 1231.57 67.4314 Q1226.02 73.7508 1216.29 73.7508 Q1206.53 73.7508 1200.98 67.4314 Q1195.47 61.0714 1195.47 49.9314 Q1195.47 38.7509 1200.98 32.4315 Q1206.53 26.1121 1216.29 26.1121 Z" fill="#000000" fill-rule="evenodd" fill-opacity="1" /><path clip-path="url(#clip530)" d="M1282.12 28.9478 L1282.12 35.9153 Q1278.96 34.1734 1275.76 33.3227 Q1272.6 32.4315 1269.36 32.4315 Q1262.11 32.4315 1258.1 37.0496 Q1254.09 41.6271 1254.09 49.9314 Q1254.09 58.2358 1258.1 62.8538 Q1262.11 67.4314 1269.36 67.4314 Q1272.6 67.4314 1275.76 66.5807 Q1278.96 65.6895 1282.12 63.9476 L1282.12 70.8341 Q1279 72.2924 1275.64 73.0216 Q1272.32 73.7508 1268.55 73.7508 Q1258.3 73.7508 1252.27 67.3098 Q1246.23 60.8689 1246.23 49.9314 Q1246.23 38.832 1252.31 32.472 Q1258.42 26.1121 1269.04 26.1121 Q1272.48 26.1121 1275.76 26.8413 Q1279.04 27.5299 1282.12 28.9478 Z" fill="#000000" fill-rule="evenodd" fill-opacity="1" /><path clip-path="url(#clip530)" d="M1315.7 49.7694 Q1306.67 49.7694 1303.19 51.8354 Q1299.7 53.9013 1299.7 58.8839 Q1299.7 62.8538 1302.3 65.2034 Q1304.93 67.5124 1309.43 67.5124 Q1315.62 67.5124 1319.35 63.1374 Q1323.12 58.7219 1323.12 51.4303 L1323.12 49.7694 L1315.7 49.7694 M1330.57 46.6907 L1330.57 72.576 L1323.12 72.576 L1323.12 65.6895 Q1320.57 69.8214 1316.76 71.8063 Q1312.95 73.7508 1307.44 73.7508 Q1300.47 73.7508 1296.34 69.8619 Q1292.25 65.9325 1292.25 59.3701 Q1292.25 51.7138 1297.35 47.825 Q1302.5 43.9361 1312.67 43.9361 L1323.12 43.9361 L1323.12 43.2069 Q1323.12 38.0623 1319.71 35.2672 Q1316.35 32.4315 1310.24 32.4315 Q1306.35 32.4315 1302.66 33.3632 Q1298.97 34.295 1295.57 36.1584 L1295.57 29.2718 Q1299.66 27.692 1303.51 26.9223 Q1307.36 26.1121 1311 26.1121 Q1320.85 26.1121 1325.71 31.2163 Q1330.57 36.3204 1330.57 46.6907 Z" fill="#000000" fill-rule="evenodd" fill-opacity="1" /><path clip-path="url(#clip530)" d="M1353.3 14.324 L1353.3 27.2059 L1368.65 27.2059 L1368.65 32.9987 L1353.3 32.9987 L1353.3 57.6282 Q1353.3 63.1779 1354.8 64.7578 Q1356.33 66.3376 1360.99 66.3376 L1368.65 66.3376 L1368.65 72.576 L1360.99 72.576 Q1352.36 72.576 1349.08 69.3758 Q1345.8 66.1351 1345.8 57.6282 L1345.8 32.9987 L1340.33 32.9987 L1340.33 27.2059 L1345.8 27.2059 L1345.8 14.324 L1353.3 14.324 Z" fill="#000000" fill-rule="evenodd" fill-opacity="1" /><path clip-path="url(#clip530)" d="M1378.45 27.2059 L1385.91 27.2059 L1385.91 72.576 L1378.45 72.576 L1378.45 27.2059 M1378.45 9.54393 L1385.91 9.54393 L1385.91 18.9825 L1378.45 18.9825 L1378.45 9.54393 Z" fill="#000000" fill-rule="evenodd" fill-opacity="1" /><path clip-path="url(#clip530)" d="M1419.08 32.4315 Q1413.09 32.4315 1409.6 37.1306 Q1406.12 41.7891 1406.12 49.9314 Q1406.12 58.0738 1409.56 62.7728 Q1413.05 67.4314 1419.08 67.4314 Q1425.04 67.4314 1428.52 62.7323 Q1432.01 58.0333 1432.01 49.9314 Q1432.01 41.8701 1428.52 37.1711 Q1425.04 32.4315 1419.08 32.4315 M1419.08 26.1121 Q1428.81 26.1121 1434.35 32.4315 Q1439.9 38.7509 1439.9 49.9314 Q1439.9 61.0714 1434.35 67.4314 Q1428.81 73.7508 1419.08 73.7508 Q1409.32 73.7508 1403.77 67.4314 Q1398.26 61.0714 1398.26 49.9314 Q1398.26 38.7509 1403.77 32.4315 Q1409.32 26.1121 1419.08 26.1121 Z" fill="#000000" fill-rule="evenodd" fill-opacity="1" /><path clip-path="url(#clip530)" d="M1489.97 45.1919 L1489.97 72.576 L1482.52 72.576 L1482.52 45.4349 Q1482.52 38.994 1480.01 35.7938 Q1477.5 32.5936 1472.47 32.5936 Q1466.44 32.5936 1462.95 36.4419 Q1459.47 40.2903 1459.47 46.9338 L1459.47 72.576 L1451.98 72.576 L1451.98 27.2059 L1459.47 27.2059 L1459.47 34.2544 Q1462.14 30.163 1465.75 28.1376 Q1469.4 26.1121 1474.13 26.1121 Q1481.95 26.1121 1485.96 30.9732 Q1489.97 35.7938 1489.97 45.1919 Z" fill="#000000" fill-rule="evenodd" fill-opacity="1" /><path clip-path="url(#clip530)" d="M1533.76 28.5427 L1533.76 35.5912 Q1530.6 33.9709 1527.2 33.1607 Q1523.8 32.3505 1520.15 32.3505 Q1514.6 32.3505 1511.81 34.0519 Q1509.05 35.7533 1509.05 39.156 Q1509.05 41.7486 1511.04 43.2475 Q1513.02 44.7058 1519.02 46.0426 L1521.57 46.6097 Q1529.51 48.3111 1532.83 51.4303 Q1536.19 54.509 1536.19 60.0587 Q1536.19 66.3781 1531.17 70.0644 Q1526.19 73.7508 1517.44 73.7508 Q1513.79 73.7508 1509.82 73.0216 Q1505.89 72.3329 1501.52 70.9151 L1501.52 63.2184 Q1505.65 65.3654 1509.66 66.4591 Q1513.67 67.5124 1517.6 67.5124 Q1522.87 67.5124 1525.7 65.73 Q1528.54 63.9071 1528.54 60.6258 Q1528.54 57.5877 1526.47 55.9673 Q1524.45 54.3469 1517.52 52.8481 L1514.93 52.2405 Q1508 50.7821 1504.92 47.7845 Q1501.84 44.7463 1501.84 39.4801 Q1501.84 33.0797 1506.38 29.5959 Q1510.92 26.1121 1519.26 26.1121 Q1523.39 26.1121 1527.04 26.7198 Q1530.69 27.3274 1533.76 28.5427 Z" fill="#000000" fill-rule="evenodd" fill-opacity="1" /><polyline clip-path="url(#clip532)" style="stroke:#009af9; stroke-linecap:butt; stroke-linejoin:round; stroke-width:4; stroke-opacity:1; fill:none" points="
  204.426,1447.87 208.574,1447.87 212.722,1447.87 216.87,1447.87 221.018,1447.87 225.166,1447.87 229.314,1447.87 233.462,1447.87 237.61,1447.87 241.758,1447.87 
  245.906,1447.87 250.054,1447.87 254.202,1447.87 258.35,1447.87 262.498,1447.87 266.646,1447.87 270.794,1447.87 274.942,1447.87 279.09,1447.87 283.238,1447.87 
  287.386,1447.87 291.534,1447.87 295.682,1447.87 299.83,1447.87 303.978,1447.87 308.126,1447.87 312.275,1447.87 316.423,1447.87 320.571,1447.87 324.719,1447.87 
  328.867,1447.87 333.015,1447.87 337.163,1447.87 341.311,1447.87 345.459,1447.87 349.607,1447.87 353.755,1447.87 357.903,1447.87 362.051,1447.87 366.199,1447.87 
  370.347,1447.87 374.495,1447.87 378.643,1447.87 382.791,1447.87 386.939,1447.87 391.087,1447.87 395.235,1447.87 399.383,1447.87 403.531,1447.87 407.679,1447.87 
  411.827,1447.87 415.975,1447.87 420.123,1447.87 424.271,1447.87 428.419,1447.87 432.567,1447.87 436.715,1447.87 440.864,1447.87 445.012,1447.87 449.16,1447.87 
  453.308,1447.87 457.456,1447.87 461.604,1447.87 465.752,1447.87 469.9,1447.87 474.048,1447.87 478.196,1447.87 482.344,1447.87 486.492,1447.87 490.64,1447.87 
  494.788,1447.87 498.936,1447.87 503.084,1447.87 507.232,1447.87 511.38,1447.87 515.528,1447.87 519.676,1447.87 523.824,1447.87 527.972,1447.87 532.12,1447.87 
  536.268,1447.87 540.416,1447.87 544.564,1447.87 548.712,1447.87 552.86,1447.87 557.008,1447.87 561.156,1447.87 565.305,1447.87 569.453,1447.87 573.601,1447.87 
  577.749,1447.87 581.897,1447.87 586.045,1447.87 590.193,1447.87 594.341,1447.87 598.489,1447.87 602.637,1447.87 606.785,1447.87 610.933,1447.87 615.081,1447.87 
  619.229,1447.87 623.377,1447.87 627.525,1447.87 631.673,1447.87 635.821,1447.87 639.969,1447.87 644.117,1447.87 648.265,1447.87 652.413,1447.87 656.561,1447.87 
  660.709,1447.87 664.857,1447.87 669.005,1447.87 673.153,1447.87 677.301,1447.87 681.449,1447.87 685.597,1447.87 689.745,1447.87 693.894,1447.87 698.042,1447.87 
  702.19,1447.87 706.338,1447.87 710.486,1447.87 714.634,1447.87 718.782,1447.87 722.93,1447.87 727.078,1447.87 731.226,1447.87 735.374,1447.87 739.522,1447.87 
  743.67,1447.87 747.818,1447.87 751.966,1447.87 756.114,1447.87 760.262,1447.87 764.41,1447.87 768.558,1447.87 772.706,1447.87 776.854,1447.87 781.002,1447.87 
  785.15,1447.87 789.298,1447.87 793.446,1447.87 797.594,1447.87 801.742,1447.87 805.89,1447.87 810.038,1447.87 814.186,1447.87 818.335,1447.87 822.483,1447.87 
  828.705,1447.87 834.926,1447.83 841.148,1447.75 847.368,1447.62 853.586,1447.45 859.803,1447.24 866.017,1446.99 872.229,1446.69 878.437,1446.35 884.641,1445.97 
  890.842,1445.55 897.038,1445.09 903.229,1444.58 909.414,1444.03 915.594,1443.44 921.768,1442.81 927.934,1442.13 934.094,1441.42 940.246,1440.66 946.391,1439.86 
  952.526,1439.02 958.653,1438.14 964.771,1437.21 970.879,1436.24 976.977,1435.24 983.065,1434.19 989.141,1433.1 995.207,1431.97 1001.26,1430.79 1007.3,1429.58 
  1013.33,1428.32 1019.35,1427.03 1025.35,1425.69 1031.34,1424.32 1037.31,1422.9 1043.27,1421.44 1049.21,1419.94 1055.14,1418.4 1061.05,1416.82 1066.95,1415.2 
  1072.83,1413.54 1078.69,1411.84 1084.54,1410.1 1090.36,1408.32 1096.17,1406.51 1101.96,1404.65 1107.73,1402.75 1113.48,1400.82 1119.21,1398.84 1124.93,1396.83 
  1130.62,1394.77 1136.28,1392.68 1141.93,1390.55 1147.56,1388.38 1153.16,1386.18 1158.74,1383.93 1164.29,1381.65 1169.83,1379.33 1175.34,1376.98 1180.82,1374.58 
  1186.28,1372.15 1191.72,1369.68 1197.13,1367.18 1202.51,1364.63 1207.87,1362.05 1213.2,1359.44 1218.51,1356.79 1223.78,1354.1 1229.03,1351.38 1234.25,1348.62 
  1239.45,1345.83 1244.61,1343 1249.75,1340.13 1254.85,1337.24 1259.93,1334.3 1264.97,1331.33 1269.99,1328.33 1274.97,1325.3 1279.93,1322.23 1284.85,1319.12 
  1289.74,1315.99 1294.6,1312.82 1299.42,1309.62 1304.21,1306.38 1308.97,1303.11 1313.7,1299.81 1318.39,1296.48 1323.05,1293.12 1327.67,1289.72 1332.26,1286.3 
  1336.81,1282.84 1341.33,1279.35 1345.81,1275.83 1350.25,1272.28 1354.66,1268.71 1359.03,1265.1 1363.37,1261.46 1367.67,1257.79 1371.93,1254.09 1376.15,1250.37 
  1380.33,1246.61 1384.48,1242.83 1388.58,1239.02 1392.65,1235.18 1396.68,1231.32 1400.67,1227.42 1404.62,1223.5 1408.52,1219.56 1412.39,1215.58 1416.22,1211.59 
  1420,1207.56 1423.75,1203.51 1427.45,1199.43 1431.11,1195.33 1434.73,1191.21 1438.31,1187.06 1441.84,1182.88 1445.34,1178.68 1448.78,1174.46 1452.19,1170.22 
  1455.55,1165.95 1458.87,1161.66 1462.14,1157.35 1465.37,1153.01 1468.56,1148.65 1471.7,1144.28 1474.8,1139.88 1477.85,1135.46 1480.85,1131.01 1483.81,1126.55 
  1486.73,1122.07 1489.59,1117.57 1492.42,1113.05 1495.19,1108.51 1497.92,1103.95 1500.61,1099.38 1503.24,1094.78 1505.83,1090.17 1508.37,1085.54 1510.87,1080.9 
  1513.31,1076.23 1515.71,1071.55 1518.06,1066.86 1520.37,1062.14 1522.62,1057.42 1524.83,1052.67 1526.98,1047.92 1529.09,1043.15 1531.15,1038.36 1533.16,1033.56 
  1534.47,1030.35 1535.78,1027.14 1537.09,1023.93 1538.4,1020.72 1539.7,1017.52 1541.01,1014.31 1542.32,1011.1 1543.63,1007.89 1544.94,1004.68 1546.24,1001.47 
  1547.55,998.262 1548.86,995.053 1550.17,991.845 1551.48,988.636 1552.78,985.427 1554.09,982.218 1555.4,979.009 1556.71,975.8 1558.02,972.591 1559.32,969.383 
  1560.63,966.174 1561.94,962.965 1563.25,959.756 1564.56,956.547 1565.86,953.338 1567.17,950.13 1568.48,946.921 1569.79,943.712 1571.1,940.503 1572.4,937.294 
  1573.71,934.085 1575.02,930.877 1576.33,927.668 1577.63,924.459 1578.94,921.25 1580.25,918.041 1581.56,914.832 1582.87,911.624 1584.17,908.415 1585.48,905.206 
  1586.79,901.997 1588.1,898.788 1589.41,895.579 1590.71,892.371 1592.02,889.162 1593.33,885.953 1594.64,882.744 1595.95,879.535 1597.25,876.326 1598.56,873.118 
  1599.87,869.909 1601.18,866.7 1602.49,863.491 1603.79,860.282 1605.1,857.073 1606.41,853.864 1607.72,850.656 1609.03,847.447 1610.33,844.238 1611.64,841.029 
  1612.95,837.82 1614.26,834.611 1615.57,831.403 1616.87,828.194 1618.18,824.985 1619.49,821.776 1620.8,818.567 1622.11,815.358 1623.41,812.15 1624.72,808.941 
  1626.03,805.732 1627.34,802.523 1628.65,799.314 1629.95,796.105 1631.26,792.897 1632.57,789.688 1633.88,786.479 1635.19,783.27 1636.49,780.061 1637.8,776.852 
  1639.11,773.644 1640.42,770.435 1641.73,767.226 1643.03,764.017 1644.34,760.808 1645.65,757.599 1646.96,754.391 1648.27,751.182 1649.57,747.973 1650.88,744.764 
  1652.19,741.555 1653.5,738.346 1654.8,735.137 1656.11,731.929 1657.42,728.72 1658.73,725.511 1660.04,722.302 1661.34,719.093 1662.65,715.884 1663.96,712.676 
  1665.27,709.467 1666.58,706.258 1667.88,703.049 1669.19,699.84 1670.5,696.631 1671.81,693.423 1673.12,690.214 1674.42,687.005 1675.73,683.796 1677.04,680.587 
  1678.35,677.378 1679.66,674.17 1680.96,670.961 1682.27,667.752 1683.58,664.543 1684.89,661.334 1686.2,658.125 1687.5,654.917 1688.81,651.708 1690.12,648.499 
  1691.43,645.29 1692.74,642.081 1694.04,638.872 1695.35,635.664 1696.66,632.455 1697.97,629.246 1699.28,626.037 1700.58,622.828 1701.89,619.619 1703.2,616.411 
  1704.51,613.202 1705.82,609.993 1707.12,606.784 1708.43,603.575 1709.74,600.366 1711.05,597.157 1712.36,593.949 1713.66,590.74 1714.97,587.531 1716.28,584.322 
  1717.59,581.113 1718.9,577.904 1720.2,574.696 1721.51,571.487 1722.82,568.278 1724.13,565.069 1725.44,561.86 1726.74,558.651 1728.05,555.443 1729.36,552.234 
  1730.67,549.025 1731.97,545.816 1733.28,542.607 1734.59,539.398 1735.9,536.19 1737.21,532.981 1738.51,529.772 1739.82,526.563 1741.13,523.354 1742.44,520.145 
  1743.75,516.937 1745.05,513.728 1746.36,510.519 1747.67,507.31 1748.98,504.101 1750.29,500.892 1751.59,497.684 1752.9,494.475 1754.21,491.266 1755.52,488.057 
  1756.83,484.848 1758.13,481.639 1759.44,478.43 1760.75,475.222 1762.06,472.013 1763.37,468.804 1764.67,465.595 1765.98,462.386 1767.29,459.177 1768.6,455.969 
  1769.91,452.76 1771.21,449.551 1772.52,446.342 1773.83,443.133 1775.14,439.924 1776.45,436.716 1777.75,433.507 1779.06,430.298 1780.37,427.089 1781.68,423.88 
  1782.99,420.671 1784.29,417.463 1785.6,414.254 1786.91,411.045 1788.22,407.836 1789.53,404.627 1790.83,401.418 1792.14,398.21 1793.45,395.001 1794.76,391.792 
  
  "/>
<circle clip-path="url(#clip532)" cx="2274.64" cy="776.792" r="14" fill="#e26f46" fill-rule="evenodd" fill-opacity="1" stroke="#000000" stroke-opacity="1" stroke-width="3.2"/>
<circle clip-path="url(#clip532)" cx="1542.41" cy="326.739" r="14" fill="#e26f46" fill-rule="evenodd" fill-opacity="1" stroke="#000000" stroke-opacity="1" stroke-width="3.2"/>
<circle clip-path="url(#clip532)" cx="1649.35" cy="345.056" r="14" fill="#e26f46" fill-rule="evenodd" fill-opacity="1" stroke="#000000" stroke-opacity="1" stroke-width="3.2"/>
<circle clip-path="url(#clip532)" cx="1948.76" cy="518.402" r="14" fill="#e26f46" fill-rule="evenodd" fill-opacity="1" stroke="#000000" stroke-opacity="1" stroke-width="3.2"/>
<circle clip-path="url(#clip532)" cx="1843.5" cy="451.369" r="14" fill="#e26f46" fill-rule="evenodd" fill-opacity="1" stroke="#000000" stroke-opacity="1" stroke-width="3.2"/>
<circle clip-path="url(#clip532)" cx="1783.92" cy="341.04" r="14" fill="#e26f46" fill-rule="evenodd" fill-opacity="1" stroke="#000000" stroke-opacity="1" stroke-width="3.2"/>
<circle clip-path="url(#clip532)" cx="1347.69" cy="303.522" r="14" fill="#e26f46" fill-rule="evenodd" fill-opacity="1" stroke="#000000" stroke-opacity="1" stroke-width="3.2"/>
<circle clip-path="url(#clip532)" cx="1432" cy="202.376" r="14" fill="#e26f46" fill-rule="evenodd" fill-opacity="1" stroke="#000000" stroke-opacity="1" stroke-width="3.2"/>
<circle clip-path="url(#clip532)" cx="1297.84" cy="171.077" r="14" fill="#e26f46" fill-rule="evenodd" fill-opacity="1" stroke="#000000" stroke-opacity="1" stroke-width="3.2"/>
<circle clip-path="url(#clip532)" cx="2036.22" cy="744.664" r="14" fill="#e26f46" fill-rule="evenodd" fill-opacity="1" stroke="#000000" stroke-opacity="1" stroke-width="3.2"/>
<circle clip-path="url(#clip532)" cx="2160.7" cy="806.721" r="14" fill="#e26f46" fill-rule="evenodd" fill-opacity="1" stroke="#000000" stroke-opacity="1" stroke-width="3.2"/>
<circle clip-path="url(#clip532)" cx="1844.44" cy="408.989" r="14" fill="#e26f46" fill-rule="evenodd" fill-opacity="1" stroke="#000000" stroke-opacity="1" stroke-width="3.2"/>
<circle clip-path="url(#clip532)" cx="2115.48" cy="672.985" r="14" fill="#e26f46" fill-rule="evenodd" fill-opacity="1" stroke="#000000" stroke-opacity="1" stroke-width="3.2"/>
<circle clip-path="url(#clip532)" cx="1886.2" cy="356.543" r="14" fill="#e26f46" fill-rule="evenodd" fill-opacity="1" stroke="#000000" stroke-opacity="1" stroke-width="3.2"/>
<circle clip-path="url(#clip532)" cx="1651.68" cy="372.454" r="14" fill="#e26f46" fill-rule="evenodd" fill-opacity="1" stroke="#000000" stroke-opacity="1" stroke-width="3.2"/>
<circle clip-path="url(#clip532)" cx="1938.3" cy="379.79" r="14" fill="#e26f46" fill-rule="evenodd" fill-opacity="1" stroke="#000000" stroke-opacity="1" stroke-width="3.2"/>
<circle clip-path="url(#clip532)" cx="1820.66" cy="426.415" r="14" fill="#e26f46" fill-rule="evenodd" fill-opacity="1" stroke="#000000" stroke-opacity="1" stroke-width="3.2"/>
<circle clip-path="url(#clip532)" cx="1600.95" cy="352.832" r="14" fill="#e26f46" fill-rule="evenodd" fill-opacity="1" stroke="#000000" stroke-opacity="1" stroke-width="3.2"/>
<circle clip-path="url(#clip532)" cx="1848.3" cy="405.673" r="14" fill="#e26f46" fill-rule="evenodd" fill-opacity="1" stroke="#000000" stroke-opacity="1" stroke-width="3.2"/>
<circle clip-path="url(#clip532)" cx="1651.55" cy="353.141" r="14" fill="#e26f46" fill-rule="evenodd" fill-opacity="1" stroke="#000000" stroke-opacity="1" stroke-width="3.2"/>
<circle clip-path="url(#clip532)" cx="2051.69" cy="525.945" r="14" fill="#e26f46" fill-rule="evenodd" fill-opacity="1" stroke="#000000" stroke-opacity="1" stroke-width="3.2"/>
<circle clip-path="url(#clip532)" cx="1493.29" cy="315.893" r="14" fill="#e26f46" fill-rule="evenodd" fill-opacity="1" stroke="#000000" stroke-opacity="1" stroke-width="3.2"/>
<circle clip-path="url(#clip532)" cx="1530.01" cy="243.126" r="14" fill="#e26f46" fill-rule="evenodd" fill-opacity="1" stroke="#000000" stroke-opacity="1" stroke-width="3.2"/>
<circle clip-path="url(#clip532)" cx="1941.96" cy="533.617" r="14" fill="#e26f46" fill-rule="evenodd" fill-opacity="1" stroke="#000000" stroke-opacity="1" stroke-width="3.2"/>
<circle clip-path="url(#clip532)" cx="1823.29" cy="438.345" r="14" fill="#e26f46" fill-rule="evenodd" fill-opacity="1" stroke="#000000" stroke-opacity="1" stroke-width="3.2"/>
<circle clip-path="url(#clip532)" cx="1972.07" cy="420.463" r="14" fill="#e26f46" fill-rule="evenodd" fill-opacity="1" stroke="#000000" stroke-opacity="1" stroke-width="3.2"/>
<circle clip-path="url(#clip532)" cx="1522.39" cy="255.317" r="14" fill="#e26f46" fill-rule="evenodd" fill-opacity="1" stroke="#000000" stroke-opacity="1" stroke-width="3.2"/>
<circle clip-path="url(#clip532)" cx="1968.99" cy="532.758" r="14" fill="#e26f46" fill-rule="evenodd" fill-opacity="1" stroke="#000000" stroke-opacity="1" stroke-width="3.2"/>
<circle clip-path="url(#clip532)" cx="1714.69" cy="339.151" r="14" fill="#e26f46" fill-rule="evenodd" fill-opacity="1" stroke="#000000" stroke-opacity="1" stroke-width="3.2"/>
<circle clip-path="url(#clip532)" cx="1688.84" cy="392.357" r="14" fill="#e26f46" fill-rule="evenodd" fill-opacity="1" stroke="#000000" stroke-opacity="1" stroke-width="3.2"/>
<circle clip-path="url(#clip532)" cx="1424.86" cy="200.033" r="14" fill="#e26f46" fill-rule="evenodd" fill-opacity="1" stroke="#000000" stroke-opacity="1" stroke-width="3.2"/>
<circle clip-path="url(#clip532)" cx="1482.76" cy="252.999" r="14" fill="#e26f46" fill-rule="evenodd" fill-opacity="1" stroke="#000000" stroke-opacity="1" stroke-width="3.2"/>
<circle clip-path="url(#clip532)" cx="1913.45" cy="603.174" r="14" fill="#e26f46" fill-rule="evenodd" fill-opacity="1" stroke="#000000" stroke-opacity="1" stroke-width="3.2"/>
<circle clip-path="url(#clip532)" cx="1566.03" cy="300.994" r="14" fill="#e26f46" fill-rule="evenodd" fill-opacity="1" stroke="#000000" stroke-opacity="1" stroke-width="3.2"/>
<circle clip-path="url(#clip532)" cx="1794.26" cy="277.475" r="14" fill="#e26f46" fill-rule="evenodd" fill-opacity="1" stroke="#000000" stroke-opacity="1" stroke-width="3.2"/>
<circle clip-path="url(#clip532)" cx="1600.21" cy="304.714" r="14" fill="#e26f46" fill-rule="evenodd" fill-opacity="1" stroke="#000000" stroke-opacity="1" stroke-width="3.2"/>
<circle clip-path="url(#clip532)" cx="1534.23" cy="261.923" r="14" fill="#e26f46" fill-rule="evenodd" fill-opacity="1" stroke="#000000" stroke-opacity="1" stroke-width="3.2"/>
<circle clip-path="url(#clip532)" cx="1965.73" cy="661.032" r="14" fill="#e26f46" fill-rule="evenodd" fill-opacity="1" stroke="#000000" stroke-opacity="1" stroke-width="3.2"/>
<circle clip-path="url(#clip532)" cx="2034.36" cy="624.907" r="14" fill="#e26f46" fill-rule="evenodd" fill-opacity="1" stroke="#000000" stroke-opacity="1" stroke-width="3.2"/>
<circle clip-path="url(#clip532)" cx="1769.67" cy="399.01" r="14" fill="#e26f46" fill-rule="evenodd" fill-opacity="1" stroke="#000000" stroke-opacity="1" stroke-width="3.2"/>
<circle clip-path="url(#clip532)" cx="1621.97" cy="226.866" r="14" fill="#e26f46" fill-rule="evenodd" fill-opacity="1" stroke="#000000" stroke-opacity="1" stroke-width="3.2"/>
<circle clip-path="url(#clip532)" cx="1546.49" cy="216.423" r="14" fill="#e26f46" fill-rule="evenodd" fill-opacity="1" stroke="#000000" stroke-opacity="1" stroke-width="3.2"/>
<circle clip-path="url(#clip532)" cx="1875.28" cy="495.015" r="14" fill="#e26f46" fill-rule="evenodd" fill-opacity="1" stroke="#000000" stroke-opacity="1" stroke-width="3.2"/>
<circle clip-path="url(#clip532)" cx="2084.84" cy="645.018" r="14" fill="#e26f46" fill-rule="evenodd" fill-opacity="1" stroke="#000000" stroke-opacity="1" stroke-width="3.2"/>
<circle clip-path="url(#clip532)" cx="1493.79" cy="215.206" r="14" fill="#e26f46" fill-rule="evenodd" fill-opacity="1" stroke="#000000" stroke-opacity="1" stroke-width="3.2"/>
<circle clip-path="url(#clip532)" cx="1392.01" cy="185.516" r="14" fill="#e26f46" fill-rule="evenodd" fill-opacity="1" stroke="#000000" stroke-opacity="1" stroke-width="3.2"/>
<circle clip-path="url(#clip532)" cx="2215.84" cy="827.07" r="14" fill="#e26f46" fill-rule="evenodd" fill-opacity="1" stroke="#000000" stroke-opacity="1" stroke-width="3.2"/>
<circle clip-path="url(#clip532)" cx="1668.28" cy="432.268" r="14" fill="#e26f46" fill-rule="evenodd" fill-opacity="1" stroke="#000000" stroke-opacity="1" stroke-width="3.2"/>
<circle clip-path="url(#clip532)" cx="1859.72" cy="455.442" r="14" fill="#e26f46" fill-rule="evenodd" fill-opacity="1" stroke="#000000" stroke-opacity="1" stroke-width="3.2"/>
<circle clip-path="url(#clip532)" cx="2136.88" cy="631.464" r="14" fill="#e26f46" fill-rule="evenodd" fill-opacity="1" stroke="#000000" stroke-opacity="1" stroke-width="3.2"/>
<circle clip-path="url(#clip532)" cx="2160.77" cy="704.343" r="14" fill="#e26f46" fill-rule="evenodd" fill-opacity="1" stroke="#000000" stroke-opacity="1" stroke-width="3.2"/>
<circle clip-path="url(#clip532)" cx="2094.72" cy="666.141" r="14" fill="#e26f46" fill-rule="evenodd" fill-opacity="1" stroke="#000000" stroke-opacity="1" stroke-width="3.2"/>
<circle clip-path="url(#clip532)" cx="1595.1" cy="314.153" r="14" fill="#e26f46" fill-rule="evenodd" fill-opacity="1" stroke="#000000" stroke-opacity="1" stroke-width="3.2"/>
<circle clip-path="url(#clip532)" cx="1885.65" cy="490.945" r="14" fill="#e26f46" fill-rule="evenodd" fill-opacity="1" stroke="#000000" stroke-opacity="1" stroke-width="3.2"/>
<circle clip-path="url(#clip532)" cx="1649.08" cy="335.58" r="14" fill="#e26f46" fill-rule="evenodd" fill-opacity="1" stroke="#000000" stroke-opacity="1" stroke-width="3.2"/>
<circle clip-path="url(#clip532)" cx="1603.74" cy="316.972" r="14" fill="#e26f46" fill-rule="evenodd" fill-opacity="1" stroke="#000000" stroke-opacity="1" stroke-width="3.2"/>
<circle clip-path="url(#clip532)" cx="1940.89" cy="490.856" r="14" fill="#e26f46" fill-rule="evenodd" fill-opacity="1" stroke="#000000" stroke-opacity="1" stroke-width="3.2"/>
<circle clip-path="url(#clip532)" cx="1375.3" cy="284.01" r="14" fill="#e26f46" fill-rule="evenodd" fill-opacity="1" stroke="#000000" stroke-opacity="1" stroke-width="3.2"/>
<circle clip-path="url(#clip532)" cx="1598.46" cy="306.247" r="14" fill="#e26f46" fill-rule="evenodd" fill-opacity="1" stroke="#000000" stroke-opacity="1" stroke-width="3.2"/>
<circle clip-path="url(#clip532)" cx="1736.26" cy="395.497" r="14" fill="#e26f46" fill-rule="evenodd" fill-opacity="1" stroke="#000000" stroke-opacity="1" stroke-width="3.2"/>
<circle clip-path="url(#clip532)" cx="1947.58" cy="496.471" r="14" fill="#e26f46" fill-rule="evenodd" fill-opacity="1" stroke="#000000" stroke-opacity="1" stroke-width="3.2"/>
<circle clip-path="url(#clip532)" cx="1893.86" cy="435.943" r="14" fill="#e26f46" fill-rule="evenodd" fill-opacity="1" stroke="#000000" stroke-opacity="1" stroke-width="3.2"/>
<circle clip-path="url(#clip532)" cx="1656" cy="213.57" r="14" fill="#e26f46" fill-rule="evenodd" fill-opacity="1" stroke="#000000" stroke-opacity="1" stroke-width="3.2"/>
<circle clip-path="url(#clip532)" cx="2088.12" cy="666.653" r="14" fill="#e26f46" fill-rule="evenodd" fill-opacity="1" stroke="#000000" stroke-opacity="1" stroke-width="3.2"/>
<circle clip-path="url(#clip532)" cx="2290.18" cy="780.314" r="14" fill="#e26f46" fill-rule="evenodd" fill-opacity="1" stroke="#000000" stroke-opacity="1" stroke-width="3.2"/>
<circle clip-path="url(#clip532)" cx="1633.1" cy="383.66" r="14" fill="#e26f46" fill-rule="evenodd" fill-opacity="1" stroke="#000000" stroke-opacity="1" stroke-width="3.2"/>
<circle clip-path="url(#clip532)" cx="2055.93" cy="587.533" r="14" fill="#e26f46" fill-rule="evenodd" fill-opacity="1" stroke="#000000" stroke-opacity="1" stroke-width="3.2"/>
<circle clip-path="url(#clip532)" cx="1801.66" cy="443.536" r="14" fill="#e26f46" fill-rule="evenodd" fill-opacity="1" stroke="#000000" stroke-opacity="1" stroke-width="3.2"/>
<circle clip-path="url(#clip532)" cx="2054.64" cy="473.455" r="14" fill="#e26f46" fill-rule="evenodd" fill-opacity="1" stroke="#000000" stroke-opacity="1" stroke-width="3.2"/>
<circle clip-path="url(#clip532)" cx="1582.81" cy="162.047" r="14" fill="#e26f46" fill-rule="evenodd" fill-opacity="1" stroke="#000000" stroke-opacity="1" stroke-width="3.2"/>
<circle clip-path="url(#clip532)" cx="1390.35" cy="275.082" r="14" fill="#e26f46" fill-rule="evenodd" fill-opacity="1" stroke="#000000" stroke-opacity="1" stroke-width="3.2"/>
<circle clip-path="url(#clip532)" cx="1960.89" cy="465.479" r="14" fill="#e26f46" fill-rule="evenodd" fill-opacity="1" stroke="#000000" stroke-opacity="1" stroke-width="3.2"/>
<circle clip-path="url(#clip532)" cx="1817.96" cy="541.538" r="14" fill="#e26f46" fill-rule="evenodd" fill-opacity="1" stroke="#000000" stroke-opacity="1" stroke-width="3.2"/>
<circle clip-path="url(#clip532)" cx="2028.65" cy="704.285" r="14" fill="#e26f46" fill-rule="evenodd" fill-opacity="1" stroke="#000000" stroke-opacity="1" stroke-width="3.2"/>
<circle clip-path="url(#clip532)" cx="1911.38" cy="511.47" r="14" fill="#e26f46" fill-rule="evenodd" fill-opacity="1" stroke="#000000" stroke-opacity="1" stroke-width="3.2"/>
<circle clip-path="url(#clip532)" cx="1840.09" cy="475.624" r="14" fill="#e26f46" fill-rule="evenodd" fill-opacity="1" stroke="#000000" stroke-opacity="1" stroke-width="3.2"/>
<circle clip-path="url(#clip532)" cx="1846.12" cy="444.823" r="14" fill="#e26f46" fill-rule="evenodd" fill-opacity="1" stroke="#000000" stroke-opacity="1" stroke-width="3.2"/>
<circle clip-path="url(#clip532)" cx="1961.1" cy="543.525" r="14" fill="#e26f46" fill-rule="evenodd" fill-opacity="1" stroke="#000000" stroke-opacity="1" stroke-width="3.2"/>
<circle clip-path="url(#clip532)" cx="1939.84" cy="551.83" r="14" fill="#e26f46" fill-rule="evenodd" fill-opacity="1" stroke="#000000" stroke-opacity="1" stroke-width="3.2"/>
<circle clip-path="url(#clip532)" cx="1933.99" cy="427.677" r="14" fill="#e26f46" fill-rule="evenodd" fill-opacity="1" stroke="#000000" stroke-opacity="1" stroke-width="3.2"/>
<circle clip-path="url(#clip532)" cx="2156.63" cy="772.433" r="14" fill="#e26f46" fill-rule="evenodd" fill-opacity="1" stroke="#000000" stroke-opacity="1" stroke-width="3.2"/>
<circle clip-path="url(#clip532)" cx="1646.98" cy="235.405" r="14" fill="#e26f46" fill-rule="evenodd" fill-opacity="1" stroke="#000000" stroke-opacity="1" stroke-width="3.2"/>
<circle clip-path="url(#clip532)" cx="2067.88" cy="625.348" r="14" fill="#e26f46" fill-rule="evenodd" fill-opacity="1" stroke="#000000" stroke-opacity="1" stroke-width="3.2"/>
<circle clip-path="url(#clip532)" cx="1979.95" cy="554.182" r="14" fill="#e26f46" fill-rule="evenodd" fill-opacity="1" stroke="#000000" stroke-opacity="1" stroke-width="3.2"/>
<circle clip-path="url(#clip532)" cx="1639.14" cy="393.292" r="14" fill="#e26f46" fill-rule="evenodd" fill-opacity="1" stroke="#000000" stroke-opacity="1" stroke-width="3.2"/>
<circle clip-path="url(#clip532)" cx="1209.57" cy="183.919" r="14" fill="#e26f46" fill-rule="evenodd" fill-opacity="1" stroke="#000000" stroke-opacity="1" stroke-width="3.2"/>
<circle clip-path="url(#clip532)" cx="1658.92" cy="361.134" r="14" fill="#e26f46" fill-rule="evenodd" fill-opacity="1" stroke="#000000" stroke-opacity="1" stroke-width="3.2"/>
<circle clip-path="url(#clip532)" cx="1908.57" cy="458.923" r="14" fill="#e26f46" fill-rule="evenodd" fill-opacity="1" stroke="#000000" stroke-opacity="1" stroke-width="3.2"/>
<circle clip-path="url(#clip532)" cx="1539.31" cy="333.384" r="14" fill="#e26f46" fill-rule="evenodd" fill-opacity="1" stroke="#000000" stroke-opacity="1" stroke-width="3.2"/>
<circle clip-path="url(#clip532)" cx="2071.75" cy="660.793" r="14" fill="#e26f46" fill-rule="evenodd" fill-opacity="1" stroke="#000000" stroke-opacity="1" stroke-width="3.2"/>
<circle clip-path="url(#clip532)" cx="1528.14" cy="238.513" r="14" fill="#e26f46" fill-rule="evenodd" fill-opacity="1" stroke="#000000" stroke-opacity="1" stroke-width="3.2"/>
<circle clip-path="url(#clip532)" cx="2247.22" cy="743.734" r="14" fill="#e26f46" fill-rule="evenodd" fill-opacity="1" stroke="#000000" stroke-opacity="1" stroke-width="3.2"/>
<circle clip-path="url(#clip532)" cx="1506.8" cy="270.411" r="14" fill="#e26f46" fill-rule="evenodd" fill-opacity="1" stroke="#000000" stroke-opacity="1" stroke-width="3.2"/>
<circle clip-path="url(#clip532)" cx="2120.7" cy="525.748" r="14" fill="#e26f46" fill-rule="evenodd" fill-opacity="1" stroke="#000000" stroke-opacity="1" stroke-width="3.2"/>
<circle clip-path="url(#clip532)" cx="1624.96" cy="227.487" r="14" fill="#e26f46" fill-rule="evenodd" fill-opacity="1" stroke="#000000" stroke-opacity="1" stroke-width="3.2"/>
<circle clip-path="url(#clip532)" cx="1799.55" cy="344.879" r="14" fill="#e26f46" fill-rule="evenodd" fill-opacity="1" stroke="#000000" stroke-opacity="1" stroke-width="3.2"/>
<circle clip-path="url(#clip532)" cx="1941.13" cy="476.807" r="14" fill="#e26f46" fill-rule="evenodd" fill-opacity="1" stroke="#000000" stroke-opacity="1" stroke-width="3.2"/>
<circle clip-path="url(#clip532)" cx="2056.35" cy="586.25" r="14" fill="#e26f46" fill-rule="evenodd" fill-opacity="1" stroke="#000000" stroke-opacity="1" stroke-width="3.2"/>
<circle clip-path="url(#clip532)" cx="1450.82" cy="209.387" r="14" fill="#e26f46" fill-rule="evenodd" fill-opacity="1" stroke="#000000" stroke-opacity="1" stroke-width="3.2"/>
<circle clip-path="url(#clip532)" cx="1588.19" cy="243.036" r="14" fill="#e26f46" fill-rule="evenodd" fill-opacity="1" stroke="#000000" stroke-opacity="1" stroke-width="3.2"/>
</svg>
