<?xml version="1.0" encoding="UTF-8" standalone="no"?>
<!-- Created with Inkscape (http://www.inkscape.org/) -->

<svg
   xmlns:dc="http://purl.org/dc/elements/1.1/"
   xmlns:cc="http://creativecommons.org/ns#"
   xmlns:rdf="http://www.w3.org/1999/02/22-rdf-syntax-ns#"
   xmlns:svg="http://www.w3.org/2000/svg"
   xmlns="http://www.w3.org/2000/svg"
   xmlns:sodipodi="http://sodipodi.sourceforge.net/DTD/sodipodi-0.dtd"
   xmlns:inkscape="http://www.inkscape.org/namespaces/inkscape"
   id="svg2"
   version="1.1"
   inkscape:version="0.91 r13725"
   xml:space="preserve"
   width="1780"
   height="570"
   viewBox="0 0 1780 570"
   sodipodi:docname="twolinkpositioncntrl.svg"><metadata
     id="metadata8"><rdf:RDF><cc:Work
         rdf:about=""><dc:format>image/svg+xml</dc:format><dc:type
           rdf:resource="http://purl.org/dc/dcmitype/StillImage" /><dc:title></dc:title></cc:Work></rdf:RDF></metadata><defs
     id="defs6" /><sodipodi:namedview
     pagecolor="#ffffff"
     bordercolor="#666666"
     borderopacity="1"
     objecttolerance="10"
     gridtolerance="10"
     guidetolerance="10"
     inkscape:pageopacity="0"
     inkscape:pageshadow="2"
     inkscape:window-width="640"
     inkscape:window-height="480"
     id="namedview4"
     showgrid="false"
     inkscape:zoom="0.21235955"
     inkscape:cx="890"
     inkscape:cy="285"
     inkscape:window-x="120"
     inkscape:window-y="75"
     inkscape:window-maximized="0"
     inkscape:current-layer="g10" /><g
     id="g10"
     inkscape:groupmode="layer"
     inkscape:label="twolinkpositioncntrl"
     transform="matrix(1.25,0,0,-1.25,0,570)"><g
       id="g12"
       transform="scale(0.1,0.1)"><path
         d="m 32.9492,40.6523 255.1128,269.2857 283.461,0 226.77,-269.2857"
         style="fill:#ff0000;fill-opacity:1;fill-rule:evenodd;stroke:none"
         id="path14"
         inkscape:connector-curvature="0" /><path
         d="m 32.9492,40.6523 255.1128,269.2857 283.461,0 226.77,-269.2857 -765.3438,0 z"
         style="fill:none;stroke:#000000;stroke-width:28.34600067;stroke-linecap:butt;stroke-linejoin:miter;stroke-miterlimit:10;stroke-dasharray:none;stroke-opacity:1"
         id="path16"
         inkscape:connector-curvature="0" /><path
         d="M 429.793,239.074 3349.43,976.07 3420.3,820.168 486.488,97.3438"
         style="fill:#1e90ff;fill-opacity:1;fill-rule:evenodd;stroke:none"
         id="path18"
         inkscape:connector-curvature="0" /><path
         d="M 429.793,239.074 3349.43,976.07 3420.3,820.168 486.488,97.3438 429.793,239.074 Z"
         style="fill:none;stroke:#000000;stroke-width:28.34600067;stroke-linecap:butt;stroke-linejoin:miter;stroke-miterlimit:10;stroke-dasharray:none;stroke-opacity:1"
         id="path20"
         inkscape:connector-curvature="0" /><path
         d="m 3292.74,947.723 1445.65,1601.547 127.56,-85.04 -1474,-1644.062"
         style="fill:#1e90ff;fill-opacity:1;fill-rule:evenodd;stroke:none"
         id="path22"
         inkscape:connector-curvature="0" /><path
         d="m 3292.74,947.723 1445.65,1601.547 127.56,-85.04 -1474,-1644.062 -99.21,127.555 z"
         style="fill:none;stroke:#000000;stroke-width:28.34600067;stroke-linecap:butt;stroke-linejoin:miter;stroke-miterlimit:10;stroke-dasharray:none;stroke-opacity:1"
         id="path24"
         inkscape:connector-curvature="0" /><path
         d="m 13404.5,4376.65 c 184.3,-176.11 288.5,-419.92 288.5,-674.81 0,-73.14 -8.6,-146.02 -25.6,-217.15"
         style="fill:none;stroke:#000000;stroke-width:28.34600067;stroke-linecap:butt;stroke-linejoin:miter;stroke-miterlimit:10;stroke-dasharray:none;stroke-opacity:1"
         id="path26"
         inkscape:connector-curvature="0" /><path
         d="m 13324.7,4445.4 156.7,-24.05 -69.9,-37.37 -12,-78.31"
         style="fill:#000000;fill-opacity:1;fill-rule:evenodd;stroke:none"
         id="path28"
         inkscape:connector-curvature="0" /><path
         d="m 13324.7,4445.4 156.7,-24.05 -69.9,-37.37 -12,-78.31 -74.8,139.73 z"
         style="fill:none;stroke:#000000;stroke-width:28.34600067;stroke-linecap:butt;stroke-linejoin:miter;stroke-miterlimit:10;stroke-dasharray:none;stroke-opacity:1"
         id="path30"
         inkscape:connector-curvature="0" /><path
         d="m 4728.95,2546.25 122.82,75.59 264.55,278.74 -226.77,-311.81 -23.6,-132.28"
         style="fill:#00ff00;fill-opacity:1;fill-rule:evenodd;stroke:none"
         id="path32"
         inkscape:connector-curvature="0" /><path
         d="m 4728.95,2546.25 122.82,75.59 264.55,278.74 -226.77,-311.81 -23.6,-132.28 -137,89.76 z"
         style="fill:none;stroke:#000000;stroke-width:28.34600067;stroke-linecap:butt;stroke-linejoin:miter;stroke-miterlimit:10;stroke-dasharray:none;stroke-opacity:1"
         id="path34"
         inkscape:connector-curvature="0" /><path
         d="m 4914.48,31.3633 255.12,269.2887 283.46,0 226.77,-269.2887"
         style="fill:#ff0000;fill-opacity:1;fill-rule:evenodd;stroke:none"
         id="path36"
         inkscape:connector-curvature="0" /><path
         d="m 4914.48,31.3633 255.12,269.2887 283.46,0 226.77,-269.2887 -765.35,0 z"
         style="fill:none;stroke:#000000;stroke-width:28.34600067;stroke-linecap:butt;stroke-linejoin:miter;stroke-miterlimit:10;stroke-dasharray:none;stroke-opacity:1"
         id="path38"
         inkscape:connector-curvature="0" /><path
         d="M 5311.33,229.785 8230.97,966.781 8301.83,810.879 5368.02,88.0586"
         style="fill:#1e90ff;fill-opacity:1;fill-rule:evenodd;stroke:none"
         id="path40"
         inkscape:connector-curvature="0" /><path
         d="M 5311.33,229.785 8230.97,966.781 8301.83,810.879 5368.02,88.0586 5311.33,229.785 Z"
         style="fill:none;stroke:#000000;stroke-width:28.34600067;stroke-linecap:butt;stroke-linejoin:miter;stroke-miterlimit:10;stroke-dasharray:none;stroke-opacity:1"
         id="path42"
         inkscape:connector-curvature="0" /><path
         d="M 8174.27,938.438 8749.35,2931.95 8876.9,2875.25 8273.48,810.879"
         style="fill:#1e90ff;fill-opacity:1;fill-rule:evenodd;stroke:none"
         id="path44"
         inkscape:connector-curvature="0" /><path
         d="m 8174.27,938.438 575.08,1993.512 127.55,-56.7 -603.42,-2064.371 -99.21,127.559 z"
         style="fill:none;stroke:#000000;stroke-width:28.34600067;stroke-linecap:butt;stroke-linejoin:miter;stroke-miterlimit:10;stroke-dasharray:none;stroke-opacity:1"
         id="path46"
         inkscape:connector-curvature="0" /><path
         d="m 8745.93,2962.16 122.82,75.59 121.54,319.38 -85.04,-382.67 -22.32,-102.07"
         style="fill:#00ff00;fill-opacity:1;fill-rule:evenodd;stroke:none"
         id="path48"
         inkscape:connector-curvature="0" /><path
         d="m 8745.93,2962.16 122.82,75.59 121.54,319.38 -85.04,-382.67 -22.32,-102.07 -137,89.77 z"
         style="fill:none;stroke:#000000;stroke-width:28.34600067;stroke-linecap:butt;stroke-linejoin:miter;stroke-miterlimit:10;stroke-dasharray:none;stroke-opacity:1"
         id="path50"
         inkscape:connector-curvature="0" /><path
         d="m 9733.3,14.1719 255.12,269.2891 283.48,0 226.7,-269.2891"
         style="fill:#ff0000;fill-opacity:1;fill-rule:evenodd;stroke:none"
         id="path52"
         inkscape:connector-curvature="0" /><path
         d="m 9733.3,14.1719 255.12,269.2891 283.48,0 226.7,-269.2891 -765.3,0 z"
         style="fill:none;stroke:#000000;stroke-width:28.34600067;stroke-linecap:butt;stroke-linejoin:miter;stroke-miterlimit:10;stroke-dasharray:none;stroke-opacity:1"
         id="path54"
         inkscape:connector-curvature="0" /><path
         d="m 10130.1,212.594 2247.5,1713.066 198.5,-56.69 L 10186.8,70.8672"
         style="fill:#1e90ff;fill-opacity:1;fill-rule:evenodd;stroke:none"
         id="path56"
         inkscape:connector-curvature="0" /><path
         d="m 10130.1,212.594 2247.5,1713.066 198.5,-56.69 -2389.3,-1798.1028 -56.7,141.7268 z"
         style="fill:none;stroke:#000000;stroke-width:28.34600067;stroke-linecap:butt;stroke-linejoin:miter;stroke-miterlimit:10;stroke-dasharray:none;stroke-opacity:1"
         id="path58"
         inkscape:connector-curvature="0" /><path
         d="m 12377.6,1883.14 652,2137.11 127.5,-56.7 -603.4,-2064.37"
         style="fill:#1e90ff;fill-opacity:1;fill-rule:evenodd;stroke:none"
         id="path60"
         inkscape:connector-curvature="0" /><path
         d="m 12377.6,1883.14 652,2137.11 127.5,-56.7 -603.4,-2064.37 -176.1,-16.04 z"
         style="fill:none;stroke:#000000;stroke-width:28.34600067;stroke-linecap:butt;stroke-linejoin:miter;stroke-miterlimit:10;stroke-dasharray:none;stroke-opacity:1"
         id="path62"
         inkscape:connector-curvature="0" /><path
         d="m 12997.8,4022.11 102.7,86.19 113.3,311.81 -56.7,-385.69 -22.3,-102.07"
         style="fill:#00ff00;fill-opacity:1;fill-rule:evenodd;stroke:none"
         id="path64"
         inkscape:connector-curvature="0" /><path
         d="m 12997.8,4022.11 102.7,86.19 113.3,311.81 -56.7,-385.69 -22.3,-102.07 -137,89.76 z"
         style="fill:none;stroke:#000000;stroke-width:28.34600067;stroke-linecap:butt;stroke-linejoin:miter;stroke-miterlimit:10;stroke-dasharray:none;stroke-opacity:1"
         id="path66"
         inkscape:connector-curvature="0" /><path
         d="m 9122.68,3331.64 c 225.3,-73.14 377.87,-283.08 377.87,-519.96 0,-2.06 -0.01,-4.14 -0.03,-6.21"
         style="fill:none;stroke:#000000;stroke-width:28.34600067;stroke-linecap:butt;stroke-linejoin:miter;stroke-miterlimit:10;stroke-dasharray:none;stroke-opacity:1"
         id="path68"
         inkscape:connector-curvature="0" /><path
         d="m 9021.91,3355.02 146.13,61.27 -40.07,-68.34 30.64,-73.07"
         style="fill:#000000;fill-opacity:1;fill-rule:evenodd;stroke:none"
         id="path70"
         inkscape:connector-curvature="0" /><path
         d="m 9021.91,3355.02 146.13,61.27 -40.07,-68.34 30.64,-73.07 -136.7,80.14 z"
         style="fill:none;stroke:#000000;stroke-width:28.34600067;stroke-linecap:butt;stroke-linejoin:miter;stroke-miterlimit:10;stroke-dasharray:none;stroke-opacity:1"
         id="path72"
         inkscape:connector-curvature="0" /><path
         d="m 13833.8,3488.42 c 215.7,-84.49 363.4,-285.72 379.4,-516.83"
         style="fill:none;stroke:#000000;stroke-width:28.34600067;stroke-linecap:butt;stroke-linejoin:miter;stroke-miterlimit:10;stroke-dasharray:none;stroke-opacity:1"
         id="path74"
         inkscape:connector-curvature="0" /><path
         d="m 13734.3,3518.6 150.6,49.32 -45.4,-64.9 24.7,-75.3"
         style="fill:#000000;fill-opacity:1;fill-rule:evenodd;stroke:none"
         id="path76"
         inkscape:connector-curvature="0" /><path
         d="m 13734.3,3518.6 150.6,49.32 -45.4,-64.9 24.7,-75.3 -129.9,90.88 z"
         style="fill:none;stroke:#000000;stroke-width:28.34600067;stroke-linecap:butt;stroke-linejoin:miter;stroke-miterlimit:10;stroke-dasharray:none;stroke-opacity:1"
         id="path78"
         inkscape:connector-curvature="0" /></g></g></svg>