<?xml version="1.0" encoding="utf-8" standalone="no"?>
<!DOCTYPE svg PUBLIC "-//W3C//DTD SVG 1.1//EN"
  "http://www.w3.org/Graphics/SVG/1.1/DTD/svg11.dtd">
<svg height="252pt" version="1.1" viewBox="0 0 576 252" width="576pt" xmlns="http://www.w3.org/2000/svg" xmlns:xlink="http://www.w3.org/1999/xlink">
 <metadata>
  <rdf:RDF xmlns:cc="http://creativecommons.org/ns#" xmlns:dc="http://purl.org/dc/elements/1.1/" xmlns:rdf="http://www.w3.org/1999/02/22-rdf-syntax-ns#">
   <cc:Work>
    <dc:type rdf:resource="http://purl.org/dc/dcmitype/StillImage"/>
    <dc:date>2021-06-28T13:56:38.696456</dc:date>
    <dc:format>image/svg+xml</dc:format>
    <dc:creator>
     <cc:Agent>
      <dc:title>Matplotlib v3.4.1, https://matplotlib.org/</dc:title>
     </cc:Agent>
    </dc:creator>
   </cc:Work>
  </rdf:RDF>
 </metadata>
 <defs>
  <style type="text/css">*{stroke-linecap:butt;stroke-linejoin:round;}</style>
 </defs>
 <g id="figure_1">
  <g id="patch_1">
   <path d="M 0 252 
L 576 252 
L 576 0 
L 0 0 
z
" style="fill:#ffffff;"/>
  </g>
  <g id="axes_1">
   <g id="patch_2">
    <path d="M 55.825 166.785937 
L 164.5875 166.785937 
L 164.5875 85.214062 
L 55.825 85.214062 
z
" style="fill:#ffffff;"/>
   </g>
   <g id="matplotlib.axis_1">
    <g id="xtick_1">
     <g id="line2d_1">
      <defs>
       <path d="M 0 0 
L 0 3.5 
" id="m48b98879de" style="stroke:#000000;stroke-width:0.8;"/>
      </defs>
      <g>
       <use style="stroke:#000000;stroke-width:0.8;" x="55.825" xlink:href="#m48b98879de" y="166.785937"/>
      </g>
     </g>
     <g id="text_1">
      <!-- 0 -->
      <g transform="translate(52.64375 181.384375)scale(0.1 -0.1)">
       <defs>
        <path d="M 2034 4250 
Q 1547 4250 1301 3770 
Q 1056 3291 1056 2328 
Q 1056 1369 1301 889 
Q 1547 409 2034 409 
Q 2525 409 2770 889 
Q 3016 1369 3016 2328 
Q 3016 3291 2770 3770 
Q 2525 4250 2034 4250 
z
M 2034 4750 
Q 2819 4750 3233 4129 
Q 3647 3509 3647 2328 
Q 3647 1150 3233 529 
Q 2819 -91 2034 -91 
Q 1250 -91 836 529 
Q 422 1150 422 2328 
Q 422 3509 836 4129 
Q 1250 4750 2034 4750 
z
" id="DejaVuSans-30" transform="scale(0.015625)"/>
       </defs>
       <use xlink:href="#DejaVuSans-30"/>
      </g>
     </g>
    </g>
    <g id="xtick_2">
     <g id="line2d_2">
      <g>
       <use style="stroke:#000000;stroke-width:0.8;" x="110.20625" xlink:href="#m48b98879de" y="166.785937"/>
      </g>
     </g>
     <g id="text_2">
      <!-- 10 -->
      <g transform="translate(103.84375 181.384375)scale(0.1 -0.1)">
       <defs>
        <path d="M 794 531 
L 1825 531 
L 1825 4091 
L 703 3866 
L 703 4441 
L 1819 4666 
L 2450 4666 
L 2450 531 
L 3481 531 
L 3481 0 
L 794 0 
L 794 531 
z
" id="DejaVuSans-31" transform="scale(0.015625)"/>
       </defs>
       <use xlink:href="#DejaVuSans-31"/>
       <use x="63.623047" xlink:href="#DejaVuSans-30"/>
      </g>
     </g>
    </g>
    <g id="xtick_3">
     <g id="line2d_3">
      <g>
       <use style="stroke:#000000;stroke-width:0.8;" x="164.5875" xlink:href="#m48b98879de" y="166.785937"/>
      </g>
     </g>
     <g id="text_3">
      <!-- 20 -->
      <g transform="translate(158.225 181.384375)scale(0.1 -0.1)">
       <defs>
        <path d="M 1228 531 
L 3431 531 
L 3431 0 
L 469 0 
L 469 531 
Q 828 903 1448 1529 
Q 2069 2156 2228 2338 
Q 2531 2678 2651 2914 
Q 2772 3150 2772 3378 
Q 2772 3750 2511 3984 
Q 2250 4219 1831 4219 
Q 1534 4219 1204 4116 
Q 875 4013 500 3803 
L 500 4441 
Q 881 4594 1212 4672 
Q 1544 4750 1819 4750 
Q 2544 4750 2975 4387 
Q 3406 4025 3406 3419 
Q 3406 3131 3298 2873 
Q 3191 2616 2906 2266 
Q 2828 2175 2409 1742 
Q 1991 1309 1228 531 
z
" id="DejaVuSans-32" transform="scale(0.015625)"/>
       </defs>
       <use xlink:href="#DejaVuSans-32"/>
       <use x="63.623047" xlink:href="#DejaVuSans-30"/>
      </g>
     </g>
    </g>
   </g>
   <g id="matplotlib.axis_2">
    <g id="ytick_1">
     <g id="line2d_4">
      <defs>
       <path d="M 0 0 
L -3.5 0 
" id="me176158d6c" style="stroke:#000000;stroke-width:0.8;"/>
      </defs>
      <g>
       <use style="stroke:#000000;stroke-width:0.8;" x="55.825" xlink:href="#me176158d6c" y="166.785937"/>
      </g>
     </g>
     <g id="text_4">
      <!-- 0 -->
      <g transform="translate(42.4625 170.585156)scale(0.1 -0.1)">
       <use xlink:href="#DejaVuSans-30"/>
      </g>
     </g>
    </g>
    <g id="ytick_2">
     <g id="line2d_5">
      <g>
       <use style="stroke:#000000;stroke-width:0.8;" x="55.825" xlink:href="#me176158d6c" y="139.595312"/>
      </g>
     </g>
     <g id="text_5">
      <!-- 5 -->
      <g transform="translate(42.4625 143.394531)scale(0.1 -0.1)">
       <defs>
        <path d="M 691 4666 
L 3169 4666 
L 3169 4134 
L 1269 4134 
L 1269 2991 
Q 1406 3038 1543 3061 
Q 1681 3084 1819 3084 
Q 2600 3084 3056 2656 
Q 3513 2228 3513 1497 
Q 3513 744 3044 326 
Q 2575 -91 1722 -91 
Q 1428 -91 1123 -41 
Q 819 9 494 109 
L 494 744 
Q 775 591 1075 516 
Q 1375 441 1709 441 
Q 2250 441 2565 725 
Q 2881 1009 2881 1497 
Q 2881 1984 2565 2268 
Q 2250 2553 1709 2553 
Q 1456 2553 1204 2497 
Q 953 2441 691 2322 
L 691 4666 
z
" id="DejaVuSans-35" transform="scale(0.015625)"/>
       </defs>
       <use xlink:href="#DejaVuSans-35"/>
      </g>
     </g>
    </g>
    <g id="ytick_3">
     <g id="line2d_6">
      <g>
       <use style="stroke:#000000;stroke-width:0.8;" x="55.825" xlink:href="#me176158d6c" y="112.404687"/>
      </g>
     </g>
     <g id="text_6">
      <!-- 10 -->
      <g transform="translate(36.1 116.203906)scale(0.1 -0.1)">
       <use xlink:href="#DejaVuSans-31"/>
       <use x="63.623047" xlink:href="#DejaVuSans-30"/>
      </g>
     </g>
    </g>
    <g id="ytick_4">
     <g id="line2d_7">
      <g>
       <use style="stroke:#000000;stroke-width:0.8;" x="55.825" xlink:href="#me176158d6c" y="85.214062"/>
      </g>
     </g>
     <g id="text_7">
      <!-- 15 -->
      <g transform="translate(36.1 89.013281)scale(0.1 -0.1)">
       <use xlink:href="#DejaVuSans-31"/>
       <use x="63.623047" xlink:href="#DejaVuSans-35"/>
      </g>
     </g>
    </g>
    <g id="text_8">
     <!-- Y -->
     <g transform="translate(30.020313 129.053906)rotate(-90)scale(0.1 -0.1)">
      <defs>
       <path d="M -13 4666 
L 666 4666 
L 1959 2747 
L 3244 4666 
L 3922 4666 
L 2272 2222 
L 2272 0 
L 1638 0 
L 1638 2222 
L -13 4666 
z
" id="DejaVuSans-59" transform="scale(0.015625)"/>
      </defs>
      <use xlink:href="#DejaVuSans-59"/>
     </g>
    </g>
   </g>
   <g id="line2d_8">
    <path clip-path="url(#p065d8e5156)" d="M 137.396875 123.280937 
L 137.261035 120.566405 
L 136.854873 117.878994 
L 136.182446 115.245558 
L 135.250474 112.692409 
L 134.068268 110.245057 
L 132.647641 107.927956 
L 131.002787 105.764256 
L 129.150141 103.775577 
L 127.108214 101.981789 
L 124.897407 100.400816 
L 122.539812 99.048452 
L 120.058984 97.938212 
L 117.47971 97.081188 
L 114.827763 96.485943 
L 112.129639 96.158425 
L 109.412297 96.101906 
L 106.702888 96.316952 
L 104.028483 96.801412 
L 101.415805 97.550447 
L 98.890957 98.556572 
L 96.479169 99.809735 
L 94.204537 101.297415 
L 92.089789 103.004747 
L 90.156054 104.914671 
L 88.422654 107.008106 
L 86.906909 109.264133 
L 85.623963 111.660211 
L 84.586636 114.1724 
L 83.805291 116.775599 
L 83.287735 119.443796 
L 83.039141 122.150333 
L 83.061991 124.868167 
L 83.356058 127.570142 
L 83.918403 130.22926 
L 84.743407 132.818953 
L 85.822828 135.313345 
L 87.14588 137.687513 
L 88.699344 139.917736 
L 90.467697 141.981729 
L 92.433271 143.85887 
L 94.576428 145.530404 
L 96.875752 146.979627 
L 99.30827 148.192062 
L 101.849677 149.155593 
L 104.47458 149.860592 
L 107.156753 150.300017 
L 109.869394 150.469476 
L 112.585402 150.367276 
L 115.277638 149.994438 
L 117.919202 149.354688 
L 120.483701 148.454417 
L 122.945511 147.302622 
L 125.280035 145.910809 
L 127.463946 144.292887 
L 129.475424 142.46502 
L 131.294371 140.445472 
L 132.902612 138.254422 
L 134.284079 135.913761 
L 135.424968 133.446878 
L 136.31388 130.87842 
L 136.941933 128.23405 
L 137.302852 125.54019 
L 137.393031 122.823757 
" style="fill:none;stroke:#1f77b4;stroke-linecap:square;stroke-width:1.5;"/>
   </g>
   <g id="patch_3">
    <path d="M 55.825 166.785937 
L 55.825 85.214062 
" style="fill:none;stroke:#000000;stroke-linecap:square;stroke-linejoin:miter;stroke-width:0.8;"/>
   </g>
   <g id="patch_4">
    <path d="M 164.5875 166.785937 
L 164.5875 85.214062 
" style="fill:none;stroke:#000000;stroke-linecap:square;stroke-linejoin:miter;stroke-width:0.8;"/>
   </g>
   <g id="patch_5">
    <path d="M 55.825 166.785937 
L 164.5875 166.785937 
" style="fill:none;stroke:#000000;stroke-linecap:square;stroke-linejoin:miter;stroke-width:0.8;"/>
   </g>
   <g id="patch_6">
    <path d="M 55.825 85.214062 
L 164.5875 85.214062 
" style="fill:none;stroke:#000000;stroke-linecap:square;stroke-linejoin:miter;stroke-width:0.8;"/>
   </g>
   <g id="text_9">
    <!-- Requested Path -->
    <g transform="translate(63.246875 79.214062)scale(0.12 -0.12)">
     <defs>
      <path d="M 2841 2188 
Q 3044 2119 3236 1894 
Q 3428 1669 3622 1275 
L 4263 0 
L 3584 0 
L 2988 1197 
Q 2756 1666 2539 1819 
Q 2322 1972 1947 1972 
L 1259 1972 
L 1259 0 
L 628 0 
L 628 4666 
L 2053 4666 
Q 2853 4666 3247 4331 
Q 3641 3997 3641 3322 
Q 3641 2881 3436 2590 
Q 3231 2300 2841 2188 
z
M 1259 4147 
L 1259 2491 
L 2053 2491 
Q 2509 2491 2742 2702 
Q 2975 2913 2975 3322 
Q 2975 3731 2742 3939 
Q 2509 4147 2053 4147 
L 1259 4147 
z
" id="DejaVuSans-52" transform="scale(0.015625)"/>
      <path d="M 3597 1894 
L 3597 1613 
L 953 1613 
Q 991 1019 1311 708 
Q 1631 397 2203 397 
Q 2534 397 2845 478 
Q 3156 559 3463 722 
L 3463 178 
Q 3153 47 2828 -22 
Q 2503 -91 2169 -91 
Q 1331 -91 842 396 
Q 353 884 353 1716 
Q 353 2575 817 3079 
Q 1281 3584 2069 3584 
Q 2775 3584 3186 3129 
Q 3597 2675 3597 1894 
z
M 3022 2063 
Q 3016 2534 2758 2815 
Q 2500 3097 2075 3097 
Q 1594 3097 1305 2825 
Q 1016 2553 972 2059 
L 3022 2063 
z
" id="DejaVuSans-65" transform="scale(0.015625)"/>
      <path d="M 947 1747 
Q 947 1113 1208 752 
Q 1469 391 1925 391 
Q 2381 391 2643 752 
Q 2906 1113 2906 1747 
Q 2906 2381 2643 2742 
Q 2381 3103 1925 3103 
Q 1469 3103 1208 2742 
Q 947 2381 947 1747 
z
M 2906 525 
Q 2725 213 2448 61 
Q 2172 -91 1784 -91 
Q 1150 -91 751 415 
Q 353 922 353 1747 
Q 353 2572 751 3078 
Q 1150 3584 1784 3584 
Q 2172 3584 2448 3432 
Q 2725 3281 2906 2969 
L 2906 3500 
L 3481 3500 
L 3481 -1331 
L 2906 -1331 
L 2906 525 
z
" id="DejaVuSans-71" transform="scale(0.015625)"/>
      <path d="M 544 1381 
L 544 3500 
L 1119 3500 
L 1119 1403 
Q 1119 906 1312 657 
Q 1506 409 1894 409 
Q 2359 409 2629 706 
Q 2900 1003 2900 1516 
L 2900 3500 
L 3475 3500 
L 3475 0 
L 2900 0 
L 2900 538 
Q 2691 219 2414 64 
Q 2138 -91 1772 -91 
Q 1169 -91 856 284 
Q 544 659 544 1381 
z
M 1991 3584 
L 1991 3584 
z
" id="DejaVuSans-75" transform="scale(0.015625)"/>
      <path d="M 2834 3397 
L 2834 2853 
Q 2591 2978 2328 3040 
Q 2066 3103 1784 3103 
Q 1356 3103 1142 2972 
Q 928 2841 928 2578 
Q 928 2378 1081 2264 
Q 1234 2150 1697 2047 
L 1894 2003 
Q 2506 1872 2764 1633 
Q 3022 1394 3022 966 
Q 3022 478 2636 193 
Q 2250 -91 1575 -91 
Q 1294 -91 989 -36 
Q 684 19 347 128 
L 347 722 
Q 666 556 975 473 
Q 1284 391 1588 391 
Q 1994 391 2212 530 
Q 2431 669 2431 922 
Q 2431 1156 2273 1281 
Q 2116 1406 1581 1522 
L 1381 1569 
Q 847 1681 609 1914 
Q 372 2147 372 2553 
Q 372 3047 722 3315 
Q 1072 3584 1716 3584 
Q 2034 3584 2315 3537 
Q 2597 3491 2834 3397 
z
" id="DejaVuSans-73" transform="scale(0.015625)"/>
      <path d="M 1172 4494 
L 1172 3500 
L 2356 3500 
L 2356 3053 
L 1172 3053 
L 1172 1153 
Q 1172 725 1289 603 
Q 1406 481 1766 481 
L 2356 481 
L 2356 0 
L 1766 0 
Q 1100 0 847 248 
Q 594 497 594 1153 
L 594 3053 
L 172 3053 
L 172 3500 
L 594 3500 
L 594 4494 
L 1172 4494 
z
" id="DejaVuSans-74" transform="scale(0.015625)"/>
      <path d="M 2906 2969 
L 2906 4863 
L 3481 4863 
L 3481 0 
L 2906 0 
L 2906 525 
Q 2725 213 2448 61 
Q 2172 -91 1784 -91 
Q 1150 -91 751 415 
Q 353 922 353 1747 
Q 353 2572 751 3078 
Q 1150 3584 1784 3584 
Q 2172 3584 2448 3432 
Q 2725 3281 2906 2969 
z
M 947 1747 
Q 947 1113 1208 752 
Q 1469 391 1925 391 
Q 2381 391 2643 752 
Q 2906 1113 2906 1747 
Q 2906 2381 2643 2742 
Q 2381 3103 1925 3103 
Q 1469 3103 1208 2742 
Q 947 2381 947 1747 
z
" id="DejaVuSans-64" transform="scale(0.015625)"/>
      <path id="DejaVuSans-20" transform="scale(0.015625)"/>
      <path d="M 1259 4147 
L 1259 2394 
L 2053 2394 
Q 2494 2394 2734 2622 
Q 2975 2850 2975 3272 
Q 2975 3691 2734 3919 
Q 2494 4147 2053 4147 
L 1259 4147 
z
M 628 4666 
L 2053 4666 
Q 2838 4666 3239 4311 
Q 3641 3956 3641 3272 
Q 3641 2581 3239 2228 
Q 2838 1875 2053 1875 
L 1259 1875 
L 1259 0 
L 628 0 
L 628 4666 
z
" id="DejaVuSans-50" transform="scale(0.015625)"/>
      <path d="M 2194 1759 
Q 1497 1759 1228 1600 
Q 959 1441 959 1056 
Q 959 750 1161 570 
Q 1363 391 1709 391 
Q 2188 391 2477 730 
Q 2766 1069 2766 1631 
L 2766 1759 
L 2194 1759 
z
M 3341 1997 
L 3341 0 
L 2766 0 
L 2766 531 
Q 2569 213 2275 61 
Q 1981 -91 1556 -91 
Q 1019 -91 701 211 
Q 384 513 384 1019 
Q 384 1609 779 1909 
Q 1175 2209 1959 2209 
L 2766 2209 
L 2766 2266 
Q 2766 2663 2505 2880 
Q 2244 3097 1772 3097 
Q 1472 3097 1187 3025 
Q 903 2953 641 2809 
L 641 3341 
Q 956 3463 1253 3523 
Q 1550 3584 1831 3584 
Q 2591 3584 2966 3190 
Q 3341 2797 3341 1997 
z
" id="DejaVuSans-61" transform="scale(0.015625)"/>
      <path d="M 3513 2113 
L 3513 0 
L 2938 0 
L 2938 2094 
Q 2938 2591 2744 2837 
Q 2550 3084 2163 3084 
Q 1697 3084 1428 2787 
Q 1159 2491 1159 1978 
L 1159 0 
L 581 0 
L 581 4863 
L 1159 4863 
L 1159 2956 
Q 1366 3272 1645 3428 
Q 1925 3584 2291 3584 
Q 2894 3584 3203 3211 
Q 3513 2838 3513 2113 
z
" id="DejaVuSans-68" transform="scale(0.015625)"/>
     </defs>
     <use xlink:href="#DejaVuSans-52"/>
     <use x="64.982422" xlink:href="#DejaVuSans-65"/>
     <use x="126.505859" xlink:href="#DejaVuSans-71"/>
     <use x="189.982422" xlink:href="#DejaVuSans-75"/>
     <use x="253.361328" xlink:href="#DejaVuSans-65"/>
     <use x="314.884766" xlink:href="#DejaVuSans-73"/>
     <use x="366.984375" xlink:href="#DejaVuSans-74"/>
     <use x="406.193359" xlink:href="#DejaVuSans-65"/>
     <use x="467.716797" xlink:href="#DejaVuSans-64"/>
     <use x="531.193359" xlink:href="#DejaVuSans-20"/>
     <use x="562.980469" xlink:href="#DejaVuSans-50"/>
     <use x="618.783203" xlink:href="#DejaVuSans-61"/>
     <use x="680.0625" xlink:href="#DejaVuSans-74"/>
     <use x="719.271484" xlink:href="#DejaVuSans-68"/>
    </g>
   </g>
  </g>
  <g id="axes_2">
   <g id="patch_7">
    <path d="M 250.7875 180.38125 
L 359.55 180.38125 
L 359.55 71.61875 
L 250.7875 71.61875 
z
" style="fill:#ffffff;"/>
   </g>
   <g id="matplotlib.axis_3">
    <g id="xtick_4">
     <g id="line2d_9">
      <g>
       <use style="stroke:#000000;stroke-width:0.8;" x="272.54" xlink:href="#m48b98879de" y="180.38125"/>
      </g>
     </g>
     <g id="text_10">
      <!-- 1.0 -->
      <g transform="translate(264.588437 194.979687)scale(0.1 -0.1)">
       <defs>
        <path d="M 684 794 
L 1344 794 
L 1344 0 
L 684 0 
L 684 794 
z
" id="DejaVuSans-2e" transform="scale(0.015625)"/>
       </defs>
       <use xlink:href="#DejaVuSans-31"/>
       <use x="63.623047" xlink:href="#DejaVuSans-2e"/>
       <use x="95.410156" xlink:href="#DejaVuSans-30"/>
      </g>
     </g>
    </g>
    <g id="xtick_5">
     <g id="line2d_10">
      <g>
       <use style="stroke:#000000;stroke-width:0.8;" x="316.045" xlink:href="#m48b98879de" y="180.38125"/>
      </g>
     </g>
     <g id="text_11">
      <!-- 1.5 -->
      <g transform="translate(308.093437 194.979687)scale(0.1 -0.1)">
       <use xlink:href="#DejaVuSans-31"/>
       <use x="63.623047" xlink:href="#DejaVuSans-2e"/>
       <use x="95.410156" xlink:href="#DejaVuSans-35"/>
      </g>
     </g>
    </g>
    <g id="xtick_6">
     <g id="line2d_11">
      <g>
       <use style="stroke:#000000;stroke-width:0.8;" x="359.55" xlink:href="#m48b98879de" y="180.38125"/>
      </g>
     </g>
     <g id="text_12">
      <!-- 2.0 -->
      <g transform="translate(351.598437 194.979687)scale(0.1 -0.1)">
       <use xlink:href="#DejaVuSans-32"/>
       <use x="63.623047" xlink:href="#DejaVuSans-2e"/>
       <use x="95.410156" xlink:href="#DejaVuSans-30"/>
      </g>
     </g>
    </g>
    <g id="text_13">
     <!-- Theta1 -->
     <g transform="translate(287.664062 208.657812)scale(0.1 -0.1)">
      <defs>
       <path d="M -19 4666 
L 3928 4666 
L 3928 4134 
L 2272 4134 
L 2272 0 
L 1638 0 
L 1638 4134 
L -19 4134 
L -19 4666 
z
" id="DejaVuSans-54" transform="scale(0.015625)"/>
      </defs>
      <use xlink:href="#DejaVuSans-54"/>
      <use x="61.083984" xlink:href="#DejaVuSans-68"/>
      <use x="124.462891" xlink:href="#DejaVuSans-65"/>
      <use x="185.986328" xlink:href="#DejaVuSans-74"/>
      <use x="225.195312" xlink:href="#DejaVuSans-61"/>
      <use x="286.474609" xlink:href="#DejaVuSans-31"/>
     </g>
    </g>
   </g>
   <g id="matplotlib.axis_4">
    <g id="ytick_5">
     <g id="line2d_12">
      <g>
       <use style="stroke:#000000;stroke-width:0.8;" x="250.7875" xlink:href="#me176158d6c" y="180.38125"/>
      </g>
     </g>
     <g id="text_14">
      <!-- −2.75 -->
      <g transform="translate(213.142188 184.180469)scale(0.1 -0.1)">
       <defs>
        <path d="M 678 2272 
L 4684 2272 
L 4684 1741 
L 678 1741 
L 678 2272 
z
" id="DejaVuSans-2212" transform="scale(0.015625)"/>
        <path d="M 525 4666 
L 3525 4666 
L 3525 4397 
L 1831 0 
L 1172 0 
L 2766 4134 
L 525 4134 
L 525 4666 
z
" id="DejaVuSans-37" transform="scale(0.015625)"/>
       </defs>
       <use xlink:href="#DejaVuSans-2212"/>
       <use x="83.789062" xlink:href="#DejaVuSans-32"/>
       <use x="147.412109" xlink:href="#DejaVuSans-2e"/>
       <use x="179.199219" xlink:href="#DejaVuSans-37"/>
       <use x="242.822266" xlink:href="#DejaVuSans-35"/>
      </g>
     </g>
    </g>
    <g id="ytick_6">
     <g id="line2d_13">
      <g>
       <use style="stroke:#000000;stroke-width:0.8;" x="250.7875" xlink:href="#me176158d6c" y="158.62875"/>
      </g>
     </g>
     <g id="text_15">
      <!-- −2.50 -->
      <g transform="translate(213.142188 162.427969)scale(0.1 -0.1)">
       <use xlink:href="#DejaVuSans-2212"/>
       <use x="83.789062" xlink:href="#DejaVuSans-32"/>
       <use x="147.412109" xlink:href="#DejaVuSans-2e"/>
       <use x="179.199219" xlink:href="#DejaVuSans-35"/>
       <use x="242.822266" xlink:href="#DejaVuSans-30"/>
      </g>
     </g>
    </g>
    <g id="ytick_7">
     <g id="line2d_14">
      <g>
       <use style="stroke:#000000;stroke-width:0.8;" x="250.7875" xlink:href="#me176158d6c" y="136.87625"/>
      </g>
     </g>
     <g id="text_16">
      <!-- −2.25 -->
      <g transform="translate(213.142188 140.675469)scale(0.1 -0.1)">
       <use xlink:href="#DejaVuSans-2212"/>
       <use x="83.789062" xlink:href="#DejaVuSans-32"/>
       <use x="147.412109" xlink:href="#DejaVuSans-2e"/>
       <use x="179.199219" xlink:href="#DejaVuSans-32"/>
       <use x="242.822266" xlink:href="#DejaVuSans-35"/>
      </g>
     </g>
    </g>
    <g id="ytick_8">
     <g id="line2d_15">
      <g>
       <use style="stroke:#000000;stroke-width:0.8;" x="250.7875" xlink:href="#me176158d6c" y="115.12375"/>
      </g>
     </g>
     <g id="text_17">
      <!-- −2.00 -->
      <g transform="translate(213.142188 118.922969)scale(0.1 -0.1)">
       <use xlink:href="#DejaVuSans-2212"/>
       <use x="83.789062" xlink:href="#DejaVuSans-32"/>
       <use x="147.412109" xlink:href="#DejaVuSans-2e"/>
       <use x="179.199219" xlink:href="#DejaVuSans-30"/>
       <use x="242.822266" xlink:href="#DejaVuSans-30"/>
      </g>
     </g>
    </g>
    <g id="ytick_9">
     <g id="line2d_16">
      <g>
       <use style="stroke:#000000;stroke-width:0.8;" x="250.7875" xlink:href="#me176158d6c" y="93.37125"/>
      </g>
     </g>
     <g id="text_18">
      <!-- −1.75 -->
      <g transform="translate(213.142188 97.170469)scale(0.1 -0.1)">
       <use xlink:href="#DejaVuSans-2212"/>
       <use x="83.789062" xlink:href="#DejaVuSans-31"/>
       <use x="147.412109" xlink:href="#DejaVuSans-2e"/>
       <use x="179.199219" xlink:href="#DejaVuSans-37"/>
       <use x="242.822266" xlink:href="#DejaVuSans-35"/>
      </g>
     </g>
    </g>
    <g id="ytick_10">
     <g id="line2d_17">
      <g>
       <use style="stroke:#000000;stroke-width:0.8;" x="250.7875" xlink:href="#me176158d6c" y="71.61875"/>
      </g>
     </g>
     <g id="text_19">
      <!-- −1.50 -->
      <g transform="translate(213.142188 75.417969)scale(0.1 -0.1)">
       <use xlink:href="#DejaVuSans-2212"/>
       <use x="83.789062" xlink:href="#DejaVuSans-31"/>
       <use x="147.412109" xlink:href="#DejaVuSans-2e"/>
       <use x="179.199219" xlink:href="#DejaVuSans-35"/>
       <use x="242.822266" xlink:href="#DejaVuSans-30"/>
      </g>
     </g>
    </g>
    <g id="text_20">
     <!-- Theta2 -->
     <g transform="translate(207.0625 143.504687)rotate(-90)scale(0.1 -0.1)">
      <use xlink:href="#DejaVuSans-54"/>
      <use x="61.083984" xlink:href="#DejaVuSans-68"/>
      <use x="124.462891" xlink:href="#DejaVuSans-65"/>
      <use x="185.986328" xlink:href="#DejaVuSans-74"/>
      <use x="225.195312" xlink:href="#DejaVuSans-61"/>
      <use x="286.474609" xlink:href="#DejaVuSans-32"/>
     </g>
    </g>
   </g>
   <g id="line2d_18">
    <path clip-path="url(#p1b6c3b1def)" d="M 282.423119 88.245161 
L 284.082662 86.060934 
L 285.871871 84.194227 
L 287.790792 82.661034 
L 289.838497 81.475 
L 292.012817 80.647021 
L 294.310093 80.184883 
L 296.724963 80.093003 
L 299.250192 80.372265 
L 301.876555 81.019987 
L 304.592754 82.030024 
L 307.385387 83.39298 
L 310.238932 85.09652 
L 313.135752 87.125762 
L 316.05609 89.463688 
L 318.978043 92.091575 
L 321.877499 94.989391 
L 324.728023 98.136144 
L 327.500681 101.510162 
L 330.163798 105.089295 
L 332.682642 108.851029 
L 335.019054 112.772503 
L 337.131018 116.830434 
L 338.972222 121.000931 
L 340.491646 125.259197 
L 341.633285 129.579097 
L 342.336135 133.93258 
L 342.534702 138.288908 
L 342.160364 142.613673 
L 341.144121 146.867567 
L 339.421361 151.004882 
L 336.939446 154.971786 
L 333.668671 158.704553 
L 329.616544 162.128138 
L 324.843656 165.155942 
L 319.476807 167.692041 
L 313.712196 169.637489 
L 307.800988 170.901639 
L 302.014727 171.417241 
L 296.599014 171.154711 
L 291.733333 170.129277 
L 287.513191 168.397234 
L 283.957516 166.043328 
L 281.031349 163.165279 
L 278.670864 159.860929 
L 276.802732 156.220337 
L 275.355913 152.322382 
L 274.267363 148.234368 
L 273.4839 144.013172 
L 272.962029 139.706957 
L 272.666903 135.356946 
L 272.571017 130.998997 
L 272.652944 126.664927 
L 272.896231 122.383573 
L 273.288468 118.181623 
L 273.820531 114.084255 
L 274.485965 110.115619 
L 275.280474 106.29917 
L 276.201501 102.657894 
L 277.247858 99.214416 
L 278.419406 95.991012 
L 279.716742 93.009528 
L 281.140914 90.291206 
L 282.693122 87.856428 
" style="fill:none;stroke:#1f77b4;stroke-linecap:square;stroke-width:1.5;"/>
   </g>
   <g id="patch_8">
    <path d="M 250.7875 180.38125 
L 250.7875 71.61875 
" style="fill:none;stroke:#000000;stroke-linecap:square;stroke-linejoin:miter;stroke-width:0.8;"/>
   </g>
   <g id="patch_9">
    <path d="M 359.55 180.38125 
L 359.55 71.61875 
" style="fill:none;stroke:#000000;stroke-linecap:square;stroke-linejoin:miter;stroke-width:0.8;"/>
   </g>
   <g id="patch_10">
    <path d="M 250.7875 180.38125 
L 359.55 180.38125 
" style="fill:none;stroke:#000000;stroke-linecap:square;stroke-linejoin:miter;stroke-width:0.8;"/>
   </g>
   <g id="patch_11">
    <path d="M 250.7875 71.61875 
L 359.55 71.61875 
" style="fill:none;stroke:#000000;stroke-linecap:square;stroke-linejoin:miter;stroke-width:0.8;"/>
   </g>
   <g id="text_21">
    <!-- Joint Angles for Path -->
    <g transform="translate(244.555625 65.61875)scale(0.12 -0.12)">
     <defs>
      <path d="M 628 4666 
L 1259 4666 
L 1259 325 
Q 1259 -519 939 -900 
Q 619 -1281 -91 -1281 
L -331 -1281 
L -331 -750 
L -134 -750 
Q 284 -750 456 -515 
Q 628 -281 628 325 
L 628 4666 
z
" id="DejaVuSans-4a" transform="scale(0.015625)"/>
      <path d="M 1959 3097 
Q 1497 3097 1228 2736 
Q 959 2375 959 1747 
Q 959 1119 1226 758 
Q 1494 397 1959 397 
Q 2419 397 2687 759 
Q 2956 1122 2956 1747 
Q 2956 2369 2687 2733 
Q 2419 3097 1959 3097 
z
M 1959 3584 
Q 2709 3584 3137 3096 
Q 3566 2609 3566 1747 
Q 3566 888 3137 398 
Q 2709 -91 1959 -91 
Q 1206 -91 779 398 
Q 353 888 353 1747 
Q 353 2609 779 3096 
Q 1206 3584 1959 3584 
z
" id="DejaVuSans-6f" transform="scale(0.015625)"/>
      <path d="M 603 3500 
L 1178 3500 
L 1178 0 
L 603 0 
L 603 3500 
z
M 603 4863 
L 1178 4863 
L 1178 4134 
L 603 4134 
L 603 4863 
z
" id="DejaVuSans-69" transform="scale(0.015625)"/>
      <path d="M 3513 2113 
L 3513 0 
L 2938 0 
L 2938 2094 
Q 2938 2591 2744 2837 
Q 2550 3084 2163 3084 
Q 1697 3084 1428 2787 
Q 1159 2491 1159 1978 
L 1159 0 
L 581 0 
L 581 3500 
L 1159 3500 
L 1159 2956 
Q 1366 3272 1645 3428 
Q 1925 3584 2291 3584 
Q 2894 3584 3203 3211 
Q 3513 2838 3513 2113 
z
" id="DejaVuSans-6e" transform="scale(0.015625)"/>
      <path d="M 2188 4044 
L 1331 1722 
L 3047 1722 
L 2188 4044 
z
M 1831 4666 
L 2547 4666 
L 4325 0 
L 3669 0 
L 3244 1197 
L 1141 1197 
L 716 0 
L 50 0 
L 1831 4666 
z
" id="DejaVuSans-41" transform="scale(0.015625)"/>
      <path d="M 2906 1791 
Q 2906 2416 2648 2759 
Q 2391 3103 1925 3103 
Q 1463 3103 1205 2759 
Q 947 2416 947 1791 
Q 947 1169 1205 825 
Q 1463 481 1925 481 
Q 2391 481 2648 825 
Q 2906 1169 2906 1791 
z
M 3481 434 
Q 3481 -459 3084 -895 
Q 2688 -1331 1869 -1331 
Q 1566 -1331 1297 -1286 
Q 1028 -1241 775 -1147 
L 775 -588 
Q 1028 -725 1275 -790 
Q 1522 -856 1778 -856 
Q 2344 -856 2625 -561 
Q 2906 -266 2906 331 
L 2906 616 
Q 2728 306 2450 153 
Q 2172 0 1784 0 
Q 1141 0 747 490 
Q 353 981 353 1791 
Q 353 2603 747 3093 
Q 1141 3584 1784 3584 
Q 2172 3584 2450 3431 
Q 2728 3278 2906 2969 
L 2906 3500 
L 3481 3500 
L 3481 434 
z
" id="DejaVuSans-67" transform="scale(0.015625)"/>
      <path d="M 603 4863 
L 1178 4863 
L 1178 0 
L 603 0 
L 603 4863 
z
" id="DejaVuSans-6c" transform="scale(0.015625)"/>
      <path d="M 2375 4863 
L 2375 4384 
L 1825 4384 
Q 1516 4384 1395 4259 
Q 1275 4134 1275 3809 
L 1275 3500 
L 2222 3500 
L 2222 3053 
L 1275 3053 
L 1275 0 
L 697 0 
L 697 3053 
L 147 3053 
L 147 3500 
L 697 3500 
L 697 3744 
Q 697 4328 969 4595 
Q 1241 4863 1831 4863 
L 2375 4863 
z
" id="DejaVuSans-66" transform="scale(0.015625)"/>
      <path d="M 2631 2963 
Q 2534 3019 2420 3045 
Q 2306 3072 2169 3072 
Q 1681 3072 1420 2755 
Q 1159 2438 1159 1844 
L 1159 0 
L 581 0 
L 581 3500 
L 1159 3500 
L 1159 2956 
Q 1341 3275 1631 3429 
Q 1922 3584 2338 3584 
Q 2397 3584 2469 3576 
Q 2541 3569 2628 3553 
L 2631 2963 
z
" id="DejaVuSans-72" transform="scale(0.015625)"/>
     </defs>
     <use xlink:href="#DejaVuSans-4a"/>
     <use x="29.492188" xlink:href="#DejaVuSans-6f"/>
     <use x="90.673828" xlink:href="#DejaVuSans-69"/>
     <use x="118.457031" xlink:href="#DejaVuSans-6e"/>
     <use x="181.835938" xlink:href="#DejaVuSans-74"/>
     <use x="221.044922" xlink:href="#DejaVuSans-20"/>
     <use x="252.832031" xlink:href="#DejaVuSans-41"/>
     <use x="321.240234" xlink:href="#DejaVuSans-6e"/>
     <use x="384.619141" xlink:href="#DejaVuSans-67"/>
     <use x="448.095703" xlink:href="#DejaVuSans-6c"/>
     <use x="475.878906" xlink:href="#DejaVuSans-65"/>
     <use x="537.402344" xlink:href="#DejaVuSans-73"/>
     <use x="589.501953" xlink:href="#DejaVuSans-20"/>
     <use x="621.289062" xlink:href="#DejaVuSans-66"/>
     <use x="656.494141" xlink:href="#DejaVuSans-6f"/>
     <use x="717.675781" xlink:href="#DejaVuSans-72"/>
     <use x="758.789062" xlink:href="#DejaVuSans-20"/>
     <use x="790.576172" xlink:href="#DejaVuSans-50"/>
     <use x="846.378906" xlink:href="#DejaVuSans-61"/>
     <use x="907.658203" xlink:href="#DejaVuSans-74"/>
     <use x="946.867188" xlink:href="#DejaVuSans-68"/>
    </g>
   </g>
  </g>
  <g id="axes_3">
   <g id="patch_12">
    <path d="M 445.75 166.785937 
L 554.5125 166.785937 
L 554.5125 85.214062 
L 445.75 85.214062 
z
" style="fill:#ffffff;"/>
   </g>
   <g id="matplotlib.axis_5">
    <g id="xtick_7">
     <g id="line2d_19">
      <g>
       <use style="stroke:#000000;stroke-width:0.8;" x="445.75" xlink:href="#m48b98879de" y="166.785937"/>
      </g>
     </g>
     <g id="text_22">
      <!-- 0 -->
      <g transform="translate(442.56875 181.384375)scale(0.1 -0.1)">
       <use xlink:href="#DejaVuSans-30"/>
      </g>
     </g>
    </g>
    <g id="xtick_8">
     <g id="line2d_20">
      <g>
       <use style="stroke:#000000;stroke-width:0.8;" x="500.13125" xlink:href="#m48b98879de" y="166.785937"/>
      </g>
     </g>
     <g id="text_23">
      <!-- 10 -->
      <g transform="translate(493.76875 181.384375)scale(0.1 -0.1)">
       <use xlink:href="#DejaVuSans-31"/>
       <use x="63.623047" xlink:href="#DejaVuSans-30"/>
      </g>
     </g>
    </g>
    <g id="xtick_9">
     <g id="line2d_21">
      <g>
       <use style="stroke:#000000;stroke-width:0.8;" x="554.5125" xlink:href="#m48b98879de" y="166.785937"/>
      </g>
     </g>
     <g id="text_24">
      <!-- 20 -->
      <g transform="translate(548.15 181.384375)scale(0.1 -0.1)">
       <use xlink:href="#DejaVuSans-32"/>
       <use x="63.623047" xlink:href="#DejaVuSans-30"/>
      </g>
     </g>
    </g>
    <g id="text_25">
     <!-- X -->
     <g transform="translate(496.70625 195.0625)scale(0.1 -0.1)">
      <defs>
       <path d="M 403 4666 
L 1081 4666 
L 2241 2931 
L 3406 4666 
L 4084 4666 
L 2584 2425 
L 4184 0 
L 3506 0 
L 2194 1984 
L 872 0 
L 191 0 
L 1856 2491 
L 403 4666 
z
" id="DejaVuSans-58" transform="scale(0.015625)"/>
      </defs>
      <use xlink:href="#DejaVuSans-58"/>
     </g>
    </g>
   </g>
   <g id="matplotlib.axis_6">
    <g id="ytick_11">
     <g id="line2d_22">
      <g>
       <use style="stroke:#000000;stroke-width:0.8;" x="445.75" xlink:href="#me176158d6c" y="166.785937"/>
      </g>
     </g>
     <g id="text_26">
      <!-- 0 -->
      <g transform="translate(432.3875 170.585156)scale(0.1 -0.1)">
       <use xlink:href="#DejaVuSans-30"/>
      </g>
     </g>
    </g>
    <g id="ytick_12">
     <g id="line2d_23">
      <g>
       <use style="stroke:#000000;stroke-width:0.8;" x="445.75" xlink:href="#me176158d6c" y="139.595312"/>
      </g>
     </g>
     <g id="text_27">
      <!-- 5 -->
      <g transform="translate(432.3875 143.394531)scale(0.1 -0.1)">
       <use xlink:href="#DejaVuSans-35"/>
      </g>
     </g>
    </g>
    <g id="ytick_13">
     <g id="line2d_24">
      <g>
       <use style="stroke:#000000;stroke-width:0.8;" x="445.75" xlink:href="#me176158d6c" y="112.404687"/>
      </g>
     </g>
     <g id="text_28">
      <!-- 10 -->
      <g transform="translate(426.025 116.203906)scale(0.1 -0.1)">
       <use xlink:href="#DejaVuSans-31"/>
       <use x="63.623047" xlink:href="#DejaVuSans-30"/>
      </g>
     </g>
    </g>
    <g id="ytick_14">
     <g id="line2d_25">
      <g>
       <use style="stroke:#000000;stroke-width:0.8;" x="445.75" xlink:href="#me176158d6c" y="85.214062"/>
      </g>
     </g>
     <g id="text_29">
      <!-- 15 -->
      <g transform="translate(426.025 89.013281)scale(0.1 -0.1)">
       <use xlink:href="#DejaVuSans-31"/>
       <use x="63.623047" xlink:href="#DejaVuSans-35"/>
      </g>
     </g>
    </g>
    <g id="text_30">
     <!-- Y -->
     <g transform="translate(419.945312 129.053906)rotate(-90)scale(0.1 -0.1)">
      <use xlink:href="#DejaVuSans-59"/>
     </g>
    </g>
   </g>
   <g id="line2d_26">
    <path clip-path="url(#p2b9914e25a)" d="M 527.321875 123.280937 
L 527.186035 120.566405 
L 526.779873 117.878994 
L 526.107446 115.245558 
L 525.175474 112.692409 
L 523.993268 110.245057 
L 522.572641 107.927956 
L 520.927787 105.764256 
L 519.075141 103.775577 
L 517.033214 101.981789 
L 514.822407 100.400816 
L 512.464812 99.048452 
L 509.983984 97.938212 
L 507.40471 97.081188 
L 504.752763 96.485943 
L 502.054639 96.158425 
L 499.337297 96.101906 
L 496.627888 96.316952 
L 493.953483 96.801412 
L 491.340805 97.550447 
L 488.815957 98.556572 
L 486.404169 99.809735 
L 484.129537 101.297415 
L 482.014789 103.004747 
L 480.081054 104.914671 
L 478.347654 107.008106 
L 476.831909 109.264133 
L 475.548963 111.660211 
L 474.511636 114.1724 
L 473.730291 116.775599 
L 473.212735 119.443796 
L 472.964141 122.150333 
L 472.986991 124.868167 
L 473.281058 127.570142 
L 473.843403 130.22926 
L 474.668407 132.818953 
L 475.747828 135.313345 
L 477.07088 137.687513 
L 478.624344 139.917736 
L 480.392697 141.981729 
L 482.358271 143.85887 
L 484.501428 145.530404 
L 486.800752 146.979627 
L 489.23327 148.192062 
L 491.774677 149.155593 
L 494.39958 149.860592 
L 497.081753 150.300017 
L 499.794394 150.469476 
L 502.510402 150.367276 
L 505.202638 149.994438 
L 507.844202 149.354688 
L 510.408701 148.454417 
L 512.870511 147.302622 
L 515.205035 145.910809 
L 517.388946 144.292887 
L 519.400424 142.46502 
L 521.219371 140.445472 
L 522.827612 138.254422 
L 524.209079 135.913761 
L 525.349968 133.446878 
L 526.23888 130.87842 
L 526.866933 128.23405 
L 527.227852 125.54019 
L 527.318031 122.823757 
" style="fill:none;stroke:#1f77b4;stroke-linecap:square;stroke-width:1.5;"/>
   </g>
   <g id="patch_13">
    <path d="M 445.75 166.785937 
L 445.75 85.214062 
" style="fill:none;stroke:#000000;stroke-linecap:square;stroke-linejoin:miter;stroke-width:0.8;"/>
   </g>
   <g id="patch_14">
    <path d="M 554.5125 166.785937 
L 554.5125 85.214062 
" style="fill:none;stroke:#000000;stroke-linecap:square;stroke-linejoin:miter;stroke-width:0.8;"/>
   </g>
   <g id="patch_15">
    <path d="M 445.75 166.785937 
L 554.5125 166.785937 
" style="fill:none;stroke:#000000;stroke-linecap:square;stroke-linejoin:miter;stroke-width:0.8;"/>
   </g>
   <g id="patch_16">
    <path d="M 445.75 85.214062 
L 554.5125 85.214062 
" style="fill:none;stroke:#000000;stroke-linecap:square;stroke-linejoin:miter;stroke-width:0.8;"/>
   </g>
   <g id="text_31">
    <!-- Traversed Path -->
    <g transform="translate(455.785625 79.214062)scale(0.12 -0.12)">
     <defs>
      <path d="M 191 3500 
L 800 3500 
L 1894 563 
L 2988 3500 
L 3597 3500 
L 2284 0 
L 1503 0 
L 191 3500 
z
" id="DejaVuSans-76" transform="scale(0.015625)"/>
     </defs>
     <use xlink:href="#DejaVuSans-54"/>
     <use x="46.333984" xlink:href="#DejaVuSans-72"/>
     <use x="87.447266" xlink:href="#DejaVuSans-61"/>
     <use x="148.726562" xlink:href="#DejaVuSans-76"/>
     <use x="207.90625" xlink:href="#DejaVuSans-65"/>
     <use x="269.429688" xlink:href="#DejaVuSans-72"/>
     <use x="310.542969" xlink:href="#DejaVuSans-73"/>
     <use x="362.642578" xlink:href="#DejaVuSans-65"/>
     <use x="424.166016" xlink:href="#DejaVuSans-64"/>
     <use x="487.642578" xlink:href="#DejaVuSans-20"/>
     <use x="519.429688" xlink:href="#DejaVuSans-50"/>
     <use x="575.232422" xlink:href="#DejaVuSans-61"/>
     <use x="636.511719" xlink:href="#DejaVuSans-74"/>
     <use x="675.720703" xlink:href="#DejaVuSans-68"/>
    </g>
   </g>
  </g>
  <g id="text_32">
   <!-- Output for circle trace -->
   <g transform="translate(221.745937 14.158125)scale(0.12 -0.12)">
    <defs>
     <path d="M 2522 4238 
Q 1834 4238 1429 3725 
Q 1025 3213 1025 2328 
Q 1025 1447 1429 934 
Q 1834 422 2522 422 
Q 3209 422 3611 934 
Q 4013 1447 4013 2328 
Q 4013 3213 3611 3725 
Q 3209 4238 2522 4238 
z
M 2522 4750 
Q 3503 4750 4090 4092 
Q 4678 3434 4678 2328 
Q 4678 1225 4090 567 
Q 3503 -91 2522 -91 
Q 1538 -91 948 565 
Q 359 1222 359 2328 
Q 359 3434 948 4092 
Q 1538 4750 2522 4750 
z
" id="DejaVuSans-4f" transform="scale(0.015625)"/>
     <path d="M 1159 525 
L 1159 -1331 
L 581 -1331 
L 581 3500 
L 1159 3500 
L 1159 2969 
Q 1341 3281 1617 3432 
Q 1894 3584 2278 3584 
Q 2916 3584 3314 3078 
Q 3713 2572 3713 1747 
Q 3713 922 3314 415 
Q 2916 -91 2278 -91 
Q 1894 -91 1617 61 
Q 1341 213 1159 525 
z
M 3116 1747 
Q 3116 2381 2855 2742 
Q 2594 3103 2138 3103 
Q 1681 3103 1420 2742 
Q 1159 2381 1159 1747 
Q 1159 1113 1420 752 
Q 1681 391 2138 391 
Q 2594 391 2855 752 
Q 3116 1113 3116 1747 
z
" id="DejaVuSans-70" transform="scale(0.015625)"/>
     <path d="M 3122 3366 
L 3122 2828 
Q 2878 2963 2633 3030 
Q 2388 3097 2138 3097 
Q 1578 3097 1268 2742 
Q 959 2388 959 1747 
Q 959 1106 1268 751 
Q 1578 397 2138 397 
Q 2388 397 2633 464 
Q 2878 531 3122 666 
L 3122 134 
Q 2881 22 2623 -34 
Q 2366 -91 2075 -91 
Q 1284 -91 818 406 
Q 353 903 353 1747 
Q 353 2603 823 3093 
Q 1294 3584 2113 3584 
Q 2378 3584 2631 3529 
Q 2884 3475 3122 3366 
z
" id="DejaVuSans-63" transform="scale(0.015625)"/>
    </defs>
    <use xlink:href="#DejaVuSans-4f"/>
    <use x="78.710938" xlink:href="#DejaVuSans-75"/>
    <use x="142.089844" xlink:href="#DejaVuSans-74"/>
    <use x="181.298828" xlink:href="#DejaVuSans-70"/>
    <use x="244.775391" xlink:href="#DejaVuSans-75"/>
    <use x="308.154297" xlink:href="#DejaVuSans-74"/>
    <use x="347.363281" xlink:href="#DejaVuSans-20"/>
    <use x="379.150391" xlink:href="#DejaVuSans-66"/>
    <use x="414.355469" xlink:href="#DejaVuSans-6f"/>
    <use x="475.537109" xlink:href="#DejaVuSans-72"/>
    <use x="516.650391" xlink:href="#DejaVuSans-20"/>
    <use x="548.4375" xlink:href="#DejaVuSans-63"/>
    <use x="603.417969" xlink:href="#DejaVuSans-69"/>
    <use x="631.201172" xlink:href="#DejaVuSans-72"/>
    <use x="670.064453" xlink:href="#DejaVuSans-63"/>
    <use x="725.044922" xlink:href="#DejaVuSans-6c"/>
    <use x="752.828125" xlink:href="#DejaVuSans-65"/>
    <use x="814.351562" xlink:href="#DejaVuSans-20"/>
    <use x="846.138672" xlink:href="#DejaVuSans-74"/>
    <use x="885.347656" xlink:href="#DejaVuSans-72"/>
    <use x="926.460938" xlink:href="#DejaVuSans-61"/>
    <use x="987.740234" xlink:href="#DejaVuSans-63"/>
    <use x="1042.720703" xlink:href="#DejaVuSans-65"/>
   </g>
  </g>
 </g>
 <defs>
  <clipPath id="p065d8e5156">
   <rect height="81.571875" width="108.7625" x="55.825" y="85.214062"/>
  </clipPath>
  <clipPath id="p1b6c3b1def">
   <rect height="108.7625" width="108.7625" x="250.7875" y="71.61875"/>
  </clipPath>
  <clipPath id="p2b9914e25a">
   <rect height="81.571875" width="108.7625" x="445.75" y="85.214062"/>
  </clipPath>
 </defs>
</svg>
