<?xml version="1.0" encoding="UTF-8" standalone="no"?>
<!DOCTYPE svg PUBLIC "-//W3C//DTD SVG 1.0//EN" "http://www.w3.org/TR/2001/PR-SVG-20010719/DTD/svg10.dtd">
<svg width="21cm" height="16cm" viewBox="133 -49 413 313" xmlns="http://www.w3.org/2000/svg" xmlns:xlink="http://www.w3.org/1999/xlink">
  <g>
    <path style="fill: none; fill-opacity:0; stroke-width: 10; stroke-linejoin: round; stroke: #ff0000" d="M 200.975,257.019 A 2,2 0 0 0 202.981,258.994"/>
    <line style="fill: none; fill-opacity:0; stroke-width: 10; stroke-linejoin: round; stroke: #ff0000" x1="200" y1="180" x2="200.975" y2="257.019"/>
    <path style="fill: none; fill-opacity:0; stroke-width: 10; stroke-linejoin: round; stroke: #ff0000" d="M 538.951,258.006 A 2,2 0 0 0 540.945,255.952"/>
    <line style="fill: none; fill-opacity:0; stroke-width: 10; stroke-linejoin: round; stroke: #ff0000" x1="202.981" y1="258.994" x2="538.951" y2="258.006"/>
    <line style="fill: none; fill-opacity:0; stroke-width: 10; stroke-linejoin: round; stroke: #ff0000" x1="540.945" y1="255.952" x2="540" y2="221"/>
  </g>
  <g>
    <ellipse style="fill: #00ff00" cx="139" cy="200" rx="4.5" ry="4"/>
    <ellipse style="fill: none; fill-opacity:0; stroke-width: 2; stroke-linejoin: round; stroke: #000000" cx="139" cy="200" rx="4.5" ry="4"/>
  </g>
  <g>
    <ellipse style="fill: #ff0000" cx="539" cy="201" rx="4.5" ry="4"/>
    <ellipse style="fill: none; fill-opacity:0; stroke-width: 2; stroke-linejoin: round; stroke: #000000" cx="539" cy="201" rx="4.5" ry="4"/>
  </g>
  <line style="fill: none; fill-opacity:0; stroke-width: 10; stroke-linejoin: round; stroke: #ff0000" x1="241" y1="-40" x2="241" y2="238"/>
  <line style="fill: none; fill-opacity:0; stroke-width: 10; stroke-linejoin: round; stroke: #ff0000" x1="281" y1="-40.3" x2="281" y2="237.7"/>
  <line style="fill: none; fill-opacity:0; stroke-width: 10; stroke-linejoin: round; stroke: #ff0000" x1="322" y1="-40.3" x2="322" y2="237.7"/>
  <line style="fill: none; fill-opacity:0; stroke-width: 2; stroke-linejoin: round; stroke: #d8e5e5" x1="144.493" y1="200.014" x2="533.507" y2="200.986"/>
  <text font-size="33.8667" style="fill: #000000;text-anchor:start;font-family:Utopia;font-style:normal;font-weight:normal" x="352" y="104">
    <tspan x="352" y="104">....</tspan>
  </text>
  <line style="fill: none; fill-opacity:0; stroke-width: 10; stroke-linejoin: round; stroke: #ff0000" x1="412" y1="-43" x2="412" y2="235"/>
  <line style="fill: none; fill-opacity:0; stroke-width: 10; stroke-linejoin: round; stroke: #ff0000" x1="452" y1="-43.3" x2="452" y2="234.7"/>
  <line style="fill: none; fill-opacity:0; stroke-width: 10; stroke-linejoin: round; stroke: #ff0000" x1="493" y1="-43.3" x2="493" y2="234.7"/>
</svg>
