<?xml version="1.0" encoding="UTF-8" standalone="no"?>
<!DOCTYPE svg PUBLIC "-//W3C//DTD SVG 1.0//EN" "http://www.w3.org/TR/2001/PR-SVG-20010719/DTD/svg10.dtd">
<svg width="55cm" height="16cm" viewBox="90 222 1099 304" xmlns="http://www.w3.org/2000/svg" xmlns:xlink="http://www.w3.org/1999/xlink">
  <g>
    <line style="fill: none; fill-opacity:0; stroke-width: 2; stroke: #d8e5e5" x1="144" y1="349" x2="423" y2="348"/>
    <path style="fill: #d8e5e5" d="M 144 349 C 143.991,346.5 146.482,343.991 148.982,343.982 C 151.482,343.973 153.991,346.464 154,348.964 C 154.009,351.464 151.518,353.973 149.018,353.982 C 146.518,353.991 144.009,351.5 144,349z"/>
    <path style="fill: none; fill-opacity:0; stroke-width: 2; stroke: #d8e5e5" d="M 144 349 C 143.991,346.5 146.482,343.991 148.982,343.982 C 151.482,343.973 153.991,346.464 154,348.964 C 154.009,351.464 151.518,353.973 149.018,353.982 C 146.518,353.991 144.009,351.5 144,349"/>
    <path style="fill: #d8e5e5" d="M 423 348 C 423.009,350.5 420.518,353.009 418.018,353.018 C 415.518,353.027 413.009,350.536 413,348.036 C 412.991,345.536 415.482,343.027 417.982,343.018 C 420.482,343.009 422.991,345.5 423,348z"/>
    <path style="fill: none; fill-opacity:0; stroke-width: 2; stroke: #d8e5e5" d="M 423 348 C 423.009,350.5 420.518,353.009 418.018,353.018 C 415.518,353.027 413.009,350.536 413,348.036 C 412.991,345.536 415.482,343.027 417.982,343.018 C 420.482,343.009 422.991,345.5 423,348"/>
  </g>
  <line style="fill: none; fill-opacity:0; stroke-width: 2; stroke-dasharray: 4; stroke: #000000" x1="148" y1="348" x2="418" y2="349"/>
  <g>
    <ellipse style="fill: #ffffff" cx="196" cy="354.5" rx="20" ry="107.5"/>
    <ellipse style="fill: none; fill-opacity:0; stroke-width: 2; stroke-dasharray: 4; stroke: #000000" cx="196" cy="354.5" rx="20" ry="107.5"/>
  </g>
  <g>
    <path style="fill: #ff0000" d="M 245 261 C 269,298 413,243 459,245 C 505,247 580,264 588,300 C 596,336 590,363 516,408 C 442,453 189,539 129,515 C 69,491 93,282 118,290 C 143,298 95,462 143,483 C 191,504 423,414 455,390 C 487,366 537,335 515,310 C 493,285 409,276 372,281 C 335,286 279,294 250,334 C 221,374 221,224 245,261z"/>
    <path style="fill: none; fill-opacity:0; stroke-width: 2; stroke: #000000" d="M 245 261 C 269,298 413,243 459,245 C 505,247 580,264 588,300 C 596,336 590,363 516,408 C 442,453 189,539 129,515 C 69,491 93,282 118,290 C 143,298 95,462 143,483 C 191,504 423,414 455,390 C 487,366 537,335 515,310 C 493,285 409,276 372,281 C 335,286 279,294 250,334 C 221,374 221,224 245,261"/>
  </g>
  <g>
    <ellipse style="fill: #ff0000" cx="196" cy="356" rx="15" ry="101"/>
    <ellipse style="fill: none; fill-opacity:0; stroke-width: 2; stroke: #000000" cx="196" cy="356" rx="15" ry="101"/>
  </g>
  <g>
    <line style="fill: none; fill-opacity:0; stroke-width: 2; stroke: #d8e5e5" x1="732.956" y1="348.454" x2="1011.96" y2="347.454"/>
    <path style="fill: #d8e5e5" d="M 732.956 348.454 C 732.947,345.954 735.438,343.445 737.938,343.436 C 740.438,343.427 742.947,345.918 742.956,348.418 C 742.965,350.918 740.474,353.427 737.974,353.436 C 735.474,353.445 732.965,350.954 732.956,348.454z"/>
    <path style="fill: none; fill-opacity:0; stroke-width: 2; stroke: #d8e5e5" d="M 732.956 348.454 C 732.947,345.954 735.438,343.445 737.938,343.436 C 740.438,343.427 742.947,345.918 742.956,348.418 C 742.965,350.918 740.474,353.427 737.974,353.436 C 735.474,353.445 732.965,350.954 732.956,348.454"/>
    <path style="fill: #d8e5e5" d="M 1011.96 347.454 C 1011.96,349.954 1009.47,352.463 1006.97,352.472 C 1004.47,352.481 1001.97,349.99 1001.96,347.49 C 1001.95,344.99 1004.44,342.481 1006.94,342.472 C 1009.44,342.463 1011.95,344.954 1011.96,347.454z"/>
    <path style="fill: none; fill-opacity:0; stroke-width: 2; stroke: #d8e5e5" d="M 1011.96 347.454 C 1011.96,349.954 1009.47,352.463 1006.97,352.472 C 1004.47,352.481 1001.97,349.99 1001.96,347.49 C 1001.95,344.99 1004.44,342.481 1006.94,342.472 C 1009.44,342.463 1011.95,344.954 1011.96,347.454"/>
  </g>
  <g>
    <path style="fill: #ff0000" d="M 833.956 260.454 C 857.956,297.454 1001.96,242.454 1047.96,244.454 C 1093.96,246.454 1165,256 1176.96,299.454 C 1188.91,342.906 1178.96,362.454 1104.96,407.454 C 1030.96,452.454 777.956,538.454 717.956,514.454 C 657.956,490.454 681.956,281.454 706.956,289.454 C 731.956,297.454 683.956,461.454 731.956,482.454 C 779.956,503.454 1011.96,413.454 1043.96,389.454 C 1075.96,365.454 1125.96,334.454 1103.96,309.454 C 1081.96,284.454 997.956,275.454 960.956,280.454 C 923.956,285.454 867.956,293.454 838.956,333.454 C 809.956,373.454 809.956,223.454 833.956,260.454z"/>
    <path style="fill: none; fill-opacity:0; stroke-width: 2; stroke: #000000" d="M 833.956 260.454 C 857.956,297.454 1001.96,242.454 1047.96,244.454 C 1093.96,246.454 1165,256 1176.96,299.454 C 1188.91,342.906 1178.96,362.454 1104.96,407.454 C 1030.96,452.454 777.956,538.454 717.956,514.454 C 657.956,490.454 681.956,281.454 706.956,289.454 C 731.956,297.454 683.956,461.454 731.956,482.454 C 779.956,503.454 1011.96,413.454 1043.96,389.454 C 1075.96,365.454 1125.96,334.454 1103.96,309.454 C 1081.96,284.454 997.956,275.454 960.956,280.454 C 923.956,285.454 867.956,293.454 838.956,333.454 C 809.956,373.454 809.956,223.454 833.956,260.454"/>
  </g>
  <g>
    <ellipse style="fill: #ff0000" cx="784.956" cy="355.454" rx="15" ry="101"/>
    <ellipse style="fill: none; fill-opacity:0; stroke-width: 2; stroke: #000000" cx="784.956" cy="355.454" rx="15" ry="101"/>
  </g>
  <g>
    <path style="fill: none; fill-opacity:0; stroke-width: 2; stroke-dasharray: 4; stroke: #000000" d="M 742 346 C 783,235 774,248 795,248 C 816,248 831,246 840,255 C 849,264 857,268 876,267 C 895,266 915,264 938,259 C 961,254 1034,234 1070,241 C 1106,248 1166,238 1187,317 C 1208,396 952,481 889,499 C 826,517 729,546 693,501 C 657,456 672,287 703.53,277.873"/>
    <polygon style="fill: #000000" points="707.852,276.622 702.923,281.172 703.53,277.873 701.255,275.408 "/>
    <polygon style="fill: none; fill-opacity:0; stroke-width: 2; stroke: #000000" points="707.852,276.622 702.923,281.172 703.53,277.873 701.255,275.408 "/>
  </g>
  <g>
    <line style="fill: none; fill-opacity:0; stroke-width: 2; stroke-dasharray: 4; stroke: #000000" x1="710" y1="276" x2="761.666" y2="257.293"/>
    <polygon style="fill: #000000" points="765.898,255.761 761.277,260.625 761.666,257.293 759.235,254.983 "/>
    <polygon style="fill: none; fill-opacity:0; stroke-width: 2; stroke: #000000" points="765.898,255.761 761.277,260.625 761.666,257.293 759.235,254.983 "/>
  </g>
  <text font-size="14.1111" style="fill: #000000;text-anchor:start;font-family:Utopia;font-style:normal;font-weight:normal" x="195" y="236">
    <tspan x="195" y="236">a</tspan>
  </text>
  <text font-size="14.1111" style="fill: #000000;text-anchor:start;font-family:Utopia;font-style:normal;font-weight:normal" x="234" y="248">
    <tspan x="234" y="248">b</tspan>
  </text>
  <text font-size="14.1111" style="fill: #000000;text-anchor:start;font-family:Utopia;font-style:normal;font-weight:normal" x="225" y="343">
    <tspan x="225" y="343">c</tspan>
  </text>
  <text font-size="14.1111" style="fill: #000000;text-anchor:start;font-family:Utopia;font-style:normal;font-weight:normal" x="136" y="366">
    <tspan x="136" y="366">Start</tspan>
  </text>
  <text font-size="14.1111" style="fill: #000000;text-anchor:start;font-family:Utopia;font-style:normal;font-weight:normal" x="403.222" y="370.4">
    <tspan x="403.222" y="370.4">Goal</tspan>
  </text>
</svg>
