<?xml version="1.0" encoding="UTF-8" standalone="no"?>
<!DOCTYPE svg PUBLIC "-//W3C//DTD SVG 1.0//EN" "http://www.w3.org/TR/2001/PR-SVG-20010719/DTD/svg10.dtd">
<svg width="20cm" height="18cm" viewBox="-67 -14 394 359" xmlns="http://www.w3.org/2000/svg" xmlns:xlink="http://www.w3.org/1999/xlink">
  <g>
    <polygon style="fill: #1e90ff" points="-44,126 -4,132.317 10.6667,143.65 -3.66666,155.983 -44.3334,165.65 "/>
    <polygon style="fill: none; fill-opacity:0; stroke-width: 2; stroke: #0000ff" points="-44,126 -4,132.317 10.6667,143.65 -3.66666,155.983 -44.3334,165.65 "/>
  </g>
  <g>
    <path style="fill: #ff0000" d="M 86.3334 -12.0168 C 183.333,-9.0168 187.333,-0.0168055 176.333,59.9832 C 165.333,119.983 170.333,138.983 81.3334,71.9832 C -7.66666,4.9832 -10.6667,-15.0168 86.3334,-12.0168z"/>
    <path style="fill: none; fill-opacity:0; stroke-width: 2; stroke: #000000" d="M 86.3334 -12.0168 C 183.333,-9.0168 187.333,-0.0168055 176.333,59.9832 C 165.333,119.983 170.333,138.983 81.3334,71.9832 C -7.66666,4.9832 -10.6667,-15.0168 86.3334,-12.0168"/>
  </g>
  <g>
    <path style="fill: #ff0000" d="M 39.3334 230.984 C 196.333,194.983 163.333,309.984 40.3334,306.984 C -82.6666,303.984 -117.667,266.984 39.3334,230.984z"/>
    <path style="fill: none; fill-opacity:0; stroke-width: 2; stroke: #000000" d="M 39.3334 230.984 C 196.333,194.983 163.333,309.984 40.3334,306.984 C -82.6666,303.984 -117.667,266.984 39.3334,230.984"/>
  </g>
  <text font-size="14.6756" style="fill: #000000;text-anchor:start;font-family:sans-serif;font-style:normal;font-weight:normal" x="0.333334" y="183.983">
    <tspan x="0.333334" y="183.983">Robot: (-1.23,2.8)</tspan>
  </text>
  <text font-size="14.6756" style="fill: #000000;text-anchor:start;font-family:sans-serif;font-style:normal;font-weight:normal" x="206.334" y="79.9832">
    <tspan x="206.334" y="79.9832">Obj1: (5.62, 7.8)</tspan>
  </text>
  <text font-size="14.6756" style="fill: #000000;text-anchor:start;font-family:sans-serif;font-style:normal;font-weight:normal" x="49.0334" y="341.834">
    <tspan x="49.0334" y="341.834">Obj2: (2.58, -3.4)</tspan>
  </text>
  <g>
    <line style="fill: none; fill-opacity:0; stroke-width: 2; stroke: #000000" x1="116.333" y1="35.9832" x2="204.334" y2="72.9832"/>
    <path style="fill: #000000" d="M 116.333 35.9832 C 116.915,34.6004 118.879,33.7991 120.262,34.3805 C 121.644,34.9618 122.446,36.926 121.864,38.3087 C 121.283,39.6915 119.319,40.4928 117.936,39.9115 C 116.553,39.3301 115.752,37.366 116.333,35.9832z"/>
    <path style="fill: none; fill-opacity:0; stroke-width: 2; stroke: #000000" d="M 116.333 35.9832 C 116.915,34.6004 118.879,33.7991 120.262,34.3805 C 121.644,34.9618 122.446,36.926 121.864,38.3087 C 121.283,39.6915 119.319,40.4928 117.936,39.9115 C 116.553,39.3301 115.752,37.366 116.333,35.9832"/>
  </g>
  <g>
    <line style="fill: none; fill-opacity:0; stroke-width: 2; stroke: #000000" x1="57.3492" y1="266.036" x2="87.4028" y2="324"/>
    <path style="fill: #000000" d="M 57.3492 266.036 C 58.6808,265.346 60.7029,265.987 61.3934,267.318 C 62.0838,268.65 61.4426,270.672 60.111,271.363 C 58.7793,272.053 56.7572,271.412 56.0668,270.08 C 55.3763,268.749 56.0176,266.726 57.3492,266.036z"/>
    <path style="fill: none; fill-opacity:0; stroke-width: 2; stroke: #000000" d="M 57.3492 266.036 C 58.6808,265.346 60.7029,265.987 61.3934,267.318 C 62.0838,268.65 61.4426,270.672 60.111,271.363 C 58.7793,272.053 56.7572,271.412 56.0668,270.08 C 55.3763,268.749 56.0176,266.726 57.3492,266.036"/>
  </g>
  <g>
    <line style="fill: none; fill-opacity:0; stroke-width: 2; stroke: #000000" x1="-22.6666" y1="146.983" x2="-2.66666" y2="177.983"/>
    <path style="fill: #000000" d="M -22.6666 146.983 C -21.4062,146.17 -19.3325,146.617 -18.5193,147.878 C -17.7061,149.138 -18.1534,151.212 -19.4138,152.025 C -20.6743,152.838 -22.7479,152.391 -23.5611,151.13 C -24.3743,149.87 -23.927,147.796 -22.6666,146.983z"/>
    <path style="fill: none; fill-opacity:0; stroke-width: 2; stroke: #000000" d="M -22.6666 146.983 C -21.4062,146.17 -19.3325,146.617 -18.5193,147.878 C -17.7061,149.138 -18.1534,151.212 -19.4138,152.025 C -20.6743,152.838 -22.7479,152.391 -23.5611,151.13 C -24.3743,149.87 -23.927,147.796 -22.6666,146.983"/>
  </g>
  <g>
    <path style="fill: #ff0000" d="M 264.402 115 C 284.402,115 282.402,339 268.402,335 C 254.402,331 268.402,309 246.402,297 C 224.402,285 250.402,278.166 254.402,247 C 258.402,215.834 244.402,115 264.402,115z"/>
    <path style="fill: none; fill-opacity:0; stroke-width: 2; stroke: #000000" d="M 264.402 115 C 284.402,115 282.402,339 268.402,335 C 254.402,331 268.402,309 246.402,297 C 224.402,285 250.402,278.166 254.402,247 C 258.402,215.834 244.402,115 264.402,115"/>
  </g>
  <g>
    <line style="fill: none; fill-opacity:0; stroke-width: 2; stroke: #000000" x1="259.212" y1="281.406" x2="204.402" y2="220"/>
    <path style="fill: #000000" d="M 259.212 281.406 C 258.093,282.405 255.975,282.285 254.976,281.166 C 253.977,280.047 254.098,277.929 255.217,276.93 C 256.336,275.931 258.454,276.051 259.452,277.17 C 260.451,278.289 260.331,280.407 259.212,281.406z"/>
    <path style="fill: none; fill-opacity:0; stroke-width: 2; stroke: #000000" d="M 259.212 281.406 C 258.093,282.405 255.975,282.285 254.976,281.166 C 253.977,280.047 254.098,277.929 255.217,276.93 C 256.336,275.931 258.454,276.051 259.452,277.17 C 260.451,278.289 260.331,280.407 259.212,281.406"/>
  </g>
  <text font-size="14.6756" style="fill: #000000;text-anchor:start;font-family:sans-serif;font-style:normal;font-weight:normal" x="124.903" y="210.15">
    <tspan x="124.903" y="210.15">Obj3: (12.9,-4.1)</tspan>
  </text>
</svg>
