<?xml version="1.0" encoding="UTF-8" standalone="no"?>
<!-- Created with Inkscape (http://www.inkscape.org/) -->

<svg
   xmlns:dc="http://purl.org/dc/elements/1.1/"
   xmlns:cc="http://creativecommons.org/ns#"
   xmlns:rdf="http://www.w3.org/1999/02/22-rdf-syntax-ns#"
   xmlns:svg="http://www.w3.org/2000/svg"
   xmlns="http://www.w3.org/2000/svg"
   xmlns:sodipodi="http://sodipodi.sourceforge.net/DTD/sodipodi-0.dtd"
   xmlns:inkscape="http://www.inkscape.org/namespaces/inkscape"
   id="svg2"
   version="1.1"
   inkscape:version="0.91 r13725"
   xml:space="preserve"
   width="797.5"
   height="702.5"
   viewBox="0 0 797.5 702.5"
   sodipodi:docname="maze_sol_wall_circle1.svg"><metadata
     id="metadata8"><rdf:RDF><cc:Work
         rdf:about=""><dc:format>image/svg+xml</dc:format><dc:type
           rdf:resource="http://purl.org/dc/dcmitype/StillImage" /><dc:title></dc:title></cc:Work></rdf:RDF></metadata><defs
     id="defs6" /><sodipodi:namedview
     pagecolor="#ffffff"
     bordercolor="#666666"
     borderopacity="1"
     objecttolerance="10"
     gridtolerance="10"
     guidetolerance="10"
     inkscape:pageopacity="0"
     inkscape:pageshadow="2"
     inkscape:window-width="640"
     inkscape:window-height="480"
     id="namedview4"
     showgrid="false"
     inkscape:zoom="0.33594306"
     inkscape:cx="398.75"
     inkscape:cy="351.25"
     inkscape:window-x="73"
     inkscape:window-y="65"
     inkscape:window-maximized="0"
     inkscape:current-layer="g10" /><g
     id="g10"
     inkscape:groupmode="layer"
     inkscape:label="maze_sol_wall_circle1"
     transform="matrix(1.25,0,0,-1.25,0,702.5)"><g
       id="g12"
       transform="scale(0.1,0.1)"><path
         d="m 71.0859,2735.39 283.4611,14.17 0,-963.76 1445.653,0 -14.18,-737 2296.03,14.18 14.17,-255.117 -3288.138,14.172 -14.172,226.765 765.34,0 -14.17,467.71 -1218.881,-14.17 -14.172,-1204.707 5754.243,-14.172 14.17,538.574 -1530.69,-14.172 -14.17,963.757 793.69,14.18 0,481.88 -1247.22,14.17 0,-722.82 -1771.63,0 0,751.17 -1516.51,0 14.172,992.11 269.288,-14.17 -14.17,-737 1516.51,0 0,-751.17 1218.88,0 14.17,751.17 1488.17,0 -14.18,1247.22 -1473.99,-14.17 0,1743.28 240.94,14.17 -14.17,-1473.99 1247.22,14.17 14.18,1474 240.94,14.17 14.17,-4039.31 -765.34,0 14.17,-481.88 1261.4,14.18 0,3188.92 269.28,-14.17 -14.17,-4195.2105 -6264.4659,0 L 42.7422,2749.56"
         style="fill:none;stroke:#00ff00;stroke-width:85.03800201;stroke-linecap:butt;stroke-linejoin:miter;stroke-miterlimit:10;stroke-dasharray:none;stroke-opacity:1"
         id="path14"
         inkscape:connector-curvature="0" /></g></g></svg>