<?xml version="1.0" encoding="UTF-8" standalone="no"?>
<!DOCTYPE svg PUBLIC "-//W3C//DTD SVG 1.0//EN" "http://www.w3.org/TR/2001/PR-SVG-20010719/DTD/svg10.dtd">
<svg width="15cm" height="15cm" viewBox="169 94 293 292" xmlns="http://www.w3.org/2000/svg" xmlns:xlink="http://www.w3.org/1999/xlink">
  <g>
    <ellipse style="fill: #ffffff" cx="306" cy="250" rx="135" ry="135"/>
    <ellipse style="fill: none; fill-opacity:0; stroke-width: 2; stroke: #d8e5e5" cx="306" cy="250" rx="135" ry="135"/>
  </g>
  <g>
    <ellipse style="fill: #ffffff" cx="307" cy="250" rx="6" ry="7"/>
    <ellipse style="fill: none; fill-opacity:0; stroke-width: 2; stroke: #000000" cx="307" cy="250" rx="6" ry="7"/>
  </g>
  <line style="fill: none; fill-opacity:0; stroke-width: 2; stroke: #000000" x1="312.241" y1="244.704" x2="401.46" y2="154.54"/>
  <line style="fill: none; fill-opacity:0; stroke-width: 2; stroke: #000000" x1="308.334" y1="251.666" x2="306" y2="115"/>
  <line style="fill: none; fill-opacity:0; stroke-width: 2; stroke: #000000" x1="307" y1="250" x2="306" y2="250"/>
  <line style="fill: none; fill-opacity:0; stroke-width: 2; stroke: #000000" x1="308" y1="314" x2="307" y2="251.666"/>
  <line style="fill: none; fill-opacity:0; stroke-width: 2; stroke: #000000" x1="313" y1="250" x2="441" y2="250"/>
  <line style="fill: none; fill-opacity:0; stroke-width: 2; stroke: #000000" x1="214" y1="350.44" x2="305.334" y2="251"/>
  <line style="fill: none; fill-opacity:0; stroke-width: 2; stroke: #000000" x1="270.334" y1="214.666" x2="305.666" y2="248.666"/>
  <line style="fill: none; fill-opacity:0; stroke-width: 2; stroke: #000000" x1="311.242" y1="254.95" x2="406" y2="341.44"/>
  <line style="fill: none; fill-opacity:0; stroke-width: 4; stroke: #000000" x1="256.666" y1="376.106" x2="304.097" y2="257.274"/>
  <line style="fill: none; fill-opacity:0; stroke-width: 2; stroke: #000000" x1="436" y1="202" x2="313" y2="250"/>
  <line style="fill: none; fill-opacity:0; stroke-width: 4; stroke: #000000" x1="359" y1="375" x2="311.242" y2="254.95"/>
  <line style="fill: none; fill-opacity:0; stroke-width: 2; stroke: #000000" x1="310.334" y1="251.666" x2="431" y2="301"/>
  <line style="fill: none; fill-opacity:0; stroke-width: 2; stroke: #000000" x1="311.242" y1="245.05" x2="358" y2="126"/>
  <line style="fill: none; fill-opacity:0; stroke-width: 2; stroke: #000000" x1="306" y1="250" x2="254.216" y2="125.303"/>
  <line style="fill: none; fill-opacity:0; stroke-width: 2; stroke: #000000" x1="306.5" y1="250" x2="282.216" y2="117.303"/>
  <line style="fill: none; fill-opacity:0; stroke-width: 2; stroke: #000000" x1="311.242" y1="245.05" x2="334" y2="117.333"/>
  <line style="fill: none; fill-opacity:0; stroke-width: 4; stroke: #000000" x1="381" y1="137.666" x2="306.5" y2="250"/>
  <line style="fill: none; fill-opacity:0; stroke-width: 2; stroke: #000000" x1="421.216" y1="176.303" x2="310" y2="249.666"/>
  <line style="fill: none; fill-opacity:0; stroke-width: 4; stroke: #000000" x1="306" y1="248" x2="229" y2="139"/>
  <line style="fill: none; fill-opacity:0; stroke-width: 2; stroke: #000000" x1="442.216" y1="229.304" x2="313" y2="250"/>
  <line style="fill: none; fill-opacity:0; stroke-width: 4; stroke: #000000" x1="438.666" y1="275.334" x2="313.895" y2="251.327"/>
  <line style="fill: none; fill-opacity:0; stroke-width: 2; stroke: #000000" x1="305.334" y1="248.666" x2="270.63" y2="227"/>
  <line style="fill: none; fill-opacity:0; stroke-width: 4; stroke: #0000ff" x1="304.334" y1="249.666" x2="272.546" y2="245"/>
  <line style="fill: none; fill-opacity:0; stroke-width: 4; stroke: #000000" x1="258.13" y1="283" x2="302.758" y2="254.95"/>
  <line style="fill: none; fill-opacity:0; stroke-width: 2; stroke: #000000" x1="233.63" y1="365" x2="306" y2="252"/>
  <line style="fill: none; fill-opacity:0; stroke-width: 2; stroke: #000000" x1="296.63" y1="312" x2="307" y2="257"/>
  <line style="fill: none; fill-opacity:0; stroke-width: 2; stroke: #000000" x1="318.63" y1="311" x2="308" y2="251"/>
  <line style="fill: none; fill-opacity:0; stroke-width: 2; stroke: #000000" x1="382.63" y1="361" x2="311.242" y2="254.95"/>
  <line style="fill: none; fill-opacity:0; stroke-width: 2; stroke: #000000" x1="310.334" y1="251.334" x2="421.63" y2="320"/>
  <g>
    <ellipse style="fill: #ff0000" cx="418.63" cy="183.5" rx="43" ry="87.5"/>
    <ellipse style="fill: none; fill-opacity:0; stroke-width: 2; stroke: #000000" cx="418.63" cy="183.5" rx="43" ry="87.5"/>
  </g>
  <g>
    <ellipse style="fill: #ff0000" cx="308.13" cy="333.5" rx="32.5" ry="28.5"/>
    <ellipse style="fill: none; fill-opacity:0; stroke-width: 2; stroke: #000000" cx="308.13" cy="333.5" rx="32.5" ry="28.5"/>
  </g>
  <g>
    <ellipse style="fill: #ff0000" cx="258.129" cy="234" rx="15.5369" ry="49"/>
    <ellipse style="fill: none; fill-opacity:0; stroke-width: 2; stroke: #000000" cx="258.129" cy="234" rx="15.5369" ry="49"/>
  </g>
  <text font-size="14.1111" style="fill: #000000;text-anchor:start;font-family:Utopia;font-style:normal;font-weight:normal" x="408" y="176">
    <tspan x="408" y="176">WO</tspan>
  </text>
  <text font-size="12.4178" style="fill: #000000;text-anchor:start;font-family:Utopia;font-style:normal;font-weight:normal" x="244.63" y="225">
    <tspan x="244.63" y="225">WO</tspan>
  </text>
  <text font-size="14.1111" style="fill: #000000;text-anchor:start;font-family:Utopia;font-style:normal;font-weight:normal" x="291" y="328">
    <tspan x="291" y="328">WO</tspan>
  </text>
  <text font-size="11.2889" style="fill: #000000;text-anchor:start;font-family:Utopia;font-style:normal;font-weight:normal" x="429" y="179">
    <tspan x="429" y="179">1</tspan>
  </text>
  <text font-size="11.2889" style="fill: #000000;text-anchor:start;font-family:Utopia;font-style:normal;font-weight:normal" x="265" y="229">
    <tspan x="265" y="229">2</tspan>
  </text>
  <text font-size="11.2889" style="fill: #000000;text-anchor:start;font-family:Utopia;font-style:normal;font-weight:normal" x="315" y="331">
    <tspan x="315" y="331">3</tspan>
  </text>
  <text font-size="11.2889" style="fill: #000000;text-anchor:start;font-family:Utopia;font-style:normal;font-weight:normal" x="274.666" y="258">
    <tspan x="274.666" y="258">d(x)</tspan>
  </text>
</svg>
