<?xml version="1.0" encoding="UTF-8" standalone="no"?>
<!DOCTYPE svg PUBLIC "-//W3C//DTD SVG 1.0//EN" "http://www.w3.org/TR/2001/PR-SVG-20010719/DTD/svg10.dtd">
<svg width="15cm" height="18cm" viewBox="169 34 293 352" xmlns="http://www.w3.org/2000/svg" xmlns:xlink="http://www.w3.org/1999/xlink">
  <g>
    <ellipse style="fill: #ffffff" cx="306" cy="250" rx="135" ry="135"/>
    <ellipse style="fill: none; fill-opacity:0; stroke-width: 2; stroke: #d8e5e5" cx="306" cy="250" rx="135" ry="135"/>
  </g>
  <g>
    <ellipse style="fill: #ffffff" cx="307" cy="250" rx="6" ry="7"/>
    <ellipse style="fill: none; fill-opacity:0; stroke-width: 2; stroke: #000000" cx="307" cy="250" rx="6" ry="7"/>
  </g>
  <g>
    <line style="fill: none; fill-opacity:0; stroke-width: 2; stroke: #000000" x1="307" y1="243" x2="306.885" y2="66.2359"/>
    <polygon style="fill: #000000" points="306.881,60.2359 310.887,68.2333 306.885,66.2359 302.887,68.2385 "/>
    <polygon style="fill: none; fill-opacity:0; stroke-width: 2; stroke: #000000" points="306.881,60.2359 310.887,68.2333 306.885,66.2359 302.887,68.2385 "/>
  </g>
  <line style="fill: none; fill-opacity:0; stroke-width: 2; stroke: #000000" x1="307" y1="250" x2="306" y2="250"/>
  <line style="fill: none; fill-opacity:0; stroke-width: 4; stroke: #000000" x1="276" y1="329" x2="304.135" y2="257.3"/>
  <line style="fill: none; fill-opacity:0; stroke-width: 4; stroke: #000000" x1="310.221" y1="257.087" x2="342" y2="327"/>
  <line style="fill: none; fill-opacity:0; stroke-width: 4; stroke: #000000" x1="302.758" y1="245.05" x2="258.13" y2="187"/>
  <line style="fill: none; fill-opacity:0; stroke-width: 4; stroke: #000000" x1="418.63" y1="271" x2="313.895" y2="251.297"/>
  <line style="fill: none; fill-opacity:0; stroke-width: 4; stroke: #000000" x1="258.13" y1="285" x2="302.758" y2="254.95"/>
  <g>
    <ellipse style="fill: #ff0000" cx="418.63" cy="183.5" rx="43" ry="87.5"/>
    <ellipse style="fill: none; fill-opacity:0; stroke-width: 2; stroke: #000000" cx="418.63" cy="183.5" rx="43" ry="87.5"/>
  </g>
  <g>
    <ellipse style="fill: #ff0000" cx="308.13" cy="333.5" rx="32.5" ry="28.5"/>
    <ellipse style="fill: none; fill-opacity:0; stroke-width: 2; stroke: #000000" cx="308.13" cy="333.5" rx="32.5" ry="28.5"/>
  </g>
  <g>
    <ellipse style="fill: #ff0000" cx="258.13" cy="236" rx="12.5" ry="49"/>
    <ellipse style="fill: none; fill-opacity:0; stroke-width: 2; stroke: #000000" cx="258.13" cy="236" rx="12.5" ry="49"/>
  </g>
  <text font-size="16.9333" style="fill: #000000;text-anchor:start;font-family:Utopia;font-style:normal;font-weight:normal" x="342.88" y="340">
    <tspan x="342.88" y="340">O</tspan>
  </text>
  <text font-size="16.9333" style="fill: #000000;text-anchor:start;font-family:Utopia;font-style:normal;font-weight:normal" x="414.18" y="283.9">
    <tspan x="414.18" y="283.9">O</tspan>
  </text>
  <text font-size="16.9333" style="fill: #000000;text-anchor:start;font-family:Utopia;font-style:normal;font-weight:normal" x="248.78" y="180.5">
    <tspan x="248.78" y="180.5">O</tspan>
  </text>
  <text font-size="16.9333" style="fill: #000000;text-anchor:start;font-family:Utopia;font-style:normal;font-weight:normal" x="249.08" y="302.3">
    <tspan x="249.08" y="302.3">O</tspan>
  </text>
  <text font-size="16.9333" style="fill: #000000;text-anchor:start;font-family:Utopia;font-style:normal;font-weight:normal" x="258.88" y="340">
    <tspan x="258.88" y="340">O</tspan>
  </text>
  <text font-size="11.2889" style="fill: #000000;text-anchor:start;font-family:Utopia;font-style:normal;font-weight:normal" x="356.88" y="343">
    <tspan x="356.88" y="343">1</tspan>
  </text>
  <text font-size="11.2889" style="fill: #000000;text-anchor:start;font-family:Utopia;font-style:normal;font-weight:normal" x="426.88" y="287">
    <tspan x="426.88" y="287">2</tspan>
  </text>
  <text font-size="11.2889" style="fill: #000000;text-anchor:start;font-family:Utopia;font-style:normal;font-weight:normal" x="264" y="181">
    <tspan x="264" y="181">3</tspan>
  </text>
  <text font-size="11.2889" style="fill: #000000;text-anchor:start;font-family:Utopia;font-style:normal;font-weight:normal" x="261" y="305">
    <tspan x="261" y="305">4</tspan>
  </text>
  <text font-size="11.2889" style="fill: #000000;text-anchor:start;font-family:Utopia;font-style:normal;font-weight:normal" x="269" y="347">
    <tspan x="269" y="347">5</tspan>
  </text>
  <text font-size="16.9333" style="fill: #000000;text-anchor:start;font-family:Utopia;font-style:normal;font-weight:normal" x="289.88" y="49.9998">
    <tspan x="289.88" y="49.9998">Goal</tspan>
  </text>
</svg>
