<?xml version="1.0" encoding="UTF-8" standalone="no"?>
<!DOCTYPE svg PUBLIC "-//W3C//DTD SVG 1.0//EN" "http://www.w3.org/TR/2001/PR-SVG-20010719/DTD/svg10.dtd">
<svg width="38cm" height="12cm" viewBox="163 105 760 238" xmlns="http://www.w3.org/2000/svg" xmlns:xlink="http://www.w3.org/1999/xlink">
  <g>
    <path style="fill: #ff0000" d="M 246 190 C 281,199 339,276 285,293 C 231,310 211,181 246,190z"/>
    <path style="fill: none; fill-opacity:0; stroke-width: 2; stroke: #000000" d="M 246 190 C 281,199 339,276 285,293 C 231,310 211,181 246,190"/>
  </g>
  <g>
    <path style="fill: #ff0000" d="M 446 224 C 475,229 481,340 418,299 C 355,258 417,219 446,224z"/>
    <path style="fill: none; fill-opacity:0; stroke-width: 2; stroke: #000000" d="M 446 224 C 475,229 481,340 418,299 C 355,258 417,219 446,224"/>
  </g>
  <g>
    <path style="fill: #ff0000" d="M 614.534 112 C 634.534,112 708,203 713,275 C 718,347 648,345 596,340 C 544,335 634.534,297 633.534,260 C 632.534,223 594.534,112 614.534,112z"/>
    <path style="fill: none; fill-opacity:0; stroke-width: 2; stroke: #000000" d="M 614.534 112 C 634.534,112 708,203 713,275 C 718,347 648,345 596,340 C 544,335 634.534,297 633.534,260 C 632.534,223 594.534,112 614.534,112"/>
  </g>
  <g>
    <ellipse style="fill: #000000" cx="919" cy="241" rx="2.5" ry="2.5"/>
    <ellipse style="fill: none; fill-opacity:0; stroke-width: 2; stroke: #000000" cx="919" cy="241" rx="2.5" ry="2.5"/>
  </g>
  <g>
    <ellipse style="fill: #000000" cx="167" cy="242" rx="2.5" ry="2.5"/>
    <ellipse style="fill: none; fill-opacity:0; stroke-width: 2; stroke: #000000" cx="167" cy="242" rx="2.5" ry="2.5"/>
  </g>
  <path style="fill: none; fill-opacity:0; stroke-width: 2; stroke: #000000" d="M 169.5 242 C 228.502,241 219.502,244 229.502,261 C 239.502,278 253.502,314 296.502,297"/>
  <g>
    <path style="fill: #ff0000" d="M 817.502 227 C 837.502,227 909.502,162 889.502,162 C 869.502,162 797.502,227 817.502,227z"/>
    <path style="fill: none; fill-opacity:0; stroke-width: 2; stroke: #000000" d="M 817.502 227 C 837.502,227 909.502,162 889.502,162 C 869.502,162 797.502,227 817.502,227"/>
  </g>
  <path style="fill: none; fill-opacity:0; stroke-width: 2; stroke: #000000" d="M 295.564 297.334 C 389.14,286.756 394.502,289 408.502,301 C 422.502,313 454.502,327 469.502,296"/>
  <path style="fill: none; fill-opacity:0; stroke-width: 2; stroke: #000000" d="M 468.836 297 C 591.33,274.724 612.502,282 619.502,254 C 626.502,226 607.502,163 604.502,141 C 601.502,119 600.502,83 647.502,127"/>
  <path style="fill: none; fill-opacity:0; stroke-width: 2; stroke: #000000" d="M 646.502 126 C 777.996,186.723 823.502,195 839.502,183 C 855.502,171 913.502,131 893.502,179"/>
  <line style="fill: none; fill-opacity:0; stroke-width: 2; stroke: #000000" x1="893.836" y1="178.166" x2="917.232" y2="239.232"/>
</svg>
