<?xml version="1.0" encoding="UTF-8" standalone="no"?>
<!DOCTYPE svg PUBLIC "-//W3C//DTD SVG 1.0//EN" "http://www.w3.org/TR/2001/PR-SVG-20010719/DTD/svg10.dtd">
<svg width="19cm" height="16cm" viewBox="241 125 374 304" xmlns="http://www.w3.org/2000/svg" xmlns:xlink="http://www.w3.org/1999/xlink">
  <g>
    <rect style="fill: #ffffff" x="243" y="127" width="371" height="300"/>
    <line style="fill: none; fill-opacity:0; stroke-width: 2; stroke: #7f7f7f" x1="243" y1="147" x2="614" y2="147"/>
    <line style="fill: none; fill-opacity:0; stroke-width: 2; stroke: #7f7f7f" x1="243" y1="167" x2="614" y2="167"/>
    <line style="fill: none; fill-opacity:0; stroke-width: 2; stroke: #7f7f7f" x1="243" y1="187" x2="614" y2="187"/>
    <line style="fill: none; fill-opacity:0; stroke-width: 2; stroke: #7f7f7f" x1="243" y1="207" x2="614" y2="207"/>
    <line style="fill: none; fill-opacity:0; stroke-width: 2; stroke: #7f7f7f" x1="243" y1="227" x2="614" y2="227"/>
    <line style="fill: none; fill-opacity:0; stroke-width: 2; stroke: #7f7f7f" x1="243" y1="247" x2="614" y2="247"/>
    <line style="fill: none; fill-opacity:0; stroke-width: 2; stroke: #7f7f7f" x1="243" y1="267" x2="614" y2="267"/>
    <line style="fill: none; fill-opacity:0; stroke-width: 2; stroke: #7f7f7f" x1="243" y1="287" x2="614" y2="287"/>
    <line style="fill: none; fill-opacity:0; stroke-width: 2; stroke: #7f7f7f" x1="243" y1="307" x2="614" y2="307"/>
    <line style="fill: none; fill-opacity:0; stroke-width: 2; stroke: #7f7f7f" x1="243" y1="327" x2="614" y2="327"/>
    <line style="fill: none; fill-opacity:0; stroke-width: 2; stroke: #7f7f7f" x1="243" y1="347" x2="614" y2="347"/>
    <line style="fill: none; fill-opacity:0; stroke-width: 2; stroke: #7f7f7f" x1="243" y1="367" x2="614" y2="367"/>
    <line style="fill: none; fill-opacity:0; stroke-width: 2; stroke: #7f7f7f" x1="243" y1="387" x2="614" y2="387"/>
    <line style="fill: none; fill-opacity:0; stroke-width: 2; stroke: #7f7f7f" x1="243" y1="407" x2="614" y2="407"/>
    <line style="fill: none; fill-opacity:0; stroke-width: 2; stroke: #7f7f7f" x1="267.733" y1="127" x2="267.733" y2="427"/>
    <line style="fill: none; fill-opacity:0; stroke-width: 2; stroke: #7f7f7f" x1="292.467" y1="127" x2="292.467" y2="427"/>
    <line style="fill: none; fill-opacity:0; stroke-width: 2; stroke: #7f7f7f" x1="317.2" y1="127" x2="317.2" y2="427"/>
    <line style="fill: none; fill-opacity:0; stroke-width: 2; stroke: #7f7f7f" x1="341.933" y1="127" x2="341.933" y2="427"/>
    <line style="fill: none; fill-opacity:0; stroke-width: 2; stroke: #7f7f7f" x1="366.667" y1="127" x2="366.667" y2="427"/>
    <line style="fill: none; fill-opacity:0; stroke-width: 2; stroke: #7f7f7f" x1="391.4" y1="127" x2="391.4" y2="427"/>
    <line style="fill: none; fill-opacity:0; stroke-width: 2; stroke: #7f7f7f" x1="416.133" y1="127" x2="416.133" y2="427"/>
    <line style="fill: none; fill-opacity:0; stroke-width: 2; stroke: #7f7f7f" x1="440.867" y1="127" x2="440.867" y2="427"/>
    <line style="fill: none; fill-opacity:0; stroke-width: 2; stroke: #7f7f7f" x1="465.6" y1="127" x2="465.6" y2="427"/>
    <line style="fill: none; fill-opacity:0; stroke-width: 2; stroke: #7f7f7f" x1="490.333" y1="127" x2="490.333" y2="427"/>
    <line style="fill: none; fill-opacity:0; stroke-width: 2; stroke: #7f7f7f" x1="515.067" y1="127" x2="515.067" y2="427"/>
    <line style="fill: none; fill-opacity:0; stroke-width: 2; stroke: #7f7f7f" x1="539.8" y1="127" x2="539.8" y2="427"/>
    <line style="fill: none; fill-opacity:0; stroke-width: 2; stroke: #7f7f7f" x1="564.533" y1="127" x2="564.533" y2="427"/>
    <line style="fill: none; fill-opacity:0; stroke-width: 2; stroke: #7f7f7f" x1="589.267" y1="127" x2="589.267" y2="427"/>
    <rect style="fill: none; fill-opacity:0; stroke-width: 2; stroke: #000000" x="243" y="127" width="371" height="300"/>
  </g>
  <path style="fill: none; fill-opacity:0; stroke-width: 2; stroke: #000000" d="M 486,424 A 242.924,242.924 0 0 0 245,186"/>
  <path style="fill: none; fill-opacity:0; stroke-width: 2; stroke: #000000" d="M 243,336 A 245.773,245.773 0 0 0 501,128"/>
  <path style="fill: none; fill-opacity:0; stroke-width: 2; stroke: #000000" d="M 611,197 A 229.445,229.445 0 0 0 422,428"/>
</svg>
