<?xml version="1.0" encoding="UTF-8" standalone="no"?>
<!DOCTYPE svg PUBLIC "-//W3C//DTD SVG 1.0//EN" "http://www.w3.org/TR/2001/PR-SVG-20010719/DTD/svg10.dtd">
<svg width="16cm" height="6cm" viewBox="47 46 319 116" xmlns="http://www.w3.org/2000/svg" xmlns:xlink="http://www.w3.org/1999/xlink">
  <line style="fill: none; fill-opacity:0; stroke-width: 2; stroke: #000000" x1="76.488" y1="99.5862" x2="159" y2="99"/>
  <g>
    <line style="fill: none; fill-opacity:0; stroke-width: 2; stroke: #000000" x1="159" y1="99" x2="174.872" y2="82.9563"/>
    <polygon style="fill: #000000" points="179.849,87.8795 184.719,73.0039 169.896,78.0332 "/>
    <polygon style="fill: none; fill-opacity:0; stroke-width: 2; stroke: #000000" points="179.849,87.8795 184.719,73.0039 169.896,78.0332 "/>
  </g>
  <g>
    <line style="fill: none; fill-opacity:0; stroke-width: 2; stroke: #000000" x1="175.488" y1="83.5" x2="195.356" y2="61.0862"/>
    <line style="fill: none; fill-opacity:0; stroke-width: 2; stroke: #000000" x1="179.536" y1="68.3801" x2="190.013" y2="77.6668"/>
  </g>
  <g>
    <line style="fill: none; fill-opacity:0; stroke-width: 2; stroke: #000000" x1="195.856" y1="139.086" x2="212.59" y2="122.076"/>
    <polygon style="fill: #000000" points="217.58,126.985 222.409,112.096 207.6,117.167 "/>
    <polygon style="fill: none; fill-opacity:0; stroke-width: 2; stroke: #000000" points="217.58,126.985 222.409,112.096 207.6,117.167 "/>
  </g>
  <g>
    <line style="fill: none; fill-opacity:0; stroke-width: 2; stroke: #000000" x1="211.44" y1="122.114" x2="234.78" y2="100.653"/>
    <line style="fill: none; fill-opacity:0; stroke-width: 2; stroke: #000000" x1="217.008" y1="107.485" x2="226.484" y2="117.791"/>
  </g>
  <g>
    <line style="fill: none; fill-opacity:0; stroke-width: 2; stroke: #000000" x1="235.448" y1="100.986" x2="217.923" y2="83.7279"/>
    <polygon style="fill: #000000" points="222.835,78.7404 207.948,73.9045 213.012,88.7154 "/>
    <polygon style="fill: none; fill-opacity:0; stroke-width: 2; stroke: #000000" points="222.835,78.7404 207.948,73.9045 213.012,88.7154 "/>
  </g>
  <g>
    <line style="fill: none; fill-opacity:0; stroke-width: 2; stroke: #000000" x1="218.448" y1="84.9862" x2="196.023" y2="61.4194"/>
    <line style="fill: none; fill-opacity:0; stroke-width: 2; stroke: #000000" x1="203.726" y1="79.6695" x2="213.868" y2="70.0187"/>
  </g>
  <g>
    <line style="fill: none; fill-opacity:0; stroke-width: 2; stroke: #000000" x1="194.856" y1="139.586" x2="181.583" y2="124.005"/>
    <polygon style="fill: #000000" points="186.912,119.466 172.505,113.347 176.254,128.544 "/>
    <polygon style="fill: none; fill-opacity:0; stroke-width: 2; stroke: #000000" points="186.912,119.466 172.505,113.347 176.254,128.544 "/>
  </g>
  <g>
    <line style="fill: none; fill-opacity:0; stroke-width: 2; stroke: #000000" x1="181.356" y1="122.586" x2="159.317" y2="99.6968"/>
    <line style="fill: none; fill-opacity:0; stroke-width: 2; stroke: #000000" x1="166.603" y1="117.356" x2="176.688" y2="107.646"/>
  </g>
  <polyline style="fill: none; fill-opacity:0; stroke-width: 2; stroke: #000000" points="235.448,100.319 289.356,100.586 289.856,160.586 74.3562,161.086 "/>
  <line style="fill: none; fill-opacity:0; stroke-width: 2; stroke: #000000" x1="195.354" y1="61.4194" x2="346.354" y2="60.9194"/>
  <line style="fill: none; fill-opacity:0; stroke-width: 2; stroke: #000000" x1="194.854" y1="139.086" x2="280.354" y2="139.086"/>
  <line style="fill: none; fill-opacity:0; stroke-width: 2; stroke: #000000" x1="280.854" y1="139.086" x2="297.854" y2="140.086"/>
  <line style="fill: none; fill-opacity:0; stroke-width: 2; stroke: #000000" x1="297.354" y1="140.086" x2="343.854" y2="139.586"/>
  <text font-size="19.7556" style="fill: #000000;text-anchor:start;font-family:Utopia;font-style:normal;font-weight:normal" x="348.978" y="64.5862">
    <tspan x="348.978" y="64.5862">+</tspan>
  </text>
  <text font-size="25.4" style="fill: #000000;text-anchor:start;font-family:Utopia;font-style:normal;font-weight:normal" x="348.978" y="146.586">
    <tspan x="348.978" y="146.586">-</tspan>
  </text>
  <path style="fill: none; fill-opacity:0; stroke-width: 2; stroke: #000000" d="M 48.4788 128.486 C 67.9788,75.4862 55.9788,177.986 75.9788,128.486"/>
</svg>
