<?xml version="1.0" encoding="UTF-8" standalone="no"?>
<!-- Created with Inkscape (http://www.inkscape.org/) -->

<svg
   xmlns:dc="http://purl.org/dc/elements/1.1/"
   xmlns:cc="http://creativecommons.org/ns#"
   xmlns:rdf="http://www.w3.org/1999/02/22-rdf-syntax-ns#"
   xmlns:svg="http://www.w3.org/2000/svg"
   xmlns="http://www.w3.org/2000/svg"
   xmlns:sodipodi="http://sodipodi.sourceforge.net/DTD/sodipodi-0.dtd"
   xmlns:inkscape="http://www.inkscape.org/namespaces/inkscape"
   id="svg2"
   version="1.1"
   inkscape:version="0.91 r13725"
   xml:space="preserve"
   width="720"
   height="540"
   viewBox="0 0 720 540"
   sodipodi:docname="noisepcontrolDDbot.svg"><metadata
     id="metadata8"><rdf:RDF><cc:Work
         rdf:about=""><dc:format>image/svg+xml</dc:format><dc:type
           rdf:resource="http://purl.org/dc/dcmitype/StillImage" /><dc:title></dc:title></cc:Work></rdf:RDF></metadata><defs
     id="defs6"><clipPath
       clipPathUnits="userSpaceOnUse"
       id="clipPath20"><path
         d="m 72,43.2 446.4,0 0,345.6 -446.4,0 0,-345.6 z"
         id="path22"
         inkscape:connector-curvature="0" /></clipPath><clipPath
       clipPathUnits="userSpaceOnUse"
       id="clipPath30"><path
         d="m -3.25,-3.25 6.5,0 0,6.5 -6.5,0 0,-6.5 z"
         id="path32"
         inkscape:connector-curvature="0" /></clipPath><clipPath
       clipPathUnits="userSpaceOnUse"
       id="clipPath40"><path
         d="m 72,43.2 446.4,0 0,345.6 -446.4,0 0,-345.6 z"
         id="path42"
         inkscape:connector-curvature="0" /></clipPath><clipPath
       clipPathUnits="userSpaceOnUse"
       id="clipPath136"><path
         d="m -184,-236 1472,0 0,1165 -1472,0 0,-1165 z"
         id="path138"
         inkscape:connector-curvature="0" /></clipPath></defs><sodipodi:namedview
     pagecolor="#ffffff"
     bordercolor="#666666"
     borderopacity="1"
     objecttolerance="10"
     gridtolerance="10"
     guidetolerance="10"
     inkscape:pageopacity="0"
     inkscape:pageshadow="2"
     inkscape:window-width="640"
     inkscape:window-height="480"
     id="namedview4"
     showgrid="false"
     inkscape:zoom="0.43703704"
     inkscape:cx="360"
     inkscape:cy="270"
     inkscape:window-x="54"
     inkscape:window-y="28"
     inkscape:window-maximized="0"
     inkscape:current-layer="g10" /><g
     id="g10"
     inkscape:groupmode="layer"
     inkscape:label="noisepcontrolDDbot"
     transform="matrix(1.25,0,0,-1.25,0,540)"><path
       d="M 0,0 576,0 576,432 0,432 0,0 Z"
       style="fill:#ffffff;fill-opacity:1;fill-rule:nonzero;stroke:none"
       id="path12"
       inkscape:connector-curvature="0" /><path
       d="m 72,43.2 446.4,0 0,345.6 -446.4,0 0,-345.6 z"
       style="fill:#ffffff;fill-opacity:1;fill-rule:nonzero;stroke:none"
       id="path14"
       inkscape:connector-curvature="0" /><g
       id="g16"><g
         id="g18"
         clip-path="url(#clipPath20)"><g
           id="g24"
           transform="translate(518.4,388.8)"><g
             id="g26"><g
               id="g28"
               clip-path="url(#clipPath30)"><path
                 d="m 0,-3 c 0.7956093,0 1.5587396,0.3160989 2.1213203,0.8786797 C 2.6839011,-1.5587396 3,-0.7956093 3,0 3,0.7956093 2.6839011,1.5587396 2.1213203,2.1213203 1.5587396,2.6839011 0.7956093,3 0,3 -0.7956093,3 -1.5587396,2.6839011 -2.1213203,2.1213203 -2.6839011,1.5587396 -3,0.7956093 -3,0 -3,-0.7956093 -2.6839011,-1.5587396 -2.1213203,-2.1213203 -1.5587396,-2.6839011 -0.7956093,-3 0,-3 Z"
                 style="fill:#ff0000;fill-opacity:1;fill-rule:nonzero;stroke:#000000;stroke-width:0.5;stroke-linecap:butt;stroke-linejoin:round;stroke-miterlimit:10;stroke-dasharray:none;stroke-opacity:1"
                 id="path34"
                 inkscape:connector-curvature="0" /></g></g></g></g></g><g
       id="g36"><g
         id="g38"
         clip-path="url(#clipPath40)"><path
           d="m 72,92.571429 2.193659,-0.593018 2.972623,0.811963 2.143359,-0.08123 2.724816,0.396016 0.627838,0.23309 9.517991,0.956087 1.061531,0.520771 4.748738,0.554629 0.808562,0.681808 2.230213,0.340004 2.76738,-0.06563 5.20166,1.581943 2.15562,1.057638 2.28448,0.826772 -0.33881,0.899608 5.26222,0.42166 0.86165,1.0351 0.82891,-0.0848 1.26304,0.3192 1.46231,0.74268 1.84484,1.31035 9.17289,0.61536 2.20935,0.44718 2.06129,0.55186 1.36321,0.60489 0.2663,0.53386 2.0229,0.65833 2.27504,0.88793 2.15169,1.064 1.84614,-0.833 2.18493,0.19766 0.38958,1.18798 1.23788,0.78264 -0.77475,0.73476 0.14204,0.43299 -0.20522,0.47635 0.52312,0.0133 1.74102,0.68726 1.4638,0.82451 1.85378,0.83247 0.65895,0.95049 2.80062,0.85154 1.85427,1.59097 0.63544,-0.10894 -0.12573,0.97821 1.95592,0.83181 2.60418,-1.39283 2.02287,1.40783 3.53625,0.25512 0.9201,1.05061 1.77057,1.02559 0.80502,0.8348 1.60622,1.21638 1.66823,0.99232 1.69992,1.50185 0.23429,1.5293 1.73776,0.52169 1.43184,0.75227 2.49084,0.0156 1.50374,0.7914 -1.29713,0.71211 2.8822,0.8732 3.47699,1.39729 1.97961,1.24237 2.25398,0.46292 -0.0295,0.25223 0.82358,0.32868 -1.28538,1.25277 -0.33782,1.21588 3.0741,1.13014 1.96684,0.35654 -0.0421,0.87338 4.3176,0.62156 0.69905,0.27931 0.88257,0.83727 2.01986,1.32867 0.67497,1.13984 1.14634,0.81382 -0.20861,1.42632 -0.90918,2.3765 -0.1472,0.58891 1.48815,1.31272 0.47916,1.12473 1.93889,0.94581 1.75736,2.62774 1.5374,0.63203 2.62776,0.70444 -1.03471,1.36693 -0.0876,0.74998 0.13215,1.42983 -0.84431,0.14953 1.68228,0.96277 -0.46998,0.40036 1.80934,1.08136 4.45159,1.44755 0.35051,0.38312 0.1675,1.18932 2.89195,2.33837 0.97153,1.66054 1.3967,1.21674 0.72712,0.87225 1.96052,0.69608 1.44254,1.13168 -1.56219,1.95001 2.28385,0.77582 -0.0696,0.41527 2.14614,0.68682 3.94954,0.63485 5.03066,1.93391 -0.007,1.02268 1.08697,0.78397 -0.63852,1.26332 1.17487,1.02156 3.10624,0.62404 2.04147,1.14381 0.0681,0.88908 0.44248,0.51136 0.15502,0.47804 1.2206,0.73431 -0.54448,0.57881 2.12059,1.63839 0.65195,1.92452 1.83331,0.41265 1.76807,1.91451 2.57994,0.81306 2.37419,1.19634 1.00774,0.6976 1.94953,0.70846 0.30219,0.77008 2.73556,1.66234 0.0783,0.9783 -0.49737,1.13008 0.83494,1.79425 0.89223,1.23728 3.32226,-0.25883 2.07119,0.1794 0.40782,0.49721 2.84184,0.7801 2.80889,1.24068 3.42862,1.1906 0.66773,0.99494 1.28643,0.53134 -0.0893,0.48806 0.78803,0.65015 1.27981,1.47536 1.60666,0.96051 0.7207,0.5958 3.60162,0.99399 0.31051,1.56366 3.17304,2.41075 -0.45445,1.33708 1.89022,0.96648 1.7443,0.51553 0.89264,0.96986 1.56505,1.20848 3.45242,1.71923 1.85443,0.64073 0.97777,0.88021 1.87104,2.29552 2.15207,1.17436 0.64779,1.48243 0.93666,0.96997 -0.87365,1.66248 2.64492,0.44735 -0.1888,0.45302 2.22097,0.14958 0.75252,1.20691 0.32279,-0.06 -1.02115,1.0218 0.28712,1.05051 1.87071,-0.0813 3.15151,1.70429 2.44883,0.78425 1.561,1.94286 0.44809,1.1633 0.76936,1.35877 0.60593,0.83676 -0.28171,1.2456 0.12904,1.69483 2.91118,0.42859 2.87675,0.20293 2.2608,0.40297 -0.0795,0.84713 1.47395,1.72526 -2.46764,1.10161 2.0445,0.52789 3.30035,0.97117 0.97413,0.53968 1.16675,0.24001 1.4834,0.77829 -0.0722,0.97421 1.49928,1.1662 2.60048,0.4683 1.11381,0.83886 0.94019,0.41339 1.58479,0.0281 1.5856,0.83175 -0.0587,1.4503 1.7152,-0.27394 0.39437,1.47012 2.308,1.49329 1.01292,1.23954 -0.406,1.05338 -0.47806,0.49582 1.5015,0.0187 2.27098,1.43511 -0.98845,1.09119 0.95235,1.68692 2.22641,1.59335 -0.68108,1.38283 0.0371,1.3974 -0.73051,0.85126 1.93664,0.79939 1.99481,1.11292 0.89001,0.69781 2.92142,0.64456 -0.009,1.54201 0.33448,0.97558 1.67442,0.50558 2.70691,0.68638 -0.58777,2.32644 2.22332,0.68633 0.0609,0.72703 1.03045,2.17973 2.20069,0.61481 -0.82739,1.50088 1.98,1.22123 1.60101,1.52974 -1.01744,0.95007 -0.10449,1.27814 0.21797,0.74564 2.44338,0.71559 -0.33739,0.86733 0.82029,0.797 0.35222,1.21353 0.74834,0.45589 -0.0897,0.84081 0.34285,0.53811 -0.12272,0.97369 2.64186,0.82336 0.86158,0.85894 2.00981,1.20224 1.15273,1.68318 1.31785,0.18369 -0.23685,1.12549 1.20232,1.24255 -0.56736,1.58197 -0.0115,1.21405 0.76624,0.87407 0.82998,2.41033 0.26433,-0.19321 2.0909,-0.16365 0.94338,1.10954 1.96674,0.01 1.71851,0.8253 0.77703,0.20843 1.14346,-0.56032 -0.66174,1.58682 0.95996,1.16507 2.3711,0.02 0.0846,0.96061 0.47648,0.37821 -0.1374,1.26036 0.79788,0.56384 4.80762,0.98712 1.90741,1.81441 -1.49177,0.58692 1.17703,0.75962 -0.86481,0.59599 1.40441,0.0194 0.078,0.76706 2.11156,-0.0491 1.83187,1.8426 0.93785,1.20232 2.61574,0.32792 -0.83281,0.24299 1.858,-0.0707 2.48447,0.94963 0.57493,0.6771 2.7613,-0.41137 1.1745,0.55639 0.14516,0.91572 0.35775,0.6034 0.96542,0.93322 2.21763,0.59634 2.38937,1.03534 0.61411,0.99328 2.54274,-0.97219 1.82343,0.49582 -0.83173,0.93331 0.98737,0.60722 -0.27619,0.93439 3.65884,1.05386 4.56456,2.27333 -0.34383,-0.0418 1.3363,0.72798 2.68106,0.82556 1.54164,0.86119 -0.40324,1.30682 -0.40406,0.45991 -0.31778,0.86664 3.69197,0.69422 -0.90893,-0.0856 3.72134,1.21888 0.58044,0.76961 1.43542,0.5332 0.16107,0.4499 2.00436,1.44319 1.32821,1.11365 -0.87818,0.0963 1.97037,1.06354 2.12573,0.57061 -0.19376,-0.0913 1.05697,1.34702 1.3527,2.36107 3.01356,0.88435 0.0969,1.23008 -0.44064,0.89742 1.39577,1.28376 1.53242,-0.1496 4.35721,1.19643 0.28184,0.83947 0.79878,1.6803 1.12993,1.12751 1.49557,0.56173 3.61133,0.0934 0.90153,0.28374 0.75513,0.89678 2.08391,1.09262 0.93184,-0.0639 0.1931,0.97101 -0.13065,-0.74466 0.8713,0.98268 1.20845,0.44076 0.36626,0.37596 2.47051,1.10583 3.41164,0.19327 1.11314,0.54251 0.0855,0.35465 -1.22995,-0.0873 0.501,0.79343 1.25372,-1.11163 -1.13928,0.86681 0.42374,0.54206 0.042,0.70195 0.24609,0.64981 1.53616,0.0344 0,0"
           style="fill:none;stroke:#0000ff;stroke-width:1;stroke-linecap:square;stroke-linejoin:round;stroke-miterlimit:10;stroke-dasharray:none;stroke-opacity:1"
           id="path44"
           inkscape:connector-curvature="0" /></g></g><g
       id="g46"><path
         d="m 72,43.2 0,4"
         style="fill:#000000;fill-opacity:1;fill-rule:nonzero;stroke:#000000;stroke-width:0.5;stroke-linecap:butt;stroke-linejoin:round;stroke-miterlimit:10;stroke-dasharray:none;stroke-opacity:1"
         id="path48"
         inkscape:connector-curvature="0" /><path
         d="m 72,388.8 0,-4"
         style="fill:#000000;fill-opacity:1;fill-rule:nonzero;stroke:#000000;stroke-width:0.5;stroke-linecap:butt;stroke-linejoin:round;stroke-miterlimit:10;stroke-dasharray:none;stroke-opacity:1"
         id="path50"
         inkscape:connector-curvature="0" /><text
         transform="matrix(1,0,0,-1,68.976562,30.075)"
         style="font-variant:normal;font-weight:normal;font-size:12px;font-family:'Bitstream Vera Sans';-inkscape-font-specification:BitstreamVeraSans-Roman;writing-mode:lr-tb;fill:#000000;fill-opacity:1;fill-rule:nonzero;stroke:none"
         id="text52"><tspan
           x="0"
           y="0"
           id="tspan54">0</tspan></text>
<path
         d="m 127.8,43.2 0,4"
         style="fill:#000000;fill-opacity:1;fill-rule:nonzero;stroke:#000000;stroke-width:0.5;stroke-linecap:butt;stroke-linejoin:round;stroke-miterlimit:10;stroke-dasharray:none;stroke-opacity:1"
         id="path56"
         inkscape:connector-curvature="0" /><path
         d="m 127.8,388.8 0,-4"
         style="fill:#000000;fill-opacity:1;fill-rule:nonzero;stroke:#000000;stroke-width:0.5;stroke-linecap:butt;stroke-linejoin:round;stroke-miterlimit:10;stroke-dasharray:none;stroke-opacity:1"
         id="path58"
         inkscape:connector-curvature="0" /><text
         transform="matrix(1,0,0,-1,124.96406,30.075)"
         style="font-variant:normal;font-weight:normal;font-size:12px;font-family:'Bitstream Vera Sans';-inkscape-font-specification:BitstreamVeraSans-Roman;writing-mode:lr-tb;fill:#000000;fill-opacity:1;fill-rule:nonzero;stroke:none"
         id="text60"><tspan
           x="0"
           y="0"
           id="tspan62">5</tspan></text>
<path
         d="m 183.6,43.2 0,4"
         style="fill:#000000;fill-opacity:1;fill-rule:nonzero;stroke:#000000;stroke-width:0.5;stroke-linecap:butt;stroke-linejoin:round;stroke-miterlimit:10;stroke-dasharray:none;stroke-opacity:1"
         id="path64"
         inkscape:connector-curvature="0" /><path
         d="m 183.6,388.8 0,-4"
         style="fill:#000000;fill-opacity:1;fill-rule:nonzero;stroke:#000000;stroke-width:0.5;stroke-linecap:butt;stroke-linejoin:round;stroke-miterlimit:10;stroke-dasharray:none;stroke-opacity:1"
         id="path66"
         inkscape:connector-curvature="0" /><text
         transform="matrix(1,0,0,-1,177.01406,30.075)"
         style="font-variant:normal;font-weight:normal;font-size:12px;font-family:'Bitstream Vera Sans';-inkscape-font-specification:BitstreamVeraSans-Roman;writing-mode:lr-tb;fill:#000000;fill-opacity:1;fill-rule:nonzero;stroke:none"
         id="text68"><tspan
           x="0 7.632"
           y="0"
           sodipodi:role="line"
           id="tspan70">10</tspan></text>
<path
         d="m 239.4,43.2 0,4"
         style="fill:#000000;fill-opacity:1;fill-rule:nonzero;stroke:#000000;stroke-width:0.5;stroke-linecap:butt;stroke-linejoin:round;stroke-miterlimit:10;stroke-dasharray:none;stroke-opacity:1"
         id="path72"
         inkscape:connector-curvature="0" /><path
         d="m 239.4,388.8 0,-4"
         style="fill:#000000;fill-opacity:1;fill-rule:nonzero;stroke:#000000;stroke-width:0.5;stroke-linecap:butt;stroke-linejoin:round;stroke-miterlimit:10;stroke-dasharray:none;stroke-opacity:1"
         id="path74"
         inkscape:connector-curvature="0" /><text
         transform="matrix(1,0,0,-1,232.93906,30.075)"
         style="font-variant:normal;font-weight:normal;font-size:12px;font-family:'Bitstream Vera Sans';-inkscape-font-specification:BitstreamVeraSans-Roman;writing-mode:lr-tb;fill:#000000;fill-opacity:1;fill-rule:nonzero;stroke:none"
         id="text76"><tspan
           x="0 7.632"
           y="0"
           sodipodi:role="line"
           id="tspan78">15</tspan></text>
<path
         d="m 295.2,43.2 0,4"
         style="fill:#000000;fill-opacity:1;fill-rule:nonzero;stroke:#000000;stroke-width:0.5;stroke-linecap:butt;stroke-linejoin:round;stroke-miterlimit:10;stroke-dasharray:none;stroke-opacity:1"
         id="path80"
         inkscape:connector-curvature="0" /><path
         d="m 295.2,388.8 0,-4"
         style="fill:#000000;fill-opacity:1;fill-rule:nonzero;stroke:#000000;stroke-width:0.5;stroke-linecap:butt;stroke-linejoin:round;stroke-miterlimit:10;stroke-dasharray:none;stroke-opacity:1"
         id="path82"
         inkscape:connector-curvature="0" /><text
         transform="matrix(1,0,0,-1,288.39531,30.075)"
         style="font-variant:normal;font-weight:normal;font-size:12px;font-family:'Bitstream Vera Sans';-inkscape-font-specification:BitstreamVeraSans-Roman;writing-mode:lr-tb;fill:#000000;fill-opacity:1;fill-rule:nonzero;stroke:none"
         id="text84"><tspan
           x="0 7.632"
           y="0"
           sodipodi:role="line"
           id="tspan86">20</tspan></text>
<path
         d="m 351,43.2 0,4"
         style="fill:#000000;fill-opacity:1;fill-rule:nonzero;stroke:#000000;stroke-width:0.5;stroke-linecap:butt;stroke-linejoin:round;stroke-miterlimit:10;stroke-dasharray:none;stroke-opacity:1"
         id="path88"
         inkscape:connector-curvature="0" /><path
         d="m 351,388.8 0,-4"
         style="fill:#000000;fill-opacity:1;fill-rule:nonzero;stroke:#000000;stroke-width:0.5;stroke-linecap:butt;stroke-linejoin:round;stroke-miterlimit:10;stroke-dasharray:none;stroke-opacity:1"
         id="path90"
         inkscape:connector-curvature="0" /><text
         transform="matrix(1,0,0,-1,344.32031,30.075)"
         style="font-variant:normal;font-weight:normal;font-size:12px;font-family:'Bitstream Vera Sans';-inkscape-font-specification:BitstreamVeraSans-Roman;writing-mode:lr-tb;fill:#000000;fill-opacity:1;fill-rule:nonzero;stroke:none"
         id="text92"><tspan
           x="0 7.632"
           y="0"
           sodipodi:role="line"
           id="tspan94">25</tspan></text>
<path
         d="m 406.8,43.2 0,4"
         style="fill:#000000;fill-opacity:1;fill-rule:nonzero;stroke:#000000;stroke-width:0.5;stroke-linecap:butt;stroke-linejoin:round;stroke-miterlimit:10;stroke-dasharray:none;stroke-opacity:1"
         id="path96"
         inkscape:connector-curvature="0" /><path
         d="m 406.8,388.8 0,-4"
         style="fill:#000000;fill-opacity:1;fill-rule:nonzero;stroke:#000000;stroke-width:0.5;stroke-linecap:butt;stroke-linejoin:round;stroke-miterlimit:10;stroke-dasharray:none;stroke-opacity:1"
         id="path98"
         inkscape:connector-curvature="0" /><text
         transform="matrix(1,0,0,-1,400.01875,30.075)"
         style="font-variant:normal;font-weight:normal;font-size:12px;font-family:'Bitstream Vera Sans';-inkscape-font-specification:BitstreamVeraSans-Roman;writing-mode:lr-tb;fill:#000000;fill-opacity:1;fill-rule:nonzero;stroke:none"
         id="text100"><tspan
           x="0 7.632"
           y="0"
           sodipodi:role="line"
           id="tspan102">30</tspan></text>
<path
         d="m 462.6,43.2 0,4"
         style="fill:#000000;fill-opacity:1;fill-rule:nonzero;stroke:#000000;stroke-width:0.5;stroke-linecap:butt;stroke-linejoin:round;stroke-miterlimit:10;stroke-dasharray:none;stroke-opacity:1"
         id="path104"
         inkscape:connector-curvature="0" /><path
         d="m 462.6,388.8 0,-4"
         style="fill:#000000;fill-opacity:1;fill-rule:nonzero;stroke:#000000;stroke-width:0.5;stroke-linecap:butt;stroke-linejoin:round;stroke-miterlimit:10;stroke-dasharray:none;stroke-opacity:1"
         id="path106"
         inkscape:connector-curvature="0" /><text
         transform="matrix(1,0,0,-1,455.94375,30.075)"
         style="font-variant:normal;font-weight:normal;font-size:12px;font-family:'Bitstream Vera Sans';-inkscape-font-specification:BitstreamVeraSans-Roman;writing-mode:lr-tb;fill:#000000;fill-opacity:1;fill-rule:nonzero;stroke:none"
         id="text108"><tspan
           x="0 7.632"
           y="0"
           sodipodi:role="line"
           id="tspan110">35</tspan></text>
<path
         d="m 518.4,43.2 0,4"
         style="fill:#000000;fill-opacity:1;fill-rule:nonzero;stroke:#000000;stroke-width:0.5;stroke-linecap:butt;stroke-linejoin:round;stroke-miterlimit:10;stroke-dasharray:none;stroke-opacity:1"
         id="path112"
         inkscape:connector-curvature="0" /><path
         d="m 518.4,388.8 0,-4"
         style="fill:#000000;fill-opacity:1;fill-rule:nonzero;stroke:#000000;stroke-width:0.5;stroke-linecap:butt;stroke-linejoin:round;stroke-miterlimit:10;stroke-dasharray:none;stroke-opacity:1"
         id="path114"
         inkscape:connector-curvature="0" /><text
         transform="matrix(1,0,0,-1,511.45469,30.075)"
         style="font-variant:normal;font-weight:normal;font-size:12px;font-family:'Bitstream Vera Sans';-inkscape-font-specification:BitstreamVeraSans-Roman;writing-mode:lr-tb;fill:#000000;fill-opacity:1;fill-rule:nonzero;stroke:none"
         id="text116"><tspan
           x="0 7.632"
           y="0"
           sodipodi:role="line"
           id="tspan118">40</tspan></text>
<path
         d="m 72,43.2 4,0"
         style="fill:#000000;fill-opacity:1;fill-rule:nonzero;stroke:#000000;stroke-width:0.5;stroke-linecap:butt;stroke-linejoin:round;stroke-miterlimit:10;stroke-dasharray:none;stroke-opacity:1"
         id="path120"
         inkscape:connector-curvature="0" /><path
         d="m 518.4,43.2 -4,0"
         style="fill:#000000;fill-opacity:1;fill-rule:nonzero;stroke:#000000;stroke-width:0.5;stroke-linecap:butt;stroke-linejoin:round;stroke-miterlimit:10;stroke-dasharray:none;stroke-opacity:1"
         id="path122"
         inkscape:connector-curvature="0" /><g
         id="g124"
         transform="translate(44.71875,39.8875)"><text
           transform="matrix(1,0,0,-1,10.054688,0)"
           style="font-variant:normal;font-weight:normal;font-size:12px;font-family:'Bitstream Vera Sans';-inkscape-font-specification:BitstreamVeraSans-Roman;writing-mode:lr-tb;fill:#000000;fill-opacity:1;fill-rule:nonzero;stroke:none"
           id="text126"><tspan
             x="0 7.632"
             y="0"
             sodipodi:role="line"
             id="tspan128">10</tspan></text>
<g
           id="g130"
           transform="scale(0.012,0.012)"><g
             id="g132"><g
               id="g134"
               clip-path="url(#clipPath136)"><path
                 d="m 106,355 626,0 0,-83 -626,0 0,83"
                 style="fill:#000000;fill-opacity:1;fill-rule:nonzero;stroke:none"
                 id="path140"
                 inkscape:connector-curvature="0" /></g></g></g></g><path
         d="m 72,92.571429 4,0"
         style="fill:#000000;fill-opacity:1;fill-rule:nonzero;stroke:#000000;stroke-width:0.5;stroke-linecap:butt;stroke-linejoin:round;stroke-miterlimit:10;stroke-dasharray:none;stroke-opacity:1"
         id="path142"
         inkscape:connector-curvature="0" /><path
         d="m 518.4,92.571429 -4,0"
         style="fill:#000000;fill-opacity:1;fill-rule:nonzero;stroke:#000000;stroke-width:0.5;stroke-linecap:butt;stroke-linejoin:round;stroke-miterlimit:10;stroke-dasharray:none;stroke-opacity:1"
         id="path144"
         inkscape:connector-curvature="0" /><text
         transform="matrix(1,0,0,-1,61.953125,89.258929)"
         style="font-variant:normal;font-weight:normal;font-size:12px;font-family:'Bitstream Vera Sans';-inkscape-font-specification:BitstreamVeraSans-Roman;writing-mode:lr-tb;fill:#000000;fill-opacity:1;fill-rule:nonzero;stroke:none"
         id="text146"><tspan
           x="0"
           y="0"
           id="tspan148">0</tspan></text>
<path
         d="m 72,141.94286 4,0"
         style="fill:#000000;fill-opacity:1;fill-rule:nonzero;stroke:#000000;stroke-width:0.5;stroke-linecap:butt;stroke-linejoin:round;stroke-miterlimit:10;stroke-dasharray:none;stroke-opacity:1"
         id="path150"
         inkscape:connector-curvature="0" /><path
         d="m 518.4,141.94286 -4,0"
         style="fill:#000000;fill-opacity:1;fill-rule:nonzero;stroke:#000000;stroke-width:0.5;stroke-linecap:butt;stroke-linejoin:round;stroke-miterlimit:10;stroke-dasharray:none;stroke-opacity:1"
         id="path152"
         inkscape:connector-curvature="0" /><text
         transform="matrix(1,0,0,-1,54.828125,138.63036)"
         style="font-variant:normal;font-weight:normal;font-size:12px;font-family:'Bitstream Vera Sans';-inkscape-font-specification:BitstreamVeraSans-Roman;writing-mode:lr-tb;fill:#000000;fill-opacity:1;fill-rule:nonzero;stroke:none"
         id="text154"><tspan
           x="0 7.632"
           y="0"
           sodipodi:role="line"
           id="tspan156">10</tspan></text>
<path
         d="m 72,191.31429 4,0"
         style="fill:#000000;fill-opacity:1;fill-rule:nonzero;stroke:#000000;stroke-width:0.5;stroke-linecap:butt;stroke-linejoin:round;stroke-miterlimit:10;stroke-dasharray:none;stroke-opacity:1"
         id="path158"
         inkscape:connector-curvature="0" /><path
         d="m 518.4,191.31429 -4,0"
         style="fill:#000000;fill-opacity:1;fill-rule:nonzero;stroke:#000000;stroke-width:0.5;stroke-linecap:butt;stroke-linejoin:round;stroke-miterlimit:10;stroke-dasharray:none;stroke-opacity:1"
         id="path160"
         inkscape:connector-curvature="0" /><text
         transform="matrix(1,0,0,-1,54.390625,188.00179)"
         style="font-variant:normal;font-weight:normal;font-size:12px;font-family:'Bitstream Vera Sans';-inkscape-font-specification:BitstreamVeraSans-Roman;writing-mode:lr-tb;fill:#000000;fill-opacity:1;fill-rule:nonzero;stroke:none"
         id="text162"><tspan
           x="0 7.632"
           y="0"
           sodipodi:role="line"
           id="tspan164">20</tspan></text>
<path
         d="m 72,240.68571 4,0"
         style="fill:#000000;fill-opacity:1;fill-rule:nonzero;stroke:#000000;stroke-width:0.5;stroke-linecap:butt;stroke-linejoin:round;stroke-miterlimit:10;stroke-dasharray:none;stroke-opacity:1"
         id="path166"
         inkscape:connector-curvature="0" /><path
         d="m 518.4,240.68571 -4,0"
         style="fill:#000000;fill-opacity:1;fill-rule:nonzero;stroke:#000000;stroke-width:0.5;stroke-linecap:butt;stroke-linejoin:round;stroke-miterlimit:10;stroke-dasharray:none;stroke-opacity:1"
         id="path168"
         inkscape:connector-curvature="0" /><text
         transform="matrix(1,0,0,-1,54.4375,237.37321)"
         style="font-variant:normal;font-weight:normal;font-size:12px;font-family:'Bitstream Vera Sans';-inkscape-font-specification:BitstreamVeraSans-Roman;writing-mode:lr-tb;fill:#000000;fill-opacity:1;fill-rule:nonzero;stroke:none"
         id="text170"><tspan
           x="0 7.632"
           y="0"
           sodipodi:role="line"
           id="tspan172">30</tspan></text>
<path
         d="m 72,290.05714 4,0"
         style="fill:#000000;fill-opacity:1;fill-rule:nonzero;stroke:#000000;stroke-width:0.5;stroke-linecap:butt;stroke-linejoin:round;stroke-miterlimit:10;stroke-dasharray:none;stroke-opacity:1"
         id="path174"
         inkscape:connector-curvature="0" /><path
         d="m 518.4,290.05714 -4,0"
         style="fill:#000000;fill-opacity:1;fill-rule:nonzero;stroke:#000000;stroke-width:0.5;stroke-linecap:butt;stroke-linejoin:round;stroke-miterlimit:10;stroke-dasharray:none;stroke-opacity:1"
         id="path176"
         inkscape:connector-curvature="0" /><text
         transform="matrix(1,0,0,-1,54.109375,286.74464)"
         style="font-variant:normal;font-weight:normal;font-size:12px;font-family:'Bitstream Vera Sans';-inkscape-font-specification:BitstreamVeraSans-Roman;writing-mode:lr-tb;fill:#000000;fill-opacity:1;fill-rule:nonzero;stroke:none"
         id="text178"><tspan
           x="0 7.632"
           y="0"
           sodipodi:role="line"
           id="tspan180">40</tspan></text>
<path
         d="m 72,339.42857 4,0"
         style="fill:#000000;fill-opacity:1;fill-rule:nonzero;stroke:#000000;stroke-width:0.5;stroke-linecap:butt;stroke-linejoin:round;stroke-miterlimit:10;stroke-dasharray:none;stroke-opacity:1"
         id="path182"
         inkscape:connector-curvature="0" /><path
         d="m 518.4,339.42857 -4,0"
         style="fill:#000000;fill-opacity:1;fill-rule:nonzero;stroke:#000000;stroke-width:0.5;stroke-linecap:butt;stroke-linejoin:round;stroke-miterlimit:10;stroke-dasharray:none;stroke-opacity:1"
         id="path184"
         inkscape:connector-curvature="0" /><text
         transform="matrix(1,0,0,-1,54.4375,336.11607)"
         style="font-variant:normal;font-weight:normal;font-size:12px;font-family:'Bitstream Vera Sans';-inkscape-font-specification:BitstreamVeraSans-Roman;writing-mode:lr-tb;fill:#000000;fill-opacity:1;fill-rule:nonzero;stroke:none"
         id="text186"><tspan
           x="0 7.632"
           y="0"
           sodipodi:role="line"
           id="tspan188">50</tspan></text>
<path
         d="m 72,388.8 4,0"
         style="fill:#000000;fill-opacity:1;fill-rule:nonzero;stroke:#000000;stroke-width:0.5;stroke-linecap:butt;stroke-linejoin:round;stroke-miterlimit:10;stroke-dasharray:none;stroke-opacity:1"
         id="path190"
         inkscape:connector-curvature="0" /><path
         d="m 518.4,388.8 -4,0"
         style="fill:#000000;fill-opacity:1;fill-rule:nonzero;stroke:#000000;stroke-width:0.5;stroke-linecap:butt;stroke-linejoin:round;stroke-miterlimit:10;stroke-dasharray:none;stroke-opacity:1"
         id="path192"
         inkscape:connector-curvature="0" /><text
         transform="matrix(1,0,0,-1,54.359375,385.4875)"
         style="font-variant:normal;font-weight:normal;font-size:12px;font-family:'Bitstream Vera Sans';-inkscape-font-specification:BitstreamVeraSans-Roman;writing-mode:lr-tb;fill:#000000;fill-opacity:1;fill-rule:nonzero;stroke:none"
         id="text194"><tspan
           x="0 7.632"
           y="0"
           sodipodi:role="line"
           id="tspan196">60</tspan></text>
<path
         d="m 72,388.8 446.4,0"
         style="fill:none;stroke:#000000;stroke-width:1;stroke-linecap:butt;stroke-linejoin:round;stroke-miterlimit:10;stroke-dasharray:none;stroke-opacity:1"
         id="path198"
         inkscape:connector-curvature="0" /><path
         d="m 518.4,43.2 0,345.6"
         style="fill:none;stroke:#000000;stroke-width:1;stroke-linecap:butt;stroke-linejoin:round;stroke-miterlimit:10;stroke-dasharray:none;stroke-opacity:1"
         id="path200"
         inkscape:connector-curvature="0" /><path
         d="m 72,43.2 446.4,0"
         style="fill:none;stroke:#000000;stroke-width:1;stroke-linecap:butt;stroke-linejoin:round;stroke-miterlimit:10;stroke-dasharray:none;stroke-opacity:1"
         id="path202"
         inkscape:connector-curvature="0" /><path
         d="m 72,43.2 0,345.6"
         style="fill:none;stroke:#000000;stroke-width:1;stroke-linecap:butt;stroke-linejoin:round;stroke-miterlimit:10;stroke-dasharray:none;stroke-opacity:1"
         id="path204"
         inkscape:connector-curvature="0" /></g></g></svg>